<svg id="Layer_1" data-name="Layer 1" xmlns="http://www.w3.org/2000/svg" xmlns:xlink="http://www.w3.org/1999/xlink" viewBox="0 0 160.31 172.1"><defs><style>.cls-1{fill:none;stroke:#f9f9f9;stroke-linecap:round;stroke-linejoin:round;stroke-width:10px;}.cls-2{fill:url(#linear-gradient);}.cls-3{fill:#f9f9f9;}</style><linearGradient id="linear-gradient" x1="85.22" y1="140" x2="85.22" y2="20.97" gradientUnits="userSpaceOnUse"><stop offset="0" stop-color="#f1f1f1"/><stop offset="1" stop-color="#b0b0b0"/></linearGradient></defs><title>font-selector</title><path class="cls-1" d="M160.34,55.92c0-.1,0-0.2,0-0.29s0-.45-0.08-0.67l0-.3c0-.23-0.09-0.46-0.14-0.68l0-.21q-0.11-.43-0.25-0.84l-0.07-.19c-0.08-.21-0.15-0.42-0.24-0.62l-0.12-.26c-0.08-.18-0.17-0.36-0.26-0.54l-0.12-.23c-0.13-.23-0.27-0.46-0.41-0.68l0,0c-0.15-.23-0.32-0.45-0.49-0.67l-0.16-.19-0.34-.4,0.06,0-0.23-.23-0.06-.07-0.13-.13L122.54,13.1l0.25,0.3-0.27-.3-0.17-.17L122,12.56l-0.17-.16q-0.26-.22-0.53-0.42l0,0c-0.2-.14-0.41-0.28-0.62-0.41l-0.19-.11-0.48-.25-0.23-.11-0.54-.22L119,10.76c-0.25-.09-0.5-0.17-0.76-0.23l-0.18,0-0.63-.13-0.28,0-0.62-.08-0.27,0c-0.3,0-.6,0-0.91,0H10.07v162.1H160.37V56.91C160.37,56.57,160.36,56.24,160.34,55.92Z" transform="translate(-5.07 -5.17)"/><path class="cls-1" d="M122.45,13l0.09,0.1Z" transform="translate(-5.07 -5.17)"/><path class="cls-2" d="M160.34,55.92c0-.1,0-0.2,0-0.29s0-.45-0.08-0.67l0-.3c0-.23-0.09-0.46-0.14-0.68l0-.21q-0.11-.43-0.25-0.84l-0.07-.19c-0.08-.21-0.15-0.42-0.24-0.62l-0.12-.26c-0.08-.18-0.17-0.36-0.26-0.54l-0.12-.23c-0.13-.23-0.27-0.46-0.41-0.68l0,0c-0.15-.23-0.32-0.45-0.49-0.67l-0.16-.19-0.39-.45-0.19-.2-0.44-.44-0.15-.14q-0.3-.28-0.63-0.55l-0.15-.12-0.53-.4L155.15,47l-0.51-.34-0.23-.14-0.7-.41-0.05,0-0.79-.41-0.24-.11-0.59-.27-0.27-.12L151.14,45l-0.21-.08-0.87-.31-0.17-.06-0.72-.23-0.28-.09L148.22,44l-0.27-.07-0.86-.22H147l-0.95-.21-0.25-.05-0.71-.14-0.29-.05-0.74-.12-0.21,0-1-.14-0.13,0-0.84-.1-0.27,0-0.73-.07-0.25,0-0.92-.08h0l-1-.07h-0.2l-0.75,0h-0.24l-0.76,0h-0.15l-0.93,0h0a77,77,0,0,0-10.2.5,75.52,75.52,0,0,0,1.23-9.47h0a0.47,0.47,0,0,0,0,0c0-.57.07-1.15,0.09-1.74V31.5c0-.23,0-0.46,0-0.7,0-.07,0-0.15,0-0.23,0-.26,0-0.53,0-0.79,0,0,0-.07,0-0.1q0-.45,0-0.91c0-.06,0-0.12,0-0.18,0-.24,0-0.48,0-0.72V27.6c0-.23,0-0.46,0-0.69,0-.08,0-0.15,0-0.23,0-.3,0-0.61-0.05-0.91V25.7c0-.28,0-0.56-0.07-0.83l0-.27c0-.22,0-0.43-0.07-0.65l0-.28c0-.25-0.06-0.5-0.1-0.75l0-.14q-0.06-.44-0.14-0.87l0-.23c0-.21-0.08-0.43-0.12-0.64l-0.06-.28q-0.07-.31-0.14-0.62l-0.06-.23c-0.07-.28-0.14-0.55-0.22-0.82l0-.13q-0.1-.34-0.21-0.67L125.38,18l-0.2-.55-0.09-.24q-0.13-.33-0.27-0.64l0-.11c-0.11-.24-0.22-0.48-0.35-0.71l-0.11-.2L124,15.11l-0.13-.22-0.31-.47-0.12-.17q-0.22-.31-0.45-0.6l-0.1-.11-0.4-.44-0.17-.17L122,12.56l-0.17-.16q-0.26-.22-0.53-0.42l0,0c-0.2-.14-0.41-0.28-0.62-0.41l-0.19-.11-0.48-.25-0.23-.11-0.54-.22L119,10.76c-0.25-.09-0.5-0.17-0.76-0.23l-0.18,0-0.63-.13-0.28,0-0.62-.08-0.27,0c-0.3,0-.6,0-0.91,0H10.07v162.1H160.37V56.91C160.37,56.57,160.36,56.24,160.34,55.92Z" transform="translate(-5.07 -5.17)"/><path class="cls-3" d="M157.57,49.16L122.45,13s7.5,7,2.27,30.72C124.72,43.72,147.29,40.26,157.57,49.16Z" transform="translate(-5.07 -5.17)"/></svg>