<?xml version="1.0" encoding="iso-8859-1"?>
<!-- Generator: Adobe Illustrator 19.2.1, SVG Export Plug-In . SVG Version: 6.00 Build 0)  -->
<svg version="1.1" id="Layer_1" xmlns="http://www.w3.org/2000/svg" xmlns:xlink="http://www.w3.org/1999/xlink" x="0px" y="0px"
	 viewBox="0 0 303 22.5" style="enable-background:new 0 0 303 22.5;" xml:space="preserve">
<g>
	<g>
		<g>
			<g>
				<g>
					<path style="fill:#FFFFFF;" d="M10.96,7.085C9.982,8.803,9.102,10.571,8.355,12.4c-0.488,1.183-1.57,2.906-0.961,4.171
						c0.103,0.205,0.345,0.311,0.565,0.321c1.072,0.053,2.155-0.329,3.197-0.551c1.303-0.279,2.6-0.551,3.896-0.824
						c0.82-0.177,0.475-1.434-0.342-1.257c-1.3,0.275-2.601,0.545-3.897,0.826c-0.537,0.113-1.116,0.16-1.624,0.343
						c-0.888,0.312-0.682,0.294-0.372-0.592c0.869-2.465,1.978-4.822,3.277-7.091C12.508,7.019,11.382,6.361,10.96,7.085
						L10.96,7.085z"/>
				</g>
				<g>
					<path style="fill:#FFFFFF;" d="M21.5,7c-0.909,2.418-1.788,4.846-2.644,7.284c-0.274,0.802,0.987,1.139,1.259,0.349
						c0.858-2.434,1.737-4.869,2.649-7.286C23.052,6.558,21.798,6.224,21.5,7L21.5,7z"/>
				</g>
				<g>
					<path style="fill:#FFFFFF;" d="M24.111,16.177c0.501-1.006,4.578-8.393,6.7-5.812c0.937,1.138,0.017,3.154,1.394,4.316
						c0.231,0.193,0.52,0.248,0.797,0.099c1.092-0.599,1.719-1.817,2.536-2.727c0.489-0.544,1.392-1.798,2.093-1.935
						c2.404-0.484,2.691,2.512,2.962,3.86c0.166,0.825,1.426,0.475,1.259-0.343c-0.431-2.121-0.805-5.623-3.645-5.161
						c-1.128,0.18-2.117,1.119-2.905,1.885c-0.525,0.523-1.043,1.693-1.666,1.978c-1.285,0.6-1.237-0.722-1.484-1.84
						c-1.457-6.704-8.004,2.692-9.166,5.024C22.612,16.27,23.737,16.931,24.111,16.177L24.111,16.177z"/>
				</g>
				<g>
					<path style="fill:#FFFFFF;" d="M48.501,7.343c-1.038,1.945-1.809,4.001-2.304,6.15c-0.183,0.817,1.071,1.169,1.26,0.345
						c0.465-2.044,1.184-3.987,2.168-5.836C50.022,7.262,48.895,6.602,48.501,7.343L48.501,7.343z"/>
				</g>
				<g>
					<path style="fill:#FFFFFF;" d="M56.33,7.605c-0.616,1.324-1.221,2.651-1.825,3.98c-0.371,0.812-1.044,1.755-0.739,2.675
						c0.255,0.789,1.518,0.449,1.252-0.352c-0.194-0.599,0.866-2.224,1.118-2.769c0.439-0.958,0.88-1.921,1.318-2.872
						C57.802,7.506,56.675,6.844,56.33,7.605L56.33,7.605z"/>
				</g>
				<g>
					<path style="fill:#FFFFFF;" d="M61.195,6.795c-1.438,0.026-2.875,0.055-4.306,0.081c-1.05,0.017-2.22-0.121-3.222,0.24
						c-0.785,0.279-0.448,1.54,0.348,1.255c1.02-0.364,2.373-0.182,3.444-0.206c1.246-0.024,2.489-0.044,3.736-0.067
						C62.029,8.084,62.029,6.78,61.195,6.795L61.195,6.795z"/>
				</g>
				<g>
					<path style="fill:#FFFFFF;" d="M67.44,6.975c-1.039,1.394-2.112,2.771-3.123,4.178c-0.53,0.752-1.3,1.93-0.719,2.87
						c0.481,0.776,1.489,0.663,2.259,0.615c1.887-0.121,3.768-0.302,5.648-0.516c0.823-0.099,0.833-1.406,0-1.308
						c-1.133,0.128-2.254,0.242-3.386,0.347c-0.566,0.049-2.987,0.52-3.262,0.049c-0.334-0.579,1.202-2.219,1.546-2.693
						c0.728-0.959,1.444-1.915,2.168-2.879C69.072,6.962,67.939,6.309,67.44,6.975L67.44,6.975z"/>
				</g>
				<g>
					<path style="fill:#FFFFFF;" d="M66.277,10.404c2.537-0.053,5.062-0.247,7.573-0.563c0.822-0.095,0.835-1.407,0-1.299
						c-2.511,0.313-5.036,0.498-7.573,0.559C65.439,9.118,65.439,10.425,66.277,10.404L66.277,10.404z"/>
				</g>
				<g>
					<path style="fill:#FFFFFF;" d="M67.975,7.837c2.42-0.312,4.827-0.715,7.215-1.231c0.817-0.18,0.472-1.437-0.35-1.261
						c-2.271,0.492-4.553,0.89-6.865,1.192C67.152,6.643,67.143,7.941,67.975,7.837L67.975,7.837z"/>
				</g>
				<g>
					<path style="fill:#FFFFFF;" d="M76.536,14.541c0.9-1.553,1.801-3.128,2.927-4.533c0.502-0.629,1.046-1.271,1.673-1.781
						c1.173-0.969,3.577-1.619,3.549,0.892c-0.041,3.134-4.682,6.756-7.672,5.325c-0.752-0.359-1.411,0.768-0.655,1.127
						c4.082,1.949,10.526-2.872,9.603-7.44c-0.44-2.187-2.927-2.584-4.645-1.622c-2.715,1.51-4.412,4.796-5.907,7.377
						C74.986,14.616,76.113,15.272,76.536,14.541L76.536,14.541z"/>
				</g>
				<g>
					<path style="fill:#FFFFFF;" d="M104.931,4.02c-1.232,2.116-2.469,4.231-3.705,6.339c-0.538,0.919-1.967,2.439-1.325,3.584
						c0.597,1.078,2.514,0.759,3.49,0.773c2.404,0.037,4.819,0.037,7.222,0.005c0.839-0.013,0.844-1.312,0-1.303
						c-1.522,0.018-3.036,0.024-4.566,0.022c-0.822-0.008-4.262,0.388-4.75-0.188c-0.544-0.634,4.139-7.502,4.765-8.57
						C106.486,3.958,105.354,3.298,104.931,4.02L104.931,4.02z"/>
				</g>
				<g>
					<path style="fill:#FFFFFF;" d="M111.665,4.208c-2.582-0.337-5.113,0.005-7.516,1.014c-0.756,0.324-0.425,1.584,0.35,1.257
						c2.312-0.971,4.681-1.294,7.165-0.971C112.493,5.617,112.488,4.315,111.665,4.208L111.665,4.208z"/>
				</g>
				<g>
					<path style="fill:#FFFFFF;" d="M108.743,8.705c-1.888-0.202-3.737-0.131-5.606,0.182c-0.828,0.139-0.476,1.395,0.345,1.261
						c1.747-0.296,3.495-0.328,5.261-0.141C109.575,10.097,109.568,8.788,108.743,8.705L108.743,8.705z"/>
				</g>
				<g>
					<path style="fill:#FFFFFF;" d="M120.06,6.5c-1.977,2.38-3.151,5.123-3.507,8.197c-0.098,0.83,1.208,0.824,1.305,0
						c0.315-2.702,1.385-5.185,3.122-7.269C121.516,6.783,120.594,5.858,120.06,6.5L120.06,6.5z"/>
				</g>
				<g>
					<path style="fill:#FFFFFF;" d="M119.779,7.031c1.254,0.072,2.493,0.349,3.599,0.972c1.634,0.926,1.03,2.116-0.083,3.195
						c-1.516,1.47-3.534,2.279-5.616,2.44c-0.827,0.059-0.839,1.368,0,1.301c2.899-0.218,6.559-1.697,7.868-4.51
						c1.535-3.302-3.462-4.565-5.768-4.704C118.94,5.672,118.945,6.975,119.779,7.031L119.779,7.031z"/>
				</g>
				<g>
					<path style="fill:#FFFFFF;" d="M131.313,6.044c-0.494,2.394-1.196,4.714-2.118,6.985c-0.32,0.775,0.942,1.115,1.256,0.348
						c0.926-2.267,1.627-4.592,2.118-6.986C132.737,5.571,131.481,5.221,131.313,6.044L131.313,6.044z"/>
				</g>
				<g>
					<path style="fill:#FFFFFF;" d="M140.324,6.66c-1.38,2.113-2.416,4.408-3.105,6.835c-0.233,0.81,1.029,1.162,1.257,0.35
						c0.659-2.336,1.652-4.495,2.978-6.53C141.914,6.611,140.785,5.957,140.324,6.66L140.324,6.66z"/>
				</g>
				<g>
					<path style="fill:#FFFFFF;" d="M136.587,7.757c3.018,0.527,5.986,0.262,8.838-0.848c0.771-0.3,0.431-1.568-0.341-1.257
						c-2.638,1.029-5.363,1.333-8.153,0.846C136.115,6.354,135.762,7.614,136.587,7.757L136.587,7.757z"/>
				</g>
				<g>
					<path style="fill:#FFFFFF;" d="M150.933,6.876c-1.466,2.096-2.565,4.385-3.286,6.841c-0.23,0.806,1.026,1.155,1.259,0.348
						c0.694-2.36,1.74-4.522,3.154-6.534C152.543,6.844,151.411,6.193,150.933,6.876L150.933,6.876z"/>
				</g>
				<g>
					<path style="fill:#FFFFFF;" d="M160.05,7.307c-2.224-0.381-3.751,1.235-4.435,3.198c-0.558,1.581-0.7,4.071,1.42,4.495
						c1.661,0.325,4.382-1.033,5.17-2.501c0.379-0.71,0.471-1.643,0.085-2.377c-0.503-0.956-1.768-0.784-2.288-1.573
						c-0.455-0.696-1.582-0.041-1.122,0.662c0.525,0.806,1.214,0.688,1.921,1.215c1.53,1.125-0.925,2.513-1.833,2.906
						c-0.613,0.262-1.702,0.714-2.238,0.034c-0.348-0.45-0.194-1.284-0.08-1.787c0.333-1.421,1.294-3.31,3.053-3.015
						C160.522,8.708,160.87,7.45,160.05,7.307L160.05,7.307z"/>
				</g>
				<g>
					<path style="fill:#FFFFFF;" d="M165.844,15.055c0.695-1.566,2.323-5.338,4.439-4.07c1.421,0.853,1.869,2.555,3.75,2.919
						c3.199,0.62,4.284-3.733,4.913-6.087c0.218-0.816-1.038-1.156-1.259-0.348c-0.295,1.134-0.572,2.683-1.325,3.592
						c-1.219,1.458-2.863,1.499-4.17,0.182c-0.661-0.66-1.327-2.312-2.432-2.453c-2.168-0.263-4.383,4.131-5.041,5.608
						C164.384,15.158,165.505,15.827,165.844,15.055L165.844,15.055z"/>
				</g>
				<g>
					<path style="fill:#FFFFFF;" d="M197.095,5.399c-0.288,1.699-1.084,3.143-1.861,4.653c-0.421,0.815-1.455,2.27-0.943,3.236
						c0.488,0.92,2.249,0.887,3.1,0.997c1.811,0.251,3.62,0.344,5.44,0.32c0.843-0.009,0.846-1.317,0-1.306
						c-1.348,0.02-2.684-0.017-4.034-0.149c-0.801-0.079-1.814-0.093-2.596-0.358c-0.787-0.287-0.824-0.042-0.316-1.139
						c0.914-1.96,2.099-3.734,2.468-5.907C198.489,4.925,197.235,4.57,197.095,5.399L197.095,5.399z"/>
				</g>
				<g>
					<path style="fill:#FFFFFF;" d="M202.83,4.95c-2.226-0.009-4.433,0.151-6.636,0.468c-0.827,0.117-0.474,1.377,0.35,1.257
						c2.082-0.297,4.181-0.433,6.286-0.422C203.673,6.258,203.673,4.953,202.83,4.95L202.83,4.95z"/>
				</g>
				<g>
					<path style="fill:#FFFFFF;" d="M203.049,9.8c-2.37-0.187-4.72-0.187-7.084-0.018c-0.831,0.065-0.839,1.366,0,1.307
						c2.364-0.174,4.714-0.168,7.084,0.016C203.882,11.167,203.877,9.866,203.049,9.8L203.049,9.8z"/>
				</g>
				<g>
					<path style="fill:#FFFFFF;" d="M211.094,14.907c0.154-1.576,1.046-2.863,1.637-4.297c0.268-0.645,0.333-1.326,0.555-1.969
						c0.171-0.5,0.609-1.173,1.23-1.277c0.383-0.074,1.205,0.474,1.544,0.644c1.926,0.962,3.869,3.061,1.543,4.807
						c-1.611,1.209-3.67,1.812-5.643,2.034c-0.827,0.098-0.84,1.401,0,1.308c2.456-0.277,5.702-1.094,7.355-3.127
						c1.533-1.881,0.409-4.247-1.392-5.467c-1.418-0.966-4.381-2.627-5.549-0.489c-0.282,0.522-0.298,1.098-0.419,1.663
						c-0.181,0.832-0.506,1.585-0.874,2.346c-0.608,1.261-1.155,2.423-1.287,3.824C209.711,15.746,211.018,15.741,211.094,14.907
						L211.094,14.907z"/>
				</g>
				<g>
					<path style="fill:#FFFFFF;" d="M223.686,5.891c-0.845,2.237-2.231,7.838,1.617,7.865c3.84,0.02,6.031-3.626,7.583-6.605
						c0.387-0.741-0.741-1.406-1.126-0.659c-1.07,2.056-2.217,4.298-4.359,5.418c-0.61,0.323-1.549,0.709-2.231,0.521
						c-0.932-0.263-1.006-1.156-1.058-2.042c-0.079-1.406,0.338-2.855,0.828-4.153C225.24,5.45,223.98,5.111,223.686,5.891
						L223.686,5.891z"/>
				</g>
				<g>
					<path style="fill:#FFFFFF;" d="M242.49,6.022c-3.295,0.192-6.326,2.198-7.574,5.31c-0.475,1.171-0.825,2.722,0.171,3.739
						c1.152,1.171,2.889,0.693,4.205,0.168c0.772-0.318,0.431-1.576-0.352-1.261c-1.223,0.49-3.22,1.097-3.15-0.95
						c0.037-1.054,0.744-2.216,1.399-3.013c1.311-1.61,3.234-2.57,5.301-2.691C243.326,7.277,243.33,5.973,242.49,6.022
						L242.49,6.022z"/>
				</g>
				<g>
					<path style="fill:#FFFFFF;" d="M244.865,14.664c0.92-2.12,1.88-4.409,3.669-5.954c0.283-0.26,0.604-0.489,0.938-0.684
						c0.389-0.098,0.562,0.087,0.504,0.548c0.225,0.434,0.255,1.13,0.333,1.607c0.265,1.566,0.342,3.142,0.295,4.727
						c-0.023,0.837,1.283,0.837,1.304,0c0.064-2.069-0.107-4.127-0.557-6.147c-0.235-1.083-0.466-2.357-1.846-2.131
						c-1.262,0.204-2.483,1.636-3.206,2.586c-1.095,1.455-1.842,3.12-2.563,4.782C243.403,14.764,244.532,15.435,244.865,14.664
						L244.865,14.664z"/>
				</g>
				<g>
					<path style="fill:#FFFFFF;" d="M246.266,10.365c1.241-0.044,2.405,0.164,3.561,0.616c0.782,0.298,1.122-0.962,0.345-1.259
						c-1.256-0.482-2.562-0.703-3.907-0.665C245.429,9.088,245.423,10.389,246.266,10.365L246.266,10.365z"/>
				</g>
				<g>
					<path style="fill:#FFFFFF;" d="M258.62,8.1c-0.287,2.043-0.75,4.032-1.392,5.994c-0.259,0.794,0.995,1.146,1.258,0.341
						c0.642-1.95,1.108-3.949,1.393-5.993C259.994,7.624,258.737,7.271,258.62,8.1L258.62,8.1z"/>
				</g>
				<g>
					<path style="fill:#FFFFFF;" d="M255.013,7.477c2.637-0.107,5.269-0.049,7.893,0.174c0.837,0.071,0.831-1.23,0-1.306
						c-2.624-0.22-5.256-0.28-7.893-0.164C254.181,6.214,254.181,7.519,255.013,7.477L255.013,7.477z"/>
				</g>
				<g>
					<path style="fill:#FFFFFF;" d="M267.653,5.875c-1.115,2.416-1.834,4.924-2.166,7.562c-0.099,0.833,1.201,0.825,1.31,0
						c0.3-2.4,0.972-4.709,1.984-6.899C269.13,5.778,268.005,5.111,267.653,5.875L267.653,5.875z"/>
				</g>
				<g>
					<path style="fill:#FFFFFF;" d="M277.647,7.79c0.007-0.056,0.017-0.111,0.017-0.166c0.046-0.32-0.034-0.551-0.297-0.736
						c-1.617-1.162-4.265,1.982-5.018,3.136c-1.281,1.964-1.183,4.518,1.754,4.192c2.285-0.249,4.763-1.809,5.678-3.993
						c0.374-0.893,0.281-1.809-0.47-2.475c-1.019-0.893-2.364-0.662-3.56-0.367c-0.823,0.2-0.475,1.459,0.345,1.255
						c1.034-0.255,2.92-0.683,2.389,1.277c-0.153,0.537-0.775,1.098-1.183,1.465c-0.823,0.756-1.868,1.29-2.968,1.498
						c-0.616,0.216-1.143,0.045-1.58-0.524c0.051-0.417,0.184-0.793,0.409-1.145c0.223-0.429,0.505-0.834,0.811-1.202
						c0.298-0.365,2.184-2.39,2.737-1.991c-0.098-0.247-0.198-0.488-0.299-0.736c-0.006,0.058-0.018,0.113-0.023,0.168
						C276.274,8.268,277.532,8.624,277.647,7.79L277.647,7.79z"/>
				</g>
				<g>
					<path style="fill:#FFFFFF;" d="M283.762,14.672c0.901-2.134,1.815-4.268,2.711-6.398c-0.372,0-0.746,0-1.121,0
						c1.304,1.796,2.069,6.49,4.796,6.888c1.347,0.195,1.824-1.342,2.306-2.31c0.986-1.989,1.83-4.026,2.587-6.108
						c0.283-0.79-0.977-1.133-1.257-0.346c-0.541,1.47-1.111,2.916-1.761,4.336c-0.483,1.05-1.362,3.836-2.657,2.373
						c-1.364-1.549-1.675-3.821-2.893-5.493c-0.246-0.343-0.908-0.498-1.121,0c-0.909,2.136-1.811,4.271-2.717,6.4
						C282.313,14.774,283.432,15.447,283.762,14.672L283.762,14.672z"/>
				</g>
				<g>
					<path style="fill:#FFFFFF;" d="M263.41,14.11c1.174,0,2.352,0,3.528,0c0.835,0,0.835-1.302,0-1.302c-1.177,0-2.354,0-3.528,0
						C262.567,12.808,262.567,14.11,263.41,14.11L263.41,14.11z"/>
				</g>
				<g>
					<path style="fill:#FFFFFF;" d="M265.916,6.257c1.753,0.559,3.538,0.664,5.353,0.375c0.825-0.14,0.479-1.392-0.344-1.26
						c-1.588,0.259-3.139,0.114-4.67-0.376C265.462,4.743,265.114,6.001,265.916,6.257L265.916,6.257z"/>
				</g>
				<g>
					<path style="fill:#FFFFFF;" d="M148.179,7.58c1.975,0.773,4.107,0.59,5.952-0.429c0.742-0.406,0.081-1.54-0.656-1.128
						c-1.564,0.869-3.289,0.946-4.947,0.302C147.748,6.017,147.406,7.282,148.179,7.58L148.179,7.58z"/>
				</g>
				<g>
					<path style="fill:#FFFFFF;" d="M146.127,15.175c1.598-0.08,3.185-0.162,4.778-0.253c0.84-0.041,0.84-1.348,0-1.298
						c-1.593,0.079-3.18,0.167-4.778,0.248C145.298,13.917,145.294,15.225,146.127,15.175L146.127,15.175z"/>
				</g>
				<g>
					<path style="fill:#FFFFFF;" d="M128.479,6.735c1.731,0.041,3.462,0.081,5.186,0.125c0.84,0.021,0.84-1.285,0-1.308
						c-1.724-0.044-3.455-0.084-5.186-0.122C127.639,5.409,127.639,6.715,128.479,6.735L128.479,6.735z"/>
				</g>
				<g>
					<path style="fill:#FFFFFF;" d="M127.438,14.895c1.523,0.02,3.041,0.041,4.566,0.059c0.844,0.011,0.844-1.29,0-1.298
						c-1.524-0.02-3.042-0.037-4.566-0.063C126.598,13.583,126.598,14.885,127.438,14.895L127.438,14.895z"/>
				</g>
				<g>
					<path style="fill:#EC2227;" d="M93.781,10.43c15.051-0.35,30.103-0.362,45.157,0.016c14.945,0.383,30.281,2.373,45.197,0.903
						c0.736-0.075,0.742-1.237,0-1.161c-14.916,1.474-30.246-0.523-45.197-0.906c-15.054-0.371-30.106-0.368-45.157-0.017
						C93.033,9.279,93.033,10.443,93.781,10.43L93.781,10.43z"/>
				</g>
			</g>
		</g>
	</g>
</g>
</svg>
