<svg id="Layer_1" data-name="Layer 1" xmlns="http://www.w3.org/2000/svg" viewBox="0 0 221.91 45.31"><defs><style>.cls-1{fill:#fff;}</style></defs><title>logo-greyhound</title><path class="cls-1" d="M76.6,54.77a6.13,6.13,0,0,1,1.57-4.46,5.87,5.87,0,0,1,4.37-1.6,5.44,5.44,0,0,1,6,6A7.56,7.56,0,0,1,87.86,58a4.89,4.89,0,0,1-2,2.05,6.41,6.41,0,0,1-3.19.73,7.24,7.24,0,0,1-3.23-.63,4.72,4.72,0,0,1-2.06-2,6.67,6.67,0,0,1-.81-3.43m3.55,0a4,4,0,0,0,.66,2.55,2.2,2.2,0,0,0,1.77.77,2.15,2.15,0,0,0,1.76-.77A4.4,4.4,0,0,0,85,54.62a3.61,3.61,0,0,0-.66-2.4,2.22,2.22,0,0,0-1.77-.77,2.17,2.17,0,0,0-1.74.78,4.06,4.06,0,0,0-.66,2.57" transform="translate(-17.3 -15.52)"/><path class="cls-1" d="M92.16,60.83V48.61H97.9a7.94,7.94,0,0,1,2.54.36,2.76,2.76,0,0,1,1.39,1.13,3.42,3.42,0,0,1,.54,2,3.52,3.52,0,0,1-.42,1.74,3.33,3.33,0,0,1-1.12,1.2,4.43,4.43,0,0,1-1.26.48,2.7,2.7,0,0,1,.92.46,2.64,2.64,0,0,1,.57.64,4.65,4.65,0,0,1,.52.73l1.71,3.52h-4l-1.91-3.7a3.78,3.78,0,0,0-.65-1,1.51,1.51,0,0,0-.87-0.37H95.73v5.09H92.16Zm3.57-7.13H97c0.15,0,.47-0.1.94-0.21a1,1,0,0,0,.58-0.4,1.22,1.22,0,0,0,.21-0.7,1.18,1.18,0,0,0-.35-0.91,2,2,0,0,0-1.33-.32H95.73V53.7Z" transform="translate(-17.3 -15.52)"/><rect class="cls-1" x="90.66" y="33.09" width="3.57" height="12.22"/><path class="cls-1" d="M122.22,56.25V53.7h5.09v5.23a10.18,10.18,0,0,1-2.67,1.5,8.89,8.89,0,0,1-2.83.4,6.79,6.79,0,0,1-3.31-.71,4.85,4.85,0,0,1-2-2.11,7.65,7.65,0,0,1,.09-6.59,5,5,0,0,1,2.27-2.15,7.45,7.45,0,0,1,3.15-.56,8.51,8.51,0,0,1,2.86.36,3.7,3.7,0,0,1,1.57,1.08,4.77,4.77,0,0,1,.94,1.88l-3.44.62a1.89,1.89,0,0,0-.72-1,2.22,2.22,0,0,0-1.29-.35,2.3,2.3,0,0,0-1.87.83,4,4,0,0,0-.68,2.61,4.12,4.12,0,0,0,.69,2.71,2.43,2.43,0,0,0,2,.82,2.91,2.91,0,0,0,1.06-.18,7,7,0,0,0,1.15-.58V56.25h-2Z" transform="translate(-17.3 -15.52)"/><rect class="cls-1" x="115.61" y="33.09" width="3.57" height="12.22"/><polygon class="cls-1" points="124.27 33.09 127.42 33.09 131.91 39.9 131.91 33.09 134.97 33.09 134.97 45.31 131.75 45.31 127.33 38.66 127.33 45.31 124.27 45.31 124.27 33.09"/><path class="cls-1" d="M163.41,58.79h-4l-0.56,2h-3.64l4.34-12.22h3.88l4.33,12.22H164Zm-0.74-2.55-1.27-4.37-1.27,4.37h2.53Z" transform="translate(-17.3 -15.52)"/><polygon class="cls-1" points="153.31 33.09 156.87 33.09 156.87 42.26 162.48 42.26 162.48 45.31 153.31 45.31 153.31 33.09"/><polygon class="cls-1" points="51.43 0 67.73 0 67.73 4.58 57.55 4.58 57.55 8.15 66.71 8.15 66.71 12.22 57.55 12.22 57.55 16.29 67.73 16.29 67.73 21.38 51.43 21.38 51.43 0"/><polygon class="cls-1" points="73.69 0 80.51 0 84.52 7.17 88.54 0 95.32 0 87.6 12.37 87.6 21.38 81.49 21.38 81.49 12.37 73.69 0"/><polygon class="cls-1" points="100.84 0 106.95 0 106.95 7.64 113.58 7.64 113.58 0 119.69 0 119.69 21.38 113.58 21.38 113.58 12.73 106.95 12.73 106.95 21.38 100.84 21.38 100.84 0"/><polygon class="cls-1" points="177.76 0 183.7 0 191 11.78 191 0 197.12 0 197.12 21.38 191.17 21.38 183.87 9.6 183.87 21.38 177.76 21.38 177.76 0"/><path class="cls-1" d="M28,28.75V24.68h9.68V33.5a24,24,0,0,1-4.89,2.59,15.7,15.7,0,0,1-5,.7A11.78,11.78,0,0,1,22,35.55a8.3,8.3,0,0,1-3.45-3.72,12.37,12.37,0,0,1-1.24-5.65,12,12,0,0,1,1.33-5.84,8.9,8.9,0,0,1,3.92-3.79,12.59,12.59,0,0,1,5.45-1,15.53,15.53,0,0,1,4.92.64,7.23,7.23,0,0,1,4.34,5.19l-5.93,1.1a3.33,3.33,0,0,0-3.48-2.4,4,4,0,0,0-3.21,1.45,7.09,7.09,0,0,0-1.21,4.58c0,2.23.42,3.81,1.23,4.77A4.07,4.07,0,0,0,28,32.29a7,7,0,0,0,4.06-1.36V28.75H28Z" transform="translate(-17.3 -15.52)"/><path class="cls-1" d="M44.28,36.9V15.52H54.54A13.82,13.82,0,0,1,58.9,16,4.61,4.61,0,0,1,61.31,18a6.15,6.15,0,0,1,.92,3.45,6.11,6.11,0,0,1-.71,3,5.68,5.68,0,0,1-1.92,2.08,7.32,7.32,0,0,1-2.16.84c1.86,0.66,2.6,1.94,3.6,3.87l2.81,5.62H56.91l-3-5.91c-0.71-1.41-1-2.82-3.52-2.82V36.9H44.28Zm6.11-12.73h2.79a3.44,3.44,0,0,0,2.28-.6,2.11,2.11,0,0,0,.61-1.6,2.42,2.42,0,0,0-.61-1.71,3.53,3.53,0,0,0-2.28-.67H50.39v4.58Z" transform="translate(-17.3 -15.52)"/><path class="cls-1" d="M160.76,18.33a11.61,11.61,0,0,0-15.11,0c-1.81,1.87-2.71,4.47-2.71,7.83s0.9,6,2.71,7.83a11.57,11.57,0,0,0,15.11,0c1.81-1.88,2.73-4.48,2.73-7.83s-0.92-6-2.73-7.83m-4.55,12.3a4,4,0,0,1-6,0,7,7,0,0,1-1.12-4.47c0-2.1.38-3.56,1.12-4.46a4,4,0,0,1,6,0,7.06,7.06,0,0,1,1.13,4.46,7.12,7.12,0,0,1-1.13,4.47" transform="translate(-17.3 -15.52)"/><path class="cls-1" d="M182.32,15.52V28.31a3.57,3.57,0,1,1-7.13,0V15.52h-6.11V28c0,5,2.79,8.79,9.67,8.79S188.44,33,188.44,28V15.52h-6.11Z" transform="translate(-17.3 -15.52)"/><path class="cls-1" d="M230.2,15.52H221V36.9h9c8.32,0,9.15-7.21,9.15-10.68s-0.83-10.7-9.15-10.7m-1.38,16.29h-1.53V20.61h1.67c3.91,0,4.23,2.81,4.23,5.61s-0.32,5.59-4.23,5.59" transform="translate(-17.3 -15.52)"/></svg>