<svg id="Layer_1" data-name="Layer 1" xmlns="http://www.w3.org/2000/svg" viewBox="0 0 232.23 121.8"><defs><style>.cls-1{fill:#fefefe;}.cls-2{fill:#ec2227;}</style></defs><title>logo-limited-education-white</title><path class="cls-1" d="M83.85,40.93a104.22,104.22,0,0,0-6,12.23c-1.12,2.72-3.61,6.69-2.21,9.6a1.52,1.52,0,0,0,1.3.74c2.47,0.12,5-.75,7.35-1.27l9-1.9c1.89-.41,1.09-3.3-0.78-2.89-3,.63-6,1.26-9,1.9a29,29,0,0,0-3.74.79c-2,.72-1.57.68-0.86-1.36a99.22,99.22,0,0,1,7.54-16.32,1.51,1.51,0,0,0-2.61-1.52h0Z" transform="translate(-42.38 -36.89)"/><path class="cls-1" d="M108.1,40.73Q105,49.08,102,57.49c-0.63,1.85,2.27,2.62,2.9.8,2-5.6,4-11.21,6.09-16.77,0.67-1.81-2.22-2.58-2.9-.8h0Z" transform="translate(-42.38 -36.89)"/><path class="cls-1" d="M114.11,61.85c1.15-2.31,10.54-19.31,15.42-13.38,2.15,2.62,0,7.26,3.2,9.93a1.58,1.58,0,0,0,1.83.23c2.51-1.38,4-4.18,5.83-6.27,1.13-1.25,3.2-4.14,4.82-4.45,5.53-1.11,6.19,5.78,6.82,8.88,0.38,1.9,3.28,1.1,2.89-.79-1-4.88-1.85-12.93-8.38-11.87-2.6.41-4.87,2.57-6.69,4.34-1.21,1.2-2.4,3.89-3.84,4.55-3,1.38-2.84-1.67-3.41-4.23-3.35-15.42-18.42,6.19-21.09,11.56-0.86,1.72,1.73,3.24,2.59,1.51h0Z" transform="translate(-42.38 -36.89)"/><path class="cls-1" d="M170.23,41.52a57.2,57.2,0,0,0-5.3,14.15c-0.42,1.88,2.46,2.69,2.9.8a53.82,53.82,0,0,1,5-13.43c0.91-1.7-1.68-3.22-2.59-1.52h0Z" transform="translate(-42.38 -36.89)"/><path class="cls-1" d="M188.24,42.13q-2.13,4.57-4.2,9.15c-0.86,1.87-2.4,4-1.7,6.16,0.58,1.82,3.49,1,2.88-.81-0.45-1.38,2-5.12,2.57-6.37,1-2.2,2-4.42,3-6.61,0.8-1.75-1.79-3.28-2.59-1.52h0Z" transform="translate(-42.38 -36.89)"/><path class="cls-1" d="M199.43,40.26l-9.91.19c-2.42,0-5.11-.28-7.41.55-1.8.64-1,3.54,0.8,2.89,2.35-.84,5.46-0.42,7.92-0.47l8.6-.15c1.92,0,1.92-3,0-3h0Z" transform="translate(-42.38 -36.89)"/><path class="cls-1" d="M213.8,40.68c-2.39,3.21-4.86,6.37-7.18,9.61-1.22,1.73-3,4.44-1.66,6.6,1.11,1.79,3.43,1.52,5.2,1.42,4.34-.28,8.67-0.7,13-1.19,1.9-.23,1.92-3.23,0-3-2.6.29-5.18,0.56-7.78,0.8-1.31.12-6.87,1.2-7.51,0.12-0.77-1.34,2.76-5.11,3.56-6.2,1.67-2.21,3.32-4.41,5-6.63,1.15-1.56-1.46-3.06-2.61-1.52h0Z" transform="translate(-42.38 -36.89)"/><path class="cls-1" d="M211.13,48.57a167,167,0,0,0,17.42-1.3c1.89-.22,1.92-3.24,0-3a173.34,173.34,0,0,1-17.42,1.28c-1.93,0-1.93,3,0,3h0Z" transform="translate(-42.38 -36.89)"/><path class="cls-1" d="M215,42.66c5.57-.72,11.11-1.64,16.6-2.83,1.88-.42,1.09-3.31-0.81-2.9C225.6,38.06,220.35,39,215,39.67c-1.89.24-1.91,3.23,0,3h0Z" transform="translate(-42.38 -36.89)"/><path class="cls-1" d="M234.73,58.08a83,83,0,0,1,6.73-10.43,26.69,26.69,0,0,1,3.85-4.1c2.7-2.23,8.23-3.73,8.17,2.05-0.1,7.21-10.78,15.54-17.65,12.25-1.73-.82-3.25,1.77-1.51,2.59,9.39,4.48,24.22-6.61,22.09-17.12-1-5-6.73-5.94-10.69-3.73-6.25,3.47-10.15,11-13.59,17a1.5,1.5,0,0,0,2.59,1.51h0Z" transform="translate(-42.38 -36.89)"/><path class="cls-1" d="M82,83.73Q77.79,91,73.52,98.31c-1.24,2.11-4.52,5.61-3,8.24,1.38,2.48,5.79,1.75,8,1.78,5.53,0.08,11.09.08,16.62,0a1.5,1.5,0,0,0,0-3c-3.5,0-7,.06-10.51,0-1.89,0-9.81.89-10.93-.43s9.53-17.26,11-19.72A1.51,1.51,0,0,0,82,83.73h0Z" transform="translate(-42.38 -36.89)"/><path class="cls-1" d="M97.54,84.16a33.1,33.1,0,0,0-17.29,2.33c-1.74.75-1,3.64,0.81,2.89a31.24,31.24,0,0,1,16.49-2.24c1.91,0.25,1.89-2.75,0-3h0Z" transform="translate(-42.38 -36.89)"/><path class="cls-1" d="M90.81,94.51a46.93,46.93,0,0,0-12.9.42c-1.91.32-1.09,3.21,0.79,2.9a44.18,44.18,0,0,1,12.1-.32c1.91,0.21,1.9-2.81,0-3h0Z" transform="translate(-42.38 -36.89)"/><path class="cls-1" d="M116.85,89.43a35.35,35.35,0,0,0-8.07,18.86c-0.23,1.91,2.78,1.9,3,0A31.61,31.61,0,0,1,119,91.57c1.23-1.48-.89-3.62-2.12-2.14h0Z" transform="translate(-42.38 -36.89)"/><path class="cls-1" d="M116.21,90.66a19,19,0,0,1,8.28,2.23c3.76,2.13,2.37,4.87-.19,7.35a20.8,20.8,0,0,1-12.92,5.62c-1.9.13-1.93,3.15,0,3,6.67-.5,15.1-3.9,18.1-10.38,3.53-7.6-8-10.5-13.27-10.83-1.93-.12-1.92,2.88,0,3h0Z" transform="translate(-42.38 -36.89)"/><path class="cls-1" d="M142.74,88.38a91.83,91.83,0,0,1-4.87,16.07c-0.74,1.79,2.17,2.57,2.89.8a90.84,90.84,0,0,0,4.87-16.07c0.38-1.89-2.5-2.69-2.89-.8h0Z" transform="translate(-42.38 -36.89)"/><path class="cls-1" d="M163.48,89.8a57.49,57.49,0,0,0-7.15,15.73,1.5,1.5,0,0,0,2.89.81,54.23,54.23,0,0,1,6.85-15c1.06-1.62-1.54-3.13-2.6-1.51h0Z" transform="translate(-42.38 -36.89)"/><path class="cls-1" d="M154.88,92.33a37.46,37.46,0,0,0,20.33-2c1.77-.69,1-3.61-0.78-2.89a34.48,34.48,0,0,1-18.76,1.94c-1.88-.33-2.69,2.57-0.79,2.9h0Z" transform="translate(-42.38 -36.89)"/><path class="cls-1" d="M187.89,90.3A53.77,53.77,0,0,0,180.33,106a1.51,1.51,0,0,0,2.9.8,50.65,50.65,0,0,1,7.26-15c1.11-1.58-1.49-3.08-2.59-1.51h0Z" transform="translate(-42.38 -36.89)"/><path class="cls-1" d="M208.87,91.29c-5.12-.88-8.63,2.84-10.2,7.36-1.28,3.64-1.61,9.37,3.27,10.35,3.82,0.74,10.08-2.38,11.9-5.76a6,6,0,0,0,.2-5.47c-1.16-2.2-4.07-1.8-5.26-3.62-1-1.6-3.64-.1-2.58,1.52,1.21,1.85,2.79,1.58,4.42,2.79,3.52,2.59-2.13,5.78-4.22,6.69-1.41.61-3.92,1.64-5.15,0.08-0.8-1-.45-3-0.18-4.11,0.77-3.27,3-7.62,7-6.94,1.88,0.33,2.68-2.56.8-2.89h0Z" transform="translate(-42.38 -36.89)"/><path class="cls-1" d="M222.2,109.12c1.6-3.6,5.34-12.28,10.21-9.37,3.27,2,4.3,5.88,8.63,6.72,7.36,1.43,9.86-8.59,11.31-14a1.5,1.5,0,0,0-2.9-.8c-0.68,2.61-1.31,6.18-3.05,8.27-2.8,3.35-6.58,3.45-9.59.42-1.52-1.52-3.05-5.32-5.59-5.65-5-.6-10.09,9.51-11.6,12.9-0.77,1.75,1.81,3.29,2.59,1.52h0Z" transform="translate(-42.38 -36.89)"/><path class="cls-1" d="M49.15,133.93c-0.67,3.91-2.49,7.23-4.28,10.7-1,1.88-3.35,5.22-2.17,7.45s5.17,2,7.13,2.29a82.33,82.33,0,0,0,12.51.74,1.5,1.5,0,0,0,0-3,82.83,82.83,0,0,1-9.28-.34,28.4,28.4,0,0,1-6-.82c-1.81-.66-1.89-0.1-0.73-2.62,2.1-4.51,4.83-8.59,5.68-13.59,0.32-1.89-2.57-2.7-2.89-.8h0Z" transform="translate(-42.38 -36.89)"/><path class="cls-1" d="M62.35,132.9A103.94,103.94,0,0,0,47.08,134c-1.9.27-1.09,3.17,0.8,2.89a98.78,98.78,0,0,1,14.46-1,1.5,1.5,0,0,0,0-3h0Z" transform="translate(-42.38 -36.89)"/><path class="cls-1" d="M81.36,155.81c0.35-3.62,2.41-6.59,3.77-9.89,0.62-1.48.77-3.05,1.28-4.53,0.39-1.15,1.4-2.7,2.83-2.94,0.88-.17,2.77,1.09,3.55,1.48,4.43,2.21,8.9,7,3.55,11.06a26.73,26.73,0,0,1-13,4.68c-1.9.22-1.93,3.22,0,3,5.65-.64,13.12-2.52,16.92-7.2,3.53-4.33.94-9.77-3.2-12.58-3.26-2.22-10.08-6-12.77-1.12a13.82,13.82,0,0,0-1,3.83,24.18,24.18,0,0,1-2,5.4c-1.4,2.9-2.66,5.58-3,8.8-0.19,1.93,2.82,1.92,3,0h0Z" transform="translate(-42.38 -36.89)"/><path class="cls-1" d="M110.33,135.06c-1.94,5.15-5.13,18,3.72,18.1s13.88-8.34,17.45-15.19c0.89-1.71-1.7-3.24-2.59-1.52-2.46,4.73-5.1,9.89-10,12.47-1.4.74-3.57,1.63-5.13,1.2-2.14-.6-2.32-2.66-2.44-4.69a24,24,0,0,1,1.91-9.56c0.69-1.81-2.21-2.59-2.89-.8h0Z" transform="translate(-42.38 -36.89)"/><path class="cls-1" d="M153.6,135.37a19.94,19.94,0,0,0-17.43,12.22c-1.09,2.7-1.9,6.26.39,8.6,2.65,2.69,6.64,1.59,9.67.38,1.78-.73,1-3.63-0.8-2.9-2.81,1.13-7.41,2.53-7.25-2.19,0.09-2.42,1.71-5.1,3.22-6.93a17,17,0,0,1,12.19-6.19c1.92-.11,1.93-3.11,0-3h0Z" transform="translate(-42.38 -36.89)"/><path class="cls-1" d="M159.07,155.25c2.11-4.88,4.33-10.15,8.44-13.7a12.83,12.83,0,0,1,2.16-1.58c0.9-.22,1.29.2,1.16,1.26a13.48,13.48,0,0,1,.77,3.7,55,55,0,0,1,.68,10.88c-0.05,1.92,3,1.92,3,0A57.14,57.14,0,0,0,174,141.67c-0.54-2.49-1.07-5.43-4.25-4.9-2.9.47-5.71,3.77-7.38,6a53.24,53.24,0,0,0-5.9,11c-0.77,1.76,1.83,3.3,2.6,1.53h0Z" transform="translate(-42.38 -36.89)"/><path class="cls-1" d="M162.29,145.36a20.16,20.16,0,0,1,8.19,1.42c1.8,0.68,2.58-2.21.79-2.9a23,23,0,0,0-9-1.53c-1.93.07-1.94,3.07,0,3h0Z" transform="translate(-42.38 -36.89)"/><path class="cls-1" d="M190.72,140.15a80.09,80.09,0,0,1-3.21,13.79c-0.59,1.83,2.29,2.63,2.9.78a78.64,78.64,0,0,0,3.21-13.79c0.27-1.88-2.62-2.7-2.89-.78h0Z" transform="translate(-42.38 -36.89)"/><path class="cls-1" d="M182.42,138.71a145.71,145.71,0,0,1,18.16.4c1.93,0.16,1.91-2.83,0-3a142.41,142.41,0,0,0-18.16-.38c-1.92.08-1.92,3.08,0,3h0Z" transform="translate(-42.38 -36.89)"/><path class="cls-1" d="M211.5,135a58.71,58.71,0,0,0-5,17.4c-0.22,1.92,2.76,1.89,3,0a53.56,53.56,0,0,1,4.56-15.88c0.81-1.75-1.78-3.28-2.6-1.53h0Z" transform="translate(-42.38 -36.89)"/><path class="cls-1" d="M234.5,139.43a3.74,3.74,0,0,0,0-.38,1.57,1.57,0,0,0-.68-1.7c-3.72-2.67-9.82,4.56-11.55,7.22-2.95,4.52-2.72,10.4,4,9.64,5.26-.57,11-4.16,13.07-9.19a4.72,4.72,0,0,0-1.08-5.69c-2.34-2.05-5.44-1.52-8.19-.85-1.89.46-1.09,3.36,0.79,2.89,2.38-.58,6.72-1.57,5.5,2.94-0.35,1.23-1.78,2.53-2.72,3.37a14.08,14.08,0,0,1-6.83,3.44,3,3,0,0,1-3.63-1.2,6.21,6.21,0,0,1,.94-2.63,16,16,0,0,1,1.87-2.77c0.69-.84,5-5.5,6.3-4.58-0.23-.57-0.46-1.12-0.69-1.69,0,0.13,0,.26-0.05.39-0.26,1.89,2.63,2.71,2.9.79h0Z" transform="translate(-42.38 -36.89)"/><path class="cls-1" d="M248.56,155.27c2.07-4.91,4.18-9.82,6.23-14.72h-2.57c3,4.13,4.76,14.93,11,15.85,3.1,0.45,4.2-3.09,5.31-5.32a137.33,137.33,0,0,0,6-14.05c0.65-1.82-2.25-2.61-2.89-.8-1.25,3.38-2.56,6.71-4.05,10-1.11,2.41-3.13,8.83-6.11,5.46-3.14-3.57-3.85-8.79-6.66-12.64-0.56-.79-2.08-1.14-2.57,0q-3.14,7.37-6.25,14.73c-0.74,1.75,1.83,3.3,2.59,1.52h0Z" transform="translate(-42.38 -36.89)"/><path class="cls-1" d="M201.74,154h8.11a1.5,1.5,0,0,0,0-3h-8.11a1.5,1.5,0,0,0,0,3h0Z" transform="translate(-42.38 -36.89)"/><path class="cls-1" d="M207.5,135.91a26.31,26.31,0,0,0,12.32.86c1.9-.32,1.1-3.2-0.79-2.9a22.8,22.8,0,0,1-10.74-.86c-1.83-.59-2.63,2.31-0.78,2.9h0Z" transform="translate(-42.38 -36.89)"/><path class="cls-1" d="M181.55,91.92a16,16,0,0,0,13.7-1c1.71-.94.19-3.54-1.51-2.6a13.09,13.09,0,0,1-11.38.7c-1.79-.71-2.58,2.2-0.8,2.89h0Z" transform="translate(-42.38 -36.89)"/><path class="cls-1" d="M176.83,109.39c3.68-.18,7.33-0.37,11-0.58,1.93-.1,1.93-3.1,0-3l-11,.57c-1.9.1-1.91,3.11,0,3h0Z" transform="translate(-42.38 -36.89)"/><path class="cls-1" d="M136.23,90l11.93,0.29c1.93,0.05,1.93-3,0-3L136.23,87c-1.94,0-1.94,3,0,3h0Z" transform="translate(-42.38 -36.89)"/><path class="cls-1" d="M133.83,108.75l10.51,0.14a1.5,1.5,0,0,0,0-3l-10.51-.14a1.5,1.5,0,0,0,0,3h0Z" transform="translate(-42.38 -36.89)"/><path class="cls-2" d="M56.39,98.48q52-1.21,103.9,0c34.39,0.88,69.67,5.46,104,2.08,1.69-.17,1.71-2.85,0-2.67-34.32,3.4-69.59-1.2-104-2.08q-52-1.28-103.9,0a1.34,1.34,0,0,0,0,2.68h0Z" transform="translate(-42.38 -36.89)"/><path class="cls-1" d="M62.85,144.06a108,108,0,0,0-16.3,0c-1.91.15-1.93,3.14,0,3a108.15,108.15,0,0,1,16.3,0c1.91,0.14,1.91-2.85,0-3h0Z" transform="translate(-42.38 -36.89)"/></svg>