<svg id="Layer_1" data-name="Layer 1" xmlns="http://www.w3.org/2000/svg" viewBox="0 0 221.91 45.32"><defs><style>.cls-1{fill:#808285;}</style></defs><title>logo-greyhound-black</title><path class="cls-1" d="M84.25,64a6.13,6.13,0,0,1,1.57-4.46,5.87,5.87,0,0,1,4.37-1.6,5.44,5.44,0,0,1,6,6,7.55,7.55,0,0,1-.68,3.36,4.89,4.89,0,0,1-2,2.05,6.41,6.41,0,0,1-3.19.73,7.24,7.24,0,0,1-3.23-.63,4.71,4.71,0,0,1-2.06-2A6.67,6.67,0,0,1,84.25,64m3.55,0a4,4,0,0,0,.66,2.55,2.2,2.2,0,0,0,1.77.77A2.15,2.15,0,0,0,92,66.58a4.41,4.41,0,0,0,.63-2.73,3.61,3.61,0,0,0-.66-2.4,2.22,2.22,0,0,0-1.77-.77,2.17,2.17,0,0,0-1.74.78A4.06,4.06,0,0,0,87.8,64" transform="translate(-24.95 -24.74)"/><path class="cls-1" d="M99.82,70.06V57.84h5.73a7.93,7.93,0,0,1,2.54.36,2.76,2.76,0,0,1,1.39,1.13,3.42,3.42,0,0,1,.54,2,3.52,3.52,0,0,1-.42,1.74,3.32,3.32,0,0,1-1.12,1.2,4.4,4.4,0,0,1-1.26.48,2.7,2.7,0,0,1,.92.46,2.65,2.65,0,0,1,.57.64,4.7,4.7,0,0,1,.52.73L111,70.06h-4L105,66.35a3.78,3.78,0,0,0-.65-1,1.51,1.51,0,0,0-.87-0.37h-0.13v5.09H99.82Zm3.57-7.13h1.32c0.15,0,.47-0.11.94-0.21a1,1,0,0,0,.58-0.41,1.22,1.22,0,0,0,.21-0.7,1.18,1.18,0,0,0-.35-0.91,2,2,0,0,0-1.33-.32h-1.38v2.55Z" transform="translate(-24.95 -24.74)"/><rect class="cls-1" x="90.66" y="33.1" width="3.57" height="12.22"/><path class="cls-1" d="M129.87,65.47V62.93H135v5.23a10.2,10.2,0,0,1-2.67,1.5,8.9,8.9,0,0,1-2.83.4,6.8,6.8,0,0,1-3.31-.71,4.85,4.85,0,0,1-2-2.11,7.65,7.65,0,0,1,.09-6.59,5,5,0,0,1,2.27-2.15,7.47,7.47,0,0,1,3.15-.56,8.5,8.5,0,0,1,2.86.36,3.71,3.71,0,0,1,1.57,1.08,4.78,4.78,0,0,1,.94,1.88l-3.44.62a1.88,1.88,0,0,0-.72-1,2.22,2.22,0,0,0-1.29-.35,2.3,2.3,0,0,0-1.87.83,4,4,0,0,0-.68,2.61,4.12,4.12,0,0,0,.69,2.71,2.43,2.43,0,0,0,2,.82,2.9,2.9,0,0,0,1.06-.18,6.93,6.93,0,0,0,1.15-.58V65.47h-2Z" transform="translate(-24.95 -24.74)"/><rect class="cls-1" x="115.61" y="33.1" width="3.57" height="12.22"/><polygon class="cls-1" points="124.27 33.1 127.42 33.1 131.91 39.9 131.91 33.1 134.97 33.1 134.97 45.31 131.75 45.31 127.33 38.66 127.33 45.31 124.27 45.31 124.27 33.1"/><path class="cls-1" d="M171.07,68h-4l-0.56,2h-3.64l4.34-12.22H171l4.33,12.22h-3.73Zm-0.74-2.55-1.27-4.37-1.27,4.37h2.53Z" transform="translate(-24.95 -24.74)"/><polygon class="cls-1" points="153.31 33.1 156.87 33.1 156.87 42.26 162.48 42.26 162.48 45.31 153.31 45.31 153.31 33.1"/><polygon class="cls-1" points="51.43 0 67.73 0 67.73 4.58 57.55 4.58 57.55 8.15 66.71 8.15 66.71 12.22 57.55 12.22 57.55 16.29 67.73 16.29 67.73 21.39 51.43 21.39 51.43 0"/><polygon class="cls-1" points="73.69 0 80.51 0 84.52 7.17 88.54 0 95.32 0 87.6 12.37 87.6 21.39 81.49 21.39 81.49 12.37 73.69 0"/><polygon class="cls-1" points="100.84 0 106.95 0 106.95 7.64 113.58 7.64 113.58 0 119.69 0 119.69 21.39 113.58 21.39 113.58 12.73 106.95 12.73 106.95 21.39 100.84 21.39 100.84 0"/><polygon class="cls-1" points="177.76 0 183.7 0 191 11.78 191 0 197.11 0 197.11 21.39 191.17 21.39 183.87 9.6 183.87 21.39 177.76 21.39 177.76 0"/><path class="cls-1" d="M35.64,38V33.91h9.68v8.82a24,24,0,0,1-4.89,2.59,15.7,15.7,0,0,1-5,.7,11.78,11.78,0,0,1-5.77-1.25,8.3,8.3,0,0,1-3.45-3.72A12.37,12.37,0,0,1,25,35.4a12,12,0,0,1,1.33-5.84,8.9,8.9,0,0,1,3.92-3.79,12.59,12.59,0,0,1,5.45-1,15.53,15.53,0,0,1,4.92.64,7.23,7.23,0,0,1,4.34,5.19L39,31.68a3.33,3.33,0,0,0-3.48-2.4,4,4,0,0,0-3.21,1.45,7.09,7.09,0,0,0-1.21,4.59c0,2.23.42,3.81,1.23,4.77a4.07,4.07,0,0,0,3.33,1.42,7,7,0,0,0,4.06-1.36V38H35.64Z" transform="translate(-24.95 -24.74)"/><path class="cls-1" d="M51.94,46.13V24.74H62.19a13.82,13.82,0,0,1,4.36.53A4.61,4.61,0,0,1,69,27.22a6.15,6.15,0,0,1,.92,3.45,6.11,6.11,0,0,1-.71,3,5.68,5.68,0,0,1-1.92,2.08,7.28,7.28,0,0,1-2.16.84c1.86,0.66,2.6,1.94,3.6,3.87l2.81,5.62H64.57l-3-5.91c-0.71-1.41-1-2.82-3.52-2.82v8.73H51.94ZM58,33.4h2.79a3.43,3.43,0,0,0,2.28-.6,2.1,2.1,0,0,0,.61-1.6,2.42,2.42,0,0,0-.61-1.71,3.52,3.52,0,0,0-2.28-.67H58V33.4Z" transform="translate(-24.95 -24.74)"/><path class="cls-1" d="M168.41,27.56a11.61,11.61,0,0,0-15.11,0c-1.81,1.87-2.71,4.47-2.71,7.83s0.9,6,2.71,7.83a11.57,11.57,0,0,0,15.11,0c1.81-1.88,2.73-4.48,2.73-7.83s-0.92-6-2.73-7.83m-4.55,12.3a4,4,0,0,1-6,0,7,7,0,0,1-1.12-4.47c0-2.1.38-3.56,1.12-4.46a4,4,0,0,1,6,0A7.06,7.06,0,0,1,165,35.39a7.12,7.12,0,0,1-1.13,4.47" transform="translate(-24.95 -24.74)"/><path class="cls-1" d="M190,24.74V37.54a3.57,3.57,0,1,1-7.13,0V24.74h-6.11V37.23c0,5,2.79,8.79,9.67,8.79s9.68-3.77,9.68-8.79V24.74H190Z" transform="translate(-24.95 -24.74)"/><path class="cls-1" d="M237.86,24.74h-9.17V46.13h9c8.32,0,9.15-7.21,9.15-10.68s-0.83-10.7-9.15-10.7M236.33,41H234.8V29.83h1.67c3.91,0,4.23,2.82,4.23,5.61S240.38,41,236.47,41" transform="translate(-24.95 -24.74)"/></svg>