<?xml version="1.0" standalone="no"?>
<!DOCTYPE svg PUBLIC "-//W3C//DTD SVG 1.1//EN" "http://www.w3.org/Graphics/SVG/1.1/DTD/svg11.dtd" >
<svg xmlns="http://www.w3.org/2000/svg" xmlns:xlink="http://www.w3.org/1999/xlink" version="1.1">
<metadata></metadata>
<defs>
<font id="limited_educationregular" horiz-adv-x="0" >
<font-face units-per-em="2048" ascent="1638" descent="-410" />
<missing-glyph horiz-adv-x="690" />
<glyph unicode="&#x3b;&#x3b;For&#x20;Education&#x20;Used&#x20;Only&#x3b;&#x3b;" horiz-adv-x="1296" d="M96 231v701q0 48 20.5 90.5t57.5 73.5t89 49t116 18h559q54 0 101.5 -18.5t83.5 -50.5t56.5 -74t20.5 -88v-701q0 -50 -20.5 -92t-57.5 -73t-89 -48.5t-116 -17.5h-538q-64 0 -116 17.5t-89 48.5t-57.5 73t-20.5 92zM160 231q0 -34 14.5 -64.5t42.5 -54t68.5 -37.5 t93.5 -14h538q52 0 93.5 14t70 37.5t43.5 54t15 64.5v701q0 34 -15.5 64.5t-42.5 54t-64 37.5t-79 14h-559q-53 0 -93.5 -14t-68.5 -37.5t-42.5 -54t-14.5 -64.5v-701zM338 430v270q0 43 16.5 81t45 66t67 44t82.5 16h385v-61h-385q-32 0 -59 -11.5t-47.5 -31.5t-32 -46.5 t-11.5 -56.5v-270q0 -29 12 -54.5t32.5 -45.5t47.5 -31.5t58 -11.5h389v-62h-389q-43 0 -81.5 16t-67 43.5t-45.5 65t-17 80.5z" />
<glyph unicode="&#x3b;&#x3b;Registered&#x3b;&#x3b;" horiz-adv-x="1296" d="M96 231v701q0 48 20.5 90.5t57.5 73.5t89 49t116 18h559q54 0 101.5 -18.5t83.5 -50.5t56.5 -74t20.5 -88v-701q0 -50 -20.5 -92t-57.5 -73t-89 -48.5t-116 -17.5h-538q-64 0 -116 17.5t-89 48.5t-57.5 73t-20.5 92zM160 231q0 -34 14.5 -64.5t42.5 -54t68.5 -37.5 t93.5 -14h538q52 0 93.5 14t70 37.5t43.5 54t15 64.5v701q0 34 -15.5 64.5t-42.5 54t-64 37.5t-79 14h-559q-53 0 -93.5 -14t-68.5 -37.5t-42.5 -54t-14.5 -64.5v-701zM326 227v697h473q30 0 59 -11t52.5 -31t38 -47t14.5 -59v-86q0 -31 -14 -58t-36.5 -46.5t-52.5 -31 t-61 -11.5h-13l271 -316h-76l-283 316h-241v63h342q21 0 39 7t31.5 19t21.5 27t8 31v86q0 16 -7.5 31t-21 26t-32 18t-39.5 7h-410v-631h-63z" />
<glyph unicode="&#x3b;&#x3b;Trademark&#x3b;&#x3b;" horiz-adv-x="1938" d="M66 1104v61h864v-61h-401v-520h-62v520h-401zM1008 584v583h64l370 -512l369 512h61v-583h-61v493l-371 -522l-368 522v-493h-64z" />
<glyph unicode="&#x3b;&#x3b;Multiply&#x3b;&#x3b;" horiz-adv-x="1069" d="M160 893h88l287 -283l288 283h86l-329 -326l307 -303h-88l-264 260l-263 -260h-88l308 303z" />
<glyph unicode="&#x3b;&#x3b;Divide&#x3b;&#x3b;" horiz-adv-x="1292" d="M215 545v61h862v-61h-862zM586 307q0 23 16.5 39t36.5 16q23 0 39 -16t16 -39t-15 -39t-40 -16q-20 0 -36.5 16t-16.5 39zM586 864q0 23 16.5 39.5t36.5 16.5q23 0 39 -16.5t16 -39.5q0 -20 -15 -36.5t-40 -16.5q-20 0 -36.5 16.5t-16.5 36.5z" />
<glyph unicode="&#x2018;&#x2018;" horiz-adv-x="510" d="M69 910.5q-1 29.5 10 59.5q9 25 20.5 48t30.5 43q7 8 13 17.5t12 19.5q7 11 11 18t6 13.5t3.5 14.5t3.5 21q5 2 10 5t12 7q24 -25 10 -53q-14 -30 -29 -59.5t-38 -54.5q-14 -14 -22.5 -31.5t-13.5 -37.5q-2 -8 -2.5 -15t-1.5 -15q0 -3 2 -6t7 -4q6 6 6.5 15t7.5 19 q5 6 12.5 11t18.5 7q26 2 50 -9q14 -6 19 -22q3 -9 4 -17.5t-1 -18.5q-2 -6 -4.5 -12.5t-6.5 -13.5q-16 -32 -54 -37q-20 -2 -37 4q-11 5 -23 9t-21 17q-14 28 -15 57.5zM276 927q0 6 1 11.5t2 10.5q8 15 17 27t20 23q17 17 31 34.5t28 36.5q11 15 23.5 29t24.5 28q3 3 6 3 q4 1 12 1q3 -5 6 -9.5t6 -9.5q-2 -15 -8.5 -26.5t-15.5 -22.5l-16 -18t-14 -20q-8 -16 -19 -29.5t-24 -26.5l-16.5 -16.5t-16.5 -17.5q-2 -1 -2 -9q13 1 25 1t23 1q24 -11 36 -40q-2 -8 -2 -18t-1 -21l-10 -16l-10 -16q-8 -3 -13.5 -5.5t-11.5 -4.5q-34 -12 -53 18 q-4 6 -7 12t-7 12q-20 35 -14 78z" />
<glyph unicode="&#x2019;&#x2019;" horiz-adv-x="481" d="M70 1083q1 9 1.5 18.5t2.5 19.5q9 12 17 20q25 25 55 8q6 -3 11.5 -7t11.5 -7q36 -24 49 -64q4 -10 6 -21q1 -17 -1.5 -32.5t-7.5 -29.5q-8 -22 -12.5 -44t-7.5 -45q-3 -19 -8 -37l-10 -36q0 -5 -3 -6q-2 -2 -4.5 -2.5t-5.5 -2.5q-10 5 -19 11q-6 14 -5.5 27.5t4.5 26.5 q3 12 6 23.5t3 23.5q-1 18 3 35.5t10 34.5q4 11 7.5 22.5t6.5 23.5q0 2 -1 4l-2 4q-11 -6 -21.5 -12t-20.5 -11q-27 -1 -50 19q-3 8 -7 17t-8 19zM237 1156q0 37 31 57q8 5 17 9t18 5q13 1 25.5 3t26.5 -5q26 -19 39.5 -44.5t17.5 -57.5q4 -26 4.5 -52.5t-7.5 -52.5 q-4 -21 -6 -43q-1 -14 -1 -22t0.5 -15t3 -14.5l6.5 -19.5q-4 -7 -14 -21q-33 11 -33 42q-1 34 -0.5 67t8.5 66q5 19 5 38.5t-5 38.5q-2 8 -4.5 15t-4.5 14q-4 8 -13 5q-3 -8 1 -16.5t2 -20.5q-2 -8 -6.5 -15.5t-13.5 -13.5q-20 -14 -48 -16q-14 -1 -28 11q-12 12 -19 31 q0 6 -1 13t-1 14z" />
<glyph unicode="&#xe24;&#xe32;" horiz-adv-x="1248" d="M662 751q6 32 11 64q12 20 24.5 40t28.5 37.5t37.5 30.5t53.5 18q23 0 53.5 -0.5t62.5 -2.5q35 -2 77.5 -21.5t77.5 -48.5q23 -31 35 -65t18 -72q4 -26 7.5 -52t8.5 -52q11 -59 10.5 -117t-3.5 -117q-6 -88 -10 -173.5t1 -172.5q1 -16 -0.5 -31t-3.5 -30q-2 -8 -5 -14.5 t-6 -13.5q-17 -8 -33 -9.5t-30 -3.5q-14 4 -19 11.5t-8 16.5q-2 7 -4 14.5t-3 15.5q-3 43 -6.5 86t-5.5 86q-2 48 -2 96t-6 96q-2 9 -1.5 18.5t0.5 18.5q-2 38 -4 74t-9 73t-9 74t-7 74q-3 29 -8.5 58.5t-19.5 62.5q-15 8 -29 16.5t-27 15.5h-64q-12 -7 -22 -13.5t-19 -12.5 q-25 -26 -29 -53q0 -9 5.5 -15l11 -12t9 -13t0.5 -18q-12 -17 -31 -21t-39 -2q-26 2 -41.5 19t-27.5 40z" />
<glyph unicode="&#xe26;&#xe32;" horiz-adv-x="1243" d="M672 751q6 32 11 64q12 20 26 40t32 37.5t41 30.5t55 18q23 0 53.5 -0.5t62.5 -2.5q35 -2 77.5 -21.5t77.5 -48.5q23 -31 35 -65t18 -72q4 -26 7.5 -52t8.5 -52q11 -59 10.5 -117t-3.5 -117q-6 -88 -10 -173.5t1 -172.5q1 -16 -0.5 -31t-3.5 -30q-2 -8 -5 -14.5t-6 -13.5 q-17 -8 -33 -9.5t-30 -3.5q-14 4 -19 11.5t-8 16.5q-2 7 -4 14.5t-3 15.5q-3 43 -6.5 86t-5.5 86q-2 48 -2 96t-6 96q-2 9 -1.5 18.5t0.5 18.5q-2 38 -4 74t-9 73t-9 74t-7 74q-3 29 -8.5 58.5t-19.5 62.5q-15 8 -29 16.5t-27 15.5h-64q-12 -7 -22 -13.5t-19 -12.5 q-25 -26 -29 -53q0 -9 5.5 -15l11 -12t9 -13t0.5 -18q-12 -17 -31 -21t-39 -2q-26 2 -46.5 19t-32.5 40z" />
<glyph unicode="&#xd;" horiz-adv-x="579" />
<glyph unicode=" "  horiz-adv-x="690" />
<glyph unicode="&#x09;" horiz-adv-x="690" />
<glyph unicode="&#xa0;" horiz-adv-x="690" />
<glyph unicode="!" horiz-adv-x="326" d="M94 1094q0 14 6 27.5t15.5 23.5t20.5 16t22 6q20 0 49 -22q24 -23 24 -51l-53 -883h-31zM109 49q0 23 16 39t39 16q20 0 36.5 -16t16.5 -39q0 -20 -15 -36.5t-38 -16.5t-39 16.5t-16 36.5z" />
<glyph unicode="&#x22;" horiz-adv-x="575" d="M94 1108q0 19 17.5 35t40.5 16q20 0 37.5 -13.5t17.5 -33.5v-4l-49 -289h-13zM370 1116q0 18 16 30.5t38 12.5q20 0 38.5 -15.5t18.5 -35.5l-51 -289h-8l-51 289q-1 3 -1 8z" />
<glyph unicode="#" horiz-adv-x="1030" d="M33 422v61h254l53 197h-205v61h221l115 422h66l-115 -422h274l115 422h63l-114 -422h237v-61h-254l-53 -197h205v-61h-221l-117 -422h-61l112 422h-274l-115 -422h-63l114 422h-237zM350 483h277l53 197h-277z" />
<glyph unicode="$" horiz-adv-x="1253" d="M94 0v63h801q43 0 80 13.5t64 36.5t42 53.5t15 64.5v152q0 34 -15 64.5t-42 53.5t-64 36.5t-80 13.5h-539q-55 0 -103 18.5t-83 50t-55.5 73.5t-20.5 89v150q0 46 20.5 88t56 74t83.5 50.5t102 18.5h240v201h61v-201h271v-61h-572q-42 0 -78 -14t-63 -37.5t-42 -54 t-15 -64.5v-150q0 -36 16.5 -67t44 -54t63.5 -36t74 -13h539q53 0 100.5 -18t83.5 -49t57 -72.5t21 -89.5v-152q0 -47 -21 -88.5t-57 -73.5t-83.5 -50.5t-100.5 -18.5h-238v-199h-61v199h-502z" />
<glyph unicode="%" horiz-adv-x="930" d="M2 0l848 1163h76l-846 -1163h-78zM35 963q0 40 15.5 76.5t42.5 64t64 43.5t79 16q40 0 76.5 -16t64 -43.5t43.5 -64t16 -76.5q0 -42 -16 -79t-43.5 -64t-64 -42.5t-76.5 -15.5q-42 0 -79 15.5t-64 42.5t-42.5 64t-15.5 79zM96 963q0 -30 10.5 -55.5t29.5 -44.5 t44.5 -29.5t55.5 -10.5q28 0 53.5 10.5t44.5 29.5t30 44.5t11 55.5q0 28 -11 53.5t-30 44.5t-44.5 30t-53.5 11q-30 0 -55.5 -11t-44.5 -30t-29.5 -44.5t-10.5 -53.5zM494 201q0 42 16 78.5t43.5 63.5t63.5 42.5t77 15.5q42 0 79 -15.5t64 -42.5t42.5 -63.5t15.5 -78.5 q0 -41 -15.5 -77.5t-42.5 -64t-64 -43.5t-79 -16q-41 0 -77 16t-63.5 43.5t-43.5 64t-16 77.5zM555 201q0 -29 11 -54t30 -44.5t44 -30.5t54 -11q28 0 53.5 11t45 30.5t30.5 44.5t11 54q0 28 -11 53.5t-30.5 44.5t-45 30t-53.5 11q-29 0 -54 -11t-44 -30t-30 -44.5 t-11 -53.5z" />
<glyph unicode="&#x26;" horiz-adv-x="1155" d="M94 307q0 182 176 320q29 23 79 58t122 83q-88 124 -88 197q0 36 13 69.5t35.5 60t54 42.5t69.5 16q36 0 66 -14t52 -38t34 -55t12 -65q0 -123 -160 -229l315 -445l138 99l37 -56l-138 -94l183 -256h-74l-160 221l-231 -168q-87 -63 -203 -63q-76 0 -137 28t-104.5 73 t-67 102t-23.5 114zM158 307q0 -52 19 -98t53.5 -80t82 -54t103.5 -20q43 0 86.5 12t91.5 35l12 11l219 157l-317 447q-35 -23 -85 -57t-116 -82q-149 -119 -149 -271zM444 965q0 -26 19.5 -68t58.5 -96q133 88 133 180q0 22 -7.5 42t-21 35.5t-32 24.5t-39.5 9 q-22 0 -42 -10.5t-35.5 -28t-24.5 -40.5t-9 -48z" />
<glyph unicode="'" horiz-adv-x="301" d="M94 1108q0 20 16.5 35.5t39.5 15.5t40 -15.5t17 -35.5l-53 -289h-11z" />
<glyph unicode="(" horiz-adv-x="387" d="M94 -102v1101q0 46 21 88.5t56.5 74t83 50.5t101.5 19h31v-64h-31q-42 0 -78 -13.5t-63 -36.5t-42 -53.5t-15 -64.5v-1101q0 -34 15 -64.5t42 -53.5t63 -36.5t78 -13.5h31v-64h-31q-54 0 -101.5 18.5t-83 50.5t-56.5 74t-21 89z" />
<glyph unicode=")" horiz-adv-x="387" d="M0 -270h31q42 0 78 13.5t63 36.5t42 53.5t15 64.5v1101q0 34 -15 64.5t-42 53.5t-63 36.5t-78 13.5h-31v64h31q54 0 101.5 -19t83 -50.5t56.5 -74t21 -88.5v-1101q0 -47 -21 -89t-56.5 -74t-83 -50.5t-101.5 -18.5h-31v64z" />
<glyph unicode="*" horiz-adv-x="784" d="M129 934l21 57l210 -76v236h64v-236l213 66l18 -57l-213 -68l136 -182l-50 -35l-137 180l-135 -180l-49 35l135 182z" />
<glyph unicode="+" horiz-adv-x="1053" d="M94 442v62h402v399h61v-399h399v-62h-399v-399h-61v399h-402z" />
<glyph unicode="," horiz-adv-x="299" d="M43 -258l107 401h63l-107 -401h-63z" />
<glyph unicode="-" horiz-adv-x="1053" d="M94 463v61h862v-61h-862z" />
<glyph unicode="." horiz-adv-x="299" d="M94 49q0 23 17 39t39 16q23 0 39 -16t16 -39q0 -20 -16 -36.5t-39 -16.5q-22 0 -39 16.5t-17 36.5z" />
<glyph unicode="/" horiz-adv-x="770" d="M-18 -100l770 1364h71l-774 -1364h-67z" />
<glyph unicode="0" horiz-adv-x="1253" d="M94 231v701q0 48 21 89.5t57 72.5t83.5 49t100.5 18h539q53 0 100.5 -18t83.5 -49t57 -72.5t21 -89.5v-701q0 -48 -21 -90t-57 -73.5t-83.5 -49.5t-100.5 -18h-539q-54 0 -101.5 18t-83 49.5t-56.5 73.5t-21 90zM158 231q0 -34 15 -64.5t42 -54t63 -37.5t78 -14h539 q43 0 80 14t64 37.5t42 54t15 64.5v701q0 34 -15 64.5t-42 53.5t-64 36.5t-80 13.5h-539q-42 0 -78 -13.5t-63 -36.5t-42 -53.5t-15 -64.5v-701z" />
<glyph unicode="1" horiz-adv-x="1253" d="M170 0v61h426v1041h-201v61h232q30 0 30 -30v-1072h424v-61h-911z" />
<glyph unicode="2" horiz-adv-x="1253" d="M94 231v150q0 46 20.5 88t56 74t83.5 50.5t102 18.5h539q43 0 80 13.5t64 36.5t42 53.5t15 64.5v152q0 34 -15 64.5t-42 54t-64 37.5t-80 14h-569v61h569q54 0 101.5 -18.5t83.5 -50.5t56.5 -74t20.5 -88v-152q0 -46 -20.5 -87.5t-55.5 -73t-83 -50t-103 -18.5h-539 q-42 0 -78 -14t-63 -37.5t-42 -54t-15 -64.5v-150q0 -34 15 -64.5t42 -54t63 -37.5t78 -14h801v-61h-801q-54 0 -101.5 18t-83 49.5t-56.5 73.5t-21 90z" />
<glyph unicode="3" horiz-adv-x="1253" d="M94 0v61h801q43 0 80 14t64 37.5t42 54t15 64.5v150q0 34 -15 64.5t-42 54t-64 37.5t-80 14h-569v61h569q43 0 80 13.5t64 36.5t42 53.5t15 64.5v152q0 34 -15 64.5t-42 54t-64 37.5t-80 14h-569v61h569q54 0 101.5 -18.5t83.5 -50.5t56.5 -74t20.5 -88v-152 q0 -133 -131 -198q131 -68 131 -201v-150q0 -48 -21 -90t-57 -73.5t-83.5 -49.5t-100.5 -18h-801z" />
<glyph unicode="4" horiz-adv-x="1253" d="M115 430v62l104 671h64l-107 -680v-53q0 -34 15.5 -64.5t42.5 -53.5t64 -36.5t79 -13.5h538v350h62v-350h201v-61h-201v-201h-62v201h-538q-54 0 -101.5 18t-83 48.5t-56.5 72.5t-21 90z" />
<glyph unicode="5" horiz-adv-x="1253" d="M94 0v61h801q43 0 80 14t64 37.5t42 54t15 64.5v150q0 34 -15 64.5t-42 54t-64 37.5t-80 14h-539q-55 0 -103 18.5t-83 50t-55.5 73t-20.5 87.5v152q0 48 21 89.5t57 72.5t83.5 49t100.5 18h572v-61h-572q-42 0 -78 -13.5t-63 -36.5t-42 -53.5t-15 -64.5v-152 q0 -34 15 -64.5t42 -53.5t63 -36.5t78 -13.5h539q54 0 101.5 -18.5t83.5 -50.5t56.5 -74t20.5 -88v-150q0 -48 -21 -90t-57 -73.5t-83.5 -49.5t-100.5 -18h-801z" />
<glyph unicode="6" horiz-adv-x="1253" d="M94 231v701q0 46 20.5 88t56 74t83.5 50.5t102 18.5h572v-61h-572q-42 0 -78 -14t-63 -37.5t-42 -54t-15 -64.5v-320h737q53 0 100.5 -18t83.5 -49t57 -72.5t21 -89.5v-152q0 -48 -21 -90t-57 -73.5t-83.5 -49.5t-100.5 -18h-539q-53 0 -100.5 18.5t-83.5 50.5t-57 73.5 t-21 88.5zM158 231q0 -34 15 -64.5t42 -54t63 -37.5t78 -14h539q39 0 75 13.5t64 36.5t45 54t17 66v152q0 34 -15 64.5t-42 53.5t-64 36.5t-80 13.5h-737v-320z" />
<glyph unicode="7" horiz-adv-x="1253" d="M94 1102v61h1030q33 0 33 -26q0 -14 -6 -23l-778 -1114h-76l768 1102h-971z" />
<glyph unicode="8" horiz-adv-x="1253" d="M94 231v201q0 149 156 211q-107 65 -107 178v111q0 47 21 89t57 73t83 49t99 18h445q53 0 100.5 -18t83.5 -49t57 -72.5t21 -89.5v-111q0 -114 -106 -178q153 -62 153 -211v-201q0 -48 -21 -90t-57 -73.5t-83.5 -49.5t-100.5 -18h-539q-54 0 -101.5 18t-83 49.5 t-56.5 73.5t-21 90zM158 231q0 -34 15 -64.5t42 -54t63 -37.5t78 -14h539q43 0 80 14t64 37.5t42 54t15 64.5v201q0 34 -15 64.5t-42 53.5t-64 36.5t-80 13.5h-539q-42 0 -78 -13.5t-63 -36.5t-42 -53.5t-15 -64.5v-201zM205 821q0 -33 15 -61.5t41.5 -50t62.5 -33.5t79 -12 h445q43 0 80 12t64 33.5t42 50t15 61.5v111q0 34 -15.5 64.5t-42.5 53.5t-64 36.5t-79 13.5h-445q-41 0 -77 -13.5t-63 -36.5t-42.5 -53.5t-15.5 -64.5v-111z" />
<glyph unicode="9" horiz-adv-x="1253" d="M94 780v152q0 48 21 89.5t57 72.5t83.5 49t100.5 18h539q53 0 100.5 -18t83.5 -49t57 -72.5t21 -89.5v-701q0 -48 -21 -90t-57 -73.5t-83.5 -49.5t-100.5 -18h-569v61h569q43 0 80 14t64 37.5t42 54t15 64.5v320h-740q-55 0 -103 18.5t-83 50t-55.5 73t-20.5 87.5z M158 780q0 -34 15 -64.5t42 -53.5t63 -36.5t78 -13.5h740v320q0 34 -15 64.5t-42 53.5t-64 36.5t-80 13.5h-539q-42 0 -78 -13.5t-63 -36.5t-42 -53.5t-15 -64.5v-152z" />
<glyph unicode=":" horiz-adv-x="299" d="M94 49q0 23 17 39t39 16q23 0 39 -16t16 -39q0 -20 -16 -36.5t-39 -16.5q-22 0 -39 16.5t-17 36.5zM94 709q0 23 17 39t39 16q23 0 39 -16t16 -39t-16 -39.5t-39 -16.5q-22 0 -39 16.5t-17 39.5z" />
<glyph unicode=";" horiz-adv-x="299" d="M43 -258l107 401h63l-107 -401h-63zM94 709q0 23 17 39t39 16q23 0 39 -16t16 -39t-16 -39.5t-39 -16.5q-22 0 -39 16.5t-17 39.5z" />
<glyph unicode="&#x3c;" horiz-adv-x="866" d="M33 432q0 16 18 27l688 405h119l-731 -432l739 -432h-127l-688 406q-9 5 -14 11t-4 15z" />
<glyph unicode="=" horiz-adv-x="1053" d="M94 305v62h862v-62h-862zM94 506v61h862v-61h-862z" />
<glyph unicode="&#x3e;" horiz-adv-x="866" d="M0 0l737 432l-731 432h121l688 -405q19 -12 19 -27q0 -17 -19 -26l-688 -406h-127z" />
<glyph unicode="?" horiz-adv-x="872" d="M94 1100v61h471q43 0 81.5 -16t67 -43.5t45.5 -65t17 -80.5v-208q0 -47 -18 -85t-49 -65t-72.5 -42t-89.5 -15q-38 0 -69 -10t-53.5 -29t-35 -45.5t-12.5 -59.5v-211h-62v211q0 45 16.5 82.5t46.5 64.5t73 42.5t96 15.5q36 0 66.5 10.5t53 29.5t35.5 46t13 60v208 q0 30 -12 56t-32.5 45.5t-47.5 31t-58 11.5h-471zM291 49q0 23 16 39t39 16q20 0 37.5 -16t17.5 -39q0 -20 -16 -36.5t-39 -16.5t-39 16.5t-16 36.5z" />
<glyph unicode="@" horiz-adv-x="1317" d="M94 359q0 132 46 244t125.5 194t185.5 128t227 46q96 0 182.5 -30t157 -84.5t121 -130.5t73.5 -167q5 -18 8 -37.5t3 -42.5q0 -79 -23.5 -156.5t-64 -139.5t-94 -100.5t-113.5 -38.5q-100 0 -109 93q-84 -90 -194 -90h-101q-174 0 -174 166q17 85 36 159t42 140 q10 41 36.5 77t62 63t76.5 43t81 16h100q54 0 89 -15.5t55 -44.5l16 60h62l-127 -471q-6 -22 -7.5 -39t-1.5 -31q0 -64 58 -64q44 0 86 33.5t74.5 86.5t52.5 118t20 129q0 51 -14 99t-38.5 90.5t-57.5 79.5t-70 65q-127 100 -303 100q-114 0 -209 -42.5t-164 -116.5 t-107 -173t-38 -213q0 -110 38 -205.5t108.5 -166t172 -110.5t228.5 -40q329 0 448 230l10 16h68l-23 -45q-33 -62 -83 -110.5t-113 -82.5t-138 -51.5t-159 -17.5q-135 0 -249 43t-197.5 120t-130 183.5t-46.5 233.5zM416 211q0 -100 108 -100h101q75 0 122 33t70 106 l72 262q2 9 3 18.5t1 18.5q0 98 -109 98h-100q-95 0 -152 -74q-22 -29 -45.5 -95t-52.5 -169z" />
<glyph unicode="A" horiz-adv-x="1128" d="M16 0l521 1145q5 11 11 16.5t17 5.5q19 0 29 -22l518 -1145h-65l-185 399h-596l-180 -399h-70zM295 463h541l-271 594z" />
<glyph unicode="B" horiz-adv-x="1253" d="M94 0v1163h703q53 0 100.5 -18.5t83 -50.5t56 -74t20.5 -88q0 -107 -92 -178q40 -10 75.5 -31t61 -50.5t40.5 -66t15 -76.5v-299q0 -48 -21 -90t-57 -73.5t-83.5 -49.5t-100.5 -18h-801zM158 61h737q43 0 80 14t64 37.5t42 54t15 64.5v299q0 34 -15 65t-42 54t-64 37 t-80 14h-737v-639zM158 762h639q42 1 78 15t63 37t42 53.5t15 64.5t-15 64.5t-42 54t-63 37.5t-78 14h-639v-340z" />
<glyph unicode="C" horiz-adv-x="1192" d="M94 231v701q0 46 20.5 88t56 74t83.5 50.5t102 18.5h572v-61h-572q-42 0 -78 -14t-63 -37.5t-42 -54t-15 -64.5v-701q0 -34 15 -64.5t42 -54t63 -37.5t78 -14h801v-61h-801q-54 0 -101.5 18t-83 49.5t-56.5 73.5t-21 90z" />
<glyph unicode="D" horiz-adv-x="1253" d="M94 0v1161h801q53 0 100.5 -18t83.5 -49t57 -72.5t21 -89.5v-701q0 -48 -21 -90t-57 -73.5t-83.5 -49.5t-100.5 -18h-801zM158 61h737q43 0 80 14t64 37.5t42 54t15 64.5v701q0 34 -15 64.5t-42 53.5t-64 36.5t-80 13.5h-737v-1039z" />
<glyph unicode="E" horiz-adv-x="1014" d="M94 0v1163h834v-61h-770v-340h770v-62h-770v-639h823v-61h-887z" />
<glyph unicode="F" horiz-adv-x="1010" d="M94 0v1163h883v-61h-819v-340h729v-62h-729v-700h-64z" />
<glyph unicode="G" horiz-adv-x="1253" d="M94 231v701q0 48 21 89.5t57 72.5t83.5 49t100.5 18h572v-61h-572q-42 0 -78 -13.5t-63 -36.5t-42 -53.5t-15 -64.5v-701q0 -34 15 -64.5t42 -54t63 -37.5t78 -14h539q43 0 80 14t64 37.5t42 54t15 64.5v320h-500v61h561v-381q0 -48 -21 -90t-57 -73.5t-83.5 -49.5 t-100.5 -18h-539q-54 0 -101.5 18t-83 49.5t-56.5 73.5t-21 90z" />
<glyph unicode="H" horiz-adv-x="1253" d="M94 0v1163h64v-401h938v401h61v-1163h-61v700h-938v-700h-64z" />
<glyph unicode="I" horiz-adv-x="252" d="M94 0v1163h64v-1163h-64z" />
<glyph unicode="J" horiz-adv-x="1192" d="M33 231v31h61v-31q0 -34 15.5 -64.5t42.5 -54t64 -37.5t79 -14h539q42 0 78.5 14t63.5 37.5t42.5 54t15.5 64.5v932h62v-932q0 -48 -21 -90t-57 -73.5t-83.5 -49.5t-100.5 -18h-539q-53 0 -100.5 18t-83.5 49t-57 73t-21 91z" />
<glyph unicode="K" horiz-adv-x="1206" d="M94 0v1163h64v-524l862 524h119l-865 -526l959 -637h-115l-901 600l-59 -35v-565h-64z" />
<glyph unicode="L" horiz-adv-x="1192" d="M94 231v932h64v-932q0 -34 15 -64.5t42 -54t63 -37.5t78 -14h801v-61h-801q-54 0 -101.5 18t-83 49.5t-56.5 73.5t-21 90z" />
<glyph unicode="M" horiz-adv-x="1253" d="M94 -2v1132q0 35 31 35q19 0 29 -22l473 -1039l471 1039q13 22 30 22q29 0 29 -35v-1132h-61v987l-443 -969q-10 -22 -26 -22q-19 0 -29 22l-440 969v-987h-64z" />
<glyph unicode="N" horiz-adv-x="1253" d="M94 0v1137q0 34 29 34q5 -1 12 -4.5t15 -11.5l946 -1040v1052h61v-1132q0 -35 -27 -35q-15 0 -26 14l-946 1041v-1055h-64z" />
<glyph unicode="O" horiz-adv-x="1253" d="M94 231v701q0 46 20.5 88t56 74t83.5 50.5t102 18.5h539q54 0 101.5 -18.5t83.5 -50.5t56.5 -74t20.5 -88v-701q0 -48 -21 -90t-57 -73.5t-83.5 -49.5t-100.5 -18h-539q-54 0 -101.5 18t-83 49.5t-56.5 73.5t-21 90zM158 231q0 -34 15 -64.5t42 -54t63 -37.5t78 -14h539 q43 0 80 14t64 37.5t42 54t15 64.5v701q0 34 -15 64.5t-42 54t-64 37.5t-80 14h-539q-42 0 -78 -14t-63 -37.5t-42 -54t-15 -64.5v-701z" />
<glyph unicode="P" horiz-adv-x="1253" d="M94 0v1133q0 30 33 30h768q54 0 101.5 -18.5t83.5 -50.5t56.5 -74t20.5 -88v-150q0 -47 -20.5 -89t-55.5 -73.5t-83 -50t-103 -18.5h-569v61h569q43 0 80 14t64 37.5t42 54t15 64.5v150q0 34 -15 64.5t-42 54t-64 37.5t-80 14h-737v-1102h-64z" />
<glyph unicode="Q" horiz-adv-x="1253" d="M94 231v701q0 48 21 90.5t57 73.5t83.5 49t100.5 18h539q53 0 100.5 -18t83.5 -49t57 -73.5t21 -90.5v-701q0 -76 -49 -137l94 -94h-88l-53 53q-71 -53 -166 -53h-539q-53 0 -100.5 18.5t-83.5 50.5t-57 73.5t-21 88.5zM158 231q0 -34 15 -64.5t42 -53.5t63 -36.5 t78 -13.5h539q68 0 121 33l-162 166h84l125 -123q33 43 33 92v701q0 34 -15 65t-42 54.5t-64 37t-80 13.5h-539q-42 0 -78 -13.5t-63 -37t-42 -54.5t-15 -65v-701z" />
<glyph unicode="R" horiz-adv-x="1253" d="M94 0v1133q0 30 33 30h768q53 0 100.5 -18t83.5 -49t57 -73.5t21 -90.5v-150q0 -47 -20.5 -89t-55.5 -73.5t-83 -50t-103 -18.5h-98l467 -551h-86l-463 551h-389v61h569q43 0 80 14t64 37.5t42 54t15 64.5v150q0 34 -15 65t-42 54.5t-64 37t-80 13.5h-737v-1102h-64z" />
<glyph unicode="S" horiz-adv-x="1253" d="M94 0v61h801q43 0 80 14t64 37.5t42 54t15 64.5v150q0 34 -15 64.5t-42 54t-64 37.5t-80 14h-539q-55 0 -103 18.5t-83 50t-55.5 73.5t-20.5 89v150q0 46 20.5 88t56 74t83.5 50.5t102 18.5h572v-61h-572q-42 0 -78 -14t-63 -37.5t-42 -54t-15 -64.5v-150q0 -34 15 -64.5 t42 -54t63 -37.5t78 -14h539q54 0 101.5 -18.5t83.5 -50.5t56.5 -74t20.5 -88v-150q0 -48 -21 -90t-57 -73.5t-83.5 -49.5t-100.5 -18h-801z" />
<glyph unicode="T" horiz-adv-x="1128" d="M33 1102v61h1063v-61h-500v-1102h-64v1102h-499z" />
<glyph unicode="U" horiz-adv-x="1253" d="M94 231v932h64v-932q0 -34 15 -64.5t42 -54t63 -37.5t78 -14h539q43 0 80 14t64 37.5t42 54t15 64.5v932h61v-932q0 -48 -21 -90t-57 -73.5t-83.5 -49.5t-100.5 -18h-539q-54 0 -101.5 18t-83 49.5t-56.5 73.5t-21 90z" />
<glyph unicode="V" horiz-adv-x="1126" d="M16 1163h70l479 -1052l479 1052h66l-516 -1140q-11 -23 -29 -23q-11 0 -17 6t-11 17z" />
<glyph unicode="W" horiz-adv-x="1718" d="M16 1163h66l379 -1036l370 1020q9 27 29 27q18 0 29 -27l371 -1020l376 1036h68l-416 -1138q-9 -25 -28 -25q-20 0 -29 25l-371 1022l-371 -1022q-9 -25 -28 -25q-22 0 -31 25z" />
<glyph unicode="X" horiz-adv-x="954" d="M16 0l424 614l-383 549h80l340 -495l342 495h76l-379 -549l422 -614h-74l-387 559l-387 -559h-74z" />
<glyph unicode="Y" horiz-adv-x="1165" d="M16 1163h80l488 -542l485 542h80l-535 -604v-559h-61v559z" />
<glyph unicode="Z" horiz-adv-x="1137" d="M33 27q0 12 12 24l952 1051h-759v61h829q37 0 37 -26q0 -15 -12 -27l-955 -1049h963v-61h-1032q-35 0 -35 27z" />
<glyph unicode="[" horiz-adv-x="387" d="M94 -340v1563h293v-62h-229v-1440h229v-61h-293z" />
<glyph unicode="\" horiz-adv-x="799" d="M-20 1264h69l772 -1364h-71z" />
<glyph unicode="]" horiz-adv-x="367" d="M0 -279h229v1440h-229v62h293v-1563h-293v61z" />
<glyph unicode="^" horiz-adv-x="891" d="M8 496l412 647q10 16 24 16q17 0 27 -16l412 -647h-74l-365 571l-362 -571h-74z" />
<glyph unicode="_" horiz-adv-x="862" d="M0 -16h862v-62h-862v62z" />
<glyph unicode="`" horiz-adv-x="455" d="M94 1118q0 18 13 29.5t30 11.5h10l9 -3t10 -6t20.5 -17.5t39.5 -38.5t68 -67.5t105 -104.5h-32l-242 147q-14 10 -22.5 18t-8.5 31z" />
<glyph unicode="a" horiz-adv-x="1022" d="M66 207q0 43 16.5 81t45 66t66.5 44t82 16h588v141q0 30 -11.5 56.5t-32 46t-47 31t-56.5 11.5h-471v62h471q43 0 81 -16t67 -44t46 -66t17 -81v-555h-64v82q-61 -82 -147 -82h-441q-43 0 -81 16t-66.5 44t-45.5 65.5t-17 81.5zM127 207q0 -30 12 -56.5t32 -46.5 t47.5 -31.5t57.5 -11.5h441q30 0 56.5 11.5t47 31t32 46t11.5 57.5v143h-588q-31 0 -58 -11.5t-47.5 -31.5t-32 -46t-11.5 -54z" />
<glyph unicode="b" horiz-adv-x="1053" d="M94 0v1163h64v-481q62 80 147 80h440q43 0 81.5 -16t67 -44t45.5 -66t17 -81v-348q0 -44 -16.5 -81.5t-45 -65.5t-67 -44t-82.5 -16h-440q-86 0 -147 82v-82h-64zM158 207q0 -30 11.5 -56.5t32 -46.5t47 -31.5t56.5 -11.5h440q31 0 58.5 11.5t48 31.5t32 46.5t11.5 56.5 v348q0 31 -12 57.5t-32.5 46t-47.5 30.5t-58 11h-440q-31 0 -57.5 -11.5t-46.5 -31t-31.5 -46t-11.5 -56.5v-348z" />
<glyph unicode="c" horiz-adv-x="989" d="M94 207v348q0 43 17 81t45.5 66t67 44t81.5 16h471v-62h-471q-31 0 -57.5 -11.5t-46.5 -31t-31.5 -46t-11.5 -56.5v-348q0 -30 11.5 -56.5t32 -46.5t47 -31.5t56.5 -11.5h651v-61h-651q-42 0 -80 16t-67 44t-46.5 66t-17.5 81z" />
<glyph unicode="d" horiz-adv-x="1053" d="M94 207v348q0 44 18.5 82t48 65.5t67.5 43.5t77 16h440q88 0 150 -80v481h61v-1163h-61v82q-61 -82 -150 -82h-440q-43 0 -81.5 16t-67 44t-45.5 65.5t-17 81.5zM158 207q0 -30 11.5 -56.5t31.5 -46.5t46.5 -31.5t57.5 -11.5h440q31 0 58 11.5t47.5 31.5t32.5 46.5 t12 56.5v348q0 30 -11.5 56.5t-32 46t-48 31t-58.5 11.5h-440q-30 0 -56.5 -11t-47 -30.5t-32 -46t-11.5 -57.5v-348z" />
<glyph unicode="e" horiz-adv-x="1022" d="M94 207v348q0 43 17 81t45.5 66t67 44t81.5 16h440q43 0 81.5 -16t67 -44t45.5 -66t17 -81q0 -42 -16.5 -79.5t-45 -65.5t-67 -44t-82.5 -16h-587v-143q0 -30 11.5 -56.5t32 -46.5t47 -31.5t56.5 -11.5h471v-61h-471q-42 0 -80 16t-67 44t-46.5 66t-17.5 81zM158 412h587 q31 0 58.5 11.5t48 31.5t32 45.5t11.5 54.5q0 31 -12 57.5t-32.5 46t-47.5 30.5t-58 11h-440q-31 0 -57.5 -11.5t-46.5 -31t-31.5 -46t-11.5 -56.5v-143z" />
<glyph unicode="f" horiz-adv-x="449" d="M33 700v62h100v194q0 43 16.5 81t45 66t67 44t82.5 16h72v-61h-72q-31 0 -58 -11.5t-47.5 -31.5t-32 -46.5t-11.5 -56.5v-194h221v-62h-221v-700h-62v700h-100z" />
<glyph unicode="g" horiz-adv-x="1053" d="M94 205v350q0 43 17 81t45.5 66t67 44t81.5 16h440q88 0 150 -80v80h61v-907q0 -43 -17 -80.5t-45.5 -65t-67 -43.5t-81.5 -16h-471v61h471q31 0 58 11t47.5 30.5t32.5 46t12 56.5v225q-62 -80 -150 -80h-440q-41 0 -79 15.5t-67 43t-47 65t-18 81.5zM158 205 q0 -30 11.5 -56.5t32 -46t47 -30.5t56.5 -11h440q31 0 58.5 11t48 30.5t32 46t11.5 56.5v350q0 30 -12 56.5t-32.5 46t-47.5 31t-58 11.5h-440q-31 0 -57.5 -11.5t-46.5 -31t-31.5 -46t-11.5 -56.5v-350z" />
<glyph unicode="h" horiz-adv-x="993" d="M94 0v1163h64v-481q62 80 147 80h383q43 0 81.5 -16t67 -44t45.5 -66t17 -81v-555h-61v555q0 31 -12 57.5t-32.5 46t-47.5 30.5t-58 11h-383q-31 0 -57.5 -11.5t-46.5 -31t-31.5 -46t-11.5 -56.5v-555h-64z" />
<glyph unicode="i" horiz-adv-x="254" d="M78 913q0 50 49 50t49 -50q0 -51 -49 -51t-49 51zM94 0v762h64v-762h-64z" />
<glyph unicode="j" horiz-adv-x="252" d="M-72 -168h72q31 0 49.5 11.5t28.5 31.5t13 46t3 56v785h64v-785q0 -43 -8.5 -80.5t-27.5 -65.5t-49 -44t-73 -16h-72v61zM78 913q0 50 49 50t49 -50q0 -51 -49 -51t-49 51z" />
<glyph unicode="k" horiz-adv-x="815" d="M94 0v1163h64v-723l458 324h107l-457 -322l549 -442h-98l-504 406l-55 -39v-367h-64z" />
<glyph unicode="l" horiz-adv-x="252" d="M94 0v1163h64v-1163h-64z" />
<glyph unicode="m" horiz-adv-x="1452" d="M94 0v762h64v-80q62 80 147 80h242q116 0 178 -98q65 98 180 98h242q43 0 81.5 -16t67 -44t45.5 -66t17 -81v-555h-62v555q0 30 -12 56.5t-32.5 46t-47.5 31t-57 11.5h-242q-30 0 -56.5 -11.5t-47 -31t-32 -46t-11.5 -56.5v-555h-64v555q0 30 -11.5 56.5t-32 46t-47 31 t-56.5 11.5h-242q-31 0 -57.5 -11.5t-46.5 -31t-31.5 -46t-11.5 -56.5v-555h-64z" />
<glyph unicode="n" horiz-adv-x="991" d="M94 0v762h64v-80q62 80 147 80h381q43 0 81.5 -16t67 -44t45.5 -66t17 -81v-555h-61v555q0 31 -12 57.5t-32.5 46t-47.5 30.5t-58 11h-381q-31 0 -57.5 -11.5t-46.5 -31t-31.5 -46t-11.5 -56.5v-555h-64z" />
<glyph unicode="o" horiz-adv-x="1053" d="M94 207v348q0 43 17 81t45.5 66t67 44t81.5 16h440q43 0 81.5 -16t67 -44t45.5 -66t17 -81v-348q0 -44 -16.5 -81.5t-45 -65.5t-67 -44t-82.5 -16h-440q-42 0 -80 16t-67 44t-46.5 66t-17.5 81zM158 207q0 -30 11.5 -56.5t32 -46.5t47 -31.5t56.5 -11.5h440 q31 0 58.5 11.5t48 31.5t32 46.5t11.5 56.5v348q0 31 -12 57.5t-32.5 46t-47.5 30.5t-58 11h-440q-31 0 -57.5 -11.5t-46.5 -31t-31.5 -46t-11.5 -56.5v-348z" />
<glyph unicode="p" horiz-adv-x="1053" d="M94 -401v1163h64v-80q62 80 147 80h440q44 0 82.5 -16t67 -44t45 -66t16.5 -81v-350q0 -43 -17 -80.5t-45.5 -65t-67 -43.5t-81.5 -16h-440q-85 0 -147 80v-481h-64zM158 205q0 -30 11.5 -56.5t31.5 -46t46.5 -30.5t57.5 -11h440q31 0 58 11t47.5 30.5t32.5 46t12 56.5 v350q0 30 -11.5 56.5t-32 46t-48 31t-58.5 11.5h-440q-30 0 -56.5 -11.5t-47 -31t-32 -46t-11.5 -56.5v-350z" />
<glyph unicode="q" horiz-adv-x="1053" d="M94 207v348q0 43 17 81t45.5 66t67 44t81.5 16h440q88 0 150 -80v80h61v-1161h-61v481q-61 -82 -150 -82h-440q-42 0 -80 16t-67 44t-46.5 66t-17.5 81zM158 207q0 -30 11.5 -56.5t32 -46.5t47 -31.5t56.5 -11.5h440q31 0 58.5 11.5t48 31.5t32 46.5t11.5 56.5v348 q0 30 -12 56.5t-32.5 46t-47.5 31t-58 11.5h-440q-31 0 -57.5 -11.5t-46.5 -31t-31.5 -46t-11.5 -56.5v-348z" />
<glyph unicode="r" horiz-adv-x="510" d="M94 0v762h64v-80q62 80 147 80h172v-62h-172q-30 0 -56.5 -11t-47 -30.5t-32 -46t-11.5 -57.5v-555h-64z" />
<glyph unicode="s" horiz-adv-x="991" d="M66 0v61h651q30 0 56.5 11.5t47 31.5t32 46.5t11.5 56.5q0 28 -11.5 54t-31.5 46t-46.5 31.5t-57.5 11.5h-441q-44 0 -82 16t-66.5 44t-45 65.5t-16.5 79.5q0 43 17 81t45.5 66t66.5 44t81 16h472v-62h-472q-30 0 -57.5 -11t-47.5 -30.5t-32 -46t-12 -57.5 q0 -29 11.5 -54.5t32 -45.5t47.5 -31.5t58 -11.5h441q41 0 79 -16.5t67.5 -44.5t47 -65t17.5 -79q0 -44 -17 -81.5t-46 -65.5t-67 -44t-81 -16h-651z" />
<glyph unicode="t" horiz-adv-x="449" d="M33 700v62h100v225h62v-225h221v-62h-221v-700h-62v700h-100z" />
<glyph unicode="u" horiz-adv-x="991" d="M94 207v555h64v-555q0 -30 11.5 -56.5t32 -46.5t47 -31.5t56.5 -11.5h381q31 0 58 11.5t47.5 31.5t32.5 46.5t12 56.5v555h61v-762h-61v80q-65 -80 -150 -80h-381q-42 0 -80 16t-67 44t-46.5 66t-17.5 81z" />
<glyph unicode="v" horiz-adv-x="727" d="M16 762h68l281 -653l278 653h68l-320 -744q-11 -24 -26 -24q-19 0 -29 24z" />
<glyph unicode="w" horiz-adv-x="1327" d="M16 762h70l279 -651l270 634q9 23 29 23q17 0 28 -23l273 -634l278 653h70l-322 -744q-11 -24 -26 -24q-19 0 -29 24l-272 633l-273 -633q-11 -24 -26 -24q-19 0 -29 24z" />
<glyph unicode="x" horiz-adv-x="631" d="M8 0l271 412l-232 350h76l192 -293l193 293h76l-232 -350l271 -412h-74l-234 354l-233 -354h-74z" />
<glyph unicode="y" horiz-adv-x="727" d="M16 762h68l278 -653l281 653h68l-318 -739q0 -7 -4 -11l-176 -413h-68l185 430z" />
<glyph unicode="z" horiz-adv-x="938" d="M33 27q0 15 14 26l739 647h-579v62h661q35 0 35 -27q0 -15 -14 -26l-737 -648h747v-61h-831q-35 0 -35 27z" />
<glyph unicode="{" horiz-adv-x="434" d="M33 444q0 9 2 11q18 30 37 61.5t34.5 64t26 66.5t10.5 70v274q0 46 21 88.5t56.5 74t82.5 50.5t100 19h31v-64h-31q-42 0 -78 -13.5t-63 -36.5t-42 -53.5t-15 -64.5v-274q0 -40 -8 -77t-25 -71l-74 -129q19 -33 38 -64.5t34.5 -64.5t25 -68.5t9.5 -76.5v-275 q0 -34 15 -64.5t42 -54t63 -37.5t78 -14h31v-61h-31q-51 0 -98 18t-83 49.5t-57.5 73.5t-21.5 90v275q0 73 -55 168q-29 49 -42 76t-13 34z" />
<glyph unicode="|" horiz-adv-x="252" d="M94 -102v1366h64v-1366h-64z" />
<glyph unicode="}" horiz-adv-x="434" d="M0 -279h31q42 0 78 14t63 37.5t42 54t15 64.5v275q0 41 9.5 76.5t24.5 68.5t34.5 64.5t40.5 64.5q-21 33 -40.5 64.5t-34.5 65t-24.5 70t-9.5 77.5v274q0 34 -15 64.5t-42 53.5t-63 36.5t-78 13.5h-31v64h31q54 0 101.5 -19t83 -50.5t56.5 -74t21 -88.5v-274 q0 -37 10 -71t25.5 -66.5t34.5 -63.5t36 -61q2 -2 2 -11q0 -8 -14 -34t-41 -76q-53 -98 -53 -168v-275q0 -48 -21.5 -90.5t-57.5 -73.5t-83.5 -49t-99.5 -18h-31v61z" />
<glyph unicode="~" horiz-adv-x="891" d="M20 567q14 39 17 43q18 45 42 82.5t52.5 63.5t59.5 40.5t61 14.5q80 0 207 -92q61 -45 105.5 -66.5t76.5 -21.5q26 0 52 13t47.5 34.5t37 49t19.5 56.5l2 27h61l-4 -35q-5 -45 -24 -83t-48.5 -65t-66.5 -42t-78 -15q-55 0 -107 27q-3 0 -135 90q-91 62 -145 62 q-18 0 -39.5 -11.5t-43 -32.5t-41.5 -51t-36 -67l-6 -21h-66z" />
<glyph unicode="&#xad;" horiz-adv-x="1053" d="M94 463v61h862v-61h-862z" />
<glyph unicode="&#xde;" horiz-adv-x="1102" d="M62 598q30 64 72 118.5t108 89.5q32 17 63.5 31.5t66.5 24.5q41 11 80 8.5t80 -20.5q15 -14 31.5 -29t33.5 -31q36 -34 52 -76t20 -90q1 -14 0.5 -27.5t-2.5 -27.5q-3 -34 -5.5 -67.5t-6.5 -67.5q-3 -22 -7 -43l-8 -42q-5 -26 -6.5 -52t-1.5 -52q0 -28 -2.5 -55.5 t-4.5 -55.5q-1 -8 -0.5 -15.5t0.5 -15.5q11 -7 22.5 -8.5t22.5 -0.5t22.5 3.5t23.5 2.5q4 11 7 20t4 18q3 20 0 42q-7 50 -6 99t3 98q5 70 6.5 139t12.5 138q12 83 44 166q9 23 19.5 45t21.5 45q6 13 17 21t26 9q14 1 24.5 -5t27.5 -23q-2 -17 -9.5 -32t-15.5 -30 q-29 -54 -42.5 -112t-24.5 -118q-11 -57 -13 -113.5t-2 -113.5q-1 -57 0 -114l2 -114q1 -20 4 -39.5t5 -39.5q1 -10 1 -18.5t1 -14.5q-5 -14 -14.5 -20.5t-20.5 -8.5q-14 -4 -30 -5t-30 5q-25 10 -49 8.5t-48 -7.5q-27 -6 -55 -9q-10 0 -21 1.5t-23 3.5q-3 10 -7 18.5 t-5 16.5q-3 39 1 74q5 51 10 101t10 101q5 43 10 85.5t9 85.5q5 47 7 92.5t-7 93.5q-29 63 -92 103q-46 30 -100 10q-46 -18 -83.5 -45t-65.5 -67q2 -10 7 -12.5t11 -2.5q19 1 37 0.5t36 -6.5q15 -11 24 -18t15 -13t11 -14t13 -22q1 -17 -3 -33t-9 -33q-13 -45 -18.5 -90.5 t-12.5 -90.5q-2 -8 -0.5 -15.5t3.5 -16.5q7 -2 13 -4.5t11 -2.5q64 0 94 -63q11 -69 -29 -133q-8 -14 -17.5 -26t-19.5 -23q-14 -15 -28 -24q-21 -10 -40 -14q-9 -2 -18.5 -1.5t-17.5 0.5q-23 19 -33 43t-16 50q-5 27 -7 54.5t-1 55.5q3 72 14 141.5t28 138.5q4 16 7 32.5 t2 33.5q-8 20 -22 26.5t-33 3.5q-25 -7 -46 -18q-19 -11 -39.5 -16.5t-43.5 -7.5q-14 3 -23.5 8t-11.5 21zM343.5 208q0.5 -4 11.5 -13q6 18 5 22t-10 10q-7 -15 -6.5 -19zM454 -187.5q1 11.5 4 23t9 25t16 32.5q56 44 136 45q41 -6 62.5 -33.5t26.5 -70.5q2 -12 2.5 -25 t2.5 -30q8 5 12.5 6.5t7.5 4.5q10 11 20 21t18 21q42 57 82.5 115t73.5 121q8 14 13.5 28t10.5 28q5 13 10 25.5t14 21.5q14 8 28.5 8.5t30.5 -2.5q5 -8 12 -17q-2 -44 -16.5 -82.5t-37.5 -73.5q-27 -40 -53 -80t-54 -79q-19 -26 -40 -50.5t-42 -49.5q-5 -5 -9.5 -9t-9.5 -7 q-40 -24 -82.5 -39.5t-90.5 -15.5q-38 -1 -70 10.5t-59 31.5q-17 17 -22.5 34t-5.5 36q-1 15 0 26.5zM552 -209.5q2 -8.5 10 -14.5t23 -12q14 2 21.5 11t10.5 21q5 16 3 30t-14 27q-26 15 -44 -5q-7 -22 -9.5 -35.5t-0.5 -22z" />
<glyph unicode="&#xe0d;" horiz-adv-x="1102" d="M62 598q30 64 72 118.5t108 89.5q32 17 63.5 31.5t66.5 24.5q41 11 80 8.5t80 -20.5q15 -14 31.5 -29t33.5 -31q36 -34 52 -76t20 -90q1 -14 0.5 -27.5t-2.5 -27.5q-3 -34 -5.5 -67.5t-6.5 -67.5q-3 -22 -7 -43l-8 -42q-5 -26 -6.5 -52t-1.5 -52q0 -28 -2.5 -55.5 t-4.5 -55.5q-1 -8 -0.5 -15.5t0.5 -15.5q11 -7 22.5 -8.5t22.5 -0.5t22.5 3.5t23.5 2.5q4 11 7 20t4 18q3 20 0 42q-7 50 -6 99t3 98q5 70 6.5 139t12.5 138q12 83 44 166q9 23 19.5 45t21.5 45q6 13 17 21t26 9q14 1 24.5 -5t27.5 -23q-2 -17 -9.5 -32t-15.5 -30 q-29 -54 -42.5 -112t-24.5 -118q-11 -57 -13 -113.5t-2 -113.5q-1 -57 0 -114l2 -114q1 -20 4 -39.5t5 -39.5q1 -10 1 -18.5t1 -14.5q-5 -14 -14.5 -20.5t-20.5 -8.5q-14 -4 -30 -5t-30 5q-25 10 -49 8.5t-48 -7.5q-27 -6 -55 -9q-10 0 -21 1.5t-23 3.5q-3 10 -7 18.5 t-5 16.5q-3 39 1 74q5 51 10 101t10 101q5 43 10 85.5t9 85.5q5 47 7 92.5t-7 93.5q-29 63 -92 103q-46 30 -100 10q-46 -18 -83.5 -45t-65.5 -67q2 -10 7 -12.5t11 -2.5q19 1 37 0.5t36 -6.5q15 -11 24 -18t15 -13t11 -14t13 -22q1 -17 -3 -33t-9 -33q-13 -45 -18.5 -90.5 t-12.5 -90.5q-2 -8 -0.5 -15.5t3.5 -16.5q7 -2 13 -4.5t11 -2.5q64 0 94 -63q11 -69 -29 -133q-8 -14 -17.5 -26t-19.5 -23q-14 -15 -28 -24q-21 -10 -40 -14q-9 -2 -18.5 -1.5t-17.5 0.5q-23 19 -33 43t-16 50q-5 27 -7 54.5t-1 55.5q3 72 14 141.5t28 138.5q4 16 7 32.5 t2 33.5q-8 20 -22 26.5t-33 3.5q-25 -7 -46 -18q-19 -11 -39.5 -16.5t-43.5 -7.5q-14 3 -23.5 8t-11.5 21zM343.5 208q0.5 -4 11.5 -13q6 18 5 22t-10 10q-7 -15 -6.5 -19zM454 -187.5q1 11.5 4 23t9 25t16 32.5q56 44 136 45q41 -6 62.5 -33.5t26.5 -70.5q2 -12 2.5 -25 t2.5 -30q8 5 12.5 6.5t7.5 4.5q10 11 20 21t18 21q42 57 82.5 115t73.5 121q8 14 13.5 28t10.5 28q5 13 10 25.5t14 21.5q14 8 28.5 8.5t30.5 -2.5q5 -8 12 -17q-2 -44 -16.5 -82.5t-37.5 -73.5q-27 -40 -53 -80t-54 -79q-19 -26 -40 -50.5t-42 -49.5q-5 -5 -9.5 -9t-9.5 -7 q-40 -24 -82.5 -39.5t-90.5 -15.5q-38 -1 -70 10.5t-59 31.5q-17 17 -22.5 34t-5.5 36q-1 15 0 26.5zM552 -209.5q2 -8.5 10 -14.5t23 -12q14 2 21.5 11t10.5 21q5 16 3 30t-14 27q-26 15 -44 -5q-7 -22 -9.5 -35.5t-0.5 -22z" />
<glyph unicode="&#xff;" horiz-adv-x="1942" d="M289 0v68v25v15.5t2 14.5q39 240 139 303q55 34 96 51q32 17 82 41t119 53q8 3 31 5.5t57 25.5v27v7q0 7 -2 11q-20 42 -20 49v2q7 0 11 -10q2 -4 3 -10q4 -13 14.5 -26t25 -26t31.5 -26t33 -25q46 -18 82 -18q18 0 51 8.5t70 28t70 52t51 81.5q0 -24 -31 -76 q-6 -4 -11 -8t-9.5 -10.5t-7 -17.5t-2.5 -29q0 -7 2 -13h4q20 0 35 -1.5t26 -6.5q209 -76 336 -209q80 -98 80 -264l-2 -53v-17v-11.5t2 -10.5h-1368zM666 1061v49q8 11 17 25t22 34h8q4 0 4 2v17q55 18 67 123q26 12 45.5 19t22.5 24q14 0 25 10q17 -14 49 -14q0 11 28 30 q6 -12 21 -30q5 11 9 21t9 18h13q5 0 20 18q25 0 69 -8t107 -25q6 -10 17 -19.5t22.5 -18t22 -15t14.5 -10.5q5 -20 16.5 -54t24 -69.5t23.5 -65.5t14 -41q0 -19 -5 -45t-11.5 -53t-12 -51.5t-6.5 -40.5l-8 12q-9 -7 -20 -27t-20.5 -41.5t-16 -39t-7.5 -19.5v182 q-21 21 -43 115q-56 98 -188 98q-150 0 -187 -120l-57 -103v-207h-18q-2 28 -5 59.5t-7 62t-10.5 56.5t-16.5 44q-4 -11 -8 -33l-9 33q-4 -12 -4 -25q0 -9 3.5 -23t7 -29t7 -29t3.5 -23q-26 35 -38.5 91.5t-12.5 135.5zM707 905v8q6 0 6 -4t-6 -4zM735 555q15 -144 203 -240 q10 0 26.5 -0.5t36.5 1.5t41 8t39 20q25 19 40.5 29.5t23.5 15.5q2 9 14.5 23t38.5 32q51 36 51 76q-5 20 -18.5 28.5t-36.5 8.5q-6 0 -6 -6t4 -18t10 -21q-32 -75 -90 -113q5 13 8.5 26t16.5 13q1 4 4 18t6 31t5.5 33t2.5 25q0 26 -8 39q-92 -56 -154 -56q-19 0 -35.5 5.5 t-35 16t-41 26.5t-52.5 38q3 -21 5 -21v1q0 -7 -15 -10q2 -11 2 -26.5t2 -35.5q-12 12 -43 21zM735 1217v6q6 0 6 -4q0 -2 -6 -2zM776 735v6q8 0 8 -4q0 -2 -8 -2zM784 705v20q9 -3 9 -20h-9zM784 1245q9 0 9 6q0 9 -9 9v-15zM821 975q2 2 4 2l2 4q13 12 41 12q22 0 41.5 -6 t42.5 -20q-5 -2 -9 -2h-9h-50t-63 10zM836 922q6 3 17.5 12.5t35.5 9.5q40 0 53 -10l10 -10l4 -11q0 -3 -17.5 -11t-39.5 -11l35 10q2 2 2 4.5t2 5.5h-4q-8 0 -25.5 3.5t-25.5 3.5q-36 0 -47 4zM860 926h6q5 0 17 -3t20 -3q-12 3 -12 10t10 10h-16q-9 -4 -25 -14zM883 737 q4 0 12.5 0.5t18.5 1.5t20 1.5t16 0.5t14.5 -1.5t16.5 -3.5l14 -3.5t9 -1.5q8 0 28 2t31 2t29 -5.5t23 -5.5l1 1q0 -13 -16.5 -26.5t-36.5 -24t-39 -17t-23 -6.5q-5 0 -15 1t-25 3q-12 0 -25.5 8.5t-25 21t-19.5 27t-8 25.5zM907 727q3 -9 19 -25q9 -2 30 -7t41 -5 q8 0 27.5 2t32.5 2q3 0 9 3.5t11.5 8t10 9t4.5 6.5q0 4 -19 4q-2 0 -9.5 -0.5t-17 -1.5t-19 -1.5t-15.5 -0.5q-9 0 -14 1.5t-11 3.5t-17 3.5t-32 1.5q-2 0 -12 -2t-15 -2h-4zM909 920q13 -2 21 -2h12h2h-2h2l-4 8q-5 5 -14 8l-4 4q2 -2 2 -4t2 -4q0 -7 -17 -10zM916 929 q0 -5 4 -5q6 0 6 5q0 3 -6 3q-4 0 -4 -3zM956 799q0 2 7 2q5 0 9.5 -3t4.5 -5h-4h-6l-2 2q-9 0 -9 4zM967 672h4l2 -2q0 -2 1 -2t3 -2h10l2 4l-2 2l-12 2l-6 2zM973 905v17q8 0 8 -9q0 -8 -8 -8zM1001 670h17l4 2l2 2v4h-8l-2 -2h-8h-5v-6zM1040 788l17 5q4 0 6 -2l4 -3h-27 zM1067 1384q0 -4 12 -10q2 2 3.5 6t4.5 9q-20 0 -20 -5zM1069 901l16 14q7 6 12 9.5t11 3.5q20 0 33 -3.5t21.5 -7.5t13 -8.5t6.5 -5.5l8 -8h-64q-15 0 -27 2t-20 4h-10zM1081 903h25q2 0 8.5 -1t11.5 -1q9 0 17 1t10 1h4q2 -2 19 -2q-9 0 -13 3.5t-9 8t-15 8t-29 3.5 q-7 0 -11.5 -6t-17.5 -15zM1085 952q16 19 27 19h35.5t44.5 -10q2 0 4 -3q13 -5 15.5 -7.5t7.5 -8.5q-6 -2 -21 -2q-5 0 -8.5 0.5t-8.5 1.5t-14.5 3.5t-27.5 6.5q-23 6 -31 6h-12q-3 -2 -6 -3t-5 -3zM1102 1374q14 0 14 8q0 7 -14 7v-15zM1106 911q0 11 18 11q19 0 19 -11 q0 -8 -19 -8q-18 0 -18 8zM1108 911q0 -4 4 -4q6 0 6 4q-4 4 -6 4q-4 0 -4 -4zM1110 879v6q12 0 12 -2q-4 -4 -12 -4zM1235 1319l25 -39q16 0 16 10q0 8 -13.5 18.5t-25.5 10.5h-2zM1239 735q3 20 10 27v-10q0 -14 -10 -17zM1311 864v6q6 0 8 -2q-4 -4 -8 -4z" />
<glyph unicode="&#x131;" horiz-adv-x="254" d="M78 913q0 50 49 50t49 -50q0 -51 -49 -51t-49 51zM94 0v762h64v-762h-64z" />
<glyph unicode="&#x152;" d="M-508 1473q2 25 9 49.5t30 43.5q3 2 6 5l6 6q4 3 8 6.5t9 6.5q31 24 69 24h11.5t11.5 -1q45 -9 75 -41q24 -24 43 -57q17 -29 12 -64q-3 -20 -7 -42t-10 -44q-5 -13 -5 -31q-1 -8 -2 -17t-2 -17q-2 -10 -2 -14q0 -2 -0.5 -2.5t-0.5 -1.5q-1 -2 -1 -6q0 -27 -5.5 -53.5 t-11.5 -51.5q-2 -6 -3 -12l-2 -12q-6 -21 -9 -43q2 5 4.5 9.5t5.5 9.5q3 7 6 13.5t7 13.5q6 14 13 28t15 28q13 24 24 48q2 5 5 9.5t5 9.5q4 8 8 16.5t8 16.5t7.5 15.5t7.5 15.5q1 2 2 3.5t2 3.5l1 2q0 1 1 1q7 9 13 22q22 38 28 72q3 14 11 27q9 18 14 39t7 49 q1 12 1.5 24.5t0.5 24.5q0 19 3 38.5t8 41.5q2 9 4 17.5t4 18.5q0 5 1 9t2 9l1 5l16 18l33 -7l3 -3q13 -10 16 -26q0 -2 0.5 -3t0.5 -3q3 -15 2 -26q-1 -20 -2.5 -45t-6.5 -51q-2 -8 -3.5 -16.5t-3.5 -16.5q-1 -5 -1.5 -9.5t-2.5 -9.5q0 -3 -1 -6t-1 -6q-2 -32 -10.5 -62.5 t-19.5 -61.5q-3 -8 -5.5 -14t-6.5 -14v-2q-2 -5 -4 -9.5t-4 -9.5l-12 -21l-9.5 -19t-8.5 -18q-6 -12 -12.5 -23t-12.5 -22q-5 -9 -9.5 -17.5t-9.5 -16.5q-12 -25 -23 -47.5t-19 -45.5q-5 -11 -11.5 -23t-14.5 -26q-5 -7 -9 -14t-9 -14q-4 -5 -6.5 -9t-6.5 -9 q-2 -4 -3.5 -7.5t-3.5 -6.5q-18 -37 -46 -80q-7 -7 -13 -21q-8 -14 -14.5 -27.5t-13.5 -27.5l-9 -19q-3 -5 -6.5 -11t-11.5 -11l-2 -1h-2q-8 -3 -15 -3q-10 0 -19 4l-4 1l-14 17v5v2v8q2 8 4.5 15.5t5.5 15.5q3 7 5 13q11 30 20.5 60.5t15.5 62.5v3v1q2 9 3 18.5t2 18.5 q2 9 2.5 18t2.5 18v4q1 3 1 6t2 7q3 20 7.5 42t9.5 45q3 14 5 27.5t3 27.5q0 7 1 13.5t3 12.5v5q-4 -1 -8 -1h-8q-65 0 -119 60q-12 13 -20.5 28t-16.5 29t-11.5 27.5t-6.5 28.5q-1 2 -1 9zM-437 1493q0 -13 0.5 -23t4.5 -19v-1q2 -5 3.5 -9.5t2.5 -9.5q3 -13 14 -28 q6 -6 9 -12q5 -8 11 -13.5t13 -11.5q16 -13 36 -14h6h11l11 14l4 2q2 0 2.5 0.5t2.5 0.5v2q2 6 3 13t4 14q5 14 7.5 27t4.5 26q4 30 -12 54q-4 6 -8.5 11.5t-9.5 10.5q-18 23 -42 27q-21 0 -34 -9q-11 -8 -20 -16.5t-19 -19.5q-5 -6 -5 -16z" />
<glyph unicode="&#xf70b;" d="M-508 1473q2 25 9 49.5t30 43.5q3 2 6 5l6 6q4 3 8 6.5t9 6.5q31 24 69 24h11.5t11.5 -1q45 -9 75 -41q24 -24 43 -57q17 -29 12 -64q-3 -20 -7 -42t-10 -44q-5 -13 -5 -31q-1 -8 -2 -17t-2 -17q-2 -10 -2 -14q0 -2 -0.5 -2.5t-0.5 -1.5q-1 -2 -1 -6q0 -27 -5.5 -53.5 t-11.5 -51.5q-2 -6 -3 -12l-2 -12q-6 -21 -9 -43q2 5 4.5 9.5t5.5 9.5q3 7 6 13.5t7 13.5q6 14 13 28t15 28q13 24 24 48q2 5 5 9.5t5 9.5q4 8 8 16.5t8 16.5t7.5 15.5t7.5 15.5q1 2 2 3.5t2 3.5l1 2q0 1 1 1q7 9 13 22q22 38 28 72q3 14 11 27q9 18 14 39t7 49 q1 12 1.5 24.5t0.5 24.5q0 19 3 38.5t8 41.5q2 9 4 17.5t4 18.5q0 5 1 9t2 9l1 5l16 18l33 -7l3 -3q13 -10 16 -26q0 -2 0.5 -3t0.5 -3q3 -15 2 -26q-1 -20 -2.5 -45t-6.5 -51q-2 -8 -3.5 -16.5t-3.5 -16.5q-1 -5 -1.5 -9.5t-2.5 -9.5q0 -3 -1 -6t-1 -6q-2 -32 -10.5 -62.5 t-19.5 -61.5q-3 -8 -5.5 -14t-6.5 -14v-2q-2 -5 -4 -9.5t-4 -9.5l-12 -21l-9.5 -19t-8.5 -18q-6 -12 -12.5 -23t-12.5 -22q-5 -9 -9.5 -17.5t-9.5 -16.5q-12 -25 -23 -47.5t-19 -45.5q-5 -11 -11.5 -23t-14.5 -26q-5 -7 -9 -14t-9 -14q-4 -5 -6.5 -9t-6.5 -9 q-2 -4 -3.5 -7.5t-3.5 -6.5q-18 -37 -46 -80q-7 -7 -13 -21q-8 -14 -14.5 -27.5t-13.5 -27.5l-9 -19q-3 -5 -6.5 -11t-11.5 -11l-2 -1h-2q-8 -3 -15 -3q-10 0 -19 4l-4 1l-14 17v5v2v8q2 8 4.5 15.5t5.5 15.5q3 7 5 13q11 30 20.5 60.5t15.5 62.5v3v1q2 9 3 18.5t2 18.5 q2 9 2.5 18t2.5 18v4q1 3 1 6t2 7q3 20 7.5 42t9.5 45q3 14 5 27.5t3 27.5q0 7 1 13.5t3 12.5v5q-4 -1 -8 -1h-8q-65 0 -119 60q-12 13 -20.5 28t-16.5 29t-11.5 27.5t-6.5 28.5q-1 2 -1 9zM-437 1493q0 -13 0.5 -23t4.5 -19v-1q2 -5 3.5 -9.5t2.5 -9.5q3 -13 14 -28 q6 -6 9 -12q5 -8 11 -13.5t13 -11.5q16 -13 36 -14h6h11l11 14l4 2q2 0 2.5 0.5t2.5 0.5v2q2 6 3 13t4 14q5 14 7.5 27t4.5 26q4 30 -12 54q-4 6 -8.5 11.5t-9.5 10.5q-18 23 -42 27q-21 0 -34 -9q-11 -8 -20 -16.5t-19 -19.5q-5 -6 -5 -16z" />
<glyph unicode="&#x153;" d="M-753 1625q2 25 9 49.5t30 43.5q4 2 6.5 4.5t6.5 5.5q4 4 7.5 7t8.5 7q16 12 34 18t36 6h11t11 -1q46 -11 75 -41q24 -24 43 -57q18 -31 12 -65q-2 -19 -6 -41t-11 -44q-2 -6 -3 -13.5t-2 -17.5q-1 -8 -1.5 -17t-2.5 -17q-1 -4 -1 -7.5t-1 -7.5q0 -1 -0.5 -1.5t-0.5 -1.5 v-6q-1 -27 -6.5 -53.5t-11.5 -52.5q-1 -5 -2 -11t-3 -12q-2 -11 -4.5 -21.5t-4.5 -21.5q5 11 10 19q3 7 6.5 13.5t6.5 13.5q7 14 13.5 28t15.5 28q6 11 12 23.5t12 24.5q2 5 4.5 9.5t4.5 9.5q4 8 8 16.5t8 16.5t8 15.5t7 15.5q3 3 5 7q0 1 2 3q3 5 6 11t7 11q21 40 27 72 q2 8 5 14.5t6 13.5q9 17 14 38t7 48v1q1 12 1.5 24.5t0.5 24.5q1 36 12 81q2 8 3.5 16.5t3.5 18.5l3 18l1 5l16 18l34 -7l2 -3q13 -10 16 -26q0 -2 0.5 -3t0.5 -3q2 -7 2.5 -13t-0.5 -14q-1 -20 -2.5 -44.5t-6.5 -50.5q-2 -8 -3.5 -16.5t-3.5 -16.5q-1 -5 -1.5 -9.5 t-1.5 -9.5q-1 -4 -1.5 -6.5t-0.5 -5.5q-2 -32 -11 -62.5t-20 -61.5q-2 -8 -5 -14.5t-6 -14.5l-1 -2l-4 -8t-4 -9q-3 -6 -6 -11.5t-6 -11.5q-5 -8 -9.5 -17.5t-8.5 -18.5q-6 -12 -12 -23t-13 -22q-5 -8 -9.5 -17l-8.5 -17q-25 -47 -43 -92q-9 -25 -26 -50q-5 -8 -9 -14.5 t-9 -13.5l-12 -18q-3 -4 -4.5 -7.5t-3.5 -6.5q-9 -19 -20 -38.5t-26 -41.5q-4 -4 -6.5 -9.5t-6.5 -11.5q-7 -14 -14 -27.5t-13 -27.5l-10 -19q-2 -5 -6 -11t-12 -11l-1 -1l-3 -1q-10 -2 -15 -2q-9 0 -18 3l-5 2l-13 16v6v2q-1 4 0 8q3 17 10 31l2 6t3 7q10 30 19.5 60.5 t15.5 62.5v3v1q2 9 3 18.5t2 18.5q2 9 2.5 17.5t2.5 18.5l1 3q0 4 2 14q4 20 8 42t9 45q3 14 5.5 27.5t2.5 27.5q1 7 1.5 13t2.5 13v5q-10 -2 -16 -2q-64 0 -118 61q-12 13 -21 27.5t-17 29.5q-7 14 -11 27.5t-7 28.5q-1 2 -1 9zM-682 1645q0 -13 0.5 -23t4.5 -19v-1 q2 -5 3.5 -9.5t3.5 -9.5q3 -15 13 -28q4 -4 10 -12q5 -8 10.5 -13.5t13.5 -11.5q14 -13 35 -14h7h10l11 14l4 1q2 1 3 1t2 1q0 1 0.5 1t0.5 1q2 14 6 27q5 13 7.5 26.5t4.5 26.5q5 32 -12 54q-4 5 -8.5 11t-9.5 11q-17 22 -42 27q-21 0 -34 -9q-20 -15 -39 -36q-5 -8 -5 -16 z" />
<glyph unicode="&#xf714;" d="M-753 1625q2 25 9 49.5t30 43.5q4 2 6.5 4.5t6.5 5.5q4 4 7.5 7t8.5 7q16 12 34 18t36 6h11t11 -1q46 -11 75 -41q24 -24 43 -57q18 -31 12 -65q-2 -19 -6 -41t-11 -44q-2 -6 -3 -13.5t-2 -17.5q-1 -8 -1.5 -17t-2.5 -17q-1 -4 -1 -7.5t-1 -7.5q0 -1 -0.5 -1.5t-0.5 -1.5 v-6q-1 -27 -6.5 -53.5t-11.5 -52.5q-1 -5 -2 -11t-3 -12q-2 -11 -4.5 -21.5t-4.5 -21.5q5 11 10 19q3 7 6.5 13.5t6.5 13.5q7 14 13.5 28t15.5 28q6 11 12 23.5t12 24.5q2 5 4.5 9.5t4.5 9.5q4 8 8 16.5t8 16.5t8 15.5t7 15.5q3 3 5 7q0 1 2 3q3 5 6 11t7 11q21 40 27 72 q2 8 5 14.5t6 13.5q9 17 14 38t7 48v1q1 12 1.5 24.5t0.5 24.5q1 36 12 81q2 8 3.5 16.5t3.5 18.5l3 18l1 5l16 18l34 -7l2 -3q13 -10 16 -26q0 -2 0.5 -3t0.5 -3q2 -7 2.5 -13t-0.5 -14q-1 -20 -2.5 -44.5t-6.5 -50.5q-2 -8 -3.5 -16.5t-3.5 -16.5q-1 -5 -1.5 -9.5 t-1.5 -9.5q-1 -4 -1.5 -6.5t-0.5 -5.5q-2 -32 -11 -62.5t-20 -61.5q-2 -8 -5 -14.5t-6 -14.5l-1 -2l-4 -8t-4 -9q-3 -6 -6 -11.5t-6 -11.5q-5 -8 -9.5 -17.5t-8.5 -18.5q-6 -12 -12 -23t-13 -22q-5 -8 -9.5 -17l-8.5 -17q-25 -47 -43 -92q-9 -25 -26 -50q-5 -8 -9 -14.5 t-9 -13.5l-12 -18q-3 -4 -4.5 -7.5t-3.5 -6.5q-9 -19 -20 -38.5t-26 -41.5q-4 -4 -6.5 -9.5t-6.5 -11.5q-7 -14 -14 -27.5t-13 -27.5l-10 -19q-2 -5 -6 -11t-12 -11l-1 -1l-3 -1q-10 -2 -15 -2q-9 0 -18 3l-5 2l-13 16v6v2q-1 4 0 8q3 17 10 31l2 6t3 7q10 30 19.5 60.5 t15.5 62.5v3v1q2 9 3 18.5t2 18.5q2 9 2.5 17.5t2.5 18.5l1 3q0 4 2 14q4 20 8 42t9 45q3 14 5.5 27.5t2.5 27.5q1 7 1.5 13t2.5 13v5q-10 -2 -16 -2q-64 0 -118 61q-12 13 -21 27.5t-17 29.5q-7 14 -11 27.5t-7 28.5q-1 2 -1 9zM-682 1645q0 -13 0.5 -23t4.5 -19v-1 q2 -5 3.5 -9.5t3.5 -9.5q3 -15 13 -28q4 -4 10 -12q5 -8 10.5 -13.5t13.5 -11.5q14 -13 35 -14h7h10l11 14l4 1q2 1 3 1t2 1q0 1 0.5 1t0.5 1q2 14 6 27q5 13 7.5 26.5t4.5 26.5q5 32 -12 54q-4 5 -8.5 11t-9.5 11q-17 22 -42 27q-21 0 -34 -9q-20 -15 -39 -36q-5 -8 -5 -16 z" />
<glyph unicode="&#x160;" d="M-711 1088q2 13 4 25l4 24q5 39 23.5 70.5t46.5 57.5q8 8 16.5 14t14.5 11q28 13 55 19.5t55 9.5q42 4 82.5 12t81.5 19q33 9 66.5 14t67.5 10q2 1 5.5 0t5.5 -2q5 -2 8.5 -5.5t8.5 -7.5q-1 -10 -2 -20.5t-2 -18.5q-20 -21 -43 -29.5t-48 -12.5q-21 -2 -42.5 -5.5 t-41.5 -12.5q-30 -14 -61.5 -20.5t-64.5 -8.5q-22 -2 -43 -4.5t-43 -5.5q-4 0 -6.5 -3.5t-6.5 -7.5q19 -14 35.5 -27t33.5 -26q22 -45 4 -96q-11 -11 -23 -24.5t-25 -27.5q-16 -5 -32 -10.5t-33 -10.5q-15 4 -26 6.5t-21 7.5q-60 23 -54 86z" />
<glyph unicode="&#xf709;" d="M-711 1088q2 13 4 25l4 24q5 39 23.5 70.5t46.5 57.5q8 8 16.5 14t14.5 11q28 13 55 19.5t55 9.5q42 4 82.5 12t81.5 19q33 9 66.5 14t67.5 10q2 1 5.5 0t5.5 -2q5 -2 8.5 -5.5t8.5 -7.5q-1 -10 -2 -20.5t-2 -18.5q-20 -21 -43 -29.5t-48 -12.5q-21 -2 -42.5 -5.5 t-41.5 -12.5q-30 -14 -61.5 -20.5t-64.5 -8.5q-22 -2 -43 -4.5t-43 -5.5q-4 0 -6.5 -3.5t-6.5 -7.5q19 -14 35.5 -27t33.5 -26q22 -45 4 -96q-11 -11 -23 -24.5t-25 -27.5q-16 -5 -32 -10.5t-33 -10.5q-15 4 -26 6.5t-21 7.5q-60 23 -54 86z" />
<glyph unicode="&#x161;" d="M-1189 1140q-1 27 2 53t7 52q2 20 10 37l16 34q15 29 34 50q20 20 42.5 35.5t51.5 23.5q34 9 67 13t68 4q22 0 43 -0.5t41 -4.5q40 7 79 12.5t77 12.5t73.5 17.5t68.5 29.5q17 11 32.5 22t31.5 24q19 16 36 34t36 37q4 11 6.5 20.5t5.5 19.5q9 33 27 63q10 16 19.5 32 t20.5 32q5 8 10.5 17t12.5 17q13 17 25.5 34t25.5 34q16 22 38 44q8 8 16 16.5t14 19.5q-2 5 -4.5 10t-4.5 10q5 3 10.5 6t10.5 5q17 -3 32.5 -8t26.5 -23l-2 -8t-1 -7q-31 -28 -58 -57.5t-50 -63.5q-8 -11 -16 -21.5t-16 -21.5q-20 -28 -35.5 -57t-32.5 -58q-5 -9 -6.5 -19 t-1.5 -21v-19t-5 -21q-8 -5 -17.5 -12t-17.5 -15t-15 -16.5t-15 -16.5q-26 -21 -53 -40.5t-56 -35.5q-7 -3 -13.5 -6.5t-14.5 -5.5q-29 -10 -58.5 -18.5t-59.5 -13.5q-5 0 -9 -1l-8 -2q-12 -5 -24.5 -8t-25.5 -1q-7 0 -10 -1q-26 -6 -51 -6.5t-51 0.5q-19 0 -37.5 0.5 t-37.5 0.5q-22 1 -43 -1t-42 -8q-14 -4 -28 -7.5t-28 -7.5q-18 -5 -29 -17q-5 -6 -11 -11t-11 -11q-5 -5 -10 -11t-8 -13q-8 -20 -17 -39.5t-14 -39.5q-3 -13 -5 -25.5t-2 -25.5q-2 -25 -1.5 -49.5t0.5 -49.5q0 -11 0.5 -20.5t1.5 -20.5q5 -32 21 -57q9 -16 21 -27t31 -16 q17 0 31 8t25 19q8 8 14.5 15.5t12.5 16.5q26 38 50.5 76.5t42.5 81.5q8 21 18 41t19 40q6 13 14.5 23t22.5 16q11 1 23 0t24 -7q8 -7 12.5 -17t9.5 -20q12 -28 25.5 -54t30.5 -51q10 -14 18.5 -27.5t16.5 -27.5q4 -6 7.5 -11.5t7.5 -11.5q6 -7 12.5 -13.5l14.5 -14.5h9.5 t9.5 2q13 6 25 16q10 8 17 18t13 21q-2 2 -4 5t-4 5q-6 5 -12.5 9t-12.5 9q-14 14 -21 31t-3 37q5 27 13 49q5 15 17 26t26.5 18t30 10t27.5 0q11 -2 21.5 -5.5t20.5 -6.5l9 -12t7 -12q2 -12 3 -24t3 -23t6.5 -21.5t2.5 -24.5q-7 -17 -17.5 -32.5t-27.5 -27.5q-6 -4 -10 -9 t-9 -10q-13 -14 -25 -28.5t-24 -28.5q-26 -30 -67 -39q-14 -3 -25.5 -1t-22.5 12q-6 5 -12.5 10.5t-11.5 12.5q-11 14 -21.5 27t-21.5 27q-7 10 -13.5 19.5t-13.5 18.5q-6 9 -12.5 17t-8.5 18q-1 2 -1.5 3.5t-1.5 2.5q-20 26 -31 54q-3 8 -15 7l-4 -4t-4 -5 q-7 -15 -13.5 -29.5t-12.5 -29.5q-14 -34 -33 -64t-40 -59q-5 -7 -9 -13t-9 -13q-9 -15 -21 -28t-26 -25q-55 -45 -125 -20q-9 4 -17.5 7t-16.5 8q-54 35 -63 102q-6 52 -6 105zM-523 1150q2 -8 6.5 -15t15.5 -10q23 22 29 56q-5 10 -10 17.5t0 18.5l8 8t9 8q-4 8 -5 9 q-10 4 -20 -3q-12 -8 -20 -19.5t-13 -25.5q-8 -21 0 -44z" />
<glyph unicode="&#xf712;" d="M-1189 1140q-1 27 2 53t7 52q2 20 10 37l16 34q15 29 34 50q20 20 42.5 35.5t51.5 23.5q34 9 67 13t68 4q22 0 43 -0.5t41 -4.5q40 7 79 12.5t77 12.5t73.5 17.5t68.5 29.5q17 11 32.5 22t31.5 24q19 16 36 34t36 37q4 11 6.5 20.5t5.5 19.5q9 33 27 63q10 16 19.5 32 t20.5 32q5 8 10.5 17t12.5 17q13 17 25.5 34t25.5 34q16 22 38 44q8 8 16 16.5t14 19.5q-2 5 -4.5 10t-4.5 10q5 3 10.5 6t10.5 5q17 -3 32.5 -8t26.5 -23l-2 -8t-1 -7q-31 -28 -58 -57.5t-50 -63.5q-8 -11 -16 -21.5t-16 -21.5q-20 -28 -35.5 -57t-32.5 -58q-5 -9 -6.5 -19 t-1.5 -21v-19t-5 -21q-8 -5 -17.5 -12t-17.5 -15t-15 -16.5t-15 -16.5q-26 -21 -53 -40.5t-56 -35.5q-7 -3 -13.5 -6.5t-14.5 -5.5q-29 -10 -58.5 -18.5t-59.5 -13.5q-5 0 -9 -1l-8 -2q-12 -5 -24.5 -8t-25.5 -1q-7 0 -10 -1q-26 -6 -51 -6.5t-51 0.5q-19 0 -37.5 0.5 t-37.5 0.5q-22 1 -43 -1t-42 -8q-14 -4 -28 -7.5t-28 -7.5q-18 -5 -29 -17q-5 -6 -11 -11t-11 -11q-5 -5 -10 -11t-8 -13q-8 -20 -17 -39.5t-14 -39.5q-3 -13 -5 -25.5t-2 -25.5q-2 -25 -1.5 -49.5t0.5 -49.5q0 -11 0.5 -20.5t1.5 -20.5q5 -32 21 -57q9 -16 21 -27t31 -16 q17 0 31 8t25 19q8 8 14.5 15.5t12.5 16.5q26 38 50.5 76.5t42.5 81.5q8 21 18 41t19 40q6 13 14.5 23t22.5 16q11 1 23 0t24 -7q8 -7 12.5 -17t9.5 -20q12 -28 25.5 -54t30.5 -51q10 -14 18.5 -27.5t16.5 -27.5q4 -6 7.5 -11.5t7.5 -11.5q6 -7 12.5 -13.5l14.5 -14.5h9.5 t9.5 2q13 6 25 16q10 8 17 18t13 21q-2 2 -4 5t-4 5q-6 5 -12.5 9t-12.5 9q-14 14 -21 31t-3 37q5 27 13 49q5 15 17 26t26.5 18t30 10t27.5 0q11 -2 21.5 -5.5t20.5 -6.5l9 -12t7 -12q2 -12 3 -24t3 -23t6.5 -21.5t2.5 -24.5q-7 -17 -17.5 -32.5t-27.5 -27.5q-6 -4 -10 -9 t-9 -10q-13 -14 -25 -28.5t-24 -28.5q-26 -30 -67 -39q-14 -3 -25.5 -1t-22.5 12q-6 5 -12.5 10.5t-11.5 12.5q-11 14 -21.5 27t-21.5 27q-7 10 -13.5 19.5t-13.5 18.5q-6 9 -12.5 17t-8.5 18q-1 2 -1.5 3.5t-1.5 2.5q-20 26 -31 54q-3 8 -15 7l-4 -4t-4 -5 q-7 -15 -13.5 -29.5t-12.5 -29.5q-14 -34 -33 -64t-40 -59q-5 -7 -9 -13t-9 -13q-9 -15 -21 -28t-26 -25q-55 -45 -125 -20q-9 4 -17.5 7t-16.5 8q-54 35 -63 102q-6 52 -6 105zM-523 1150q2 -8 6.5 -15t15.5 -10q23 22 29 56q-5 10 -10 17.5t0 18.5l8 8t9 8q-4 8 -5 9 q-10 4 -20 -3q-12 -8 -20 -19.5t-13 -25.5q-8 -21 0 -44z" />
<glyph unicode="&#x178;" d="M-472 1324q2 13 4 25l4 24q5 39 23.5 70.5t46.5 57.5q8 8 16.5 14t14.5 11q28 13 55 19.5t55 9.5q42 4 82.5 12t81.5 19q33 9 66.5 14t67.5 10q2 1 5.5 0t5.5 -2q5 -2 8.5 -5.5t8.5 -7.5q-1 -10 -2 -20.5t-2 -18.5q-20 -21 -43 -29.5t-48 -12.5q-21 -2 -42.5 -5.5 t-41.5 -12.5q-30 -14 -61.5 -20.5t-64.5 -8.5q-22 -2 -43 -4.5t-43 -5.5q-4 0 -6.5 -3.5t-6.5 -7.5q19 -14 35.5 -27t33.5 -26q22 -45 4 -96q-11 -11 -23 -24.5t-25 -27.5q-16 -5 -32 -10.5t-33 -10.5q-15 4 -26 6.5t-21 7.5q-60 23 -54 86z" />
<glyph unicode="&#xf717;" d="M-472 1324q2 13 4 25l4 24q5 39 23.5 70.5t46.5 57.5q8 8 16.5 14t14.5 11q28 13 55 19.5t55 9.5q42 4 82.5 12t81.5 19q33 9 66.5 14t67.5 10q2 1 5.5 0t5.5 -2q5 -2 8.5 -5.5t8.5 -7.5q-1 -10 -2 -20.5t-2 -18.5q-20 -21 -43 -29.5t-48 -12.5q-21 -2 -42.5 -5.5 t-41.5 -12.5q-30 -14 -61.5 -20.5t-64.5 -8.5q-22 -2 -43 -4.5t-43 -5.5q-4 0 -6.5 -3.5t-6.5 -7.5q19 -14 35.5 -27t33.5 -26q22 -45 4 -96q-11 -11 -23 -24.5t-25 -27.5q-16 -5 -32 -10.5t-33 -10.5q-15 4 -26 6.5t-21 7.5q-60 23 -54 86z" />
<glyph unicode="&#x17d;" d="M-401 1244l1 5l1 2q1 3 2 6.5t4 7.5q18 21 42 21h2h8.5t8.5 -1h9h4l14 -13q4 0 7.5 -0.5t7.5 -0.5q8 0 16.5 1t16.5 2l16 2t16 1q7 2 17 4q7 0 15 3q1 3 1 7q1 6 1 12v12q-1 29 -1.5 56t-2.5 53q0 13 -1 25.5t-3 26.5q-2 8 -2 17t-1 17v15v5l14 16l39 -10l2 -4l1 -1 q0 -1 1 -1q4 -4 5 -9q1 -2 1.5 -5t1.5 -5q4 -14 7 -28.5t3 -30.5q0 -10 0.5 -19.5t1.5 -19.5q0 -5 0.5 -10.5t0.5 -10.5q1 -7 1 -14t1 -14v-12.5t1 -12.5v-3l3 -42q0 -2 0.5 -3t0.5 -3q2 -1 6 -1h3h6h24q24 0 44 3q4 1 7.5 1h6.5l9 1h26t26 1h1q5 0 8.5 -0.5t7.5 -0.5t6 -1 h3l2 -1q2 -1 3 -2t3 -2q7 -4 14 -9t13 -13l3 -3l-3 -22l-24 -14h-3h-3q-4 0 -6 1q-38 6 -65 6h-11t-11 -1q-12 -1 -24 -1.5t-24 -0.5h-21h-1q-6 -1 -12 -1.5t-11 -2.5q0 -2 -0.5 -2.5t-0.5 -1.5l3 -30l2 -20t1 -21q1 -12 1 -24t1 -24v-28v-7v-11t2 -10q8 -29 -4 -51 q0 -5 0.5 -8.5t0.5 -7.5q1 -11 1 -23t-2 -24l-2 -5l-3 -2q0 -1 -1 -1t-1 -1q-2 -2 -4.5 -3.5t-4.5 -3.5q-4 -2 -8.5 -4t-9.5 -2q-8 0 -14.5 4.5t-11.5 11.5l-2 1l-1 3q-3 11 -3.5 21.5t0.5 21.5v5q1 14 0.5 27t-2.5 27v2q-1 2 -1 9q0 18 -1 36t-3 35q-1 8 -1.5 15t-1.5 14 l-2 28t-3 28v9q-1 5 -3 11q-20 2 -37 -1q-15 -3 -30 -3.5t-29 -0.5h-8h-18q-30 0 -55 6q-7 2 -15 5.5t-14 13.5z" />
<glyph unicode="&#xf70d;" d="M-401 1244l1 5l1 2q1 3 2 6.5t4 7.5q18 21 42 21h2h8.5t8.5 -1h9h4l14 -13q4 0 7.5 -0.5t7.5 -0.5q8 0 16.5 1t16.5 2l16 2t16 1q7 2 17 4q7 0 15 3q1 3 1 7q1 6 1 12v12q-1 29 -1.5 56t-2.5 53q0 13 -1 25.5t-3 26.5q-2 8 -2 17t-1 17v15v5l14 16l39 -10l2 -4l1 -1 q0 -1 1 -1q4 -4 5 -9q1 -2 1.5 -5t1.5 -5q4 -14 7 -28.5t3 -30.5q0 -10 0.5 -19.5t1.5 -19.5q0 -5 0.5 -10.5t0.5 -10.5q1 -7 1 -14t1 -14v-12.5t1 -12.5v-3l3 -42q0 -2 0.5 -3t0.5 -3q2 -1 6 -1h3h6h24q24 0 44 3q4 1 7.5 1h6.5l9 1h26t26 1h1q5 0 8.5 -0.5t7.5 -0.5t6 -1 h3l2 -1q2 -1 3 -2t3 -2q7 -4 14 -9t13 -13l3 -3l-3 -22l-24 -14h-3h-3q-4 0 -6 1q-38 6 -65 6h-11t-11 -1q-12 -1 -24 -1.5t-24 -0.5h-21h-1q-6 -1 -12 -1.5t-11 -2.5q0 -2 -0.5 -2.5t-0.5 -1.5l3 -30l2 -20t1 -21q1 -12 1 -24t1 -24v-28v-7v-11t2 -10q8 -29 -4 -51 q0 -5 0.5 -8.5t0.5 -7.5q1 -11 1 -23t-2 -24l-2 -5l-3 -2q0 -1 -1 -1t-1 -1q-2 -2 -4.5 -3.5t-4.5 -3.5q-4 -2 -8.5 -4t-9.5 -2q-8 0 -14.5 4.5t-11.5 11.5l-2 1l-1 3q-3 11 -3.5 21.5t0.5 21.5v5q1 14 0.5 27t-2.5 27v2q-1 2 -1 9q0 18 -1 36t-3 35q-1 8 -1.5 15t-1.5 14 l-2 28t-3 28v9q-1 5 -3 11q-20 2 -37 -1q-15 -3 -30 -3.5t-29 -0.5h-8h-18q-30 0 -55 6q-7 2 -15 5.5t-14 13.5z" />
<glyph unicode="&#x17e;" d="M-617 1462l1 5l1 2q1 3 2 6.5t4 7.5q18 21 42 21h2h8.5t8.5 -1h9h4l14 -13q4 0 7.5 -0.5t7.5 -0.5q8 0 16.5 1t16.5 2l16 2t16 1q7 2 17 4q7 0 15 3q1 3 1 7q1 6 1 12v12q-1 29 -1.5 56t-2.5 53q0 13 -1 25.5t-3 26.5q-2 8 -2 17t-1 17v15v5l14 16l39 -10l2 -4l1 -1 q0 -1 1 -1q4 -4 5 -9q1 -2 1.5 -5t1.5 -5q4 -14 7 -28.5t3 -30.5q0 -10 0.5 -19.5t1.5 -19.5q0 -5 0.5 -10.5t0.5 -10.5q1 -7 1 -14t1 -14v-12.5t1 -12.5v-3l3 -42q0 -2 0.5 -3t0.5 -3q2 -1 6 -1h3h6h24q24 0 44 3q4 1 7.5 1h6.5l9 1h26t26 1h1q5 0 8.5 -0.5t7.5 -0.5t6 -1 h3l2 -1q2 -1 3 -2t3 -2q7 -4 14 -9t13 -13l3 -3l-3 -22l-24 -14h-3h-3q-4 0 -6 1q-38 6 -65 6h-11t-11 -1q-12 -1 -24 -1.5t-24 -0.5h-21h-1q-6 -1 -12 -1.5t-11 -2.5q0 -2 -0.5 -2.5t-0.5 -1.5l3 -30l2 -20t1 -21q1 -12 1 -24t1 -24v-28v-7v-11t2 -10q8 -29 -4 -51 q0 -5 0.5 -8.5t0.5 -7.5q1 -11 1 -23t-2 -24l-2 -5l-3 -2q0 -1 -1 -1t-1 -1q-2 -2 -4.5 -3.5t-4.5 -3.5q-4 -2 -8.5 -4t-9.5 -2q-8 0 -14.5 4.5t-11.5 11.5l-2 1l-1 3q-3 11 -3.5 21.5t0.5 21.5v5q1 14 0.5 27t-2.5 27v2q-1 2 -1 9q0 18 -1 36t-3 35q-1 8 -1.5 15t-1.5 14 l-2 28t-3 28v9q-1 5 -3 11q-20 2 -37 -1q-15 -3 -30 -3.5t-29 -0.5h-8h-18q-30 0 -55 6q-7 2 -15 5.5t-14 13.5z" />
<glyph unicode="&#xf716;" d="M-617 1462l1 5l1 2q1 3 2 6.5t4 7.5q18 21 42 21h2h8.5t8.5 -1h9h4l14 -13q4 0 7.5 -0.5t7.5 -0.5q8 0 16.5 1t16.5 2l16 2t16 1q7 2 17 4q7 0 15 3q1 3 1 7q1 6 1 12v12q-1 29 -1.5 56t-2.5 53q0 13 -1 25.5t-3 26.5q-2 8 -2 17t-1 17v15v5l14 16l39 -10l2 -4l1 -1 q0 -1 1 -1q4 -4 5 -9q1 -2 1.5 -5t1.5 -5q4 -14 7 -28.5t3 -30.5q0 -10 0.5 -19.5t1.5 -19.5q0 -5 0.5 -10.5t0.5 -10.5q1 -7 1 -14t1 -14v-12.5t1 -12.5v-3l3 -42q0 -2 0.5 -3t0.5 -3q2 -1 6 -1h3h6h24q24 0 44 3q4 1 7.5 1h6.5l9 1h26t26 1h1q5 0 8.5 -0.5t7.5 -0.5t6 -1 h3l2 -1q2 -1 3 -2t3 -2q7 -4 14 -9t13 -13l3 -3l-3 -22l-24 -14h-3h-3q-4 0 -6 1q-38 6 -65 6h-11t-11 -1q-12 -1 -24 -1.5t-24 -0.5h-21h-1q-6 -1 -12 -1.5t-11 -2.5q0 -2 -0.5 -2.5t-0.5 -1.5l3 -30l2 -20t1 -21q1 -12 1 -24t1 -24v-28v-7v-11t2 -10q8 -29 -4 -51 q0 -5 0.5 -8.5t0.5 -7.5q1 -11 1 -23t-2 -24l-2 -5l-3 -2q0 -1 -1 -1t-1 -1q-2 -2 -4.5 -3.5t-4.5 -3.5q-4 -2 -8.5 -4t-9.5 -2q-8 0 -14.5 4.5t-11.5 11.5l-2 1l-1 3q-3 11 -3.5 21.5t0.5 21.5v5q1 14 0.5 27t-2.5 27v2q-1 2 -1 9q0 18 -1 36t-3 35q-1 8 -1.5 15t-1.5 14 l-2 28t-3 28v9q-1 5 -3 11q-20 2 -37 -1q-15 -3 -30 -3.5t-29 -0.5h-8h-18q-30 0 -55 6q-7 2 -15 5.5t-14 13.5z" />
<glyph unicode="&#x192;" d="M-1097 922v20q14 20 35 28.5t41 16.5q17 20 33.5 39t32.5 37q29 32 61.5 60.5t68.5 52.5q42 29 88 36t95 1q17 -2 30.5 -11.5t24.5 -23.5q8 -11 15.5 -23.5t26.5 -20.5q9 14 16 24t15 20q58 69 148 54q12 -2 24 -5t24 -5q31 -23 53 -52t34 -68q2 -28 -3 -55.5t-16 -52.5 q-12 -14 -26 -20.5t-31 -7.5q-29 -2 -58 -0.5t-57 12.5q-10 5 -20.5 7t-22.5 6q-30 -12 -62 -13.5t-64 1.5q-92 10 -178 -8.5t-170 -51.5q-34 -14 -66.5 -15t-66.5 4q-7 1 -13 5.5t-12 8.5zM-852 1034q9 -8 17 -8t15 2q42 8 82 12.5t82 2.5h6.5t5.5 2q5 2 9.5 5t9.5 6 q-7 19 -13 31t-14 21.5t-19.5 18.5t-30.5 22q-20 -6 -36.5 -13.5t-33 -20t-36 -32t-44.5 -49.5zM-436 1090l2 -10t3 -10q16 -14 33 -20t35 -10q6 -1 12 0t11 8q5 16 4 33t-3 34q-8 14 -15.5 28t-26.5 19q-12 -7 -19 -11.5t-12.5 -11t-10.5 -18t-13 -31.5z" />
<glyph unicode="&#xf703;" d="M-1097 922v20q14 20 35 28.5t41 16.5q17 20 33.5 39t32.5 37q29 32 61.5 60.5t68.5 52.5q42 29 88 36t95 1q17 -2 30.5 -11.5t24.5 -23.5q8 -11 15.5 -23.5t26.5 -20.5q9 14 16 24t15 20q58 69 148 54q12 -2 24 -5t24 -5q31 -23 53 -52t34 -68q2 -28 -3 -55.5t-16 -52.5 q-12 -14 -26 -20.5t-31 -7.5q-29 -2 -58 -0.5t-57 12.5q-10 5 -20.5 7t-22.5 6q-30 -12 -62 -13.5t-64 1.5q-92 10 -178 -8.5t-170 -51.5q-34 -14 -66.5 -15t-66.5 4q-7 1 -13 5.5t-12 8.5zM-852 1034q9 -8 17 -8t15 2q42 8 82 12.5t82 2.5h6.5t5.5 2q5 2 9.5 5t9.5 6 q-7 19 -13 31t-14 21.5t-19.5 18.5t-30.5 22q-20 -6 -36.5 -13.5t-33 -20t-36 -32t-44.5 -49.5zM-436 1090l2 -10t3 -10q16 -14 33 -20t35 -10q6 -1 12 0t11 8q5 16 4 33t-3 34q-8 14 -15.5 28t-26.5 19q-12 -7 -19 -11.5t-12.5 -11t-10.5 -18t-13 -31.5z" />
<glyph unicode="&#x2c6;" d="M-1035 1179v15q1 9 1 18.5t2 18.5q2 12 2 24.5v25.5v1q-1 13 1 26t6 30q6 28 16 62t27 69l1 3l2 1q8 5 14.5 11t13.5 11q15 13 30.5 25t31.5 21l1 1q23 10 44 10q28 0 55 -17l2 -1l2 -2q4 -6 6 -10q5 -7 8.5 -13t8.5 -13q2 -4 5 -7.5t6 -8.5t6.5 -10t6.5 -10 q12 -18 20 -38q2 -8 11 -22v2q2 4 3 7q23 54 56 91q26 31 65 38q9 2 17.5 3t16.5 3l14 2h1q4 -1 10 -1q5 -1 8.5 -1.5t7.5 -0.5q38 -3 64 -32q21 -24 30 -49q3 -8 6 -15t5 -15q4 -10 7.5 -20t7.5 -20q8 -26 12.5 -49.5t7.5 -44.5q1 -7 1.5 -15t0.5 -16q0 -12 0.5 -24.5 t0.5 -24.5v-27q5 11 9 21t9 20q7 17 10 39q5 32 15.5 61t21.5 56q2 5 4.5 9.5t4.5 9.5l12 27q5 12 5 21q9 76 42 144q12 24 15 50q3 38 23 86q16 35 17 66q2 23 8 44.5t17 46.5q4 11 8 21t9 21q2 4 3.5 7.5t3.5 7.5q4 10 11 20t21 16l3 2l4 -1q8 -2 15.5 -5.5t14.5 -7.5 l3 -2l2 -2q7 -12 4 -21t-6 -14l-2 -3l-21 -39q-13 -27 -25 -63q-5 -17 -7 -42q-1 -5 -1 -14q-5 -29 -13 -47q-15 -31 -21 -64l-1 -1q-1 -8 -2.5 -15t-1.5 -14q-3 -25 -14 -47q-14 -31 -26 -66t-13 -74q-1 -6 -2 -11.5t-3 -10.5q-5 -10 -10 -21.5t-11 -23.5q-27 -50 -39 -112 q-1 -3 -1 -6t-1 -5q-1 -5 -1.5 -9.5t-1.5 -9.5h-1q-2 -13 -7 -23q-3 -6 -5.5 -12.5t-5.5 -13.5q-5 -11 -10 -22.5t-12 -22.5q-2 -2 -2 -6l-1 -1q-2 -7 -4 -13.5t-4 -13.5q-13 -37 -20 -73q-1 -5 -2 -9t-3 -9q-1 -2 -1 -4t-1 -4l-1 -4l-19 -15h-4h-4h-4q-5 0 -8 1 q-28 6 -31 35q-1 5 -1.5 10t-0.5 10l-4 44t-1 44v54t-1 48q0 14 -1 28t-3 28q0 4 -0.5 7.5t-0.5 7.5q-3 27 -10 56t-20 63q-6 17 -14 32.5t-22 28.5q-6 3 -14 3h-4q-26 -2 -47 -10q-17 -6 -27 -19q-6 -8 -13 -17.5t-13 -18.5q-29 -44 -30 -87q0 -11 -2.5 -20.5t-4.5 -19.5 q-4 -13 -4 -25v-28v-53q1 -6 1.5 -12.5t1.5 -13.5q0 -3 0.5 -6t0.5 -5v-2v-1q-1 -7 -1 -13.5t-1 -14.5q-2 -17 -2.5 -32t-2.5 -31q-1 -11 0 -22t3 -22q1 -11 2 -21.5t0 -21.5v-2l-1 -2q-5 -9 -11.5 -12.5t-11.5 -4.5q-8 -2 -10 -2q-5 0 -9 1.5t-13 4.5l-3 1l-2 2 q-8 8 -10 17.5t-4 18.5q-1 12 -1.5 24t-0.5 23v12t1 12q0 19 0.5 38t-1.5 39l-3 33q-1 4 -1 7.5t-1 6.5l-2 25q-2 20 -4.5 40.5t-4.5 41.5q0 3 -2 11q-1 2 -1 6q-2 8 -3 11q-1 6 -1.5 12t-2.5 11q-5 23 -14 48.5t-26 47.5q-10 13 -16 23q-4 6 -8 10q-7 10 -16 18q-5 1 -9 -1 t-7.5 -4.5t-7.5 -5.5q-15 -11 -27.5 -25t-25.5 -28q-1 -1 -5 -7q-5 -5 -8 -11t-5 -12q-2 -5 -2.5 -8.5t-2.5 -7.5q-5 -19 -10.5 -37.5t-7.5 -38.5q-2 -15 -3.5 -29.5t-1.5 -28.5q-1 -18 -1 -37v-37v-6q0 -6 0.5 -11.5t1.5 -10.5q3 1 6.5 2t7.5 2q12 5 24 5h1h1q5 0 8 -1 q4 0 7.5 -0.5t6.5 -0.5h1q33 0 53 -27l1 -2l1 -1q5 -16 10 -33t4 -35q-1 -9 -2.5 -18t-7.5 -19l-18 -30q-16 -25 -45 -28q-10 -2 -19.5 -1.5t-18.5 1.5q-32 4 -51 36q-6 11 -12.5 25t-11.5 29q-5 16 -8.5 32t-4.5 33q0 6 -0.5 11.5t-1.5 12.5q-3 16 -3 36zM-938.5 1074 q0.5 -10 2.5 -21v-7q1 -3 2.5 -6.5t3.5 -5.5q5 -8 13 -14q3 2 8 10q9 20 8 41q-2 22 -10 36h-5q-11 0 -20 -13q-3 -10 -2.5 -20z" />
<glyph unicode="&#xf707;" d="M-1035 1179v15q1 9 1 18.5t2 18.5q2 12 2 24.5v25.5v1q-1 13 1 26t6 30q6 28 16 62t27 69l1 3l2 1q8 5 14.5 11t13.5 11q15 13 30.5 25t31.5 21l1 1q23 10 44 10q28 0 55 -17l2 -1l2 -2q4 -6 6 -10q5 -7 8.5 -13t8.5 -13q2 -4 5 -7.5t6 -8.5t6.5 -10t6.5 -10 q12 -18 20 -38q2 -8 11 -22v2q2 4 3 7q23 54 56 91q26 31 65 38q9 2 17.5 3t16.5 3l14 2h1q4 -1 10 -1q5 -1 8.5 -1.5t7.5 -0.5q38 -3 64 -32q21 -24 30 -49q3 -8 6 -15t5 -15q4 -10 7.5 -20t7.5 -20q8 -26 12.5 -49.5t7.5 -44.5q1 -7 1.5 -15t0.5 -16q0 -12 0.5 -24.5 t0.5 -24.5v-27q5 11 9 21t9 20q7 17 10 39q5 32 15.5 61t21.5 56q2 5 4.5 9.5t4.5 9.5l12 27q5 12 5 21q9 76 42 144q12 24 15 50q3 38 23 86q16 35 17 66q2 23 8 44.5t17 46.5q4 11 8 21t9 21q2 4 3.5 7.5t3.5 7.5q4 10 11 20t21 16l3 2l4 -1q8 -2 15.5 -5.5t14.5 -7.5 l3 -2l2 -2q7 -12 4 -21t-6 -14l-2 -3l-21 -39q-13 -27 -25 -63q-5 -17 -7 -42q-1 -5 -1 -14q-5 -29 -13 -47q-15 -31 -21 -64l-1 -1q-1 -8 -2.5 -15t-1.5 -14q-3 -25 -14 -47q-14 -31 -26 -66t-13 -74q-1 -6 -2 -11.5t-3 -10.5q-5 -10 -10 -21.5t-11 -23.5q-27 -50 -39 -112 q-1 -3 -1 -6t-1 -5q-1 -5 -1.5 -9.5t-1.5 -9.5h-1q-2 -13 -7 -23q-3 -6 -5.5 -12.5t-5.5 -13.5q-5 -11 -10 -22.5t-12 -22.5q-2 -2 -2 -6l-1 -1q-2 -7 -4 -13.5t-4 -13.5q-13 -37 -20 -73q-1 -5 -2 -9t-3 -9q-1 -2 -1 -4t-1 -4l-1 -4l-19 -15h-4h-4h-4q-5 0 -8 1 q-28 6 -31 35q-1 5 -1.5 10t-0.5 10l-4 44t-1 44v54t-1 48q0 14 -1 28t-3 28q0 4 -0.5 7.5t-0.5 7.5q-3 27 -10 56t-20 63q-6 17 -14 32.5t-22 28.5q-6 3 -14 3h-4q-26 -2 -47 -10q-17 -6 -27 -19q-6 -8 -13 -17.5t-13 -18.5q-29 -44 -30 -87q0 -11 -2.5 -20.5t-4.5 -19.5 q-4 -13 -4 -25v-28v-53q1 -6 1.5 -12.5t1.5 -13.5q0 -3 0.5 -6t0.5 -5v-2v-1q-1 -7 -1 -13.5t-1 -14.5q-2 -17 -2.5 -32t-2.5 -31q-1 -11 0 -22t3 -22q1 -11 2 -21.5t0 -21.5v-2l-1 -2q-5 -9 -11.5 -12.5t-11.5 -4.5q-8 -2 -10 -2q-5 0 -9 1.5t-13 4.5l-3 1l-2 2 q-8 8 -10 17.5t-4 18.5q-1 12 -1.5 24t-0.5 23v12t1 12q0 19 0.5 38t-1.5 39l-3 33q-1 4 -1 7.5t-1 6.5l-2 25q-2 20 -4.5 40.5t-4.5 41.5q0 3 -2 11q-1 2 -1 6q-2 8 -3 11q-1 6 -1.5 12t-2.5 11q-5 23 -14 48.5t-26 47.5q-10 13 -16 23q-4 6 -8 10q-7 10 -16 18q-5 1 -9 -1 t-7.5 -4.5t-7.5 -5.5q-15 -11 -27.5 -25t-25.5 -28q-1 -1 -5 -7q-5 -5 -8 -11t-5 -12q-2 -5 -2.5 -8.5t-2.5 -7.5q-5 -19 -10.5 -37.5t-7.5 -38.5q-2 -15 -3.5 -29.5t-1.5 -28.5q-1 -18 -1 -37v-37v-6q0 -6 0.5 -11.5t1.5 -10.5q3 1 6.5 2t7.5 2q12 5 24 5h1h1q5 0 8 -1 q4 0 7.5 -0.5t6.5 -0.5h1q33 0 53 -27l1 -2l1 -1q5 -16 10 -33t4 -35q-1 -9 -2.5 -18t-7.5 -19l-18 -30q-16 -25 -45 -28q-10 -2 -19.5 -1.5t-18.5 1.5q-32 4 -51 36q-6 11 -12.5 25t-11.5 29q-5 16 -8.5 32t-4.5 33q0 6 -0.5 11.5t-1.5 12.5q-3 16 -3 36zM-938.5 1074 q0.5 -10 2.5 -21v-7q1 -3 2.5 -6.5t3.5 -5.5q5 -8 13 -14q3 2 8 10q9 20 8 41q-2 22 -10 36h-5q-11 0 -20 -13q-3 -10 -2.5 -20z" />
<glyph unicode="&#x2dc;" d="M-880 1168q3 8 6 17t7 18q5 11 10 18q17 20 36.5 27.5t41.5 10.5q17 -1 34 -2.5t34 -1.5q34 -1 59.5 -14t40.5 -45q2 -5 6 -10l8 -10q5 3 9.5 5t7.5 5q17 20 34.5 40t33.5 40q35 42 68 84t67 84q27 34 51.5 69t33.5 79q5 27 34 37q10 -1 20.5 -1.5t21 -3.5t20 -10 t17.5 -19q-6 -23 -15.5 -45t-22.5 -44q-44 -72 -96.5 -135t-104.5 -129q-22 -28 -44.5 -55t-45.5 -54q-22 -26 -48.5 -47.5t-49.5 -45.5q-27 -27 -58.5 -39.5t-69.5 -8.5q-8 1 -15 -0.5t-15 -0.5q-11 2 -22 3.5t-20 6.5q-52 29 -72 78t-2 99zM-777 1141q8 -15 12 -30t20 -22 q13 1 20 8.5t11 17.5q7 14 10 28.5t-5 29.5q-2 4 -5 7t-5 6q-21 13 -44 -6q-3 -8 -6.5 -18.5t-7.5 -20.5z" />
<glyph unicode="&#xf710;" d="M-880 1168q3 8 6 17t7 18q5 11 10 18q17 20 36.5 27.5t41.5 10.5q17 -1 34 -2.5t34 -1.5q34 -1 59.5 -14t40.5 -45q2 -5 6 -10l8 -10q5 3 9.5 5t7.5 5q17 20 34.5 40t33.5 40q35 42 68 84t67 84q27 34 51.5 69t33.5 79q5 27 34 37q10 -1 20.5 -1.5t21 -3.5t20 -10 t17.5 -19q-6 -23 -15.5 -45t-22.5 -44q-44 -72 -96.5 -135t-104.5 -129q-22 -28 -44.5 -55t-45.5 -54q-22 -26 -48.5 -47.5t-49.5 -45.5q-27 -27 -58.5 -39.5t-69.5 -8.5q-8 1 -15 -0.5t-15 -0.5q-11 2 -22 3.5t-20 6.5q-52 29 -72 78t-2 99zM-777 1141q8 -15 12 -30t20 -22 q13 1 20 8.5t11 17.5q7 14 10 28.5t-5 29.5q-2 4 -5 7t-5 6q-21 13 -44 -6q-3 -8 -6.5 -18.5t-7.5 -20.5z" />
<glyph unicode="&#xe01;" horiz-adv-x="1255" d="M110.5 826.5q-0.5 3.5 0.5 6.5q8 27 26.5 48t35.5 43q35 44 82 68.5t99 41.5q152 47 296 -11q137 -56 168 -198q10 -41 16 -81.5t6 -82.5q0 -22 2.5 -43.5t4.5 -42.5q4 -40 5 -79.5t-6 -80.5q-6 -35 -9.5 -70t-6.5 -70q-1 -9 -0.5 -18.5t1.5 -18.5q3 -51 6.5 -100.5 t6.5 -97.5q-4 -16 -12 -22.5t-20 -8.5q-21 -3 -39 3t-34 19q-8 11 -9.5 23.5t-1.5 24.5q2 90 1 179t7 178q5 47 6 92.5t-3 92.5q-2 38 -5.5 76.5t-7.5 76.5q-4 31 -15.5 59.5t-25.5 56.5q-10 20 -26 34t-35 25q-23 13 -48.5 21.5t-51.5 6.5q-49 -3 -96 -14.5t-89 -42.5 q-2 -2 -4 -4.5t-6 -6.5q2 -3 4.5 -7t5.5 -6q17 -8 33.5 -16t30.5 -21q36 -33 55 -73.5t24 -88.5q3 -25 -4.5 -46t-23.5 -40q-32 -39 -83 -61q-10 -5 -19.5 -9.5t-20.5 -9.5l-4 -18t-2 -18q-1 -53 0 -105t6 -104q2 -29 1 -58.5t-2 -58.5q-2 -34 -5 -67.5t-5 -67.5v-9.5 t-1 -9.5q-1 -18 -6.5 -32.5t-24.5 -22.5q-20 -8 -38.5 -5t-35.5 28l-2 12t0 12q4 32 7.5 64t8.5 64q7 44 7.5 86.5t-6.5 85.5q-2 12 -3 24.5t-1 24.5v191q0 8 1 15t2 13l14.5 14.5t12.5 8.5t18.5 5.5t32.5 6.5q17 7 31 18.5t27 25.5q24 24 18 62q-7 33 -20 61.5t-46 48.5 q-17 7 -32 6.5t-28.5 -6.5t-25.5 -16t-24 -21q-21 -5 -38.5 0.5t-36.5 6.5q-6 6 -10.5 11.5t-8.5 10.5q-1 5 -1.5 8.5zM1029 441q1 2 0.5 5.5t1.5 5.5q11 13 22 25t22 26q5 -3 10 -5.5t10 -4.5q4 -37 -12 -68q-5 -2 -10 -5t-11 -6q-7 5 -13.5 8.5t-12.5 8.5q-2 2 -3.5 5 t-3.5 5zM1057.5 1010q-0.5 7 0.5 19q5 -6 7 -9t3 -6q1 -2 1 -5.5v-6.5q-11 1 -11.5 8zM1088.5 308.5q-0.5 7.5 0.5 17.5t3 28q10 2 19.5 3t17.5 3q12 -6 19.5 -14.5t9.5 -22.5q-8 -10 -17 -21.5t-19 -23.5q-6 -1 -12 -1.5t-11 -0.5q-5 11 -7.5 18t-3 14.5zM1089 753 q2 2 4.5 3.5t6.5 3.5q2 -4 4 -7t4 -7l-8 -5q-3 2 -5.5 5.5t-5.5 6.5zM1094 897q1 13 4.5 26t6.5 25.5t4 25t-2 26.5q10 16 17 31q-6 8 -11.5 16.5t-12.5 19.5q8 8 14.5 16t14.5 17q2 9 2 19.5t2 21.5q5 2 9 3t8 3q4 -2 7 -3t5 -3q4 -5 6.5 -10.5t6.5 -11.5q-4 -27 -10.5 -54 t-1.5 -56q-3 -7 -6.5 -15.5t-7.5 -17.5q2 -26 3 -51t2 -46q5 -11 12.5 -20t13.5 -17t9.5 -17t0.5 -21q-11 -11 -23 -8t-23 1q-5 4 -8.5 7t-6.5 7q-13 18 -29 45q-2 9 -3 20t-3 21z" />
<glyph unicode="&#xe02;" horiz-adv-x="994" d="M86 758q11 32 20.5 64.5t22.5 63.5q9 23 21.5 44t26.5 41q31 47 90 45q54 -2 100 -19t84 -55q31 -30 49 -70q16 -38 25 -75.5t8 -79.5q-3 -63 -2.5 -126.5t-4.5 -126.5t-5.5 -126t0.5 -127q0 -18 3 -36t14 -36q8 -3 16.5 -6t16.5 -4q50 -5 99 -8.5t98 -8.5q8 5 9.5 11.5 t3.5 14.5q5 22 1.5 43t-5.5 43q-5 52 -11 103.5t-11 104.5q-8 80 -13.5 159t-12.5 160q-5 51 -11.5 100.5t-12.5 100.5q-1 8 -1.5 16.5t-0.5 20.5q7 9 13.5 17t11.5 15q6 0 9.5 1t6.5 1q37 -7 66 -42q2 -12 4 -26.5t4 -29.5q6 -65 14 -128.5t9 -128.5q1 -54 6.5 -107.5 t10.5 -107.5q8 -78 16 -156.5t16 -156.5q3 -27 6.5 -54t7.5 -51q-4 -14 -11 -19.5t-16 -8.5q-15 -5 -30.5 -4t-30.5 6q-20 6 -41 12t-42 11q-12 4 -24 5.5t-24 3.5q-38 3 -76.5 6.5t-77.5 5.5q-22 1 -42.5 5.5t-40.5 15.5q-3 3 -6.5 6t-5.5 7q-4 8 -7.5 16t-6.5 14 q-1 6 -2 9.5t-1 6.5q-1 59 -1 117t-3 117q-2 43 2 86t9 86q2 23 3 46t-2 46q-4 37 -6 74t-1 74q0 40 -17 77q-14 29 -36 46t-51 27q-6 2 -12.5 1t-12.5 -2q-2 -5 -4.5 -8.5t-4.5 -8.5q4 -4 7 -7.5t7 -5.5q46 -24 66 -64t30 -86q7 -30 0 -58t-23 -54l-8 -10t-7 -10 q-20 -32 -49.5 -44.5t-66.5 -9.5q-18 2 -36 5.5t-35 6.5q-23 18 -36.5 39.5t-22 45t-13 48.5t-9.5 51zM210 678q6 -11 9.5 -17t7.5 -9t9 -3h14q10 11 15.5 18t9.5 16t8 22t11 36q-5 15 -8.5 29.5t-8.5 28.5q-3 9 -9.5 15.5t-19.5 4.5q-9 -12 -12.5 -25t-4.5 -26.5 t-0.5 -27.5t-1.5 -28q-5 -8 -9.5 -17t-9.5 -17z" />
<glyph unicode="&#xe03;" horiz-adv-x="914" d="M94 598q-14 93 29 180q5 10 11.5 18.5t14.5 16.5q11 11 25 16t30 5q22 -1 43 2.5t43 9.5q61 18 117 -19q13 -8 25.5 -17t25.5 -18q47 -80 50 -170v-12t1 -12q8 -48 9.5 -95.5t0.5 -95.5q-1 -14 -1 -27.5t-1 -27.5q-1 -6 -1.5 -12.5t-0.5 -12.5q2 -30 3 -61t3 -62 q0 -11 1.5 -21t3.5 -21q0 -3 2.5 -5.5t5.5 -7.5q31 -2 61 -10.5t59 -13.5q14 10 15.5 20.5t2.5 21.5q3 42 5.5 83t4.5 83q2 48 7.5 95t12.5 95q2 12 2.5 24.5t1.5 24.5q1 35 3 70.5t8 70.5q5 21 4 42.5t-1 43.5q0 20 3 37t17 33q29 12 48 -1t37 -32q15 -56 7 -116 q-6 -46 -10.5 -91.5t-5.5 -92.5q0 -6 -0.5 -12t-2.5 -12q-10 -42 -14.5 -82.5t-7.5 -82.5q-5 -68 -8 -135t-2 -136q0 -11 -1.5 -21.5t-2.5 -22.5q-10 -3 -18.5 -7t-17.5 -4q-35 -5 -66 10q-18 8 -37 14.5t-36 12.5q-42 5 -76 -4q-36 -11 -70 -3q-17 9 -24.5 22t-9.5 29 q-7 45 -10 89t-4 89q0 41 -0.5 80.5t-5.5 79.5q-3 23 -2 46.5t0 46.5q-1 35 -1.5 70.5t-3.5 70.5q-1 17 -6 33l-10 32q-6 20 -22 22q-32 -3 -59.5 -6.5t-56.5 -6.5q-26 -15 -25 -42q3 -4 5 -6.5t4 -4.5q11 -6 21.5 -11.5t21.5 -11.5q32 -18 43.5 -46.5t10.5 -63.5 q0 -17 -8 -32t-24 -24q-9 -7 -18 -11.5t-16 -9.5h-75q-41 16 -61.5 45t-25.5 68z" />
<glyph unicode="&#xe04;" horiz-adv-x="895" d="M10 625q1 63 20 121t51 112q6 11 14 20l16 18q23 26 49.5 46.5t55.5 39.5q46 29 99 29q79 3 153 -14.5t145 -51.5q26 -12 46 -30.5t40 -38.5q36 -34 50.5 -76.5t23.5 -89.5q13 -64 14.5 -128t0.5 -129q-1 -87 -2 -172.5t-2 -172.5q0 -25 1.5 -49.5t2.5 -49.5 q0 -13 -4.5 -24t-18.5 -18q-15 -2 -29.5 1.5t-28.5 10.5q-31 29 -29 72q0 41 0.5 80.5t1.5 79.5v62q0 12 -0.5 24.5t1.5 25.5q7 55 6.5 110t0.5 111q1 51 -5.5 101t-16.5 101q-14 71 -58 110.5t-110 57.5q-38 11 -76.5 12.5t-76.5 -3.5q-30 -17 -59.5 -33.5t-59.5 -33.5 q-29 -35 -52 -74.5t-38 -84.5q-14 -41 -16 -82t2 -83q0 -15 8 -29l28 -58t29 -58q1 -2 4.5 -2.5t6.5 -2.5q2 2 5 3.5t3 3.5q2 22 3.5 43t-0.5 43q-1 28 -0.5 55t2.5 53q14 25 26 48t25 46q11 18 24.5 32t29.5 26q29 2 52.5 -5.5t43.5 -27.5q45 -46 39 -107q-4 -29 -9.5 -58 t-18.5 -55q-11 -26 -28.5 -44t-44.5 -27q-8 -2 -14.5 -5t-14.5 -5q-10 -35 -11 -68.5t1 -67.5q1 -22 2.5 -43t3.5 -43q2 -28 4.5 -55.5t4.5 -54.5q1 -14 2.5 -28t-4.5 -27q-12 -18 -32 -15q-11 1 -20.5 2.5t-17.5 3.5q-18 11 -25 26.5t-12 32.5q-27 94 -67.5 181.5 t-88.5 173.5q-27 48 -39.5 99t-11.5 107z" />
<glyph unicode="&#xe05;" horiz-adv-x="1038" d="M69.5 587q-0.5 43 2.5 86q6 69 41 128q15 26 41 49.5t58 39.5t69.5 21.5t75.5 -4.5q9 -3 18 -4.5t18 -3.5q31 -8 56.5 -23.5t44.5 -41.5q8 -10 15 -19t13 -17q13 -3 18.5 2.5l10.5 10.5q16 17 31 34.5t31 34.5q31 34 78 56q113 3 186 -86q36 -43 52 -93t17 -106 q0 -47 -1 -93l-2 -92q-2 -63 -4.5 -124t-3.5 -123q-1 -46 0.5 -92t2.5 -94q-2 -3 -4.5 -6.5t-5.5 -6.5q-15 -7 -30 -7t-32 4q-43 22 -40 75q0 9 1 13q9 74 8.5 147.5t1.5 148.5q2 34 3 67t-1 68q-2 14 1 27.5t5 25.5q-2 29 -4 56.5t-4 55.5q-2 25 -7 48.5t-17 46.5 q-11 20 -25.5 34.5t-38.5 19.5q-25 -8 -43 -24t-32 -36q-17 -23 -34.5 -47t-34.5 -47q-6 -8 -12 -15t-12 -13q-6 -5 -12.5 -9t-14.5 -9q-14 2 -27.5 3.5t-28.5 3.5q-8 8 -16 14.5t-13 15.5q-12 21 -22.5 43.5t-21.5 44.5q-9 19 -20.5 35t-32.5 27q-36 5 -68 -7t-63 -32 q-9 -6 -16.5 -17t-11.5 -22q-25 -61 -36.5 -123.5t-1.5 -129.5q5 -42 17 -81.5t25 -78.5q12 -35 31.5 -65.5t52.5 -52.5q18 -11 32 -27t28 -28q15 -5 25 -1t19 10q18 13 36 25t36 25q8 17 8 34.5t-12 35.5q-12 3 -24.5 4.5t-24.5 4.5q-48 9 -75.5 39.5t-39.5 75.5 q-11 44 11 84q3 6 6.5 11t6.5 10q31 49 73 56t93 -17q13 -7 23 -14t19 -16.5t17.5 -22.5t19.5 -32q2 -20 4.5 -43.5t4.5 -48.5q1 -2 0.5 -5.5t0.5 -5.5q8 -45 7.5 -89.5t-4.5 -89.5q-1 -6 -1.5 -12t-0.5 -12q6 -61 2.5 -120.5t2.5 -120.5q2 -18 1 -36.5t-11 -36.5 q-10 -5 -19.5 -6t-19 0.5t-18.5 3.5l-18 4q-27 17 -33 46q-5 29 -11 57.5t-12 57.5q-2 15 -6 30q-2 6 -5 11t-6 13q-28 6 -56.5 12t-58.5 12q-36 25 -70.5 53t-64.5 61q-36 39 -57 87q-17 36 -30.5 73.5t-21.5 77.5q-2 11 -4 21.5t-2 21.5q-1 43 -1.5 86z" />
<glyph unicode="&#xe06;" horiz-adv-x="911" d="M16 602q-4 56 12 116q3 11 7 20.5t7 19.5q15 47 54 73q18 6 35.5 5t35 -5t34.5 -9.5t34 -9.5h88q48 -17 75 -50t41 -75q15 -49 22 -99.5t4 -101.5q-2 -22 -1.5 -43.5t0.5 -42.5q1 -16 4 -31t11 -29q17 -13 36.5 -17.5t38.5 -9.5q37 -9 70.5 -23t63.5 -37q2 -2 5.5 -2.5 t5.5 -0.5q8 1 11 5.5t5 10.5q2 10 3 19t1 18q2 63 1 126.5t-5 126.5q-4 54 -3.5 107.5t-1.5 108.5q9 9 17 17.5t14 15.5q20 5 34.5 -1.5t28.5 -11.5q4 -9 7.5 -17.5t5.5 -16.5q2 -14 2.5 -28t0.5 -28q-2 -76 -1 -151t8 -151q2 -17 1 -34t-3 -34q-2 -42 -3.5 -82.5 t-3.5 -82.5q-1 -19 -0.5 -37.5t-1.5 -35.5q-19 -20 -37.5 -22t-39.5 1q-16 10 -30 23t-27 29q-15 17 -30.5 34t-30.5 35q-11 14 -25.5 23t-30.5 15q-19 8 -38 11.5t-39 6.5q-4 -5 -7 -9t-3 -8q-1 -11 0 -21.5t1 -21.5q1 -26 2.5 -52.5t0.5 -52.5q-3 -70 -74 -85 q-25 -5 -49 -2.5t-47 13.5q-9 4 -16.5 8t-14.5 8q-85 83 -87 200q8 45 35 71t70 37q8 2 15 3.5t15 3.5q5 2 9 2.5t8 2.5q8 8 10.5 16t2.5 18q-3 42 -4.5 83t-5.5 83q-2 34 -5.5 67.5t-6.5 67.5q-2 11 -6.5 21t-17.5 20q-9 4 -19.5 4.5t-22 -0.5t-24.5 -1.5t-26 1.5 q-11 5 -23.5 11.5t-25.5 13.5q-17 -3 -21.5 -13.5t-2.5 -22.5q2 -3 4 -5.5t4 -4.5q14 -8 27 -15t27 -15q30 -18 41 -52q11 -32 13 -63.5t-9 -63.5q-8 -23 -20.5 -42t-36.5 -33q-6 -1 -15 -1.5t-17 -0.5q-8 -1 -15 -0.5t-12 0.5q-31 10 -51 28.5t-35 43.5q-33 54 -37 110z M143 598q2 -6 2.5 -12t11.5 -8q5 13 4 16t-11 9q-1 -1 -7 -5zM301 209q5 -34 15 -66t41 -55q14 8 15 18.5t1 20.5q1 33 1 66t-16 65q-26 -2 -38.5 -14.5t-18.5 -34.5z" />
<glyph unicode="&#xe07;" horiz-adv-x="707" d="M80 521.5q4 9.5 15 18.5q74 17 115 -47q19 -31 42.5 -57t48.5 -52q39 -39 75 -81q39 -44 79 -82q11 2 14 7t3 11q-1 28 -0.5 56t-3.5 55q-8 45 -7.5 89t-3.5 89q-1 18 -3.5 36.5t-5.5 36.5q-2 11 -6.5 21t-9.5 21q-20 1 -40 -2.5t-41 -6.5t-42.5 -4t-44.5 5 q-45 19 -50 75q-2 17 -4.5 34t-3.5 34q-4 41 8.5 75.5t39.5 65.5q28 34 71 29q31 -4 60.5 -11t56.5 -23q24 -14 41 -33t26 -45q7 -21 13 -41.5t10 -41.5q5 -26 6.5 -52t6.5 -52q8 -54 10.5 -107.5t7.5 -107.5q2 -29 3.5 -58t3.5 -58q4 -58 12.5 -113.5t19.5 -112.5 q3 -12 3 -24.5t-11 -23.5q-2 -2 -5.5 -4.5t-8.5 -3.5q-9 -2 -17.5 -3t-16.5 -3q-36 13 -64.5 34t-51.5 49q-50 59 -102 115t-100 117q-25 31 -54 58t-58 56q-10 10 -18.5 19.5t-16.5 17.5q-5 16 -1 25.5zM314 732l3.5 -10.5t3.5 -9.5q16 -3 26.5 3t21.5 16q22 38 13 81 q-18 -14 -23.5 -31.5t-16.5 -31.5q-6 -4 -13 -8t-15 -9z" />
<glyph unicode="&#xe08;" horiz-adv-x="816" d="M55 526.5q1 54.5 18 108.5q21 65 54.5 121.5t81.5 104.5q60 60 139 87q10 4 21 5l22 2t21 0t21 1q22 2 43 -1t43 -9q34 -10 68.5 -18t68.5 -23q8 -9 16 -18.5t16 -19.5q52 -58 70 -135q5 -20 5 -39.5t-3 -39.5q-13 -81 -33 -160t-51 -155q-17 -38 -32 -77t-29 -78 q-11 -32 -20 -65t-18 -65q-4 -14 -7 -27t-14 -26q-18 -9 -37 -8.5t-37 7.5q-17 11 -23 26t-5 33q0 32 0.5 64.5t2.5 64.5t-1 64.5t-3 66.5q-10 2 -17.5 4t-15.5 3q-18 2 -36 2t-38 1q-8 8 -15.5 16t-13.5 16q-6 10 -10 28t-6.5 38t-3 38t2.5 29q4 14 10 26t16 22t20.5 19.5 t20.5 19.5q14 3 26.5 6t23.5 6q25 -5 39.5 -8.5t24.5 -7.5t19 -10l24 -16q10 -42 19.5 -83.5t19.5 -83.5q0 -1 1.5 -1.5t3.5 -2.5q12 6 17 17t8 22q23 69 40 137t26 139q4 26 -1.5 51.5t-18.5 49.5q-11 20 -26.5 34.5t-36.5 22.5l-26 10t-27 11q-7 1 -14 1t-15 2 q-26 5 -52 0.5t-50 -14.5q-54 -22 -96 -55t-67 -87q-4 -9 -9 -16.5t-10 -15.5q-38 -54 -51 -115t-13 -126q0 -11 1.5 -23.5t-9.5 -24.5q-5 1 -10.5 2t-12.5 2q-16 -5 -33 -11q-4 4 -8 7t-7 6q-2 2 -3.5 5t-1.5 6q-8 56 -7 110.5z" />
<glyph unicode="&#xe09;" horiz-adv-x="982" d="M88.5 614.5q-5.5 59.5 1.5 122.5q11 27 21.5 54.5t22.5 53.5q20 42 45.5 78t54.5 70q105 119 264 108q31 -2 60 -12.5t58 -22.5q10 -4 15 -10q24 -26 50.5 -49.5t48.5 -52.5q29 -39 41.5 -82t15.5 -91q3 -43 4 -86t0 -86q0 -51 -2 -102l-4 -102q-1 -15 0.5 -30.5 t2.5 -31.5q23 -10 45 -20t43 -19q9 -11 16.5 -21.5t15.5 -19.5q29 -34 31 -70.5t-18 -73.5q-26 -50 -66.5 -78t-99.5 -23q-32 11 -47.5 32.5t-24.5 49.5q-4 10 -6 20.5t-4 21.5q-2 5 -5 10t-6 12q-15 -13 -19 -28t-12 -28t-15.5 -26t-14.5 -25q-15 -13 -31.5 -18t-35.5 -8 q-8 2 -16 5.5t-16 5.5q-3 5 -6 8.5t-5 7.5q-5 14 -10.5 28.5t-8.5 29.5q-7 32 -11.5 64t-9.5 64q-2 15 -3 30.5t-3 30.5q-2 23 -5 46t-11 46q-13 0 -18 -2q-9 -3 -17.5 -7.5t-16.5 -6.5q-36 -11 -67 -1t-52 41q-9 13 -15.5 27t-12.5 28q-5 11 -8.5 23.5t-8.5 27.5 q2 21 4 45.5t7 47.5q15 80 88 120q8 5 17 8t18 3q29 0 58 -4t56 -18q18 -11 31 -28q14 -16 24 -32.5t15 -36.5q0 -64 -0.5 -127t9.5 -126q3 -23 3 -46t2 -46q2 -15 4 -30.5t14 -29.5q16 7 24.5 21t22.5 24t27.5 20t27.5 20q2 8 5 15t3 15q5 68 12 135t8 136q0 53 -2.5 105 t-10.5 104q-2 9 -3.5 18t-4.5 18q-5 17 -11 33.5t-11 30.5q-19 26 -39 43t-42 32q-16 11 -33.5 16t-36.5 5q-30 -1 -58 -8.5t-53 -23.5q-42 -26 -75.5 -58.5t-55.5 -77.5q-8 -14 -17 -28.5t-18 -28.5q-21 -34 -32 -70t-15 -75q-2 -20 -0.5 -40t10.5 -39q8 -16 9 -33t-2 -39 q-11 0 -18.5 0.5t-15.5 -0.5q-6 -1 -11 -3.5t-10 -4.5q-4 3 -7 5t-4 4q-32 57 -37.5 116.5zM381 631q4 -6 10 -4q2 0 3 2.5t3 4.5q-2 2 -4 4.5t-4 2.5q-5 2 -8 -2t0 -8zM773.5 199q0.5 -10 1.5 -27q2 -14 4 -27t16 -21q16 -1 23 8t10 22q4 17 3 33t-6 32q-6 8 -10 12.5 t-7.5 7t-8 4t-11.5 3.5q-6 -10 -9 -16.5t-4.5 -13.5t-1 -17z" />
<glyph unicode="&#xe0a;" horiz-adv-x="1253" d="M66 424.5q3 40.5 26 78.5q20 31 41.5 60.5t50.5 54.5q7 6 14 11t15 10q7 2 13 2.5t12 1.5t12 0.5t11 -0.5q14 -8 26 -14.5t23 -12.5q15 1 17 15q12 67 27 132.5t34 131.5q28 95 26 194q-1 20 -1 40t7 38q8 13 19 17.5t24 2.5q8 0 16 -4t16 -6q2 -8 3.5 -12.5t1.5 -8.5 q5 -73 -0.5 -144.5t-26.5 -142.5q-23 -75 -36 -150t-22 -152q-5 -39 -10.5 -78.5t-6.5 -80.5v-28q8 -7 16.5 -13.5t13.5 -10.5q15 -32 17.5 -59.5t-3.5 -55.5q-11 -49 -19.5 -97.5t-18.5 -96.5q-2 -14 -6 -27l-8 -26q-4 -9 -8 -16.5t-7 -14.5q-18 -12 -28 -18.5t-19.5 -10 t-20.5 -4.5t-30 -2q-19 5 -29 17.5t-15 29.5q-7 23 -11.5 44t-9.5 38q2 50 9 93t15 86q3 14 4 29.5t1 30.5q0 5 -2 8.5t-3 7.5q-15 5 -25.5 -2.5t-21.5 -12.5q-22 -10 -43.5 -11.5t-42.5 7.5q-14 10 -20.5 22.5t-9.5 26.5q-10 42 -7 82.5zM202 478.5q-1 -16.5 3 -33.5 q0 -2 3 -2.5t5 -2.5q6 18 9 28.5t4 18.5t0 16.5t-3 23.5q-8 0 -11 -5t-5 -11q-4 -16 -5 -32.5zM304 82q0 -4 2.5 -7.5t3.5 -7.5q10 1 13 6.5t4 11.5q2 35 10 69t14 69q4 16 7 32.5t-1 32.5q-5 2 -7.5 3.5t-5.5 2.5q-10 -4 -13 -19q-6 -35 -12.5 -69t-11.5 -69 q-2 -14 -2.5 -27.5t-0.5 -27.5zM512 759q3 16 7 34.5t8 36.5q14 25 29 46t38 36q22 7 44 4.5t48 -9.5q5 -5 13 -14.5t18 -20.5q8 -1 17.5 -2.5t18.5 -3.5q3 5 5.5 8t2.5 5q1 8 1 15.5t1 15.5q2 58 54 73q27 0 43 -21q12 -14 23.5 -28t22.5 -28q10 -1 13 4t3 11 q-2 23 1.5 45.5t9.5 45.5q7 24 21 41t37 27q8 3 16.5 6.5t17.5 7.5q8 23 12.5 45.5t8.5 45.5q5 37 12.5 72.5t24.5 69.5q6 11 7.5 25.5t4.5 30.5q10 23 20 48t21 51q3 5 7.5 9.5l9.5 9.5q10 -2 18.5 -4t16.5 -7q17 -9 24 -24t4 -33q-2 -8 -4.5 -15t-5.5 -14q-28 -70 -3 -145 q5 -19 11 -38.5t2 -43.5q-2 -4 -5.5 -10t-7.5 -13q-5 -6 -9 -12t-9 -14q-6 -42 -13 -84.5t-29 -81.5q5 -20 8.5 -39t7.5 -38q-6 -10 -14.5 -16t-18 -10.5t-19 -9.5t-18.5 -14q-26 -50 -40 -110q-2 -12 -5 -24t-5 -25q-7 -45 -20.5 -86.5t-30.5 -83.5q-2 -5 -2 -9.5t-1 -7.5 q3 -19 10 -36t16 -33.5t18.5 -32.5t16.5 -33q-14 -20 -21.5 -39.5t-12.5 -41.5q-4 -16 -10.5 -31.5t-13.5 -31.5q-6 -14 -17 -25q-10 -11 -21.5 -18.5t-25.5 -10.5q-17 -4 -33.5 1t-35.5 16q-4 8 -10.5 17.5t-10.5 20.5q-14 36 -25 72.5t-13 76.5q-1 21 -4.5 42.5t-8.5 42.5 q-10 46 -48 77q-4 3 -8.5 4t-8.5 3q-32 -21 -66.5 -24t-70.5 9q-15 11 -25 25.5t-16.5 30.5t-11 33t-9.5 34q3 15 2 29.5t-3 29.5t-4 30.5t-2 32.5z" />
<glyph unicode="&#xe0b;" horiz-adv-x="926" d="M70 588q2 14 5 27.5t6 27.5q9 37 27 69t52 58q11 3 26 7t32 9q17 -5 37.5 -10t46.5 -13h49q15 -7 32 -13t32 -17q15 -10 28 -22.5t25 -23.5q10 0 14 4.5t6 10.5q14 34 28.5 67.5t27.5 68.5q24 68 56 130.5t67 124.5q26 48 50.5 95t50.5 95q6 11 11.5 21.5t10.5 20.5 q26 8 42 -0.5t29 -26.5q0 -21 -6 -40t-14 -37q-20 -44 -41 -86.5t-47 -83.5q-30 -45 -52 -93.5t-43 -98.5q-17 -40 -32 -80t-30 -81q-5 -14 -10 -29.5t2 -33.5q5 -2 10 -3.5t11 -2.5q8 -2 15.5 -1.5t15.5 -0.5q16 -2 28 -5t22.5 -8.5t21.5 -15t27 -24.5q17 -48 23 -100.5 t8 -107.5q2 -54 -10.5 -104t-36.5 -102q-31 -28 -63 -51t-67 -40q-12 -13 -22.5 -24.5t-21.5 -22.5q-32 -30 -68.5 -33.5t-75.5 8.5q-9 3 -17.5 10t-16.5 15q-30 29 -41 65t-14 75q-1 29 5 61q6 43 13.5 85.5t12.5 85.5q3 45 11 88t15 88q3 15 6 29.5t6 28.5 q-2 21 -11.5 37.5t-23.5 31.5q-31 4 -62.5 6.5t-64.5 6.5q-14 -8 -22.5 -19.5t-6.5 -31.5q12 -4 24.5 -7.5t24.5 -9t22.5 -15.5t18.5 -27q2 -17 3.5 -41t3.5 -51q-5 -11 -9.5 -22.5t-9.5 -21.5q-17 -17 -35 -24.5t-36.5 -10.5t-37.5 -2.5t-38 0.5q-5 3 -9.5 5t-7.5 5 q-24 35 -34.5 72t-3.5 79zM419 178q-2 -32 4 -61.5t24 -56.5q15 -5 24 -1t15 11q16 18 34.5 31.5t38.5 24.5q88 47 105 150q2 12 4.5 24t3.5 24q3 51 -2.5 99t-15.5 97q-3 14 -10.5 25.5t-23.5 18.5q-24 1 -44 -6t-38.5 -17.5t-36 -23t-35.5 -21.5q-10 -13 -12.5 -25 t-4.5 -25q-2 -14 -3.5 -27.5t-3.5 -27.5q-8 -53 -14 -106t-9 -107z" />
<glyph unicode="&#xe0c;" horiz-adv-x="1324" d="M49 487q17 38 42 72.5t54 65.5q56 58 122.5 98.5t146.5 60.5q66 17 126 4.5t120 -39.5q11 -6 21.5 -15t18.5 -19q40 -43 66.5 -92t37.5 -106l10 -54t11 -53q3 -13 8 -25t10 -26q28 -12 54.5 -27t53 -29.5t53.5 -26.5t56 -19q17 5 21.5 15t5.5 21q4 46 7.5 92t6 92.5 t1.5 92.5t-6 93q-2 16 -3.5 31.5t0.5 31.5q1 11 5.5 21t7.5 18q28 8 43.5 11.5t27 2.5t21.5 -7.5t27 -19.5q2 -4 4.5 -7.5t2.5 -8.5q6 -91 6 -180.5t-11 -180.5q-7 -50 -6.5 -99.5t6.5 -99.5q4 -32 5.5 -63t2.5 -63q1 -11 -2 -22t-5 -19q-13 -14 -26.5 -20.5t-27.5 -7.5 t-29.5 2t-31.5 8q-10 15 -20.5 31t-22.5 33q-20 26 -39 51t-39 49q-24 29 -56 44.5t-73 20.5q-2 -14 -5.5 -24.5t-2.5 -21.5q3 -29 7.5 -58t6.5 -58q1 -16 3.5 -31.5t3 -32t-1.5 -33t-11 -33.5q-10 -4 -21.5 -10t-24.5 -8q-48 -5 -95 0t-96 28q-15 13 -33 24.5t-34.5 24.5 t-30 29t-20.5 38q-16 5 -24 0.5t-15 -11.5q-10 -8 -20.5 -17t-22.5 -20q-26 -2 -53.5 -3.5t-58.5 -3.5q-23 12 -43 22l-40 20q-11 44 -9.5 84.5t17.5 79.5q22 55 32.5 112.5t20.5 115.5q2 16 2.5 31.5t-12.5 32.5q-18 0 -34 -7t-32 -16.5t-33 -18.5t-38 -12q-17 3 -38 6.5 t-42 7.5q-5 8 -8 14.5t-8 15.5zM334 625q38 -20 76 -41q14 -35 15.5 -69.5t-1.5 -69t-8 -69t-3 -68.5q15 -12 29 -23t27 -23q7 -6 11.5 -13.5t9 -15.5t10.5 -14t17 -9q20 18 39 37t40 35q22 16 46 28.5t49 27.5q2 40 -2 80t-13.5 77.5t-24 72t-33.5 62.5q-6 9 -13 18t-15 17 q-46 48 -113 44q-47 -4 -81 -26.5t-62 -57.5zM640 111.5q-1 -22.5 8 -43.5q14 -13 22.5 -20t15.5 -9.5t15.5 -2t23.5 3.5q11 46 2.5 89.5t-22.5 88.5q-26 -6 -39.5 -23.5t-21.5 -37.5q-3 -23 -4 -45.5z" />
<glyph unicode="&#xe0e;" horiz-adv-x="755" d="M-102 -376q-17 82 15 152q12 26 25 50.5t27 48.5q23 37 57 56t76 26q18 3 36.5 4t36.5 2q18 -6 35 -11.5t31 -10.5q17 2 28.5 9.5t16.5 22.5q-13 8 -25.5 14.5t-23.5 15.5q-33 24 -51 56t-20 75q-2 63 4.5 125.5t24.5 122.5q29 103 40 210q2 14 1.5 29t-14.5 26 q-13 4 -24.5 2t-23 -7t-23.5 -10t-27 -5q-21 2 -42 10.5t-34 33.5q2 7 2 11t3 6q47 54 105.5 92t126.5 61q45 16 90.5 16.5t91.5 -6.5q35 -5 63 -22.5t50 -43.5q26 -33 46 -70t31 -80q11 -46 17 -90.5t1 -92.5q-6 -52 -8.5 -103t-5.5 -104q-1 -18 0.5 -37t2.5 -44 q-3 -14 -6 -33t-5 -39q-11 -88 -21.5 -176t-18.5 -176q-5 -42 -6 -84.5t-2 -85.5q-2 -18 -1.5 -36.5t0.5 -38.5q-8 -7 -15.5 -14t-15.5 -14q-36 5 -60 23t-34 51q-10 32 -17.5 64t-16.5 64q-2 13 -6 24.5t-8 21.5q-12 5 -18.5 2t-11.5 -9q-17 -23 -27.5 -48t-21.5 -51 q-8 -15 -15 -30t-24 -25q-26 -9 -44.5 3.5t-37.5 27.5q-7 34 -12.5 67.5t-13.5 68.5q-24 -4 -36.5 -16t-25.5 -24l-38 -34t-40 -33q-9 -7 -21 -13t-23 -11q-73 -26 -119 34zM11 -285q3 0 5.5 -0.5t3.5 0.5q26 22 50.5 43.5t50.5 42.5q6 7 12.5 13t12.5 14q2 2 4.5 5.5 t4.5 7.5q1 3 1.5 6.5t2.5 11.5q-11 9 -19 13.5t-17 2.5t-22 -10.5t-35 -24.5q-6 -15 -16 -29t-19.5 -28.5t-15.5 -31t-4 -36.5zM281 295q-3 -22 7 -44q10 -6 19.5 -10.5t18.5 -11.5q10 -8 19.5 -17t20.5 -19q5 -24 9 -47t9 -46q2 -8 6.5 -13.5t16.5 -6.5q37 23 71.5 51 t62.5 63q13 26 16.5 52t3.5 52q0 27 1 54.5t1 56.5q1 35 1 70v70q0 38 -9.5 73t-23.5 70q-11 26 -26.5 48.5t-41.5 36.5q-28 8 -55 6t-54 -11q-17 -5 -35.5 -11t-34.5 -31q20 -12 31.5 -28t16.5 -34t6 -37.5t0 -39.5q-2 -27 -5.5 -54.5t-8.5 -54.5q-8 -36 -17 -72l-18 -72 q-5 -21 -8 -43zM303 -175q3 -2 7 -5t9 -8q5 9 9.5 17.5t12.5 21.5q-20 -2 -27.5 -8t-10.5 -18zM399 -91h66q12 -8 21.5 -15.5t19.5 -15.5q1 0 3 1.5t7 3.5q1 17 5 34t7.5 34.5t4.5 35t-5 35.5q-11 5 -20 3t-15 -9q-45 -41 -89 -86q-2 -3 -2.5 -8.5t-2.5 -12.5z" />
<glyph unicode="&#xe0f;" horiz-adv-x="721" d="M-80.5 -275q2.5 35 18.5 68q12 23 23 45.5t25 44.5q20 35 52 52.5t71 24.5q16 2 32.5 2.5t33.5 2.5q17 -7 32.5 -12t28.5 -10q15 4 25 10t15 20q-11 7 -22.5 14t-22.5 15q-30 21 -46.5 50.5t-17.5 67.5q-2 59 3 115.5t22 112.5q14 48 23.5 96.5t15.5 96.5q2 14 1 27 t-14 24q-12 4 -22.5 2t-21 -6.5t-22 -9.5t-25.5 -6q-18 2 -37.5 10t-31.5 32q2 5 2.5 9t2.5 7q44 50 96.5 84t115.5 55q42 15 83.5 15.5t84.5 -5.5q32 -5 57 -20.5t45 -40.5q25 -31 44 -64.5t27 -73.5q10 -42 16 -83t1 -84q-5 -48 -7.5 -95t-5.5 -94q-1 -17 0 -34.5t2 -40.5 q-2 -14 -4.5 -31t-4.5 -35q-10 -81 -19.5 -161.5t-17.5 -161.5q-4 -38 -5 -77.5t-2 -78.5q-2 -17 -2 -34v-35q-6 -6 -13 -12t-15 -13q-67 6 -85 67q-10 30 -17 59.5t-15 59.5q-2 11 -6 21.5t-7 20.5q-11 4 -16.5 1t-9.5 -9q-16 -20 -26 -43t-21 -46q-5 -14 -12 -28t-23 -24 q-12 -4 -22 -2.5t-19 6.5t-17.5 11.5t-17.5 13.5q-5 31 -10.5 61.5t-12.5 63.5q-22 -4 -33.5 -15t-22.5 -21q-17 -16 -35 -32t-36 -30q-9 -8 -20 -12.5t-22 -9.5q-32 -11 -59 -4.5t-49 35.5q-8 36 -5.5 71zM27 -262q4 0 6 -1t3 1q23 20 46.5 39t46.5 39q5 5 11 11.5t12 13.5 q4 4 6 11q3 6 7 18q-11 8 -18.5 11.5t-16 2t-20.5 -9.5t-32 -22q-5 -14 -14.5 -26.5t-18 -26t-14.5 -28.5t-4 -33zM275.5 268.5q-2.5 -19.5 5.5 -39.5q10 -5 19 -10t17 -11q9 -8 17.5 -16t19.5 -18q5 -20 8.5 -41.5t8.5 -42.5q1 -8 4.5 -12.5t14.5 -6.5q35 21 67 47t58 57 q11 25 14 48.5t3 47.5q0 26 1 51t1 50v130q2 34 -7.5 66.5t-21.5 64.5q-9 23 -23.5 43.5t-39.5 33.5q-48 15 -99 -4q-16 -5 -33 -10t-31 -28q18 -12 28.5 -26.5t15.5 -31t5.5 -34t-0.5 -35.5q-2 -25 -5 -50.5t-9 -51.5q-6 -33 -14.5 -65.5t-16.5 -65.5q-5 -20 -7.5 -39.5z M296 -161q2 -3 6 -5.5t9 -7.5q5 9 9 16.5t11 19.5q-19 -2 -26 -7t-9 -16zM385 -84h60q11 -8 19.5 -15t18.5 -14l2 1q1 1 3 1.5t4 2.5q0 15 3.5 30.5t6.5 31.5t4 32t-5 33q-10 5 -17.5 2.5t-13.5 -7.5q-21 -20 -41.5 -40t-40.5 -40q-2 -2 -2 -7.5t-1 -10.5z" />
<glyph unicode="&#xe10;" horiz-adv-x="853" d="M-29 -311q13 35 27.5 69t37.5 64q20 26 43.5 47t54.5 29q29 37 48 75t27 83q6 35 14 69t16 69q1 6 1 12t1 11q-9 14 -18 26.5t-17 23.5q-4 24 2 45t7 44q5 9 10.5 18.5t11.5 17.5q5 8 11 15.5t12 15.5l24 12t24 13q10 1 19 1.5t19 0.5q9 0 18 -0.5t17 -1.5q32 -21 47 -50 t23 -63q11 -1 12 4.5t2 10.5q3 12 5 24.5t2 24.5q1 35 -11 79t-34 81q-7 5 -15.5 11t-17.5 12q-7 4 -14 7l-14 6q-34 -5 -61 -20.5t-50 -39.5q-44 -47 -73 -99q-5 -8 -10.5 -15.5t-10.5 -15.5q-22 3 -41 7.5t-33 18.5q-8 14 -9.5 27.5t0.5 27.5q6 34 11 67.5t13 66.5 q6 27 18.5 52.5t35.5 45.5q61 43 137 39h12.5t12.5 2q59 5 105 29t75 81q20 40 41 79t42 79q5 8 8 17t5 17q18 66 33 132q5 17 5 30q1 8 0.5 15.5t-0.5 14.5q-5 11 -10 20l-10 18q8 17 20.5 21t26.5 0q44 -12 67 -53q7 -26 5.5 -51.5t-6.5 -51.5q-3 -14 -6.5 -27t-5.5 -27 q-8 -48 -25.5 -92t-40.5 -86q-12 -22 -23 -44t-23 -44q-14 -27 -30.5 -53.5t-37.5 -53.5q-14 -7 -30.5 -14t-33.5 -15q-8 -4 -16.5 -6.5t-17 -5.5t-16 -8t-13.5 -14q11 -18 28 -26t33 -20q43 -42 65 -95t33 -111q9 -44 2 -86.5t-19 -84.5q-22 -79 -51 -155t-64 -150 q-4 -8 -9 -15t-10 -13q-17 -1 -28 -0.5t-19.5 3.5t-16.5 10.5t-20 19.5q-4 22 -2.5 44t3.5 44.5t4 46.5t0 49q-10 -16 -10.5 -28.5t-4.5 -23.5q-3 -10 -5 -20.5t-5 -20.5q-5 -24 -12 -48q-6 -22 -15 -41q-5 -11 -9.5 -22t-8.5 -20q-1 -13 4.5 -20.5t13.5 -12.5 q29 -17 52 -38.5t40 -46.5q10 -2 15 1t8 9q8 11 14.5 24t20.5 23q17 2 40 6q12 -6 24 -11t22 -10q11 -10 19 -21t15.5 -22.5t15.5 -21.5t19 -17q11 17 21 39.5t18 48t13 52.5t7 51q-5 7 -10.5 15.5t-12.5 17.5q-6 9 -12 17.5t-12 16.5q-5 20 -5 38.5t1 36.5q1 56 57 70 q9 2 18.5 1.5t18.5 1.5q8 -5 16 -9.5t16 -9.5q21 -14 31.5 -34t13.5 -44q6 -50 -6 -98q-5 -18 -9.5 -36t-9.5 -36q-10 -34 -17 -67.5t-7 -63.5q-10 -29 -18.5 -52.5t-17.5 -46.5q-6 -18 -12.5 -35t-22.5 -28q-17 -10 -33.5 -7.5t-33.5 7.5q-18 10 -30 25t-24 32 q-11 17 -20 35t-23 32q-19 -7 -24.5 -21.5t-12.5 -26.5q-8 -12 -14 -24.5t-14 -25.5q-25 -8 -45.5 -1t-40.5 24q-5 11 -8.5 22.5t-8.5 22.5q-12 26 -24.5 52.5t-25.5 52.5q-15 28 -45 29q-13 -3 -18.5 -12t-10.5 -19q-18 -32 -36 -64.5t-36 -64.5q-14 -23 -31.5 -41.5 t-46.5 -26.5q-18 5 -37 10t-33 22q-13 33 0 66z" />
<glyph unicode="&#xe11;" horiz-adv-x="953" d="M46 500q-18 117 48 211q23 32 47 59q43 51 109 42q8 -1 16.5 -1.5t16.5 -2.5q26 29 50.5 57.5t61.5 50.5q11 2 24.5 3t23.5 2q35 -10 58 -36t27 -58q2 -17 1 -34t1 -34q0 -19 3 -35q0 1 6 -7q7 2 15 3t16 4q48 23 98 24.5t101 -4.5q36 -4 62.5 -23.5t45.5 -49.5 q20 -34 9 -73q-3 -14 -6.5 -26t-8.5 -26q-25 -76 -45 -152.5t-37 -154.5q-6 -29 -10 -60t-7 -61q-2 -17 -6 -33t-15 -30q-18 -18 -44 -9q-12 4 -24.5 10t-23.5 22q0 6 -0.5 15.5t1.5 19.5q16 87 35 172.5t42 170.5q9 36 18 72.5t17 72.5q5 17 4.5 34.5t-14.5 37.5 q-57 5 -105 -9t-86 -58q-15 -17 -29.5 -36.5t-23.5 -40.5q-18 -42 -36 -84.5t-37 -84.5q-23 -57 -34.5 -116.5t-16.5 -120.5q-2 -14 -2 -27.5t-4 -26.5q-2 -9 -8 -16.5t-11 -15.5q-22 -2 -39.5 4.5t-37.5 8.5q-9 11 -16.5 21.5t-14.5 19.5q0 41 6 78t17 73q14 55 31 110 t31 111q19 68 36.5 134.5t24.5 135.5q1 8 0 17t-2 17q0 1 -2 2t-4 3q-10 -3 -18 -9t-16.5 -13.5t-18.5 -15t-23 -13.5q-6 -3 -14 -2.5t-17 3t-18.5 5.5t-19.5 4l-16 -10t-13.5 -11.5t-9 -15.5t-2.5 -21q19 -7 36.5 -16t30.5 -22.5t21.5 -32t9.5 -44.5q-6 -42 -25 -81 t-65 -66q-54 -2 -98.5 17.5t-76.5 71.5z" />
<glyph unicode="&#xe12;" horiz-adv-x="1025" d="M90.5 375.5q-0.5 35.5 0.5 71.5q2 68 10 135t19 134q3 19 10.5 35.5t18.5 32.5q28 44 78 39q14 0 27.5 -3t27.5 -5q15 -14 30 -27.5t31 -27.5q6 3 11.5 5.5t10.5 5.5q4 2 7 5.5t6 7.5q30 32 66.5 42.5t79.5 2.5q28 -18 42.5 -45t23.5 -56q14 -38 22 -77t9 -80 q1 -48 0.5 -95t-8.5 -95q-3 -14 -3 -28t-1 -28q14 -17 28 -24.5t29 -12.5q28 -10 52 -25.5t42 -40.5q2 -4 6.5 -6t9.5 -5q3 4 5.5 7t3.5 7q3 57 4.5 112t7.5 110q8 83 11.5 165.5t12.5 166.5q2 14 6 26.5t7 25.5l16.5 11l13.5 9q16 1 26.5 -4.5t20.5 -15.5q13 -27 5 -59 q-8 -26 -9 -52l-2 -52q-2 -56 -6.5 -111t-10.5 -110q-8 -72 -9.5 -144.5t5.5 -145.5q2 -20 1.5 -39.5t1.5 -39.5q2 -33 4 -65t4 -65q1 -8 0.5 -15t-0.5 -16q-17 -11 -33 -9.5t-33 2.5q-23 13 -34.5 32.5t-21.5 40.5q-17 38 -33 76.5t-31 76.5q-9 22 -21.5 41.5t-30.5 34.5 q-11 9 -23 15t-26 5q-11 -4 -14.5 -12.5t-5.5 -17.5t-2 -18v-19q-2 -40 -3 -80t-8 -80q-2 -11 -1.5 -21t0.5 -21q-3 -29 -3 -58q-8 -3 -15 -6.5t-15 -3.5q-11 -2 -21 -1t-19 2q-48 24 -81 60.5t-59 78.5q-28 43 -16 95q9 40 28 74.5t45 65.5q8 9 18.5 15.5t21.5 14.5 q11 7 24.5 12.5t24.5 19.5q1 8 2.5 18t3.5 21q5 37 9.5 73t7.5 74q6 57 -3 110.5t-28 106.5q-1 4 -4.5 8t-8.5 9q-5 -3 -11 -4.5t-10 -5.5q-11 -11 -21.5 -22.5t-20.5 -22.5q-11 -13 -23 -22t-32 -11q-12 3 -25.5 7t-24.5 7q-12 6 -21 14.5t-17.5 17.5t-17 17t-20.5 13 q-4 -5 -8.5 -10t-6.5 -10q-6 -24 -13 -47.5t-11 -47.5q-12 -90 -16 -178.5t1 -178.5q2 -25 8.5 -48t22.5 -45q5 4 9 6.5t6 5.5q14 41 25.5 82t16.5 85q6 42 -3 89q-5 5 -10 9.5t-10 10.5q-5 4 -9 8t-9 8q-17 52 10 102q11 19 26 29.5t38 11.5q12 0 24 -1t21 -2 q17 -6 26.5 -16.5t15.5 -24.5q5 -16 4 -32.5t-4 -33.5q-9 -54 -17.5 -106.5t-17.5 -105.5q-3 -20 -7.5 -39.5t-9.5 -39.5q-10 -39 -20.5 -77.5t-21.5 -77.5q-4 -12 -8.5 -23t-17.5 -22q-41 -4 -73.5 12t-51.5 54q-26 51 -43.5 104.5t-16.5 113.5q0 35 -0.5 70.5zM447 86 q0 -8 3 -17t7 -17q5 -14 23 -8q10 29 10 61t6 64q1 5 -1 11t-4 16q-8 -5 -12 -7t-6 -4q-14 -23 -21 -47.5t-5 -51.5z" />
<glyph unicode="&#xe13;" horiz-adv-x="1061" d="M71.5 1478q5.5 46 24.5 91q3 20 5 35.5t4 28.5q8 9 17 13t18 5.5t19 1t19 1.5q8 17 14 33t12 30q16 11 30.5 11h28.5q17 0 33 2.5t33 8.5q8 4 17 6.5t18 4.5q23 7 38 10t29 3t31 -3t45 -10q9 -11 21 -17.5t25.5 -11.5t27.5 -10.5t26 -14.5l10 -18t7 -20q20 -63 27 -126 t-1 -129q-8 -65 -19.5 -128t-22.5 -127q-8 -42 -12.5 -82.5t-9.5 -82.5q-1 -9 -2 -18.5t-4 -17.5q-2 -8 -7 -13t-8 -10q-16 -3 -29 0.5t-24 10.5t-21.5 15.5t-22.5 15.5q-8 -5 -14.5 -10.5t-14.5 -10.5q-15 -2 -29.5 -3t-27.5 -3q-14 -10 -17 -22.5t-7 -23.5 q-14 -46 -54 -72q-64 -45 -135 -13q-8 4 -15.5 8.5t-13.5 7.5q-15 16 -22.5 32.5t-12.5 32.5q-9 56 16 101q0 24 -3.5 45t-11.5 42q-10 25 -13 51t-2 52q2 51 -3 101.5t-13 101.5q-9 49 -3.5 95zM77.5 483q-1.5 6 0.5 12q12 65 46.5 112.5t97.5 73.5q53 22 114 25 q63 3 107 -24t73 -80q22 -40 38 -81.5t26 -85.5q2 -8 4 -14.5t4 -13.5q5 -1 8 -2.5t5 -0.5q26 15 50.5 30t49.5 30q7 17 7 33.5v33.5q-1 68 -1.5 135.5t-1.5 135.5q0 15 -1 30.5t7 30.5q14 15 29.5 16t31.5 -3q21 -12 27.5 -30.5t6.5 -39.5q1 -28 -0.5 -55t-1.5 -55 q0 -56 0.5 -111t7.5 -112q29 -18 57.5 -36t47.5 -47q10 -16 20 -31.5t17 -32.5q8 -19 11.5 -38t8.5 -36q-6 -27 -14 -50.5t-20 -43.5q-16 -17 -34.5 -24.5t-38.5 -11.5q-15 -3 -25 -4.5t-21.5 -0.5t-27.5 4.5t-44 10.5q-5 7 -12 15t-15 17q-3 23 -6.5 47.5t-6.5 48.5 q-2 23 0 46t-5 47q-7 -2 -12.5 -2.5t-7.5 -2.5q-40 -43 -61.5 -92t-18.5 -109q2 -17 2 -34t-1 -34q-1 -8 -4.5 -16.5t-6.5 -19.5q-29 -4 -52 -1t-40 26q-8 46 -13.5 93t0.5 95q2 11 1.5 21.5t-1.5 21.5q-1 25 -3 49.5t-2 49.5q0 32 -7.5 61t-20.5 57q-9 20 -18.5 39 l-19.5 39q-5 8 -10.5 15.5t-11.5 14.5q-17 20 -43 20q-37 2 -66 -12q-62 -31 -90 -97q-2 -3 -0.5 -7.5t2.5 -8.5q10 -7 19 -4.5t19 1.5l30 -2t30 -3q33 -5 49 -39q-1 -7 -1.5 -15.5t-2.5 -17.5q-5 -17 -10.5 -32.5t-10.5 -31.5q-8 -24 -11.5 -47.5t-3.5 -45.5 q8 -13 17.5 -14.5t18.5 -3.5q10 -2 20.5 -4t21.5 -5q5 -2 10 -5.5t10 -5.5q17 -20 23.5 -41.5t6.5 -44.5q1 -16 0.5 -31.5t-0.5 -30.5q-1 -32 -14 -56.5t-41 -41.5q-26 -8 -51.5 -8.5t-51.5 0.5q-28 1 -46.5 15.5t-28.5 39.5q-8 16 -10.5 32.5t-3.5 33.5q-4 72 5 141.5 t29 138.5q3 11 6 23t5 24q1 2 0 3.5t-2 4.5q-16 8 -32 3.5t-33 -2.5q-16 1 -31 1t-30 1q-7 5 -12.5 10t-11.5 10q-1 8 -2.5 14zM811 297.5q2 -36.5 6 -72.5q1 -11 5.5 -21.5t10.5 -25.5q10 6 16 9t10 7q23 28 19 63q-8 60 -38 108q-3 5 -8.5 7.5t-11.5 -3.5 q-11 -35 -9 -71.5z" />
<glyph unicode="&#xe14;" horiz-adv-x="777" d="M102 399q-11 110 19 207.5t103 180.5q47 54 107.5 78.5t135.5 10.5q37 -8 70.5 -22.5t62.5 -38.5q100 -80 98 -210q-2 -40 -6 -79.5t-9 -79.5q-5 -34 -10.5 -67t-10.5 -67q-2 -11 -3.5 -21t-4.5 -21q-14 -60 -22.5 -121t-16.5 -122q-5 -42 -3 -83.5t8 -83.5 q2 -7 2.5 -14.5t2.5 -16.5q-5 -5 -9.5 -8.5t-8.5 -7.5q-44 10 -57 54q-2 8 -4 17.5t-2 17.5q-2 36 -3.5 71.5t1.5 70.5q7 73 16.5 144t25.5 142q11 49 16.5 97.5t12.5 97.5q3 20 5.5 40t4.5 40q2 22 1 43t-6 43q-20 89 -108 102q-23 3 -46 5.5t-48 5.5q-83 -26 -137 -96 q-49 -64 -71.5 -136t-25.5 -151q-3 -65 8 -128.5t28 -126.5q2 -9 5.5 -17.5t7.5 -17.5q2 -4 5 -8t8 -11q8 3 12.5 4.5t7.5 4.5q32 34 58.5 71.5t44.5 80.5q8 19 17 37t7 41q-5 3 -9.5 6.5t-9.5 6.5q-7 4 -14 7t-13 8q-40 28 -49 61.5t13 77.5q8 17 19 32t31 28q17 4 37.5 8 t40.5 8q24 -6 43 -18.5t33 -36.5q11 -76 -12 -155q-12 -44 -28 -84.5t-36 -82.5q-8 -17 -15.5 -33.5t-15.5 -33.5l-56 -64l-56 -64q-16 -7 -29 -3.5t-24 11.5q-29 23 -51.5 49.5t-36.5 61.5q-17 43 -28 87t-16 91q-2 20 -3.5 40t-3.5 40zM384 466q17 2 19 4t-5 13 q-4 -5 -7.5 -9t-6.5 -8z" />
<glyph unicode="&#xe15;" horiz-adv-x="828" d="M87 468q-2 67 8.5 131.5t29.5 129.5q12 40 31.5 76.5t42.5 71.5q20 27 44 47.5t57 29.5q33 10 63.5 7t58.5 -25q23 -16 44.5 -33t35.5 -43q3 -5 8.5 -9t14.5 -12q12 14 21 25.5t17 22.5q19 23 41.5 41t51.5 29q7 2 14 2.5t12 0.5q12 -3 15 -5q28 -19 44 -33t24.5 -29.5 t11 -36.5t2.5 -53q0 -45 -6 -89t-16 -88q-14 -60 -28.5 -120t-29.5 -120q-8 -33 -17.5 -65.5t-16.5 -65.5q-6 -30 -9 -61t-5 -62q-2 -29 -2 -58t3 -58q2 -17 2 -33.5t-6 -29.5q-10 -11 -19 -12t-19 1q-14 3 -25.5 9.5t-19.5 19.5q-8 17 -9 35.5t-1 36.5q-1 51 4 101.5 t13 101.5q11 66 27 129.5t33 127.5q19 72 32 144.5t22 146.5q2 14 2 27.5t-6 26.5q-12 10 -23 -1q-8 -8 -14.5 -16t-11.5 -18q-14 -21 -25.5 -42.5t-23.5 -42.5q-6 -10 -12.5 -18.5t-21.5 -13.5q-13 4 -28.5 9t-32.5 10q-2 -5 -3.5 -9t-0.5 -8q9 -35 8.5 -70.5t-5.5 -70.5 q-1 -6 -2.5 -12t-1.5 -12q-4 -69 -20.5 -134.5t-28.5 -131.5q-8 -48 -16.5 -94.5t-16.5 -93.5q-4 -18 -7.5 -37t-14.5 -36q-7 -3 -15.5 -6.5t-17.5 -7.5q-81 12 -131 59t-76 120q-18 50 -29.5 101t-15.5 103q-2 23 -4.5 46.5t-3.5 46.5zM180 429.5q7 -137.5 57 -275.5 q8 -22 20.5 -40.5t31.5 -32.5q5 2 7.5 3.5t7.5 3.5q4 20 7 36.5t6 33.5q16 79 31.5 157t31.5 157q1 6 0 12q-1 2 -3.5 4.5t-4.5 5.5q-8 -4 -17.5 -8.5t-17.5 -8.5l-16.5 5.5t-14.5 4.5q-20 7 -31.5 20t-18.5 32q-13 33 -8 66q2 11 4.5 21.5t4.5 21.5q11 51 40.5 84t83.5 45 q17 -3 33 -6t33 -5q1 0 6 5q-4 29 -19 53t-28 47q-22 16 -41 13t-37 -14q-13 -8 -24 -18.5t-19 -24.5q-19 -29 -35.5 -58t-27.5 -62q-49 -140 -42 -277.5z" />
<glyph unicode="&#xe16;" horiz-adv-x="811" d="M36 647q5 18 15 29.5t21 22.5q111 111 243 188q17 9 34 14.5t36 9.5q17 3 33.5 5.5t31.5 5.5q36 -2 67 -15.5t60 -30.5q29 -18 49 -42.5t36 -53.5q28 -50 41.5 -103t21.5 -108q8 -65 9.5 -129.5t1.5 -129.5q0 -21 -2 -42.5t-4 -43.5q-2 -24 -2.5 -48.5t-1.5 -49.5 q-1 -12 -3.5 -24t-17.5 -22q-13 2 -27 3.5t-25 3.5q-17 11 -22.5 23.5t-4.5 26.5q0 14 0.5 27.5t2.5 27.5q9 43 10.5 86t2.5 86q2 67 -1.5 132.5t-14.5 131.5l-8 36t-9 36q-7 24 -13 41t-14.5 31.5t-21.5 29.5t-34 35q-62 14 -124 -12q-34 -14 -71 -41.5t-71 -65.5 q26 -13 49.5 -24t44.5 -21q17 -26 21 -52.5t2 -52.5q-3 -27 -6 -54.5t-7 -55.5q-5 -33 -10 -66.5t-10 -67.5q-1 -7 0.5 -14.5t1.5 -15.5q12 -8 22 -14t21 -13q20 -14 31.5 -33t9.5 -45q-1 -20 -1 -40t-4 -40q-8 -34 -25.5 -62t-55.5 -44q-17 2 -35.5 4.5t-35.5 4.5 q-26 14 -38 33t-16 43q-4 22 -5.5 43t1.5 43q11 77 23 152.5t27 150.5q6 28 9.5 55t6.5 55q2 12 0 24.5t-13 24.5q-18 4 -34.5 1.5t-33.5 -8t-35 -12.5t-38 -10q-11 0 -24 0.5t-25 4t-23 11.5t-19 24z" />
<glyph unicode="&#xe17;" horiz-adv-x="732" d="M62 464q-11 66 1 130t44 127q12 23 33 36.5t46 18t49 -1t42 -21.5q17 -16 32 -33t23 -40q4 -8 7.5 -16.5t7.5 -18.5q6 3 10.5 5t6.5 5q9 11 16.5 22.5t16.5 21.5q26 29 62.5 41t77.5 -5q11 -5 22.5 -9.5t22.5 -9.5q44 -17 66.5 -49.5t31.5 -76.5q4 -17 5.5 -33.5 t2.5 -33.5q0 -89 -3 -179q-1 -20 -3 -40t-9 -39q-21 -63 -31.5 -128t-16.5 -132q-2 -17 -4.5 -33.5t-12.5 -33.5q-23 -8 -44 -6t-38 16q-9 12 -10.5 23t0.5 22q5 35 10.5 70t11.5 70q11 59 22.5 117.5t22.5 118.5q9 44 9.5 88.5t-1.5 89.5q-2 29 -8.5 57.5t-25.5 51.5 q-11 3 -17.5 5t-12.5 1.5t-13.5 -3.5t-20.5 -8q-27 -34 -52 -71.5t-39 -82.5q-8 -21 -15 -41t-15 -40q-12 -32 -21 -64.5t-11 -66.5q-1 -29 -5 -58.5t-9 -58.5q-4 -24 -5 -48.5t4 -48.5q1 -8 0 -15t-2 -12q-9 -11 -18.5 -12t-17.5 0q-18 2 -33 9t-29 23q-1 5 -3.5 12 t-1.5 15q1 38 3 77t4 77q2 29 3 58.5t2 58.5q1 8 -1 15.5t-10 17.5q-5 0 -11 1.5t-14 1.5q-26 2 -49 10t-45 19q-11 5 -21 13.5t-19 23.5zM157 521q0 -9 5 -19q11 16 11.5 20.5t-7.5 15.5q-9 -8 -9 -17z" />
<glyph unicode="&#x2219;" horiz-adv-x="732" d="M62 464q-11 66 1 130t44 127q12 23 33 36.5t46 18t49 -1t42 -21.5q17 -16 32 -33t23 -40q4 -8 7.5 -16.5t7.5 -18.5q6 3 10.5 5t6.5 5q9 11 16.5 22.5t16.5 21.5q26 29 62.5 41t77.5 -5q11 -5 22.5 -9.5t22.5 -9.5q44 -17 66.5 -49.5t31.5 -76.5q4 -17 5.5 -33.5 t2.5 -33.5q0 -89 -3 -179q-1 -20 -3 -40t-9 -39q-21 -63 -31.5 -128t-16.5 -132q-2 -17 -4.5 -33.5t-12.5 -33.5q-23 -8 -44 -6t-38 16q-9 12 -10.5 23t0.5 22q5 35 10.5 70t11.5 70q11 59 22.5 117.5t22.5 118.5q9 44 9.5 88.5t-1.5 89.5q-2 29 -8.5 57.5t-25.5 51.5 q-11 3 -17.5 5t-12.5 1.5t-13.5 -3.5t-20.5 -8q-27 -34 -52 -71.5t-39 -82.5q-8 -21 -15 -41t-15 -40q-12 -32 -21 -64.5t-11 -66.5q-1 -29 -5 -58.5t-9 -58.5q-4 -24 -5 -48.5t4 -48.5q1 -8 0 -15t-2 -12q-9 -11 -18.5 -12t-17.5 0q-18 2 -33 9t-29 23q-1 5 -3.5 12 t-1.5 15q1 38 3 77t4 77q2 29 3 58.5t2 58.5q1 8 -1 15.5t-10 17.5q-5 0 -11 1.5t-14 1.5q-26 2 -49 10t-45 19q-11 5 -21 13.5t-19 23.5zM157 521q0 -9 5 -19q11 16 11.5 20.5t-7.5 15.5q-9 -8 -9 -17z" />
<glyph unicode="&#xe18;" horiz-adv-x="878" d="M25 588q1 42 15.5 77.5t46.5 63.5q53 47 113.5 74t130.5 32q54 5 107.5 -1.5t106.5 -17.5q9 -2 18 -3.5t18 -2.5q56 -6 99 24q38 27 73 57.5t67 64.5q17 17 32.5 36t32.5 37q11 11 25 18t34 5q6 -5 13 -10.5t13 -10.5q8 -19 5.5 -34.5t-10.5 -35.5q-45 -49 -94 -98.5 t-106 -92.5q-32 -24 -67.5 -34.5t-76.5 -2.5q-32 7 -63.5 11t-63.5 11q-69 14 -132 1.5t-123 -46.5q-19 -10 -37.5 -20.5t-33.5 -27.5q-7 -8 -13 -16.5t-12 -18.5q-2 -2 -1.5 -8t0.5 -14q34 5 61 14t52 21q96 48 202 42q42 -3 77.5 -19t67.5 -41q37 -28 49 -70 q5 -15 10.5 -29.5t8.5 -29.5q3 -12 5 -24t0 -25q-7 -48 -13 -96.5t-20 -96.5q-5 -15 -9.5 -30t-9.5 -29q-17 -45 -65 -47q-8 -2 -15.5 -2t-15.5 -1q-14 -2 -27.5 -3.5t-27.5 -2.5q-30 -2 -56 -14t-49 -32q-17 -14 -33.5 -27t-32.5 -25q-53 -4 -95 24q-11 17 -15 35t-3 37 q1 47 0.5 92.5t4.5 92.5q4 42 4 83v83q0 8 -3.5 17t-6.5 17q-11 4 -21 3.5t-20.5 -2.5t-20.5 -3t-20 2q-18 8 -37 14.5t-36 19.5q-2 8 -4.5 17t-2.5 18zM274 550q8 -18 12.5 -30t6.5 -22.5t2 -23v-32.5q-2 -34 -4.5 -67.5t-3.5 -67.5q-2 -32 -3 -64.5t-1 -64.5q0 -5 2.5 -11 t5.5 -17q13 6 21 9t14 8q18 13 38 20t42 10q18 3 36 5.5t37 4.5q12 2 24 3.5t23 12.5q11 15 16.5 33.5t9.5 38.5q7 32 12.5 63.5t10.5 63.5q9 49 -3.5 91t-39.5 79q-23 15 -46 18.5t-46 -2.5q-20 -5 -39 -9t-38 -11q-23 -7 -46 -16t-43 -22z" />
<glyph unicode="&#xe19;" horiz-adv-x="845" d="M27 739q-2 38 7 73.5t26 67.5q16 19 35.5 27t42.5 10q15 0 31 2t36 4q12 -4 27 -8.5t31 -10.5q26 -8 43 -25t27 -40q11 -25 17.5 -50t8.5 -52q5 -80 9 -159.5t2 -160.5q0 -17 -1 -33.5t-1 -33.5q0 -5 1 -8.5t2 -7.5q7 -3 8 -2q25 20 49.5 41t51.5 44q8 13 10 29.5t4 33.5 q5 75 11 150t12 151q2 17 1 34t1 34q1 19 6 43q10 5 18.5 10.5t15.5 9.5q36 -5 56.5 -23t13.5 -54q-11 -61 -17.5 -122t-7.5 -123q-1 -12 -3 -24.5t-4 -24.5q-8 -51 1 -110q15 -6 28 -11.5t26 -10.5q82 -34 102 -122q15 -63 8 -123t-27 -119q-7 -19 -18.5 -36t-25.5 -33 q-30 -9 -60 -6t-59 15q-41 16 -56 54q-8 17 -13 34.5t-7 36.5q-2 35 -5.5 70.5t-6.5 70.5q-2 11 -4 17q-7 6 -12 4.5t-9 -6.5q-8 -8 -14.5 -16t-11.5 -18q-16 -35 -30 -71t-19 -75q-2 -18 -5 -36.5t-14 -35.5q-23 -5 -44 -1t-41 20q-7 23 -7.5 46t-0.5 46q1 82 1 163.5 v163.5v30.5t-6 27.5q-8 6 -14 4.5t-11 -4.5q-14 -9 -28 -17.5t-25 -16.5q-32 -2 -53 -1.5t-36.5 5t-27.5 13t-25 22.5q-2 9 -3.5 19t-2.5 21q-4 47 -8 92.5t-6 91.5zM144.5 621.5q1.5 -24.5 13.5 -49.5q52 89 37 193q-11 -2 -18 -4q-8 -23 -16.5 -46t-13 -46t-3 -47.5z M583 292q0 -10 2 -23q5 -34 7 -67t2 -67q1 -22 5.5 -43t18.5 -41q13 -1 18.5 4t8.5 13q12 35 19 71t5 73q-2 41 -9 80q-6 40 -41 66h-17q-7 -15 -11 -26t-6 -20.5t-2 -19.5z" />
<glyph unicode="&#xe1a;" horiz-adv-x="713" d="M49.5 519.5q-5.5 37.5 2.5 76.5q3 17 6.5 33t6.5 33q11 45 35.5 81t58.5 66q17 14 40 24q10 3 20 5t20 -2q14 -3 27.5 -9t27.5 -14q14 -7 21 -17.5t12 -24.5q8 -20 11 -41.5t3 -44.5q0 -35 -0.5 -70.5t-0.5 -72.5q0 -86 3.5 -171.5t12.5 -172.5q2 -24 7 -47l10 -46 q2 -6 5.5 -12t7.5 -11q23 -13 47.5 -18.5t53.5 -2.5q9 28 12.5 56.5t5.5 56.5q7 130 5 257.5t-7 257.5q0 8 -0.5 16.5t0.5 17.5q0 2 1.5 6t2.5 9q14 14 26 23q13 5 22.5 2t20.5 -6q17 -6 28.5 -18t16.5 -35q-5 -35 -5 -75t8 -81q-1 -45 0.5 -90.5t1.5 -91.5t-1.5 -91.5 t-8.5 -91.5q-5 -43 -8.5 -87t-7.5 -88q-2 -14 -7 -29q-9 -2 -18.5 -6t-18.5 -4q-32 2 -60 12q-44 19 -99 17q-41 -2 -80 13q-6 2 -11 5.5t-9 5.5q-12 13 -15.5 26t-7.5 27q-14 61 -23 122.5t-14 124.5q-2 15 -3 30.5t-10 31.5q-15 9 -34 11t-36 7q-24 4 -45 14t-39 32 q-15 34 -20.5 71.5zM160 539q11 -4 16.5 0t6.5 11q4 23 7 45.5t6 44.5q0 4 -4.5 7t-8.5 8q-14 -30 -21 -58t-2 -58z" />
<glyph unicode="&#xe1b;" horiz-adv-x="737" d="M81 534q-4 29 1 58t13 57q9 30 29 49.5t59 21.5q22 -3 41.5 -12t39.5 -23q23 -27 32 -60.5t11 -69.5q5 -66 2.5 -132t-8.5 -132q-4 -37 -4.5 -74t-0.5 -73q0 -6 2.5 -11.5t5.5 -13.5q22 0 43.5 0.5t42.5 -1.5q22 -2 41.5 -8.5t38.5 -8.5q13 7 16.5 15t4.5 18q1 25 2 49.5 t1 49.5q2 49 3 98t8 98q3 19 3 37q-1 101 -1 200.5t-1 200.5q-1 63 0.5 126t9.5 126q4 32 4 64.5v65.5q0 42 -0.5 83t-1.5 83q0 12 2.5 24.5t13.5 23.5q31 11 55 1t44 -32q8 -16 8.5 -29.5t-4.5 -27.5q-7 -21 -8.5 -42.5t0.5 -43.5q3 -48 -1.5 -94.5t-12.5 -94.5 q-10 -59 -11.5 -117t-1.5 -117q1 -101 2 -200.5t1 -199.5q0 -62 -2.5 -123.5t-7.5 -123.5q-3 -45 -3 -89t-1 -89v-18.5t-2 -18.5q-1 -5 -5 -10t-6 -9q-23 -6 -42 -1.5t-36 16.5q-11 8 -22 16.5t-22 17.5q-46 36 -98 14q-13 -5 -25.5 -10.5t-25.5 -10.5q-14 -6 -29.5 -8 t-30.5 3q-29 7 -45 36q-3 29 -5.5 58.5t-0.5 61.5q3 46 4.5 92t3.5 93q1 7 -1 14t-4 15q-11 9 -23 13.5t-25 8.5t-24.5 9.5t-20.5 16.5q-17 20 -20 45t-5 49z" />
<glyph unicode="&#xe1c;" horiz-adv-x="895" d="M92 567q21 31 32 66.5t21 70.5q6 22 13 42.5t15 41.5q2 5 5 9.5t7 11.5q11 4 22.5 9t23.5 10q17 -6 33.5 -12t36.5 -14q9 -11 19 -23t20 -26q25 -37 29.5 -76t-8.5 -81q-4 -16 -10 -32t-13 -30q-14 -35 -35.5 -61.5t-59.5 -40.5q-2 -1 -12 -11q-1 -35 2.5 -71t17.5 -73 q11 -26 20 -53t20 -54q2 -6 6.5 -11t12.5 -5q11 7 14 16t5 19q8 33 20 64.5t26 62.5q14 27 33.5 47.5t52.5 31.5q54 -5 95 -30.5t62 -81.5q5 -12 10.5 -25t19.5 -24q5 7 8 12.5t5 11.5q8 26 14 52.5t13 52.5q1 4 0.5 7t0.5 6q12 35 16.5 70t6 70.5t0.5 71t-1 71.5 q-1 35 -1.5 71t-0.5 71q0 24 3 47q1 8 3 14t6.5 12t12.5 12.5t20 15.5q20 -2 38.5 -10.5t31.5 -25.5q1 -6 2 -10t0 -7q-9 -41 -10.5 -80.5t-0.5 -80.5q0 -21 0.5 -41.5t2.5 -41.5q4 -57 -1.5 -111.5t-17.5 -109.5q-16 -70 -27 -140t-23 -140q-3 -17 -6.5 -34t-17.5 -32 q-23 -11 -47.5 -9t-49.5 10q-29 11 -43 41q-6 16 -11.5 31.5t-11.5 32.5q-10 26 -19 54t-19 55q-5 9 -9.5 17.5t-9.5 18.5q-5 2 -9.5 3t-10.5 3q-17 -26 -28 -54.5t-19 -57.5q-7 -24 -14.5 -48.5t-15.5 -48.5q-5 -18 -13.5 -34.5t-25.5 -29.5q-26 -2 -52 3.5t-52 16.5 q-17 8 -28 23t-20 32q-26 48 -45.5 98t-33.5 104q-5 20 -9 39.5t-8 40.5q-8 46 -15 93t-14 95z" />
<glyph unicode="&#xe1d;" horiz-adv-x="783" d="M102.5 536q-1.5 24 4.5 49q6 23 8 46t2 46q1 43 23 86q26 5 49 5.5t48 -7.5q33 -29 56.5 -65.5t28.5 -87.5q-2 -19 -4.5 -40t-4.5 -42q-2 -20 -4 -39.5t-10 -34.5q-6 -10 -14 -15.5t-17 -9t-18 -6.5t-18 -7q-2 -7 -3.5 -13t-1.5 -11q4 -44 8 -86.5t9 -85.5q1 -5 4.5 -10 t8.5 -12q5 6 8.5 9t5.5 7q8 14 14 27.5t14 27.5q27 44 71.5 60t94.5 -1q14 -5 27.5 -10t25.5 -10q11 3 13.5 9t3.5 12q6 45 11 90.5t10 92.5q2 9 0.5 18t-2.5 19q0 23 -1.5 46t0.5 46q6 78 6 157t2 157q1 48 4 95t7 95q3 38 4 71t1 66.5t-2 70t-6 81.5q5 12 15 14t21 1 q13 -1 21.5 -2.5t16 -5t14.5 -10.5t17 -18q6 -29 6.5 -60t-3.5 -61q-3 -30 -2.5 -59t4.5 -58q4 -32 -2 -67q-7 -42 -11.5 -82.5t-5.5 -82.5q-1 -63 -2.5 -126.5t-2.5 -126.5q0 -38 1.5 -76.5t1.5 -77.5q-1 -26 -2.5 -52t-4.5 -52q-4 -48 -8.5 -95t-10.5 -95q-4 -33 -8 -67 t-9 -67q-1 -6 -4 -12t-5 -12q-26 -7 -49 -5t-46 18q-11 19 -18 40t-13.5 42t-15.5 41t-25 37q-12 7 -21 3t-16 -14q-21 -28 -31.5 -59.5t-18.5 -64.5l-12 -48t-14 -47q-2 -8 -6.5 -14t-6.5 -11q-20 -10 -38 -9t-33 2q-29 12 -43 32t-21 44q-7 23 -13 47t-10 49 q-8 55 -17 109t-11 110q-2 26 -6.5 51.5t-10.5 51.5q-6 25 -7.5 49z" />
<glyph unicode="&#xe1e;" horiz-adv-x="932" d="M45 592q5 15 10.5 32.5t12.5 34.5q21 50 74 53q17 2 32.5 1.5t28.5 -0.5q37 -11 53.5 -35t22.5 -55q2 -18 3 -37t1 -38q-2 -47 -3.5 -94t-4.5 -98q8 -10 17 -21t17 -18q6 -15 3.5 -28.5t-6.5 -25.5t-6.5 -24t3.5 -25q15 17 22.5 35.5t14.5 37.5q14 35 25 70.5t24 70.5 q20 54 40 105t41 104q3 10 10 18.5t13 16.5q19 6 30 9t19.5 2t18 -5.5t24.5 -13.5q11 -19 15 -38t6 -39q6 -45 10.5 -89.5t9.5 -89.5q5 -3 9.5 -5t9.5 -5q2 4 4 4.5t2 2.5q11 32 20 64.5t17 65.5q13 52 25.5 104.5t25.5 104.5q5 20 11.5 39t31.5 33q23 5 47 0.5t44 -30.5 q-2 -9 -2.5 -19.5t-3.5 -21.5q-40 -113 -67.5 -228.5t-53.5 -232.5q-7 -27 -12 -55t-12 -54q-7 -27 -15 -54t-16 -56q-19 -19 -41 -21t-46 5q-20 18 -28.5 41t-16.5 47q-10 33 -17 68t-8 70q-2 28 -6 55.5t-15 55.5l-10 -4t-8 -7q-3 -4 -4 -9t-3 -10q-27 -83 -62 -161 t-68 -156q-8 -21 -18 -38t-30 -28q-17 -7 -33 -6t-31 6q-15 8 -24 19t-14 26q-5 17 -9 32.5t-8 32.5q-5 15 -6.5 30.5t-8.5 26.5q-17 28 -17 57t2 60q6 44 10 88t9 89q1 14 0 29.5t-9 29.5q-10 7 -20.5 10t-21.5 3.5t-22 1.5t-21 5q-12 6 -19 14t-11 18.5t-6 22.5t-5 24z " />
<glyph unicode="&#xe1f;" horiz-adv-x="733" d="M90.5 593.5q-3.5 28.5 1.5 53t20 47t40 47.5q28 11 55 6t56 -15q10 -7 20 -14.5t20 -14.5q28 -49 35 -101q5 -34 9.5 -67.5t4.5 -67.5q0 -10 0.5 -21t12.5 -20q7 6 11.5 14t9.5 16t11 15t16 12q14 2 23 3t18 0t22 -4.5t36 -10.5q13 5 14 18q2 14 3.5 27.5t1.5 27.5v191.5 t-1 190.5q0 58 -13 110q-8 27 -10.5 54.5t-2.5 55.5q0 14 -1 27.5t-2 27.5q-4 38 -2.5 76t5.5 74q12 13 24 14.5t25 -0.5q28 -4 47 -35q1 -8 2 -20t1 -24q-1 -20 -1.5 -39.5t-2.5 -39.5q-5 -33 -1 -65t9 -64q8 -54 14.5 -107t5.5 -108v-209t2 -209q1 -56 6.5 -111t10.5 -110 q2 -25 6 -49t7 -49q1 -6 -0.5 -12t-2.5 -12q-20 -10 -36 -7.5t-33 1.5q-8 5 -15 9.5t-15 8.5q-17 33 -29.5 66t-23.5 67q-8 22 -15.5 43t-21.5 38q-10 2 -14.5 -2t-6.5 -10q-11 -38 -22 -76.5t-20 -77.5q-8 -33 -13.5 -66t-11.5 -66q-29 -11 -47.5 -9t-44.5 21q-7 25 -11 52 t-4 55q-1 53 -3 104.5t-10 104.5q-3 21 -3 42.5t-2 43.5q-1 9 -4 18t-5 19q-8 2 -15 4t-14 3q-16 1 -31 1.5t-27 1.5q-18 6 -30.5 15.5t-22.5 21.5q-11 37 -14.5 65.5z" />
<glyph unicode="&#xe20;" horiz-adv-x="795" d="M61 37q2 34 3 68t5 68q5 30 18 57t43 41q16 3 31.5 1t30 -6.5t28.5 -10t28 -8.5q3 3 6 5t5 4q13 30 19 62t2 64q-3 32 -10.5 63t-26.5 60q-18 29 -26 61t-11 66q14 31 38.5 47.5t55.5 24.5q29 7 58 7t58 -2q71 -4 135 -26.5t119 -70.5q3 -5 7 -8t6 -8q3 -3 6 -8t7 -11 q10 -30 12.5 -63t-1.5 -67q-8 -66 -24 -127.5t-30 -124.5q-5 -22 -9 -43.5t-8 -42.5q-4 -19 -7 -37.5t-8 -36.5q-2 -7 -5.5 -12t-8.5 -12q-27 -2 -50 3.5t-38 33.5q3 31 7.5 61t12.5 59q17 70 33.5 139t31.5 138q4 18 5 36.5t2 37.5q2 30 -11.5 52t-38.5 37l-19 9.5t-17 9.5 q-35 7 -68.5 6.5t-67.5 -4.5q-14 -2 -23.5 -4.5t-17 -7.5t-14.5 -13t-17 -21q0 -17 5 -34.5t13 -34.5q4 -11 8 -20t9 -18q24 -59 26 -118t-10 -120q-10 -49 -29 -91.5t-42 -84.5q-8 -14 -17.5 -25.5t-20.5 -22.5t-21.5 -21t-20.5 -19q-28 -19 -56.5 -21t-60.5 6 q-11 9 -29 26q-2 13 -6 26t-4 26z" />
<glyph unicode="&#xe21;" horiz-adv-x="713" d="M73 507q4 44 13 85.5t31 80.5q6 12 14.5 23t16.5 24q17 7 33.5 14t32.5 14q15 -3 29 -4t27 -3.5t25 -7.5t23 -14q32 -69 44 -138.5t16 -140.5q2 -28 1.5 -55.5t0.5 -55.5q0 -12 0.5 -24.5t1.5 -23.5q11 -15 25.5 -24t28.5 -20q12 -9 23 -18.5t22 -17.5q13 2 16.5 8.5 t4.5 13.5q4 35 7.5 70.5t4.5 71.5q2 66 11 131.5t16 131.5q2 11 5.5 21t7.5 21q27 2 50 -2.5t43 -27.5q0 -10 1 -20t-1 -21q-14 -78 -20 -156t-16 -156q-6 -54 -9 -107.5t-2 -107.5q0 -10 -1.5 -19t-3.5 -20q-11 -6 -20.5 -11t-17.5 -10q-26 0 -43 10t-30 27 q-11 15 -21 30.5t-21 30.5q-10 14 -19.5 27.5t-20.5 26.5q-2 3 -7 4.5t-10 3.5q-12 -20 -16 -41l-8 -42q-6 -33 -19 -63t-37 -59q-35 -22 -75 -36t-87 -6q-33 16 -41 52q-14 67 -3 128.5t52 117.5q15 20 35.5 33t45.5 21q10 3 20.5 6t22.5 8q8 35 7.5 66t-5.5 62 q-1 4 -4.5 7.5t-7.5 8.5q-21 -8 -41.5 -16t-41.5 -12.5t-42.5 -2.5t-43.5 15q-16 20 -20.5 42.5t-2.5 45.5zM186 551q-2 -10 2 -23q24 15 14 41q-14 -8 -16 -18zM198.5 101q-10.5 -34 0.5 -74h20q17 17 25.5 38.5t13.5 43.5l10 42t-2 42q-17 3 -24.5 -6t-13.5 -19 q-19 -33 -29.5 -67z" />
<glyph unicode="&#xe22;" horiz-adv-x="862" d="M30.5 519.5q-5.5 40.5 5.5 83.5q14 49 33 96t42 92q19 38 40.5 73.5t41.5 72.5q14 25 31 46t35 42q30 37 82 35q39 -2 71.5 -16t58.5 -46q8 -14 10.5 -30.5t1.5 -31.5q-6 -20 -11 -38l-10 -36q-17 -55 -43 -105t-59 -98q-8 -13 -20 -24t-33 -19q-11 -1 -26.5 -2t-32.5 -2 q-6 -1 -12 1t-11 4q-11 13 -13.5 18t-3.5 20q2 1 2 2t2 3q43 17 69 50t46 73q14 27 26.5 55t23.5 57q5 14 8.5 29.5t5.5 30.5q1 6 -1 12t-4 14q-8 -1 -13.5 -1t-10.5 -2q-17 -7 -29 -19t-21 -26q-35 -53 -69 -105.5t-57 -112.5q-8 -22 -18 -43t-18 -43q-6 -17 -12 -34.5 t-11 -35.5q-11 -42 4.5 -81.5t50.5 -64.5q16 -11 33 -16t37 -2l24 3q18 3 28.5 4t20 -0.5t21.5 -5.5t32 -12q11 -11 11 -22.5t-8 -22.5q-14 -20 -29 -39.5t-29 -39.5q-26 -34 -40.5 -72.5t-25.5 -79.5q-4 -16 -4.5 -33t1.5 -34q2 -34 17 -61.5t46 -45.5q8 -5 16 -9t16 -9 q33 5 55 23.5t39 41.5q24 33 42 68.5t32 73.5t23.5 76.5t23.5 76.5q13 36 20.5 74t12.5 76q8 53 17 106t14 107q2 22 3.5 43.5t4.5 42.5l6 64t10 64q7 29 17 56t21 55q2 5 6 10l8 10q3 3 7.5 5t9.5 4q20 -4 36.5 -14.5t27.5 -30.5q-4 -8 -7 -16t-8 -16q-17 -31 -25 -63 t-12 -67q-9 -109 -20 -217t-32 -217q-6 -31 -13.5 -60.5t-15.5 -59.5q-6 -22 -12 -44.5t-13 -44.5q-18 -58 -42.5 -112t-62.5 -102q-44 -56 -112 -72q-62 -14 -110 7t-89 63q-29 31 -38.5 69t-9.5 80q1 51 16 97t35 91q7 14 13 28.5t14 28.5q-7 5 -11.5 9t-9.5 6 q-9 4 -18 5.5t-18 4.5q-78 25 -124 97q-24 36 -29.5 76.5z" />
<glyph unicode="&#xe23;" horiz-adv-x="816" d="M94 704q1 39 10 79q6 28 21.5 47.5t44.5 30.5q44 -5 85.5 -18.5t80.5 -37.5q23 -14 45.5 -26t44.5 -26q45 0 82.5 16t71.5 42q43 33 79 73t70 82q29 36 58 71.5t57 70.5q23 7 41.5 -0.5t34.5 -12.5q11 -11 13.5 -21t-1.5 -21q-2 -2 -3.5 -5t-3.5 -5q-33 -29 -60.5 -61.5 t-53.5 -67.5q-46 -65 -100 -117q-38 -38 -81 -66q-86 -53 -189 -35q-37 8 -71 21.5t-65 34.5q-17 12 -33 22.5t-34 14.5q-14 -2 -20.5 -8.5t-10.5 -15.5q-23 -57 -7 -113q15 -13 32 -15.5t34 -6.5q24 -5 48 -9.5t47 -11.5q38 -11 66.5 -33t46.5 -52.5t25 -66.5t1 -73 t-17.5 -72t-26.5 -69q-12 -26 -25 -52.5t-26 -52.5q-12 -26 -26.5 -51.5t-22.5 -54.5q-2 -8 -6 -13.5t-7 -10.5q-44 -37 -88 -46.5t-96 11.5q1 -1 -1.5 0t-4.5 3q-25 20 -41 45t-17 59q-2 42 5 80.5t36 70.5q13 15 29 22q9 5 19.5 8.5t23.5 8.5q31 -5 63.5 -11t67.5 -13 q7 2 11 8.5t7 14.5q15 34 24.5 57t15.5 42t10 38.5t7 45.5q-2 8 -4.5 16.5t-6.5 16.5q-42 85 -135 95q-14 1 -28 1t-28 2q-28 2 -54 11.5t-47 35.5q-18 35 -17 74zM189 92q2 -7 3 -12q13 -9 25 -12.5t27 1.5q5 6 11.5 13.5t13.5 15.5q1 12 2.5 24.5t1.5 24.5t-3 23.5 t-12 23.5l-18 -6t-22 -8q-8 -20 -15.5 -38t-13.5 -37q-2 -6 0 -13z" />
<glyph unicode="&#xe24;" horiz-adv-x="814" d="M39 643q5 18 15 29.5t21 22.5q55 55 115.5 102t127.5 85q17 10 34 15.5t36 9.5q17 3 33 5.5t32 4.5q36 -2 67 -15t60 -31t49 -42.5t36 -53.5q28 -49 41.5 -102t21.5 -109q8 -65 9.5 -129t1.5 -129q0 -5 -1 -34t-3 -72.5t-4.5 -98t-5 -111t-5.5 -111t-5 -98t-3.5 -72.5 t-1.5 -34q-2 -24 -2.5 -48.5t-2.5 -49.5q-1 -13 -3.5 -24.5t-17.5 -21.5q-13 2 -26.5 3.5t-25.5 3.5q-16 11 -22 23t-5 27q1 14 1 27.5t3 27.5q2 11 4.5 45t5.5 83t6 108.5t6 121.5t5.5 121.5t4 109t3 83.5t1.5 45q1 66 -2 132t-15 132q-3 18 -7 36t-9 36q-7 24 -13 41 t-15 31t-22 29t-33 35q-61 15 -124 -11q-34 -14 -71 -41.5t-71 -65.5q26 -13 49.5 -24t44.5 -22q17 -26 20.5 -52t1.5 -52q-4 -53 -12 -110q-5 -34 -10 -67t-10 -67q-1 -8 0 -15t2 -15q11 -8 21.5 -14t21.5 -14q20 -14 31.5 -33t9.5 -44q-1 -20 -1 -40.5t-4 -39.5 q-8 -35 -25.5 -62.5t-55.5 -44.5q-17 2 -35.5 5t-35.5 5q-26 14 -37.5 33t-16.5 43q-5 21 -6 42t2 44q11 76 23 151.5t27 151.5q10 54 15 110q2 12 0.5 24.5t-12.5 24.5q-18 4 -35 1.5t-34 -8.5t-35 -13t-38 -10q-11 1 -23.5 1.5t-25 4t-23.5 11.5t-18 24z" />
<glyph unicode="&#xe25;" horiz-adv-x="862" d="M43.5 552.5q7.5 63.5 27.5 125.5q16 50 45 91.5t67 76.5q30 29 64.5 52.5t71.5 43.5q105 56 227 26q76 -20 145 -65q29 -19 50 -44.5t31 -60.5q16 -53 22 -114q9 -73 8 -145t-1 -145q0 -35 -5 -70l-10 -70q-8 -45 -18.5 -88t-13.5 -88q0 -21 -22 -30q-14 -4 -28 0t-27 9 q-15 11 -21 25t-9 29q-11 55 -32.5 106t-44.5 102q-16 34 -39.5 61.5t-51.5 53.5q-2 2 -5.5 2t-7.5 1l-6 -6t-5 -7q-28 -78 -28 -138q15 -5 28 -8.5t26 -8.5q20 -7 35.5 -18.5t25.5 -31.5q14 -30 10 -59q-7 -41 -21.5 -78t-50.5 -66q-17 -11 -37.5 -11t-40.5 2 q-34 14 -53 38.5t-27 58.5q-5 18 -9.5 35.5t-9.5 35.5q-8 32 -2 61q13 66 29.5 129.5t35.5 127.5q3 12 7.5 23.5t8.5 22.5q22 8 41 4.5t38 -11.5q32 -16 60.5 -36.5t52.5 -47.5q23 -26 42.5 -53t36.5 -57q6 -11 11 -22t18 -16q2 2 5 3.5t4 3.5q7 24 11 48t4 49v132.5 t-1 132.5q0 14 -2 27.5t-4 27.5q-7 32 -18 63t-36 63q-20 22 -50.5 37t-67.5 28q-54 -5 -105.5 -22t-96.5 -52q-27 -21 -53.5 -42t-48.5 -48q-35 -45 -56.5 -94.5t-31.5 -105.5q-5 -32 -8.5 -64.5t-0.5 -64.5q0 -5 -1 -9l-2 -8q-3 -2 -5.5 -4.5t-5.5 -2.5q-12 1 -24 1.5 t-25 0.5q-3 7 -5.5 12.5t-4.5 11.5q-17 65 -9.5 128.5zM415 171q-3 -23 29 -33q14 15 14 32.5t-3 36.5q-4 2 -8 4.5t-10 6.5q-13 -11 -17 -23t-5 -24z" />
<glyph unicode="&#xe26;" horiz-adv-x="820" d="M42 113q0 38 2.5 74.5t6.5 74.5q5 34 19.5 63t47.5 45q18 3 34.5 1t32.5 -7t31.5 -10.5t31.5 -9.5q4 3 7 5t4 5q14 32 21 67t2 71q-3 35 -11 69.5t-28 65.5q-20 32 -29.5 67.5t-11.5 73.5q16 34 42.5 51.5t60.5 26.5q32 8 63.5 8t63.5 -2q78 -5 148.5 -29t130.5 -78 l8.5 -8.5t7.5 -8.5q3 -4 6 -9t8 -12q10 -34 13 -70t-2 -74q-8 -72 -26 -140t-33 -137q-5 -24 -9.5 -47.5t-8.5 -47.5q-1 -5 -7.5 -35t-16 -76t-21.5 -103.5t-24 -117t-24 -117t-22 -103.5t-16.5 -76.5t-7.5 -35.5q-1 -6 -6 -11.5t-9 -13.5q-29 -4 -54 3t-42 38q3 32 8 65 t14 65q5 19 15 63.5t23 104.5t28.5 131.5t31.5 145.5t31 145t28 131.5t22.5 104.5t13.5 63t5 39.5t1 41.5q3 32 -11.5 56.5t-43.5 41.5q-10 5 -19.5 10t-18.5 10q-39 8 -76 7.5t-75 -4.5q-15 -2 -25 -5t-18.5 -8t-16.5 -14t-19 -24q1 -20 6.5 -38.5t13.5 -37.5 q5 -11 9.5 -21t8.5 -20q28 -65 30 -130.5t-12 -132.5q-10 -54 -31 -100.5t-46 -92.5q-8 -15 -19 -28t-23 -24q-11 -14 -23.5 -24.5t-22.5 -20.5q-32 -20 -63 -22.5t-66 6.5q-6 5 -14 12.5t-19 15.5q-2 15 -6 29t-4 29z" />
<glyph unicode="&#xe27;" horiz-adv-x="708" d="M67 752q3 11 6.5 22.5t5.5 23.5q2 11 2 21.5t1 21.5q3 23 13 45t25 41t34.5 33t41.5 21q50 15 100.5 16t101.5 -5q25 -3 46.5 -13.5t38.5 -31.5l26 -34l26 -34q7 -9 12 -18t10 -19q18 -31 27.5 -49.5t15.5 -35t10 -37t9 -56.5q5 -35 11.5 -69.5t7.5 -70.5 q1 -59 0.5 -116.5t-8.5 -116.5q-17 -128 -104 -218q-29 -32 -74 -41q-17 -3 -34 -5.5t-35 -4.5q-14 5 -28.5 9.5t-28.5 9.5q-50 19 -73 70q-11 21 -17.5 43t-6.5 46q0 15 -0.5 30.5t-0.5 30.5q-2 62 24 107t89 70q43 5 87.5 4.5t86.5 -19.5q12 2 15.5 8.5t5.5 14.5 q0 2 0.5 3t0.5 3q-3 69 -7.5 137.5t-20.5 137.5q-12 51 -36.5 95t-53.5 86q-13 17 -31.5 24t-40.5 12q-17 -3 -35 -6t-38 -7q-11 -8 -23.5 -16t-26.5 -17q-11 -19 -20.5 -37.5t-20.5 -37.5q-1 -13 -2.5 -25t-0.5 -24t4 -23.5t6 -24.5q-23 -13 -45 -13t-43 2q-13 7 -22 15 t-13 22zM335 217.5q-1 -50.5 19 -98.5q14 -15 30 -22.5t38 3.5q14 14 26.5 31.5t20.5 37.5q2 3 1.5 6t0.5 6q-11 21 -16 32q5 23 8.5 44.5t3 41.5t-6.5 39.5t-19 38.5q-18 5 -29 9q-25 -8 -40.5 -25t-27.5 -39q-8 -54 -9 -104.5z" />
<glyph unicode="&#xe28;" horiz-adv-x="1021" d="M77 419q6 51 19.5 99.5t33.5 96.5q17 38 36.5 75t50.5 69q8 5 16.5 10t18.5 10q21 12 43 17t46 4q53 0 104.5 -4t103.5 -13q14 -2 27.5 -4.5t27.5 4.5q12 13 15.5 29.5t7.5 33.5q15 68 31 135t32 135q20 85 48.5 165.5t56.5 163.5q4 11 9 22.5t10 22.5q11 23 21 44.5 t21 44.5q5 8 10.5 14.5t10.5 13.5q25 -3 39.5 -5.5t23 -7.5t13 -13t9.5 -23q-5 -7 -9.5 -14t-9.5 -15q-27 -41 -46 -84t-29 -91q-3 -18 -9 -35t-14 -34q-17 -39 -29 -78.5t-13 -82.5q-2 -20 -6.5 -39t-9.5 -39q-17 -69 -34 -137.5t-34 -137.5q-8 -27 -15.5 -53t-14.5 -52 q2 -43 8.5 -84.5t2.5 -83.5q-5 -68 -6 -135t-11 -135q-2 -12 -1.5 -24.5t-0.5 -25.5q-1 -26 -1.5 -51.5t-2.5 -51.5q-17 -14 -33.5 -13.5t-38.5 5.5q-3 2 -7.5 7t-6.5 8q-11 29 -11.5 56t0.5 53q1 32 4.5 64.5t5.5 64.5q1 11 1.5 21.5t1.5 21.5q2 42 2.5 83.5t1.5 83.5 q1 15 0 29.5t-1 25.5q-5 10 -13 17t-15.5 13.5t-13.5 14.5t-6 21l9 18t10 18q-2 14 -8.5 22.5t-16.5 13.5q-18 10 -47.5 15t-60.5 5t-60.5 -4.5t-47.5 -14.5q-10 -5 -19 -11.5t-19 -12.5q-42 -64 -66 -134.5t-38 -145.5q-17 -95 3 -190q3 -11 5.5 -23t12.5 -21q10 2 13 8 t5 14q7 39 13.5 78.5t12.5 79.5q2 9 2.5 18.5t2.5 17.5q4 17 4.5 34t-4.5 34q-4 15 -3.5 30.5t5.5 33.5q13 9 21 22t15.5 27.5t16.5 29t23 25.5q29 8 54.5 4.5t50.5 -5.5q30 -19 33 -52q5 -37 3.5 -73t-12.5 -73q-5 -19 -15 -34t-28 -29q-11 -2 -24.5 -4.5t-31.5 -5.5 q-1 -2 -3.5 -5t-4.5 -7q-9 -15 -13 -31t-6 -33q-4 -23 -7.5 -46t-7.5 -46q-7 -39 -18.5 -77.5t-23.5 -78.5l-27 -21q-8 0 -14 -0.5t-12 0.5q-11 2 -21 3t-18 3q-22 11 -34 26.5t-20 34.5q-35 80 -49 162t-6 169z" />
<glyph unicode="&#xe29;" horiz-adv-x="1392" d="M74 762q1 50 12 97.5t34 92.5q11 23 28 41t45 31q45 3 88.5 -0.5t85.5 -24.5q16 -21 19.5 -43t-1.5 -46q-10 -48 -8 -95t7 -95q2 -22 3 -43t-4 -43q-2 -9 -3 -18t-1 -18q-1 -87 -1.5 -172.5t-0.5 -172.5q0 -13 1 -25.5t13 -23.5q6 1 13 1.5t15 0.5q23 2 46 3.5t46 -0.5 q53 -3 100 -28q11 -5 22.5 -10t22.5 -10q4 6 7.5 9.5t3.5 7.5q-1 38 -2 77t-3 77q0 6 -2 11.5t-4 10.5q-15 10 -30.5 12.5t-30.5 2.5q-51 0 -90 20.5t-71 62.5q-24 45 -20.5 90t23.5 91q16 36 42 51.5t66 13.5q17 -1 34 -2.5t34 -2.5q8 -1 15.5 1t16.5 11q6 14 5 32t-4 36 q-8 43 -8.5 86t-3.5 86q0 11 2.5 21.5t14.5 20.5q11 0 23 1.5t24 1t23.5 -5t22.5 -16.5q-8 -46 -7 -90t7 -89q2 -14 2 -28t2 -28q3 -49 6.5 -98t7.5 -98q0 -5 2 -8.5t4 -7.5q7 -4 13 -3t11 4q22 16 42.5 31.5t41.5 31.5q42 32 83 64t82 65q28 22 54.5 45.5t52.5 47.5 q28 26 48 56t37 64q4 8 9.5 15t10.5 15q19 -2 34.5 -7.5t29.5 -12.5q11 -13 10.5 -25t-5.5 -24q-10 -23 -22 -44t-28 -40q-29 -36 -62.5 -68t-69.5 -61q-59 -45 -116.5 -91t-115.5 -92q-27 -21 -54.5 -41t-54.5 -40q-8 -5 -15 -11t-15 -12q-2 -11 -4 -21t-2 -21 q0 -31 1 -61.5t3 -61.5q2 -35 3.5 -68.5t2.5 -67.5q1 -9 -0.5 -17.5t-3.5 -16.5q-11 -6 -17.5 -9t-13 -4t-15.5 -0.5t-25 2.5q-40 21 -77 52t-82 54q-12 2 -26 5t-27 5q-20 -5 -33.5 -15t-25.5 -18q-8 -8 -13 -17.5t-9.5 -19t-9.5 -18.5t-14 -16q-15 2 -30.5 2.5t-32.5 1.5 q-5 5 -9.5 9t-9.5 8q-11 35 -14.5 69t-3.5 68v166.5t-1 166.5v45.5t-1 42.5q-7 11 -14.5 12.5t-15.5 0.5q-22 -2 -43 -4t-41 -4q-5 2 -8 2t-5 2q-44 14 -61.5 46.5t-16.5 73.5zM184 720q-1 -2 1.5 -4.5l4.5 -4.5q5 2 5 1q2 4 4 7.5t3 7.5l-4 2l-4 2q-7 -5 -10 -11z M241.5 825.5q1.5 -6.5 6.5 -15.5q11 12 14.5 26t0.5 37q-10 -12 -15 -20t-6.5 -14.5t0 -13zM563 454q4 -8 7.5 -12t8.5 -7t14.5 -5t26.5 -6q8 3 17 7t19 9q6 20 6.5 40t-8.5 46q-14 -14 -23 -25.5t-20 -19.5t-23.5 -14.5t-24.5 -12.5z" />
<glyph unicode="&#xe2a;" horiz-adv-x="914" d="M48 767q29 48 64.5 92.5t83.5 80.5q77 60 175 72q33 4 66.5 8.5t67.5 4.5q50 0 82.5 24t51.5 67q18 42 36 82.5t33 82.5q11 29 16 59.5t13 60.5q13 45 14 91t6 92q1 11 -1 22t-4 28q28 -8 41.5 -22.5t21.5 -33.5q15 -34 18 -71q5 -55 -1 -105q-5 -35 -9.5 -70t-15.5 -69 q-11 -37 -25.5 -72.5t-31.5 -69.5q-17 -35 -37 -68.5t-54 -59.5q-14 -5 -29.5 -10t-34.5 -12q5 -7 7 -12.5t6 -9.5q46 -43 68 -102q5 -14 11 -26t11 -24q18 -43 32 -86.5t21 -90.5q5 -37 11.5 -73t13.5 -72q4 -20 9.5 -40t10.5 -43l-12.5 -62.5t-11.5 -66.5 q-8 -54 -19.5 -106t-17.5 -106q-2 -19 -6.5 -36t-7.5 -32q-13 -14 -26.5 -18.5t-30.5 -8.5q-7 5 -15 10t-15 10q-5 39 -9 76t-10 73q-18 104 -54 199t-102 179q-20 24 -42 45q-7 6 -14.5 10t-13.5 8q-15 0 -23.5 -7.5t-13.5 -15.5q-27 -46 -50 -92.5t-40 -96.5q-2 -4 -1 -9 t2 -11q5 -2 11 -5t11 -2q14 2 28 -1t31 -12q17 -20 35 -40t35 -39q16 -63 0 -113t-61 -90q-10 -2 -17 -4.5t-15 -4.5t-14.5 -3.5t-11.5 -3.5q-29 2 -47 15t-31 34q-32 59 -47.5 120t-4.5 128q5 34 15 66.5t26 62.5q7 14 12.5 28t12.5 28q17 36 38 69t47 60q17 9 31 9.5 t28 -1.5q23 -4 44 -12.5t40 -23.5q57 -46 96 -104q25 -36 44 -73.5t34 -79.5q7 -20 17.5 -39t19.5 -39q1 -1 2 -1t3 -1q2 2 5.5 2.5t3.5 2.5q15 55 17 109.5t-7 111.5q-8 54 -17.5 106t-23.5 105q-11 45 -28.5 85.5t-36.5 80.5q-15 34 -39.5 54t-62.5 25q-5 0 -9.5 1 t-11.5 3q-59 -11 -112 -35t-99 -66q-24 -23 -48 -44t-49 -43q-8 -7 -15.5 -13.5t-14.5 -12.5q-38 -10 -65 -3q-11 8 -13 16t-1 20z" />
<glyph unicode="&#xe2b;" horiz-adv-x="795" d="M53 492q4 47 17 89t35 83q22 42 55 69.5t82 37.5q8 -2 17 -3t17 -4q76 -24 82 -104q1 -17 1 -33.5t-2 -33.5q-5 -44 -10.5 -86.5t-12.5 -85.5q-7 -48 -15 -94t-17 -94q-3 -17 -4.5 -28t-1.5 -21.5t1.5 -21.5t4.5 -27q4 1 9 1t8 2q8 6 14.5 12t11.5 13q34 41 64 83.5 t58 87.5q5 9 9 19t8 21q2 5 2 20q-10 -2 -19.5 -4t-21.5 -5l-25.5 8.5l-25.5 8.5q-12 14 -12.5 28t2.5 28q8 30 16 59.5t18 58.5q8 24 17 47l18 46q14 39 47 73q15 10 32 15t36 1q40 -16 51 -58q7 -26 13 -52t14 -56q4 -4 9 -10.5t12 -12.5q16 -14 24 -31.5t12 -38.5 q5 -31 4.5 -61t-2.5 -61q-2 -28 -5.5 -55.5t-6.5 -55.5q-10 -85 -19.5 -168t-18.5 -168q-2 -23 -1.5 -46.5t0.5 -46.5h-87q0 34 -0.5 68t1.5 67q3 47 8 92.5t10 92.5q2 8 2 12q5 48 9 95t8 95q0 8 -1 15.5t-3 18.5q-6 -6 -10 -9t-6 -6q-23 -66 -62 -123t-81 -114 q-15 -21 -34 -38.5t-39 -36.5q-8 -8 -16.5 -14t-17.5 -11q-22 -11 -44 -15t-45 5l-18 6t-19 6q-5 5 -9 11t-9 12q11 84 21 165.5t21 165.5q0 1 -1 2t-1 3q-1 2 -2 3t-3 5q-13 -4 -26 -7.5t-29 -8.5q-13 3 -27.5 6.5t-29.5 7.5q-37 12 -51 50q-3 9 -5.5 17.5t-4.5 16.5z M148 512q1 -4 1 -9q1 -7 4 -12t13 -7q5 5 13 9t13 12q23 29 36 63t24 69q4 11 3 23t-12 23q-4 -2 -8.5 -3t-7.5 -3q-36 -31 -51.5 -71.5t-26.5 -84.5q-2 -5 -1 -9zM523 576q16 2 21.5 9.5t6.5 18.5q0 16 -17 12q-5 -8 -10 -16.5t-1 -23.5z" />
<glyph unicode="&#xe2c;" horiz-adv-x="862" d="M56 561.5q-3 34.5 7 70.5q12 42 41 74q12 14 30 22q11 5 23 8t23 8l34 -6l34 -6q21 -5 36 -17.5t21 -32.5q11 -34 20 -68t9 -71q0 -31 3 -61t6 -61q1 -6 3 -11.5t3 -9.5q13 -8 23.5 -5.5t21.5 4.5q41 4 69 -13.5t46 -53.5q9 -19 17.5 -39t16.5 -40q8 -17 14.5 -33.5 t14.5 -33.5q2 -3 7 -4t12 -4q1 17 2 33t2 31v71t-1 71q0 32 1 64.5t6 64.5q2 18 2 36.5t1 37.5q1 37 1.5 73.5t1.5 74.5v17.5t-11 17.5q-3 -2 -7 -3.5t-7 -4.5q-5 -4 -9 -8l-9 -9q-28 -32 -63 -49.5t-82 -19.5q-20 5 -43 9.5t-44 19.5q-16 20 -24.5 42t-11.5 44.5t-1.5 45 t4.5 45.5q11 68 47 119.5t88 93.5q11 9 24.5 13t27.5 5q28 2 55.5 2t54.5 -7q9 -2 19 -2t22 -2q18 34 28.5 66.5t22.5 64.5q12 34 23.5 67t24.5 66q6 15 10.5 31.5t9.5 33t12 32t19 29.5h50q7 -8 13.5 -15.5t11.5 -13.5q2 -27 -4.5 -49t-14.5 -44q-12 -32 -25 -63t-24 -63 q-20 -59 -39 -117t-39 -117q-5 -14 -9 -29.5t-9 -29.5q8 -91 6 -179t-4 -179q0 -17 -2.5 -33.5t-3.5 -33.5q-2 -34 -2 -67.5t-1 -68.5q-1 -54 -0.5 -107.5t-1.5 -107.5q-2 -53 -5 -104.5t-7 -104.5q-1 -11 -3.5 -21l-4.5 -18q-18 -12 -34.5 -10.5t-31.5 3.5q-23 11 -35 28.5 t-20 37.5q-14 35 -26.5 69.5t-24.5 69.5q-13 38 -27.5 75t-30.5 74q-2 5 -6.5 9t-9.5 10l-8 -8t-5 -7q-5 -17 -9.5 -33t-6.5 -33q-7 -43 -12.5 -85.5t-11.5 -84.5q-2 -10 -5.5 -18t-12.5 -13l-6 -2t-6 -1q-13 4 -26 7.5t-27 6.5q-4 7 -7.5 12t-5.5 11q-8 33 -14.5 65.5 t-6.5 67.5q0 48 -3 95.5t-6 95.5q-1 12 -2.5 24t-13.5 23q-11 -4 -22.5 -7.5t-24.5 -6.5q-16 4 -31.5 8t-28.5 7q-21 16 -33 34t-18 40q-11 34 -14 68.5zM183 655q19 -12 32 11q-2 3 -5 7t-6 9q-14 -8 -16.5 -11.5t-4.5 -15.5zM389.5 815.5q-0.5 -22.5 4.5 -45.5 q2 -10 6 -17.5t14 -11.5q14 -2 23.5 5t18.5 16q42 42 72.5 90.5t54.5 102.5q3 7 4 14.5t3 15.5q-5 20 -9.5 38.5t-21.5 32.5q-39 6 -68 -22q-79 -70 -97 -173q-4 -23 -4.5 -45.5z" />
<glyph unicode="&#xe2d;" horiz-adv-x="945" d="M-54 260q2 21 4 43.5t4 52.5q8 32 21 69.5t33 75.5q2 3 3 5.5t2 5.5q5 32 18.5 61.5t27.5 59.5q23 51 49.5 98.5t67.5 87.5q4 4 7 9.5t6 10.5q20 35 47 65t56 57q34 31 74.5 47.5t87.5 17.5q25 0 49.5 -1.5t48.5 -8.5q70 -18 118 -75q45 -55 81.5 -115.5t70.5 -123.5 q5 -9 9 -19t6 -20q10 -42 18.5 -81.5t16.5 -81.5q6 -32 6.5 -64.5t-4.5 -64.5q-5 -40 -11 -79.5t-18 -78.5q-10 -34 -17.5 -68.5t-21.5 -67.5q-10 -23 -21.5 -44t-32.5 -38q-62 -19 -119 9q-20 9 -38.5 18.5t-38.5 19.5q-18 9 -35.5 18.5t-35.5 17.5q-32 14 -62.5 12.5 t-58.5 -25.5q-40 -33 -96 -48q-15 4 -30.5 7.5t-28.5 6.5q-17 12 -23 26t-11 30q-18 61 -10 128q3 23 6.5 45.5t7.5 45.5q11 60 22 118t22 118q2 14 2.5 28t2.5 29q17 30 29.5 63t30.5 63q14 5 27.5 8t26.5 7q10 -4 19 -6.5t19 -6.5q8 -12 17 -24t17 -23q10 -38 14.5 -74.5 t-0.5 -74.5q-1 -9 1 -18.5t2 -18.5q0 -17 -0.5 -33.5t-0.5 -33.5q-8 -8 -15 -13.5t-14 -10.5q-13 -2 -25 0.5t-23.5 7t-22.5 8.5t-23 6q-60 -174 -42 -307q3 -2 6.5 -5t8.5 -7l22 10l22 10q37 19 83 17q52 -2 100.5 -14t94.5 -38q16 -9 32.5 -16.5t33.5 -15.5q2 -1 5.5 -0.5 t6.5 -0.5q12 5 17.5 13.5t8.5 19.5q20 57 38 114t25 117q1 11 3.5 21.5t2.5 21.5q2 27 4.5 55t-1.5 56q-8 63 -19.5 124t-37.5 120q-3 8 -5.5 15t-6.5 14q-29 48 -60 93.5t-67 88.5q-20 26 -47.5 32t-57.5 0q-11 -2 -21 -6t-20 -9q-83 -42 -139 -109q-38 -45 -72 -92 t-64 -98q-54 -88 -91 -182t-60 -194q-2 -8 -6 -15.5t-8 -14.5q-18 -8 -29 -1.5t-21 18.5z" />
<glyph unicode="&#xe2e;" horiz-adv-x="920" d="M45 822q2 9 3 19t3 20t4 18l3 12q13 32 32.5 56.5t42 44t48 35t52.5 29.5q32 17 67.5 22.5t70.5 7.5q20 1 40.5 1h44.5q22 11 39 31.5t34 42.5q40 52 77 104.5t77 103.5q35 45 62 92.5t53 97.5q8 15 14.5 30.5t22.5 25.5q11 5 21 3t20 -6q11 -5 17 -7.5t11 -6t9.5 -8.5 t12.5 -14q-2 -5 -4 -10.5t-6 -10.5q-6 -9 -13 -17.5t-12 -17.5q-29 -57 -63.5 -109.5t-69.5 -104.5q-23 -33 -47 -65l-48 -64q-17 -23 -34.5 -44t-34.5 -43q-6 -8 -10.5 -18t-9.5 -21q8 -8 14 -14.5t13 -12.5q17 -14 34 -26.5t34 -26.5q32 -29 57.5 -63.5t39.5 -76.5 q20 -57 36 -115t20 -118q2 -13 1.5 -25t0.5 -24q0 -17 -1.5 -34t1.5 -34q11 -54 6.5 -107t-16.5 -107q-10 -45 -21 -89.5t-22 -89.5q-5 -24 -17 -43.5t-27 -36.5q-24 -27 -58 -33q-29 -5 -56.5 -5t-53 6.5t-48.5 21t-43 39.5q-9 12 -19 23.5t-29 16.5q-7 -5 -14 -9.5 t-13 -11.5q-8 -10 -14.5 -20t-14.5 -20q-32 -40 -82 -32q-15 2 -29 6t-27 6q-30 26 -43 57t-16 66q-2 25 -1.5 49.5t2.5 48.5q8 73 18 144.5t33 140.5q11 33 24.5 63t39.5 53q46 19 92 9q11 -2 21.5 -3t20.5 -4q12 -4 23.5 -8t22.5 -11q31 -18 34 -55q4 -55 -5.5 -107 t-33.5 -102q-7 -13 -16.5 -23.5t-23.5 -18.5q-31 -12 -62 -6.5t-65 17.5q-2 -3 -4.5 -6t-4.5 -8q-15 -47 -17 -94t5 -95q2 -5 3.5 -8.5t3.5 -8.5q1 -2 2 -3l3 -3q4 2 8.5 2.5t7.5 2.5q9 8 16.5 17.5t15.5 17.5q29 18 59.5 20t61.5 -1q37 -3 60 -29q12 -12 23.5 -24.5 t23.5 -24.5q11 -11 23.5 -20.5t35.5 -11.5q6 4 12.5 7.5t11.5 9.5q8 13 16.5 26t12.5 27q18 60 35 118.5t25 120.5q2 15 3 30.5t1 31.5q0 38 -1 76.5t-1 77.5q1 29 -3 58t-11 58q-8 33 -18 65.5t-20 64.5q-8 27 -21.5 51t-30.5 47q-5 8 -11 15t-13 13l-28 24t-25 26 q-5 5 -12.5 8t-15.5 8q-8 -6 -15.5 -11t-14.5 -11q-26 -26 -52.5 -52t-52.5 -52q-34 -34 -79 -59q-107 -63 -225 -19q-6 2 -9 3.5t-7 4.5t-9 9t-14 17zM157.5 853q0.5 -7 8.5 -16q5 1 10.5 0.5t10.5 2.5q17 8 33 16t32 19q39 26 71 58.5t64 65.5q2 2 3.5 5.5t3.5 8.5 q-6 9 -12.5 10t-11.5 -1q-24 -8 -47 -14.5t-46 -17.5q-80 -37 -117 -122q-3 -8 -2.5 -15zM340 457.5q0 -11.5 2 -22t7 -22.5t14 -33q16 17 24 35.5t11 38t3.5 38.5t2.5 38q3 25 -17 39h-23q-4 -5 -6.5 -10l-4.5 -9q0 -7 4 -11.5t8.5 -8t7 -8t1.5 -11.5q-3 -2 -6.5 -5 t-7.5 -6q-11 -7 -18 -13q-2 -18 -2 -29.5z" />
<glyph unicode="&#xe2f;" horiz-adv-x="1222" d="M66 631q0 48 21 90.5t56.5 73.5t82.5 49t100 18h30v-61h-30q-41 0 -77.5 -14t-63.5 -37t-42.5 -54t-15.5 -65q0 -152 205 -152q214 0 479 133q254 128 254 219v31h61v-862h-61v713q-108 -114 -336 -205q-228 -90 -397 -90q-266 0 -266 213z" />
<glyph unicode="&#xe30;" horiz-adv-x="638" d="M55 688q2 8 4.5 17t5.5 20q12 9 22 17.5t21 17.5q16 3 30 5.5t26 4.5q42 -10 63 -45q2 -16 3 -33.5t3 -35.5q4 1 7.5 1t5.5 3q11 13 21.5 26.5t21.5 27.5q17 20 34.5 38.5t40.5 32.5q15 10 26 22.5t23 26.5q13 15 28.5 26.5t38.5 16.5q7 -4 13.5 -7t14.5 -7q1 -5 1.5 -9 t-0.5 -8q0 -5 -3 -9q-19 -20 -36.5 -40.5t-37.5 -38.5q-26 -23 -49 -47t-43 -50q-14 -17 -30.5 -32.5t-36.5 -29.5q-7 -2 -15 -4.5t-16 -4.5q-29 -8 -58 -7t-58 15q-9 5 -18.5 8t-17.5 8q-45 22 -35 74zM111 158q-3 52 43 84q9 6 18.5 10.5t17.5 9.5q14 5 26.5 4.5 t24.5 -3.5q25 -5 37 -24q19 -32 19 -71q0 -15 -5.5 -27.5t-13.5 -20.5q-13 -11 -26.5 -13.5t-20.5 -12.5q2 -7 6.5 -9t9.5 -1l22 4t21 6q27 11 50.5 26t43.5 37q32 37 72 64t81 53q18 11 37 10.5t41 -16.5q-5 -11 -8 -18.5t-6 -15.5q-18 -5 -29 -8t-20 -7.5t-18.5 -11.5 t-24.5 -19q-13 -10 -25.5 -20.5t-22.5 -22.5q-27 -29 -58.5 -50t-65.5 -39q-42 -20 -84.5 -24t-86.5 12q-19 11 -27 28t-17 33q-7 12 -9 25.5t-2 27.5z" />
<glyph unicode="&#xe31;" d="M-459 1081q3 8 6 17t7 18q5 11 10 18q17 20 36.5 27.5t41.5 10.5q17 -1 34 -2.5t34 -1.5q34 -1 59.5 -14t40.5 -45q2 -5 6 -10l8 -10q5 3 9.5 5t7.5 5q17 20 34.5 40t33.5 40q35 42 68 84t67 84q27 34 51.5 69t33.5 79q5 27 34 37q10 -1 20.5 -1.5t21 -3.5t20 -10 t17.5 -19q-6 -23 -15.5 -45t-22.5 -44q-44 -72 -96.5 -135t-104.5 -129q-22 -28 -44.5 -55t-45.5 -54q-22 -26 -48.5 -47.5t-49.5 -45.5q-27 -27 -58.5 -39.5t-69.5 -8.5q-8 1 -15 -0.5t-15 -0.5q-11 2 -22 3.5t-20 6.5q-52 29 -72 78t-2 99zM-356 1054q8 -15 12 -30t20 -22 q13 1 20 8.5t11 17.5q7 14 10 28.5t-5 29.5q-2 4 -5 7t-5 6q-21 13 -44 -6q-3 -8 -6.5 -18.5t-7.5 -20.5z" />
<glyph unicode="&#xe32;" horiz-adv-x="679" d="M76 824q2 16 5 32t6 33q12 20 24.5 40t28.5 37t37.5 30t53.5 19q22 -1 52.5 -1.5t62.5 -2.5q36 -2 78 -21.5t78 -48.5q23 -31 35 -65.5t18 -71.5q4 -26 7 -52t8 -52q11 -59 11 -117t-4 -117q-5 -87 -9 -172.5t0 -173.5q1 -15 0 -30.5t-3 -31.5q-2 -7 -5.5 -13.5 t-6.5 -13.5q-17 -8 -33 -9.5t-30 -3.5q-14 4 -19 11.5t-7 16.5q-2 8 -4 15t-3 15q-4 44 -7 86.5t-5 86.5q-2 48 -2 95.5t-6 95.5q-2 9 -2 18.5v18.5q-1 37 -3 74t-9 74q-7 36 -9.5 73t-7.5 74q-3 29 -8.5 58.5t-18.5 61.5q-15 9 -29.5 17.5t-26.5 15.5h-65 q-11 -7 -21.5 -13.5t-18.5 -11.5q-25 -28 -29 -54q0 -9 5.5 -15.5t11 -12.5t8.5 -13t0 -18q-12 -17 -30.5 -20.5t-38.5 -1.5q-26 3 -41.5 19.5t-27.5 39.5z" />
<glyph unicode="&#xe33;" horiz-adv-x="530" d="M-375 1155q1 2 1.5 7.5t3.5 10.5q28 50 68.5 82.5t97.5 43.5q32 7 64 8t65 -9q37 -10 62 -32.5t41 -56.5q13 -29 16 -57.5t-2 -57.5q-4 -29 -14 -54.5t-22 -50.5q-12 -23 -32 -34t-43 -15q-14 -2 -28 -1.5t-28 0.5q-49 1 -94 16t-88 35q-24 11 -39.5 27.5t-18.5 33.5 q-3 31 -5 54.5t-5 49.5zM-268 1163q-2 -26 4 -46t15.5 -37t21.5 -33t22 -32q7 -3 13.5 -6.5t13.5 -5.5q8 -4 17 -6.5t15 -4.5q29 -2 47 11.5t27 37.5q11 30 16.5 62t0.5 65q-4 22 -15 40t-28 33q-18 16 -40 13q-47 -8 -81.5 -30t-48.5 -61zM79 622q28 50 63 86.5t83 59.5 q42 22 83 19t82 -27q8 -5 14.5 -10.5t14.5 -10.5q25 -37 35.5 -76.5t11.5 -82.5q2 -46 1.5 -92t-8.5 -93q-5 -29 -4.5 -58.5t5.5 -58.5q7 -34 5 -67.5t-17 -66.5q-23 -12 -44.5 -12t-44.5 19q-1 9 -3 19t-2 21q-2 84 0 167q2 28 4.5 55.5t4.5 55.5q2 29 3 59t1 59 q0 23 -6 45.5t-14 44.5q-5 15 -15 26.5t-28 18.5q-21 -5 -37 -15.5t-29.5 -24.5t-26 -29.5t-25.5 -29.5v-44q-16 -17 -33 -18t-40 11q-11 17 -34 50z" />
<glyph unicode="&#xe34;" d="M-873 946q-8 38 3.5 68.5t34.5 56.5q18 21 38.5 39.5t42.5 35.5q28 20 57 35.5t65 20.5q40 6 78 17.5t78 19.5q17 4 36 5t37 2q25 0 48.5 -6t47.5 -15q45 -19 83 -47t74 -60q8 -7 14 -16l12 -18q3 -5 4.5 -11t3.5 -12q-12 -25 -32.5 -28.5t-43.5 -3.5 q-11 -10 -23.5 -17.5t-29.5 -8.5q-63 -7 -125 -16.5t-127 -7.5q-40 1 -79 -7l-78 -16q-22 -5 -42.5 -11t-41.5 -12q-23 -6 -46 -7.5t-46 -0.5q-11 1 -21.5 5.5t-21.5 15.5zM-736 1029q3 -4 5.5 -7.5t5.5 -8.5q10 2 18.5 3t18.5 3q63 11 124.5 20t125.5 4q11 -1 21.5 0 t21.5 3q35 5 70 8.5t70 -0.5q6 -1 12 0.5t12 2.5q-6 20 -8.5 26.5t-9.5 13.5q-21 20 -45.5 35.5t-50.5 29.5q-54 25 -114 6q-20 -6 -41 -10.5t-42 -9.5q-12 -3 -24 -5.5t-24 -5.5q-20 -5 -38 -13.5t-34 -21.5q-20 -17 -40 -33t-34 -40z" />
<glyph unicode="&#xe35;" d="M-919 916q1 5 1 8t2 6q33 60 78 111q8 9 15.5 18.5t14.5 19.5q59 77 144 114q81 35 165 46.5t172 -9.5q17 -4 35 -10t35 -14q14 -5 27 -12.5t25 -12.5q12 2 16 8t5 14q2 29 4.5 58.5t0.5 58.5q-3 53 1.5 104.5t7.5 104.5q1 16 5.5 30t18.5 23q18 2 28 2.5t17.5 -3 t14.5 -11t19 -22.5q-2 -17 -2.5 -35t-4.5 -36q-9 -38 -8 -76.5t4 -76.5q1 -10 2 -19t0 -18q-5 -57 -9 -113.5t-8 -113.5q-2 -19 -3 -36.5t-3 -34.5q-11 -15 -24 -21t-26.5 -7.5t-27.5 -1t-28 -1.5q-56 23 -113.5 25t-116.5 -2q-118 -8 -232 -30q-33 -7 -66 -16.5t-62 -26.5 q-46 -26 -108 -16q-5 7 -8.5 13t-7.5 11zM-725.5 1027.5q0.5 -4.5 0.5 -7.5l4.5 -3t3.5 -1q49 7 97 13.5t97 12.5q12 2 24.5 3t24.5 1q55 0 110 -1t110 -1q5 0 9 1.5t9 2.5q5 17 1 31.5t-12 29.5q-22 21 -47.5 36.5t-56.5 21.5q-68 14 -135 3q-41 -7 -80 -20.5t-75 -34.5 q-26 -14 -47.5 -34t-35.5 -46q-2 -3 -1.5 -7.5z" />
<glyph unicode="&#xe36;" d="M-865 958v20q15 20 35.5 28.5t40.5 16.5q18 20 34 38.5t33 37.5q58 66 129 113q42 28 88 35t95 1q17 -2 30.5 -11.5t24.5 -23.5q8 -11 15.5 -23t26.5 -20q9 13 16.5 23t15.5 20q56 69 147 55q12 -2 24 -5t25 -6q30 -23 52.5 -52t33.5 -68q2 -27 -3 -54.5t-16 -53.5 q-12 -14 -26 -20t-30 -7q-29 -2 -58 -0.5t-57 12.5q-11 4 -21.5 6.5t-22.5 5.5q-30 -12 -62 -13t-64 2q-92 9 -178 -9t-170 -52q-34 -14 -66.5 -14.5t-66.5 3.5q-7 1 -13 6t-12 9zM-620 1070q10 -8 17.5 -8.5t15.5 1.5q41 9 81 13t82 2q9 0 12 2q5 2 9.5 5.5t9.5 5.5 q-7 19 -13 31t-14 22t-19.5 19t-30.5 21q-20 -5 -36.5 -12.5t-33 -20.5t-36 -32.5t-44.5 -48.5zM-204 1126q1 -5 2.5 -10t3.5 -10q14 -14 31.5 -20.5t35.5 -9.5q15 -3 23 8q6 15 5 32t-4 35q-8 14 -15.5 28t-26.5 19q-12 -7 -19 -12t-12.5 -11.5t-10.5 -17.5t-13 -31z" />
<glyph unicode="&#xe37;" d="M-928 1026q15 61 45 111t89 80q29 14 61 22t64 11q32 2 64.5 2t64.5 -8q5 -2 9 -1t6 1q8 5 9.5 11t0.5 12q-4 38 -5 74.5t-9 73.5q-4 17 -6.5 33.5t-2.5 33.5q-1 9 2.5 17.5t5.5 16.5q20 8 37.5 7.5t31.5 -1.5q16 -8 24 -19.5t12.5 -24t9 -24t14.5 -18.5q6 -37 11 -71 t11 -70q6 0 11.5 -0.5t11.5 -0.5q12 26 7 50t-9 48q-3 23 -9 45.5t-20 42.5q4 11 7.5 20.5t6.5 17.5q20 8 38 7.5t32 -2.5q26 -13 49.5 -24.5t51.5 -25.5q7 -8 10 -23.5t4 -32.5q3 -28 5.5 -55.5t4.5 -55.5q2 -33 9 -64t19 -62q8 -20 10 -42t-4 -46q-5 -8 -12 -18t-15 -23 v-45q-4 -5 -6.5 -9.5t-6.5 -6.5q-13 -11 -26.5 -21t-27.5 -21q-11 -4 -21.5 -3.5t-20.5 3.5t-19.5 7.5t-19.5 8.5q-28 -9 -55 -11t-50 8q-13 7 -19.5 16t-10.5 19.5t-6.5 20.5t-7.5 19q-14 11 -29.5 14t-30.5 1q-22 -2 -43.5 -1.5t-42.5 -0.5q-23 0 -45.5 -5.5t-44.5 -11.5 q-21 -6 -41 -14.5t-40 -16.5q-67 -27 -130 -5q-16 15 -13 30zM-822.5 1084.5q-3.5 -10.5 4.5 -21.5q2 -1 3 -2t2 -1q11 3 21.5 5t19.5 7q56 25 118 34q25 5 49.5 4.5t49.5 -2.5q8 -2 17 0t15 15q-14 36 -41.5 51t-63.5 17q-23 1 -45.5 -3.5t-45.5 -10.5q-32 -8 -55 -27.5 t-40 -46.5q-5 -8 -8.5 -18.5z" />
<glyph unicode="&#xe38;" d="M-390 -266q0 6 1 12q13 63 44 111t94 73q5 2 10.5 4t7.5 3h79q35 -16 48 -42t20 -55q10 -41 12 -82t2 -83q-2 -111 0 -222q0 -13 -0.5 -25t-7.5 -26q-8 -3 -16 -7t-16 -6t-15.5 -3t-16.5 -3q-7 8 -13 14.5t-14 14.5q0 29 0.5 58t-0.5 58v50t-1 49q0 9 -2.5 18.5 t-14.5 17.5q-13 1 -27 -4t-29 -7q-16 -2 -30.5 -5t-30.5 -4q-38 -1 -60 19.5t-24 59.5v12zM-292 -236v-42q5 -4 8.5 -7t8.5 -6q28 3 48 16t28 42q5 17 4 34t-17 30q-13 -2 -17.5 -11t-11.5 -14q-6 -4 -12 -8.5t-13 -9.5q-6 -6 -12.5 -12t-13.5 -12z" />
<glyph unicode="&#xe39;" d="M-657 -250q2 18 7.5 36t11.5 36q14 24 34.5 32t45.5 8q29 0 54 -8.5t47 -34.5q16 -34 20 -69.5t-1 -73.5q-5 -29 -8.5 -56.5t-7.5 -56.5q-4 -17 -4 -39q0 -4 2.5 -8.5t5.5 -9.5q7 1 13 1t12 2q20 4 39 4.5t39 -4.5q14 -5 28.5 -7t29.5 -4q3 -1 7 -0.5t7 1.5q10 11 12 23 t3 24q5 63 16 124.5t16 124.5q2 16 6.5 30.5t12.5 28.5q15 10 29 6.5t27 -6.5q4 -6 6.5 -9.5t5.5 -8.5q-14 -102 -26 -202t-29 -200q-11 -8 -17.5 -11.5t-13.5 -4t-16 2.5t-25 9q-7 8 -14.5 15t-14.5 14q-27 14 -54 14.5t-53 -10.5l-24 -6q-15 -3 -25.5 -4t-20.5 0.5 t-21 6.5t-26 13q-15 15 -17.5 32.5t-0.5 36.5q2 20 5.5 39t7.5 39q2 14 4 28.5t-2 30.5q-14 2 -27.5 2.5t-26.5 2.5q-12 2 -23 6.5t-20 6.5q-30 19 -36 53zM-565 -236q6 5 7 8t0 14q-2 -5 -6 -9.5t-1 -12.5z" />
<glyph unicode="&#xe3a;" d="M-177 -146q5 9 9.5 18l8.5 17q6 1 9.5 2t6.5 -1q17 -5 35.5 -10.5t39.5 -13.5q2 -7 4 -12.5t4 -10.5q-3 -14 -12 -20t-21 -12q-24 2 -45.5 11t-38.5 32z" />
<glyph unicode="&#xe3b;" />
<glyph unicode="&#xe3c;" />
<glyph unicode="&#xe3d;" />
<glyph unicode="&#xe3e;" />
<glyph unicode="&#xe3f;" horiz-adv-x="1251" d="M94 0v1161h438v131h62v-131h201q54 0 101.5 -18.5t83.5 -49.5t56.5 -73t20.5 -88q0 -115 -103 -182q203 -41 203 -220v-299q0 -48 -21.5 -90t-57.5 -73.5t-83.5 -49.5t-99.5 -18h-301v-139h-62v139h-438zM158 61h374v639h-374v-639zM158 762h374v338h-374v-338zM594 61 h301q40 0 76 13t64 36t44.5 54t16.5 67v299q0 170 -277 170h-24h-201v-639zM594 762h203q40 1 76 15t63 36.5t43 53t16 65.5q0 34 -16.5 65t-44 53.5t-63.5 36t-76 13.5h-201v-338z" />
<glyph unicode="&#xe40;" horiz-adv-x="252" d="M65 762q2 5 2.5 11.5t2.5 12.5q2 5 4.5 9.5t4.5 9.5q7 2 13.5 5t12.5 5q15 -4 25.5 -9.5t17.5 -18.5q7 -29 12 -59.5t7 -62.5q1 -19 3.5 -37.5t4.5 -36.5q4 -25 4 -49t-2 -49q0 -11 0.5 -22.5t1.5 -22.5q1 -13 1.5 -25t1.5 -24q1 -5 0.5 -10.5t0.5 -10.5q7 -18 6.5 -36.5 t1.5 -36.5q1 -19 1.5 -37.5t5.5 -36.5q2 -7 2 -14v-14q0 -3 -0.5 -6t-1.5 -8q-5 -5 -10.5 -11t-12.5 -13v-40v-8.5t0.5 -13.5t0.5 -13.5v-8.5q-8 -16 -31 -20q-7 2 -16 3.5t-15 3.5q-9 7 -12.5 13t-4.5 14q0 11 -0.5 20.5t-0.5 20.5q1 0 1 -1l2 -32q0 8 -0.5 16t-1.5 16 l-1 1q-2 18 -4 36.5t-4 36.5l-2 12t-1 12q2 46 -4 90.5t-6 90.5v8q-5 24 -4.5 48.5t-1.5 49.5q-2 31 -1.5 61.5t5.5 61.5q1 6 2 12.5t-1 12.5q-4 23 -5.5 46.5t-3.5 47.5z" />
<glyph unicode="&#xe41;" horiz-adv-x="432" d="M94 0v862h64v-862h-64zM274 0v862h64v-862h-64z" />
<glyph unicode="&#xe42;" horiz-adv-x="740" d="M62 1108q0 49 24 97q43 40 111 43h32q81 0 140 -22q40 -15 78 -15q68 0 136 51q57 44 106 95t92 109q19 26 37.5 51.5t37.5 51.5l33 45l5 2q11 5 22 9.5t24 9.5q17 -4 34.5 -8t31.5 -8q9 -9 10.5 -17t-1.5 -21l-3 -3q-3 -4 -7 -8.5t-8 -7.5q-21 -15 -36 -33.5t-29 -38.5 q-128 -190 -293 -280q-8 -5 -16.5 -10.5t-17.5 -12.5q-5 -4 -10 -7.5t-11 -8.5l-5 -4l1 -7q2 -10 3 -19t3 -18q3 -20 6 -39.5t5 -39.5q2 -18 2.5 -36.5t-1.5 -35.5q-2 -32 -5 -68t-8 -72q-7 -47 -15.5 -98.5t-20.5 -113.5q-2 -8 -3 -15t-3 -14q-5 -23 -9 -46.5t1 -47.5l1 -4 l3 -2q26 -22 41.5 -36t23.5 -27q8 -14 11 -33t8 -52v-3q2 -14 5.5 -28.5t6.5 -28.5q2 -6 3 -12.5t3 -12.5q0 -38 -11.5 -72.5t-24.5 -66.5q-28 -73 -105 -74q-11 0 -22 0.5t-21 1.5h-14q-25 11 -39.5 30t-22.5 51q-33 131 0 264q8 26 15 60t10 71q5 47 15 80q23 65 34 131 t20 139q4 37 3.5 74t-2.5 73q0 11 -0.5 21.5t-0.5 20.5q-1 8 -4.5 15t-8.5 13q-2 2 -3 4t-3 4l-3 6l-8 -1q-29 -3 -49 -15.5t-39 -26.5q-3 -3 -11 -9q-2 -2 -5 -4t-5 -4q-12 -9 -24.5 -18t-25.5 -17q-65 -39 -132 -39q-13 0 -25.5 1t-25.5 4q-8 6 -16 14t-17 16 q-8 54 -8 103zM188 1107l42 -21l5 2q17 7 33 17.5t20 33.5l1 4l-2 4q-15 26 -38 26q-16 0 -35 -12l-3 -2l-2 -3q-2 -7 -6 -16t-11 -24z" />
<glyph unicode="&#xe43;" horiz-adv-x="588" d="M-483 1141q-6 63 10 133q16 69 50 130.5t81 103.5q13 11 25 22.5t24 22.5q26 24 52.5 48.5t55.5 44.5l3 3q24 17 48.5 34t50.5 32q84 50 176 53h4q12 0 24.5 0.5t25.5 0.5h22q108 -3 189 -57q76 -51 131 -148q51 -90 48 -196q-2 -59 -9 -125.5t-30 -135.5l-70 -210 t-69 -208l-3 -9q-14 -42 -26 -80.5t-23 -74.5q-4 -14 -6 -31.5t14 -36.5l1 -2l2 -1q14 -8 29 -9.5t29 -2.5q18 0 35 -3q48 -10 64 -50q53 -123 -23 -213q-18 -21 -36 -45q-68 -91 -169 -91q-11 0 -22.5 1t-23.5 3q-6 2 -12.5 3t-12.5 3q-3 0 -9 2q-39 38 -44 101q0 8 -1 12 q-1 18 -1.5 36.5t1.5 35.5l3 24q6 53 13.5 105.5t24.5 103.5q13 38 25 77t24 77q26 81 52 164t55 165q5 13 9.5 26t9.5 26q17 48 33 96.5t24 99.5q8 50 14.5 97t5.5 95q-2 117 -71 203q-71 85 -179 113l-2 1h-2q-57 -7 -110 -29t-107 -62q-32 -23 -65 -51t-68 -60 q-96 -90 -139 -210q-6 -14 -10.5 -28.5t-9.5 -28.5l-4 -12t-4 -13l-1 -2v-2q1 -5 1 -9.5t1 -9.5q3 -38 9 -76.5t27 -72.5v-2l1 -1q23 -22 53 -22q13 0 24 4q22 7 42.5 14.5t39.5 18.5q29 18 56.5 37.5t55.5 39.5q5 4 10.5 8t11.5 8q11 8 21.5 16t20.5 16q4 3 7 5.5t7 5.5 q18 3 32 3q22 0 33 -11q7 -25 -11 -46q-11 -12 -24 -24.5t-30 -26.5q-9 -7 -18 -13t-17 -12l-18 -12t-17 -13q-107 -85 -236 -85q-14 0 -29.5 1t-30.5 3q-4 2 -7.5 2.5t-7.5 2.5q-29 11 -55 24t-46 45q-26 48 -32 111zM314 276q-2 -8 0.5 -16t7.5 -20l7 -14l11 11 q10 9 15.5 15.5t7 13.5t-0.5 16t-6 24l-6 20l-14 -16q-11 -12 -15.5 -19t-6.5 -15z" />
<glyph unicode="&#xe44;" horiz-adv-x="555" d="M-265 1663.5q-1 56.5 7 101.5q13 10 21.5 16t18.5 7.5t24.5 0t40.5 -4.5q8 -6 10.5 -14.5t2.5 -18.5q0 -15 -1 -30l-2 -30q-2 -58 7.5 -113t26.5 -110q5 -17 9 -33t8 -33q15 -67 41.5 -129t54.5 -125q13 -28 28 -53t29 -49q17 -14 31.5 -26t34.5 -14q17 4 26.5 16 t17.5 25q26 42 47.5 85.5t41.5 88.5q10 21 20 41.5t33 36.5q23 4 48 4.5t50 -22.5q0 -8 1.5 -17t0.5 -18q-14 -106 -29 -210t-26 -210q-9 -91 -24.5 -180t-26.5 -180q-1 -8 -1 -14.5v-11.5q11 -17 28 -14q11 2 22.5 4.5t26.5 6.5q17 -4 36.5 -8t39.5 -9l15 -22.5t11 -15.5 l11 -55t10 -49q6 -32 8 -64.5t-13 -68.5q-24 -25 -50 -46t-55.5 -35t-62.5 -18.5t-72 3.5q-29 19 -44 44.5t-23 55.5q-12 47 -14 93.5t1 94.5q8 128 29 255t37 255q2 23 5 45.5t-5 45.5q-11 2 -20 -1t-17 -8l-16 -10t-17 -7q-14 1 -27 2t-26 0q-30 -2 -54 6t-44 22 t-36.5 33.5t-29.5 41.5q-36 58 -67 118t-57 123q-30 75 -53 150.5t-39 153.5q-8 45 -9 101.5z" />
<glyph unicode="&#xe45;" horiz-adv-x="973" d="M107 859q3 26 7.5 51.5t9.5 50.5q20 32 39.5 64t45 60t60.5 48.5t86 29.5q35 0 83.5 -0.5t100.5 -4.5q28 -2 60 -11t64 -24t64 -34.5t61 -42.5q36 -49 55.5 -104.5t27.5 -114.5q8 -42 13 -83.5t13 -82.5q17 -94 16.5 -187.5t-5.5 -187.5q-8 -139 -15 -276t1 -277 q1 -26 -1 -50t-6 -50q-1 -11 -6.5 -21.5t-9.5 -21.5q-27 -13 -53.5 -15.5t-48.5 -6.5q-22 7 -30 19.5t-12 26.5q-5 12 -7 24l-4 24q-6 69 -11.5 137.5t-9.5 137.5q-2 78 -2.5 154t-9.5 154q-3 14 -2.5 29.5t0.5 29.5q-2 59 -5 118t-14 119q-11 57 -15.5 116t-11.5 119 q-5 47 -14 93.5t-30 98.5q-24 14 -47 27.5t-42 25.5h-104q-18 -12 -35 -22t-31 -18q-19 -22 -30.5 -43.5t-14.5 -43.5q1 -15 9.5 -25t17 -19.5t14 -21t-0.5 -28.5q-19 -28 -49 -33.5t-63 -1.5q-41 3 -65.5 29.5t-42.5 64.5z" />
<glyph unicode="&#xe46;" horiz-adv-x="628" d="M62 555q-6 52 1.5 101.5t30.5 96.5q5 11 12.5 20.5t15.5 17.5q24 26 61 24q24 -1 47.5 2.5t46.5 10.5q69 20 130 -21q14 -9 28 -18.5t28 -19.5q26 -45 39.5 -90.5t15.5 -95.5v-14.5t1 -13.5q9 -52 10.5 -104t0.5 -106q-1 -15 -1 -30t-1 -30q-1 -7 -2 -13.5t-1 -13.5 q3 -52 8.5 -105.5t0.5 -105.5q-4 -32 -3 -63t3.5 -61.5t5.5 -61t4 -62.5q1 -23 6 -46.5t10 -46.5q5 -20 5 -40t-11 -40q-14 -9 -27 -11t-25 1.5t-23.5 10.5t-23.5 15q-28 58 -33 125q-3 38 -8 76t-10 76.5t-8.5 77.5t-2.5 78q1 38 4 76.5t5.5 76.5t2.5 76.5t-4 77.5 q-3 26 -2 51t0 51q-1 39 -1.5 78t-4.5 78q-1 17 -6.5 35t-10.5 35q-8 23 -24 26q-34 -5 -65 -8.5t-63 -7.5q-14 -8 -21.5 -19t-5.5 -28q3 -3 5 -6.5t4 -4.5q12 -7 24 -12t25 -12q35 -21 47 -53t11 -69q0 -20 -9 -36t-26 -27q-10 -6 -20 -11.5t-17 -10.5h-83q-45 17 -68 49 t-28 75z" />
<glyph unicode="&#xe47;" d="M-976 1193q-1 27 2 53t7 52q2 20 10 37l16 34q15 29 34 50q20 20 42.5 35.5t51.5 23.5q34 9 67 13t68 4q22 0 43 -0.5t41 -4.5q40 7 79 12.5t77 12.5t73.5 17.5t68.5 29.5q17 11 32.5 22t31.5 24q19 16 36 34t36 37q4 11 6.5 20.5t5.5 19.5q9 33 27 63q10 16 19.5 32 t20.5 32q5 8 10.5 17t12.5 17q13 17 25.5 34t25.5 34q16 22 38 44q8 8 16 16.5t14 19.5q-2 5 -4.5 10t-4.5 10q5 3 10.5 6t10.5 5q17 -3 32.5 -8t26.5 -23l-2 -8t-1 -7q-31 -28 -58 -57.5t-50 -63.5q-8 -11 -16 -21.5t-16 -21.5q-20 -28 -35.5 -57t-32.5 -58q-5 -9 -6.5 -19 t-1.5 -21v-19t-5 -21q-8 -5 -17.5 -12t-17.5 -15t-15 -16.5t-15 -16.5q-26 -21 -53 -40.5t-56 -35.5q-7 -3 -13.5 -6.5t-14.5 -5.5q-29 -10 -58.5 -18.5t-59.5 -13.5q-5 0 -9 -1l-8 -2q-12 -5 -24.5 -8t-25.5 -1q-7 0 -10 -1q-26 -6 -51 -6.5t-51 0.5q-19 0 -37.5 0.5 t-37.5 0.5q-22 1 -43 -1t-42 -8q-14 -4 -28 -7.5t-28 -7.5q-18 -5 -29 -17q-5 -6 -11 -11t-11 -11q-5 -5 -10 -11t-8 -13q-8 -20 -17 -39.5t-14 -39.5q-3 -13 -5 -25.5t-2 -25.5q-2 -25 -1.5 -49.5t0.5 -49.5q0 -11 0.5 -20.5t1.5 -20.5q5 -32 21 -57q9 -16 21 -27t31 -16 q17 0 31 8t25 19q8 8 14.5 15.5t12.5 16.5q26 38 50.5 76.5t42.5 81.5q8 21 18 41t19 40q6 13 14.5 23t22.5 16q11 1 23 0t24 -7q8 -7 12.5 -17t9.5 -20q12 -28 25.5 -54t30.5 -51q10 -14 18.5 -27.5t16.5 -27.5q4 -6 7.5 -11.5t7.5 -11.5q6 -7 12.5 -13.5l14.5 -14.5h9.5 t9.5 2q13 6 25 16q10 8 17 18t13 21q-2 2 -4 5t-4 5q-6 5 -12.5 9t-12.5 9q-14 14 -21 31t-3 37q5 27 13 49q5 15 17 26t26.5 18t30 10t27.5 0q11 -2 21.5 -5.5t20.5 -6.5l9 -12t7 -12q2 -12 3 -24t3 -23t6.5 -21.5t2.5 -24.5q-7 -17 -17.5 -32.5t-27.5 -27.5q-6 -4 -10 -9 t-9 -10q-13 -14 -25 -28.5t-24 -28.5q-26 -30 -67 -39q-14 -3 -25.5 -1t-22.5 12q-6 5 -12.5 10.5t-11.5 12.5q-11 14 -21.5 27t-21.5 27q-7 10 -13.5 19.5t-13.5 18.5q-6 9 -12.5 17t-8.5 18q-1 2 -1.5 3.5t-1.5 2.5q-20 26 -31 54q-3 8 -15 7l-4 -4t-4 -5 q-7 -15 -13.5 -29.5t-12.5 -29.5q-14 -34 -33 -64t-40 -59q-5 -7 -9 -13t-9 -13q-9 -15 -21 -28t-26 -25q-55 -45 -125 -20q-9 4 -17.5 7t-16.5 8q-54 35 -63 102q-6 52 -6 105zM-310 1203q2 -8 6.5 -15t15.5 -10q23 22 29 56q-5 10 -10 17.5t0 18.5l8 8t9 8q-4 8 -5 9 q-10 4 -20 -3q-12 -8 -20 -19.5t-13 -25.5q-8 -21 0 -44z" />
<glyph unicode="&#xe48;" d="M-193 1931q2 7 2.5 12.5t2.5 11.5q2 5 4.5 10t4.5 10q7 2 13.5 5t12.5 5q15 -4 25.5 -9.5t17.5 -18.5q7 -29 12 -59.5t7 -62.5q2 -19 4 -37.5t4 -36.5q4 -24 4 -48.5t-2 -49.5q0 -11 0.5 -22.5t1.5 -22.5q1 -13 1.5 -25t1.5 -24q1 -5 0 -10.5t1 -10.5q7 -18 6.5 -36.5 t1.5 -36.5q1 -19 1.5 -37t5.5 -37q2 -7 2 -14v-14q0 -3 -0.5 -6t-1.5 -8q-5 -5 -10.5 -11t-12.5 -13v-40v-8.5v-14v-13.5v-8q-4 -9 -11 -13.5t-19 -7.5q-7 2 -15.5 4t-15.5 4q-10 7 -13 13t-4 14q0 11 -0.5 20.5t-0.5 20.5v-1l3 -32q0 15 -3 32v1q-2 18 -4 36.5t-4 36.5 l-2 12t-1 12q2 46 -4 90.5t-6 90.5v8q-5 24 -4.5 48.5t-1.5 49.5q-2 31 -1.5 61.5t5.5 61.5q1 6 2 12.5t-1 12.5q-4 23 -5.5 46.5t-3.5 46.5z" />
<glyph unicode="&#xe49;" d="M-370 1739q2 20 7 39t24 33q5 5 8 7q3 3 6 5.5t6 4.5q25 19 55 19h8t9 -1q35 -8 58 -31q9 -10 17 -20.5t14 -22.5q15 -24 10 -50q-2 -14 -5 -30t-8 -33q-1 -5 -2 -9.5t-1 -11.5q-1 -6 -1.5 -12.5t-1.5 -12.5q-1 -4 -1 -10q-1 -1 -1 -3q0 -1 -0.5 -1t-0.5 -1v-1 q0 -20 -3.5 -38.5t-7.5 -35.5q6 12 14 26q5 8 9 16.5t8 18.5q2 3 3.5 6.5t3.5 6.5l12 24q5 11 11 22q1 4 3 6l2 2q2 5 4.5 8.5t4.5 7.5q15 26 19 50q1 6 3.5 11.5t4.5 10.5q7 12 10 26t5 34q1 9 1 18v17q1 27 9 60q2 5 2.5 11.5t2.5 13.5q2 8 2 13l2 5l15 17l29 -6l3 -3 q11 -8 14 -23v-4l2 -10t0 -11q-1 -14 -2 -32t-5 -37q-1 -7 -2 -12.5t-3 -11.5q-1 -4 -1 -7t-2 -7q0 -6 -1 -8q-2 -24 -8 -46t-14 -45l-4 -10t-4 -11l-1 -1q-2 -3 -3 -6.5t-3 -7.5t-4 -7.5t-4 -7.5q-4 -7 -7.5 -13.5t-6.5 -13.5q-8 -18 -18 -32q-3 -7 -6.5 -13t-6.5 -12 q-9 -17 -16.5 -33t-13.5 -33q-8 -18 -19 -37q-4 -5 -7 -10t-7 -10q-5 -6 -8 -13q-5 -5 -6 -9q-12 -28 -34 -59q-2 -3 -4 -6.5t-5 -8.5q-5 -10 -10 -19.5t-10 -19.5l-6 -14q-2 -3 -5 -8t-10 -10l-2 -2h-3q-8 -2 -12 -2q-9 0 -16 3l-4 1l-13 15v7v1v7q2 7 4 13t4 11q2 6 3 8 q8 22 14.5 44t11.5 45v2q1 7 1.5 13.5t1.5 12.5q1 7 2 13.5t2 13.5v2q0 4 2 10q2 14 5.5 30.5t6.5 33.5q2 9 4 18.5t2 19.5q0 5 2 15h-5q-48 0 -90 45q-9 11 -15.5 21.5t-11.5 21.5q-6 10 -9 20.5t-5 21.5q-1 2 -1 8zM-307 1753q0 -17 4 -28q4 -10 5 -15q1 -9 9 -18 q2 -2 3.5 -4.5t3.5 -4.5q3 -5 7 -8.5t9 -8.5q10 -8 22 -8h9l7 9l4 2q1 7 5 18q3 9 4.5 19t3.5 18q4 18 -7 34l-6 8t-7 8q-11 14 -26 17q-12 0 -21 -6q-12 -8 -26 -25q-1 -2 -2 -3.5t-1 -3.5z" />
<glyph unicode="&#xe4a;" d="M-453 1492v15q1 9 1 18.5t2 18.5q2 12 2 24.5v25.5v1q-1 13 1 26t6 30q6 28 16 62t27 69l1 3l2 1q8 5 14.5 11t13.5 11q15 13 30.5 25t31.5 21l1 1q23 10 44 10q28 0 55 -17l2 -1l2 -2q4 -6 6 -10q5 -7 8.5 -13t8.5 -13q2 -4 5 -7.5t6 -8.5t6.5 -10t6.5 -10 q12 -18 20 -38q2 -8 11 -22v2q2 4 3 7q23 54 56 91q26 31 65 38q9 2 17.5 3t16.5 3l14 2h1q4 -1 10 -1q5 -1 8.5 -1.5t7.5 -0.5q38 -3 64 -32q21 -24 30 -49q3 -8 6 -15t5 -15q4 -10 7.5 -20t7.5 -20q8 -26 12.5 -49.5t7.5 -44.5q1 -7 1.5 -15t0.5 -16q0 -12 0.5 -24.5 t0.5 -24.5v-27q5 11 9 21t9 20q7 17 10 39q5 32 15.5 61t21.5 56q2 5 4.5 9.5t4.5 9.5l12 27q5 12 5 21q9 76 42 144q12 24 15 50q3 38 23 86q16 35 17 66q2 23 8 44.5t17 46.5q4 11 8 21t9 21q2 4 3.5 7.5t3.5 7.5q4 10 11 20t21 16l3 2l4 -1q8 -2 15.5 -5.5t14.5 -7.5 l3 -2l2 -2q7 -12 4 -21t-6 -14l-2 -3l-21 -39q-13 -27 -25 -63q-5 -17 -7 -42q-1 -5 -1 -14q-5 -29 -13 -47q-15 -31 -21 -64l-1 -1q-1 -8 -2.5 -15t-1.5 -14q-3 -25 -14 -47q-14 -31 -26 -66t-13 -74q-1 -6 -2 -11.5t-3 -10.5q-5 -10 -10 -21.5t-11 -23.5q-27 -50 -39 -112 q-1 -3 -1 -6t-1 -5q-1 -5 -1.5 -9.5t-1.5 -9.5h-1q-2 -13 -7 -23q-3 -6 -5.5 -12.5t-5.5 -13.5q-5 -11 -10 -22.5t-12 -22.5q-2 -2 -2 -6l-1 -1q-2 -7 -4 -13.5t-4 -13.5q-13 -37 -20 -73q-1 -5 -2 -9t-3 -9q-1 -2 -1 -4t-1 -4l-1 -4l-19 -15h-4h-4h-4q-5 0 -8 1 q-28 6 -31 35q-1 5 -1.5 10t-0.5 10l-4 44t-1 44v54t-1 48q0 14 -1 28t-3 28q0 4 -0.5 7.5t-0.5 7.5q-3 27 -10 56t-20 63q-6 17 -14 32.5t-22 28.5q-6 3 -14 3h-4q-26 -2 -47 -10q-17 -6 -27 -19q-6 -8 -13 -17.5t-13 -18.5q-29 -44 -30 -87q0 -11 -2.5 -20.5t-4.5 -19.5 q-4 -13 -4 -25v-28v-53q1 -6 1.5 -12.5t1.5 -13.5q0 -3 0.5 -6t0.5 -5v-2v-1q-1 -7 -1 -13.5t-1 -14.5q-2 -17 -2.5 -32t-2.5 -31q-1 -11 0 -22t3 -22q1 -11 2 -21.5t0 -21.5v-2l-1 -2q-5 -9 -11.5 -12.5t-11.5 -4.5q-8 -2 -10 -2q-5 0 -9 1.5t-13 4.5l-3 1l-2 2 q-8 8 -10 17.5t-4 18.5q-1 12 -1.5 24t-0.5 23v12t1 12q0 19 0.5 38t-1.5 39l-3 33q-1 4 -1 7.5t-1 6.5l-2 25q-2 20 -4.5 40.5t-4.5 41.5q0 3 -2 11q-1 2 -1 6q-2 8 -3 11q-1 6 -1.5 12t-2.5 11q-5 23 -14 48.5t-26 47.5q-10 13 -16 23q-4 6 -8 10q-7 10 -16 18q-5 1 -9 -1 t-7.5 -4.5t-7.5 -5.5q-15 -11 -27.5 -25t-25.5 -28q-1 -1 -5 -7q-5 -5 -8 -11t-5 -12q-2 -5 -2.5 -8.5t-2.5 -7.5q-5 -19 -10.5 -37.5t-7.5 -38.5q-2 -15 -3.5 -29.5t-1.5 -28.5q-1 -18 -1 -37v-37v-6q0 -6 0.5 -11.5t1.5 -10.5q3 1 6.5 2t7.5 2q12 5 24 5h1h1q5 0 8 -1 q4 0 7.5 -0.5t6.5 -0.5h1q33 0 53 -27l1 -2l1 -1q5 -16 10 -33t4 -35q-1 -9 -2.5 -18t-7.5 -19l-18 -30q-16 -25 -45 -28q-10 -2 -19.5 -1.5t-18.5 1.5q-32 4 -51 36q-6 11 -12.5 25t-11.5 29q-5 16 -8.5 32t-4.5 33q0 6 -0.5 11.5t-1.5 12.5q-3 16 -3 36zM-356.5 1387 q0.5 -10 2.5 -21v-7q1 -3 2.5 -6.5t3.5 -5.5q5 -8 13 -14q3 2 8 10q9 20 8 41q-2 22 -10 36h-5q-11 0 -20 -13q-3 -10 -2.5 -20z" />
<glyph unicode="&#xe4b;" d="M-377 1583l1 5l1 2q1 3 2 6.5t4 7.5q18 21 42 21h2h8.5t8.5 -1h9h4l14 -13q4 0 7.5 -0.5t7.5 -0.5q8 0 16.5 1t16.5 2l16 2t16 1q7 2 17 4q7 0 15 3q1 3 1 7q1 6 1 12v12q-1 29 -1.5 56t-2.5 53q0 13 -1 25.5t-3 26.5q-2 8 -2 17t-1 17v15v5l14 16l39 -10l2 -4l1 -1 q0 -1 1 -1q4 -4 5 -9q1 -2 1.5 -5t1.5 -5q4 -14 7 -28.5t3 -30.5q0 -10 0.5 -19.5t1.5 -19.5q0 -5 0.5 -10.5t0.5 -10.5q1 -7 1 -14t1 -14v-12.5t1 -12.5v-3l3 -42q0 -2 0.5 -3t0.5 -3q2 -1 6 -1h3h6h24q24 0 44 3q4 1 7.5 1h6.5l9 1h26t26 1h1q5 0 8.5 -0.5t7.5 -0.5t6 -1 h3l2 -1q2 -1 3 -2t3 -2q7 -4 14 -9t13 -13l3 -3l-3 -22l-24 -14h-3h-3q-4 0 -6 1q-38 6 -65 6h-11t-11 -1q-12 -1 -24 -1.5t-24 -0.5h-21h-1q-6 -1 -12 -1.5t-11 -2.5q0 -2 -0.5 -2.5t-0.5 -1.5l3 -30l2 -20t1 -21q1 -12 1 -24t1 -24v-28v-7v-11t2 -10q8 -29 -4 -51 q0 -5 0.5 -8.5t0.5 -7.5q1 -11 1 -23t-2 -24l-2 -5l-3 -2q0 -1 -1 -1t-1 -1q-2 -2 -4.5 -3.5t-4.5 -3.5q-4 -2 -8.5 -4t-9.5 -2q-8 0 -14.5 4.5t-11.5 11.5l-2 1l-1 3q-3 11 -3.5 21.5t0.5 21.5v5q1 14 0.5 27t-2.5 27v2q-1 2 -1 9q0 18 -1 36t-3 35q-1 8 -1.5 15t-1.5 14 l-2 28t-3 28v9q-1 5 -3 11q-20 2 -37 -1q-15 -3 -30 -3.5t-29 -0.5h-8h-18q-30 0 -55 6q-7 2 -15 5.5t-14 13.5z" />
<glyph unicode="&#xe4c;" d="M-349 1321q-1 12 0.5 23.5t2.5 22.5q15 23 28.5 43.5t26.5 40.5q32 29 68 44.5t76 26.5q59 14 118.5 18t119.5 13q5 1 10.5 -2.5t10.5 -5.5q7 -22 0 -36t-24 -23q-15 -9 -34 -12q-34 -7 -67 -12.5t-67 -10.5q-28 -3 -55.5 -7t-53.5 -14q-8 -3 -13.5 -8.5t-8.5 -17.5 q7 -12 14.5 -27t15.5 -32q-1 -9 -1.5 -19.5t-2.5 -20.5q-8 -33 -33 -48.5t-62 -10.5q-29 3 -48.5 24t-20.5 51z" />
<glyph unicode="&#xe4d;" d="M-410 1120q0 2 1 7.5t4 10.5q27 51 68 83t98 44q32 7 64 7.5t64 -8.5q38 -11 63 -33.5t41 -56.5q12 -28 15 -57t-1 -58q-4 -28 -14 -54t-23 -50q-11 -23 -31 -34.5t-44 -14.5q-14 -2 -27.5 -2h-27.5q-50 1 -94.5 16.5t-88.5 35.5q-23 11 -38.5 27t-19.5 33q-2 32 -4.5 55 t-4.5 49zM-304 1129q-2 -26 4.5 -46.5t16 -37.5t21.5 -33t22 -32q6 -2 12.5 -5.5t14.5 -6.5t16.5 -5.5t14.5 -4.5q30 -2 48 11.5t26 36.5q12 31 17 62.5t0 64.5q-4 23 -14.5 40.5t-27.5 32.5q-8 8 -18.5 11.5t-21.5 1.5q-47 -8 -82 -29.5t-49 -60.5z" />
<glyph unicode="&#xe4e;" d="M-355 1060q-1 12 0.5 23.5t2.5 22.5q15 23 28.5 43.5t26.5 40.5q32 29 68 44.5t76 26.5q59 14 118.5 18t119.5 13q5 1 10.5 -2.5t10.5 -5.5q7 -22 0 -36t-24 -23q-15 -9 -34 -12q-34 -7 -67 -12.5t-67 -10.5q-28 -3 -55.5 -7t-53.5 -14q-8 -3 -13.5 -8.5t-8.5 -17.5 q7 -12 14.5 -27t15.5 -32q-1 -9 -1.5 -19.5t-2.5 -20.5q-8 -33 -33 -48.5t-62 -10.5q-29 3 -48.5 24t-20.5 51z" />
<glyph unicode="&#xe4f;" horiz-adv-x="862" d="M94 428q0 70 27 131.5t72.5 107t106.5 71.5t130 26q68 0 129 -25.5t107.5 -70.5t74 -106.5t27.5 -133.5q0 -70 -26.5 -131.5t-72 -107t-107.5 -71.5t-132 -26t-131 26.5t-106.5 72t-72 106.5t-26.5 131zM143 428q0 -58 22 -110t60 -91.5t90.5 -62.5t114.5 -23 q61 0 114 23t91 62.5t60 91.5t22 110q0 59 -23 111.5t-62 91.5t-91 61.5t-111 22.5t-111.5 -22.5t-91.5 -61.5t-61.5 -91.5t-22.5 -111.5zM225 428q0 43 16 80.5t43.5 65t65 43.5t80.5 16t81 -16t66 -43.5t44 -65t16 -80.5t-16 -80.5t-44 -65t-66 -43.5t-81 -16t-80.5 16 t-65 43.5t-43.5 65t-16 80.5z" />
<glyph unicode="&#xe50;" horiz-adv-x="1057" d="M95 218v273q0 45 17 84.5t47 69t70 47t85 17.5h429q45 0 85 -17.5t69.5 -47t47 -69t17.5 -84.5v-273q0 -45 -17.5 -84.5t-47 -69t-69.5 -47t-85 -17.5h-429q-45 0 -85 17.5t-70 47t-47 69t-17 84.5zM157 218q0 -32 12.5 -60.5t34 -49.5t50 -33.5t60.5 -12.5h429 q32 0 60.5 12.5t50 33.5t34 49.5t12.5 60.5v273q0 32 -12.5 60.5t-34 49.5t-50 33.5t-60.5 12.5h-429q-32 0 -60.5 -12.5t-50 -33.5t-34 -49.5t-12.5 -60.5v-273z" />
<glyph unicode="&#xe51;" horiz-adv-x="736" d="M80 741q-3 51 12 93.5t54 76.5q40 38 87 60.5t100 33.5q46 9 89 0.5t85 -28.5q45 -23 78.5 -57t53.5 -82q2 -2 2 -5t2 -5q46 -76 18 -159q-6 -21 -12 -42.5t-17 -40.5q-26 -48 -47 -98t-43 -101q-20 -46 -39 -91.5t-44 -90.5q-8 -16 -14 -32t-12 -31q-11 -21 -20.5 -42.5 t-20.5 -41.5q-5 -9 -13 -16.5t-15 -15.5q-14 -3 -27 -6t-25 -5l-13.5 6t-7.5 5t-5.5 6.5t-6.5 10.5q0 3 -1 6t1 5q4 19 12.5 34.5t22.5 29.5q17 18 29 39.5t20 44.5q9 28 20.5 54t25.5 51q8 14 13.5 28.5t11.5 29.5q23 59 48.5 116.5t52.5 115.5q10 18 17 37t12 39 q14 56 -8 112q-24 62 -67 104.5t-105 59.5q-61 -5 -103 -33.5t-78 -67.5q-11 -13 -17 -27t-2 -32q17 -5 34 -2t34 2q16 -1 30.5 -5.5t28.5 -12.5q32 -31 37 -68.5t1 -75.5q-3 -25 -19 -39.5t-37 -21.5q-41 -13 -90 -18q-52 -4 -78 46q-18 35 -30.5 71t-14.5 76zM214 674 q0 -16 13 -31q3 -2 7 -2t7 -2q8 12 8 23t-2 22q-2 8 -6 15t-15 12q-12 -9 -12 -18v-19z" />
<glyph unicode="&#xe52;" horiz-adv-x="1005" d="M-274 636q-2 29 2.5 57.5t12.5 55.5q23 87 61.5 165t88.5 150q26 37 59 67t71 54q11 6 23.5 11t25.5 7q59 11 113.5 2t100.5 -51q46 -38 55 -98q5 -42 9 -83.5t9 -83.5q1 -8 2.5 -16t11.5 -16q29 3 60 7.5t62 -1.5q74 -27 116 -94q3 -5 9 -8.5t9 -6.5q17 1 26.5 11 t21.5 15q11 5 20.5 9.5t21.5 8.5q11 5 23.5 9t25.5 7q11 2 22.5 2.5t20.5 0.5q45 -15 63.5 -47t22.5 -74q3 -51 0 -100t-16 -99q-5 -21 -10.5 -42.5t-10.5 -41.5q-17 -69 -42.5 -131.5t-69.5 -117.5q-8 -11 -16.5 -21t-18.5 -18q-29 -21 -59 -41t-63 -35q-40 -20 -82 -24.5 t-86 -1.5q-32 3 -58.5 15.5t-50.5 31.5q-19 14 -29.5 32.5t-16.5 39.5q-13 51 -22.5 102.5t-13.5 105.5l-4 26t-6 26q-16 39 -17 78.5t7 79.5q13 58 21 115.5t20 115.5q7 42 6 83.5t-6 83.5q-2 18 -4.5 36.5t-4.5 37.5q-7 64 -59 101q-21 15 -41.5 18t-44.5 -8 q-39 -18 -72.5 -43.5t-56.5 -64.5q-18 -29 -37 -55t-32 -58q-19 -47 -38.5 -93t-38.5 -92q-2 -5 -3 -11.5t-2 -11.5q-5 -48 -10.5 -94.5t7.5 -92.5q1 -3 0.5 -7t-0.5 -11q-12 -12 -22 -23t-27 -11q-10 3 -14 8t-9 12q-1 4 -1.5 8t-2.5 8q-11 63 -12 125zM332.5 328.5 q1.5 -15.5 3.5 -31.5q2 -14 4 -26t3 -26q1 -25 9 -47.5t19 -44.5q29 -55 77 -69.5t102 14.5q20 12 39 25t37 27q19 16 35 38q27 38 47.5 78.5t34.5 85.5q13 45 24.5 91t20.5 92q8 40 8 80t-2 80q-2 14 -7 27.5t-21 22.5q-5 -2 -12 -4t-12 -6q-10 -7 -17.5 -15.5t-16.5 -16.5 q-17 -17 -34 -33.5t-40 -29.5q-10 1 -20 1.5t-20 1.5t-20.5 4t-20.5 11q-11 19 -19.5 41t-20 42.5t-28 37.5t-41.5 28q-8 -3 -15 -5t-13 -5q-12 -7 -18 -14q-10 -10 -19 -22q-32 -51 -46 -111q-1 -8 -0.5 -15t9.5 -13q17 3 37 7t40 3q20 0 41 -5t38 -22q15 -23 16 -48 t-9 -51q-3 -7 -6 -13t-5 -14q-9 -29 -28 -49.5t-43 -37.5q-19 -11 -39.5 -17.5t-44.5 -11.5q-8 -19 -6.5 -34.5zM333 440q-1 -3 1.5 -6.5t4.5 -10.5q8 3 15 5.5t11 7.5q23 22 37 49.5t12 60.5q-1 5 -2.5 10t-2.5 9q-8 5 -13.5 4t-10.5 -4q-25 -17 -32 -47q-5 -20 -10 -39 t-10 -39z" />
<glyph unicode="&#xe53;" horiz-adv-x="945" d="M81 227.5q-2 55.5 1 111.5q2 49 13.5 94.5t34.5 87.5q16 30 32.5 58t33.5 57q31 47 89 58q23 3 53 9q36 -4 61.5 -25t45.5 -47q11 -2 18 2t11 9q28 35 73 49q24 2 49.5 5t51.5 5q37 3 66 -12t51 -46q14 -19 23 -39.5t15 -42.5q13 -44 15.5 -86t4.5 -85q1 -23 1.5 -44 t2.5 -42q1 -16 1 -29.5t-2 -27.5q-8 -46 1 -87q1 -6 2.5 -13t1.5 -15q2 -29 7 -56.5t13 -56.5q2 -5 2.5 -10.5t1.5 -12.5q-8 -21 -25 -27.5t-37 -11.5q-8 5 -17 8.5t-19 7.5q-3 16 -7 29.5t-6 27.5q-3 45 -7 89t-5 89q-2 51 -3 103t-7 104q-3 19 -3.5 37.5t-0.5 36.5 q-2 26 -9.5 51.5t-18.5 48.5q-3 7 -8 14t-10 15q-5 5 -9 8l-8 6q-34 10 -73 -3q-53 -50 -73 -124q-4 -16 -6 -33.5t-4 -34.5q-3 -32 -5.5 -63.5t-5.5 -63.5t-1 -65.5t5 -66.5q2 -23 2.5 -45.5t2.5 -46.5q1 -8 -0.5 -16t-2.5 -15q-13 -18 -30.5 -21.5t-34.5 -6.5 q-8 3 -15.5 6t-14.5 5q-4 5 -6 9l-4 8q-4 19 -4 41q-2 32 -2 65.5t-1 65.5q0 28 -1.5 55t-2.5 55q-5 51 -8.5 100.5t-8.5 99.5q-2 18 -7 34.5t-10 32.5q-5 23 -31 27q-13 -5 -20.5 -14t-14.5 -20q-16 -29 -31.5 -58t-31.5 -58q-11 -21 -16.5 -43t-9.5 -45q-2 -20 -3.5 -40 t-3.5 -40q-3 -25 9 -52q5 0 10.5 -1t10.5 1q33 9 69 4q20 -6 30 -20.5t15 -33.5q6 -31 4.5 -60.5t-6.5 -60.5q-10 -58 -71 -74q-13 -3 -26 -5t-27 -5q-14 2 -28 5t-25 5q-20 8 -31 21t-16 28q-3 13 -6 25.5t-5 24.5q-6 57 -8 112.5zM226.5 126.5q0.5 -6.5 11.5 -13.5 q1 19 -0.5 22.5t-9.5 5.5q-2 -8 -1.5 -14.5z" />
<glyph unicode="&#xe54;" horiz-adv-x="708" d="M88 427q0 52 12 103q12 52 41 94q68 96 178 141q14 7 29 12.5t29 12.5q45 20 72 64q32 54 53 111t26 121q2 26 3.5 51.5t0.5 51.5v23t1 23q5 56 -6 109t-27 106q-13 47 -56 73q2 14 7.5 21.5t13 11.5t16.5 4.5t19 1.5q11 -5 23 -11t21 -11q17 -17 26 -33.5t16 -33.5 q26 -63 35.5 -127.5t7.5 -131.5q-1 -14 -1.5 -26.5t1.5 -25.5q7 -49 0.5 -95.5t-17.5 -92.5q-6 -28 -18.5 -54t-22.5 -53q-8 -21 -19.5 -39t-25.5 -35q-9 -11 -19.5 -20.5t-24.5 -15.5q-22 -11 -43.5 -22t-44.5 -20q-27 -11 -51.5 -26t-47.5 -33q-20 -14 -35.5 -32.5 t-29.5 -39.5q-14 -23 -23 -46.5t-12 -49.5q-8 -61 -6.5 -120.5t24.5 -118.5q2 -6 10 -15q4 3 7.5 5.5t4.5 5.5q7 23 12.5 45t11.5 44q6 21 11 42t13 41q8 26 16 52.5t7 55.5q24 18 36 43.5t28 46.5q18 12 35.5 13t37.5 -5q32 -29 50 -65t18 -81q-10 -32 -19 -51.5t-23 -31.5 t-36.5 -20.5t-59.5 -18.5q-11 -12 -17 -28t-8 -33q-7 -62 -19.5 -122t-10.5 -123q0 -11 -3.5 -20t-15.5 -17q-23 -6 -46 -2.5t-46 20.5q-39 40 -55 97q-3 10 -5.5 19.5t-7.5 17.5q-17 33 -25.5 67.5t-18.5 69.5q-2 5 -2.5 11t-1.5 11q-3 52 -3 104z" />
<glyph unicode="&#xe55;" horiz-adv-x="808" d="M89 342q0 11 0.5 22.5t0.5 23.5q1 168 69 324q12 29 27.5 56.5t29.5 55.5q5 8 8 16t8 16q-16 8 -30.5 15t-28.5 14q-36 18 -49.5 48t-8.5 67q4 39 12.5 76.5t22.5 74.5q3 7 6 13.5t6 12.5q32 60 99 71q5 2 8.5 2t8.5 1q47 8 85 -7t70 -50q8 -8 14.5 -17t12.5 -17 q14 -3 22 9q8 11 15 21t14 21q29 48 61.5 90.5t64.5 87.5q10 14 21.5 25t30.5 17q11 -2 24.5 -4.5t26.5 -4.5l5 -10t4 -7q-2 -3 -2.5 -6.5t-2.5 -5.5q-27 -38 -55.5 -76t-53.5 -79q-36 -60 -76 -115.5t-79 -112.5q-22 -30 -48.5 -57t-55.5 -51q-20 -17 -36 -36.5t-30 -41.5 q-35 -59 -61.5 -121t-42.5 -128q-20 -84 -24.5 -168t12.5 -169q8 -41 24 -76.5t49 -63.5l14 -10t15 -8q6 -2 13 -1t13 1q12 11 16 25t6 29q0 12 -0.5 25t-2.5 26q-8 43 -16.5 85t-17.5 84q-10 47 -21 92.5t-19 93.5q-12 67 -2 132q5 35 22 65t41 56q14 15 33 22t39 7 q29 0 57 -8t52 -29q6 -14 13 -29.5t13 -29.5q2 -60 -14 -112t-48 -96q-21 -17 -42.5 -20t-40.5 -9q-8 -7 -9.5 -13.5t-1.5 -14.5q0 -5 2 -11q18 -51 26 -104t23 -104q20 -73 5 -148q-4 -16 -10 -30t-19 -27q-30 -16 -63 -23t-69 1q-11 2 -22.5 3t-24.5 2q-11 7 -23.5 13.5 t-23.5 13.5q-29 28 -46 60t-27 70q-11 41 -15.5 82t-2.5 83zM205 971q2 -17 11 -32q24 -18 49 -15q19 6 31.5 19.5t22.5 29.5q19 29 37 58t18 67q-5 30 -18.5 55.5t-44.5 41.5q-6 -2 -13.5 -2.5t-12.5 -4.5q-38 -22 -51 -60q-11 -30 -18 -60.5t-11 -62.5q-2 -17 0 -34z M366 693q4 -24 7 -43t6 -37q2 -10 5.5 -19t18.5 -17q26 38 32 77t-4 81q-2 8 -7.5 15t-17.5 9q-11 -5 -18 -13t-11 -17t-6 -18.5t-5 -17.5z" />
<glyph unicode="&#xe56;" horiz-adv-x="784" d="M-127.5 1372.5q-0.5 4.5 0 10t1.5 14.5q2 2 4.5 3.5t5.5 1.5q13 2 25 3t22 3q23 -5 35 -19.5t21 -31.5q14 -29 23 -59.5t18 -60.5q11 -36 22 -71.5t22 -71.5q3 -10 7 -18.5t7 -18.5q7 -35 23.5 -65t32.5 -61q20 -35 59 -56q6 3 12.5 6t12.5 7q11 7 21.5 15t21.5 15 q8 5 16.5 10.5t18.5 7.5q30 4 58.5 4.5t55 -6t50.5 -21.5t45 -40q35 -42 62.5 -88t46.5 -100q18 -51 26.5 -102.5t2.5 -105.5q-5 -46 -11 -91.5t-14 -91.5q-2 -14 -8 -27t-14 -25q-17 -30 -35.5 -59t-37.5 -58q-20 -30 -46.5 -51.5t-57.5 -38.5q-28 -16 -58.5 -22t-62.5 -1 l-34 6t-31 7q-51 26 -78.5 67t-46.5 89q-24 63 -28 129t3 132q3 29 13 55.5t19 53.5q71 44 136 -6q14 -19 25.5 -40.5t19.5 -44.5q9 -28 5 -53t-27 -45q-20 -14 -41.5 -15.5t-39.5 -6.5q-18 -14 -16 -32q5 -54 22.5 -103.5t50.5 -93.5q21 -28 56 -39q27 -8 50 2 q15 7 28 15.5t24 20.5q32 34 57.5 71.5t46.5 79.5q5 11 9 24t6 25q9 63 15 126q2 11 2 23t2 23q7 25 4 49t-8 47q-13 52 -30 102t-37 100q-11 28 -31.5 47.5t-45.5 35.5q-10 6 -20.5 10.5t-22.5 9.5q-8 -5 -15.5 -8t-14.5 -8q-12 -10 -23.5 -21t-23.5 -22 q-11 -10 -22.5 -18.5t-30.5 -13.5q-42 -5 -77.5 12t-63.5 51q-37 44 -64 92t-43 104q-13 47 -25.5 93.5t-26.5 94.5q-9 30 -22 59t-30 56q-4 6 -6 10t-2.5 8.5z" />
<glyph unicode="&#xe57;" horiz-adv-x="1155" d="M58 267q1 5 1 9.5v9.5q0 10 0.5 21t1.5 22q2 15 2.5 30t0.5 30v3q0 15 1.5 30.5t6.5 36.5q8 32 19.5 73.5t32.5 83.5l2 3l3 1q8 7 16.5 13.5t16.5 13.5q18 15 36.5 29t36.5 25l2 2l1 1q14 5 27 8.5t26 3.5q32 0 64 -21l4 -1l1 -3q2 -3 4 -6.5t5 -5.5q5 -8 9.5 -16 t9.5 -16q4 -5 7 -9t6 -9q5 -6 8.5 -12t8.5 -13q8 -11 13.5 -22t9.5 -22q2 -8 5.5 -14t7.5 -14v2q0 1 1 1l2 7q14 32 31 59.5t37 51.5q33 38 79 45q11 2 20.5 3.5t18.5 3.5l17 2h3q2 0 5 -0.5t5 -0.5q6 -1 11 -1.5t10 -0.5q45 -5 75 -39q25 -28 38 -58q2 -9 5.5 -18t7.5 -17 q5 -13 9 -25.5t9 -23.5q10 -30 15 -59t8 -54q2 -8 2 -17v-20q1 -15 1 -30v-29v-33q7 13 12 25.5t10 24.5q5 11 8 23t5 23q5 38 17.5 73.5t26.5 67.5q2 6 5.5 12.5t5.5 11.5q3 8 7 15.5t6 15.5q6 15 6 25q6 45 18.5 88.5t33.5 85.5q12 28 17 60q2 25 9.5 50t19.5 52 q18 44 19 79q2 27 10 53.5t20 56.5q5 12 10 24.5t10 25.5q3 5 5 9t4 9q5 12 13 24t25 19l4 3l4 -2q11 -2 19.5 -6t16.5 -9l5 -1l1 -4q8 -14 5 -25.5t-6 -16.5l-2 -4q-8 -11 -14 -23t-13 -23q-8 -17 -15 -35t-15 -41q-5 -22 -7 -50q-2 -10 -2 -17q-2 -17 -6.5 -31t-9.5 -26 q-9 -19 -14.5 -37.5t-10.5 -37.5v-3q-2 -9 -3.5 -17t-2.5 -17q-3 -29 -16 -57q-17 -37 -31.5 -78.5t-16.5 -88.5q0 -15 -6 -27q-5 -12 -10.5 -25.5t-13.5 -27.5q-33 -62 -48 -136q0 -5 -2 -13q-1 -5 -1.5 -10.5t-2.5 -10.5v-2q-2 -6 -3 -13t-5 -13q-4 -8 -7.5 -16t-6.5 -15 q-6 -14 -12 -27.5t-15 -27.5q-1 -2 -1 -4t-1 -4v-1q-3 -8 -5.5 -15.5t-5.5 -15.5q-6 -23 -12.5 -44.5t-10.5 -43.5q-2 -6 -3.5 -11.5t-2.5 -10.5q-1 -3 -1.5 -5t-1.5 -5v-5l-24 -17h-4h-5q-2 -1 -6 -1q-2 0 -4 0.5t-4 0.5q-35 7 -39 42q-1 7 -1 12.5t-1 11.5q-2 26 -4 53 t-2 54q1 69 0 121q-1 17 -2.5 34t-3.5 34v9t-1 9q-3 32 -12 66.5t-24 75.5q-8 20 -17.5 39t-25.5 36q-3 1 -7 2t-9 1q-4 0 -5 -1q-29 -1 -56 -11q-21 -9 -34 -24q-7 -10 -15 -20.5t-16 -22.5q-17 -26 -25.5 -51.5t-9.5 -52.5q-1 -13 -3.5 -25t-5.5 -23q-3 -8 -4 -16t-1 -15 q1 -8 1 -16v-17v-62q0 -8 0.5 -16.5t1.5 -16.5q2 -4 2 -14h1l-1 -2q0 -8 -1 -16.5t-2 -16.5q-1 -20 -2 -39t-3 -39q-2 -13 -0.5 -26t3.5 -25q2 -13 3.5 -25.5t-0.5 -26.5l-1 -2v-3q-5 -11 -13 -15t-16 -5q-2 -1 -5 -2t-7 -1q-5 0 -10 2l-15 6l-3 1l-3 2q-10 10 -12.5 21 t-4.5 22q-3 30 -3 57q1 7 1 14.5v15.5q0 23 0.5 45.5t-0.5 45.5q-1 10 -2.5 19.5t-2.5 20.5q-1 5 -1 9v7l-4 30q-2 25 -5 49.5t-5 49.5q0 4 -1 6.5t-2 6.5q0 5 -1 7q-1 4 -1 7.5t-1 7.5q-2 6 -3 13t-3 13q-7 28 -17.5 58.5t-30.5 57.5q-6 7 -9.5 13t-8.5 14q-3 4 -5.5 6.5 t-4.5 5.5q-5 7 -10 13t-10 8q-6 4 -11 -1q-9 -5 -18 -12q-17 -14 -32 -29.5t-31 -33.5q-2 -3 -7 -8q-10 -14 -15 -28q-2 -5 -3 -10t-3 -10q-7 -23 -13 -45.5t-9 -45.5q-6 -36 -6 -68q-1 -23 -1 -45v-45v-7q0 -14 3 -26q4 0 7.5 1t8.5 3q14 6 30 7h1q4 -1 10 -1q5 -1 9 -1.5 t9 -0.5q40 0 63 -33l3 -2v-1q7 -20 12.5 -39.5t4.5 -42.5q0 -10 -2 -21t-9 -22q-5 -9 -11 -18.5t-11 -18.5q-18 -28 -55 -34q-26 -2 -46 1q-39 6 -60 42q-8 14 -15.5 30.5t-12.5 34.5q-6 19 -10.5 39t-5.5 40q-1 7 -1.5 13.5t-2.5 14.5q-1 10 -2 21t-1 22zM174.5 141.5 q0.5 -11.5 2.5 -24.5q0 -6 1 -10q0 -3 2.5 -7t3.5 -7q8 -11 15 -16q4 2 5.5 4.5l4.5 7.5q6 11 8.5 23.5t2.5 24.5q-2 14 -4.5 24.5t-7.5 19.5h-6q-13 0 -25 -16q-3 -12 -2.5 -23.5z" />
<glyph unicode="&#xe58;" horiz-adv-x="1206" d="M70 241q-1 22 1.5 44t6.5 45q2 20 5.5 40.5t7.5 40.5q14 66 41.5 125t62.5 116q22 33 52 58q29 28 66 37q38 9 74.5 14t74.5 2q63 -6 124.5 -6.5t124.5 5.5q63 5 125.5 14.5t123.5 29.5q7 2 14 5t15 5q40 14 69 39.5t46 64.5q11 23 22 45t17 46q2 10 6.5 19.5t9.5 18.5 q18 29 35 57.5t35 57.5q10 17 20 33.5t17 34.5q10 24 16 48.5t4 51.5q0 9 2 18t4 17q5 1 9 1.5t10 2.5q7 -5 15 -11.5t17 -13.5q4 -15 7.5 -30.5t6.5 -29.5q-8 -46 -24.5 -87.5t-40.5 -80.5q-29 -45 -53.5 -91t-44.5 -97q-7 -18 -16 -35t-19 -34q-7 -13 -14 -24.5t-14 -21.5 q-57 -33 -115 -53t-121 -31q-17 -3 -33 -7t-33 -6q-26 -5 -51 -6q-10 -2 -19 -1.5t-17 -1.5q-61 -11 -121.5 -10t-121.5 2h-13.5t-12.5 2q-32 8 -62.5 5t-64.5 -14q-8 -5 -18 -12t-20 -15q-16 -13 -28 -30q-44 -66 -75.5 -136t-44.5 -148q-5 -34 -9.5 -67t-3.5 -67 q2 -32 8.5 -62t20.5 -59q4 -8 9 -14.5t10 -14.5q27 1 46.5 12.5t34.5 29.5q11 13 17 26q17 33 32 67t24 72q8 31 20 61t33 56q41 17 73 -17q3 -8 6 -17t7 -19q5 -15 9 -29.5t9 -30.5q11 -42 31 -79t40 -75q14 -26 32 -47.5t38 -41.5q9 -9 18 -18.5t17 -20.5q21 -29 49 -49.5 t58 -37.5q17 -9 34.5 -9.5t37.5 13.5q20 26 38.5 54.5t33.5 60.5q7 13 11.5 26t8.5 27q2 3 0.5 6.5t-2.5 8.5q-10 2 -20.5 1.5t-21 0t-21 3t-20.5 11.5q-5 7 -11 15.5t-10 14.5q-14 35 -13.5 67.5t9.5 65.5q3 14 11 28q14 24 38.5 34.5t50.5 2.5q63 -18 90 -79 q14 -30 15 -62.5t-3 -64.5q-8 -63 -32 -117.5t-62 -103.5q-51 -69 -137 -72q-26 -2 -51 6.5t-46 25.5q-60 48 -109.5 102.5t-88.5 120.5q-18 29 -33.5 58.5t-29.5 59.5q-4 8 -7.5 17t-15.5 14q-12 -8 -17.5 -18t-9.5 -22q-8 -25 -20.5 -47t-23.5 -45q-25 -49 -77 -74 q-27 -12 -53 -23t-55 -11q-38 13 -57.5 40t-30.5 61q-9 33 -13.5 66.5t-5.5 66.5zM905.5 189q1.5 -10 12.5 -19q5 8 9.5 15t9.5 14q14 11 27 19q3 17 -1.5 29t-11.5 23q-3 5 -7.5 7t-13.5 0q-14 -13 -17.5 -31.5t-6.5 -36.5q-2 -10 -0.5 -20z" />
<glyph unicode="&#xe59;" horiz-adv-x="1154" d="M91 350q2 55 10.5 108.5t20.5 107.5q11 48 24 94.5t36 91.5q10 19 21.5 37t23.5 36q22 31 62 39q44 8 82 -2t68 -45q9 -11 17 -23t22 -17q12 5 16 14t7 18q11 28 31 42t47 18q54 9 108 -8q23 -7 40 -21t31 -35q24 -38 40 -79.5t27 -84.5q11 -42 21 -84t21 -84 q1 -7 3 -13.5t11 -11.5q2 3 4.5 6t2.5 7q2 29 3.5 57.5t9.5 56.5q10 39 18 78.5t20 77.5q37 118 83.5 230.5t103.5 221.5q6 10 10.5 20t8.5 21q20 50 45 96.5t49 94.5q6 11 14 22l16 22q7 2 13.5 4t14.5 4q9 -8 17 -15l16 -14q0 -5 0.5 -9t-0.5 -6q-15 -31 -26 -63.5 t-31 -61.5q-5 -8 -7.5 -16t-5.5 -17q-9 -32 -22.5 -61.5t-30.5 -58.5q-20 -37 -37 -75l-34 -76q-25 -56 -45.5 -112t-43.5 -112q-8 -20 -14.5 -41t-11.5 -42q-8 -28 -13 -55.5t-13 -56.5q-11 -44 -11.5 -88t1.5 -89q2 -38 1 -75t-2 -75q-1 -32 -1.5 -63t-2.5 -63 q0 -11 -1.5 -23t-12.5 -24q-14 -11 -30.5 -12t-33.5 4q-14 9 -20.5 20t-10.5 24q-5 17 -9.5 33t-9.5 33q-15 55 -30.5 108.5t-29.5 108.5q-10 38 -18.5 75.5t-17.5 75.5l-8 30t-8 31q-9 49 -30.5 92.5t-46.5 86.5q-4 8 -9.5 14t-15.5 8q-11 0 -19 -6t-13 -15 q-16 -29 -25.5 -60t-10.5 -66q-1 -62 8 -126q11 -67 22.5 -133.5t22.5 -132.5q4 -23 9 -45.5t11 -45.5q5 -20 6 -39t3 -39q-25 -16 -47.5 -19.5t-46.5 15.5q-11 15 -15 33t-8 37q-10 47 -19 93l-18 92q-8 39 -14 77t-8 77q0 14 -2.5 26t-6.5 25q-27 99 -81 184 q-11 18 -24.5 34t-34.5 26q-21 -8 -34.5 -22.5t-21.5 -33.5q-12 -29 -25 -58t-19 -60q-5 -19 -9 -37t-9 -36q-12 -46 -18.5 -92.5t-10.5 -94.5q-2 -17 0 -34.5t14 -36.5q12 5 21.5 7.5t19.5 6.5q29 12 56.5 8.5t53.5 -19.5q15 -9 27 -20t23 -19q15 -28 18.5 -53.5 t-6.5 -51.5q-11 -32 -29 -59.5t-49 -44.5q-11 -6 -23 -11.5t-23 -10.5q-28 -12 -54 -9.5t-52 15.5q-15 7 -25 19.5t-15 27.5q-8 19 -15 37.5t-12 38.5q-12 48 -17 96t-2 98zM248 182q2 -8 5 -18.5t8 -21.5q5 -15 19 -15q10 0 14.5 5t8.5 11q16 25 13 54q-2 18 -11 31t-28 18 q-7 -8 -11 -13t-7 -11t-5 -15t-6 -25z" />
<glyph unicode="&#xe5a;" horiz-adv-x="1362" d="M66 631q0 48 21 90.5t56.5 73.5t82.5 49t100 18h30v-61h-30q-41 0 -77.5 -14t-63.5 -37t-42.5 -54t-15.5 -65q0 -152 205 -152q214 0 479 133q254 128 254 219v31h61v-862h-61v713q-108 -114 -336 -205q-228 -90 -397 -90q-266 0 -266 213zM1204 0v860h62v-860h-62z" />
<glyph unicode="&#xe5b;" horiz-adv-x="1352" d="M94 432q0 72 14.5 130.5t40.5 100.5t63.5 64.5t84.5 22.5q39 0 70 -15.5t52.5 -44t33 -68t11.5 -86.5q0 -89 -40 -143q-34 -43 -80 -43q-20 0 -37.5 9t-30 25t-19.5 37t-7 44q0 22 6.5 42.5t19 36t30 25t38.5 9.5q32 0 53 -21q0 63 -28.5 98t-71.5 35q-30 0 -56 -17 t-44.5 -47.5t-29 -73.5t-10.5 -95q0 -66 13.5 -119t37.5 -90.5t57.5 -57.5t72.5 -20q46 0 85.5 28t68.5 79t46 121.5t17 155.5v24l-2 36l31 39l102 -227l72 215l71 -190l64 155l72 -153l63 116l64 -98l20 41h234l-50 -61h-145l-61 -80l-58 78l-71 -130l-64 134l-76 -170 l-59 172l-66 -197l-88 191q-10 -80 -35 -143.5t-61 -108t-80.5 -68t-93.5 -23.5q-50 0 -93.5 24t-76 67t-52 103t-22.5 132zM301 465q0 -25 12 -41t29 -16q20 0 31.5 16t11.5 41t-11.5 41t-31.5 16q-17 0 -29 -16t-12 -41z" />
<glyph unicode="&#x2000;" horiz-adv-x="1150" />
<glyph unicode="&#x2001;" horiz-adv-x="2300" />
<glyph unicode="&#x2002;" horiz-adv-x="1150" />
<glyph unicode="&#x2003;" horiz-adv-x="2300" />
<glyph unicode="&#x2004;" horiz-adv-x="766" />
<glyph unicode="&#x2005;" horiz-adv-x="575" />
<glyph unicode="&#x2006;" horiz-adv-x="383" />
<glyph unicode="&#x2007;" horiz-adv-x="383" />
<glyph unicode="&#x2008;" horiz-adv-x="287" />
<glyph unicode="&#x2009;" horiz-adv-x="460" />
<glyph unicode="&#x200a;" horiz-adv-x="127" />
<glyph unicode="&#x200b;" />
<glyph unicode="&#x2010;" horiz-adv-x="1053" d="M94 463v61h862v-61h-862z" />
<glyph unicode="&#x2011;" horiz-adv-x="1053" d="M94 463v61h862v-61h-862z" />
<glyph unicode="&#x2012;" horiz-adv-x="1053" d="M94 463v61h862v-61h-862z" />
<glyph unicode="&#x2013;" horiz-adv-x="633" d="M14 508q3 5 5 9t6 6q5 5 9.5 8.5t8.5 6.5l10.5 3.5t9.5 0.5q14 0 27.5 0.5t27.5 -2.5q34 -7 67.5 -9t67.5 -2h43t44 -1q28 0 55.5 -0.5t54.5 -8.5q8 -3 17.5 -3t19.5 -1q26 -2 51 -8t50 -16q7 -2 13 -6.5t12 -8.5q0 -7 1 -11.5t0 -9.5q-1 -6 -3 -12l-4 -12 q-26 -20 -54.5 -22.5t-56.5 10.5q-45 21 -91.5 28t-94.5 8q-57 0 -114 6t-114 11q-32 1 -64 16q-2 13 -4 20z" />
<glyph unicode="&#x2014;" horiz-adv-x="1292" d="M25 504q5 4 10 7t11 8q62 6 124.5 8.5t125.5 2.5q170 -1 338 0t338 0q66 -1 130.5 -4t130.5 -5q18 -1 35 -5.5t35 -20.5q-3 -8 -5 -16t-10 -16q-9 -11 -26 -14.5t-35 -2.5q-108 2 -211 6q-41 2 -81 4t-80 2q-134 1 -267.5 0t-267.5 -1q-15 -1 -30.5 -0.5t-29.5 -1.5 q-44 -5 -86 -2.5t-84 6.5q-23 8 -41.5 17.5t-23.5 27.5z" />
<glyph unicode="&#x2018;" horiz-adv-x="323" d="M97 951v11q9 30 26 57q13 19 23.5 39.5t19.5 41.5q8 17 17.5 33t18.5 33q3 3 5 4t4.5 1t6.5 1q4 -4 8 -7.5t8 -7.5q2 -15 -2 -28t-12 -25q-6 -11 -12 -21t-9 -22q-4 -17 -12.5 -33t-18.5 -31q-6 -10 -13 -19.5t-13 -20.5q-1 -2 1 -9q12 3 23.5 6t22.5 5q27 -6 43 -31 q3 -18 6 -39q-3 -9 -6.5 -17.5t-6.5 -17.5q-8 -5 -13 -9t-10 -6q-31 -18 -55 6q-5 5 -9.5 10.5t-9.5 10.5q-27 30 -30 74q-1 5 -1 11z" />
<glyph unicode="&#x2019;" horiz-adv-x="395" d="M90 1102q0 37 31 57q8 5 17 9t18 5q13 1 25.5 3t26.5 -5q26 -19 39.5 -44.5t17.5 -57.5q4 -26 4.5 -52.5t-7.5 -52.5q-4 -21 -6 -43q-1 -14 -1 -22t0.5 -15t3 -14.5l6.5 -19.5q-4 -7 -14 -21q-33 11 -33 42q-1 34 -0.5 67t8.5 66q5 19 5 38.5t-5 38.5q-2 8 -4.5 15 t-4.5 14q-4 8 -13 5q-3 -8 1 -16.5t2 -20.5q-2 -8 -6.5 -15.5t-13.5 -13.5q-20 -14 -48 -16q-14 -1 -28 11q-12 12 -19 31q0 6 -1 13t-1 14z" />
<glyph unicode="&#x201a;" d="M-1174 900q1 5 1 8t2 6q33 60 78 111q8 9 15.5 18.5t14.5 19.5q59 77 144 114q81 35 165 46.5t172 -9.5q17 -4 35 -10t35 -14q14 -5 27 -12.5t25 -12.5q12 2 16 8t5 14q2 29 4.5 58.5t0.5 58.5q-3 53 1.5 104.5t7.5 104.5q1 16 5.5 30t18.5 23q18 2 28 2.5t17.5 -3 t14.5 -11t19 -22.5q-2 -17 -2.5 -35t-4.5 -36q-9 -38 -8 -76.5t4 -76.5q1 -10 2 -19t0 -18q-5 -57 -9 -113.5t-8 -113.5q-2 -19 -3 -36.5t-3 -34.5q-11 -15 -24 -21t-26.5 -7.5t-27.5 -1t-28 -1.5q-56 23 -113.5 25t-116.5 -2q-118 -8 -232 -30q-33 -7 -66 -16.5t-62 -26.5 q-46 -26 -108 -16q-5 7 -8.5 13t-7.5 11zM-980.5 1011.5q0.5 -4.5 0.5 -7.5l4.5 -3t3.5 -1q49 7 97 13.5t97 12.5q12 2 24.5 3t24.5 1q55 0 110 -1t110 -1q5 0 9 1.5t9 2.5q5 17 1 31.5t-12 29.5q-22 21 -47.5 36.5t-56.5 21.5q-68 14 -135 3q-41 -7 -80 -20.5t-75 -34.5 q-26 -14 -47.5 -34t-35.5 -46q-2 -3 -1.5 -7.5z" />
<glyph unicode="&#xf702;" d="M-1174 900q1 5 1 8t2 6q33 60 78 111q8 9 15.5 18.5t14.5 19.5q59 77 144 114q81 35 165 46.5t172 -9.5q17 -4 35 -10t35 -14q14 -5 27 -12.5t25 -12.5q12 2 16 8t5 14q2 29 4.5 58.5t0.5 58.5q-3 53 1.5 104.5t7.5 104.5q1 16 5.5 30t18.5 23q18 2 28 2.5t17.5 -3 t14.5 -11t19 -22.5q-2 -17 -2.5 -35t-4.5 -36q-9 -38 -8 -76.5t4 -76.5q1 -10 2 -19t0 -18q-5 -57 -9 -113.5t-8 -113.5q-2 -19 -3 -36.5t-3 -34.5q-11 -15 -24 -21t-26.5 -7.5t-27.5 -1t-28 -1.5q-56 23 -113.5 25t-116.5 -2q-118 -8 -232 -30q-33 -7 -66 -16.5t-62 -26.5 q-46 -26 -108 -16q-5 7 -8.5 13t-7.5 11zM-980.5 1011.5q0.5 -4.5 0.5 -7.5l4.5 -3t3.5 -1q49 7 97 13.5t97 12.5q12 2 24.5 3t24.5 1q55 0 110 -1t110 -1q5 0 9 1.5t9 2.5q5 17 1 31.5t-12 29.5q-22 21 -47.5 36.5t-56.5 21.5q-68 14 -135 3q-41 -7 -80 -20.5t-75 -34.5 q-26 -14 -47.5 -34t-35.5 -46q-2 -3 -1.5 -7.5z" />
<glyph unicode="&#x201e;" d="M-1146 1016q7 30 18 58t27 52.5t38 44.5t51 35t60.5 23t64.5 11q32 2 64.5 2t64.5 -8q4 -2 8.5 -1t7.5 1q8 5 9 11t0 12q-4 37 -5.5 74t-9.5 74q-4 16 -5.5 33t-2.5 34q-1 8 2.5 17t5.5 17q20 8 37.5 7t31.5 -1q16 -8 24 -19.5t12.5 -24t9 -24t14.5 -18.5q10 -73 22 -141 q6 0 11.5 -0.5t12.5 -0.5q11 26 6 50t-9 48q-2 23 -8.5 45.5t-20.5 42.5q4 10 7.5 19.5t6.5 17.5q20 9 38.5 8.5t32.5 -2.5l49 -24.5l51 -25.5q7 -8 10 -23.5t5 -32.5q2 -28 4.5 -56t4.5 -55q2 -33 9.5 -64t18.5 -62q8 -20 10.5 -42t-4.5 -46q-5 -9 -12 -19t-15 -22v-46 q-4 -5 -6.5 -9t-5.5 -7q-14 -11 -27.5 -21t-27.5 -21q-11 -4 -21.5 -3t-20.5 4t-19.5 7.5t-19.5 7.5q-28 -8 -54.5 -10.5t-49.5 8.5q-13 7 -20 16t-10.5 19.5t-6.5 20.5t-7 19q-15 11 -30 14t-31 1q-22 -2 -43 -2h-43q-23 0 -45.5 -6t-45.5 -12q-20 -6 -40 -14t-41 -16 q-66 -28 -129 -5q-16 12 -13 30zM-1040.5 1074q-3.5 -10 4.5 -21q2 -1 3 -2t2 -1q11 3 21.5 5t20.5 7q54 25 117 34q26 5 50 4.5t48 -2.5q10 -2 19 0t14 15q-13 36 -40.5 51t-64.5 17q-23 1 -45.5 -3.5t-45.5 -10.5q-32 -8 -54.5 -28t-39.5 -46q-6 -9 -9.5 -19z" />
<glyph unicode="&#xf704;" d="M-1146 1016q7 30 18 58t27 52.5t38 44.5t51 35t60.5 23t64.5 11q32 2 64.5 2t64.5 -8q4 -2 8.5 -1t7.5 1q8 5 9 11t0 12q-4 37 -5.5 74t-9.5 74q-4 16 -5.5 33t-2.5 34q-1 8 2.5 17t5.5 17q20 8 37.5 7t31.5 -1q16 -8 24 -19.5t12.5 -24t9 -24t14.5 -18.5q10 -73 22 -141 q6 0 11.5 -0.5t12.5 -0.5q11 26 6 50t-9 48q-2 23 -8.5 45.5t-20.5 42.5q4 10 7.5 19.5t6.5 17.5q20 9 38.5 8.5t32.5 -2.5l49 -24.5l51 -25.5q7 -8 10 -23.5t5 -32.5q2 -28 4.5 -56t4.5 -55q2 -33 9.5 -64t18.5 -62q8 -20 10.5 -42t-4.5 -46q-5 -9 -12 -19t-15 -22v-46 q-4 -5 -6.5 -9t-5.5 -7q-14 -11 -27.5 -21t-27.5 -21q-11 -4 -21.5 -3t-20.5 4t-19.5 7.5t-19.5 7.5q-28 -8 -54.5 -10.5t-49.5 8.5q-13 7 -20 16t-10.5 19.5t-6.5 20.5t-7 19q-15 11 -30 14t-31 1q-22 -2 -43 -2h-43q-23 0 -45.5 -6t-45.5 -12q-20 -6 -40 -14t-41 -16 q-66 -28 -129 -5q-16 12 -13 30zM-1040.5 1074q-3.5 -10 4.5 -21q2 -1 3 -2t2 -1q11 3 21.5 5t20.5 7q54 25 117 34q26 5 50 4.5t48 -2.5q10 -2 19 0t14 15q-13 36 -40.5 51t-64.5 17q-23 1 -45.5 -3.5t-45.5 -10.5q-32 -8 -54.5 -28t-39.5 -46q-6 -9 -9.5 -19z" />
<glyph unicode="&#x2020;" d="M-516 1023q1 62 1 123.5v123.5q0 28 4 55.5t10 54.5q3 14 11.5 25.5t28.5 20.5q8 -4 16 -7.5t15 -7.5q2 -5 3 -8t1 -6q-2 -16 -2.5 -31t-2.5 -31q-11 -59 -10.5 -116.5t2.5 -116.5q2 -31 1 -61.5t-2 -59.5q-6 -11 -11 -19l-10 -16h-30q-26 37 -25 77z" />
<glyph unicode="&#xf705;" d="M-516 1023q1 62 1 123.5v123.5q0 28 4 55.5t10 54.5q3 14 11.5 25.5t28.5 20.5q8 -4 16 -7.5t15 -7.5q2 -5 3 -8t1 -6q-2 -16 -2.5 -31t-2.5 -31q-11 -59 -10.5 -116.5t2.5 -116.5q2 -31 1 -61.5t-2 -59.5q-6 -11 -11 -19l-10 -16h-30q-26 37 -25 77z" />
<glyph unicode="&#x2021;" d="M-868 1492q2 25 9 49.5t30 43.5q3 2 6 5l6 6q4 3 8 6.5t9 6.5q31 24 69 24h11.5t11.5 -1q45 -9 75 -41q24 -24 43 -57q17 -29 12 -64q-3 -20 -7 -42t-10 -44q-5 -13 -5 -31q-1 -8 -2 -17t-2 -17q-2 -10 -2 -14q0 -2 -0.5 -2.5t-0.5 -1.5q-1 -2 -1 -6q0 -27 -5.5 -53.5 t-11.5 -51.5q-2 -6 -3 -12l-2 -12q-6 -21 -9 -43q2 5 4.5 9.5t5.5 9.5q3 7 6 13.5t7 13.5q6 14 13 28t15 28q13 24 24 48q2 5 5 9.5t5 9.5q4 8 8 16.5t8 16.5t7.5 15.5t7.5 15.5q1 2 2 3.5t2 3.5l1 2q0 1 1 1q7 9 13 22q22 38 28 72q3 14 11 27q9 18 14 39t7 49 q1 12 1.5 24.5t0.5 24.5q0 19 3 38.5t8 41.5q2 9 4 17.5t4 18.5q0 5 1 9t2 9l1 5l16 18l33 -7l3 -3q13 -10 16 -26q0 -2 0.5 -3t0.5 -3q3 -15 2 -26q-1 -20 -2.5 -45t-6.5 -51q-2 -8 -3.5 -16.5t-3.5 -16.5q-1 -5 -1.5 -9.5t-2.5 -9.5q0 -3 -1 -6t-1 -6q-2 -32 -10.5 -62.5 t-19.5 -61.5q-3 -8 -5.5 -14t-6.5 -14v-2q-2 -5 -4 -9.5t-4 -9.5l-12 -21l-9.5 -19t-8.5 -18q-6 -12 -12.5 -23t-12.5 -22q-5 -9 -9.5 -17.5t-9.5 -16.5q-12 -25 -23 -47.5t-19 -45.5q-5 -11 -11.5 -23t-14.5 -26q-5 -7 -9 -14t-9 -14q-4 -5 -6.5 -9t-6.5 -9 q-2 -4 -3.5 -7.5t-3.5 -6.5q-18 -37 -46 -80q-7 -7 -13 -21q-8 -14 -14.5 -27.5t-13.5 -27.5l-9 -19q-3 -5 -6.5 -11t-11.5 -11l-2 -1h-2q-8 -3 -15 -3q-10 0 -19 4l-4 1l-14 17v5v2v8q2 8 4.5 15.5t5.5 15.5q3 7 5 13q11 30 20.5 60.5t15.5 62.5v3v1q2 9 3 18.5t2 18.5 q2 9 2.5 18t2.5 18v4q1 3 1 6t2 7q3 20 7.5 42t9.5 45q3 14 5 27.5t3 27.5q0 7 1 13.5t3 12.5v5q-4 -1 -8 -1h-8q-65 0 -119 60q-12 13 -20.5 28t-16.5 29t-11.5 27.5t-6.5 28.5q-1 2 -1 9zM-797 1512q0 -13 0.5 -23t4.5 -19v-1q2 -5 3.5 -9.5t2.5 -9.5q3 -13 14 -28 q6 -6 9 -12q5 -8 11 -13.5t13 -11.5q16 -13 36 -14h6h11l11 14l4 2q2 0 2.5 0.5t2.5 0.5v2q2 6 3 13t4 14q5 14 7.5 27t4.5 26q4 30 -12 54q-4 6 -8.5 11.5t-9.5 10.5q-18 23 -42 27q-21 0 -34 -9q-11 -8 -20 -16.5t-19 -19.5q-5 -6 -5 -16z" />
<glyph unicode="&#xf706;" d="M-868 1492q2 25 9 49.5t30 43.5q3 2 6 5l6 6q4 3 8 6.5t9 6.5q31 24 69 24h11.5t11.5 -1q45 -9 75 -41q24 -24 43 -57q17 -29 12 -64q-3 -20 -7 -42t-10 -44q-5 -13 -5 -31q-1 -8 -2 -17t-2 -17q-2 -10 -2 -14q0 -2 -0.5 -2.5t-0.5 -1.5q-1 -2 -1 -6q0 -27 -5.5 -53.5 t-11.5 -51.5q-2 -6 -3 -12l-2 -12q-6 -21 -9 -43q2 5 4.5 9.5t5.5 9.5q3 7 6 13.5t7 13.5q6 14 13 28t15 28q13 24 24 48q2 5 5 9.5t5 9.5q4 8 8 16.5t8 16.5t7.5 15.5t7.5 15.5q1 2 2 3.5t2 3.5l1 2q0 1 1 1q7 9 13 22q22 38 28 72q3 14 11 27q9 18 14 39t7 49 q1 12 1.5 24.5t0.5 24.5q0 19 3 38.5t8 41.5q2 9 4 17.5t4 18.5q0 5 1 9t2 9l1 5l16 18l33 -7l3 -3q13 -10 16 -26q0 -2 0.5 -3t0.5 -3q3 -15 2 -26q-1 -20 -2.5 -45t-6.5 -51q-2 -8 -3.5 -16.5t-3.5 -16.5q-1 -5 -1.5 -9.5t-2.5 -9.5q0 -3 -1 -6t-1 -6q-2 -32 -10.5 -62.5 t-19.5 -61.5q-3 -8 -5.5 -14t-6.5 -14v-2q-2 -5 -4 -9.5t-4 -9.5l-12 -21l-9.5 -19t-8.5 -18q-6 -12 -12.5 -23t-12.5 -22q-5 -9 -9.5 -17.5t-9.5 -16.5q-12 -25 -23 -47.5t-19 -45.5q-5 -11 -11.5 -23t-14.5 -26q-5 -7 -9 -14t-9 -14q-4 -5 -6.5 -9t-6.5 -9 q-2 -4 -3.5 -7.5t-3.5 -6.5q-18 -37 -46 -80q-7 -7 -13 -21q-8 -14 -14.5 -27.5t-13.5 -27.5l-9 -19q-3 -5 -6.5 -11t-11.5 -11l-2 -1h-2q-8 -3 -15 -3q-10 0 -19 4l-4 1l-14 17v5v2v8q2 8 4.5 15.5t5.5 15.5q3 7 5 13q11 30 20.5 60.5t15.5 62.5v3v1q2 9 3 18.5t2 18.5 q2 9 2.5 18t2.5 18v4q1 3 1 6t2 7q3 20 7.5 42t9.5 45q3 14 5 27.5t3 27.5q0 7 1 13.5t3 12.5v5q-4 -1 -8 -1h-8q-65 0 -119 60q-12 13 -20.5 28t-16.5 29t-11.5 27.5t-6.5 28.5q-1 2 -1 9zM-797 1512q0 -13 0.5 -23t4.5 -19v-1q2 -5 3.5 -9.5t2.5 -9.5q3 -13 14 -28 q6 -6 9 -12q5 -8 11 -13.5t13 -11.5q16 -13 36 -14h6h11l11 14l4 2q2 0 2.5 0.5t2.5 0.5v2q2 6 3 13t4 14q5 14 7.5 27t4.5 26q4 30 -12 54q-4 6 -8.5 11.5t-9.5 10.5q-18 23 -42 27q-21 0 -34 -9q-11 -8 -20 -16.5t-19 -19.5q-5 -6 -5 -16z" />
<glyph unicode="&#x2022;" horiz-adv-x="702" d="M94 389q0 52 20.5 99t56 81.5t82 55t97.5 20.5q52 0 99 -20.5t81.5 -55t55 -81.5t20.5 -99q0 -51 -20.5 -97.5t-55 -82t-81.5 -56t-99 -20.5t-98.5 20.5t-81.5 55t-55.5 81t-20.5 99.5z" />
<glyph unicode="&#x2026;" horiz-adv-x="1079" d="M85 77.5q1 21.5 9 39.5t24 29.5t40 11.5q38 0 69 -16q8 -4 15 -8.5t14 -9.5q15 -13 21 -23q11 -17 13.5 -38t5.5 -41q2 -11 3 -26.5t-8 -25.5q-11 -11 -29 -13.5t-37.5 0t-38.5 8t-31 10.5q-21 9 -38 24.5t-25 37.5q-8 19 -7 40.5zM412.5 77.5q0.5 21.5 9 39.5t24.5 29.5 t39 11.5q38 0 70 -16q8 -4 15 -8.5t14 -9.5q15 -13 21 -23q11 -17 13.5 -38t5.5 -41q2 -11 3 -26.5t-8 -25.5q-11 -11 -29 -13.5t-37.5 0t-38.5 8t-31 10.5q-22 9 -38.5 24.5t-24.5 37.5q-8 19 -7.5 40.5zM768.5 77.5q0.5 21.5 9 39.5t24.5 29.5t39 11.5q18 0 36 -4t34 -12 q8 -4 15 -8.5t14 -9.5q15 -13 21 -23q11 -17 13.5 -38t5.5 -41q2 -11 3.5 -26.5t-8.5 -25.5q-11 -11 -29 -13.5t-37.5 0t-38 8t-30.5 10.5q-23 9 -39.5 24.5t-24.5 37.5q-8 19 -7.5 40.5z" />
<glyph unicode="&#x202f;" horiz-adv-x="460" />
<glyph unicode="&#x2030;" d="M-736 1221l1 5l1 2q1 3 2 6.5t4 7.5q18 21 42 21h2h8.5t8.5 -1h9h4l14 -13q4 0 7.5 -0.5t7.5 -0.5q8 0 16.5 1t16.5 2l16 2t16 1q7 2 17 4q7 0 15 3q1 3 1 7q1 6 1 12v12q-1 29 -1.5 56t-2.5 53q0 13 -1 25.5t-3 26.5q-2 8 -2 17t-1 17v15v5l14 16l39 -10l2 -4l1 -1 q0 -1 1 -1q4 -4 5 -9q1 -2 1.5 -5t1.5 -5q4 -14 7 -28.5t3 -30.5q0 -10 0.5 -19.5t1.5 -19.5q0 -5 0.5 -10.5t0.5 -10.5q1 -7 1 -14t1 -14v-12.5t1 -12.5v-3l3 -42q0 -2 0.5 -3t0.5 -3q2 -1 6 -1h3h6h24q24 0 44 3q4 1 7.5 1h6.5l9 1h26t26 1h1q5 0 8.5 -0.5t7.5 -0.5t6 -1 h3l2 -1q2 -1 3 -2t3 -2q7 -4 14 -9t13 -13l3 -3l-3 -22l-24 -14h-3h-3q-4 0 -6 1q-38 6 -65 6h-11t-11 -1q-12 -1 -24 -1.5t-24 -0.5h-21h-1q-6 -1 -12 -1.5t-11 -2.5q0 -2 -0.5 -2.5t-0.5 -1.5l3 -30l2 -20t1 -21q1 -12 1 -24t1 -24v-28v-7v-11t2 -10q8 -29 -4 -51 q0 -5 0.5 -8.5t0.5 -7.5q1 -11 1 -23t-2 -24l-2 -5l-3 -2q0 -1 -1 -1t-1 -1q-2 -2 -4.5 -3.5t-4.5 -3.5q-4 -2 -8.5 -4t-9.5 -2q-8 0 -14.5 4.5t-11.5 11.5l-2 1l-1 3q-3 11 -3.5 21.5t0.5 21.5v5q1 14 0.5 27t-2.5 27v2q-1 2 -1 9q0 18 -1 36t-3 35q-1 8 -1.5 15t-1.5 14 l-2 28t-3 28v9q-1 5 -3 11q-20 2 -37 -1q-15 -3 -30 -3.5t-29 -0.5h-8h-18q-30 0 -55 6q-7 2 -15 5.5t-14 13.5z" />
<glyph unicode="&#xf708;" d="M-736 1221l1 5l1 2q1 3 2 6.5t4 7.5q18 21 42 21h2h8.5t8.5 -1h9h4l14 -13q4 0 7.5 -0.5t7.5 -0.5q8 0 16.5 1t16.5 2l16 2t16 1q7 2 17 4q7 0 15 3q1 3 1 7q1 6 1 12v12q-1 29 -1.5 56t-2.5 53q0 13 -1 25.5t-3 26.5q-2 8 -2 17t-1 17v15v5l14 16l39 -10l2 -4l1 -1 q0 -1 1 -1q4 -4 5 -9q1 -2 1.5 -5t1.5 -5q4 -14 7 -28.5t3 -30.5q0 -10 0.5 -19.5t1.5 -19.5q0 -5 0.5 -10.5t0.5 -10.5q1 -7 1 -14t1 -14v-12.5t1 -12.5v-3l3 -42q0 -2 0.5 -3t0.5 -3q2 -1 6 -1h3h6h24q24 0 44 3q4 1 7.5 1h6.5l9 1h26t26 1h1q5 0 8.5 -0.5t7.5 -0.5t6 -1 h3l2 -1q2 -1 3 -2t3 -2q7 -4 14 -9t13 -13l3 -3l-3 -22l-24 -14h-3h-3q-4 0 -6 1q-38 6 -65 6h-11t-11 -1q-12 -1 -24 -1.5t-24 -0.5h-21h-1q-6 -1 -12 -1.5t-11 -2.5q0 -2 -0.5 -2.5t-0.5 -1.5l3 -30l2 -20t1 -21q1 -12 1 -24t1 -24v-28v-7v-11t2 -10q8 -29 -4 -51 q0 -5 0.5 -8.5t0.5 -7.5q1 -11 1 -23t-2 -24l-2 -5l-3 -2q0 -1 -1 -1t-1 -1q-2 -2 -4.5 -3.5t-4.5 -3.5q-4 -2 -8.5 -4t-9.5 -2q-8 0 -14.5 4.5t-11.5 11.5l-2 1l-1 3q-3 11 -3.5 21.5t0.5 21.5v5q1 14 0.5 27t-2.5 27v2q-1 2 -1 9q0 18 -1 36t-3 35q-1 8 -1.5 15t-1.5 14 l-2 28t-3 28v9q-1 5 -3 11q-20 2 -37 -1q-15 -3 -30 -3.5t-29 -0.5h-8h-18q-30 0 -55 6q-7 2 -15 5.5t-14 13.5z" />
<glyph unicode="&#x2039;" d="M-173 1011q1 62 1 123.5v123.5q0 28 4 55.5t10 54.5q3 14 11.5 25.5t28.5 20.5q8 -4 16 -7.5t15 -7.5q2 -5 3 -8t1 -6q-2 -16 -2.5 -31t-2.5 -31q-11 -59 -10.5 -116.5t2.5 -116.5q2 -31 1 -61.5t-2 -59.5q-6 -11 -11 -19l-10 -16h-30q-26 37 -25 77z" />
<glyph unicode="&#xf70a;" d="M-173 1011q1 62 1 123.5v123.5q0 28 4 55.5t10 54.5q3 14 11.5 25.5t28.5 20.5q8 -4 16 -7.5t15 -7.5q2 -5 3 -8t1 -6q-2 -16 -2.5 -31t-2.5 -31q-11 -59 -10.5 -116.5t2.5 -116.5q2 -31 1 -61.5t-2 -59.5q-6 -11 -11 -19l-10 -16h-30q-26 37 -25 77z" />
<glyph unicode="&#x203a;" d="M-400 1346q1 62 1 123.5v123.5q0 28 4 55.5t10 54.5q3 14 11.5 25.5t28.5 20.5q8 -4 16 -7.5t15 -7.5q2 -5 3 -8t1 -6q-2 -16 -2.5 -31t-2.5 -31q-11 -59 -10.5 -116.5t2.5 -116.5q2 -31 1 -61.5t-2 -59.5q-6 -11 -11 -19l-10 -16h-30q-26 37 -25 77z" />
<glyph unicode="&#xf713;" d="M-400 1346q1 62 1 123.5v123.5q0 28 4 55.5t10 54.5q3 14 11.5 25.5t28.5 20.5q8 -4 16 -7.5t15 -7.5q2 -5 3 -8t1 -6q-2 -16 -2.5 -31t-2.5 -31q-11 -59 -10.5 -116.5t2.5 -116.5q2 -31 1 -61.5t-2 -59.5q-6 -11 -11 -19l-10 -16h-30q-26 37 -25 77z" />
<glyph unicode="&#x205f;" horiz-adv-x="575" />
<glyph unicode="&#x20ac;" horiz-adv-x="882" d="M23 -280q13 35 27.5 69t37.5 64q20 26 43.5 47t54.5 29q29 37 48 75t27 83q6 35 14 69t16 69q1 6 1 12t1 11q-9 14 -18 26.5t-17 23.5q-4 24 2 45t7 44q5 9 10.5 18.5t11.5 17.5q5 8 11 15.5t12 15.5l24 12t24 13q10 1 19 1.5t19 0.5q9 0 18 -0.5t17 -1.5q32 -21 47 -50 t23 -63q11 -1 12 4.5t2 10.5q3 12 5 24.5t2 24.5q1 35 -11 79t-34 81q-7 5 -15.5 11t-17.5 12q-7 4 -14 7l-14 6q-34 -5 -61 -20.5t-50 -39.5q-44 -47 -73 -99q-5 -8 -10.5 -15.5t-10.5 -15.5q-22 3 -41 7.5t-33 18.5q-8 14 -9.5 27.5t0.5 27.5q6 34 11 67.5t13 66.5 q6 27 18.5 52.5t35.5 45.5q61 43 137 39h12.5t12.5 2q59 5 105 29t75 81q20 40 41 79t42 79q5 8 8 17t5 17q18 66 33 132q5 17 5 30q1 8 0.5 15.5t-0.5 14.5q-5 11 -10 20l-10 18q8 17 20.5 21t26.5 0q44 -12 67 -53q7 -26 5.5 -51.5t-6.5 -51.5q-3 -14 -6.5 -27t-5.5 -27 q-8 -48 -25.5 -92t-40.5 -86q-12 -22 -23 -44t-23 -44q-14 -27 -30.5 -53.5t-37.5 -53.5q-14 -7 -30.5 -14t-33.5 -15q-8 -4 -16.5 -6.5t-17 -5.5t-16 -8t-13.5 -14q11 -18 28 -26t33 -20q43 -42 65 -95t33 -111q9 -44 2 -86.5t-19 -84.5q-22 -79 -51 -155t-64 -150 q-4 -8 -9 -15t-10 -13q-17 -1 -28 -0.5t-19.5 3.5t-16.5 10.5t-20 19.5q-4 22 -2.5 44t3.5 44.5t4 46.5t0 49q-10 -16 -10.5 -28.5t-4.5 -23.5q-3 -10 -5 -20.5t-5 -20.5q-5 -24 -12 -48q-6 -22 -15 -41q-5 -11 -9.5 -22t-8.5 -20q-1 -13 4.5 -20.5t13.5 -12.5 q29 -17 52 -38.5t40 -46.5q10 -2 15 1t8 9q8 11 14.5 24t20.5 23q17 2 40 6q12 -6 24 -11t22 -10q11 -10 19 -21t15.5 -22.5t15.5 -21.5t19 -17q11 17 21 39.5t18 48t13 52.5t7 51q-5 7 -10.5 15.5t-12.5 17.5q-6 9 -12 17.5t-12 16.5q-5 20 -5 38.5t1 36.5q1 56 57 70 q9 2 18.5 1.5t18.5 1.5q8 -5 16 -9.5t16 -9.5q21 -14 31.5 -34t13.5 -44q6 -50 -6 -98q-5 -18 -9.5 -36t-9.5 -36q-10 -34 -17 -67.5t-7 -63.5q-10 -29 -18.5 -52.5t-17.5 -46.5q-6 -18 -12.5 -35t-22.5 -28q-17 -10 -33.5 -7.5t-33.5 7.5q-18 10 -30 25t-24 32 q-11 17 -20 35t-23 32q-19 -7 -24.5 -21.5t-12.5 -26.5q-8 -12 -14 -24.5t-14 -25.5q-25 -8 -45.5 -1t-40.5 24q-5 11 -8.5 22.5t-8.5 22.5q-12 26 -24.5 52.5t-25.5 52.5q-15 28 -45 29q-13 -3 -18.5 -12t-10.5 -19q-18 -32 -36 -64.5t-36 -64.5q-14 -23 -31.5 -41.5 t-46.5 -26.5q-18 5 -37 10t-33 22q-13 33 0 66z" />
<glyph unicode="&#xf700;" horiz-adv-x="882" d="M23 -280q13 35 27.5 69t37.5 64q20 26 43.5 47t54.5 29q29 37 48 75t27 83q6 35 14 69t16 69q1 6 1 12t1 11q-9 14 -18 26.5t-17 23.5q-4 24 2 45t7 44q5 9 10.5 18.5t11.5 17.5q5 8 11 15.5t12 15.5l24 12t24 13q10 1 19 1.5t19 0.5q9 0 18 -0.5t17 -1.5q32 -21 47 -50 t23 -63q11 -1 12 4.5t2 10.5q3 12 5 24.5t2 24.5q1 35 -11 79t-34 81q-7 5 -15.5 11t-17.5 12q-7 4 -14 7l-14 6q-34 -5 -61 -20.5t-50 -39.5q-44 -47 -73 -99q-5 -8 -10.5 -15.5t-10.5 -15.5q-22 3 -41 7.5t-33 18.5q-8 14 -9.5 27.5t0.5 27.5q6 34 11 67.5t13 66.5 q6 27 18.5 52.5t35.5 45.5q61 43 137 39h12.5t12.5 2q59 5 105 29t75 81q20 40 41 79t42 79q5 8 8 17t5 17q18 66 33 132q5 17 5 30q1 8 0.5 15.5t-0.5 14.5q-5 11 -10 20l-10 18q8 17 20.5 21t26.5 0q44 -12 67 -53q7 -26 5.5 -51.5t-6.5 -51.5q-3 -14 -6.5 -27t-5.5 -27 q-8 -48 -25.5 -92t-40.5 -86q-12 -22 -23 -44t-23 -44q-14 -27 -30.5 -53.5t-37.5 -53.5q-14 -7 -30.5 -14t-33.5 -15q-8 -4 -16.5 -6.5t-17 -5.5t-16 -8t-13.5 -14q11 -18 28 -26t33 -20q43 -42 65 -95t33 -111q9 -44 2 -86.5t-19 -84.5q-22 -79 -51 -155t-64 -150 q-4 -8 -9 -15t-10 -13q-17 -1 -28 -0.5t-19.5 3.5t-16.5 10.5t-20 19.5q-4 22 -2.5 44t3.5 44.5t4 46.5t0 49q-10 -16 -10.5 -28.5t-4.5 -23.5q-3 -10 -5 -20.5t-5 -20.5q-5 -24 -12 -48q-6 -22 -15 -41q-5 -11 -9.5 -22t-8.5 -20q-1 -13 4.5 -20.5t13.5 -12.5 q29 -17 52 -38.5t40 -46.5q10 -2 15 1t8 9q8 11 14.5 24t20.5 23q17 2 40 6q12 -6 24 -11t22 -10q11 -10 19 -21t15.5 -22.5t15.5 -21.5t19 -17q11 17 21 39.5t18 48t13 52.5t7 51q-5 7 -10.5 15.5t-12.5 17.5q-6 9 -12 17.5t-12 16.5q-5 20 -5 38.5t1 36.5q1 56 57 70 q9 2 18.5 1.5t18.5 1.5q8 -5 16 -9.5t16 -9.5q21 -14 31.5 -34t13.5 -44q6 -50 -6 -98q-5 -18 -9.5 -36t-9.5 -36q-10 -34 -17 -67.5t-7 -63.5q-10 -29 -18.5 -52.5t-17.5 -46.5q-6 -18 -12.5 -35t-22.5 -28q-17 -10 -33.5 -7.5t-33.5 7.5q-18 10 -30 25t-24 32 q-11 17 -20 35t-23 32q-19 -7 -24.5 -21.5t-12.5 -26.5q-8 -12 -14 -24.5t-14 -25.5q-25 -8 -45.5 -1t-40.5 24q-5 11 -8.5 22.5t-8.5 22.5q-12 26 -24.5 52.5t-25.5 52.5q-15 28 -45 29q-13 -3 -18.5 -12t-10.5 -19q-18 -32 -36 -64.5t-36 -64.5q-14 -23 -31.5 -41.5 t-46.5 -26.5q-18 5 -37 10t-33 22q-13 33 0 66z" />
<glyph unicode="&#x2122;" d="M-634 1214q1 2 1.5 7t3.5 10q28 51 68.5 83.5t97.5 43.5q32 6 64 7t64 -9q38 -10 63 -32.5t41 -56.5q13 -28 16 -57t-1 -58q-5 -28 -14.5 -53.5t-23.5 -51.5q-11 -22 -30.5 -33.5t-43.5 -14.5q-14 -2 -27.5 -2h-27.5q-50 1 -94.5 16t-88.5 35q-24 11 -39.5 27.5 t-18.5 33.5q-3 31 -5.5 55t-4.5 50zM-527 1222q-2 -26 4.5 -46t16 -37.5t21.5 -33t22 -32.5q6 -3 12.5 -6t13.5 -6q9 -4 17 -6t14 -4q31 -2 48.5 11.5t26.5 36.5q11 31 16 62.5t0 64.5q-3 23 -14 40.5t-28 32.5q-18 16 -39 13q-47 -8 -82 -29.5t-49 -60.5z" />
<glyph unicode="&#xf711;" d="M-634 1214q1 2 1.5 7t3.5 10q28 51 68.5 83.5t97.5 43.5q32 6 64 7t64 -9q38 -10 63 -32.5t41 -56.5q13 -28 16 -57t-1 -58q-5 -28 -14.5 -53.5t-23.5 -51.5q-11 -22 -30.5 -33.5t-43.5 -14.5q-14 -2 -27.5 -2h-27.5q-50 1 -94.5 16t-88.5 35q-24 11 -39.5 27.5 t-18.5 33.5q-3 31 -5.5 55t-4.5 50zM-527 1222q-2 -26 4.5 -46t16 -37.5t21.5 -33t22 -32.5q6 -3 12.5 -6t13.5 -6q9 -4 17 -6t14 -4q31 -2 48.5 11.5t26.5 36.5q11 31 16 62.5t0 64.5q-3 23 -14 40.5t-28 32.5q-18 16 -39 13q-47 -8 -82 -29.5t-49 -60.5z" />
<glyph unicode="&#x221a;" horiz-adv-x="1707" />
<glyph unicode="&#x25cc;" horiz-adv-x="1049" d="M96 430q0 19 14.5 33t34.5 14q17 0 32 -14t15 -33q0 -21 -14 -35.5t-33 -14.5q-20 0 -34.5 14.5t-14.5 35.5zM211 162q0 20 14 33.5t33 13.5q21 0 35 -13.5t14 -33.5t-14 -33.5t-35 -13.5q-19 0 -33 13.5t-14 33.5zM211 695q0 23 14 36t33 13q21 0 35 -13t14 -36 q0 -20 -14 -33.5t-35 -13.5q-19 0 -33 13.5t-14 33.5zM479 47q0 20 13.5 34t33.5 14q19 0 34 -14t15 -34q0 -19 -15 -33t-34 -14q-20 0 -33.5 14t-13.5 33zM479 810q0 20 13.5 33.5t33.5 13.5q19 0 34 -13.5t15 -33.5q0 -19 -15 -32.5t-34 -13.5q-20 0 -33.5 13.5 t-13.5 32.5zM744 162q0 20 14.5 33.5t34.5 13.5q18 0 32.5 -13.5t14.5 -33.5t-13.5 -33.5t-33.5 -13.5t-34.5 13.5t-14.5 33.5zM744 695q0 23 14.5 36t34.5 13q18 0 32.5 -13t14.5 -36q0 -20 -13.5 -33.5t-33.5 -13.5t-34.5 13.5t-14.5 33.5zM858 430q0 19 13.5 33t32.5 14 q21 0 35 -14t14 -33q0 -21 -13 -35.5t-36 -14.5q-19 0 -32.5 14.5t-13.5 35.5z" />
<glyph unicode="&#x25fc;" horiz-adv-x="760" d="M0 0v760h760v-760h-760z" />
<glyph unicode="&#xf701;" d="M-1118 1097.5q5 34.5 27 64.5q21 29 36.5 47.5t33.5 30t43 17t64 8.5q68 6 133 -5t128 -34q45 -17 83.5 -44.5t66.5 -69.5q13 -19 27.5 -37.5t18.5 -46.5q-4 -5 -6.5 -9t-4.5 -8q-17 -9 -35 -12t-37 -2q-20 0 -39.5 -2.5t-39.5 -8.5q-18 -6 -36 -6q-44 0 -87 -1t-86 4 q-45 5 -89 7t-89 2q-14 0 -28 0.5t-27 2.5q-11 1 -21.5 4.5t-21.5 6.5q-3 5 -7 10.5t-5 10.5q-7 36 -2 70.5zM-1040 1080q-7 -21 11 -36q26 -5 52.5 -3t52.5 4q10 8 18.5 15t14.5 12q25 6 46.5 0.5t41.5 -10.5q39 -9 74 -5q23 2 46 5t46 5q10 2 21.5 2.5t22.5 12.5 q-2 6 -3 10.5t-4 8.5q-48 72 -133 92q-36 9 -73 12t-74 1q-29 -2 -54.5 -13t-47.5 -28q-10 -8 -18 -16t-15 -14q-8 -16 -14 -29t-11 -26z" />
<glyph unicode="&#xf70c;" d="M-830 1180v15q1 9 1 18.5t2 18.5q2 12 2 24.5v25.5v1q-1 13 1 26t6 30q6 28 16 62t27 69l1 3l2 1q8 5 14.5 11t13.5 11q15 13 30.5 25t31.5 21l1 1q23 10 44 10q28 0 55 -17l2 -1l2 -2q4 -6 6 -10q5 -7 8.5 -13t8.5 -13q2 -4 5 -7.5t6 -8.5t6.5 -10t6.5 -10 q12 -18 20 -38q2 -8 11 -22v2q2 4 3 7q23 54 56 91q26 31 65 38q9 2 17.5 3t16.5 3l14 2h1q4 -1 10 -1q5 -1 8.5 -1.5t7.5 -0.5q38 -3 64 -32q21 -24 30 -49q3 -8 6 -15t5 -15q4 -10 7.5 -20t7.5 -20q8 -26 12.5 -49.5t7.5 -44.5q1 -7 1.5 -15t0.5 -16q0 -12 0.5 -24.5 t0.5 -24.5v-27q5 11 9 21t9 20q7 17 10 39q5 32 15.5 61t21.5 56q2 5 4.5 9.5t4.5 9.5l12 27q5 12 5 21q9 76 42 144q12 24 15 50q3 38 23 86q16 35 17 66q2 23 8 44.5t17 46.5q4 11 8 21t9 21q2 4 3.5 7.5t3.5 7.5q4 10 11 20t21 16l3 2l4 -1q8 -2 15.5 -5.5t14.5 -7.5 l3 -2l2 -2q7 -12 4 -21t-6 -14l-2 -3l-21 -39q-13 -27 -25 -63q-5 -17 -7 -42q-1 -5 -1 -14q-5 -29 -13 -47q-15 -31 -21 -64l-1 -1q-1 -8 -2.5 -15t-1.5 -14q-3 -25 -14 -47q-14 -31 -26 -66t-13 -74q-1 -6 -2 -11.5t-3 -10.5q-5 -10 -10 -21.5t-11 -23.5q-27 -50 -39 -112 q-1 -3 -1 -6t-1 -5q-1 -5 -1.5 -9.5t-1.5 -9.5h-1q-2 -13 -7 -23q-3 -6 -5.5 -12.5t-5.5 -13.5q-5 -11 -10 -22.5t-12 -22.5q-2 -2 -2 -6l-1 -1q-2 -7 -4 -13.5t-4 -13.5q-13 -37 -20 -73q-1 -5 -2 -9t-3 -9q-1 -2 -1 -4t-1 -4l-1 -4l-19 -15h-4h-4h-4q-5 0 -8 1 q-28 6 -31 35q-1 5 -1.5 10t-0.5 10l-4 44t-1 44v54t-1 48q0 14 -1 28t-3 28q0 4 -0.5 7.5t-0.5 7.5q-3 27 -10 56t-20 63q-6 17 -14 32.5t-22 28.5q-6 3 -14 3h-4q-26 -2 -47 -10q-17 -6 -27 -19q-6 -8 -13 -17.5t-13 -18.5q-29 -44 -30 -87q0 -11 -2.5 -20.5t-4.5 -19.5 q-4 -13 -4 -25v-28v-53q1 -6 1.5 -12.5t1.5 -13.5q0 -3 0.5 -6t0.5 -5v-2v-1q-1 -7 -1 -13.5t-1 -14.5q-2 -17 -2.5 -32t-2.5 -31q-1 -11 0 -22t3 -22q1 -11 2 -21.5t0 -21.5v-2l-1 -2q-5 -9 -11.5 -12.5t-11.5 -4.5q-8 -2 -10 -2q-5 0 -9 1.5t-13 4.5l-3 1l-2 2 q-8 8 -10 17.5t-4 18.5q-1 12 -1.5 24t-0.5 23v12t1 12q0 19 0.5 38t-1.5 39l-3 33q-1 4 -1 7.5t-1 6.5l-2 25q-2 20 -4.5 40.5t-4.5 41.5q0 3 -2 11q-1 2 -1 6q-2 8 -3 11q-1 6 -1.5 12t-2.5 11q-5 23 -14 48.5t-26 47.5q-10 13 -16 23q-4 6 -8 10q-7 10 -16 18q-5 1 -9 -1 t-7.5 -4.5t-7.5 -5.5q-15 -11 -27.5 -25t-25.5 -28q-1 -1 -5 -7q-5 -5 -8 -11t-5 -12q-2 -5 -2.5 -8.5t-2.5 -7.5q-5 -19 -10.5 -37.5t-7.5 -38.5q-2 -15 -3.5 -29.5t-1.5 -28.5q-1 -18 -1 -37v-37v-6q0 -6 0.5 -11.5t1.5 -10.5q3 1 6.5 2t7.5 2q12 5 24 5h1h1q5 0 8 -1 q4 0 7.5 -0.5t6.5 -0.5h1q33 0 53 -27l1 -2l1 -1q5 -16 10 -33t4 -35q-1 -9 -2.5 -18t-7.5 -19l-18 -30q-16 -25 -45 -28q-10 -2 -19.5 -1.5t-18.5 1.5q-32 4 -51 36q-6 11 -12.5 25t-11.5 29q-5 16 -8.5 32t-4.5 33q0 6 -0.5 11.5t-1.5 12.5q-3 16 -3 36zM-733.5 1075 q0.5 -10 2.5 -21v-7q1 -3 2.5 -6.5t3.5 -5.5q5 -8 13 -14q3 2 8 10q9 20 8 41q-2 22 -10 36h-5q-11 0 -20 -13q-3 -10 -2.5 -20z" />
<glyph unicode="&#xf70e;" d="M-349 1052q2 13 4 25l4 24q5 39 23.5 70.5t46.5 57.5q8 8 16.5 14t14.5 11q28 13 55 19.5t55 9.5q42 4 82.5 12t81.5 19q33 9 66.5 14t67.5 10q2 1 5.5 0t5.5 -2q5 -2 8.5 -5.5t8.5 -7.5q-1 -10 -2 -20.5t-2 -18.5q-20 -21 -43 -29.5t-48 -12.5q-21 -2 -42.5 -5.5 t-41.5 -12.5q-30 -14 -61.5 -20.5t-64.5 -8.5q-22 -2 -43 -4.5t-43 -5.5q-4 0 -6.5 -3.5t-6.5 -7.5q19 -14 35.5 -27t33.5 -26q22 -45 4 -96q-11 -11 -23 -24.5t-25 -27.5q-16 -5 -32 -10.5t-33 -10.5q-15 4 -26 6.5t-21 7.5q-60 23 -54 86z" />
<glyph unicode="&#xf70f;" horiz-adv-x="1027" d="M60 626q31 63 73 117.5t108 89.5q32 17 63.5 32t66.5 24q41 11 80 8.5t80 -19.5q15 -14 32 -29.5t34 -31.5q35 -34 51.5 -75.5t19.5 -89.5q1 -14 0.5 -28t-2.5 -27q-2 -35 -5 -68.5t-8 -67.5q-2 -21 -6 -42t-8 -43q-5 -26 -6.5 -51.5t-1.5 -51.5q0 -29 -2.5 -56.5 t-4.5 -54.5q-1 -8 -0.5 -16t0.5 -16q12 -7 23 -8t22.5 0t22.5 3.5t23 2.5q4 11 7 19.5t4 16.5q3 22 0 44q-7 49 -6 98t4 98q4 70 6 139t12 138q6 43 17.5 84.5t26.5 82.5q9 23 19.5 45t21.5 44q6 13 17 21t26 9q14 1 24.5 -4.5t27.5 -22.5q-2 -17 -9.5 -32.5t-15.5 -30.5 q-29 -54 -42.5 -111.5t-24.5 -117.5q-11 -57 -13 -114t-2 -114t0.5 -114t2.5 -114q0 -20 3 -39.5t5 -39.5q1 -9 1.5 -18t0.5 -14q-6 -15 -14.5 -21.5t-19.5 -8.5q-16 -4 -31.5 -4.5t-29.5 5.5q-25 9 -48.5 7.5t-48.5 -7.5q-14 -3 -27.5 -5t-27.5 -3q-11 -1 -21.5 1t-21.5 4 q-4 9 -8 17.5t-5 16.5q-2 38 0 74q5 51 10.5 101t10.5 101q5 44 10 86t9 85q5 47 7 92.5t-6 93.5q-15 33 -38.5 58.5t-54.5 45.5q-46 30 -100 9q-45 -18 -83 -45t-65 -66q1 -11 6 -13.5t11 -2.5q19 1 37.5 0.5t35.5 -6.5q15 -11 24 -18t15 -13t11 -14t13 -22q1 -17 -3 -33 t-9 -32q-13 -45 -18.5 -90.5t-12.5 -92.5q-2 -7 0 -14.5t3 -16.5q7 -2 13 -4t12 -2q33 0 55.5 -16t37.5 -48q11 -69 -29 -133q-17 -26 -37 -49q-5 -7 -12.5 -13t-15.5 -10q-18 -10 -41 -15q-8 -2 -17 -1t-17 1q-24 19 -34 43t-15 50q-6 26 -7.5 53.5t-0.5 56.5 q2 71 13 140.5t28 138.5q5 17 7.5 33t1.5 33q-8 20 -22 26.5t-32 3.5q-26 -5 -46 -17q-38 -22 -84 -25q-14 3 -23.5 8.5t-12.5 21.5zM342.5 236q0.5 -4 11.5 -14q6 19 5.5 23t-10.5 10q-7 -15 -6.5 -19z" />
<glyph unicode="&#xf715;" d="M-621 1452v15q1 9 1 18.5t2 18.5q2 12 2 24.5v25.5v1q-1 13 1 26t6 30q6 28 16 62t27 69l1 3l2 1q8 5 14.5 11t13.5 11q15 13 30.5 25t31.5 21l1 1q23 10 44 10q28 0 55 -17l2 -1l2 -2q4 -6 6 -10q5 -7 8.5 -13t8.5 -13q2 -4 5 -7.5t6 -8.5t6.5 -10t6.5 -10 q12 -18 20 -38q2 -8 11 -22v2q2 4 3 7q23 54 56 91q26 31 65 38q9 2 17.5 3t16.5 3l14 2h1q4 -1 10 -1q5 -1 8.5 -1.5t7.5 -0.5q38 -3 64 -32q21 -24 30 -49q3 -8 6 -15t5 -15q4 -10 7.5 -20t7.5 -20q8 -26 12.5 -49.5t7.5 -44.5q1 -7 1.5 -15t0.5 -16q0 -12 0.5 -24.5 t0.5 -24.5v-27q5 11 9 21t9 20q7 17 10 39q5 32 15.5 61t21.5 56q2 5 4.5 9.5t4.5 9.5l12 27q5 12 5 21q9 76 42 144q12 24 15 50q3 38 23 86q16 35 17 66q2 23 8 44.5t17 46.5q4 11 8 21t9 21q2 4 3.5 7.5t3.5 7.5q4 10 11 20t21 16l3 2l4 -1q8 -2 15.5 -5.5t14.5 -7.5 l3 -2l2 -2q7 -12 4 -21t-6 -14l-2 -3l-21 -39q-13 -27 -25 -63q-5 -17 -7 -42q-1 -5 -1 -14q-5 -29 -13 -47q-15 -31 -21 -64l-1 -1q-1 -8 -2.5 -15t-1.5 -14q-3 -25 -14 -47q-14 -31 -26 -66t-13 -74q-1 -6 -2 -11.5t-3 -10.5q-5 -10 -10 -21.5t-11 -23.5q-27 -50 -39 -112 q-1 -3 -1 -6t-1 -5q-1 -5 -1.5 -9.5t-1.5 -9.5h-1q-2 -13 -7 -23q-3 -6 -5.5 -12.5t-5.5 -13.5q-5 -11 -10 -22.5t-12 -22.5q-2 -2 -2 -6l-1 -1q-2 -7 -4 -13.5t-4 -13.5q-13 -37 -20 -73q-1 -5 -2 -9t-3 -9q-1 -2 -1 -4t-1 -4l-1 -4l-19 -15h-4h-4h-4q-5 0 -8 1 q-28 6 -31 35q-1 5 -1.5 10t-0.5 10l-4 44t-1 44v54t-1 48q0 14 -1 28t-3 28q0 4 -0.5 7.5t-0.5 7.5q-3 27 -10 56t-20 63q-6 17 -14 32.5t-22 28.5q-6 3 -14 3h-4q-26 -2 -47 -10q-17 -6 -27 -19q-6 -8 -13 -17.5t-13 -18.5q-29 -44 -30 -87q0 -11 -2.5 -20.5t-4.5 -19.5 q-4 -13 -4 -25v-28v-53q1 -6 1.5 -12.5t1.5 -13.5q0 -3 0.5 -6t0.5 -5v-2v-1q-1 -7 -1 -13.5t-1 -14.5q-2 -17 -2.5 -32t-2.5 -31q-1 -11 0 -22t3 -22q1 -11 2 -21.5t0 -21.5v-2l-1 -2q-5 -9 -11.5 -12.5t-11.5 -4.5q-8 -2 -10 -2q-5 0 -9 1.5t-13 4.5l-3 1l-2 2 q-8 8 -10 17.5t-4 18.5q-1 12 -1.5 24t-0.5 23v12t1 12q0 19 0.5 38t-1.5 39l-3 33q-1 4 -1 7.5t-1 6.5l-2 25q-2 20 -4.5 40.5t-4.5 41.5q0 3 -2 11q-1 2 -1 6q-2 8 -3 11q-1 6 -1.5 12t-2.5 11q-5 23 -14 48.5t-26 47.5q-10 13 -16 23q-4 6 -8 10q-7 10 -16 18q-5 1 -9 -1 t-7.5 -4.5t-7.5 -5.5q-15 -11 -27.5 -25t-25.5 -28q-1 -1 -5 -7q-5 -5 -8 -11t-5 -12q-2 -5 -2.5 -8.5t-2.5 -7.5q-5 -19 -10.5 -37.5t-7.5 -38.5q-2 -15 -3.5 -29.5t-1.5 -28.5q-1 -18 -1 -37v-37v-6q0 -6 0.5 -11.5t1.5 -10.5q3 1 6.5 2t7.5 2q12 5 24 5h1h1q5 0 8 -1 q4 0 7.5 -0.5t6.5 -0.5h1q33 0 53 -27l1 -2l1 -1q5 -16 10 -33t4 -35q-1 -9 -2.5 -18t-7.5 -19l-18 -30q-16 -25 -45 -28q-10 -2 -19.5 -1.5t-18.5 1.5q-32 4 -51 36q-6 11 -12.5 25t-11.5 29q-5 16 -8.5 32t-4.5 33q0 6 -0.5 11.5t-1.5 12.5q-3 16 -3 36zM-524.5 1347 q0.5 -10 2.5 -21v-7q1 -3 2.5 -6.5t3.5 -5.5q5 -8 13 -14q3 2 8 10q9 20 8 41q-2 22 -10 36h-5q-11 0 -20 -13q-3 -10 -2.5 -20z" />
<glyph unicode="&#xf718;" d="M-396 -603q-12 65 24 116q25 25 54 32t61 1q20 -4 39.5 -8t38.5 -11q68 -24 85 -98q2 -11 4 -21t3 -21q3 -51 5.5 -101.5t-3.5 -101.5q-5 -40 -5 -80.5t10 -82.5q-3 -9 -4.5 -19t-3.5 -19t-7 -17.5t-15 -15.5q-17 -5 -33.5 -3.5t-33.5 6.5q-14 14 -17 29t-3 31 q0 32 0.5 64.5t1.5 64.5q2 27 3.5 54.5t3.5 55.5q0 13 -1 24.5t-3 22.5q-5 2 -8 4.5t-5 1.5q-35 -14 -69.5 -11.5t-69.5 17.5q-23 14 -35 37t-17 49zM-302.5 -593q-1.5 -20 8.5 -38q2 -3 10 -7q19 10 24 14.5t11 15.5q8 14 9.5 28.5t-4.5 32.5q-9 7 -26 20 q-8 -6 -13.5 -11.5t-13.5 -11.5q-4 -23 -5.5 -43z" />
<glyph unicode="&#xf719;" d="M-653 -614q2 42 12.5 79.5t31.5 71.5q29 15 57.5 17.5t60.5 -10.5q34 -23 52 -58t27 -75q9 -42 14 -85t1 -87q-2 -15 -4 -30.5t-6 -30.5q-5 -26 -9 -51t-1 -51q5 -2 7.5 -5t4.5 -2q57 5 110 12q4 0 6.5 1t5.5 3q12 9 13 21t1 24v167v83.5t-1 83.5q0 14 0.5 28t0.5 28 q6 6 11 11.5t9 10.5q33 10 63 1q17 -11 22 -27t4 -33q-1 -35 -2 -71t-4 -71q-5 -54 -6 -108t7 -108l15 -129q1 -9 1 -18.5v-18.5q0 -3 -1.5 -6t-3.5 -8q-14 -14 -31 -14.5t-33 -0.5q-23 5 -35 19t-23 29q-11 14 -24 24t-35 12q-20 -5 -41 -13.5t-38 -25.5q-21 -20 -45 -27.5 t-55 -4.5l-12 14l-12 14q0 16 2 21q14 55 20 109.5t11 110.5q2 17 3 34t1 34q0 6 -1 12.5t-3 12.5q-1 2 -3.5 5t-7.5 8q-28 0 -54 -5t-51 3q-27 14 -30 45q-3 15 -2 25z" />
<glyph unicode="&#xf71a;" d="M-283 -519.5q1 21.5 9 39.5t24 29.5t40 11.5q38 0 69 -16q8 -4 15 -8.5t14 -9.5q15 -13 21 -23q11 -17 13.5 -38t5.5 -41q2 -11 3 -26.5t-8 -25.5q-11 -11 -29 -13.5t-37.5 0t-38.5 8t-31 10.5q-21 9 -38 24.5t-25 37.5q-8 19 -7 40.5z" />
<glyph horiz-adv-x="804" d="M37.5 577q-2.5 35 7.5 70q5 21 16 39.5t25 34.5q6 7 14 12t16 9q11 5 23 9t23 7q17 -2 34 -4.5t34 -6.5q43 -9 57 -50q11 -35 19.5 -68.5t8.5 -70.5q0 -31 3.5 -61t6.5 -61q0 -6 2.5 -11.5t3.5 -9.5q13 -8 23.5 -5.5t20.5 3.5q80 7 115 -65q10 -20 18 -39.5t16 -39.5 q8 -17 15 -34t15 -34q2 -2 7 -4t12 -4q1 17 2 33t1 31v142q0 32 1 64.5t6 64.5q2 18 2 36.5t1 36.5q1 38 1.5 74.5t1.5 74.5v18t-11 16q-3 -1 -7 -2.5t-8 -3.5q-5 -5 -8.5 -9t-8.5 -9q-29 -32 -63.5 -49.5t-81.5 -19.5q-20 5 -43.5 9.5t-43.5 20.5q-16 20 -24.5 41.5 t-11.5 44t-1.5 45.5t4.5 46q10 67 46 118.5t89 93.5q11 9 24.5 13t27.5 5q28 2 55.5 2t54.5 -7q9 -2 18.5 -2t21.5 -2q19 34 29.5 66.5t22.5 64.5q12 34 23.5 67t24.5 66q6 15 10.5 31.5t9.5 33t12 32t19 29.5h50q6 -8 13 -15t12 -14q2 -27 -4.5 -49t-14.5 -44 q-12 -32 -25 -63t-24 -63q-20 -59 -39 -117t-39 -117q-5 -14 -9 -29.5t-9 -30.5q8 -89 6 -178t-4 -179q-1 -17 -3 -33.5t-4 -33.5q-1 -34 -1.5 -68t-0.5 -68q-1 -54 -1 -107.5t-2 -108.5q-2 -52 -5 -104l-6 -104q-2 -11 -4 -21t-4 -18q-19 -13 -35.5 -11t-30.5 4 q-23 11 -35.5 28.5t-20.5 37.5q-14 35 -26 69.5t-24 69.5q-14 38 -28 75t-30 74q-2 5 -6.5 9.5l-9.5 9.5q-5 -5 -8.5 -8t-4.5 -7q-5 -17 -9.5 -33t-6.5 -33q-7 -43 -12.5 -85.5t-11.5 -84.5q-2 -10 -5.5 -18t-12.5 -13q-3 -1 -6.5 -2t-5.5 0q-14 2 -27 5.5t-26 7.5 q-4 6 -7.5 11.5t-5.5 11.5q-8 33 -14.5 65.5t-6.5 67.5q-1 48 -3.5 95.5t-5.5 95.5q-1 12 -2.5 24t-13.5 23q-11 -4 -22.5 -7t-24.5 -7q-16 4 -31.5 8t-28.5 7q-21 16 -33 34t-19 39q-11 35 -13.5 70zM165 670q18 -12 32 11q-2 3 -5.5 7t-5.5 9q-14 -8 -16.5 -11.5 t-4.5 -15.5zM371 830q0 -23 5 -46q2 -9 6 -16.5t14 -11.5q14 -2 23.5 5t18.5 16q42 42 72 90.5t55 102.5q3 7 4 14.5t3 15.5q-5 20 -9.5 38.5t-21.5 32.5q-21 3 -37.5 -3t-31.5 -19q-78 -70 -97 -173q-4 -23 -4 -46z" />
<glyph horiz-adv-x="638" d="M-593 1168q0 2 1 7.5t4 10.5q28 51 68.5 83t97.5 44q32 6 64 7t65 -9q37 -10 62 -32.5t41 -56.5q13 -28 16 -57t-2 -58q-4 -28 -14 -54t-22 -51q-12 -22 -32 -33.5t-43 -15.5q-14 -2 -28 -1.5t-28 0.5q-49 1 -94 16t-89 35q-23 11 -38.5 27.5t-18.5 33.5q-3 32 -5.5 55 t-4.5 49zM-486 1177q-2 -26 4 -46.5t15.5 -37.5t21.5 -33t22 -32q6 -2 13 -5.5t14 -6.5q8 -3 16.5 -6t14.5 -5q30 -2 48 12t27 37q11 30 16 62t0 65q-4 23 -14.5 40.5t-27.5 32.5q-18 16 -40 13q-47 -8 -81.5 -29.5t-48.5 -60.5zM150 636q29 49 63.5 86t81.5 60 q42 21 83.5 18.5t81.5 -27.5q8 -5 15.5 -10.5t13.5 -10.5q26 -36 36.5 -76t12.5 -82q1 -47 0.5 -93t-8.5 -93q-5 -29 -4.5 -58.5t5.5 -58.5q7 -34 5 -67.5t-17 -65.5q-23 -12 -44 -12.5t-44 18.5q-2 9 -4 19t-3 21v84t1 84q1 27 4 54.5t5 55.5q2 29 2.5 59t1.5 59 q1 23 -5.5 45.5t-14.5 44.5q-5 15 -14.5 26.5t-29.5 18.5q-21 -5 -37 -15.5t-29.5 -24t-26 -29t-25.5 -30.5v-44q-28 -31 -71 -7q-7 10 -15.5 22.5t-19.5 28.5z" />
<glyph d="M-653 1120q0 81 109 133q-31 24 -31 59q0 34 22 63.5t57 51t79 33.5t88 12q32 0 63.5 -4.5t63.5 -15.5l20 -9v-65q-26 9 -45 15.5t-35.5 10t-32 5.5t-34.5 2q-28 0 -60.5 -8t-60 -22t-46 -32t-18.5 -37q0 -24 76 -43l25 -8v-51h-33q-2 0 -8.5 1t-11.5 1q-22 0 -44 -10.5 t-39.5 -25t-28.5 -30.5t-11 -26q0 -32 28 -53t70 -21q85 0 119 61l8 17h65l-20 -45q-51 -94 -172 -94q-36 0 -65.5 10.5t-51 28.5t-33.5 42.5t-12 53.5z" />
</font>
</defs>
</svg>
