<?xml version="1.0" standalone="no"?>
<!DOCTYPE svg PUBLIC "-//W3C//DTD SVG 1.1//EN" "http://www.w3.org/Graphics/SVG/1.1/DTD/svg11.dtd" >
<svg xmlns="http://www.w3.org/2000/svg" xmlns:xlink="http://www.w3.org/1999/xlink" version="1.1">
<metadata></metadata>
<defs>
<font id="patiparnpatiparn" horiz-adv-x="0" >
<font-face units-per-em="2048" ascent="1638" descent="-410" />
<missing-glyph horiz-adv-x="690" />
<glyph unicode="&#x3b;&#x3b;For&#x20;Education&#x20;Used&#x20;Only&#x3b;&#x3b;" horiz-adv-x="1296" d="M96 231v701q0 48 20.5 90.5t57.5 73.5t89 49t116 18h559q54 0 101.5 -18.5t83.5 -50.5t56.5 -74t20.5 -88v-701q0 -50 -20.5 -92t-57.5 -73t-89 -48.5t-116 -17.5h-538q-64 0 -116 17.5t-89 48.5t-57.5 73t-20.5 92zM160 231q0 -34 14.5 -64.5t42.5 -54t68.5 -37.5 t93.5 -14h538q52 0 93.5 14t70 37.5t43.5 54t15 64.5v701q0 34 -15.5 64.5t-42.5 54t-64 37.5t-79 14h-559q-53 0 -93.5 -14t-68.5 -37.5t-42.5 -54t-14.5 -64.5v-701zM338 430v270q0 43 16.5 81t45 66t67 44t82.5 16h385v-61h-385q-32 0 -59 -11.5t-47.5 -31.5t-32 -46.5 t-11.5 -56.5v-270q0 -29 12 -54.5t32.5 -45.5t47.5 -31.5t58 -11.5h389v-62h-389q-43 0 -81.5 16t-67 43.5t-45.5 65t-17 80.5z" />
<glyph unicode="&#x3b;&#x3b;Registered&#x3b;&#x3b;" horiz-adv-x="1296" d="M96 231v701q0 48 20.5 90.5t57.5 73.5t89 49t116 18h559q54 0 101.5 -18.5t83.5 -50.5t56.5 -74t20.5 -88v-701q0 -50 -20.5 -92t-57.5 -73t-89 -48.5t-116 -17.5h-538q-64 0 -116 17.5t-89 48.5t-57.5 73t-20.5 92zM160 231q0 -34 14.5 -64.5t42.5 -54t68.5 -37.5 t93.5 -14h538q52 0 93.5 14t70 37.5t43.5 54t15 64.5v701q0 34 -15.5 64.5t-42.5 54t-64 37.5t-79 14h-559q-53 0 -93.5 -14t-68.5 -37.5t-42.5 -54t-14.5 -64.5v-701zM326 227v697h473q30 0 59 -11t52.5 -31t38 -47t14.5 -59v-86q0 -31 -14 -58t-36.5 -46.5t-52.5 -31 t-61 -11.5h-13l271 -316h-76l-283 316h-241v63h342q21 0 39 7t31.5 19t21.5 27t8 31v86q0 16 -7.5 31t-21 26t-32 18t-39.5 7h-410v-631h-63z" />
<glyph unicode="&#x3b;&#x3b;Trademark&#x3b;&#x3b;" horiz-adv-x="1938" d="M66 1104v61h864v-61h-401v-520h-62v520h-401zM1008 584v583h64l370 -512l369 512h61v-583h-61v493l-371 -522l-368 522v-493h-64z" />
<glyph unicode="&#x3b;&#x3b;Multiply&#x3b;&#x3b;" horiz-adv-x="1069" d="M160 893h88l287 -283l288 283h86l-329 -326l307 -303h-88l-264 260l-263 -260h-88l308 303z" />
<glyph unicode="&#x3b;&#x3b;Divide&#x3b;&#x3b;" horiz-adv-x="1292" d="M215 545v61h862v-61h-862zM586 307q0 23 16.5 39t36.5 16q23 0 39 -16t16 -39t-15 -39t-40 -16q-20 0 -36.5 16t-16.5 39zM586 864q0 23 16.5 39.5t36.5 16.5q23 0 39 -16.5t16 -39.5q0 -20 -15 -36.5t-40 -16.5q-20 0 -36.5 16.5t-16.5 36.5z" />
<glyph unicode="&#x2018;&#x2018;" horiz-adv-x="655" d="M96 934q0 86 41 143.5t131 89.5q6 2 15 2q8 0 12 -3.5t4 -7.5q0 -15 -14 -23q-28 -15 -47.5 -27t-32.5 -24.5t-21.5 -26.5t-13.5 -33h18q18 0 34 -7t28.5 -19t20 -28.5t7.5 -35.5q0 -18 -7 -34.5t-19 -29t-28.5 -19.5t-35.5 -7q-39 0 -65.5 26.5t-26.5 63.5zM356 934 q0 86 41 143.5t131 89.5q6 2 15 2q16 0 16 -10v-4q0 -12 -14 -20q-28 -15 -47.5 -27t-32.5 -24.5t-21.5 -26.5t-13.5 -33h18q18 0 34.5 -7t29 -19t20 -28.5t7.5 -35.5q0 -18 -7.5 -34.5t-20 -29t-29 -19.5t-34.5 -7q-39 0 -65.5 26.5t-26.5 63.5z" />
<glyph unicode="&#x2019;&#x2019;" horiz-adv-x="655" d="M96 856q0 14 17 23q27 15 46 27t32 24t21 25.5t13 31.5h-16q-39 0 -65.5 26.5t-26.5 65.5q0 37 26.5 63.5t65.5 26.5q18 0 34 -7t28.5 -19.5t20 -29t7.5 -34.5q0 -88 -40 -144t-132 -89q-6 -2 -12 -2q-19 0 -19 12zM356 856q0 14 17 23q27 15 46 27t32 24t21 25.5 t13 31.5h-16q-39 0 -65.5 26.5t-26.5 65.5q0 37 26.5 63.5t65.5 26.5q18 0 34 -7t28.5 -19.5t20 -29t7.5 -34.5q0 -88 -40 -144t-132 -89q-6 -2 -12 -2q-19 0 -19 12z" />
<glyph unicode="&#xe24;&#xe32;" horiz-adv-x="1354" d="M74 516q-26 39 5 67q42 40 84 80.5t88 75.5q49 39 104.5 59t112 21.5t113 -15.5t108.5 -52q26 -17 51.5 -34.5t50.5 -35.5q13 14 25 28.5t26 27.5q38 36 83.5 53.5t99.5 13.5q61 -4 100 -54q29 -35 45.5 -76t13.5 -89q-7 -107 -13.5 -213.5t-14.5 -213.5 q-14 -223 -30 -440q-2 -30 -4.5 -60t-4.5 -60h-186q28 232 55.5 461.5t56.5 466.5q-56 -23 -105 -15.5t-97 34.5q0 -8 -0.5 -14.5t-0.5 -11.5q6 -131 -7 -260.5t-27 -259.5q-8 -87 -16 -172t0 -173q2 -23 -7 -35.5t-31 -19.5q-60 -15 -104 23q-8 8 -13 23t-4 26 q5 63 12 125.5t15 125.5q17 154 32 308.5t8 310.5q-2 32 -14 58.5t-38 46.5q-36 27 -72 42t-72.5 15t-73.5 -17t-74 -53q21 -5 41 -10t40 -11q20 -7 39.5 -14.5t38.5 -18.5q30 -17 37 -38.5t-7 -52.5q-15 -35 -31 -69t-31 -68q-2 -3 -3.5 -7t-4.5 -11q8 -3 14 -4.5t11 -3.5 q51 -11 83 -45.5t37 -87.5q2 -17 1.5 -34.5t-3.5 -33.5q-14 -71 -54.5 -101t-113.5 -24q-148 11 -157 155q-5 65 9 124.5t41 118.5q14 28 27 58t28 65q-29 -3 -53 -5t-47 -7q-31 -5 -60.5 -13.5t-60.5 -13.5q-29 -5 -55.5 0.5t-45.5 33.5zM434 172.5q-2 -15.5 3 -33 t17 -33.5q35 52 13 107q-14 -3 -22.5 -14t-10.5 -26.5zM835 750l15 -2q0 -6 -10 -6q-7 2 -5 8zM984 659q1 -3 1 -10q14 -2 26.5 -4.5t26.5 -5.5q-2 11 -6 20t-9 10q-10 1 -19.5 -3t-19.5 -7z" />
<glyph unicode="&#xe26;&#xe32;" horiz-adv-x="1821" d="M374 373q4 17 8.5 32t7.5 31q25 118 137 168q11 5 22 10.5t26 12.5q-17 11 -30 19.5t-26 16.5q-22 14 -32 33.5t-5 45.5q5 25 21 38.5t39 22.5q78 28 156.5 33.5t158.5 5.5q34 0 60 -15.5t52 -32.5q7 -5 13 -11t14 -11q5 3 9.5 5.5t9.5 6.5q49 37 101.5 42.5t109.5 -11.5 q66 -20 124 -54.5t109 -82.5q26 -23 39.5 -53.5t18.5 -64.5q21 -119 23 -238t3 -239q1 -140 1 -278v-278q0 -28 -10 -38t-37 -12q-18 -2 -35.5 -7.5t-34.5 -10.5q-23 -7 -29.5 -2.5t-6.5 29.5q2 220 3 437t3 437q0 31 -2.5 62t-4.5 66q-43 -18 -85.5 -30t-85.5 -17t-86 -1.5 t-87 17.5q-4 -48 -6.5 -93.5t-4.5 -91.5q-3 -49 -5.5 -98t-6.5 -98q-9 -110 6.5 -216.5t36.5 -212.5q7 -35 6.5 -72t-2.5 -73q-2 -32 -19.5 -46t-50.5 -13q-54 1 -82.5 23t-41.5 75q-13 46 -15 91t17 93q8 18 3.5 41t-7.5 44q-14 115 -12 230t10 231q5 80 8 159.5t7 160.5 q0 7 -0.5 14.5t-1.5 15.5q-3 21 -16 33.5t-30 8.5q-15 -3 -24.5 -20t-5.5 -36l15 -57q12 -44 -17 -82q-5 -6 -9 -12.5t-9 -12.5q-17 -20 -23.5 -39.5t16.5 -43.5q13 -14 9.5 -29.5t-18.5 -27.5q-31 -24 -72 -45t-88 -30t-97.5 -1t-99.5 41q-31 21 -41 45.5t-1 59.5z M1050 577.5q9 -15.5 41 -20.5q42 -5 82 -2.5t79 18.5q27 11 52.5 10t49.5 -21q3 -2 8 -3.5t13 -3.5q-3 9 -3.5 13t-2.5 8q-25 53 -69 80.5t-95 45.5q-25 8 -48.5 6.5t-44 -12t-36 -29t-24.5 -42.5q-11 -32 -2 -47.5z" />
<glyph unicode="&#xd;" horiz-adv-x="579" />
<glyph unicode=" "  horiz-adv-x="690" />
<glyph unicode="&#x09;" horiz-adv-x="690" />
<glyph unicode="&#xa0;" horiz-adv-x="690" />
<glyph unicode="!" horiz-adv-x="326" d="M94 1094q0 14 6 27.5t15.5 23.5t20.5 16t22 6q20 0 49 -22q24 -23 24 -51l-53 -883h-31zM109 49q0 23 16 39t39 16q20 0 36.5 -16t16.5 -39q0 -20 -15 -36.5t-38 -16.5t-39 16.5t-16 36.5z" />
<glyph unicode="&#x22;" horiz-adv-x="575" d="M94 1108q0 19 17.5 35t40.5 16q20 0 37.5 -13.5t17.5 -33.5v-4l-49 -289h-13zM370 1116q0 18 16 30.5t38 12.5q20 0 38.5 -15.5t18.5 -35.5l-51 -289h-8l-51 289q-1 3 -1 8z" />
<glyph unicode="#" horiz-adv-x="1030" d="M33 422v61h254l53 197h-205v61h221l115 422h66l-115 -422h274l115 422h63l-114 -422h237v-61h-254l-53 -197h205v-61h-221l-117 -422h-61l112 422h-274l-115 -422h-63l114 422h-237zM350 483h277l53 197h-277z" />
<glyph unicode="$" horiz-adv-x="1253" d="M94 0v63h801q43 0 80 13.5t64 36.5t42 53.5t15 64.5v152q0 34 -15 64.5t-42 53.5t-64 36.5t-80 13.5h-539q-55 0 -103 18.5t-83 50t-55.5 73.5t-20.5 89v150q0 46 20.5 88t56 74t83.5 50.5t102 18.5h240v201h61v-201h271v-61h-572q-42 0 -78 -14t-63 -37.5t-42 -54 t-15 -64.5v-150q0 -36 16.5 -67t44 -54t63.5 -36t74 -13h539q53 0 100.5 -18t83.5 -49t57 -72.5t21 -89.5v-152q0 -47 -21 -88.5t-57 -73.5t-83.5 -50.5t-100.5 -18.5h-238v-199h-61v199h-502z" />
<glyph unicode="%" horiz-adv-x="930" d="M2 0l848 1163h76l-846 -1163h-78zM35 963q0 40 15.5 76.5t42.5 64t64 43.5t79 16q40 0 76.5 -16t64 -43.5t43.5 -64t16 -76.5q0 -42 -16 -79t-43.5 -64t-64 -42.5t-76.5 -15.5q-42 0 -79 15.5t-64 42.5t-42.5 64t-15.5 79zM96 963q0 -30 10.5 -55.5t29.5 -44.5 t44.5 -29.5t55.5 -10.5q28 0 53.5 10.5t44.5 29.5t30 44.5t11 55.5q0 28 -11 53.5t-30 44.5t-44.5 30t-53.5 11q-30 0 -55.5 -11t-44.5 -30t-29.5 -44.5t-10.5 -53.5zM494 201q0 42 16 78.5t43.5 63.5t63.5 42.5t77 15.5q42 0 79 -15.5t64 -42.5t42.5 -63.5t15.5 -78.5 q0 -41 -15.5 -77.5t-42.5 -64t-64 -43.5t-79 -16q-41 0 -77 16t-63.5 43.5t-43.5 64t-16 77.5zM555 201q0 -29 11 -54t30 -44.5t44 -30.5t54 -11q28 0 53.5 11t45 30.5t30.5 44.5t11 54q0 28 -11 53.5t-30.5 44.5t-45 30t-53.5 11q-29 0 -54 -11t-44 -30t-30 -44.5 t-11 -53.5z" />
<glyph unicode="&#x26;" horiz-adv-x="1155" d="M94 307q0 182 176 320q29 23 79 58t122 83q-88 124 -88 197q0 36 13 69.5t35.5 60t54 42.5t69.5 16q36 0 66 -14t52 -38t34 -55t12 -65q0 -123 -160 -229l315 -445l138 99l37 -56l-138 -94l183 -256h-74l-160 221l-231 -168q-87 -63 -203 -63q-76 0 -137 28t-104.5 73 t-67 102t-23.5 114zM158 307q0 -52 19 -98t53.5 -80t82 -54t103.5 -20q43 0 86.5 12t91.5 35l12 11l219 157l-317 447q-35 -23 -85 -57t-116 -82q-149 -119 -149 -271zM444 965q0 -26 19.5 -68t58.5 -96q133 88 133 180q0 22 -7.5 42t-21 35.5t-32 24.5t-39.5 9 q-22 0 -42 -10.5t-35.5 -28t-24.5 -40.5t-9 -48z" />
<glyph unicode="'" horiz-adv-x="301" d="M94 1108q0 20 16.5 35.5t39.5 15.5t40 -15.5t17 -35.5l-53 -289h-11z" />
<glyph unicode="(" horiz-adv-x="387" d="M94 -102v1101q0 46 21 88.5t56.5 74t83 50.5t101.5 19h31v-64h-31q-42 0 -78 -13.5t-63 -36.5t-42 -53.5t-15 -64.5v-1101q0 -34 15 -64.5t42 -53.5t63 -36.5t78 -13.5h31v-64h-31q-54 0 -101.5 18.5t-83 50.5t-56.5 74t-21 89z" />
<glyph unicode=")" horiz-adv-x="387" d="M0 -270h31q42 0 78 13.5t63 36.5t42 53.5t15 64.5v1101q0 34 -15 64.5t-42 53.5t-63 36.5t-78 13.5h-31v64h31q54 0 101.5 -19t83 -50.5t56.5 -74t21 -88.5v-1101q0 -47 -21 -89t-56.5 -74t-83 -50.5t-101.5 -18.5h-31v64z" />
<glyph unicode="*" horiz-adv-x="784" d="M129 934l21 57l210 -76v236h64v-236l213 66l18 -57l-213 -68l136 -182l-50 -35l-137 180l-135 -180l-49 35l135 182z" />
<glyph unicode="+" horiz-adv-x="1053" d="M94 442v62h402v399h61v-399h399v-62h-399v-399h-61v399h-402z" />
<glyph unicode="," horiz-adv-x="299" d="M43 -258l107 401h63l-107 -401h-63z" />
<glyph unicode="-" horiz-adv-x="1053" d="M94 463v61h862v-61h-862z" />
<glyph unicode="." horiz-adv-x="299" d="M94 49q0 23 17 39t39 16q23 0 39 -16t16 -39q0 -20 -16 -36.5t-39 -16.5q-22 0 -39 16.5t-17 36.5z" />
<glyph unicode="/" horiz-adv-x="770" d="M-18 -100l770 1364h71l-774 -1364h-67z" />
<glyph unicode="0" horiz-adv-x="917" d="M54 896q4 7 7 13.5t4 14.5q12 66 48.5 113t92.5 79q27 15 58 23.5t62 17.5q23 6 45.5 10t45.5 10q31 7 57.5 1.5t49.5 -27.5q30 -29 61 -57t62 -57q65 -60 109.5 -132.5t59.5 -160.5q14 -75 6.5 -149t-33.5 -146q-32 -86 -70.5 -167t-90.5 -156q-29 -44 -68 -75.5 t-92 -44.5q-66 -16 -116.5 5.5t-88.5 72.5q-32 42 -54 89.5t-36 98.5q-71 262 -23 533q7 35 17 69.5t18 70.5q-7 -12 -14.5 -23.5t-13.5 -24.5q-8 -16 -16 -31.5t-18 -30t-23 -26t-32 -18.5q-2 6 -4.5 14t-5.5 19zM247.5 555q0.5 -130 38.5 -261q14 -45 35 -85.5t55 -73.5 q20 -20 38.5 -22.5t42.5 11.5q26 17 49 37t40 46q35 57 67 115t56 121q21 54 34 108.5t12 111.5q-1 104 -44 186t-123 145q-22 17 -46.5 30t-49.5 24q-12 5 -19.5 7t-13.5 -0.5t-12 -9.5t-15 -20q11 2 20.5 4t23.5 4q-8 -25 -22.5 -30.5t-30.5 -9.5q-9 -2 -19 -6t-15 -11 q-27 -35 -46.5 -74.5t-28.5 -83.5q-27 -133 -26.5 -263z" />
<glyph unicode="1" horiz-adv-x="458" d="M105 1087q-3 14 0 27.5t12 25t23 18.5t31 8q8 -6 20 -14t18 -20q11 -23 17.5 -48t11.5 -50q2 -13 2.5 -26.5t1.5 -26.5t4 -26t11 -25q3 -5 3.5 -13.5t-2.5 -13.5q-13 -26 -11 -52.5t3 -53.5q3 -72 6.5 -144.5t5.5 -144.5q2 -109 15 -215t31 -213q1 -8 3 -16t2 -16 q0 -10 -4.5 -18t-12 -13t-17 -6.5t-18.5 2.5q-11 5 -20.5 10.5t-20.5 10.5q-20 10 -29.5 24.5t-12.5 36.5q-20 143 -28 284.5t-12 284.5q-2 86 -7.5 170.5t-10.5 170.5q-2 20 -6 41t-9 41z" />
<glyph unicode="2" horiz-adv-x="978" d="M102.5 905q2.5 39 17 77t41.5 71q29 34 63 61t75 43q57 23 114 20t113 -39q33 -21 54.5 -47.5t35 -56.5t19.5 -63.5t8 -68.5q3 -81 -12 -159t-42 -155q-16 -44 -30 -88t-31 -87q-28 -66 -58.5 -131t-59.5 -131l-10 -22t-12 -26q43 5 79 18.5t71 27.5q51 21 101.5 39.5 t106.5 22.5q32 2 62.5 -3t58.5 -21q7 -5 14.5 -12t6.5 -13q-1 -7 -8 -14t-15 -10q-28 -10 -55 -10q-59 0 -113 -20.5t-106 -42.5q-28 -12 -55.5 -23.5t-56 -20.5t-57.5 -14t-60 -4q-39 2 -73 17q-54 25 -26 81q32 63 65 125.5t65 125.5q23 48 44.5 97.5t33.5 104.5 q-31 10 -61 18.5t-59 19.5q-66 25 -120.5 64.5t-92.5 100.5q-20 33 -29 71t-6.5 77zM197 838.5q11 -68.5 77 -121.5q45 -36 96 -55t106 -30q5 -1 10.5 -0.5t14.5 0.5q9 35 18.5 70t16.5 71q10 54 13 108t-17 107q-29 77 -71.5 95t-102.5 -6q-38 -15 -70 -41.5t-56 -61.5 q-46 -67 -35 -135.5z" />
<glyph unicode="3" horiz-adv-x="767" d="M-61 1000q-14 30 9 56q47 52 102.5 91t124.5 55q45 10 86.5 2.5t73 -30.5t50.5 -61t19 -89q0 -65 -17.5 -125t-40.5 -120q-8 -21 -16 -41.5t-17 -44.5q27 5 50.5 8.5t45.5 8.5q40 8 79 6t77 -10q74 -16 109 -64.5t26 -123.5q-6 -51 -27.5 -94.5t-47.5 -85.5 q-21 -36 -47 -67t-54.5 -60.5t-58.5 -57t-60 -55.5q-21 -20 -45.5 -36t-49.5 -31q-41 -26 -93 -12q-26 7 -34 36q-4 14 2 21.5t16 15.5q16 14 34 24t37 20q58 30 108 76q79 72 143 163q47 68 67 150q2 8 3 17.5t1 18.5q-1 38 -17.5 55.5t-53.5 18.5q-37 0 -73.5 -5 t-72.5 -17q-30 -10 -60 -17.5t-61 -13.5q-21 -4 -42 0.5t-38 19.5q-18 15 -19.5 27t9.5 32q18 32 34.5 64t33.5 64q5 9 8.5 20.5t8.5 27.5q-50 -9 -91 3.5t-80 32.5q-32 17 -61.5 37.5t-53.5 48.5q-8 9 -14.5 19.5t-11.5 21.5zM57 1000q9 -9 17 -19.5t19 -16.5 q23 -11 46.5 -22t49.5 -17q11 -3 22 -5t21 -5.5t19 -10t15 -18.5q19 39 26.5 85.5t2.5 90.5q-4 34 -25 49.5t-53 7.5q-53 -11 -92 -41t-68 -78z" />
<glyph unicode="4" horiz-adv-x="1188" d="M69 376q-5 11 2 23q4 7 9.5 12.5t11.5 10.5q19 16 36.5 33t25.5 42q0 3 4 7q36 28 60 65t50 73q43 60 83.5 119.5t83.5 119.5q13 18 28.5 34.5t30.5 33.5q3 4 6 9.5t1 9.5t-8 6.5t-11 1.5q-20 -2 -39 4.5t-40 13.5q6 15 17 21.5t22 8.5q22 6 43.5 11.5t44.5 7.5t44 9.5 t40 19.5q24 16 51 24.5t53 18.5q37 14 74 26.5t75 26.5q9 3 18 5.5t20 -2.5q4 -19 -2 -30t-24 -19q-20 -9 -41 -18l-42 -18q-40 -20 -79.5 -39t-80.5 -39q-4 -2 -8.5 -4.5t-7.5 -6.5q-39 -41 -78 -81.5t-72 -86.5q-42 -59 -82 -118t-82 -118q-26 -36 -52.5 -71t-52.5 -70 l-4 -6t-7 -11q17 2 30.5 4t25.5 5q97 28 194.5 44t196.5 33q63 11 126 23t127 23q17 2 20.5 12.5t7.5 21.5q13 42 26 84.5t25 85.5q16 57 31 113t29 113q4 15 3 31t1 31q1 8 2.5 16.5t5.5 15.5q7 14 16 18t21 1q13 -4 21.5 -13.5t8.5 -22.5q1 -7 0 -13t-3 -12 q-11 -75 -30 -147.5t-44 -144.5q-13 -36 -24 -72.5t-22 -73.5q-2 -4 -2 -8t-2 -11q14 2 25 4l22 4q5 -10 2 -16t-8 -10l-22 -18t-24 -14q-11 -5 -15.5 -12t-8.5 -17q-14 -49 -29 -97.5t-32 -96.5q-23 -71 -47 -140.5t-48 -140.5q-8 -21 -29 -30t-41 1q-11 5 -14.5 16t4.5 19 q22 21 31 48.5t19 54.5q24 68 46.5 136t45.5 137q8 21 14 43t14 48q-17 -2 -30.5 -4t-26.5 -4q-102 -18 -202.5 -36.5t-202.5 -38.5q-47 -9 -92.5 -21t-91.5 -23q-32 -8 -65 -13.5t-65 -11.5q-11 -2 -23 2q-13 4 -18 15z" />
<glyph unicode="5" horiz-adv-x="1232" d="M-20 535q6 24 29 13q25 -14 26 -36t-22 -40q-42 22 -33 63zM115 7q21 21 44.5 35t48.5 24t51 16.5t52 13.5q42 11 83 22.5t83 25.5q57 20 106.5 51t88.5 79q22 27 32 57.5t11 65.5q0 22 -9.5 36t-28.5 24q-38 20 -79 27.5t-84 9.5q-48 2 -95.5 2.5t-95.5 3.5q-26 2 -51 8 t-51 11q-8 2 -14.5 3.5t-14.5 1.5q-17 1 -30.5 8t-20.5 24q-7 19 2.5 32t20.5 25q14 17 30.5 32.5t29.5 33.5q35 48 58 101t29 113q1 9 1 18v18q0 11 -3.5 20t-14.5 16q-14 10 -20.5 20.5t-6.5 21t5 20.5t13 18q17 18 42.5 15.5t42.5 -23.5q29 -35 37.5 -74t0.5 -82 q-11 -62 -36 -118t-59 -109q-8 -13 -17 -25.5t-20 -27.5q29 -11 56 -15.5t53 -6.5q34 -2 67 -2.5t67 -2.5q48 -3 94.5 -11t91.5 -25q58 -22 85 -69t11 -108q-10 -41 -28 -76t-49 -64q-65 -61 -144 -100q-62 -31 -126.5 -47t-130.5 -30q-52 -10 -103.5 -19t-104.5 -18z M307 1126q0 16 9 27q11 14 25 21.5t31 2.5q44 -11 87.5 -9t88.5 1q109 -1 216 -2t216 -3q44 -1 86.5 -2.5t86.5 -3.5h10.5t10.5 -1q10 -2 19.5 -5t10.5 -15q2 -12 -1.5 -23.5t-14.5 -17.5q-10 -5 -20 -8t-21 -3q-93 -1 -184 -0.5t-183 0.5q0 2 -0.5 3.5t-0.5 3.5 q-88 -3 -176 -5.5t-176 -5.5q-13 -1 -25 -3t-25 -4q-17 -3 -34.5 3.5t-27.5 21.5q-8 11 -8 27z" />
<glyph unicode="6" horiz-adv-x="779" d="M114 567.5v36.5q0 11 1 22.5t2 22.5q0 7 -0.5 14t-0.5 14q0 4 -0.5 7t0.5 6q10 27 10 55t2 56q5 72 7.5 143.5t6.5 143.5q2 23 7 42q6 32 44 24q15 -3 23.5 -14.5t4.5 -25.5q-17 -60 -21 -120.5t-8 -121.5q-2 -29 -5.5 -57.5t-5.5 -57.5q-7 -86 -9.5 -171.5t4.5 -172.5 q7 -99 21 -199q4 -28 11 -54.5t20 -52.5q16 -34 47 -48t67 -4q26 7 47 21t41 32q31 29 56 62.5t48 68.5q14 23 23.5 46.5t7.5 48.5q-1 18 2 34t7.5 31.5t10 30.5t9.5 31q0 5 1 10q-36 23 -73 6q-36 -18 -70 -38.5t-60 -52.5q-22 -26 -44 -51.5t-38 -57.5 q-21 -43 -21.5 -84.5t17.5 -84.5q5 -11 5.5 -20t-5.5 -19q-16 1 -24.5 2t-14 5t-9 11.5t-8.5 21.5q-17 42 -13.5 82t20.5 80q3 7 5 14t5 14l8 16t9 14q14 15 28 29t28 29q5 5 9.5 10t7.5 11q5 14 14.5 23t20.5 17q17 13 34.5 25t34.5 23q32 20 67 23t71 -2q3 0 6.5 -0.5 t8.5 -1.5q5 14 11.5 28t11.5 29q8 23 27.5 27.5t36.5 -12.5q6 -6 6 -18q3 -29 -2 -57t-16 -55q-17 -42 -35.5 -83.5t-36.5 -83.5q-6 -14 -11.5 -27.5t-13.5 -26.5q-10 -18 -22 -35t-23 -34q-6 -9 -12.5 -18.5t-12.5 -18.5q-23 -34 -52 -62t-65 -47q-29 -16 -61 -21.5 t-65 5.5q-3 0 -5 1q-50 9 -77.5 40.5t-42.5 76.5q-12 39 -18.5 79.5t-10.5 82.5q-2 32 -3 63t-6 63q-4 30 -1 59.5t1 59.5q-2 19 -2 37.5z" />
<glyph unicode="7" horiz-adv-x="1248" d="M-113 1131q3 17 19.5 29.5t35.5 11.5q85 -4 168 -7t168 -11q121 -12 240 -7.5t240 19.5q100 12 197.5 22t197.5 21q20 2 36.5 -2t30.5 -19q14 -14 18 -31t-6 -35q-36 -72 -76.5 -140t-85.5 -134q-26 -38 -49 -78t-52 -76q-54 -72 -110.5 -140.5t-112.5 -137.5 q-51 -63 -104 -123t-96 -129q-11 -17 -20 -35t-14 -39q-3 -14 -9.5 -27.5t-14.5 -26.5q-5 -10 -15 -14.5t-21 -1.5q-12 2 -21 8.5t-11 19.5q-2 14 -3 28.5t2 27.5q5 20 13 38.5t18 36.5q31 57 71 105t88 92q5 6 10.5 11.5t10.5 12.5q31 38 61 76l60 76q43 55 84.5 110.5 t85.5 110.5q41 51 73 106.5t64 111.5q17 30 31.5 62t32.5 70q-23 -2 -40 -2t-34 -2q-106 -12 -211 -24t-211 -23q-94 -9 -186 -8t-186 8q-52 5 -104 6l-104 2q-17 1 -33.5 -3t-33.5 -4q-14 -1 -29.5 -0.5t-29.5 4.5q-21 6 -29 20.5t-4 33.5z" />
<glyph unicode="8" horiz-adv-x="934" d="M58 976q2 29 14 51.5t34 42.5q36 33 77 53.5t86 31.5q47 11 95 11.5t96 -4.5q65 -7 125 -41q41 -23 64 -58t24 -82q1 -68 -11 -138q-9 -56 -21.5 -111t-34.5 -108q-6 -17 -13.5 -32.5t-15.5 -32.5q-3 -7 -6 -14.5t-7 -16.5q11 -4 19 -7t16 -5q32 -8 63.5 -15.5 t61.5 -18.5q35 -12 67 -29.5t55 -49.5q14 -19 18.5 -40t1.5 -44q-2 -11 -9.5 -21.5t-15.5 -20.5q-17 -22 -39.5 -35.5t-46.5 -25.5q-66 -35 -132 -70.5t-129 -76.5q-14 -9 -26.5 -16.5t-26.5 -15.5q-12 -7 -25 -7.5t-42 4.5q0 10 6.5 15.5t12.5 10.5q30 23 60 44t59 44 q53 39 111 69.5t113 65.5q13 8 24.5 18t22.5 21q29 32 1 64q-13 14 -27.5 26t-34.5 17q-45 13 -90.5 25t-92.5 25l-18 -26l-18 -26q-42 -57 -82.5 -113.5t-81.5 -113.5q-18 -26 -34.5 -52.5t-33.5 -54.5q-9 -15 -7 -33q1 -14 0 -25.5t-15 -19.5q-29 -17 -59 -3 q-23 10 -27.5 30t9.5 40q26 37 50.5 74.5t51.5 73.5q27 37 56 72t56 72q21 29 40 58.5t39 61.5q-8 4 -12 6.5t-9 3.5q-84 24 -162 63q-88 45 -143.5 114t-72.5 169q-12 65 -8 126zM135 904q0 -12 1 -25q4 -159 139 -241q40 -24 81.5 -43.5t87.5 -31.5q11 -3 23 -6.5t25 -7.5 q10 20 19.5 37t16.5 36q26 68 45 137.5t27 141.5q2 24 2.5 48t-0.5 49q-2 20 -11 37.5t-27 29.5q-20 13 -41.5 22.5t-45.5 12.5q-63 10 -124 5t-120 -33q-49 -23 -74.5 -56t-23.5 -87v-25z" />
<glyph unicode="9" horiz-adv-x="729" d="M37 687q1 39 9 78q8 43 21 84t33 79q29 57 61 111.5t81 98.5q28 25 59.5 34.5t68.5 -0.5q29 -7 54 -21t49 -30q9 -6 11.5 -15.5t0.5 -19.5q0 -3 -4.5 -7t-7.5 -3q-16 1 -32 8q-17 7 -32 14.5t-32 14.5q-20 9 -38.5 4t-35.5 -16q-20 -14 -36 -31t-30 -36 q-26 -37 -50 -75.5t-42 -80.5q-19 -45 -33 -90t-17 -94q-2 -12 -0.5 -24.5t3.5 -24.5q5 -33 39 -38q13 -2 26 -1.5t25 4.5q20 7 40 16t37 23q20 17 41 33t41 33q10 8 18 18t17 19l6 9q35 32 64 68.5t58 73.5q8 11 15 22.5t15 22.5q11 15 18 31t9 34q3 21 6.5 42.5t6.5 42.5 q1 9 3 16.5t12 11.5q22 9 39 -5q11 -7 14 -16q7 -20 10 -41t-8 -41q-15 -30 -21.5 -61.5t-13.5 -63.5q-10 -45 -18 -89t-16 -89q-11 -59 -22 -116.5t-21 -115.5q-8 -45 -13.5 -90t-9.5 -90q-8 -80 14.5 -150t80.5 -128q3 -3 5.5 -7l7.5 -12q-19 0 -34 2t-28 13 q-30 27 -53 59t-34 72q-14 48 -17.5 96.5t1.5 98.5q8 97 24.5 190.5t35.5 187.5q5 24 9 48l8 48q2 8 -4 19l-16 -20l-16 -20q-29 -32 -58 -65t-64 -61q-10 -8 -18 -17t-18 -17q-24 -22 -47.5 -43t-54.5 -33q-50 -20 -94.5 -11t-82.5 50q-15 16 -20 36.5t-5 42.5z" />
<glyph unicode=":" horiz-adv-x="299" d="M94 49q0 23 17 39t39 16q23 0 39 -16t16 -39q0 -20 -16 -36.5t-39 -16.5q-22 0 -39 16.5t-17 36.5zM94 709q0 23 17 39t39 16q23 0 39 -16t16 -39t-16 -39.5t-39 -16.5q-22 0 -39 16.5t-17 39.5z" />
<glyph unicode=";" horiz-adv-x="299" d="M43 -258l107 401h63l-107 -401h-63zM94 709q0 23 17 39t39 16q23 0 39 -16t16 -39t-16 -39.5t-39 -16.5q-22 0 -39 16.5t-17 39.5z" />
<glyph unicode="&#x3c;" horiz-adv-x="866" d="M33 432q0 16 18 27l688 405h119l-731 -432l739 -432h-127l-688 406q-9 5 -14 11t-4 15z" />
<glyph unicode="=" horiz-adv-x="1053" d="M94 305v62h862v-62h-862zM94 506v61h862v-61h-862z" />
<glyph unicode="&#x3e;" horiz-adv-x="866" d="M0 0l737 432l-731 432h121l688 -405q19 -12 19 -27q0 -17 -19 -26l-688 -406h-127z" />
<glyph unicode="?" horiz-adv-x="872" d="M94 1100v61h471q43 0 81.5 -16t67 -43.5t45.5 -65t17 -80.5v-208q0 -47 -18 -85t-49 -65t-72.5 -42t-89.5 -15q-38 0 -69 -10t-53.5 -29t-35 -45.5t-12.5 -59.5v-211h-62v211q0 45 16.5 82.5t46.5 64.5t73 42.5t96 15.5q36 0 66.5 10.5t53 29.5t35.5 46t13 60v208 q0 30 -12 56t-32.5 45.5t-47.5 31t-58 11.5h-471zM291 49q0 23 16 39t39 16q20 0 37.5 -16t17.5 -39q0 -20 -16 -36.5t-39 -16.5t-39 16.5t-16 36.5z" />
<glyph unicode="@" horiz-adv-x="1317" d="M94 359q0 132 46 244t125.5 194t185.5 128t227 46q96 0 182.5 -30t157 -84.5t121 -130.5t73.5 -167q5 -18 8 -37.5t3 -42.5q0 -79 -23.5 -156.5t-64 -139.5t-94 -100.5t-113.5 -38.5q-100 0 -109 93q-84 -90 -194 -90h-101q-174 0 -174 166q17 85 36 159t42 140 q10 41 36.5 77t62 63t76.5 43t81 16h100q54 0 89 -15.5t55 -44.5l16 60h62l-127 -471q-6 -22 -7.5 -39t-1.5 -31q0 -64 58 -64q44 0 86 33.5t74.5 86.5t52.5 118t20 129q0 51 -14 99t-38.5 90.5t-57.5 79.5t-70 65q-127 100 -303 100q-114 0 -209 -42.5t-164 -116.5 t-107 -173t-38 -213q0 -110 38 -205.5t108.5 -166t172 -110.5t228.5 -40q329 0 448 230l10 16h68l-23 -45q-33 -62 -83 -110.5t-113 -82.5t-138 -51.5t-159 -17.5q-135 0 -249 43t-197.5 120t-130 183.5t-46.5 233.5zM416 211q0 -100 108 -100h101q75 0 122 33t70 106 l72 262q2 9 3 18.5t1 18.5q0 98 -109 98h-100q-95 0 -152 -74q-22 -29 -45.5 -95t-52.5 -169z" />
<glyph unicode="A" horiz-adv-x="1128" d="M16 0l521 1145q5 11 11 16.5t17 5.5q19 0 29 -22l518 -1145h-65l-185 399h-596l-180 -399h-70zM295 463h541l-271 594z" />
<glyph unicode="B" horiz-adv-x="1253" d="M94 0v1163h703q53 0 100.5 -18.5t83 -50.5t56 -74t20.5 -88q0 -107 -92 -178q40 -10 75.5 -31t61 -50.5t40.5 -66t15 -76.5v-299q0 -48 -21 -90t-57 -73.5t-83.5 -49.5t-100.5 -18h-801zM158 61h737q43 0 80 14t64 37.5t42 54t15 64.5v299q0 34 -15 65t-42 54t-64 37 t-80 14h-737v-639zM158 762h639q42 1 78 15t63 37t42 53.5t15 64.5t-15 64.5t-42 54t-63 37.5t-78 14h-639v-340z" />
<glyph unicode="C" horiz-adv-x="1192" d="M94 231v701q0 46 20.5 88t56 74t83.5 50.5t102 18.5h572v-61h-572q-42 0 -78 -14t-63 -37.5t-42 -54t-15 -64.5v-701q0 -34 15 -64.5t42 -54t63 -37.5t78 -14h801v-61h-801q-54 0 -101.5 18t-83 49.5t-56.5 73.5t-21 90z" />
<glyph unicode="D" horiz-adv-x="1253" d="M94 0v1161h801q53 0 100.5 -18t83.5 -49t57 -72.5t21 -89.5v-701q0 -48 -21 -90t-57 -73.5t-83.5 -49.5t-100.5 -18h-801zM158 61h737q43 0 80 14t64 37.5t42 54t15 64.5v701q0 34 -15 64.5t-42 53.5t-64 36.5t-80 13.5h-737v-1039z" />
<glyph unicode="E" horiz-adv-x="1014" d="M94 0v1163h834v-61h-770v-340h770v-62h-770v-639h823v-61h-887z" />
<glyph unicode="F" horiz-adv-x="1010" d="M94 0v1163h883v-61h-819v-340h729v-62h-729v-700h-64z" />
<glyph unicode="G" horiz-adv-x="1253" d="M94 231v701q0 48 21 89.5t57 72.5t83.5 49t100.5 18h572v-61h-572q-42 0 -78 -13.5t-63 -36.5t-42 -53.5t-15 -64.5v-701q0 -34 15 -64.5t42 -54t63 -37.5t78 -14h539q43 0 80 14t64 37.5t42 54t15 64.5v320h-500v61h561v-381q0 -48 -21 -90t-57 -73.5t-83.5 -49.5 t-100.5 -18h-539q-54 0 -101.5 18t-83 49.5t-56.5 73.5t-21 90z" />
<glyph unicode="H" horiz-adv-x="1253" d="M94 0v1163h64v-401h938v401h61v-1163h-61v700h-938v-700h-64z" />
<glyph unicode="I" horiz-adv-x="252" d="M94 0v1163h64v-1163h-64z" />
<glyph unicode="J" horiz-adv-x="1192" d="M33 231v31h61v-31q0 -34 15.5 -64.5t42.5 -54t64 -37.5t79 -14h539q42 0 78.5 14t63.5 37.5t42.5 54t15.5 64.5v932h62v-932q0 -48 -21 -90t-57 -73.5t-83.5 -49.5t-100.5 -18h-539q-53 0 -100.5 18t-83.5 49t-57 73t-21 91z" />
<glyph unicode="K" horiz-adv-x="1206" d="M94 0v1163h64v-524l862 524h119l-865 -526l959 -637h-115l-901 600l-59 -35v-565h-64z" />
<glyph unicode="L" horiz-adv-x="1192" d="M94 231v932h64v-932q0 -34 15 -64.5t42 -54t63 -37.5t78 -14h801v-61h-801q-54 0 -101.5 18t-83 49.5t-56.5 73.5t-21 90z" />
<glyph unicode="M" horiz-adv-x="1253" d="M94 -2v1132q0 35 31 35q19 0 29 -22l473 -1039l471 1039q13 22 30 22q29 0 29 -35v-1132h-61v987l-443 -969q-10 -22 -26 -22q-19 0 -29 22l-440 969v-987h-64z" />
<glyph unicode="N" horiz-adv-x="1253" d="M94 0v1137q0 34 29 34q5 -1 12 -4.5t15 -11.5l946 -1040v1052h61v-1132q0 -35 -27 -35q-15 0 -26 14l-946 1041v-1055h-64z" />
<glyph unicode="O" horiz-adv-x="1253" d="M94 231v701q0 46 20.5 88t56 74t83.5 50.5t102 18.5h539q54 0 101.5 -18.5t83.5 -50.5t56.5 -74t20.5 -88v-701q0 -48 -21 -90t-57 -73.5t-83.5 -49.5t-100.5 -18h-539q-54 0 -101.5 18t-83 49.5t-56.5 73.5t-21 90zM158 231q0 -34 15 -64.5t42 -54t63 -37.5t78 -14h539 q43 0 80 14t64 37.5t42 54t15 64.5v701q0 34 -15 64.5t-42 54t-64 37.5t-80 14h-539q-42 0 -78 -14t-63 -37.5t-42 -54t-15 -64.5v-701z" />
<glyph unicode="P" horiz-adv-x="1253" d="M94 0v1133q0 30 33 30h768q54 0 101.5 -18.5t83.5 -50.5t56.5 -74t20.5 -88v-150q0 -47 -20.5 -89t-55.5 -73.5t-83 -50t-103 -18.5h-569v61h569q43 0 80 14t64 37.5t42 54t15 64.5v150q0 34 -15 64.5t-42 54t-64 37.5t-80 14h-737v-1102h-64z" />
<glyph unicode="Q" horiz-adv-x="1253" d="M94 231v701q0 48 21 90.5t57 73.5t83.5 49t100.5 18h539q53 0 100.5 -18t83.5 -49t57 -73.5t21 -90.5v-701q0 -76 -49 -137l94 -94h-88l-53 53q-71 -53 -166 -53h-539q-53 0 -100.5 18.5t-83.5 50.5t-57 73.5t-21 88.5zM158 231q0 -34 15 -64.5t42 -53.5t63 -36.5 t78 -13.5h539q68 0 121 33l-162 166h84l125 -123q33 43 33 92v701q0 34 -15 65t-42 54.5t-64 37t-80 13.5h-539q-42 0 -78 -13.5t-63 -37t-42 -54.5t-15 -65v-701z" />
<glyph unicode="R" horiz-adv-x="1253" d="M94 0v1133q0 30 33 30h768q53 0 100.5 -18t83.5 -49t57 -73.5t21 -90.5v-150q0 -47 -20.5 -89t-55.5 -73.5t-83 -50t-103 -18.5h-98l467 -551h-86l-463 551h-389v61h569q43 0 80 14t64 37.5t42 54t15 64.5v150q0 34 -15 65t-42 54.5t-64 37t-80 13.5h-737v-1102h-64z" />
<glyph unicode="S" horiz-adv-x="1253" d="M94 0v61h801q43 0 80 14t64 37.5t42 54t15 64.5v150q0 34 -15 64.5t-42 54t-64 37.5t-80 14h-539q-55 0 -103 18.5t-83 50t-55.5 73.5t-20.5 89v150q0 46 20.5 88t56 74t83.5 50.5t102 18.5h572v-61h-572q-42 0 -78 -14t-63 -37.5t-42 -54t-15 -64.5v-150q0 -34 15 -64.5 t42 -54t63 -37.5t78 -14h539q54 0 101.5 -18.5t83.5 -50.5t56.5 -74t20.5 -88v-150q0 -48 -21 -90t-57 -73.5t-83.5 -49.5t-100.5 -18h-801z" />
<glyph unicode="T" horiz-adv-x="1128" d="M33 1102v61h1063v-61h-500v-1102h-64v1102h-499z" />
<glyph unicode="U" horiz-adv-x="1253" d="M94 231v932h64v-932q0 -34 15 -64.5t42 -54t63 -37.5t78 -14h539q43 0 80 14t64 37.5t42 54t15 64.5v932h61v-932q0 -48 -21 -90t-57 -73.5t-83.5 -49.5t-100.5 -18h-539q-54 0 -101.5 18t-83 49.5t-56.5 73.5t-21 90z" />
<glyph unicode="V" horiz-adv-x="1126" d="M16 1163h70l479 -1052l479 1052h66l-516 -1140q-11 -23 -29 -23q-11 0 -17 6t-11 17z" />
<glyph unicode="W" horiz-adv-x="1718" d="M16 1163h66l379 -1036l370 1020q9 27 29 27q18 0 29 -27l371 -1020l376 1036h68l-416 -1138q-9 -25 -28 -25q-20 0 -29 25l-371 1022l-371 -1022q-9 -25 -28 -25q-22 0 -31 25z" />
<glyph unicode="X" horiz-adv-x="954" d="M16 0l424 614l-383 549h80l340 -495l342 495h76l-379 -549l422 -614h-74l-387 559l-387 -559h-74z" />
<glyph unicode="Y" horiz-adv-x="1165" d="M16 1163h80l488 -542l485 542h80l-535 -604v-559h-61v559z" />
<glyph unicode="Z" horiz-adv-x="1137" d="M33 27q0 12 12 24l952 1051h-759v61h829q37 0 37 -26q0 -15 -12 -27l-955 -1049h963v-61h-1032q-35 0 -35 27z" />
<glyph unicode="[" horiz-adv-x="387" d="M94 -340v1563h293v-62h-229v-1440h229v-61h-293z" />
<glyph unicode="\" horiz-adv-x="799" d="M-20 1264h69l772 -1364h-71z" />
<glyph unicode="]" horiz-adv-x="367" d="M0 -279h229v1440h-229v62h293v-1563h-293v61z" />
<glyph unicode="^" horiz-adv-x="891" d="M8 496l412 647q10 16 24 16q17 0 27 -16l412 -647h-74l-365 571l-362 -571h-74z" />
<glyph unicode="_" horiz-adv-x="862" d="M0 -16h862v-62h-862v62z" />
<glyph unicode="`" horiz-adv-x="455" d="M94 1118q0 18 13 29.5t30 11.5h10l9 -3t10 -6t20.5 -17.5t39.5 -38.5t68 -67.5t105 -104.5h-32l-242 147q-14 10 -22.5 18t-8.5 31z" />
<glyph unicode="a" horiz-adv-x="1022" d="M66 207q0 43 16.5 81t45 66t66.5 44t82 16h588v141q0 30 -11.5 56.5t-32 46t-47 31t-56.5 11.5h-471v62h471q43 0 81 -16t67 -44t46 -66t17 -81v-555h-64v82q-61 -82 -147 -82h-441q-43 0 -81 16t-66.5 44t-45.5 65.5t-17 81.5zM127 207q0 -30 12 -56.5t32 -46.5 t47.5 -31.5t57.5 -11.5h441q30 0 56.5 11.5t47 31t32 46t11.5 57.5v143h-588q-31 0 -58 -11.5t-47.5 -31.5t-32 -46t-11.5 -54z" />
<glyph unicode="b" horiz-adv-x="1053" d="M94 0v1163h64v-481q62 80 147 80h440q43 0 81.5 -16t67 -44t45.5 -66t17 -81v-348q0 -44 -16.5 -81.5t-45 -65.5t-67 -44t-82.5 -16h-440q-86 0 -147 82v-82h-64zM158 207q0 -30 11.5 -56.5t32 -46.5t47 -31.5t56.5 -11.5h440q31 0 58.5 11.5t48 31.5t32 46.5t11.5 56.5 v348q0 31 -12 57.5t-32.5 46t-47.5 30.5t-58 11h-440q-31 0 -57.5 -11.5t-46.5 -31t-31.5 -46t-11.5 -56.5v-348z" />
<glyph unicode="c" horiz-adv-x="989" d="M94 207v348q0 43 17 81t45.5 66t67 44t81.5 16h471v-62h-471q-31 0 -57.5 -11.5t-46.5 -31t-31.5 -46t-11.5 -56.5v-348q0 -30 11.5 -56.5t32 -46.5t47 -31.5t56.5 -11.5h651v-61h-651q-42 0 -80 16t-67 44t-46.5 66t-17.5 81z" />
<glyph unicode="d" horiz-adv-x="1053" d="M94 207v348q0 44 18.5 82t48 65.5t67.5 43.5t77 16h440q88 0 150 -80v481h61v-1163h-61v82q-61 -82 -150 -82h-440q-43 0 -81.5 16t-67 44t-45.5 65.5t-17 81.5zM158 207q0 -30 11.5 -56.5t31.5 -46.5t46.5 -31.5t57.5 -11.5h440q31 0 58 11.5t47.5 31.5t32.5 46.5 t12 56.5v348q0 30 -11.5 56.5t-32 46t-48 31t-58.5 11.5h-440q-30 0 -56.5 -11t-47 -30.5t-32 -46t-11.5 -57.5v-348z" />
<glyph unicode="e" horiz-adv-x="1022" d="M94 207v348q0 43 17 81t45.5 66t67 44t81.5 16h440q43 0 81.5 -16t67 -44t45.5 -66t17 -81q0 -42 -16.5 -79.5t-45 -65.5t-67 -44t-82.5 -16h-587v-143q0 -30 11.5 -56.5t32 -46.5t47 -31.5t56.5 -11.5h471v-61h-471q-42 0 -80 16t-67 44t-46.5 66t-17.5 81zM158 412h587 q31 0 58.5 11.5t48 31.5t32 45.5t11.5 54.5q0 31 -12 57.5t-32.5 46t-47.5 30.5t-58 11h-440q-31 0 -57.5 -11.5t-46.5 -31t-31.5 -46t-11.5 -56.5v-143z" />
<glyph unicode="f" horiz-adv-x="449" d="M33 700v62h100v194q0 43 16.5 81t45 66t67 44t82.5 16h72v-61h-72q-31 0 -58 -11.5t-47.5 -31.5t-32 -46.5t-11.5 -56.5v-194h221v-62h-221v-700h-62v700h-100z" />
<glyph unicode="g" horiz-adv-x="1053" d="M94 205v350q0 43 17 81t45.5 66t67 44t81.5 16h440q88 0 150 -80v80h61v-907q0 -43 -17 -80.5t-45.5 -65t-67 -43.5t-81.5 -16h-471v61h471q31 0 58 11t47.5 30.5t32.5 46t12 56.5v225q-62 -80 -150 -80h-440q-41 0 -79 15.5t-67 43t-47 65t-18 81.5zM158 205 q0 -30 11.5 -56.5t32 -46t47 -30.5t56.5 -11h440q31 0 58.5 11t48 30.5t32 46t11.5 56.5v350q0 30 -12 56.5t-32.5 46t-47.5 31t-58 11.5h-440q-31 0 -57.5 -11.5t-46.5 -31t-31.5 -46t-11.5 -56.5v-350z" />
<glyph unicode="h" horiz-adv-x="993" d="M94 0v1163h64v-481q62 80 147 80h383q43 0 81.5 -16t67 -44t45.5 -66t17 -81v-555h-61v555q0 31 -12 57.5t-32.5 46t-47.5 30.5t-58 11h-383q-31 0 -57.5 -11.5t-46.5 -31t-31.5 -46t-11.5 -56.5v-555h-64z" />
<glyph unicode="i" horiz-adv-x="254" d="M78 913q0 50 49 50t49 -50q0 -51 -49 -51t-49 51zM94 0v762h64v-762h-64z" />
<glyph unicode="j" horiz-adv-x="252" d="M-72 -168h72q31 0 49.5 11.5t28.5 31.5t13 46t3 56v785h64v-785q0 -43 -8.5 -80.5t-27.5 -65.5t-49 -44t-73 -16h-72v61zM78 913q0 50 49 50t49 -50q0 -51 -49 -51t-49 51z" />
<glyph unicode="k" horiz-adv-x="815" d="M94 0v1163h64v-723l458 324h107l-457 -322l549 -442h-98l-504 406l-55 -39v-367h-64z" />
<glyph unicode="l" horiz-adv-x="252" d="M94 0v1163h64v-1163h-64z" />
<glyph unicode="m" horiz-adv-x="1452" d="M94 0v762h64v-80q62 80 147 80h242q116 0 178 -98q65 98 180 98h242q43 0 81.5 -16t67 -44t45.5 -66t17 -81v-555h-62v555q0 30 -12 56.5t-32.5 46t-47.5 31t-57 11.5h-242q-30 0 -56.5 -11.5t-47 -31t-32 -46t-11.5 -56.5v-555h-64v555q0 30 -11.5 56.5t-32 46t-47 31 t-56.5 11.5h-242q-31 0 -57.5 -11.5t-46.5 -31t-31.5 -46t-11.5 -56.5v-555h-64z" />
<glyph unicode="n" horiz-adv-x="991" d="M94 0v762h64v-80q62 80 147 80h381q43 0 81.5 -16t67 -44t45.5 -66t17 -81v-555h-61v555q0 31 -12 57.5t-32.5 46t-47.5 30.5t-58 11h-381q-31 0 -57.5 -11.5t-46.5 -31t-31.5 -46t-11.5 -56.5v-555h-64z" />
<glyph unicode="o" horiz-adv-x="1053" d="M94 207v348q0 43 17 81t45.5 66t67 44t81.5 16h440q43 0 81.5 -16t67 -44t45.5 -66t17 -81v-348q0 -44 -16.5 -81.5t-45 -65.5t-67 -44t-82.5 -16h-440q-42 0 -80 16t-67 44t-46.5 66t-17.5 81zM158 207q0 -30 11.5 -56.5t32 -46.5t47 -31.5t56.5 -11.5h440 q31 0 58.5 11.5t48 31.5t32 46.5t11.5 56.5v348q0 31 -12 57.5t-32.5 46t-47.5 30.5t-58 11h-440q-31 0 -57.5 -11.5t-46.5 -31t-31.5 -46t-11.5 -56.5v-348z" />
<glyph unicode="p" horiz-adv-x="1053" d="M94 -401v1163h64v-80q62 80 147 80h440q44 0 82.5 -16t67 -44t45 -66t16.5 -81v-350q0 -43 -17 -80.5t-45.5 -65t-67 -43.5t-81.5 -16h-440q-85 0 -147 80v-481h-64zM158 205q0 -30 11.5 -56.5t31.5 -46t46.5 -30.5t57.5 -11h440q31 0 58 11t47.5 30.5t32.5 46t12 56.5 v350q0 30 -11.5 56.5t-32 46t-48 31t-58.5 11.5h-440q-30 0 -56.5 -11.5t-47 -31t-32 -46t-11.5 -56.5v-350z" />
<glyph unicode="q" horiz-adv-x="1053" d="M94 207v348q0 43 17 81t45.5 66t67 44t81.5 16h440q88 0 150 -80v80h61v-1161h-61v481q-61 -82 -150 -82h-440q-42 0 -80 16t-67 44t-46.5 66t-17.5 81zM158 207q0 -30 11.5 -56.5t32 -46.5t47 -31.5t56.5 -11.5h440q31 0 58.5 11.5t48 31.5t32 46.5t11.5 56.5v348 q0 30 -12 56.5t-32.5 46t-47.5 31t-58 11.5h-440q-31 0 -57.5 -11.5t-46.5 -31t-31.5 -46t-11.5 -56.5v-348z" />
<glyph unicode="r" horiz-adv-x="510" d="M94 0v762h64v-80q62 80 147 80h172v-62h-172q-30 0 -56.5 -11t-47 -30.5t-32 -46t-11.5 -57.5v-555h-64z" />
<glyph unicode="s" horiz-adv-x="991" d="M66 0v61h651q30 0 56.5 11.5t47 31.5t32 46.5t11.5 56.5q0 28 -11.5 54t-31.5 46t-46.5 31.5t-57.5 11.5h-441q-44 0 -82 16t-66.5 44t-45 65.5t-16.5 79.5q0 43 17 81t45.5 66t66.5 44t81 16h472v-62h-472q-30 0 -57.5 -11t-47.5 -30.5t-32 -46t-12 -57.5 q0 -29 11.5 -54.5t32 -45.5t47.5 -31.5t58 -11.5h441q41 0 79 -16.5t67.5 -44.5t47 -65t17.5 -79q0 -44 -17 -81.5t-46 -65.5t-67 -44t-81 -16h-651z" />
<glyph unicode="t" horiz-adv-x="449" d="M33 700v62h100v225h62v-225h221v-62h-221v-700h-62v700h-100z" />
<glyph unicode="u" horiz-adv-x="991" d="M94 207v555h64v-555q0 -30 11.5 -56.5t32 -46.5t47 -31.5t56.5 -11.5h381q31 0 58 11.5t47.5 31.5t32.5 46.5t12 56.5v555h61v-762h-61v80q-65 -80 -150 -80h-381q-42 0 -80 16t-67 44t-46.5 66t-17.5 81z" />
<glyph unicode="v" horiz-adv-x="727" d="M16 762h68l281 -653l278 653h68l-320 -744q-11 -24 -26 -24q-19 0 -29 24z" />
<glyph unicode="w" horiz-adv-x="1327" d="M16 762h70l279 -651l270 634q9 23 29 23q17 0 28 -23l273 -634l278 653h70l-322 -744q-11 -24 -26 -24q-19 0 -29 24l-272 633l-273 -633q-11 -24 -26 -24q-19 0 -29 24z" />
<glyph unicode="x" horiz-adv-x="631" d="M8 0l271 412l-232 350h76l192 -293l193 293h76l-232 -350l271 -412h-74l-234 354l-233 -354h-74z" />
<glyph unicode="y" horiz-adv-x="727" d="M16 762h68l278 -653l281 653h68l-318 -739q0 -7 -4 -11l-176 -413h-68l185 430z" />
<glyph unicode="z" horiz-adv-x="938" d="M33 27q0 15 14 26l739 647h-579v62h661q35 0 35 -27q0 -15 -14 -26l-737 -648h747v-61h-831q-35 0 -35 27z" />
<glyph unicode="{" horiz-adv-x="434" d="M33 444q0 9 2 11q18 30 37 61.5t34.5 64t26 66.5t10.5 70v274q0 46 21 88.5t56.5 74t82.5 50.5t100 19h31v-64h-31q-42 0 -78 -13.5t-63 -36.5t-42 -53.5t-15 -64.5v-274q0 -40 -8 -77t-25 -71l-74 -129q19 -33 38 -64.5t34.5 -64.5t25 -68.5t9.5 -76.5v-275 q0 -34 15 -64.5t42 -54t63 -37.5t78 -14h31v-61h-31q-51 0 -98 18t-83 49.5t-57.5 73.5t-21.5 90v275q0 73 -55 168q-29 49 -42 76t-13 34z" />
<glyph unicode="|" horiz-adv-x="252" d="M94 -102v1366h64v-1366h-64z" />
<glyph unicode="}" horiz-adv-x="434" d="M0 -279h31q42 0 78 14t63 37.5t42 54t15 64.5v275q0 41 9.5 76.5t24.5 68.5t34.5 64.5t40.5 64.5q-21 33 -40.5 64.5t-34.5 65t-24.5 70t-9.5 77.5v274q0 34 -15 64.5t-42 53.5t-63 36.5t-78 13.5h-31v64h31q54 0 101.5 -19t83 -50.5t56.5 -74t21 -88.5v-274 q0 -37 10 -71t25.5 -66.5t34.5 -63.5t36 -61q2 -2 2 -11q0 -8 -14 -34t-41 -76q-53 -98 -53 -168v-275q0 -48 -21.5 -90.5t-57.5 -73.5t-83.5 -49t-99.5 -18h-31v61z" />
<glyph unicode="~" horiz-adv-x="891" d="M20 567q14 39 17 43q18 45 42 82.5t52.5 63.5t59.5 40.5t61 14.5q80 0 207 -92q61 -45 105.5 -66.5t76.5 -21.5q26 0 52 13t47.5 34.5t37 49t19.5 56.5l2 27h61l-4 -35q-5 -45 -24 -83t-48.5 -65t-66.5 -42t-78 -15q-55 0 -107 27q-3 0 -135 90q-91 62 -145 62 q-18 0 -39.5 -11.5t-43 -32.5t-41.5 -51t-36 -67l-6 -21h-66z" />
<glyph unicode="&#xad;" horiz-adv-x="1053" d="M94 463v61h862v-61h-862z" />
<glyph unicode="&#xde;" horiz-adv-x="1276" d="M26.5 642.5q-0.5 13.5 3.5 28t12 29t19 25.5q21 22 42.5 43.5t45.5 40.5q50 40 105.5 58.5t112 18.5t112.5 -17t108 -49q99 -60 142.5 -147.5t43.5 -199.5v-138q33 5 67.5 10.5t72.5 11.5q4 63 6.5 123.5t-3.5 121.5q-8 76 -18 151.5t-20 151.5q-3 26 -5.5 51.5 t-6.5 51.5q-3 26 8 45.5t32 31.5t40 4.5t39 -19.5q24 -16 37 -36.5t10 -49.5q-5 -41 -4 -82t5 -82t9 -82t8 -82q4 -54 6 -107t6 -107q2 -38 5.5 -75t9.5 -75q4 -25 -3.5 -46t-23 -34t-37 -17t-45.5 4q-26 9 -50 9t-50 -11q-28 -12 -57 -21.5t-58 -20.5q-10 -4 -23 -6 q-36 -8 -64 -1t-45 25.5t-21 47t8 63.5q43 133 21 271q-7 42 -28.5 77t-53 60t-71.5 39t-83 14q2 -5 4 -9t4 -7q16 -20 24.5 -33.5t8.5 -25t-8 -24.5t-25 -31q-49 -54 -82.5 -114t-56.5 -128q-15 -45 -12.5 -87.5t18.5 -85.5q3 -9 7 -17q13 -22 35 -35.5t40 -6.5 q11 5 21.5 14t15.5 20q11 26 5.5 49t-25.5 39q-8 6 -16.5 10t-13.5 11q-9 11 -15.5 23.5t-14.5 25.5q34 15 68 13t61.5 -17t46 -41t22.5 -59q6 -52 -13 -96.5t-45 -85.5q-9 -14 -30 -21t-40 -9q-37 -5 -72.5 6.5t-65.5 34t-53.5 53.5t-36.5 66q-14 38 -21 79t-9 83 q-2 23 5.5 47.5t18.5 44.5q10 19 21 37t20 37.5t14 41t5 46.5q-19 -2 -36.5 -4t-35.5 -4q-29 -4 -55 3.5t-43 31.5q-6 9 -6.5 22.5zM626 -131q-3 19 2 38q7 28 16 55.5t24 51.5q34 55 82 62t99 -35q11 -10 21.5 -21t23.5 -25q38 20 75 39.5t75 39.5l24 12t26 10 q37 11 59.5 1.5t39.5 -44.5q4 -9 4.5 -21.5t-3.5 -25.5t-12 -24.5t-20 -18.5q-45 -29 -89 -57.5t-92 -53.5q-23 -12 -46.5 -25t-48 -23t-50 -16t-53.5 -5q-22 1 -43.5 1.5t-41.5 5.5q-19 4 -34 16t-25 28t-13 35z" />
<glyph unicode="&#xe0d;" horiz-adv-x="1276" d="M26.5 642.5q-0.5 13.5 3.5 28t12 29t19 25.5q21 22 42.5 43.5t45.5 40.5q50 40 105.5 58.5t112 18.5t112.5 -17t108 -49q99 -60 142.5 -147.5t43.5 -199.5v-138q33 5 67.5 10.5t72.5 11.5q4 63 6.5 123.5t-3.5 121.5q-8 76 -18 151.5t-20 151.5q-3 26 -5.5 51.5 t-6.5 51.5q-3 26 8 45.5t32 31.5t40 4.5t39 -19.5q24 -16 37 -36.5t10 -49.5q-5 -41 -4 -82t5 -82t9 -82t8 -82q4 -54 6 -107t6 -107q2 -38 5.5 -75t9.5 -75q4 -25 -3.5 -46t-23 -34t-37 -17t-45.5 4q-26 9 -50 9t-50 -11q-28 -12 -57 -21.5t-58 -20.5q-10 -4 -23 -6 q-36 -8 -64 -1t-45 25.5t-21 47t8 63.5q43 133 21 271q-7 42 -28.5 77t-53 60t-71.5 39t-83 14q2 -5 4 -9t4 -7q16 -20 24.5 -33.5t8.5 -25t-8 -24.5t-25 -31q-49 -54 -82.5 -114t-56.5 -128q-15 -45 -12.5 -87.5t18.5 -85.5q3 -9 7 -17q13 -22 35 -35.5t40 -6.5 q11 5 21.5 14t15.5 20q11 26 5.5 49t-25.5 39q-8 6 -16.5 10t-13.5 11q-9 11 -15.5 23.5t-14.5 25.5q34 15 68 13t61.5 -17t46 -41t22.5 -59q6 -52 -13 -96.5t-45 -85.5q-9 -14 -30 -21t-40 -9q-37 -5 -72.5 6.5t-65.5 34t-53.5 53.5t-36.5 66q-14 38 -21 79t-9 83 q-2 23 5.5 47.5t18.5 44.5q10 19 21 37t20 37.5t14 41t5 46.5q-19 -2 -36.5 -4t-35.5 -4q-29 -4 -55 3.5t-43 31.5q-6 9 -6.5 22.5zM626 -131q-3 19 2 38q7 28 16 55.5t24 51.5q34 55 82 62t99 -35q11 -10 21.5 -21t23.5 -25q38 20 75 39.5t75 39.5l24 12t26 10 q37 11 59.5 1.5t39.5 -44.5q4 -9 4.5 -21.5t-3.5 -25.5t-12 -24.5t-20 -18.5q-45 -29 -89 -57.5t-92 -53.5q-23 -12 -46.5 -25t-48 -23t-50 -16t-53.5 -5q-22 1 -43.5 1.5t-41.5 5.5q-19 4 -34 16t-25 28t-13 35z" />
<glyph unicode="&#xff;" horiz-adv-x="1942" d="M289 0v68v25v15.5t2 14.5q39 240 139 303q55 34 96 51q32 17 82 41t119 53q8 3 31 5.5t57 25.5v27v7q0 7 -2 11q-20 42 -20 49v2q7 0 11 -10q2 -4 3 -10q4 -13 14.5 -26t25 -26t31.5 -26t33 -25q46 -18 82 -18q18 0 51 8.5t70 28t70 52t51 81.5q0 -24 -31 -76 q-6 -4 -11 -8t-9.5 -10.5t-7 -17.5t-2.5 -29q0 -7 2 -13h4q20 0 35 -1.5t26 -6.5q209 -76 336 -209q80 -98 80 -264l-2 -53v-17v-11.5t2 -10.5h-1368zM666 1061v49q8 11 17 25t22 34h8q4 0 4 2v17q55 18 67 123q26 12 45.5 19t22.5 24q14 0 25 10q17 -14 49 -14q0 11 28 30 q6 -12 21 -30q5 11 9 21t9 18h13q5 0 20 18q25 0 69 -8t107 -25q6 -10 17 -19.5t22.5 -18t22 -15t14.5 -10.5q5 -20 16.5 -54t24 -69.5t23.5 -65.5t14 -41q0 -19 -5 -45t-11.5 -53t-12 -51.5t-6.5 -40.5l-8 12q-9 -7 -20 -27t-20.5 -41.5t-16 -39t-7.5 -19.5v182 q-21 21 -43 115q-56 98 -188 98q-150 0 -187 -120l-57 -103v-207h-18q-2 28 -5 59.5t-7 62t-10.5 56.5t-16.5 44q-4 -11 -8 -33l-9 33q-4 -12 -4 -25q0 -9 3.5 -23t7 -29t7 -29t3.5 -23q-26 35 -38.5 91.5t-12.5 135.5zM707 905v8q6 0 6 -4t-6 -4zM735 555q15 -144 203 -240 q10 0 26.5 -0.5t36.5 1.5t41 8t39 20q25 19 40.5 29.5t23.5 15.5q2 9 14.5 23t38.5 32q51 36 51 76q-5 20 -18.5 28.5t-36.5 8.5q-6 0 -6 -6t4 -18t10 -21q-32 -75 -90 -113q5 13 8.5 26t16.5 13q1 4 4 18t6 31t5.5 33t2.5 25q0 26 -8 39q-92 -56 -154 -56q-19 0 -35.5 5.5 t-35 16t-41 26.5t-52.5 38q3 -21 5 -21v1q0 -7 -15 -10q2 -11 2 -26.5t2 -35.5q-12 12 -43 21zM735 1217v6q6 0 6 -4q0 -2 -6 -2zM776 735v6q8 0 8 -4q0 -2 -8 -2zM784 705v20q9 -3 9 -20h-9zM784 1245q9 0 9 6q0 9 -9 9v-15zM821 975q2 2 4 2l2 4q13 12 41 12q22 0 41.5 -6 t42.5 -20q-5 -2 -9 -2h-9h-50t-63 10zM836 922q6 3 17.5 12.5t35.5 9.5q40 0 53 -10l10 -10l4 -11q0 -3 -17.5 -11t-39.5 -11l35 10q2 2 2 4.5t2 5.5h-4q-8 0 -25.5 3.5t-25.5 3.5q-36 0 -47 4zM860 926h6q5 0 17 -3t20 -3q-12 3 -12 10t10 10h-16q-9 -4 -25 -14zM883 737 q4 0 12.5 0.5t18.5 1.5t20 1.5t16 0.5t14.5 -1.5t16.5 -3.5l14 -3.5t9 -1.5q8 0 28 2t31 2t29 -5.5t23 -5.5l1 1q0 -13 -16.5 -26.5t-36.5 -24t-39 -17t-23 -6.5q-5 0 -15 1t-25 3q-12 0 -25.5 8.5t-25 21t-19.5 27t-8 25.5zM907 727q3 -9 19 -25q9 -2 30 -7t41 -5 q8 0 27.5 2t32.5 2q3 0 9 3.5t11.5 8t10 9t4.5 6.5q0 4 -19 4q-2 0 -9.5 -0.5t-17 -1.5t-19 -1.5t-15.5 -0.5q-9 0 -14 1.5t-11 3.5t-17 3.5t-32 1.5q-2 0 -12 -2t-15 -2h-4zM909 920q13 -2 21 -2h12h2h-2h2l-4 8q-5 5 -14 8l-4 4q2 -2 2 -4t2 -4q0 -7 -17 -10zM916 929 q0 -5 4 -5q6 0 6 5q0 3 -6 3q-4 0 -4 -3zM956 799q0 2 7 2q5 0 9.5 -3t4.5 -5h-4h-6l-2 2q-9 0 -9 4zM967 672h4l2 -2q0 -2 1 -2t3 -2h10l2 4l-2 2l-12 2l-6 2zM973 905v17q8 0 8 -9q0 -8 -8 -8zM1001 670h17l4 2l2 2v4h-8l-2 -2h-8h-5v-6zM1040 788l17 5q4 0 6 -2l4 -3h-27 zM1067 1384q0 -4 12 -10q2 2 3.5 6t4.5 9q-20 0 -20 -5zM1069 901l16 14q7 6 12 9.5t11 3.5q20 0 33 -3.5t21.5 -7.5t13 -8.5t6.5 -5.5l8 -8h-64q-15 0 -27 2t-20 4h-10zM1081 903h25q2 0 8.5 -1t11.5 -1q9 0 17 1t10 1h4q2 -2 19 -2q-9 0 -13 3.5t-9 8t-15 8t-29 3.5 q-7 0 -11.5 -6t-17.5 -15zM1085 952q16 19 27 19h35.5t44.5 -10q2 0 4 -3q13 -5 15.5 -7.5t7.5 -8.5q-6 -2 -21 -2q-5 0 -8.5 0.5t-8.5 1.5t-14.5 3.5t-27.5 6.5q-23 6 -31 6h-12q-3 -2 -6 -3t-5 -3zM1102 1374q14 0 14 8q0 7 -14 7v-15zM1106 911q0 11 18 11q19 0 19 -11 q0 -8 -19 -8q-18 0 -18 8zM1108 911q0 -4 4 -4q6 0 6 4q-4 4 -6 4q-4 0 -4 -4zM1110 879v6q12 0 12 -2q-4 -4 -12 -4zM1235 1319l25 -39q16 0 16 10q0 8 -13.5 18.5t-25.5 10.5h-2zM1239 735q3 20 10 27v-10q0 -14 -10 -17zM1311 864v6q6 0 8 -2q-4 -4 -8 -4z" />
<glyph unicode="&#x152;" d="M-306 1013l5 8l12 21q11 17 21.5 34t21.5 35q-18 -2 -33.5 2.5t-17.5 14.5h1q-1 7 0 11l21 26l14 14t23 21q4 1 8 4q4 2 9 5l10 6h-1q19 12 44 -1l6 -3h-3q14 -3 21 -9.5t2 -13.5q-2 -2 -3.5 -5.5t-7.5 -12.5h1l-12 -21l-18 -31l43 34l30 25l19 12h-1l11 8q2 1 7 6l9 9 l20 14l8 5l21 17l13 10q8 6 23 4t27 -7q2 -2 3 -7t-1 -7q-2 0 -3 -1q-9 -2 -13.5 -5t-8.5 -6l-46 -30l-18 -14h3l-8 -4h2l-6 -4t-10 -6h2l-22 -18q-2 0 -6 -2.5t-6 -3.5h1l-13 -12l-22 -16l-21 -16l-14 -11q-5 -4 -9.5 -7.5t-12.5 -11.5q-12 -11 -22.5 -22.5t-21.5 -23.5 l-10 -11l-12 -12l-14 -2h11l-1 -1q-20 -10 -32 -9.5t-18 8.5h1q-8 8 -5 13h-1zM-258 1134q1 2 3 4l43 40h-1q2 2 3 4.5t0 11.5h23l-14 -7h1q-5 -3 -14 -13.5t-18 -23.5q-3 -3 -6 -12q-1 -1 -1 -3v-3h-15q-5 0 -4 2zM-228 1082q0 -1 1 0h-1zM-187 1194h3q0 1 -1 1z" />
<glyph unicode="&#xf70b;" d="M-306 1013l5 8l12 21q11 17 21.5 34t21.5 35q-18 -2 -33.5 2.5t-17.5 14.5h1q-1 7 0 11l21 26l14 14t23 21q4 1 8 4q4 2 9 5l10 6h-1q19 12 44 -1l6 -3h-3q14 -3 21 -9.5t2 -13.5q-2 -2 -3.5 -5.5t-7.5 -12.5h1l-12 -21l-18 -31l43 34l30 25l19 12h-1l11 8q2 1 7 6l9 9 l20 14l8 5l21 17l13 10q8 6 23 4t27 -7q2 -2 3 -7t-1 -7q-2 0 -3 -1q-9 -2 -13.5 -5t-8.5 -6l-46 -30l-18 -14h3l-8 -4h2l-6 -4t-10 -6h2l-22 -18q-2 0 -6 -2.5t-6 -3.5h1l-13 -12l-22 -16l-21 -16l-14 -11q-5 -4 -9.5 -7.5t-12.5 -11.5q-12 -11 -22.5 -22.5t-21.5 -23.5 l-10 -11l-12 -12l-14 -2h11l-1 -1q-20 -10 -32 -9.5t-18 8.5h1q-8 8 -5 13h-1zM-258 1134q1 2 3 4l43 40h-1q2 2 3 4.5t0 11.5h23l-14 -7h1q-5 -3 -14 -13.5t-18 -23.5q-3 -3 -6 -12q-1 -1 -1 -3v-3h-15q-5 0 -4 2zM-228 1082q0 -1 1 0h-1zM-187 1194h3q0 1 -1 1z" />
<glyph unicode="&#x153;" d="M-605 1292l5 8l12 21q11 17 21.5 34t21.5 35q-18 -2 -33.5 2.5t-17.5 14.5h1q-1 7 0 11l21 26l14 14t23 21q4 1 8 4q4 2 9 5l10 6h-1q19 12 44 -1l6 -3h-3q14 -3 21 -9.5t2 -13.5q-2 -2 -3.5 -5.5t-7.5 -12.5h1l-12 -21l-18 -31l43 34l30 25l19 12h-1l11 8q2 1 7 6l9 9 l20 14l8 5l21 17l13 10q8 6 23 4t27 -7q2 -2 3 -7t-1 -7q-2 0 -3 -1q-9 -2 -13.5 -5t-8.5 -6l-46 -30l-18 -14h3l-8 -4h2l-6 -4t-10 -6h2l-22 -18q-2 0 -6 -2.5t-6 -3.5h1l-13 -12l-22 -16l-21 -16l-14 -11q-5 -4 -9.5 -7.5t-12.5 -11.5q-12 -11 -22.5 -22.5t-21.5 -23.5 l-10 -11l-12 -12l-14 -2h11l-1 -1q-20 -10 -32 -9.5t-18 8.5h1q-8 8 -5 13h-1zM-557 1413q1 2 3 4l43 40h-1q2 2 3 4.5t0 11.5h23l-14 -7h1q-5 -3 -14 -13.5t-18 -23.5q-3 -3 -6 -12q-1 -1 -1 -3v-3h-15q-5 0 -4 2zM-527 1361q0 -1 1 0h-1zM-486 1473h3q0 1 -1 1z" />
<glyph unicode="&#xf714;" d="M-605 1292l5 8l12 21q11 17 21.5 34t21.5 35q-18 -2 -33.5 2.5t-17.5 14.5h1q-1 7 0 11l21 26l14 14t23 21q4 1 8 4q4 2 9 5l10 6h-1q19 12 44 -1l6 -3h-3q14 -3 21 -9.5t2 -13.5q-2 -2 -3.5 -5.5t-7.5 -12.5h1l-12 -21l-18 -31l43 34l30 25l19 12h-1l11 8q2 1 7 6l9 9 l20 14l8 5l21 17l13 10q8 6 23 4t27 -7q2 -2 3 -7t-1 -7q-2 0 -3 -1q-9 -2 -13.5 -5t-8.5 -6l-46 -30l-18 -14h3l-8 -4h2l-6 -4t-10 -6h2l-22 -18q-2 0 -6 -2.5t-6 -3.5h1l-13 -12l-22 -16l-21 -16l-14 -11q-5 -4 -9.5 -7.5t-12.5 -11.5q-12 -11 -22.5 -22.5t-21.5 -23.5 l-10 -11l-12 -12l-14 -2h11l-1 -1q-20 -10 -32 -9.5t-18 8.5h1q-8 8 -5 13h-1zM-557 1413q1 2 3 4l43 40h-1q2 2 3 4.5t0 11.5h23l-14 -7h1q-5 -3 -14 -13.5t-18 -23.5q-3 -3 -6 -12q-1 -1 -1 -3v-3h-15q-5 0 -4 2zM-527 1361q0 -1 1 0h-1zM-486 1473h3q0 1 -1 1z" />
<glyph unicode="&#x160;" d="M-658 1085q0 19 14 47q10 21 25.5 36t34.5 25.5t41 18t46 14.5q21 6 41 12t40 14q55 17 64 -8q4 -10 -8.5 -18.5t-35.5 -15.5l-21 -6q-25 -7 -50 -13.5t-50 -14.5q-8 -2 -14.5 -8.5t-8.5 -26.5h-7l11 -7l29 -16h-1q11 -8 21 -16.5t14 -13.5q7 -11 11 -21t4 -17 q0 -11 -11 -24.5t-31 -31.5q-14 -12 -45 -12q-32 0 -55 18q-31 27 -46 51q-5 9 -8.5 18.5t-3.5 15.5z" />
<glyph unicode="&#xf709;" d="M-658 1085q0 19 14 47q10 21 25.5 36t34.5 25.5t41 18t46 14.5q21 6 41 12t40 14q55 17 64 -8q4 -10 -8.5 -18.5t-35.5 -15.5l-21 -6q-25 -7 -50 -13.5t-50 -14.5q-8 -2 -14.5 -8.5t-8.5 -26.5h-7l11 -7l29 -16h-1q11 -8 21 -16.5t14 -13.5q7 -11 11 -21t4 -17 q0 -11 -11 -24.5t-31 -31.5q-14 -12 -45 -12q-32 0 -55 18q-31 27 -46 51q-5 9 -8.5 18.5t-3.5 15.5z" />
<glyph unicode="&#x161;" d="M-996 1077q0 10 1 19.5t1 19.5q1 9 1.5 18.5t0.5 18.5q0 8 2.5 16t5.5 16l7 16h-1q8 23 17 45.5t20 45.5q5 11 16 25.5t23 27.5q12 14 24 15.5t29 -10.5h-1l27 -20l9 -6l24 -25h-1q16 -18 33 -26t33 -8q26 0 52 17q32 20 65 43.5t69 49.5l31 22q9 6 19 13t23 18 q5 5 17.5 12t26.5 15q8 5 15.5 9.5t14.5 9.5q6 5 16.5 7.5t23.5 3.5q17 3 23.5 -1.5t11.5 -9.5l4 -4q11 -12 12 -23t-1 -22q1 2 -5 -2t-11 -8h2l-4 -3h-19q-14 9 -16 14t-4 9l-3 8q-22 -14 -45.5 -29.5t-44.5 -29.5h1l-35 -28l-14 -12l-45 -32h1l-36 -26t-37 -26 q-10 -6 -23 -13t-30 -14q-12 -5 -25 -7.5t-28 -2.5q-35 0 -62 15q-26 14 -43 29t-31 29h1q-5 4 -3 3t-3 3q-9 -14 -18.5 -34.5t-18 -44.5t-14.5 -49t-8 -48q6 11 14.5 23.5t19.5 24.5q29 31 78 25q5 -2 7 0q19 4 35.5 1t29 -10.5t20.5 -17.5t10 -20h-1q3 -10 4 -18.5 t1 -15.5t-0.5 -14.5t-1.5 -14.5l-4 -36q-1 -5 -4.5 -10t-19.5 -8q-13 -2 -24.5 -1.5t-19.5 8.5q-5 7 -7 10.5t-3 5.5h1q-5 12 -6 18t-2 11l-6 27q-3 14 -7 24t-9 15q-6 6 -13 2h1q1 1 -4.5 -6t-10.5 -14q-16 -25 -29.5 -57.5t-24.5 -66.5q-1 -2 -1 -11q-3 -16 -33 -22 q-17 -3 -29 1t-17 15q-8 22 -13 42.5t-4 40.5z" />
<glyph unicode="&#xf712;" d="M-996 1077q0 10 1 19.5t1 19.5q1 9 1.5 18.5t0.5 18.5q0 8 2.5 16t5.5 16l7 16h-1q8 23 17 45.5t20 45.5q5 11 16 25.5t23 27.5q12 14 24 15.5t29 -10.5h-1l27 -20l9 -6l24 -25h-1q16 -18 33 -26t33 -8q26 0 52 17q32 20 65 43.5t69 49.5l31 22q9 6 19 13t23 18 q5 5 17.5 12t26.5 15q8 5 15.5 9.5t14.5 9.5q6 5 16.5 7.5t23.5 3.5q17 3 23.5 -1.5t11.5 -9.5l4 -4q11 -12 12 -23t-1 -22q1 2 -5 -2t-11 -8h2l-4 -3h-19q-14 9 -16 14t-4 9l-3 8q-22 -14 -45.5 -29.5t-44.5 -29.5h1l-35 -28l-14 -12l-45 -32h1l-36 -26t-37 -26 q-10 -6 -23 -13t-30 -14q-12 -5 -25 -7.5t-28 -2.5q-35 0 -62 15q-26 14 -43 29t-31 29h1q-5 4 -3 3t-3 3q-9 -14 -18.5 -34.5t-18 -44.5t-14.5 -49t-8 -48q6 11 14.5 23.5t19.5 24.5q29 31 78 25q5 -2 7 0q19 4 35.5 1t29 -10.5t20.5 -17.5t10 -20h-1q3 -10 4 -18.5 t1 -15.5t-0.5 -14.5t-1.5 -14.5l-4 -36q-1 -5 -4.5 -10t-19.5 -8q-13 -2 -24.5 -1.5t-19.5 8.5q-5 7 -7 10.5t-3 5.5h1q-5 12 -6 18t-2 11l-6 27q-3 14 -7 24t-9 15q-6 6 -13 2h1q1 1 -4.5 -6t-10.5 -14q-16 -25 -29.5 -57.5t-24.5 -66.5q-1 -2 -1 -11q-3 -16 -33 -22 q-17 -3 -29 1t-17 15q-8 22 -13 42.5t-4 40.5z" />
<glyph unicode="&#x178;" d="M-413 1347q0 19 14 47q10 21 25.5 36t34.5 25.5t41 18t46 14.5q21 6 41 12t40 14q55 17 64 -8q4 -10 -8.5 -18.5t-35.5 -15.5l-21 -6q-25 -7 -50 -13.5t-50 -14.5q-8 -2 -14.5 -8.5t-8.5 -26.5h-7l11 -7l29 -16h-1q11 -8 21 -16.5t14 -13.5q7 -11 11 -21t4 -17 q0 -11 -11 -24.5t-31 -31.5q-14 -12 -45 -12q-32 0 -55 18q-31 27 -46 51q-5 9 -8.5 18.5t-3.5 15.5z" />
<glyph unicode="&#xf717;" d="M-413 1347q0 19 14 47q10 21 25.5 36t34.5 25.5t41 18t46 14.5q21 6 41 12t40 14q55 17 64 -8q4 -10 -8.5 -18.5t-35.5 -15.5l-21 -6q-25 -7 -50 -13.5t-50 -14.5q-8 -2 -14.5 -8.5t-8.5 -26.5h-7l11 -7l29 -16h-1q11 -8 21 -16.5t14 -13.5q7 -11 11 -21t4 -17 q0 -11 -11 -24.5t-31 -31.5q-14 -12 -45 -12q-32 0 -55 18q-31 27 -46 51q-5 9 -8.5 18.5t-3.5 15.5z" />
<glyph unicode="&#x17d;" d="M-265 1140h1q-2 2 0 7.5t6 8.5h-2q2 2 18 2h6t6 -1q10 -6 18 -6h7.5t5.5 -1l34 -4q1 0 5 2h-15q2 8 2 12q2 13 3 25.5t2 25.5t0 27q0 7 -2 11q0 1 -0.5 -0.5t-0.5 0.5h1q-2 3 0 8t6 9h-1q5 8 19.5 6.5t19.5 -6.5h-2q8 -6 10 -9.5t2 -5.5q1 -32 -3 -65q-2 -10 -2.5 -19.5 t-1.5 -19.5v-5h-13q4 -2 8 -2l30 -8q3 -2 6 -2q22 -6 41 -6q8 0 17.5 1t18.5 3q-3 0 1 2h3.5t4.5 1h-4q12 5 20.5 5t14.5 -9h-1q1 -2 2 -2.5t2 -1.5q5 -11 -16 -14q-6 -2 -9 -2q-2 -1 -6 -1h-6q-8 -2 -18 -2h-18h-16.5t-16.5 1q-28 2 -44 9h3q-2 0 -3 0.5t-3 0.5v-28 q0 -13 1 -26t6 -28q-4 5 -21 2q-33 -8 -35 12q-1 17 -1.5 32.5t-0.5 32.5v11h10l-6 2q-14 2 -28 3t-27 2q-4 1 -8 0q-17 0 -22.5 2.5t-7.5 7.5z" />
<glyph unicode="&#xf70d;" d="M-265 1140h1q-2 2 0 7.5t6 8.5h-2q2 2 18 2h6t6 -1q10 -6 18 -6h7.5t5.5 -1l34 -4q1 0 5 2h-15q2 8 2 12q2 13 3 25.5t2 25.5t0 27q0 7 -2 11q0 1 -0.5 -0.5t-0.5 0.5h1q-2 3 0 8t6 9h-1q5 8 19.5 6.5t19.5 -6.5h-2q8 -6 10 -9.5t2 -5.5q1 -32 -3 -65q-2 -10 -2.5 -19.5 t-1.5 -19.5v-5h-13q4 -2 8 -2l30 -8q3 -2 6 -2q22 -6 41 -6q8 0 17.5 1t18.5 3q-3 0 1 2h3.5t4.5 1h-4q12 5 20.5 5t14.5 -9h-1q1 -2 2 -2.5t2 -1.5q5 -11 -16 -14q-6 -2 -9 -2q-2 -1 -6 -1h-6q-8 -2 -18 -2h-18h-16.5t-16.5 1q-28 2 -44 9h3q-2 0 -3 0.5t-3 0.5v-28 q0 -13 1 -26t6 -28q-4 5 -21 2q-33 -8 -35 12q-1 17 -1.5 32.5t-0.5 32.5v11h10l-6 2q-14 2 -28 3t-27 2q-4 1 -8 0q-17 0 -22.5 2.5t-7.5 7.5z" />
<glyph unicode="&#x17e;" d="M-491 1357h1q-2 2 0 7.5t6 8.5h-2q2 2 18 2h6t6 -1q10 -6 18 -6h7.5t5.5 -1l34 -4q1 0 5 2h-15q2 8 2 12q2 13 3 25.5t2 25.5t0 27q0 7 -2 11q0 1 -0.5 -0.5t-0.5 0.5h1q-2 3 0 8t6 9h-1q5 8 19.5 6.5t19.5 -6.5h-2q8 -6 10 -9.5t2 -5.5q1 -32 -3 -65q-2 -10 -2.5 -19.5 t-1.5 -19.5v-5h-13q4 -2 8 -2l30 -8l6 -2q22 -6 41 -6q8 0 17.5 1t18.5 3q-3 0 1 2h3.5t4.5 1h-4q12 5 20.5 5t14.5 -9h-1q1 -2 2 -2.5t2 -1.5q5 -11 -16 -14q-6 -2 -9 -2q-2 -1 -6 -1h-6q-8 -2 -18 -2h-18h-16.5t-16.5 1q-28 2 -44 9h3q-2 0 -3 0.5t-3 0.5v-28q0 -13 1 -26 t6 -28q-4 5 -21 2q-33 -8 -35 12q-1 17 -1.5 32.5t-0.5 32.5v11h10l-6 2q-14 2 -28 3t-27 2q-4 1 -8 0q-17 0 -22.5 2.5t-7.5 7.5z" />
<glyph unicode="&#xf716;" d="M-491 1357h1q-2 2 0 7.5t6 8.5h-2q2 2 18 2h6t6 -1q10 -6 18 -6h7.5t5.5 -1l34 -4q1 0 5 2h-15q2 8 2 12q2 13 3 25.5t2 25.5t0 27q0 7 -2 11q0 1 -0.5 -0.5t-0.5 0.5h1q-2 3 0 8t6 9h-1q5 8 19.5 6.5t19.5 -6.5h-2q8 -6 10 -9.5t2 -5.5q1 -32 -3 -65q-2 -10 -2.5 -19.5 t-1.5 -19.5v-5h-13q4 -2 8 -2l30 -8l6 -2q22 -6 41 -6q8 0 17.5 1t18.5 3q-3 0 1 2h3.5t4.5 1h-4q12 5 20.5 5t14.5 -9h-1q1 -2 2 -2.5t2 -1.5q5 -11 -16 -14q-6 -2 -9 -2q-2 -1 -6 -1h-6q-8 -2 -18 -2h-18h-16.5t-16.5 1q-28 2 -44 9h3q-2 0 -3 0.5t-3 0.5v-28q0 -13 1 -26 t6 -28q-4 5 -21 2q-33 -8 -35 12q-1 17 -1.5 32.5t-0.5 32.5v11h10l-6 2q-14 2 -28 3t-27 2q-4 1 -8 0q-17 0 -22.5 2.5t-7.5 7.5z" />
<glyph unicode="&#x192;" d="M-961 1143q5 49 21 92t39 85q21 34 45.5 63t57.5 52q34 23 70.5 32t77.5 5q24 -2 49 -7t54 -9q22 25 41 28t54 -19q14 -8 24 -21t24 -19q16 -6 30 -12t28 -14q40 -23 64.5 -63.5t33.5 -87.5t3.5 -93.5t-25.5 -81.5q-20 -37 -59.5 -60.5t-87.5 -15.5q-21 5 -42.5 9 t-42.5 7q-20 4 -38 12.5t-36 13.5q-17 4 -37 -2.5t-39 -5.5q-59 3 -118 8.5t-118 11.5q-13 2 -23.5 8.5t-21.5 13.5q-17 13 -23.5 31t-4.5 39zM-906.5 1114q0.5 -6 2.5 -12q3 6 5 11q4 11 -5 22l-2 -10t-0.5 -11zM-624 1210.5q-5 -28.5 9 -63.5q7 10 13 16t7 13q1 22 0 44 t-2 45q-2 0 -5 0.5t-5 0.5q-12 -27 -17 -55.5zM-442 1209q6 -21 10 -43.5t21 -45.5q6 10 12.5 18t8.5 17q6 25 10 49.5t8 50.5q2 20 -8 31.5t-30 18.5q-23 -21 -31.5 -44t-0.5 -52zM-416 1088q0 -20 15.5 -35t34.5 -15q20 0 35 15t15 35t-15 35t-35 15q-19 0 -34.5 -15 t-15.5 -35z" />
<glyph unicode="&#xf703;" d="M-961 1143q5 49 21 92t39 85q21 34 45.5 63t57.5 52q34 23 70.5 32t77.5 5q24 -2 49 -7t54 -9q22 25 41 28t54 -19q14 -8 24 -21t24 -19q16 -6 30 -12t28 -14q40 -23 64.5 -63.5t33.5 -87.5t3.5 -93.5t-25.5 -81.5q-20 -37 -59.5 -60.5t-87.5 -15.5q-21 5 -42.5 9 t-42.5 7q-20 4 -38 12.5t-36 13.5q-17 4 -37 -2.5t-39 -5.5q-59 3 -118 8.5t-118 11.5q-13 2 -23.5 8.5t-21.5 13.5q-17 13 -23.5 31t-4.5 39zM-906.5 1114q0.5 -6 2.5 -12q3 6 5 11q4 11 -5 22l-2 -10t-0.5 -11zM-624 1210.5q-5 -28.5 9 -63.5q7 10 13 16t7 13q1 22 0 44 t-2 45q-2 0 -5 0.5t-5 0.5q-12 -27 -17 -55.5zM-442 1209q6 -21 10 -43.5t21 -45.5q6 10 12.5 18t8.5 17q6 25 10 49.5t8 50.5q2 20 -8 31.5t-30 18.5q-23 -21 -31.5 -44t-0.5 -52zM-416 1088q0 -20 15.5 -35t34.5 -15q20 0 35 15t15 35t-15 35t-35 15q-19 0 -34.5 -15 t-15.5 -35z" />
<glyph unicode="&#x2c6;" d="M-1041 1227q-24 20 2 40q5 5 11 7.5t13 6.5q20 12 20 32q2 35 10.5 68.5t21.5 66.5q9 22 22.5 40.5t33.5 32.5q24 19 50.5 21t54.5 -11q26 -11 51 -25t45 -34l41 -49l10 -17l25 34q9 17 21.5 22t29.5 3q61 -9 98 -45t61 -87q11 -20 19 -43t18 -45q5 0 5 2q14 32 29.5 63 t28.5 64q26 69 16 131.5t-43 125.5q-27 50 -62.5 93t-76.5 83q-22 20 -46.5 40.5t-53.5 33.5l-18 7q-8 3 -13 4.5t-8.5 0.5t-7.5 -4.5t-10 -10.5q-9 -2 -15 3t-12 15q-7 20 -22 31v3h140l-3 -3l18 -14q18 -11 37.5 -22.5t37.5 -24.5q11 -8 20 -16.5t17 -17.5q22 -24 44 -47 t42 -49q18 -23 36 -47.5t32 -52.5q16 -32 27 -65.5t15 -68t1 -69t-16 -69.5l-54 -137q-17 -40 -31 -82t-27 -84q-4 -11 -4.5 -24t-0.5 -27q0 -20 -17 -27q-23 -11 -43.5 -1.5t-25.5 32.5q0 6 -1 11.5t1 11.5q4 60 -1.5 119t-22.5 118q-6 18 -16 35t-21 36q-2 4 -8 8t-14 9 q0 -24 -1 -44.5t1 -38.5q2 -33 -1.5 -64.5t-8.5 -62.5q-2 -11 -3 -22.5t3 -24.5q5 -18 -9.5 -30.5t-34.5 -8.5l-20 7q-13 7 -29 -5v-9q10 -21 -7 -35q-11 -5 -22 -6.5t-22 4.5q-32 16 -32 51q-2 52 -4 104.5t-6 103.5q-2 19 -5 39t-7 40q-6 22 -16.5 41.5t-30.5 33.5 q-14 11 -27.5 12.5t-30.5 -12.5q-22 -17 -37 -66q5 2 9 2.5t6 2.5q12 5 23.5 4t21.5 -7t17 -15.5t9 -22.5q0 -10 1 -19t6 -18q4 -4 4 -10.5t-2 -11.5l-44 -181q-5 -17 -10.5 -33t-13.5 -31q-5 -17 -22 -21.5t-34 4.5q-12 8 -20 20q-14 20 -26.5 43.5t-17.5 49.5l-22 95 q-13 -4 -24 -3t-22 10zM-909 1231q-1 -21 5 -45q11 26 19 50t10 50q-11 0 -20 -3.5t-9 -10.5q-4 -20 -5 -41z" />
<glyph unicode="&#xf707;" d="M-1041 1227q-24 20 2 40q5 5 11 7.5t13 6.5q20 12 20 32q2 35 10.5 68.5t21.5 66.5q9 22 22.5 40.5t33.5 32.5q24 19 50.5 21t54.5 -11q26 -11 51 -25t45 -34l41 -49l10 -17l25 34q9 17 21.5 22t29.5 3q61 -9 98 -45t61 -87q11 -20 19 -43t18 -45q5 0 5 2q14 32 29.5 63 t28.5 64q26 69 16 131.5t-43 125.5q-27 50 -62.5 93t-76.5 83q-22 20 -46.5 40.5t-53.5 33.5l-18 7q-8 3 -13 4.5t-8.5 0.5t-7.5 -4.5t-10 -10.5q-9 -2 -15 3t-12 15q-7 20 -22 31v3h140l-3 -3l18 -14q18 -11 37.5 -22.5t37.5 -24.5q11 -8 20 -16.5t17 -17.5q22 -24 44 -47 t42 -49q18 -23 36 -47.5t32 -52.5q16 -32 27 -65.5t15 -68t1 -69t-16 -69.5l-54 -137q-17 -40 -31 -82t-27 -84q-4 -11 -4.5 -24t-0.5 -27q0 -20 -17 -27q-23 -11 -43.5 -1.5t-25.5 32.5q0 6 -1 11.5t1 11.5q4 60 -1.5 119t-22.5 118q-6 18 -16 35t-21 36q-2 4 -8 8t-14 9 q0 -24 -1 -44.5t1 -38.5q2 -33 -1.5 -64.5t-8.5 -62.5q-2 -11 -3 -22.5t3 -24.5q5 -18 -9.5 -30.5t-34.5 -8.5l-20 7q-13 7 -29 -5v-9q10 -21 -7 -35q-11 -5 -22 -6.5t-22 4.5q-32 16 -32 51q-2 52 -4 104.5t-6 103.5q-2 19 -5 39t-7 40q-6 22 -16.5 41.5t-30.5 33.5 q-14 11 -27.5 12.5t-30.5 -12.5q-22 -17 -37 -66q5 2 9 2.5t6 2.5q12 5 23.5 4t21.5 -7t17 -15.5t9 -22.5q0 -10 1 -19t6 -18q4 -4 4 -10.5t-2 -11.5l-44 -181q-5 -17 -10.5 -33t-13.5 -31q-5 -17 -22 -21.5t-34 4.5q-12 8 -20 20q-14 20 -26.5 43.5t-17.5 49.5l-22 95 q-13 -4 -24 -3t-22 10zM-909 1231q-1 -21 5 -45q11 26 19 50t10 50q-11 0 -20 -3.5t-9 -10.5q-4 -20 -5 -41z" />
<glyph unicode="&#x2da;" horiz-adv-x="1707" />
<glyph unicode="&#x2dc;" d="M-462 1070.5q-4 16.5 0 31.5q5 17 14.5 33t28.5 33q18 15 51 15q20 0 34 -6q30 -15 46 -35t15 -47q0 -3 1 -6q17 10 33 21.5t31 29.5q14 16 27 31t26 32q11 13 25.5 13.5t31.5 -2.5q17 -2 25 -9t11 -16q4 -15 -15 -30l-8 -8t-12 -13q-24 -28 -56 -52.5t-70 -44.5l-18 -10 l-26 -14t-36 -12q-13 -3 -26.5 -4t-28.5 -1h-20.5t-17.5 2h1q-16 2 -30 12.5t-23.5 25t-13.5 31zM-376 1082h5q4 -11 9 -15v1l-1 23z" />
<glyph unicode="&#xf710;" d="M-462 1070.5q-4 16.5 0 31.5q5 17 14.5 33t28.5 33q18 15 51 15q20 0 34 -6q30 -15 46 -35t15 -47q0 -3 1 -6q17 10 33 21.5t31 29.5q14 16 27 31t26 32q11 13 25.5 13.5t31.5 -2.5q17 -2 25 -9t11 -16q4 -15 -15 -30l-8 -8t-12 -13q-24 -28 -56 -52.5t-70 -44.5l-18 -10 l-26 -14t-36 -12q-13 -3 -26.5 -4t-28.5 -1h-20.5t-17.5 2h1q-16 2 -30 12.5t-23.5 25t-13.5 31zM-376 1082h5q4 -11 9 -15v1l-1 23z" />
<glyph unicode="&#xe01;" horiz-adv-x="1044" d="M69 288q2 26 5 52t9 52q11 46 25.5 90.5t25.5 90.5q21 84 69 141.5t129 86.5q34 13 67.5 25.5t68.5 21.5q51 13 101 13t100 -24q23 -11 49.5 -17t49.5 -17q59 -27 94 -72.5t41 -109.5q10 -107 16 -213t15 -212q3 -36 8.5 -71t-1.5 -72q-3 -16 -13 -30.5t-24 -25.5 t-30.5 -17.5t-32.5 -4.5q-28 3 -40 18.5t-13 44.5q-2 112 -5 222t-6 222l-2 22t-3 22q-7 46 -27 83t-51 61t-71.5 35t-87.5 7q-29 -3 -57.5 -7t-57.5 -10q-14 -2 -27.5 -8.5t-34.5 -14.5q17 -17 24.5 -33.5t8.5 -33t-2.5 -33.5t-8.5 -35q-18 -66 -34 -131t-32 -131 q-14 -54 -26 -108t-26 -108q-2 -8 -5.5 -17t-9.5 -12q-13 -6 -27 -11t-28 -4q-15 1 -19.5 13.5t-2.5 25.5q7 63 18 126q4 24 8.5 48t9.5 48q-25 -9 -46 -18t-43 -13q-49 -9 -48 43zM196.5 300.5q-0.5 -6.5 2.5 -11.5q2 -5 5.5 3.5t6.5 20.5q4 14 7 34l-14 -14q-3 -10 -5 -18 t-2.5 -14.5zM204 333q2 -1 3 -2t3 -2q2 5 4.5 9t3.5 9q2 5 1.5 10t-0.5 10h-6q-2 -8 -4.5 -16.5t-4.5 -17.5z" />
<glyph unicode="&#xe02;" horiz-adv-x="812" d="M44.5 687q2.5 41 18.5 81q20 50 58 71t92 11q26 -5 52.5 -9t52.5 -9q34 -6 53.5 -28t17.5 -54q-2 -61 -5 -121.5t-5 -121.5q-1 -52 0 -104t1 -104q1 -29 1 -56.5v-55.5q-1 -43 14.5 -57t58.5 -10q28 2 48 14.5t28 41.5q3 11 7.5 21t5.5 21q10 82 20 163.5t8 165.5 q-2 55 -2 109v109q1 25 12.5 42t29.5 23q33 11 59 -5t28 -51q1 -17 -2 -34t-4 -34q-3 -75 -4.5 -148t-7.5 -148q-4 -58 -11 -116t-19 -115q-11 -49 -35.5 -91t-75.5 -64q-34 -15 -70.5 -17t-71.5 0q-25 2 -49.5 10t-48.5 16q-13 5 -19.5 15.5t-14.5 21.5q-21 31 -28.5 62.5 t-6.5 63.5t6 64t8 64q5 46 7.5 92.5t-2.5 97.5q-17 -5 -30.5 -8t-27.5 -5q-27 -5 -51.5 1t-44 19.5t-32 35t-16.5 48.5q-5 41 -2.5 82zM158.5 663q0.5 -27 16.5 -56q17 6 27 16.5t15.5 22.5t9 24.5t8.5 24.5q8 20 3.5 30t-21.5 15q-18 5 -31.5 -0.5t-19.5 -22.5 q-8 -27 -7.5 -54z" />
<glyph unicode="&#xe03;" horiz-adv-x="928" d="M48 645q-4 54 18.5 94t63.5 71q45 35 93 36.5t98 -16.5q14 -5 27.5 -7t29.5 1q27 5 51.5 -0.5t44 -19.5t32 -35.5t14.5 -48.5q4 -48 5.5 -96.5t-0.5 -96.5q-1 -41 3 -80.5t11 -80.5q7 -43 7.5 -86.5t2.5 -87.5q0 -9 -1.5 -17.5t0.5 -16.5q5 -26 21 -34t42 1 q47 17 68 49.5t23 80.5q2 54 5.5 107t5.5 107q1 18 -1 36t-3 36q-1 50 3.5 98.5t-3.5 98.5q-4 22 12.5 38t39.5 18q24 2 44 -11t23 -37q3 -29 2.5 -57.5t-2.5 -57.5q-3 -50 -7 -99.5t-9 -100.5q-3 -36 -4.5 -72.5t-3.5 -72.5t-6.5 -72t-14.5 -72q-5 -20 -14 -36.5t-25 -26.5 q-45 -29 -91 -51.5t-100 -27.5q-28 -3 -52.5 6t-43.5 26.5t-29.5 43t-10.5 55.5q0 21 2 42t4 43q2 32 3.5 64t-6.5 64q-6 23 -7 46.5t0 47t2.5 47t1.5 46.5v57h-100q-17 -20 -32.5 -38.5t-32.5 -34.5q-17 -15 -37.5 -21.5t-41.5 -6t-41.5 6.5t-35.5 17q-11 8 -20.5 19 t-13.5 23q-6 23 -9 46t-5 46zM165.5 657.5q-4.5 -18.5 9.5 -41.5q21 17 25 38t-4 50q-26 -28 -30.5 -46.5z" />
<glyph unicode="&#xe04;" horiz-adv-x="845" d="M81 452q-7 46 5 87.5t37 79.5q32 49 66 95.5t69 93.5q29 40 80 51q75 15 146.5 10.5t136.5 -49.5q32 -22 60 -47.5t48 -56t31 -66.5t10 -78q-2 -37 -7.5 -74t-10.5 -74q-5 -42 -10.5 -82.5t-10.5 -82.5q-3 -29 -3 -57t-2 -56q-2 -17 -5 -34.5t-9 -33.5q-23 -57 -87 -31 q-23 10 -35 32t-1 47q20 51 31 103t17.5 104.5t11 105t10.5 105.5q5 43 -7.5 82t-38 69t-63 49t-83.5 23q-7 1 -13.5 0.5t-13.5 0.5q-45 6 -78.5 -11t-58.5 -55q-22 -33 -45.5 -64.5t-45.5 -64.5q-16 -24 -22 -49t-5.5 -49.5t6.5 -49.5t15 -50q3 -1 5.5 -1.5t5.5 -0.5 q4 9 7.5 18.5t7.5 19.5q15 44 30 86.5t38 83.5q26 48 63.5 69.5t89.5 23.5q48 2 74 -24t26 -74q-2 -67 -37 -120q-19 -30 -46 -45.5t-64 -13.5q-14 1 -28 1.5t-31 1.5q-4 -9 -8.5 -18t-6.5 -18q-15 -63 -26 -124.5t-4 -126.5q3 -28 -2 -57q-4 -26 -21 -40t-43 -14 q-27 0 -41 11.5t-19 39.5q-2 15 -4.5 30t-3.5 31q-1 27 -8 52t-16.5 50t-19 49t-15.5 50q-8 34 -15.5 68t-12.5 69zM387 502q0 -4 7 -9.5t11 -4.5q8 2 17 7t14 12q5 9 7.5 19.5t5.5 21.5q-2 2 -4 4.5t-4 4.5q-11 -4 -22.5 -6.5t-19.5 -10.5q-7 -6 -9 -17t-3 -21z" />
<glyph unicode="&#xe05;" horiz-adv-x="846" d="M79 392.5q-8 68.5 1 137.5q10 72 31.5 139t67.5 125q43 54 98.5 72t120.5 8q21 -3 38 0t37 13q38 19 80 21t79 -13.5t64.5 -47t36.5 -78.5q20 -109 25 -217t3 -218q-1 -64 29 -120q11 -20 10.5 -40.5t-5.5 -41.5q-1 -4 -3.5 -8t-4.5 -8q-14 -22 -48.5 -29t-69.5 4 q-24 8 -36 28t-8 49q3 30 10 60t7 59q-5 201 -18 400q-2 21 -10.5 42t-19.5 40q-12 20 -33 20.5t-33 -19.5q-9 -15 -14.5 -33t4.5 -38q14 -29 9 -57t-28 -48q-14 -13 -23.5 -27t-11.5 -32q-3 -24 -14 -41t-27.5 -28t-35.5 -16t-38 -5h-46q-13 -24 -12 -49.5t3 -50.5 q3 -30 4.5 -60t5 -59.5t10 -59t18.5 -57.5q9 -20 4.5 -38t-19.5 -31q-17 -14 -37.5 -19.5t-41.5 4.5q-10 5 -19.5 14.5t-11.5 19.5q-5 22 -14 40t-23 35q-23 28 -35.5 60t-23.5 64q-24 66 -32 134.5zM197 510q5 7 9.5 13.5t7.5 14.5q10 23 18.5 45.5t17.5 45.5q23 58 73 92 q10 7 18 15.5t19 19.5q-37 5 -65 -9t-39 -44q-8 -23 -18.5 -45.5t-20 -46t-15.5 -48.5t-5 -53z" />
<glyph unicode="&#xe06;" horiz-adv-x="1086" d="M9.5 579q-0.5 6 1.5 11q16 39 36 78q9 20 19 40t21 40q17 33 41.5 58.5t63.5 35.5q23 5 44.5 14.5t44.5 12.5t40 3.5t35 -3.5t39 -12t53 -21q17 11 33 22t33 18q39 17 75 3t54 -52q8 -17 12.5 -34.5t10.5 -34.5l18 -50t17 -50q2 -6 4.5 -12t3.5 -13q8 -48 14.5 -95 t12.5 -95q3 -21 13.5 -36.5t33.5 -28.5q-4 26 -7.5 47.5t-6.5 43.5q-14 81 -28 162.5t-28 162.5q-9 53 47 63q14 2 29.5 3.5t30.5 1.5q45 -1 53 -51q16 -101 22.5 -201.5t11.5 -203.5q2 -50 11.5 -99.5t17.5 -99.5q2 -11 10 -22t15 -22q10 -15 12.5 -29.5t-6.5 -31.5 q-9 -16 -23 -25t-33 -8q-17 1 -33 3.5t-30 8t-26 16.5t-20 31q-8 17 -22 31.5t-27 30.5q-6 -2 -10 -3q-2 -12 -3.5 -24t-3.5 -24q-2 -16 -9 -28t-23 -19q-39 -17 -78 -33.5t-79 -29.5q-21 -7 -45 -5t-46 10.5t-40.5 23.5t-29.5 34q-6 9 -9 21.5t-1 23.5q4 28 -4.5 53.5 t-15.5 55.5q-23 -38 -38.5 -73.5t-11.5 -77.5q2 -20 -7 -35.5t-26 -25.5q-12 -7 -26 -7.5t-27 7.5q-26 17 -23 47q6 63 11.5 126t10.5 126q1 5 0.5 10.5t-0.5 10.5q-17 8 -36 13.5t-37 12.5t-33 18t-24 31q-17 34 -28 71t-7 79q-13 -5 -23 -8t-21 -7q0 9 -0.5 15zM211 596 q2 -1 4 -1t4 -1l9 24l-4 2l-4 2q-2 -7 -4.5 -13t-4.5 -13zM556 191q44 59 0 85v-85zM558 649q2 -37 4 -73l4 -72q8 0 11 1q5 36 1.5 72.5t-11.5 71.5h-9z" />
<glyph unicode="&#xe07;" horiz-adv-x="662" d="M65 216q2 8 16 15.5t24 5.5q33 -5 65.5 -12t64.5 -18q34 -11 67 -27t73 -34q8 88 15 169t15 167q-21 -14 -35 -21q-16 -7 -31 -15.5t-31 -11.5q-25 -5 -49 0.5t-43.5 18.5t-34 33t-20.5 45q-7 27 -8.5 54.5t8.5 55.5q22 64 51 123t82 106q59 53 133 31q23 -7 44 -15 t43 -16q32 -11 28 -47q-9 -89 -18 -177t-17 -177q-4 -41 -5.5 -81t-3.5 -81l-6 -93q-2 -22 0.5 -43.5t12.5 -42.5q11 -22 6.5 -44.5t-20.5 -35.5q-21 -18 -48.5 -21t-49.5 10l-12 8t-12 6q-48 19 -95 37t-95 36q-15 6 -31 10t-31 9l-22 10t-17 13q-7 10 -11.5 24.5 t-1.5 25.5zM235 592q3 -11 6.5 -24t8.5 -25q9 -20 21 -24t32 4t31.5 22t18.5 31q14 37 27 73.5t25 74.5q5 14 8 29.5t2 29.5q0 11 -6 22t-14 16q-6 4 -17.5 1t-19.5 -8q-10 -5 -19 -13t-15 -18q-41 -69 -77 -142q-5 -10 -7 -22.5t-5 -26.5z" />
<glyph unicode="&#xe08;" horiz-adv-x="788" d="M48 506q-2 59 18 110t54 97q23 31 48.5 59t54.5 53q42 37 92.5 43t102.5 -8q66 -17 122.5 -50t100.5 -85q35 -42 48 -92.5t5 -106.5q-11 -75 -41.5 -141t-72.5 -127q-15 -22 -31.5 -43.5t-31 -44t-25 -47.5t-14.5 -54q-2 -14 -12.5 -25t-24.5 -18.5t-31 -10.5t-32 0 q-28 5 -44 27t-12 56q6 51 14.5 101.5t14.5 101.5q2 26 1 54t-1 63q-33 -29 -64.5 -40t-61 -9t-55.5 14t-47 29q-15 12 -30.5 23t-28.5 25q-8 8 -11.5 21t-4.5 25zM214 505q0 -7 8.5 -15t16.5 -12q7 -5 16.5 -4.5t17.5 -1.5q15 -3 30 -6.5t34 -7.5q-3 45 -37 76 q-15 14 -31.5 16t-32.5 -10q-8 -5 -14.5 -15.5t-7.5 -19.5zM256 679q62 -11 106 -36t71 -63.5t39 -88.5t10 -111q5 0 8.5 -0.5t7.5 -0.5l16 30t15 31q19 47 19 92t-16.5 84.5t-49.5 70.5t-80 50q-42 17 -79.5 2.5t-66.5 -60.5z" />
<glyph unicode="&#xe09;" horiz-adv-x="847" d="M69 324q8 37 18.5 73t20.5 73q3 10 6.5 19.5t8.5 21.5q-8 3 -13.5 5t-11.5 4q-23 7 -20 33q2 17 4.5 34t10.5 31q27 54 63 102t82 87q59 51 125.5 58.5t137.5 -26.5q24 -11 46.5 -25t43.5 -30q49 -35 58 -99q8 -51 3 -100.5t-10 -100.5q-2 -12 -3 -27q61 -19 86.5 -60 t20.5 -110q-3 -42 -10.5 -82t-28.5 -77q-11 -20 -24.5 -38.5t-29.5 -35.5q-12 -12 -28.5 -16t-34 -1.5t-33 11.5t-24.5 23q-18 26 -22 55t-4 58v55q-23 -18 -31 -39t-15 -41q-11 -32 -20 -64t-5 -67q2 -17 -7 -27.5t-25 -16.5q-20 -8 -38 -4.5t-34 13.5q-8 5 -11 17.5 t-3 23.5q-2 56 -3 111.5t-3 111.5q0 5 -1 10.5t-3 14.5q-14 -14 -25.5 -26t-23.5 -23q-17 -15 -41 -21.5t-48.5 -4.5t-46.5 12.5t-35 28.5q-12 17 -17.5 36.5t-1.5 39.5zM168 323q1 -8 4.5 -15.5t6.5 -15.5q11 9 23.5 29.5t24 47.5t21.5 58.5t17.5 62t11 58.5t1.5 47 q-15 -18 -32 -47.5t-32 -62t-26.5 -64t-15.5 -53.5q-4 -20 -4 -45zM296 736q22 -5 42 -7t38 -9q32 -12 36.5 -27.5t-9.5 -40.5q5 -23 9 -40t4 -34q2 -56 1.5 -111t0.5 -112q0 -11 0.5 -23.5t0.5 -27.5q23 26 43 48.5t41 43.5q20 19 26 46q11 50 14 100t2 101q-1 30 -16 58 t-40 48t-57 28.5t-67 1.5q-20 -5 -38 -14t-31 -29zM609 267.5q-5 -40.5 8 -82.5q19 41 23.5 81.5t-15.5 82.5q-11 -41 -16 -81.5z" />
<glyph unicode="&#xe0a;" horiz-adv-x="936" d="M68.5 495.5q-5.5 52.5 7.5 106.5q13 57 33.5 110.5t58.5 100.5q40 49 90.5 70t114.5 4q10 -2 19.5 -4.5t19.5 -5.5q24 -6 35 12q11 17 25.5 24t34.5 0q21 -8 37 -19.5t14 -39.5q0 -2 1.5 -4t3.5 -6q14 -8 30 -7.5t33 6.5l90 32t90 33q20 7 35.5 5.5t23.5 -15.5 q8 -15 3.5 -28.5t-17.5 -23.5q-21 -15 -43.5 -30t-45.5 -26q-25 -12 -52.5 -21t-56.5 -20q5 -11 9.5 -21t8.5 -20q14 -37 29 -73t27 -73q19 -54 17 -107.5t-22 -107.5q-26 -72 -60.5 -140.5t-79.5 -132.5q-23 -32 -52 -53.5t-73 -19.5q-33 2 -49.5 13t-25.5 43 q-14 47 -17.5 94.5t0.5 95.5q3 37 5 73.5t4 72.5l-9 3q-11 -9 -21 -17t-19 -18q-37 -38 -80 -42t-90 11q-22 8 -37.5 24t-23.5 38q-20 51 -25.5 103.5zM175 461q4 -19 9.5 -37t25.5 -26q11 -4 20.5 -2.5t18 6t17 11t16.5 12.5q7 4 9 9q83 99 119 223q8 28 12 57t9 59 q-19 8 -32.5 11.5t-24.5 11.5q-23 17 -44.5 14t-41.5 -19q-12 -9 -24.5 -19t-20.5 -23q-42 -66 -62.5 -137t-5.5 -151zM465 197q0 -26 11.5 -40.5t38.5 -25.5q2 4 5.5 9t7.5 10q32 52 57.5 106t42.5 112q10 35 12.5 70.5t-4.5 70.5q-10 51 -28.5 99t-41.5 94q-3 6 -8.5 11.5 t-10.5 12.5q-3 -5 -5.5 -8t-3.5 -7q-36 -127 -53.5 -255t-19.5 -259z" />
<glyph unicode="&#xe0b;" horiz-adv-x="1152" d="M-34 566q17 81 59 145t99 118q28 27 58 36.5t58.5 3.5t53.5 -27.5t43 -56.5q5 -11 11 -22.5t12 -22.5q2 -2 4.5 -3.5t6.5 -4.5q4 1 9 1.5t10 3.5q32 26 66 30t75 -5q32 -7 65.5 -2.5t66.5 4.5q69 2 136.5 2.5t136.5 -0.5q22 0 44 -4t42 -10q24 -8 35 -26.5t6 -38.5 q-5 -23 -22 -28t-35 -5q-56 -1 -111 -1h-112q-12 -1 -24.5 -2t-29.5 -2q5 -13 8.5 -21.5t8.5 -16.5q15 -26 30 -47q38 -56 47.5 -115t-10.5 -124q-16 -51 -32.5 -100t-45.5 -95q-28 -45 -66 -75t-90 -41q-29 -6 -60 -3.5t-58 15t-48.5 38t-30.5 66.5q-9 38 -11.5 76.5 t5.5 77.5q12 59 24 117t23 118q2 14 3.5 29t3.5 31q-42 -5 -64 -27t-31 -57q-11 -38 -30 -71.5t-45 -63.5q-20 -23 -46 -36.5t-54.5 -17t-56.5 3.5t-51 26q-55 45 -78.5 101t-7.5 129zM103 497q3 -20 14.5 -36t32.5 -32q29 34 50.5 71.5t23.5 85.5q-26 4 -51 7.5t-51 7.5 q-12 -34 -17 -59t-2 -45zM505 244q-10 -64 27 -125q38 20 69.5 53.5t53 75.5t31 91t2 99.5t-33 101t-73.5 96.5q-9 -40 -17 -75.5t-15 -70.5q-12 -61 -23 -122t-21 -124z" />
<glyph unicode="&#xe0c;" horiz-adv-x="1193" d="M61 676q11 97 67 148.5t152 50.5q74 0 145.5 -13t140.5 -41q55 -23 90 -70q31 -42 58 -85t37 -97q8 -48 11 -95.5t-4 -96.5q-4 -23 -4.5 -47t1.5 -48q1 -13 7.5 -24.5t21.5 -19.5q3 8 6.5 15.5t5.5 15.5q29 96 56 190.5t46 192.5q2 5 3 9.5t4 7.5q12 11 14 23.5t1 27.5 q-1 26 10.5 39t38.5 19q7 2 13.5 4.5t13.5 4.5q38 14 62.5 -3t24.5 -57q0 -4 -1 -8t1 -7q6 -18 6.5 -36t-1.5 -35.5t-6 -35t-6 -35.5q-4 -35 -13.5 -69t-23.5 -66q-27 -65 -59.5 -125.5t-75.5 -116.5q-20 -26 -29.5 -55.5t-13.5 -61.5q-5 -35 -21 -48.5t-50 -13.5 q-18 0 -28 9t-15 23q-22 0 -41 -1t-37 2q-26 3 -47 19q-20 17 -43 11q-13 -4 -30 -2q-39 4 -57.5 21t-26.5 56q-2 13 -7 25t-10 23q-10 22 -2 43q12 33 32.5 60.5t47.5 48.5q22 17 48 17.5t52 0.5q4 0 8 -1t10 -2q1 7 2 13t0 12q-5 43 -9 86t-12 86q-8 45 -34.5 79t-60.5 63 q-22 18 -46.5 30t-53.5 16q-9 2 -18.5 2t-19.5 1q-2 -3 -3.5 -6t-3.5 -6q4 -2 9 -3t8 -4q22 -23 17 -46t-34 -37q-38 -18 -64 -47t-55 -59q38 -10 64.5 -27.5t44.5 -42t27.5 -54t14.5 -63.5q4 -29 -4.5 -58t-27.5 -51.5t-47.5 -36t-64.5 -12.5q-51 1 -82 26.5t-53 65.5 q-3 6 -5 12.5t-7 10.5q-20 20 -22 44t0 50q3 34 9 66.5t23 61.5q2 3 2.5 7t2.5 9q-11 7 -20.5 13t-19.5 14q-22 18 -33 41.5t-7 52.5zM221 407q-1 -16 0.5 -32t5.5 -32t14 -31q31 6 33 30v35.5t-3 34.5q-4 21 -12 25t-36 2zM585 215q19 4 22.5 13t7.5 17l-6 6 q-5 -8 -10.5 -16t-13.5 -20z" />
<glyph unicode="&#xe0e;" horiz-adv-x="1119" d="M-76.5 654.5q-9.5 33.5 23.5 88.5q36 59 86 94.5t119 49.5t137 16t140 -4q49 -4 95 -13t94 -16q28 -4 56.5 -1.5t57.5 4.5q30 1 49.5 -2t31 -13t16.5 -28t7 -48q7 -119 10.5 -237t11.5 -237q8 -117 20.5 -232.5t25.5 -232.5q6 -55 13 -110t15 -110q3 -21 3.5 -40.5 t-4 -37.5t-16 -33t-32.5 -26q-37 -20 -72 -14t-70 27q-25 14 -51.5 24.5t-53.5 21.5q-6 2 -13.5 2h-17.5q-8 -19 -15 -37t-12 -37q-16 -53 -48.5 -92.5t-73.5 -72.5q-29 -23 -63.5 -22.5t-66.5 14.5q-18 8 -27.5 22.5t-11 31.5t4.5 35t21 32q11 10 23.5 17t22.5 17 q28 28 43 63t9 86q-44 4 -84.5 7t-81.5 9q-20 3 -41 9t-37 18q-17 13 -24 29.5t-5 33t12 31t28 25.5q63 35 129.5 52.5t136.5 24.5q51 5 87.5 -17.5t56.5 -69.5q17 -41 46.5 -58t80.5 -8q1 17 3 35.5t1 37.5q-3 63 -6.5 126t-7.5 126q-8 104 -15 207.5t-14 207.5 q-1 18 2.5 36t5.5 36q4 43 3.5 84.5t-13.5 78.5q-72 26 -139 51t-136 47q-53 17 -106 15.5t-105 -23.5q-18 -8 -35.5 -23.5t-44.5 -35.5q34 -8 56.5 -14t42.5 -11q14 -3 28 -5t27 -7q31 -11 48.5 -23t23 -27t-1.5 -35.5t-24 -48.5q-10 -17 -20.5 -34t-22.5 -37 q55 -31 89 -74.5t50 -100.5q17 -60 5 -115t-45 -104q-19 -28 -50 -41t-65 -11.5t-67 17t-55 45.5q-116 151 -54 332q14 41 32.5 80t37.5 84q-24 5 -45.5 8.5t-42.5 7.5q-16 4 -32 7t-31 8q-59 24 -68.5 57.5zM220.5 245q7.5 -30 29.5 -64q8 41 2 71.5t-29 63.5 q-10 -41 -2.5 -71zM1019 -7q0 15 6 20q10 8 25.5 12t25.5 -1q26 -13 49 -29.5t46 -32.5q9 -6 18 -13.5t20 -16.5q-11 -19 -19.5 -38t-19.5 -21q-21 -3 -45.5 1t-41.5 16q-19 14 -32.5 35.5t-26.5 43.5q-5 9 -5 24z" />
<glyph unicode="&#xe0f;" horiz-adv-x="936" d="M-98 -685q-8 35 4.5 78t36.5 98q25 56 52 92t62 54.5t80.5 21.5t105.5 -6q16 -2 32 -5t31.5 -3t30.5 6t29 21q61 63 140 13q18 -11 42 -14.5t57 -11.5q8 131 16 251t16 242q-40 -33 -74 -66t-74 -53q-39 -19 -83.5 -26t-88.5 -8q-49 -2 -87 13t-63 43.5t-36 68.5t-6 88 q7 66 30.5 123t79.5 99q11 9 23 16.5t26 17.5q-30 43 -62 68t-70 44q-29 14 -54 37t-41 50q-13 22 -14.5 45.5t7 44.5t26 37.5t42.5 24.5q102 34 205 46t209 -18q67 -19 134 -36t133 -37q75 -22 102.5 -73.5t19.5 -130.5q-14 -124 -28.5 -248t-25 -248t-15 -249t1.5 -250 q2 -44 10.5 -87t19.5 -86q7 -29 9 -51t-1.5 -39t-14 -31.5t-28.5 -27.5q-92 -69 -183 2q-32 26 -62.5 54t-61.5 55q-42 -17 -77 -37.5t-62 -47.5t-44 -62.5t-23 -81.5q-4 -32 -18 -63.5t-31 -58.5q-13 -19 -34 -34.5t-43 -20.5q-103 -25 -139.5 11.5t-16.5 139.5 q3 16 3.5 32t2.5 30q-6 7 -9 12.5t-8 7.5q-66 29 -99.5 59t-41.5 65zM209 109q16 17 27.5 29t21.5 24q13 18 19.5 37.5t10 40t6 41t8.5 40.5q1 1 -2 2.5t-5 3.5q-22 -13 -39.5 -35t-29 -50.5t-16.5 -62.5t-1 -70zM437 636q24 -31 46.5 -59t47 -50t54 -36.5t67.5 -17.5 q-3 45 -13.5 75t-34.5 48.5t-64.5 27.5t-102.5 12z" />
<glyph unicode="&#xe10;" horiz-adv-x="796" d="M68 -229.5q-4 11.5 7 24.5q22 29 45 57t50 51q27 22 60.5 25t67.5 -7q16 -5 30.5 -6.5t31.5 3.5q29 9 46.5 2.5t35.5 -32.5q14 -19 31.5 -32t47.5 -14q14 45 24 89.5t8 92.5q-2 17 -5.5 35t-8.5 35q-11 47 37 54q5 1 10 1.5t10 0.5q68 2 68 -66q-1 -23 -2 -44.5t-4 -43.5 q-6 -54 -13 -108t-15 -108q-2 -16 -12 -28t-24 -18.5t-30 -7t-31 6.5q-26 12 -53 23.5t-55 20.5q-32 11 -63 -6t-42 -49q-15 -47 -43.5 -83t-69.5 -65q-16 -12 -33.5 -13.5t-35.5 3.5q-8 2 -15.5 9.5t-11.5 15.5q-2 4 4 12.5t12 11.5q14 8 24 18.5t18 23t16 25.5t18 26 q-9 2 -15 4.5t-13 3.5q-24 5 -46.5 11t-42.5 23q-14 11 -18 22.5zM151 302q4 40 18.5 76.5t31.5 72.5q12 26 25.5 51t27.5 54q-10 3 -18 5.5t-16 5.5q-29 11 -37 29t3 47q14 35 25 70.5t24 70.5q7 18 18 35t26 30t34 19.5t43 3.5q27 -3 54.5 -3.5t52.5 -9.5q23 -8 43 -8 t37.5 6.5t33 18.5t30.5 27q17 16 33.5 19.5t36.5 -0.5q15 -3 25.5 -11.5t14 -19t0.5 -22.5t-15 -22q-24 -21 -48.5 -39t-51.5 -29.5t-57.5 -14t-64.5 8.5q-17 5 -35 8.5t-36 6.5q-23 4 -34 -3.5t-20 -30.5q4 -4 5 -4q57 -3 106 -25t98 -46q15 -8 27.5 -20.5t21.5 -28.5 t13.5 -34.5t2.5 -37.5q-4 -39 -10 -77.5t-12 -77.5q-2 -10 -6 -19l-8 -18q-14 -34 -27.5 -67.5t-26.5 -67.5q-3 -7 -3.5 -15t0.5 -16q3 -43 -29 -72q-20 -18 -36 -37t-21 -48q-3 -22 -23.5 -32.5t-46.5 -9.5q-17 0 -34.5 4t-27.5 24q-11 22 -14 42.5t12 44.5q20 32 21 69 t-2 75l-21 -24q-15 -20 -39 -26.5t-48 -3t-44 16.5t-26 33q-8 21 -6 46zM205 -200q25 -1 28 3.5t-2 30.5q-8 -10 -13.5 -18t-12.5 -16zM250 293q35 54 60.5 108.5t33.5 121.5q-17 -16 -35 -46.5t-32.5 -65t-22 -67t-4.5 -51.5zM463.5 418.5q-4.5 -40.5 1.5 -85.5 q14 23 25.5 58.5t17.5 71.5t6.5 67.5t-7.5 46.5q-9 -20 -19 -39t-14 -39q-6 -40 -10.5 -80.5z" />
<glyph unicode="&#xe11;" horiz-adv-x="1326" d="M13.5 510q0.5 36 8.5 72t22 72q13 37 30 67q35 66 90.5 88t122.5 8q11 -2 22.5 -5t21.5 -8q21 -11 38 -7.5t35 17.5q32 26 60.5 41t59 16.5t64.5 -12t77 -43.5q33 14 64.5 28t64.5 23q94 26 163 -6t113 -119q67 -133 100 -272t47 -285q7 -63 8.5 -126.5t4.5 -126.5 q2 -48 -14 -66t-59 -19q-95 -2 -97 84q-2 66 -2 133t-8 133q-12 110 -34 217t-63 210q-8 19 -16.5 37t-19.5 35q-10 16 -23.5 23.5t-28 7.5t-27.5 -8t-23 -24q-11 -17 -17 -36t-11 -39q-28 -121 -32 -241t18 -242q8 -46 -11.5 -75t-63.5 -35q-22 -3 -43 3.5t-38.5 18.5 t-28 29t-11.5 37q-2 71 -0.5 140.5t-2.5 139.5q-4 69 -12 136t-16 135q-2 8 -6 14.5t-9 17.5q-26 -25 -32 -51.5t-1 -55.5q5 -30 5 -50t-8.5 -34t-27 -24.5t-48.5 -22.5q-2 -25 -4 -50.5t-5 -51.5q-5 -45 -24.5 -68t-62.5 -35q-38 -11 -77 -7.5t-75 18.5t-66.5 41t-51.5 59 q-22 36 -31 72t-8.5 72zM211 603q-69 -120 19 -221q14 25 19 55t2.5 60.5t-13 58t-27.5 47.5zM1328 131q2 7 13 13t18 4q14 -3 28.5 -7t27.5 -11t24 -18.5t19 -29.5q-33 -8 -61.5 -3t-54.5 20q-7 3 -11.5 14.5t-2.5 17.5z" />
<glyph unicode="&#xe12;" horiz-adv-x="1574" d="M56 392q-1 39 0.5 78t7.5 77t18 75t32 72q27 48 63.5 85t83.5 66q76 46 146 38.5t136 -60.5q26 -21 49 -24.5t54 8.5q63 25 126 22.5t117 -29t94.5 -74.5t59.5 -113q22 -74 32 -148.5t5 -152.5q-2 -25 -1.5 -50.5t0.5 -56.5q20 -6 40.5 -12t46.5 -13q22 79 39 153t19 151 q2 49 -2.5 98t-9.5 98q-3 35 4.5 64.5t38.5 49.5q30 20 62 20t61 -19q22 -15 39 -27.5t26.5 -28t9.5 -37.5t-12 -55t-14 -70t-7 -72q-10 -78 -20 -154.5t-19 -154.5q-3 -25 -6 -49.5t-2 -48.5q2 -32 -7 -56.5t-26.5 -40t-43.5 -20.5t-57 3t-61 20t-60 25q-31 14 -60 16 t-63 -11q-31 -12 -61 -14t-59.5 3.5t-58.5 16t-56 23.5q-12 6 -21.5 17t-18 23.5t-16 26t-16.5 25.5q-23 -26 -46.5 -55t-51.5 -55q-14 -14 -34 -23t-39 -11q-81 -10 -162.5 10.5t-147.5 69.5t-108 124.5t-43 176.5zM241 382.5q5 -50.5 23.5 -98.5t52.5 -86q15 -17 34 -27 t38.5 -12.5t38 2t33.5 16.5q18 14 33 40.5t24 58t10.5 63.5t-5.5 56q-4 -2 -7.5 -2.5t-5.5 -2.5q-42 -30 -92 -28t-87 36q-44 40 -16 94q24 47 57.5 84.5t85.5 61.5q-8 20 -15.5 37.5t-15.5 36.5q-14 -2 -21 -2t-12 -2q-40 -19 -70.5 -53t-50.5 -78t-28.5 -94t-3.5 -100.5z M656 551q35 -38 50.5 -79t19 -84.5t-2 -89t-13.5 -91.5q47 11 87 21t75 19q13 44 15 92t-2.5 94.5t-13.5 90t-19 79.5q-13 44 -33 53t-63 -7q-35 -13 -59 -36t-41 -62z" />
<glyph unicode="&#xe13;" horiz-adv-x="1105" d="M39.5 642q2.5 12 9.5 22.5t15 20.5l7 7l-1 -1q27 43 61 75t73.5 54t83.5 35t92 18q54 7 101.5 -14t82.5 -72q28 -42 45.5 -87t29.5 -93q12 -49 24.5 -98t25.5 -98l35 -131q3 -11 4 -20.5t1 -20.5q0 -5 0.5 -10.5t1.5 -10.5q8 6 14 12t14 13q29 26 61.5 50.5t68.5 40.5v2 v-2q-2 17 -5 33t-7 33q-25 125 -41.5 251t-18.5 253q0 31 2.5 49t15.5 26t39.5 9t74.5 -2q0 -6 -0.5 -18t-1 -24.5t-0.5 -24.5v-18q0 -140 20 -278.5t50 -279.5q8 -1 16 -2.5t18 -5.5h-1q44 -14 61.5 -46t4.5 -74q-14 -47 -47.5 -63.5t-77.5 -8.5q-31 8 -50.5 26t-29.5 44 q-6 -2 -11 -6.5t-11 -9.5l2 2l-10 -9q-11 -10 -21 -19.5t-21 -20.5q-16 -16 -30.5 -31t-31.5 -29q-23 -19 -44.5 -30t-38.5 -11q-31 0 -50 23t-33 72v1q-5 13 -7 23t-3 18q-13 103 -36.5 200t-55.5 194q-10 32 -22 64.5t-28 61.5q-27 47 -68 47q-19 0 -43 -8h1 q-44 -17 -90 -44q17 -2 38.5 -11t52.5 -34q-9 -16 -13 -23t-5.5 -10t-1 -3.5t-0.5 -1.5q-2 -3 -3.5 -7.5t-3.5 -9.5l-5 -10q-38 -54 -54 -112t-16 -120q0 -51 9 -102q7 -42 32 -74t63 -51l13.5 -4.5t13.5 -2.5q11 0 22 8h-1q12 8 14 26q-1 1 -1.5 7.5t-1.5 11.5 q-7 29 -21 52.5t-45 24.5q-19 0 -32 13q-3 0 -8 2t-12.5 4t-18.5 7q66 117 144 88q27 -11 50.5 -32t41.5 -48.5t28 -58.5t10 -62q0 -28 -9 -54t-29 -47q-15 -15 -35 -31t-43 -23q-15 -5 -30.5 -6t-31.5 -1q-45 0 -86.5 19t-75.5 55q-54 59 -75 132t-18 151q2 56 12.5 110.5 t33.5 105.5q-8 -2 -11 -2q-4 -1 -4.5 -1.5t-5.5 -1.5q-10 -5 -21 -8t-22 -2.5t-22 7t-21 20.5l1 -2q-12 15 -15 28t-0.5 25z" />
<glyph unicode="&#xe14;" horiz-adv-x="936" d="M29 562q3 32 14.5 63.5t21.5 66.5q0 1 1 2l2 6q11 33 36 56.5t57 34.5q75 25 146 48.5t143 41.5q54 14 112.5 7.5t110 -34.5t90.5 -78.5t55 -125.5q29 -137 21 -269t-41 -266q-6 -23 -11.5 -45.5t-13.5 -45.5q-13 -37 -35.5 -53t-49.5 -8q-18 5 -34.5 14.5t-28.5 22.5 t-18 28t-3 31q5 23 8.5 46.5t6.5 47.5q8 56 15 111t6 113q-26 -53 -51.5 -106t-54.5 -105q-19 -33 -43 -62.5t-48 -59.5q-20 -26 -47 -32t-58 -1q-107 16 -172 102q-76 100 -112 211.5t-25 237.5zM223 349q10 -22 17.5 -44t17.5 -43t24 -39.5t38 -32.5q35 26 55 58.5 t31 74.5q-47 7 -90.5 13t-92.5 13zM466 658l16 -3q11 -3 14 -11q2 -4 2 -9q-1 14 -5.5 19t-10.5 6q-7 1 -16 -2z" />
<glyph unicode="&#xe15;" horiz-adv-x="890" d="M29.5 530.5q9.5 89.5 35.5 177.5q6 22 16 43t22 41q23 38 48 46t67 -6q24 -8 47.5 -16.5t46.5 -19.5q43 -22 78 13q15 15 30.5 29.5t32.5 28.5q29 24 62 27.5t63 -19.5q28 -20 53 -42.5t45.5 -49t34.5 -57t19 -67.5q2 -13 5.5 -25t5.5 -24q5 -56 52 -79q8 -4 15 -10 t14 -11q16 -15 25 -31.5t9.5 -33t-8 -31.5t-26.5 -26q-33 -20 -48 -44t-19.5 -51t-2.5 -55.5t4 -57.5q1 -13 5 -25t4 -24q0 -41 -24.5 -66t-62.5 -30q-32 -4 -62.5 -10.5t-62.5 -10.5q-66 -9 -118 45q-43 -27 -84 -53.5t-82 -52.5q7 -33 9.5 -54.5t-3 -36t-20 -25 t-39.5 -23.5q-49 -26 -84 -20t-73 51q18 23 36.5 48t40.5 48q23 23 48.5 41.5t52.5 39.5q-53 26 -88 62.5t-58 79.5t-36 91t-21 97q-14 89 -4.5 178.5zM217.5 438q-2.5 -29 0.5 -57.5t8.5 -57.5t10.5 -57q2 -15 14.5 -28.5t22.5 -29.5q39 51 56 92.5t12 76t-33 64t-77 56.5 q-12 -30 -14.5 -59zM477 80q1 2 6 0.5t11 -6.5q5 -4 8.5 -8t2.5 -6q-3 -3 -17 6q-6 5 -9.5 8.5t-1.5 5.5z" />
<glyph unicode="&#xe16;" horiz-adv-x="828" d="M6.5 752q1.5 42 57.5 74q65 37 132.5 50.5t142.5 -6.5q35 -9 69.5 -17.5t68.5 -19t66.5 -24.5t63.5 -35q50 -34 82.5 -77t46.5 -103q14 -63 21 -126t9 -126t-0.5 -126.5t-6.5 -126.5q-3 -55 -28.5 -76t-75.5 -16q-54 5 -77 31.5t-21 78.5q3 66 8.5 132t5.5 132 q-1 97 -23 197q-7 34 -20 57.5t-33 38.5t-49 21.5t-68 7.5q2 -39 -13.5 -66t-44.5 -49q-26 -20 -43.5 -48t-22.5 -63q43 -15 81.5 -56.5t66.5 -93t43.5 -105.5t11.5 -94q-3 -32 -17.5 -56t-37 -39t-52.5 -20t-64 3q-66 15 -115 47t-83 76.5t-53 99.5t-23 115q-5 63 9.5 120 t55.5 108q11 13 19.5 27.5t20.5 33.5q-15 10 -30 19t-29 20q-53 38 -51.5 80zM219 224q5 -14 17 -30q13 -15 26 -23t19 -3q5 5 0.5 19t-16.5 30q-13 16 -26 23.5t-19 2.5t-1 -19z" />
<glyph unicode="&#xe17;" horiz-adv-x="928" d="M62.5 399.5q-1.5 21.5 4.5 43.5q14 54 29.5 106t30.5 105q13 43 25 85.5t26 84.5q26 82 112 88q27 2 54.5 3.5t53.5 -4.5q51 -14 73 -49.5t20 -88.5q0 -14 1 -22t5.5 -11t13 -3t22.5 2q108 12 168 -30.5t86 -140.5t39 -197.5t16 -201.5q1 -61 14 -125q5 -26 -3.5 -45 t-26.5 -34q-37 -31 -80 -8q-24 13 -38 23.5t-20.5 22.5t-8.5 27.5t-2 38.5q0 63 -0.5 125.5t-5.5 124.5t-16 123.5t-31 122.5q-4 13 -7.5 19t-8.5 7.5t-12.5 -1.5t-20.5 -8q-20 -8 -33 -20.5t-22 -27.5t-14.5 -32t-11.5 -33q-26 -79 -43.5 -159t-16.5 -164q1 -18 3 -35.5 t1 -35.5q0 -17 -10 -31t-24.5 -22.5t-32 -10.5t-32.5 5l-27 12q-32 14 -44.5 35.5t-7.5 56.5q10 80 19 159.5t20 165.5q-12 -21 -21 -37.5t-19 -32.5q-16 -25 -38 -39t-46 -16.5t-48 7t-45 31.5q-18 20 -19.5 41.5z" />
<glyph unicode="&#x2219;" horiz-adv-x="928" d="M62.5 399.5q-1.5 21.5 4.5 43.5q14 54 29.5 106t30.5 105q13 43 25 85.5t26 84.5q26 82 112 88q27 2 54.5 3.5t53.5 -4.5q51 -14 73 -49.5t20 -88.5q0 -14 1 -22t5.5 -11t13 -3t22.5 2q108 12 168 -30.5t86 -140.5t39 -197.5t16 -201.5q1 -61 14 -125q5 -26 -3.5 -45 t-26.5 -34q-37 -31 -80 -8q-24 13 -38 23.5t-20.5 22.5t-8.5 27.5t-2 38.5q0 63 -0.5 125.5t-5.5 124.5t-16 123.5t-31 122.5q-4 13 -7.5 19t-8.5 7.5t-12.5 -1.5t-20.5 -8q-20 -8 -33 -20.5t-22 -27.5t-14.5 -32t-11.5 -33q-26 -79 -43.5 -159t-16.5 -164q1 -18 3 -35.5 t1 -35.5q0 -17 -10 -31t-24.5 -22.5t-32 -10.5t-32.5 5l-27 12q-32 14 -44.5 35.5t-7.5 56.5q10 80 19 159.5t20 165.5q-12 -21 -21 -37.5t-19 -32.5q-16 -25 -38 -39t-46 -16.5t-48 7t-45 31.5q-18 20 -19.5 41.5z" />
<glyph unicode="&#xe18;" horiz-adv-x="621" d="M113 60q-8 28 5 58q36 86 45.5 175.5t9.5 181.5q0 17 -7.5 35t-13.5 35q-4 11 -9 20t-8 19q-12 38 4.5 59.5t56.5 19.5q17 -1 33 -5t33 -7l2 4t3 4q-18 14 -36 27l-36 26q-13 9 -26.5 16.5t-25.5 17.5q-19 17 -20 38t4 43q6 22 22 32t39 11q46 2 91 4.5t90 0.5 q32 -2 63.5 -11t62.5 -19q20 -7 33 -22.5t11 -38.5q-1 -19 -18.5 -31.5t-46.5 -14.5q-22 -1 -44.5 -0.5t-51.5 0.5q8 -13 13 -20.5t10 -13.5q14 -17 27.5 -33.5t27.5 -33.5q28 -36 45 -64.5t22 -58t-3.5 -65t-30.5 -84.5q-30 -65 -66.5 -125.5t-73.5 -121.5 q-15 -25 -34.5 -47t-39.5 -44q-10 -11 -26.5 -17t-35 -7.5t-36.5 1.5t-30 11q-26 17 -34 45zM316 590q3 -51 6 -96t6 -93q20 25 29.5 48t8 45.5t-13.5 46t-36 49.5z" />
<glyph unicode="&#xe19;" horiz-adv-x="1135" d="M46.5 375.5q-4.5 27.5 19.5 66.5q38 66 78.5 130t81.5 129q15 24 30 47.5t32 46.5q16 22 34 40t39.5 28.5t46.5 13t55 -6.5q15 -5 31 -4t32 1q35 -1 63 -13.5t47.5 -34t28.5 -51t6 -63.5q-3 -35 -6.5 -71t-6.5 -74q34 -3 66 -6t70 -7q23 50 38 102t20 109q1 2 0 3.5 t-1 3.5q-2 34 8.5 63t41.5 46q48 28 93 -8q13 -11 26 -23.5t21.5 -26.5t11.5 -31t-3 -38q-18 -63 -35.5 -125.5t-37.5 -125.5q-19 -61 1 -123q11 -35 13 -72.5t0 -74.5q-1 -37 -7 -73.5t-12 -73.5q-14 -78 -90 -62q-41 8 -70 30t-39 67t-18.5 89t-0.5 92q3 19 3.5 38t2.5 42 q-36 -2 -60 -17t-44 -35q-47 -46 -77 -101t-41 -120q-6 -35 -23.5 -59.5t-52.5 -32.5q-38 -8 -69 9t-55 43q-22 23 -20.5 50.5t15.5 55.5l34 70t31 71q10 23 16 48t14 50q-4 2 -8 4.5t-8 4.5l-23 -23t-24 -23q-19 -17 -37 -33.5t-38 -30.5q-50 -32 -107.5 -27t-102.5 43 q-29 26 -33.5 53.5z" />
<glyph unicode="&#xe1a;" horiz-adv-x="1119" d="M57.5 584q10.5 52 59.5 117q32 43 73.5 78t83.5 70q15 13 37 19t43 8q59 6 100 0.5t67 -27.5t40.5 -60.5t21.5 -98.5q11 -94 4 -186.5t-22 -185.5q-5 -23 -6 -47t-3 -54q51 -5 92 -8.5t80 -6.5q67 -5 76 63q8 61 13.5 122t3.5 121t-12.5 119.5t-34.5 118.5 q-11 29 -12.5 55.5t21.5 49.5q20 21 44.5 21.5t52.5 -4.5q62 -11 94.5 -45t44.5 -97q24 -124 28.5 -246t-12.5 -247q-2 -22 -3 -43.5t-3 -43.5q-12 -149 -160 -137q-72 5 -143.5 11t-143.5 11q-30 2 -60.5 1t-60.5 1q-42 2 -75.5 17.5t-58.5 50.5q-19 28 -21.5 55t12.5 59 q15 30 22.5 64t18.5 71q-22 6 -37 10.5t-29 7.5q-15 2 -30.5 3t-29.5 5q-60 18 -104 46.5t-63 69t-8.5 92.5zM272.5 524.5q8.5 -16.5 32.5 -21.5q16 -2 33 -1t37 1v182q-24 -13 -40.5 -28t-27.5 -31t-19 -32.5t-15 -32.5q-9 -20 -0.5 -36.5z" />
<glyph unicode="&#xe1b;" horiz-adv-x="1255" d="M34.5 601q2.5 56 26.5 110t78 95q8 6 16.5 12t17.5 8q61 14 127 13t125 -22.5t106 -65.5t71 -114q32 -94 43 -189t0 -194q-3 -26 5.5 -42t34.5 -21q62 -11 123.5 -22.5t124.5 -22.5l-49 735q-38 -4 -71.5 -9.5t-65.5 -0.5q-20 2 -42 15.5t-32 30.5q-7 13 -5 23.5t9.5 19 t18 14.5t20.5 11q33 17 67.5 28.5t68.5 26.5q10 5 17.5 16t20.5 25q-31 2 -48.5 5t-25.5 11.5t-10.5 24.5t-3.5 45q0 13 -8 23q-20 23 -18 47t19 41q18 17 25.5 35t9.5 37.5t0 39t-4 39.5q-11 87 -24.5 172t-21.5 173q-5 56 11.5 88t64.5 48q45 15 85.5 -2t69.5 -54 q13 -17 20.5 -34t11 -34.5t5 -35.5t3.5 -37q8 -94 19.5 -186.5t22.5 -186.5t22 -187.5t18 -187.5q12 -168 20.5 -333.5t20.5 -333.5q5 -63 19 -123.5t48 -116.5q12 -20 11.5 -42.5t-11.5 -41.5t-30.5 -31.5t-44.5 -13.5q-45 -1 -89.5 6.5t-89.5 13.5q-61 8 -121 19.5 t-120.5 21.5t-121.5 15t-123 1q-33 -2 -65.5 12t-58.5 38.5t-44 56.5t-22 65q-2 11 -9 23.5t-17 18.5q-29 19 -57.5 38t-55.5 40.5t-50 46.5t-41 57q-21 38 -35 90.5t-11.5 108.5zM285 536q11 -59 40 -113q7 -14 24.5 -23t31.5 -19l12 30t11 29q-11 45 -18.5 86t-21.5 80 q-11 29 -28 30.5t-33 -25.5q-10 -16 -15.5 -36.5t-2.5 -38.5z" />
<glyph unicode="&#xe1c;" horiz-adv-x="953" d="M95.5 466q10.5 128 71.5 252q17 35 42 67t54 61q27 28 63.5 38t77.5 -7q21 -9 41 -19t36 -23.5t25.5 -32t8.5 -44.5q-2 -54 -5.5 -109t-8.5 -116q36 -20 78 -44t94 -53q2 33 7 63t8 58.5t0 56t-17 54.5q-7 14 -7 26q0 35 1 71t1 71q0 25 13.5 38.5t36.5 20.5t51.5 1.5 t53.5 -20.5t41.5 -36t15.5 -45q-4 -75 -3 -149.5t-4 -149.5q-6 -85 -16 -169t-20 -169q-6 -52 -42.5 -70.5t-89.5 -0.5q-41 14 -66.5 42t-48.5 58q-14 18 -26 38t-29 45q-26 -48 -47 -91t-46 -83q-27 -43 -63.5 -64.5t-75.5 -22t-76.5 20.5t-65.5 63q-17 26 -31 54.5 t-19 57.5q-24 133 -13.5 261zM279 359.5q3 -57.5 14 -115.5q70 99 94 218q-26 5 -47 9t-44 9q-20 -63 -17 -120.5z" />
<glyph unicode="&#xe1d;" horiz-adv-x="945" d="M95 459q-8 90 14.5 173t61.5 163q13 26 34 42t46 29q32 16 79 8.5t90.5 -31.5t73.5 -61.5t29 -80.5q-2 -50 -4 -99.5t-4 -101.5q18 12 35.5 14.5t35 -1t35.5 -12t37 -20.5q2 16 3.5 27t1.5 21v203.5t1 203.5q0 28 -4.5 53.5t-19.5 51.5q-11 18 -11 41t8 45.5t23 42.5 t35 32q12 7 30.5 8.5t38 -3t37.5 -13.5t30 -22q35 -38 40 -80t-17 -92q-10 -23 -16.5 -48t-7.5 -50q-5 -165 -9 -328.5t-8 -329.5q0 -14 1.5 -28.5t2.5 -29.5q0 -26 -9 -45t-24.5 -28.5t-36 -8.5t-43.5 14q-20 11 -35.5 29.5t-29.5 37.5q-11 14 -17 31t-13 33 q-7 14 -13.5 30.5t-16.5 40.5q-27 -45 -50 -82.5t-46 -74.5q-15 -24 -29.5 -49t-32.5 -48q-45 -57 -98.5 -58t-103.5 52q-39 42 -60 92t-34 104q-12 50 -18.5 101t-11.5 102zM251.5 462.5q-1.5 -45.5 3 -92t17 -94.5t35.5 -97q11 17 17 26.5t11 17.5q26 42 50.5 83t49.5 83 q5 8 8.5 18t8.5 22q-34 -5 -60.5 -1.5t-49.5 18t-43 41t-41 67.5q-5 -46 -6.5 -91.5z" />
<glyph unicode="&#xe1e;" horiz-adv-x="679" d="M48 361q1 5 1.5 9t2.5 8q30 97 46 194.5t31 197.5q6 43 30 78q17 24 35 27.5t43 -9.5q14 -8 27 -17t25 -20q11 -9 13.5 -20.5t1.5 -25.5q-5 -66 -8.5 -131t-8.5 -137q7 8 10.5 12.5t5.5 8.5q11 41 22.5 81.5t19.5 82.5q7 32 21.5 43.5t46.5 5.5q10 -2 20 -5t23 -7 q12 48 12.5 96t-1.5 97q-2 37 -3 74t0 74q1 29 22.5 41.5t47.5 1.5q8 -4 15 -8t15 -9q18 -11 25.5 -25.5t0.5 -34.5q-14 -41 -14 -82t-1 -83q-2 -83 -11.5 -164t-22.5 -162q-11 -72 -23 -143t-23 -143q-2 -17 -1 -34t0 -34q0 -25 -12.5 -38t-36.5 -11q-14 1 -26 3.5t-22 9.5 t-17 19t-9 33q-4 32 -9.5 65.5t-11.5 71.5q-5 -10 -8 -14.5t-4 -8.5q-17 -61 -33.5 -122.5t-33.5 -123.5q-2 -8 -2 -15.5t-3 -13.5q-5 -9 -11 -18.5t-14 -14.5q-21 -13 -40.5 -5t-38.5 19q-17 10 -17 23.5t3 28.5q11 57 13 114t3 123q-26 -20 -47.5 -19t-43.5 12 q-28 15 -25 44z" />
<glyph unicode="&#xe1f;" horiz-adv-x="994" d="M25 721q-7 48 11 81t63 55q92 45 154 -21q30 -33 47 -73q26 -57 49 -114t47 -117q46 14 77.5 21t57 7t51 -7.5t60.5 -22.5q3 33 7 64.5t3 62.5q-5 216 -9.5 429t-9.5 429q-3 113 -6.5 224.5t-6.5 223.5q-1 24 -0.5 47t0.5 43q-38 17 -70 30t-62 26q2 13 2 20t3 12 q33 41 58 85t40 96q5 17 16 29.5t26 21t32 14t35 7.5q19 2 33.5 -3.5t26.5 -15t22 -22.5t20 -25q8 -8 8.5 -23.5t-0.5 -28.5q-8 -189 -15 -376.5t4 -376.5q14 -231 31 -459t34 -460q8 -100 15 -199.5t14 -199.5q1 -18 1 -36.5t-5 -35.5t-14 -33t-23 -26q-24 -17 -55 -21 t-62 3.5t-57 25t-41 44.5q-26 47 -50.5 95t-50.5 96q-6 12 -15.5 22.5t-20.5 23.5q-19 -19 -29.5 -40t-16.5 -43t-9 -44.5t-7 -45.5q-5 -32 -14 -65t-25 -62q-20 -37 -59 -46.5t-90 4.5q-37 10 -52.5 31.5t-19.5 70.5q-8 85 -15.5 168t-14.5 168q-3 35 -15 65t-38 56 q-59 58 -70 141z" />
<glyph unicode="&#xe20;" horiz-adv-x="961" d="M59 213.5q3 59.5 23 119.5q10 30 22 49t28.5 29.5t39 14t54.5 1.5q8 -1 15.5 -1.5t18.5 -2.5q5 21 15 39.5t19 38t14.5 40.5t1.5 46q-18 0 -35 -1t-33 1q-19 4 -37 9t-35 14q-41 24 -14 66q35 55 83 95t114 54q44 10 87.5 19.5t88.5 4.5q4 0 8.5 1.5t9.5 3.5q13 6 27 10 q12 4 27.5 8t32.5 8q57 -9 114 -15q19 -2 36.5 -11.5t32 -23.5t23.5 -32t10 -38q5 -75 11.5 -148.5t14.5 -148.5q5 -59 11.5 -116.5t13.5 -116.5q3 -23 -6.5 -40.5t-32.5 -22.5q-16 -3 -33 -3.5t-33 2.5q-26 5 -40.5 27t-7.5 51q15 63 14.5 124.5t-4.5 124.5 q-4 57 -10 114.5t-11 115.5q-1 5 -3 12t-5 19q-35 -2 -69.5 -4t-68.5 -6.5t-67.5 -13.5t-66.5 -26q21 -18 27 -35t3 -34t-12.5 -34t-18.5 -33q-10 -17 -19 -35t-7 -42q10 -5 20 -10.5t21 -9.5q31 -12 45.5 -34.5t14.5 -54.5q-1 -34 -2 -67.5t-8 -66.5q-5 -26 -12 -41.5 t-19 -23.5t-29.5 -10.5t-43.5 -2.5q-17 0 -34 4t-37 9q-7 -14 -13.5 -28.5t-14.5 -29.5q-8 -17 -16.5 -34.5t-19.5 -32.5q-22 -28 -51.5 -37.5t-64.5 -2.5q-34 6 -52.5 25.5t-31.5 49.5q-26 61 -23 120.5zM386 276q-2 -12 6 -19t24 -5q14 30 13 61.5t-2 63.5h-12 q-8 -26 -16 -50.5t-13 -50.5z" />
<glyph unicode="&#xe21;" horiz-adv-x="953" d="M56 315q-4 38 35 71q28 23 57 13t65 -57q30 9 61.5 18.5t66.5 20.5q2 22 4 44.5t4 45.5q-36 -29 -73.5 -40t-79.5 -7q-51 5 -76 33t-20 78q6 75 36.5 140t75.5 124q21 28 50.5 42.5t67.5 12.5q23 -2 45 1t45 4q28 2 51 -1q42 -6 57.5 -25.5t10.5 -61.5 q-11 -85 -23 -169.5t-23 -169.5q-2 -17 -3 -33t-2 -27q45 -37 86 -70.5t86 -70.5q5 26 10.5 51t7.5 49q8 96 15 190t14 189q2 27 13.5 38.5t38.5 14.5h7q34 2 54.5 -1t31 -14t12.5 -32t-2 -55l-66 -519q-2 -6 -3 -12t-3 -13q-5 -29 -17.5 -53.5t-48.5 -30.5q-37 -5 -67.5 4 t-53.5 40q-20 27 -39.5 54.5t-40.5 54.5q-9 13 -21 25t-29 31l-21 -66.5t-19 -55.5q-17 -45 -47.5 -70t-83.5 -25q-57 0 -103.5 18t-76.5 71q-15 28 -20 56.5t8 58.5q-50 48 -54 86zM251 613q10 -6 20 -10q15 29 30 59t31 59q-5 2 -8.5 4.5t-8.5 4.5q-16 -29 -31.5 -58.5 t-32.5 -58.5zM261 183.5q-3 -9.5 5.5 -18.5t27.5 -20q7 23 13.5 44.5t13.5 43.5q-28 -16 -42.5 -28t-17.5 -21.5z" />
<glyph unicode="&#xe22;" horiz-adv-x="937" d="M37 533q30 73 62.5 145t77.5 138q22 33 56.5 48.5t72.5 14t74.5 -20.5t63.5 -54q8 -11 8.5 -23t-4.5 -22.5t-15.5 -18t-24.5 -9.5q-22 -2 -43 0t-39 19q-5 5 -11.5 10t-18.5 14q-45 -65 -77.5 -130.5t-51.5 -143.5q17 3 29 4t23 3q48 8 96 18t97 12q75 3 101.5 -28 t17.5 -107q-5 -43 -13.5 -85.5t-14.5 -85.5q-2 -15 -4 -29.5t-2 -29.5t3 -30t11 -29q5 -1 9 -2.5t9 -2.5q37 -2 61 0.5t39.5 14.5t24.5 34t15 59q23 135 27.5 269t-6.5 271q-1 11 -5.5 22t-9.5 21q-18 34 -5 62t51 34q14 2 28.5 2.5t28.5 -2.5q27 -7 38.5 -23.5t11.5 -44.5 l-6 -276q-3 -83 -5.5 -164.5t-8.5 -163.5q-2 -32 -11 -63t-21 -60q-6 -15 -20 -29.5t-29 -22.5q-57 -29 -117.5 -37t-123.5 -2q-48 5 -81 36.5t-34 85.5q-1 41 3 80.5t8 80.5q1 17 5 33.5t6.5 34t2 35t-7.5 35.5q-38 -7 -74.5 -13.5t-73.5 -13.5q-77 -15 -147 13 q-38 17 -54.5 48.5t-1.5 68.5z" />
<glyph unicode="&#xe23;" horiz-adv-x="630" d="M28.5 851.5q1.5 17.5 21.5 31.5q21 14 45 22.5t50 -1.5q42 -15 83 -19t82 -1t81.5 11t81.5 16q17 4 33.5 5t38.5 3q-4 -20 -13 -33.5t-20 -23.5t-24 -16t-25 -11q-32 -14 -67 -21l-70 -14q-22 -5 -45.5 -6.5t-52.5 -5.5q12 -15 20.5 -25.5t16.5 -21.5q26 -33 51.5 -67 t52.5 -66q15 -18 32.5 -33.5t34.5 -32.5q27 -26 33.5 -64.5t-13.5 -67.5q-11 -14 -12.5 -27t-1.5 -27q0 -63 -8 -124.5t-35 -119.5q-18 -41 -51 -60.5t-75 -17.5q-27 2 -39.5 11.5t-22.5 35.5q-2 8 -4.5 15t-4.5 15q-14 89 -12 177t25 176q4 14 10 27t15 24q17 20 15 37 t-16 34q-15 19 -29.5 38t-30.5 37q-33 39 -67 78t-68 77q-17 18 -15.5 35.5zM302 274h14v74q-3 1 -8 1z" />
<glyph unicode="&#xe24;" horiz-adv-x="911" d="M-21.5 585q0.5 19 16.5 34q54 49 105 99.5t113 91.5q52 35 109.5 49.5t115 12.5t111.5 -20t99 -49q20 -13 39 -26t39 -25q45 -29 65.5 -71t22.5 -92q3 -81 2.5 -161t-8.5 -161q-13 -143 -30.5 -286t-20.5 -288q-1 -17 1 -33.5t4 -33.5q5 -47 -37 -59q-32 -9 -62 -3 t-56 26q-15 11 -17 26t0 31q18 167 37 331t34 330q6 66 2 132.5t-2 132.5q1 28 -6 49.5t-20.5 39t-32 30.5t-39.5 25q-135 74 -250 -24q-5 -5 -11.5 -9t-14.5 -9q31 -8 59 -14.5t55 -14.5q16 -5 31.5 -12.5t29.5 -15.5q34 -20 41 -45t-10 -60q-19 -40 -36.5 -79.5 t-36.5 -79.5q8 -5 11.5 -7.5t7.5 -2.5q40 -2 70.5 -24t48 -56.5t21 -77.5t-11.5 -86q-18 -57 -52 -81t-95 -25q-31 0 -59.5 4.5t-52.5 17t-42.5 33t-29.5 51.5q-11 32 -12 67.5t1 70.5q5 64 28.5 121.5t49.5 114.5q8 17 16 35t17 38q-37 7 -67.5 1.5t-60.5 -13.5 q-29 -8 -58 -14.5t-58 -10.5t-56 2.5t-46 35.5q-12 18 -11.5 37zM378.5 157.5q0.5 -25.5 20.5 -54.5q20 32 23 61t-8 64q-10 -6 -21 -10.5t-11 -9.5q-4 -25 -3.5 -50.5z" />
<glyph unicode="&#xe25;" horiz-adv-x="856" d="M-116 748q4 15 10 27l2 4q7 11 17.5 19t18.5 10q23 7 50.5 17t49.5 19q40 17 82 31t89 18q16 1 33 1.5t33 0.5q73 0 144 -13t138 -47q62 -32 101.5 -83t56.5 -119q14 -58 21 -116l14 -116q5 -48 7.5 -98t4.5 -99q0 -3 0.5 -4.5t0.5 -3.5q1 -14 0.5 -28.5t-6 -27 t-18.5 -22t-37 -13.5q-40 -7 -63.5 6t-39.5 54q-12 -26 -33 -48q-61 -61 -137 -94q-24 -9 -50 -9q-36 1 -69.5 13t-60.5 33t-47 50t-29 64v-1q-11 38 -15.5 75t-4.5 75q0 69 19 135.5t58 129.5q14 20 28.5 39.5t30.5 36.5q38 41 92 41q8 0 17 -1t20 -5q21 -6 41 -14 t37.5 -20t31 -30t22.5 -43v1q2 -6 5.5 -11t6.5 -10l15 -23l18 -32l11 -20q-5 48 -18.5 92.5t-43.5 86.5q-19 25 -42.5 42t-50.5 27.5t-56 16.5t-59 10q-15 2 -27.5 3t-23.5 1q-73 0 -141.5 -23.5t-134.5 -61.5l-7 -3l1 1q-9 -6 -20.5 -10.5t-26.5 -3.5q-17 2 -37 13.5 t-27 27.5q-6 17 -2 32zM246 386l16 5l-1 2q0 -1 2 -1h1q2 0 3 1q-5 2 -10 0.5t-11 -7.5zM274 267l20 34q0 -7 0.5 -13t0.5 -12zM294 400q25 6 48 6q48 0 91.5 -15.5t85.5 -36.5h-1l15 -9q-20 54 -51 104.5t-65 100.5q-11 18 -30 28q-4 2 -10 -4q-36 -37 -55.5 -80.5 t-27.5 -93.5zM295 276q5 -60 26.5 -91t61.5 -45l10 6q14 8 29.5 16.5t26.5 16.5t16.5 19.5t5.5 22.5q0 6 -2.5 12t-7.5 9q-29 20 -58.5 31t-58.5 11q-26 0 -49 -8z" />
<glyph unicode="&#xe26;" horiz-adv-x="1044" d="M16 203q9 30 15.5 61t15 61t21 59t32.5 55q15 20 34.5 36t40.5 30q23 16 50 29t57 29q-20 14 -35.5 25t-30.5 21q-31 19 -46.5 46.5t-10.5 61.5q5 38 29.5 61.5t66.5 31.5q15 3 29.5 8.5t28.5 11.5t28.5 10.5t29.5 6.5q73 8 146 12.5t146 2.5q29 -1 56.5 -17t53.5 -33 q23 -14 43 -33.5t40 -37.5q51 -44 50 -108q-3 -106 -6 -211t-8 -211q-6 -125 -14 -249t-13 -249q-2 -63 2 -125t12.5 -123.5t20 -122.5t24.5 -122q11 -50 12 -101.5t-4 -102.5q-6 -64 -37 -83t-95 -8q-51 9 -79 36.5t-41 76.5q-9 34 -16 68t-9 68t4 68t23 68q6 12 3.5 29 t-4.5 31q-24 170 -23.5 337.5t11.5 337.5q8 115 12.5 228.5t9.5 228.5q1 33 -5 68q-5 23 -24 36.5t-36 8.5q-9 -3 -17 -10.5t-14 -17.5t-8.5 -21.5t-0.5 -21.5q6 -26 12.5 -52.5t11.5 -53.5t-2.5 -50.5t-23.5 -45.5q-17 -23 -32 -47.5t-32 -50.5q10 -13 15.5 -20.5 t10.5 -14.5q20 -31 18 -55.5t-30 -46.5q-36 -27 -74.5 -48.5t-79 -35t-83 -18t-87.5 2.5q-38 5 -74 23t-68 39q-34 22 -48.5 58.5t-3.5 74.5z" />
<glyph unicode="&#xe27;" horiz-adv-x="804" d="M33 620.5q0 14.5 9 30.5q23 42 55 75t76 53q42 19 85 32t86 27q10 3 22 4t16 7q10 17 22.5 24t26 8t28.5 -1t30 -2q3 -26 16.5 -41.5t37.5 -25.5q32 -13 55.5 -33.5t41 -46t29.5 -54.5t21 -59q31 -100 33.5 -201t-21.5 -204q-7 -30 -17.5 -59t-25.5 -55q-11 -20 -28 -37 t-37 -26q-33 -14 -70 -18.5t-72.5 4t-67 31.5t-54.5 64q-20 37 -36 76.5t-30 78.5q-12 33 -2.5 50.5t41.5 30.5q57 22 112.5 19t112.5 -14q13 -2 26.5 -5t32.5 -7q1 89 -14 169.5t-59 152.5q-36 59 -80.5 73t-109.5 -11q-17 -6 -33 -12.5t-30.5 -15.5t-26.5 -22.5t-19 -33.5 q12 -6 24.5 -10.5t20.5 -13.5q10 -10 18 -23t8 -25q-1 -9 -12 -19.5t-22 -15.5q-18 -8 -48 -6.5t-61.5 9.5t-59 21.5t-39.5 28.5q-11 14 -11 28.5zM418 261q18 -47 41 -81.5t58 -59.5q15 13 24 23.5t14.5 22t8.5 26t5 35.5q-35 11 -71.5 23t-79.5 11z" />
<glyph unicode="&#xe28;" horiz-adv-x="790" d="M46 427q0 120 38 242q17 50 44.5 91.5t63.5 76.5q26 26 60 38t69 12q34 0 67 -12t55 -34l66 58l107 95q8 9 18 16.5t23 10.5q14 2 33 -6t28 -20l-4 3q4 -5 5.5 -15t0.5 -20.5t-3.5 -20t-6.5 -14.5q-9 -10 -14.5 -13.5t-10.5 -7.5q1 1 -4 -3t-8 -6q-44 -34 -86.5 -71.5 t-78.5 -78.5h1q-2 -2 -2 -1q29 -83 38 -165t9 -165v-73q0 -84 3 -168l2 -84v-43q-3 -23 -7.5 -36t-16.5 -18t-33 -4t-57 6v35q-1 5 -1.5 10.5t-0.5 14.5v126v105.5t-2 104.5q-2 51 -5 102t-10 104v-1q-5 32 -15 64.5t-22 61.5q-7 14 -21 29t-28 27q-3 3 -8 4t-10 1 q-13 0 -25.5 -4.5t-20.5 -11.5q-34 -31 -55 -69.5t-35 -83.5q-6 -20 -11 -41.5t-7 -42.5q4 19 14 38q17 42 50 65t72 23q18 0 37 -5.5t36 -15.5q18 -11 29.5 -24.5t11.5 -38.5q0 -7 -0.5 -13.5t-0.5 -13.5q-1 -19 -1 -39t-1 -38q-4 -29 -20.5 -48.5t-40.5 -31.5 q-25 -12 -53 -21t-60 -7h-2l-19 -127q-1 -2 -1.5 -10.5t-1.5 -17.5l-3 -30q-2 -22 -5 -34t-13 -18t-30 -9t-56 -7l-15 47v-2q-5 14 -10 29.5t-10 33.5v-2q-15 53 -22 105.5t-7 106.5zM224 471q18 -3 24 -3q7 -1 14 0q-2 -9 -4 -18.5t-2 -20.5zM262 468q24 2 35 14.5t12 39.5 q0 2 -0.5 6.5t-1.5 10.5q0 3 -0.5 6t-0.5 6l-4 3q-1 0 -1 -0.5t-1 -0.5l-1 -1q-11 -20 -21 -40.5t-16 -43.5z" />
<glyph unicode="&#xe29;" horiz-adv-x="1166" d="M-52 642q0 57 26 107.5t76 87.5q28 20 57.5 28.5t58.5 8.5q55 0 103.5 -28t74.5 -82q2 -4 4.5 -10.5t4.5 -14.5q0 -4 -1 -5q34 -14 46 -34t12 -46q0 -16 -4 -29t-8 -28q-4 -12 -5.5 -26.5t-0.5 -28.5q4 -90 8.5 -178t9.5 -178q1 -8 2 -18.5t2 -17.5q4 -9 8 -8q24 6 47 9 t46 5q33 3 65.5 8t62.5 18h-1q23 11 35.5 22.5t12.5 31.5q0 13 0.5 21t0.5 15.5v16v22.5l-18 2q-23 2 -48.5 4t-48.5 6h1q-40 5 -69.5 27t-40.5 65q-5 14 -6.5 27t-1.5 25q0 26 9.5 50t32.5 47h-1q56 59 117 59q51 0 96 -42l4 28t3 29q3 38 5.5 77.5t4.5 77.5l3 53 q2 31 5 48.5t16.5 28t41 17t78.5 16.5q11 -35 15.5 -61.5t4.5 -45.5q0 -23 -2 -44t-5 -41q-2 -18 -4.5 -36.5t-2.5 -32.5q-1 -72 -9 -152l17 19q1 1 -1 -0.5t-2.5 -1.5t3.5 4l16 16l-2 -1l22 26t22 27q11 12 23 26.5t23 27.5q10 11 23.5 23.5t33.5 17.5q14 2 27.5 -1.5 t27.5 -6.5q4 -2 17 -4t34 -6l-14 -52q-2 -11 -6 -23.5t-13 -23.5q-37 -43 -74.5 -85.5t-77.5 -82.5q-20 -21 -40 -38.5t-41 -34.5v1q-10 -9 -14 -12t-14 -11l-15 -143q-4 -36 -22.5 -67.5t-53.5 -50.5l-36 -18l1 1q-26 -14 -52 -26t-56 -18q-64 -12 -126.5 -16.5 t-124.5 -6.5q-35 -1 -57 4t-35 17.5t-19 34.5t-9 55q-3 41 -5.5 83t-4.5 82l-6 98q-1 27 -6 56q-11 -3 -22 -5.5t-20 -4.5q-31 -7 -59 -7q-52 0 -87.5 26t-65.5 80q-16 29 -24 60.5t-8 60.5zM108 660q0 -28 9.5 -56t24.5 -42q9 -8 21 -8q5 0 11.5 2t14.5 4h1q12 5 19.5 14.5 t8.5 30.5l-8 22q-5 19 -11 39.5t-14 37.5l1 -1q-13 28 -43 24v1q-12 -2 -19 -14t-12 -26q-4 -9 -4 -28z" />
<glyph unicode="&#xe2a;" horiz-adv-x="1033" d="M-22 700l35 34q18 16 36.5 32.5t39.5 29.5t45.5 21t54.5 9q15 1 30 6t29 12q45 22 86.5 31.5t83.5 9.5t85.5 -9.5t87.5 -26.5l32 -14q4 -2 4.5 -2.5l0.5 -0.5l0.5 -0.5t6.5 -2.5q18 22 37 44t36 43q48 57 94 113t81 119q11 18 23 37t23 36l15 23l5 8q5 8 13 17.5t20 15.5 q8 2 17.5 4t17.5 4l50 2l8 -45v3q4 -13 5.5 -27t-6.5 -29q-5 -10 -11.5 -19t-14.5 -19q-11 -13 -17 -23l1 1q-38 -74 -89 -139t-105 -128l-57 -66q-12 -14 -21 -27q11 -7 21 -13.5t20 -14.5h2q21 -19 42 -40t34 -48v1q41 -82 55 -169.5t19 -176.5q2 -35 -8 -69t-24 -65 q-35 -67 -96 -67q-46 0 -84 38q-8 8 -16.5 19t-16.5 22q-24 40 -51 81.5t-52 81.5l1 -1l-17 27q-15 24 -30 47.5t-30 55.5v-1q-11 21 -29 37.5t-38 33.5q-6 5 -7.5 5.5t-2 0.5t-1.5 1l-7 7q-26 -49 -36 -101t-14 -109q35 -2 64 -13t58 -27q33 -19 53.5 -48t22.5 -70 q1 -12 1.5 -25.5t0.5 -25.5v-21.5t-2 -20.5v1q-8 -56 -44.5 -88t-86.5 -32q-17 0 -34.5 4t-34.5 13h1q-52 26 -88 73t-46 110q-3 27 -4 55.5t-1 57.5q0 69 10.5 136.5t35.5 133.5q-33 -22 -61 -32t-50 -10q-29 0 -58.5 12t-57.5 33.5t-52.5 53t-42.5 70.5zM138 683 q1 -6 15.5 -9.5t28.5 -0.5l-4 -1q1 0 11 2t18 4q1 0 13.5 0.5t14.5 0.5l41 -56l27 -42q6 14 11.5 27t12.5 26q6 12 13.5 24.5t18.5 24.5q17 18 36 28.5t40 10.5q32 0 58 -22q34 -29 67.5 -59t63.5 -71q32 -44 61.5 -90.5t58.5 -92.5q11 -19 22.5 -37t23.5 -37l31 -48 q4 13 5 25t0 26v-1q-7 73 -19 143t-41 137q-13 30 -33 50t-51 31q-21 8 -43 18.5t-42 20.5q-45 23 -88 35.5t-88 12.5q-29 0 -62 -8t-64 -20q-15 -7 -33 -13t-38 -12h1q-10 -3 -18.5 -5.5t-17.5 -6.5l-15 -5l-7 -1l-8 -1l11 2l-14 -3.5t-10 -3.5t-8 -3zM393 230 q-1 -31 9.5 -56.5t36.5 -44.5l16 -14l6 13q2 8 6 14v6q1 36 -17 58t-50 29q-7 2 -7 -5zM452 107l1 1q-2 0 2 7l2 -1q2 -4 -5 -7z" />
<glyph unicode="&#xe2b;" horiz-adv-x="969" d="M28 611q6 81 45 147.5t111 108.5h-1q15 10 31.5 14t32.5 4q42 0 79.5 -26.5t51.5 -74.5q14 -49 25 -101t16 -101q5 -46 8 -93t3 -95q0 -47 -2.5 -92.5t-7.5 -90.5l78 136q20 35 41.5 71.5t41.5 71.5h-1q8 13 11 24.5t3 21.5q0 26 -23 60h1q-22 29 -41 62.5t-33 65.5 q-7 17 -9.5 31.5t-2.5 27.5q0 54 37 82.5t101 22.5q74 -7 115 -48.5t41 -111.5q0 -8 -0.5 -16t-2.5 -19l1 2q-3 -15 -7 -31t-7 -32q-3 -13 -6 -26.5t-6 -30.5q-1 -10 -1.5 -18t-0.5 -15q0 -8 0.5 -17.5t1.5 -14.5q19 -63 37.5 -125.5t37.5 -125.5l38 -125l-1 4q2 -7 4.5 -14 t6.5 -18q20 -75 -48 -98q-36 -11 -57.5 3.5t-32.5 56.5q-20 75 -38.5 148.5t-38.5 147.5l-60 -97q-28 -45 -58 -91.5t-61 -87.5q-16 -20 -38.5 -38.5t-45.5 -29.5q-15 -9 -29.5 -12.5t-26.5 -3.5q-35 0 -52 25t-15 70q2 19 4 39.5t4 38.5q3 30 6 59t5 61v51v64t-1 65v19 l-54 -27l1 1q-32 -15 -65 -15q-29 0 -55.5 12.5t-46.5 34t-32 49.5t-12 60zM199 691q11 9 13 13t4 19l51 -41q-7 -4 -6 -15z" />
<glyph unicode="&#xe2c;" horiz-adv-x="1310" d="M77 570q-20 125 51 231q9 14 25.5 23.5t32.5 17.5q37 18 77.5 22t78 -5.5t69.5 -31.5t54 -56q15 -23 21.5 -51.5t11.5 -56.5q4 -23 2.5 -48t-1.5 -53q28 8 55.5 14.5t53.5 6.5t50 -10.5t46 -35.5q13 25 27.5 69t28.5 96.5t26 109t20 106.5t11.5 89t-0.5 57 q-46 -9 -92 -11.5t-92 12.5q-8 2 -15 3.5t-14 5.5q-30 14 -35 39t21 48q27 24 57 44.5t62 33.5t66.5 17.5t72.5 -1.5q51 -8 94 3.5t85 34.5q27 14 55.5 23t59.5 7q12 -1 24.5 -2.5t22.5 -8.5t19 -18t11 -22q2 -8 -7.5 -19t-18.5 -16q-42 -24 -85 -46.5t-87 -44.5 q-15 -8 -22.5 -18t-8.5 -27q-5 -76 -17.5 -150.5t-29 -148.5t-35.5 -147.5t-37 -146.5q-21 -86 -41.5 -170.5t-21.5 -174.5q0 -9 -4.5 -20t-11.5 -17q-27 -23 -57.5 -26.5t-62.5 7.5q-28 9 -40 29.5t-12 49.5q-1 45 -9.5 87.5t-26.5 89.5q-8 -11 -15 -17t-10 -14 q-22 -57 -44 -113t-39 -114q-8 -29 -20.5 -50.5t-42.5 -29.5q-32 -8 -60.5 1t-48.5 35q-8 10 -9 26t0 30q8 86 16 171t16 172q0 2 -2 4t-3 4q-21 -8 -41.5 -18t-41.5 -12q-30 -3 -57 5.5t-49 26.5t-37 43.5t-19 56.5zM230 631h10v43q-2 1 -7 1q-1 -11 -1.5 -22t-1.5 -22z " />
<glyph unicode="&#xe2d;" horiz-adv-x="573" d="M-21 724q-2 5 0.5 10t4.5 10q11 23 22.5 45t24.5 44q15 25 33.5 40t40.5 22t46.5 7.5t50.5 -3.5q37 -5 65 -24.5t51 -45.5q37 -45 68 -92.5t51 -103.5q6 -19 11 -38t7 -39q5 -54 7.5 -108.5t-1.5 -108t-16 -106.5t-36 -104q-17 -38 -43.5 -67.5t-64.5 -43.5 q-56 -20 -106.5 -4.5t-88.5 69.5q-21 29 -33 63t-18 69q-16 100 -1 194t59 185q18 37 50 44.5t72 -8.5q14 -6 25 -17t17.5 -25t8 -30t-3.5 -32q-9 -28 -11.5 -56t5.5 -56q6 -21 2 -37t-16 -25.5t-30.5 -12t-40.5 3.5q-8 2 -15.5 6t-17.5 9q-8 -66 0 -125.5t44 -113.5 q19 -28 42 -28t43 29q29 41 44 87.5t23 95.5q11 66 8.5 130t-14.5 129q-11 63 -41 116t-71 101q-5 5 -9.5 8.5t-9.5 7.5q-18 13 -31 20.5t-25 7.5t-24 -7.5t-27 -24.5q-19 -21 -38 -41.5t-39 -40.5q-7 -9 -16 -12q-7 -2 -14.5 -2.5t-11.5 2.5q-5 5 -7.5 12.5t-4.5 14.5z" />
<glyph unicode="&#xe2e;" horiz-adv-x="793" d="M78 175q11 90 24 178t36 176q6 23 11.5 45.5t13.5 45.5q17 54 73 63q12 2 14 4q11 26 21 48.5t19 45.5q3 7 3.5 14t1.5 14q2 20 10.5 30.5t28.5 12.5q50 5 95.5 -6t80.5 -50q11 -11 20.5 -22.5t22.5 -26.5q10 11 19 20t14 20q19 42 36 84.5t34 85.5q25 67 48.5 134 t49.5 135q5 14 17 23.5t26.5 13t30 0.5t27.5 -12q28 -23 7 -60q-14 -25 -27 -50t-30 -55q7 -5 15 -8t10 -9q5 -10 8.5 -22.5t-0.5 -20.5q-35 -70 -70 -139t-73 -138q-13 -23 -32.5 -41.5t-37.5 -38.5q-8 -10 -12.5 -19t2.5 -23q18 -33 18.5 -68t-3.5 -70q-4 -29 -9.5 -57 t-14.5 -56q-13 -43 -27.5 -85t-33.5 -83q-31 -66 -80.5 -111t-124.5 -60q-24 -5 -47.5 -11.5t-47.5 -9.5q-33 -3 -60.5 10t-48.5 38q-15 19 -27.5 40t-25.5 42q-7 13 -5 29zM194 195q1 -11 6 -22t13 -19q14 -14 31.5 -20.5t35 -5.5t34.5 9t30 23q54 62 92 131t58 148 q9 35 9 69t-11 69q-29 -2 -57 -3t-57 -3q-2 -12 -3 -22.5t-3 -21.5t-4.5 -20.5t-4.5 -20.5q-6 -32 -19.5 -44.5t-45.5 -14.5q-18 -1 -37 -0.5t-42 0.5q-17 -57 -23 -115t-2 -117zM367 715q5 -16 9.5 -25t11 -13.5t16 -5t24.5 1.5q-15 11 -29.5 20.5t-31.5 21.5z" />
<glyph unicode="&#xe2f;" horiz-adv-x="575" d="M74 798q4 22 15.5 41.5t28.5 34t38 20.5q9 2 15.5 5.5t14.5 6.5l24 10q12 3 25 7t24 6q20 3 39 -1.5t32 -27.5l-1 1q11 -21 16 -45.5t-5 -48.5q-5 -9 -12 -21q12 8 25 16t27 18l-1 -1q17 14 28 32q5 9 11 16q13 17 24.5 27t25.5 10q11 0 24.5 -6.5t36.5 -19.5 q1 -27 1 -59.5v-59.5q0 -80 -2 -159.5t-5 -159.5q-6 -158 -6 -315v-112q-17 -8 -29 -12.5t-20 -4.5q-22 0 -28.5 13.5t-5.5 42.5q2 44 4 86.5t4 86.5l9 330v-1q2 59 2.5 117t1.5 117v3q-6 -5 -11.5 -10t-11.5 -10q-40 -31 -86 -57t-97 -39q-23 -6 -43 -4.5t-38.5 8 t-35.5 16.5t-33 21q-8 7 -14 18t-9 21q-6 21 -2 43zM131 753q1 7 1.5 13t0.5 10l2 25l6 22q2 5 4 9t0 8l31 -8q-11 -10 -19.5 -25t-7.5 -26q1 -4 1.5 -7t3.5 -3zM135 801v3q-2 -5 0 -3zM192 707q17 39 23 56.5t4 25.5l34 13l17 6q2 -7 19.5 -14.5t47.5 -10.5zM196 644l33 65 q1 6 7 14l1 5l4 1q12 15 33 36l1 -40q5 -13 5 -18l27 -67l-62 2q-3 0 -5.5 -0.5t-7.5 1.5h-8t-12 0.5t-11 0.5h-5zM198 766q9 0 14 1q2 -8 4 -14zM210 776.5q0 -4.5 2 -9.5q13 2 23.5 9.5t17.5 18t10 23.5t1 26q-3 13 -13 9q-19 -6 -30 -24.5t-11 -42.5v-9.5z" />
<glyph unicode="&#xe30;" horiz-adv-x="555" d="M61.5 111q0.5 8 4.5 16q8 17 25 29t46 17q-2 0 9 3t20 5h-1l11 3q10 3 22 4t23 -1.5t20.5 -8.5t14.5 -17l3 -11l1 1q11 13 28 22t37 17h-1l6 3q14 6 26.5 4.5t23.5 -7.5q11 -7 12 -18.5t-9 -19.5h1q-7 -6 -19.5 -11.5t-26.5 -11.5q-14 -7 -31.5 -21t-33.5 -30 q-1 -1 -2 -7.5t-2 -14.5q-2 -8 -7.5 -15.5t-22.5 -15.5q-19 -8 -29 -7.5t-18 16.5l-2 2l-9 -2q-27 -7 -48.5 -3t-38.5 21l-3 3q-10 10 -19 20.5t-10 19.5q-1 8 -0.5 16zM71 753.5q-3 13.5 0 25.5q4 13 11.5 26t23.5 27q15 14 35 16t39 -9h-1q52 -25 51 -66v-3q13 8 25 17 t24 23q11 12 21.5 24.5t21.5 26.5q8 10 21 11.5t28 -2.5h-1q30 -6 33 -21h-1q3 -10 -11 -24q-5 -4 -9 -8l-9 -9q-19 -22 -46 -42.5t-57 -36.5l-14 -7q-11 -6 -23 -11.5t-30 -10.5h1q-17 -5 -37.5 -5.5t-39.5 2.5q-14 2 -25.5 10.5t-19.5 20.5t-11 25.5zM144 762h6 q0 -1 0.5 -1.5t0.5 -1.5v7q-2 -1 -3.5 -2t-3.5 -2zM150 781h24l-9 -5q-4 -2 -7.5 -4.5t-6.5 -5.5zM151 99q10 -12 15 -12t26 13h-7q0 2 -1 4q-16 -7 -33 -5zM151 759q5 -9 10 -11h-8q0 2 -0.5 2.5t-0.5 2.5zM181 119h25q-9 -10 -22 -15q0 2 -0.5 3t-0.5 3h1z" />
<glyph unicode="&#xe31;" d="M-514 1045.5q-4 16.5 0 31.5q5 17 14.5 33t28.5 33q18 15 51 15q20 0 34 -6q30 -15 46 -35t15 -47q0 -3 1 -6q17 10 33 21.5t31 29.5q14 16 27 31t26 32q11 13 25.5 13.5t31.5 -2.5q17 -2 25 -9t11 -16q4 -15 -15 -30l-8 -8t-12 -13q-24 -28 -56 -52.5t-70 -44.5l-18 -10 l-26 -14t-36 -12q-13 -3 -26.5 -4t-28.5 -1h-20.5t-17.5 2h1q-16 2 -30 12.5t-23.5 25t-13.5 31zM-428 1057h5q4 -11 9 -15v1l-1 23z" />
<glyph unicode="&#xe32;" horiz-adv-x="746" d="M20 660q-2 37 13.5 66.5t46.5 47.5q113 68 245 74q49 3 97.5 5t97.5 4q38 2 56 -13t21 -54q3 -48 5.5 -97t-2.5 -97q-12 -119 -13 -237t7 -237q1 -12 2.5 -23.5t3.5 -22.5q6 -33 -10 -54t-50 -25q-26 -3 -44.5 15.5t-17.5 49.5q2 65 1 130t-1 130t1.5 130.5t9.5 130.5 q5 40 3 80.5t-2 82.5q-12 3 -19.5 5.5t-12.5 1.5q-35 -2 -69 -3t-68 -5t-67.5 -11t-66.5 -21q-24 -10 -38 -19t-18.5 -20t-1.5 -27t14 -40q9 -21 20.5 -41t26.5 -36t34 -27.5t44 -16.5q1 0 2 -0.5t2 -0.5q15 -8 28 -18.5t17 -28.5q1 -6 -3.5 -15.5t-12 -18.5t-16.5 -16.5 t-16 -10.5q-11 -4 -21 1q-26 13 -52 26.5t-52 27.5q-41 23 -64 67q-20 38 -39 77t-21 84z" />
<glyph unicode="&#xe33;" horiz-adv-x="729" d="M-483 1061q0 23 14.5 45.5t35.5 41.5t45 31.5t44 14.5q30 3 51 -5t34 -26t17.5 -44t1.5 -58l-3.5 -45.5t-9.5 -31t-27 -16t-56 -0.5q-20 2 -45.5 10t-48 20t-38 28t-15.5 35zM61 678q-3 76 60 114q111 66 245 74q49 2 97.5 4t97.5 4q38 2 56 -12.5t21 -53.5 q3 -49 5.5 -97.5t-2.5 -96.5q-12 -120 -13 -237.5t7 -237.5q1 -11 3 -23t4 -23q5 -32 -10.5 -53t-49.5 -25q-26 -3 -44.5 15.5t-17.5 48.5q1 65 0 130.5t-1 130.5t1.5 130t9.5 130q5 40 3 80.5t-2 83.5q-12 3 -19 5t-13 2q-35 -2 -69 -3.5t-68 -5.5t-67.5 -11t-66.5 -21 q-24 -10 -38 -19t-18.5 -20t-1.5 -26.5t14 -39.5q9 -22 20.5 -41.5t26.5 -35.5t34 -27.5t44 -16.5q2 0 4 -2q15 -8 28 -18.5t17 -28.5q1 -6 -3.5 -15t-12 -18t-16.5 -16.5t-16 -10.5q-11 -4 -20 0q-26 14 -52.5 27.5t-52.5 27.5q-21 11 -36.5 28.5t-26.5 38.5 q-20 38 -39.5 77t-21.5 84z" />
<glyph unicode="&#xe34;" horiz-adv-x="149" d="M-773.5 927.5q-2.5 10.5 2.5 24.5q2 7 2.5 14t-0.5 14q-3 22 1 42.5t12 40.5q12 30 30 55.5t40 48.5q14 14 31.5 25t36.5 19q155 66 321 23q25 -6 48 -16t46 -21q20 -9 30.5 -26.5t20.5 -35.5q11 -21 21.5 -42t29.5 -37q6 -6 13.5 -11t12.5 -11q8 -10 15 -20.5t11 -21.5 q5 -14 0 -26.5t-15 -17.5q-30 -16 -54 3q-19 15 -44 37q-5 -36 -18 -48t-45 -18q-88 -14 -176 -16.5t-176 -8.5q-30 -2 -59.5 -6.5t-56.5 -20.5q-31 -17 -54 16q-4 5 -7.5 10t-7.5 10q-9 11 -11.5 21.5zM-674 1043.5q-1 -9.5 7 -23.5q20 -35 61 -30q54 6 108 11.5t108 11.5 q17 2 34 5.5t38 8.5q-10 24 -18.5 45t-16.5 41q-5 14 -14.5 20t-23.5 8q-57 7 -109 -3.5t-103 -33.5q-16 -8 -29.5 -18.5t-27.5 -21.5q-13 -11 -14 -20.5zM-264 1120q4 -21 7.5 -41.5t7.5 -42.5q13 3 25 5t26 5q-7 11 -11.5 23t-11 22.5t-16.5 18t-27 10.5z" />
<glyph unicode="&#xe35;" d="M-885 969q0 36 9.5 73t35.5 71q23 31 55 57.5t70 46.5q22 11 47 16t52 5q31 0 58 -6q29 -5 51.5 -14.5t42.5 -20.5q9 -5 17.5 -9t17.5 -8q14 -6 27.5 -12.5t27.5 -12.5q20 -9 40 -17.5t40 -16.5q17 -6 28 -9t22 -7l15 -4q7 20 12 41.5t5 43.5q0 35 -14 62q-8 15 -3 21.5 t28 10.5q41 10 62 -20q12 -18 17.5 -36.5t5.5 -35.5q0 -16 -3 -31q-2 -16 -5 -31.5t-6 -31.5q-2 -11 -4 -21t-4 -21q-4 -21 -15.5 -36t-43.5 -17h8q-1 -5 -1 -7v-4q-3 -24 -15 -32.5t-44 -10.5q-28 -2 -57.5 -2.5t-57.5 -0.5q-78 0 -156 3q-9 0 -22.5 0.5t-22.5 0.5 q-15 1 -29.5 1h-29.5q-24 0 -48 -0.5t-48 -1.5h1q-11 -1 -23 -1.5t-23 -0.5q-8 -1 -19.5 -4t-22.5 -7q-15 -4 -29 -3.5t-25 5t-17.5 13.5t-6.5 22zM-789 1022q3 -1 8 -1h11q72 -2 143 -3t143 -1q38 -1 75.5 0t75.5 3q10 0 19.5 0.5t19.5 0.5q3 0 7 0.5t9 1.5h4t4 1h-8 q-8 8 -11 10t-5 3h5q-2 0 -5 1t-4 1l-36 15q-23 9 -43.5 18.5t-34.5 17.5h1q-71 40 -140 64q-35 12 -65 12q-42 0 -85.5 -27.5t-72.5 -75.5q-5 -8 -8 -18t4 -23h-11z" />
<glyph unicode="&#xe36;" horiz-adv-x="124" d="M-752 983q4 45 18.5 84.5t36.5 77.5q19 31 41.5 58t52.5 47q31 22 64.5 30t70.5 4q23 -2 46 -6.5t49 -8.5q20 23 37.5 26t49.5 -17q12 -8 21.5 -20t22.5 -17q14 -5 27 -10.5t26 -13.5q37 -21 59.5 -58t30.5 -80t3 -85.5t-23 -74.5q-9 -17 -23 -31.5t-31.5 -24t-38 -14 t-42.5 -0.5q-20 4 -39 8t-39 7q-19 3 -35 10.5t-33 12.5q-16 4 -34 -2t-35 -5q-54 3 -108.5 8t-108.5 10q-11 2 -21 8t-20 13q-16 11 -21.5 27.5t-3.5 36.5zM-702 966q-2 -11 2 -21l4 10q1 5 1 10t-5 10q-1 -5 -2 -9zM-444 1044q-5 -26 9 -58q6 9 11.5 15t6.5 12 q1 20 0 40.5t-2 40.5q-2 0 -4.5 0.5t-4.5 0.5q-11 -25 -16 -51zM-277 1043q-8 26 0.5 47t28.5 41q18 -6 27.5 -17t7.5 -29q-3 -23 -7 -45.5t-9 -45.5q-2 -8 -8 -15.5t-12 -16.5q-16 20 -19.5 40.5t-8.5 40.5zM-137 1062z" />
<glyph unicode="&#xe37;" d="M-812 1062q14 49 43 85t67 66q21 16 43 25t45.5 14.5t47.5 7.5t48 5q8 1 17 0.5t23 -0.5q2 34 2 66t-4 64q-3 23 0 47q5 24 25 36t44 7q32 -8 52.5 -27t26.5 -51q5 -29 24.5 -42.5t43.5 -28.5q-5 21 -9 38l-8 34q-2 8 -3 16.5t-1 16.5q-1 22 6.5 37.5t20 23t30 7.5 t37.5 -9q31 -13 41.5 -35t8.5 -61q-2 -26 -2 -51.5v-51.5v-102.5t1 -102.5q0 -15 1.5 -29.5t3.5 -28.5q6 -33 -12 -55t-52 -20q-20 2 -37 -0.5t-34 -11.5q-33 -18 -60 12q0 1 -2 3q-11 18 -24 26.5t-28 11.5t-31.5 1.5t-32.5 -3.5q-48 -7 -95 -14t-95 -13q-53 -6 -106 -6 q-43 0 -60.5 26t-5.5 67zM-682 1077q2 -3 4 -9q63 11 126.5 22t129.5 22q-26 35 -57.5 43.5t-66.5 4.5q-45 -4 -78.5 -25.5t-57.5 -57.5z" />
<glyph unicode="&#xe38;" d="M-465 -253q13 42 29.5 80.5t47.5 70.5h-1q3 4 16.5 6t27.5 3q13 0 25 -6l41 -24h-2l13 -8q6 -5 9.5 -12.5t4.5 -14.5q-6 -42 -11 -85t-10 -85q-3 -20 -3 -40q0 -24 4 -39t-25 -24h1q-34 -11 -53 -1t-17 39q1 17 1.5 34t2.5 34q0 8 1 17t1 17q0 2 0.5 2.5t0.5 2.5l1 11 l-5 -3h1l-17 -7q-24 -7 -44.5 -1.5t-30.5 18.5q-4 5 -7 9.5t-2 5.5zM-377 -195h24l-3 3h1l11 17q2 4 4 6h-23q1 0 2 -0.5t5 -1.5h-6zM-279 -123h2l1 -2zM2110 1424l15 24h5q-6 0 -6 2h23q-2 -2 -4 -6l-11 -17h-1l3 -3h-24zM2110 1424l15 24h5q-6 0 -6 2h23q-2 -2 -4 -6 l-11 -17h-1l3 -3h-24z" />
<glyph unicode="&#xe39;" d="M-550 -310q3 14 7.5 28.5t10.5 27.5q20 39 42.5 75t55.5 65q37 23 57.5 19t29.5 -18q11 -17 12 -45q4 -12 1 -26l-1 -1q-2 -21 -5.5 -42t-6 -42t-2.5 -42t5 -42q11 32 21 64t7 67q-1 10 -5 19t-8 19q-2 16 14 20q21 5 37 -6t19 -35q4 -31 -2 -63q-7 -32 -15.5 -64 t-17.5 -64q-8 -31 -39 -37q-20 -2 -35 4t-23 25q-7 14 -10.5 28t-7.5 28q-2 8 -2 17t-2 21q-8 -7 -12 -11l-8 -8q-25 -25 -63 -27q-10 -1 -20 1.5t-18 6.5q-11 5 -15 16t-1 22zM-479 -287q9 5 20 15t21.5 22t18.5 23.5t11 20.5q3 8 3.5 16t-6.5 17q-23 -26 -39.5 -54.5 t-28.5 -59.5z" />
<glyph unicode="&#xe3a;" d="M-180 -156q0 23 16 39.5t39 16.5q20 0 37.5 -16.5t17.5 -39.5t-17.5 -39t-37.5 -16q-23 0 -39 16t-16 39z" />
<glyph unicode="&#xe3b;" />
<glyph unicode="&#xe3c;" />
<glyph unicode="&#xe3d;" />
<glyph unicode="&#xe3e;" />
<glyph unicode="&#xe3f;" horiz-adv-x="1251" d="M94 0v1161h438v131h62v-131h201q54 0 101.5 -18.5t83.5 -49.5t56.5 -73t20.5 -88q0 -115 -103 -182q203 -41 203 -220v-299q0 -48 -21.5 -90t-57.5 -73.5t-83.5 -49.5t-99.5 -18h-301v-139h-62v139h-438zM158 61h374v639h-374v-639zM158 762h374v338h-374v-338zM594 61 h301q40 0 76 13t64 36t44.5 54t16.5 67v299q0 170 -277 170h-24h-201v-639zM594 762h203q40 1 76 15t63 36.5t43 53t16 65.5q0 34 -16.5 65t-44 53.5t-63.5 36t-76 13.5h-201v-338z" />
<glyph unicode="&#xe40;" horiz-adv-x="481" d="M29 375.5q5 85.5 15 171.5q8 67 16.5 133t16.5 132q4 31 20 46.5t45 10.5q20 -3 34.5 -7t23.5 -11t13 -19t3 -32q-2 -27 -7 -54.5t-9 -55.5q-8 -45 -14.5 -90t-13.5 -91q-2 -12 -1 -25.5t1 -33.5q48 14 90.5 10.5t84.5 -18.5q61 -24 88.5 -65t22.5 -107q-9 -122 -90 -223 q-23 -28 -51.5 -41.5t-58.5 -15.5t-59 6t-52 24q-97 66 -112 183q-11 87 -6 172.5zM167 277q-1 -42 8 -80.5t35 -72.5q24 -31 51 -1q29 33 42 71.5t18 79.5q0 32 -17 53t-43 24q-12 1 -28 -6t-30.5 -18.5t-25 -24.5t-10.5 -25z" />
<glyph unicode="&#xe41;" horiz-adv-x="880" d="M-21 176.5q0 12.5 5 23.5q14 35 20.5 71.5t10.5 73.5t7.5 74t12.5 73q12 51 25.5 101.5t29.5 101.5q6 19 18 36t24 33q20 25 41 30.5t39 -6.5q16 -11 19 -37t-9 -48q-18 -34 -33 -74.5t-25.5 -83.5t-16 -87t-4.5 -85q11 2 20 2.5t17 2.5q58 16 107 -1t94 -52 q21 -18 25 -45t-11 -57q-23 -48 -51.5 -91t-66.5 -82q-24 -24 -51 -36.5t-55.5 -12.5t-57 14t-54.5 44q-12 14 -26.5 25.5t-26.5 25.5q-8 9 -15 20.5t-10 22.5q-2 11 -2 23.5zM137 214q-2 -16 9 -45q11 -26 26.5 -31t35.5 15q17 16 29 35.5t26 36.5q-26 27 -51 30t-55 -14 q-18 -11 -20 -27zM422 297q1 132 21.5 258.5t73.5 248.5q32 72 90 68q36 -2 54 -26t7 -58q-10 -29 -21.5 -57.5t-28.5 -53.5q-19 -29 -29 -58.5t-15 -60.5t-7 -61.5t-5 -60.5q43 6 82 12t77 9q43 4 77 -15.5t64 -45.5q8 -8 10.5 -23.5t1.5 -29.5q-3 -26 -11.5 -49t-21 -44 t-28 -41t-30.5 -39q-25 -29 -55.5 -54.5t-61.5 -49.5q-28 -21 -58.5 -24t-58.5 7t-50.5 30t-33.5 44q-18 42 -30.5 84.5t-12.5 89.5zM561 268q8 -20 18 -42t21 -47q49 23 77.5 56.5t49.5 74.5q-42 22 -80.5 12.5t-85.5 -54.5z" />
<glyph unicode="&#xe42;" horiz-adv-x="671" d="M-206 1172q3 17 9.5 33t16.5 30q42 57 91.5 104.5t111.5 79.5q102 53 206 58.5t210 -44.5q36 -17 62 -44.5t39 -67.5q21 -66 -5.5 -105t-100.5 -46q-2 -20 -5 -39t-5 -37q-10 -73 -39 -138.5t-62 -129.5q-20 -40 -43 -78.5t-45 -77.5q-9 -16 -16 -33.5t-17 -37.5 q39 0 71.5 -5t61.5 -26q46 -33 65.5 -78t24.5 -96q6 -72 -6 -143t-44 -137q-18 -37 -45.5 -61t-60 -33.5t-67.5 -3.5t-67 28q-17 11 -30 26.5t-24 31.5q-26 37 -42 76t-24 80t-9 83.5t2 85.5q6 81 27.5 156t61.5 145q32 56 61.5 111.5t58.5 111.5q22 42 34.5 86t13.5 97 q-21 0 -39.5 1t-35.5 -2q-65 -11 -128 -22.5t-128 -22.5q-17 -3 -34 -4.5t-34 -0.5q-40 2 -59.5 26t-12.5 63zM99 1287q1 -3 1.5 -6.5t2.5 -7.5q79 29 152 16.5t144 -61.5q0 41 -15.5 62t-47.5 30q-49 13 -96 11t-95 -21q-12 -5 -23.5 -11t-22.5 -12zM154 341 q3 -22 5.5 -44.5t8.5 -43.5t17.5 -40.5t31.5 -36.5q20 17 33.5 42.5t20 55t5 60.5t-10.5 59q-26 -12 -52 -24.5t-59 -27.5z" />
<glyph unicode="&#xe43;" horiz-adv-x="406" d="M-132.5 1199.5q5.5 33.5 18.5 65.5q19 49 58.5 93t89.5 76t106.5 50t109.5 17q126 -5 239 -61q49 -24 76 -59t35 -74t1 -79.5t-25 -76.5q-23 -47 -51.5 -90.5t-54.5 -88.5q-50 -88 -98 -175t-96 -176q-10 -18 -15.5 -38t-13.5 -43q6 -5 10.5 -8t9.5 -5q73 -26 108 -80 t38 -127q2 -63 -1 -124.5t-11 -123.5q-6 -51 -32 -71.5t-77 -18.5q-91 2 -152.5 50t-91.5 140q-14 44 -16 91t-7 94q-2 17 -1.5 34t0.5 35q-1 19 0 36q1 14 2.5 28.5t4.5 22.5q11 29 17.5 59t13.5 60t17 58.5t28 54.5q33 48 60.5 100.5t59.5 109.5q-14 2 -22.5 4t-15.5 0 q-48 -9 -94.5 3t-87 37t-73.5 59.5t-53 72.5q-19 35 -13.5 68.5zM76 1174q-5 -27 11.5 -40.5t43.5 -8.5q97 19 143 111q9 20 7 37.5t-21 36.5q-33 -16 -64 -33t-63 -26q-17 -5 -27 -12.5t-16 -18t-8.5 -22.5t-5.5 -24z" />
<glyph unicode="&#xe44;" horiz-adv-x="867" d="M-64.5 1352q1.5 18 26.5 29q49 20 94.5 10.5t89.5 -34.5q71 -42 124 -101.5t103 -122.5l16 -22t21 -28q31 69 58.5 131.5t38.5 130.5q2 13 5 26t9 24t15.5 19t24.5 11q35 7 70.5 5t62.5 -30q17 -19 30 -41.5t20 -46.5q11 -37 17.5 -75.5t12.5 -76.5q6 -43 3.5 -85 t-17.5 -85q-35 -101 -65.5 -202t-62.5 -203q-5 -15 -7.5 -30.5t-6.5 -29.5q34 -24 64.5 -45t59.5 -44q55 -43 84 -100t35 -127q4 -47 -13 -85.5t-47 -72.5q-20 -22 -49.5 -34t-62.5 -14.5t-66 5.5t-60 25q-85 54 -121 130.5t-40 173.5q-2 78 11 153.5t36 150.5q9 31 17.5 62 t17.5 65q-15 4 -27.5 7.5t-24.5 5.5q-43 6 -73.5 27.5t-47.5 63.5q-44 106 -107.5 197.5t-145.5 170.5q-23 23 -50 40t-52 37q-22 17 -20.5 35zM594 343q-11 -52 4.5 -96t47.5 -89q21 65 7.5 111t-59.5 74z" />
<glyph unicode="&#xe45;" horiz-adv-x="751" d="M88 662q-2 34 12 61t43 44q105 63 227 69q46 2 91 4l90 4q36 2 52.5 -12t19.5 -50q3 -45 5.5 -90t-2.5 -90q-11 -111 -12 -220t6 -219q0 -3 -0.5 -26t-1.5 -59t-2 -81.5t-2.5 -93t-2.5 -92.5t-2 -81t-1.5 -59t0.5 -26q3 -15 0.5 -21.5t-10 -8t-19 -0.5t-27.5 -1 q-12 -2 -19.5 -2t-11.5 3t-5.5 10.5t-1.5 21.5q1 40 0.5 114.5t-1 166t-1 191t0.5 191t3 166t7 114.5q5 37 3 74.5t-2 76.5q-11 3 -18 5t-12 2q-32 -2 -64 -3t-63.5 -4.5t-63 -10.5t-61.5 -20q-22 -9 -34.5 -17t-17 -18.5t-1.5 -25.5t13 -37q17 -40 43 -71t73 -41q2 0 4 -1 q14 -8 26 -17.5t15 -26.5q1 -6 -3 -14.5t-11 -16.5t-15.5 -15t-15.5 -10q-4 -1 -9 -1t-9 2q-25 12 -49.5 24t-48.5 26q-19 11 -33 27t-25 35q-19 36 -36.5 72t-19.5 78z" />
<glyph unicode="&#xe46;" horiz-adv-x="950" d="M64 625q0 77 45 155v-1q27 45 64 67.5t79 22.5q30 0 60.5 -12.5t58.5 -37.5l25 -26q4 -4 8 -7.5t7 -6.5q4 -4 7 -8q9 -8 19.5 -15.5t23.5 -17.5l3 3l-1 -1l34 24t33 23l16 11q11 8 22.5 15.5t28.5 13.5q17 7 34 10t31 3q48 0 78.5 -28.5t41.5 -86.5v1q16 -80 28 -158.5 t20 -155.5q18 -177 34 -351t31 -351q2 -27 3.5 -54.5t3.5 -54.5q2 -32 3 -62t4 -62q6 -71 13 -144t14 -144l14 -145l-1 2q2 -8 2 -12.5v-9.5v-8t0.5 -13t0.5 -13.5v-8.5q-23 -9 -33 -13t-14 -5.5l-4 -1.5l-3 -1l-57 -22l-22 57v-1q-6 13 -10.5 26t-5.5 28q-4 56 -7.5 113.5 t-5.5 113.5q-3 57 -7 112.5t-6 112.5q-5 59 -10.5 119t-11.5 118l-11 116q-4 38 -7.5 78t-6.5 79l-15 156l-8 93q-5 60 -10 118.5t-13 117.5q-6 49 -15 97.5t-20 93.5q-4 20 -8 20t-9.5 -2t-13.5 -8q-14 -8 -25 -16.5t-24 -18.5q-11 -9 -24.5 -18l-25.5 -17 q-22 -14 -40 -21.5t-35 -7.5q-37 0 -73 32q0 -48 -12.5 -93.5t-38.5 -88.5l1 1q-32 -57 -100 -63q-29 -2 -52.5 8t-40.5 37v-1q-30 48 -47 96.5t-17 99.5zM196 625q0 -26 6.5 -51.5t20.5 -46.5q20 37 20 85q0 27 -7 53.5t-20 48.5q-14 -22 -17 -42.5t-3 -46.5zM199 500 q13 10 24 27q8 -15 23 -28z" />
<glyph unicode="&#xe47;" d="M-698 1033q0 10 1 19.5t1 19.5q1 9 1.5 18.5t0.5 18.5q0 8 2.5 16t5.5 16l7 16h-1q8 23 17 45.5t20 45.5q5 11 16 25.5t23 27.5q12 14 24 15.5t29 -10.5h-1l27 -20l9 -6l24 -25h-1q16 -18 33 -26t33 -8q26 0 52 17q32 20 65 43.5t69 49.5l31 22q9 6 19 13t23 18 q5 5 17.5 12t26.5 15q8 5 15.5 9.5t14.5 9.5q6 5 16.5 7.5t23.5 3.5q17 3 23.5 -1.5t11.5 -9.5l4 -4q11 -12 12 -23t-1 -22q1 2 -5 -2t-11 -8h2l-4 -3h-19q-14 9 -16 14t-4 9l-3 8q-22 -14 -45.5 -29.5t-44.5 -29.5h1l-35 -28l-14 -12l-45 -32h1l-36 -26t-37 -26 q-10 -6 -23 -13t-30 -14q-12 -5 -25 -7.5t-28 -2.5q-35 0 -62 15q-26 14 -43 29t-31 29h1q-5 4 -3 3t-3 3q-9 -14 -18.5 -34.5t-18 -44.5t-14.5 -49t-8 -48q6 11 14.5 23.5t19.5 24.5q29 31 78 25q5 -2 7 0q19 4 35.5 1t29 -10.5t20.5 -17.5t10 -20h-1q3 -10 4 -18.5 t1 -15.5t-0.5 -14.5t-1.5 -14.5l-4 -36q-1 -5 -4.5 -10t-19.5 -8q-13 -2 -24.5 -1.5t-19.5 8.5q-5 7 -7 10.5t-3 5.5h1q-5 12 -6 18t-2 11l-6 27q-3 14 -7 24t-9 15q-6 6 -13 2h1q1 1 -4.5 -6t-10.5 -14q-16 -25 -29.5 -57.5t-24.5 -66.5q-1 -2 -1 -11q-3 -16 -33 -22 q-17 -3 -29 1t-17 15q-8 22 -13 42.5t-4 40.5z" />
<glyph unicode="&#xe48;" d="M-364 1625q0 18 0.5 36t0.5 35v7q0 2 1 4.5t6 9.5h-2q2 5 9.5 6.5t17.5 -1.5q14 0 15 -3q8 -12 8 -16v-51q1 -30 6 -60q3 -33 11 -70q2 -8 -5.5 -13.5t-24.5 -3.5l12 -2q-1 -1 -3 -2t-4.5 -1.5t-7.5 -2.5q-13 -4 -23.5 0.5t-10.5 15.5q1 11 0.5 22t-1.5 22q0 5 -0.5 9.5 t-0.5 9.5q0 12 -3 24q0 6 -0.5 12.5t-0.5 12.5z" />
<glyph unicode="&#xe49;" horiz-adv-x="44" d="M-244 1545l5 8l12 21q11 17 21.5 34t21.5 35q-18 -2 -33.5 2.5t-17.5 14.5h1q-1 7 0 11l21 26l14 14t23 21q4 1 8 4q4 2 9 5l10 6h-1q19 12 44 -1l6 -3h-3q14 -3 21 -9.5t2 -13.5q-2 -2 -3.5 -5.5t-7.5 -12.5h1l-12 -21l-18 -31l43 34l30 25l19 12h-1l11 8q2 1 7 6l9 9 l20 14l8 5l21 17l13 10q8 6 23 4t27 -7q2 -2 3 -7t-1 -7q-2 0 -3 -1q-9 -2 -13.5 -5t-8.5 -6l-46 -30l-18 -14h3l-8 -4h2l-6 -4t-10 -6h2l-22 -18q-2 0 -6 -2.5t-6 -3.5h1l-13 -12l-22 -16l-21 -16l-14 -11q-5 -4 -9.5 -7.5t-12.5 -11.5q-12 -11 -22.5 -22.5t-21.5 -23.5 l-10 -11l-12 -12l-14 -2h11l-1 -1q-20 -10 -32 -9.5t-18 8.5h1q-8 8 -5 13h-1zM-196 1666q1 2 3 4l43 40h-1q2 2 3 4.5t0 11.5h23l-14 -7h1q-5 -3 -14 -13.5t-18 -23.5q-3 -3 -6 -12q-1 -1 -1 -3v-3h-15q-5 0 -4 2zM-166 1614q0 -1 1 0h-1zM-148 1726l29 1q-1 -1 -9.5 -1 h-19.5zM-125 1726h3q0 1 -1 1z" />
<glyph unicode="&#xe4a;" horiz-adv-x="94" d="M-529 1641q-10 8 1 16q2 2 4.5 3t5.5 3q8 5 8 13q1 14 4.5 27.5t8.5 27.5q8 19 23 30q19 15 43 4q11 -5 21 -10.5t18 -13.5q5 -5 8.5 -10t8.5 -10q1 -1 1.5 -3t2.5 -4q3 5 5.5 8t4.5 6q6 12 21 10q25 -4 40 -18.5t25 -35.5q5 -8 8 -17.5t7 -18.5q2 0 2 1q6 13 12.5 25.5 t11.5 26.5q11 28 7 53.5t-18 51.5q-11 20 -25.5 37.5t-31.5 34.5q-9 8 -19 16.5t-22 13.5q-2 1 -3.5 1.5t-3.5 1.5q-7 2 -9 1.5t-7 -5.5q-6 -1 -11 7q-4 9 -9 13v1h57l-1 -1q4 -4 7 -6q8 -5 15.5 -9.5t15.5 -9.5t15 -14q9 -10 18 -19t17 -20q8 -10 15 -20t13 -21 q13 -26 17.5 -54t-6.5 -57q-5 -14 -11 -28t-11 -28q-13 -32 -24 -68q-2 -5 -2 -10v-11q0 -8 -7 -11q-9 -5 -17.5 -1t-10.5 14q0 2 -0.5 4.5t0.5 4.5q3 51 -10 97q-2 8 -6 14.5t-9 14.5q-1 2 -3.5 3.5t-5.5 3.5q0 -10 -0.5 -18t0.5 -16q1 -14 -0.5 -26.5t-3.5 -25.5 q-1 -5 -1.5 -9.5t1.5 -9.5q2 -8 -4 -13t-14 -3q-2 1 -8 3q-6 3 -12 -2v-4q4 -8 -3 -14q-10 -5 -18 -1q-13 6 -13 21q-1 21 -1.5 42.5t-2.5 42.5l-2 16t-3 16q-2 9 -6.5 17t-12.5 14q-12 9 -24 0q-9 -8 -15 -27l6 2q10 4 18.5 -1t10.5 -16q0 -4 0.5 -7.5t2.5 -7.5q3 -3 1 -9 q-5 -19 -9 -37.5t-9 -36.5q-2 -7 -4.5 -13.5t-5.5 -12.5q-2 -7 -9 -9t-14 2q-5 3 -8 8q-6 8 -11 17.5t-7 20.5q-2 10 -4.5 19t-4.5 20q-11 -3 -19 3zM-475 1642.5q0 -8.5 2 -18.5q5 11 8 20.5t4 20.5q-5 0 -8.5 -1.5t-3.5 -4.5q-2 -8 -2 -16.5z" />
<glyph unicode="&#xe4b;" horiz-adv-x="116" d="M-236 1628h1q-2 2 0 7.5t6 8.5h-2q2 2 18 2h6t6 -1q10 -6 18 -6h7.5t5.5 -1l34 -4q1 0 5 2h-15q2 8 2 12q2 13 3 25.5t2 25.5t0 27q0 7 -2 11q0 1 -0.5 -0.5t-0.5 0.5h1q-2 3 0 8t6 9h-1q5 8 19.5 6.5t19.5 -6.5h-2q8 -6 10 -9.5t2 -5.5q1 -32 -3 -65q-2 -10 -2.5 -19.5 t-1.5 -19.5v-5h-13q4 -2 8 -2l30 -8q3 -2 6 -2q22 -6 41 -6q8 0 17.5 1t18.5 3q-3 0 1 2h3.5t4.5 1h-4q12 5 20.5 5t14.5 -9h-1q1 -2 2 -2.5t2 -1.5q5 -11 -16 -14q-6 -2 -9 -2q-2 -1 -6 -1h-6q-8 -2 -18 -2h-18h-16.5t-16.5 1q-28 2 -44 9h3q-2 0 -3 0.5t-3 0.5v-28 q0 -13 1 -26t6 -28q-4 5 -21 2q-33 -8 -35 12q-1 17 -1.5 32.5t-0.5 32.5v11h10l-6 2q-14 2 -28 3t-27 2q-4 1 -8 0q-17 0 -22.5 2.5t-7.5 7.5zM57 1611q2 -2 2 0h-2z" />
<glyph unicode="&#xe4c;" horiz-adv-x="11" d="M-339 1301q0 19 14 47q10 21 25.5 36t34.5 25.5t41 18t46 14.5q21 6 41 12t40 14q55 17 64 -8q4 -10 -8.5 -18.5t-35.5 -15.5l-21 -6q-25 -7 -50 -13.5t-50 -14.5q-8 -2 -14.5 -8.5t-8.5 -26.5h-7l11 -7l29 -16h-1q11 -8 21 -16.5t14 -13.5q7 -11 11 -21t4 -17 q0 -11 -11 -24.5t-31 -31.5q-14 -12 -45 -12q-32 0 -55 18q-31 27 -46 51q-5 9 -8.5 18.5t-3.5 15.5z" />
<glyph unicode="&#xe4d;" d="M-227 1078q0 21 8.5 40t22.5 32.5t32.5 21.5t38.5 8q21 0 39.5 -8t32.5 -21.5t22 -32.5t8 -40t-8 -39.5t-21.5 -32.5t-32.5 -22t-40 -8t-39.5 8t-32.5 22t-22 32.5t-8 39.5zM-180 1078q0 -23 17.5 -39t37.5 -16q23 0 39 16t16 39t-16 39t-39 16q-20 0 -37.5 -16 t-17.5 -39z" />
<glyph unicode="&#xe4e;" d="M-421.5 1179.5q3.5 33.5 22.5 71.5q19 39 44.5 65.5t55.5 44.5t64.5 30.5t71.5 22.5q36 11 71.5 22t70.5 23q32 11 52 8t26 -21q12 -41 -58 -59q-53 -14 -105 -29t-105 -30q-22 -6 -39.5 -18t-20.5 -42q16 -9 32.5 -17t30.5 -19q17 -12 32.5 -25.5t25.5 -30.5 q15 -25 20.5 -45t0 -38.5t-21 -37.5t-42.5 -42q-26 -21 -66 -19.5t-72 29.5q-21 19 -39.5 41.5t-33.5 46.5q-21 35 -17.5 68.5z" />
<glyph unicode="&#xe4f;" horiz-adv-x="862" d="M94 428q0 70 27 131.5t72.5 107t106.5 71.5t130 26q68 0 129 -25.5t107.5 -70.5t74 -106.5t27.5 -133.5q0 -70 -26.5 -131.5t-72 -107t-107.5 -71.5t-132 -26t-131 26.5t-106.5 72t-72 106.5t-26.5 131zM143 428q0 -58 22 -110t60 -91.5t90.5 -62.5t114.5 -23 q61 0 114 23t91 62.5t60 91.5t22 110q0 59 -23 111.5t-62 91.5t-91 61.5t-111 22.5t-111.5 -22.5t-91.5 -61.5t-61.5 -91.5t-22.5 -111.5zM225 428q0 43 16 80.5t43.5 65t65 43.5t80.5 16t81 -16t66 -43.5t44 -65t16 -80.5t-16 -80.5t-44 -65t-66 -43.5t-81 -16t-80.5 16 t-65 43.5t-43.5 65t-16 80.5z" />
<glyph unicode="&#xe50;" horiz-adv-x="602" d="M45 199q0 14 1 28t5 28q19 82 41.5 162.5t60.5 155.5q17 33 40 62.5t54 50.5q26 18 54 19.5t57 -5.5q11 -3 21.5 -5.5t22.5 -0.5q33 6 67 0q20 -2 30 -16.5t16 -31.5q16 -48 26 -97.5t8 -104.5q2 -59 -13 -116.5t-38 -114.5q-20 -48 -48 -88.5t-66 -74.5 q-18 -17 -38.5 -25t-43.5 -14q-35 -10 -70.5 -10t-70.5 17q-55 25 -86.5 72t-29.5 109zM136 236q-2 -29 3 -55.5t22 -49.5q20 -27 44 -41.5t48 -16t47 9.5t42 36q65 83 94 176.5t19 199.5q-3 29 -9.5 57.5t-21.5 60.5q-8 -14 -14.5 -25t-11.5 -22q-17 -37 -31.5 -74.5 t-37.5 -71.5q-11 -17 -24 -27t-33 -12q-8 13 -8.5 24.5t3.5 25.5q7 23 12 46t10.5 46.5t12.5 46t18 43.5q2 4 0 10.5t-3 11.5q-6 -1 -12.5 -1t-10.5 -3q-14 -14 -28 -27.5t-22 -30.5q-17 -32 -31 -65t-26 -67q-19 -51 -32.5 -101t-18.5 -104z" />
<glyph unicode="&#xe51;" horiz-adv-x="851" d="M47 429.5q-3 47.5 7.5 92.5t34.5 79q21 29 49.5 46.5t59.5 31.5t63.5 18t66.5 6q69 3 135 -8.5t132 -32.5q40 -13 73.5 -39t57.5 -60t37 -73.5t13 -79.5q0 -72 -18.5 -139t-47.5 -132q-12 -27 -28.5 -50.5t-39.5 -43.5q-20 -17 -43 -31.5t-52 -17.5q-13 -2 -23.5 1.5 t-16.5 13.5q-6 11 -4 22.5t10 20.5q5 5 9.5 10.5t9.5 9.5q26 15 41.5 38t28.5 49q26 52 40 107t16 114q2 42 -12 79t-47 63q-20 16 -44.5 27.5t-49.5 19.5q-58 19 -118 22t-121 -3q-9 -2 -18.5 -4.5t-18.5 -4.5q-45 -14 -54 -57q-16 -69 0 -129.5t68 -109.5q48 -45 124 -48 q10 26 11.5 50.5t0.5 48.5q-2 29 -26 46q-16 11 -24 29q-10 20 -2.5 37t27.5 27q8 2 11 3q78 36 111 -43q26 -62 21.5 -122.5t-28.5 -120.5q-14 -33 -48.5 -51.5t-74.5 -13.5q-72 8 -132.5 36.5t-105.5 88.5q-27 37 -42.5 83.5t-18.5 94z" />
<glyph unicode="&#xe52;" horiz-adv-x="751" d="M49 886q-2 24 23 30l22 4l22 4q20 3 28 -2.5t13 -25.5q18 -72 30 -145t3 -148v-16q5 8 8.5 12t5.5 9q5 8 9.5 16.5t9.5 16.5q13 28 38.5 45t55 24t59 4.5t51.5 -14.5q14 -7 24.5 -18t21.5 -22q8 -8 14.5 -17.5t14.5 -20.5q9 4 16 7.5t14 6.5q45 21 81 5.5t49 -62.5 q12 -48 15 -99q3 -69 8.5 -137t16.5 -137q4 -26 6.5 -51t4.5 -51q2 -19 -14 -37t-39 -22q-20 -3 -38 -2q-48 6 -95 1t-95 -18q-48 -14 -96 -20t-98 2q-16 2 -32 0t-33 -4q-8 -1 -15.5 -2t-15.5 1q-22 2 -33 13.5t-13 36.5q-4 50 -7 99t-4 100q-1 43 1 86t3 86q3 121 3 244 q0 50 -12.5 97t-25.5 95q-2 6 -3 12.5t-2 13.5zM185 305q1 -26 1 -51.5t2 -51.5q2 -19 4 -37.5t4 -37.5q2 -30 29 -33q33 -5 66.5 -9t66.5 4q35 8 70 18t70 18q24 5 49 9.5t52 9.5v20q-6 78 -12.5 154t-13.5 154q0 8 -2.5 15.5t-4.5 15.5q-9 -28 -29 -37.5t-42 -13.5 q-14 -2 -24 1.5t-18 11t-14 17.5t-11 21q-3 -11 -1 -21q5 -45 -2 -86.5t-29 -80.5q-12 -21 -33.5 -34.5t-45.5 -17.5t-48.5 1.5t-42.5 22.5q-10 9 -18.5 20t-19.5 24q-1 -8 -2 -14t-1 -12zM273.5 450.5q1.5 -31.5 9.5 -59.5t23 -44q14 22 19.5 53.5t4 63.5t-10.5 59.5 t-24 39.5q-12 -21 -17.5 -51t-4 -61.5z" />
<glyph unicode="&#xe53;" horiz-adv-x="724" d="M70 233q-5 80 0.5 159t16.5 158q6 38 25.5 67.5t45.5 50t56 31.5t57 12q53 1 83 -43q4 -5 8 -10.5t9 -13.5q38 25 79 29t82 6q15 2 25 -7q16 -14 29.5 -28t21.5 -34q18 -54 23.5 -108.5t3.5 -110.5l-4 -72l-4 -72q-1 -18 0.5 -36t2.5 -36q1 -9 1.5 -18.5t0.5 -19.5 q-2 -44 -44 -47q-7 -1 -13.5 -0.5t-13.5 1.5q-21 4 -29.5 14t-6.5 31q3 35 6.5 69t5.5 69q2 44 3 87t1 87q0 32 -6 62.5t-16 60.5q-3 7 -6 13.5t-6 12.5q-4 1 -6.5 1.5t-4.5 0.5q-20 0 -31 -0.5t-18.5 -5.5t-13 -15t-13.5 -28q-9 -20 -12.5 -41t0.5 -44q5 -25 -5 -49 q-8 -17 -27 -21.5t-39 1.5q-36 12 -30 52q5 44 -3.5 84t-23.5 80q-3 8 -8 15l-10 14q-31 -10 -49 -29t-27 -46q-12 -36 -16 -73t-6 -75q-1 -13 -1 -26.5t-1 -30.5q7 4 11.5 6t9.5 4q39 22 84 16q48 -6 66 -53q11 -27 12.5 -55t-1.5 -57q-5 -45 -16.5 -86.5t-31.5 -82.5 q-10 -21 -27 -32t-36.5 -14.5t-38 0.5t-31.5 15q-21 17 -35 37.5t-25 43.5q-14 31 -22.5 63t-10.5 67zM161 262q2 -48 12.5 -92.5t49.5 -82.5q10 29 18 57t11 56t0 57t-15 60q-17 -23 -33.5 -38t-42.5 -17z" />
<glyph unicode="&#xe54;" horiz-adv-x="624" d="M45 400q-7 87 24.5 157t96.5 127q14 12 29 19t34 6q32 -2 64 -4.5t64 -4.5q34 -2 65 5t57 30q8 8 15.5 16t16.5 16t21 9.5t23 -2.5t20 -12t11 -19q2 -6 0.5 -14t-5.5 -13q-20 -24 -44.5 -42t-54.5 -29q-51 -19 -101.5 -20.5t-101.5 12.5q-19 5 -34.5 1.5t-30.5 -18.5 q-35 -36 -53.5 -76.5t-19.5 -91.5q11 18 19.5 33t17.5 29q19 26 42.5 42t58.5 15q20 -1 34.5 -9t27.5 -22q4 -5 6 -11.5t3 -12.5q3 -37 -9 -69t-35 -61q-6 -7 -17 -11t-21 -5q-14 -1 -28.5 2.5t-31.5 6.5q-10 -20 -9.5 -42.5t7.5 -45.5q5 -17 12 -32.5t15 -31.5 q17 -36 35.5 -71.5t37.5 -71.5q10 -19 9 -34.5t-13 -24.5q-19 -13 -40.5 -12t-35.5 17q-5 6 -9 12.5t-8 14.5q-16 33 -36 63t-40 62q-22 34 -40 69.5t-34 72.5q-8 17 -10 36.5t-4 39.5z" />
<glyph unicode="&#xe55;" horiz-adv-x="1000" d="M64 471q-2 85 41 159q11 17 25 30t31 22q26 14 52.5 26t56.5 14q36 3 67 -10t58 -36q11 -9 23 -18.5t24 -18.5q14 -10 25 4q20 26 36.5 53t21.5 60q1 5 0 10t-2 11q-8 -2 -15 -4t-14 -2q-21 -1 -42.5 -1.5t-42.5 0.5q-17 2 -29 10.5t-23 21.5q-19 26 -6 54q10 23 27 38.5 t37 23.5t42 8.5t42 -6.5q28 -11 50 -27q11 -8 20.5 -9t21.5 4q58 23 114.5 48t109.5 57q35 22 69.5 43.5t69.5 41.5q20 12 40 13q21 2 30 -5t15 -27q9 -30 -21 -48q-7 -5 -15 -7q-23 -5 -42.5 -16.5t-38.5 -24.5q-8 -6 -17 -11t-17 -10q-59 -34 -119 -62.5t-124 -50.5 q-8 -2 -14.5 -5.5t-13.5 -6.5q-1 -3 -2 -5.5t-1 -4.5q3 -29 -1 -56t-14 -52t-24 -48.5t-31 -45.5q-12 -16 -28.5 -27t-37.5 -16q-10 -2 -19 -4.5t-20 -4.5q1 -2 1 -4.5t2 -3.5q14 -16 18 -33.5t0.5 -34t-12.5 -31t-22 -26.5t-30.5 -19.5t-36.5 -10t-38 1.5t-35 16l-8 4t-9 6 q-11 -21 -15.5 -42t-4.5 -44q-1 -38 10 -73t27 -69q15 -32 31.5 -62t42.5 -56q9 -8 13.5 -17.5t-0.5 -22.5q-6 -14 -17.5 -21t-24.5 -9q-10 -1 -21 2.5t-19 9.5q-60 48 -103.5 106t-74.5 127q-25 54 -36 110t-13 114zM149.5 467q1.5 -46 10.5 -95q15 34 27.5 65.5t27.5 60.5 q10 19 21 36.5t25.5 32t33 24t42.5 11.5q1 0 1 1t1 1q-17 30 -42.5 39t-55.5 -4q-3 -1 -5.5 -2.5t-4.5 -1.5q-32 -7 -46.5 -28t-22.5 -48q-14 -46 -12.5 -92zM322 513q7 -3 10.5 -10.5t6.5 -14.5t8.5 -12.5t17.5 -5.5q5 18 2.5 26.5t-13.5 17.5q-7 5 -14 7.5t-18 -8.5z M451 847q4 -1 7.5 -1t7.5 -1q1 2 1 5q-3 1 -6.5 2t-6.5 2q-1 0 -1.5 -2.5t-1.5 -4.5z" />
<glyph unicode="&#xe56;" horiz-adv-x="464" d="M-366 449q11 68 51 113.5t100 74.5q26 13 52 25.5t52 24.5q63 28 133 13q13 -3 25 -6.5t26 -7.5q23 27 43.5 54.5t46.5 48.5q51 41 80 95.5t54 112.5q24 57 88 49q21 -2 41.5 -6.5t41.5 -8.5q30 -6 46.5 -25t19.5 -47q3 -26 -6.5 -50t-32.5 -42q-37 -31 -75 -61t-73 -62 q-16 -14 -26.5 -32.5t-21.5 -35.5q-8 -11 -14.5 -22t-14.5 -22q-41 -51 -42.5 -105t25.5 -111q10 -21 13.5 -43.5t5.5 -45.5q4 -44 15.5 -86.5t22.5 -85.5q3 -11 9 -22t8 -22q8 -30 -1 -51t-35 -38q-13 -7 -25.5 -13t-26.5 -11q-31 -10 -59.5 -4.5t-49 22.5t-31.5 43.5 t-6 59.5q4 32 5.5 62.5t-11.5 60.5q-4 9 -10 16t-11 15q-3 -1 -6.5 -1.5t-6.5 -1.5q0 -23 0.5 -45.5t-0.5 -45.5q-1 -24 -2 -47.5t-6 -46.5q-2 -11 -9.5 -23.5t-17.5 -17.5q-33 -16 -72 -26.5t-78.5 -10.5t-78.5 14.5t-73 47.5q-13 12 -25 26t-19 31q-67 156 -38 323z M-174 272q6 -25 16.5 -47.5t39.5 -41.5q-2 18 -2.5 30t-2.5 23q-2 14 -3.5 21.5t-6.5 11t-14.5 3.5h-26.5zM-91 508q28 -25 56 -50.5t57 -52.5q-1 34 -17 58.5t-33 48.5q-16 23 -28.5 22t-34.5 -26z" />
<glyph unicode="&#xe57;" horiz-adv-x="823" d="M37 245q-3 39 0 77q5 81 30 157t60 148q7 14 16 26.5t19 24.5q13 18 30 29t40 11q7 -1 13.5 2t14.5 6q-4 28 6 51t25 45q11 16 20 33t23 28q21 15 45 27.5t50 17.5q55 12 105 -3t92 -54q92 -88 118.5 -195t-2.5 -228q-17 -69 -37.5 -137t-39.5 -137q-5 -16 -6.5 -32 t-3.5 -33q-2 -15 -10.5 -28.5t-21 -23t-27 -14.5t-29.5 -3q-29 5 -50 26.5t-15 62.5q14 93 14 185t-14 186q-1 5 -2.5 9t-3.5 11q-17 -9 -22.5 -23.5t-10.5 -27.5q-9 -23 -15 -36.5t-13 -22.5t-17.5 -17.5t-29.5 -21.5q-2 -35 -2.5 -71t-5.5 -71q-3 -34 -9 -68t-13 -67 q-11 -52 -36.5 -72.5t-77.5 -21.5q-13 -1 -26.5 1t-25.5 7q-27 12 -51 27t-43.5 34t-33 43.5t-18.5 55.5q-6 38 -9 77zM172.5 259.5q3.5 -45.5 18 -82t42.5 -49.5q2 8 5 16t4 17l6 74t3 75q0 23 -4 45.5t-9 45.5q-4 14 -13 26t-29 11q-14 -37 -20.5 -85t-3 -93.5zM224 528 q14 3 24 4t10 3q1 8 -0.5 16.5t-3.5 16.5q-2 0 -4.5 0.5t-4.5 0.5l-8.5 -17t-12.5 -24zM321 715q18 -26 34.5 -50t33.5 -50q13 11 25 22.5t25 20.5t27.5 15t32.5 6q33 -1 62 -9t47 -42q-8 42 -18.5 82.5t-36.5 75.5q-30 42 -68.5 46t-74.5 -31q-23 -21 -44.5 -42.5 t-44.5 -43.5z" />
<glyph unicode="&#xe58;" horiz-adv-x="999" d="M56 71q-13 139 12 269.5t76 258.5q12 30 28.5 50t38 32t48.5 18.5t59 9.5q21 2 42.5 -3t42.5 -8q35 -5 68.5 -9.5t67.5 -9.5q48 -7 90 0t80 25t72.5 44.5t66.5 58.5q80 83 157 166.5t157 166.5q26 27 54.5 51.5t59.5 43.5q22 14 49 18.5t53 12.5q8 -14 10 -25t0 -20.5 t-8.5 -18.5t-14.5 -18q-83 -95 -164.5 -190.5t-163.5 -192.5q-38 -45 -78.5 -87.5t-88.5 -77.5q-11 -8 -22 -13.5t-22 -12.5t-20.5 -13.5t-19.5 -12.5l4 -10q43 -15 74 -39.5t51 -56t31.5 -70t15.5 -81.5q3 -32 4 -65t-3 -65q-8 -61 -36 -110.5t-85 -75.5t-106.5 -17 t-84.5 66q-17 26 -29 54.5t-23 57.5q-20 51 -53.5 66t-83.5 -9q-23 -11 -44.5 -24.5t-41.5 -30.5q-42 -32 -81 -66.5t-80 -68.5q-42 -36 -94 -33q-29 2 -46 19t-19 46zM213 247q0 -6 1.5 -12.5t3.5 -14.5q8 4 12.5 6t8.5 5q8 6 16.5 12.5t16.5 13.5q61 52 130 83t151 33 q71 1 126.5 -39t78.5 -109q5 -14 11 -27.5t12 -27.5h11q3 12 7.5 23.5t2.5 23.5q-3 38 -6.5 76.5t-12.5 76.5q-5 20 -11 31.5t-15.5 17t-23.5 5.5t-35 -3q-56 -8 -80.5 18.5t-12.5 84.5q1 4 1.5 8t2.5 9q-65 7 -127 13.5t-124 12.5q-21 2 -33.5 1.5t-21 -6t-15 -17 t-14.5 -31.5q-26 -64 -41 -131t-20 -136z" />
<glyph unicode="&#xe59;" horiz-adv-x="1138" d="M69 330q-1 112 34 224q26 82 90 121.5t156 24.5q27 -5 54.5 -15t59.5 -20q14 10 29.5 22t32.5 21t36.5 14.5t42.5 2.5q22 -3 40.5 -12t34 -22.5t29.5 -30.5l28 -34q11 12 20.5 21.5t18.5 20.5q56 70 143 58q22 -2 36 5t26 24q32 47 64 92t67 89q30 37 62.5 71t64.5 69 q15 17 32.5 16.5t36.5 -10.5q22 -11 34 -21t14.5 -21.5t-4.5 -25t-23 -32.5q-121 -140 -214 -301q-29 -52 -73.5 -73.5t-100.5 -15.5q-32 4 -49 -8t-30 -36l-6 -10l-6 -10q-22 -45 -58.5 -58t-80.5 -4q-21 4 -40 17.5t-40 24.5q-1 -5 -2 -12t0 -15q9 -84 21.5 -166.5 t45.5 -161.5q22 -55 -14 -83q-28 -23 -52 -26t-52 13q-6 3 -12 7t-12 7q-20 8 -28.5 23.5t-10.5 35.5q-8 58 -16.5 115.5t-19.5 114.5q-22 102 -91 186l-16.5 16.5t-18.5 13.5q-77 44 -92 -49q9 -2 18 -3l18 -2q55 -5 80.5 -36.5t23.5 -84.5q-5 -97 -30 -187.5t-62 -178.5 q-8 -19 -27.5 -30t-42 -13.5t-44.5 5t-37 24.5q-16 18 -28.5 40t-20.5 45q-38 112 -39 224zM221.5 304.5q1.5 -28.5 12.5 -63.5q10 36 14.5 67.5t-1.5 69.5q-9 -7 -16 -10.5t-7 -6.5q-4 -28 -2.5 -56.5z" />
<glyph unicode="&#xe5a;" horiz-adv-x="1362" d="M719 805q4 22 15.5 41.5t28.5 34t38 20.5q9 2 15.5 5.5t14.5 6.5l24 10q12 3 25 7t24 6q20 3 39 -1.5t32 -27.5l-1 1q11 -21 16 -45.5t-5 -48.5q-5 -9 -12 -21q12 8 25 16t27 18l-1 -1q17 14 28 32q5 9 11 16q13 17 24.5 27t25.5 10q11 0 24.5 -6.5t36.5 -19.5 q1 -27 1 -59.5v-59.5q0 -80 -2 -159.5t-5 -159.5q-6 -158 -6 -315v-112q-17 -8 -29 -12.5t-20 -4.5q-22 0 -28.5 13.5t-5.5 42.5q2 44 4 86.5t4 86.5l9 330v-1q2 59 2.5 117t1.5 117v3q-6 -5 -11.5 -10t-11.5 -10q-40 -31 -86 -57t-97 -39q-23 -6 -43 -4.5t-38.5 8 t-35.5 16.5t-33 21q-8 7 -14 18t-9 21q-6 21 -2 43zM776 760q1 7 1.5 13t0.5 10l2 25l6 22q2 5 4 9t0 8l31 -8q-11 -10 -19.5 -25t-7.5 -26q1 -4 1.5 -7t3.5 -3zM780 808v3q-2 -5 0 -3zM837 714q17 39 23 56.5t4 25.5l34 13l17 6q2 -7 19.5 -14.5t47.5 -10.5zM841 651l33 65 q1 6 7 14l1 5l4 1q12 15 33 36l1 -40q5 -13 5 -18l27 -67l-62 2q-3 0 -5.5 -0.5t-7.5 1.5h-8t-12 0.5t-11 0.5h-5zM843 773q9 0 14 1q2 -8 4 -14zM855 783.5q0 -4.5 2 -9.5q13 2 23.5 9.5t17.5 18t10 23.5t1 26q-3 13 -13 9q-19 -6 -30 -24.5t-11 -42.5v-9.5z" />
<glyph unicode="&#xe5b;" horiz-adv-x="1352" d="M94 432q0 72 14.5 130.5t40.5 100.5t63.5 64.5t84.5 22.5q39 0 70 -15.5t52.5 -44t33 -68t11.5 -86.5q0 -89 -40 -143q-34 -43 -80 -43q-20 0 -37.5 9t-30 25t-19.5 37t-7 44q0 22 6.5 42.5t19 36t30 25t38.5 9.5q32 0 53 -21q0 63 -28.5 98t-71.5 35q-30 0 -56 -17 t-44.5 -47.5t-29 -73.5t-10.5 -95q0 -66 13.5 -119t37.5 -90.5t57.5 -57.5t72.5 -20q46 0 85.5 28t68.5 79t46 121.5t17 155.5v24l-2 36l31 39l102 -227l72 215l71 -190l64 155l72 -153l63 116l64 -98l20 41h234l-50 -61h-145l-61 -80l-58 78l-71 -130l-64 134l-76 -170 l-59 172l-66 -197l-88 191q-10 -80 -35 -143.5t-61 -108t-80.5 -68t-93.5 -23.5q-50 0 -93.5 24t-76 67t-52 103t-22.5 132zM301 465q0 -25 12 -41t29 -16q20 0 31.5 16t11.5 41t-11.5 41t-31.5 16q-17 0 -29 -16t-12 -41z" />
<glyph unicode="&#x2000;" horiz-adv-x="1197" />
<glyph unicode="&#x2001;" horiz-adv-x="2394" />
<glyph unicode="&#x2002;" horiz-adv-x="1197" />
<glyph unicode="&#x2003;" horiz-adv-x="2394" />
<glyph unicode="&#x2004;" horiz-adv-x="798" />
<glyph unicode="&#x2005;" horiz-adv-x="598" />
<glyph unicode="&#x2006;" horiz-adv-x="399" />
<glyph unicode="&#x2007;" horiz-adv-x="399" />
<glyph unicode="&#x2008;" horiz-adv-x="299" />
<glyph unicode="&#x2009;" horiz-adv-x="478" />
<glyph unicode="&#x200a;" horiz-adv-x="133" />
<glyph unicode="&#x200b;" />
<glyph unicode="&#x2010;" horiz-adv-x="1053" d="M94 463v61h862v-61h-862z" />
<glyph unicode="&#x2011;" horiz-adv-x="1053" d="M94 463v61h862v-61h-862z" />
<glyph unicode="&#x2012;" horiz-adv-x="1053" d="M94 463v61h862v-61h-862z" />
<glyph unicode="&#x2013;" horiz-adv-x="862" d="M0 463v61h862v-61h-862z" />
<glyph unicode="&#x2014;" horiz-adv-x="1292" d="M0 463v61h1292v-61h-1292z" />
<glyph unicode="&#x2018;" horiz-adv-x="395" d="M96 934q0 86 41 143.5t131 89.5q6 2 15 2q16 0 16 -10v-4q0 -12 -14 -20q-28 -15 -47.5 -27t-32.5 -24.5t-21.5 -26.5t-13.5 -33h18q18 0 34 -7t28.5 -19t20 -28.5t7.5 -35.5q0 -18 -7 -34.5t-19 -29t-28.5 -19.5t-35.5 -7q-39 0 -65.5 26.5t-26.5 63.5z" />
<glyph unicode="&#x2019;" horiz-adv-x="395" d="M96 856q0 14 17 23q27 15 46 27t32 24t21 25.5t13 31.5h-16q-39 0 -65.5 26.5t-26.5 65.5q0 37 26.5 63.5t65.5 26.5q18 0 34 -7t28.5 -19.5t20 -29t7.5 -34.5q0 -88 -40 -144t-132 -89q-6 -2 -12 -2q-19 0 -19 12z" />
<glyph unicode="&#x201a;" d="M-1036 1024q0 36 9.5 73t35.5 71q23 31 55 57.5t70 46.5q22 11 47 16t52 5q31 0 58 -6q29 -5 51.5 -14.5t42.5 -20.5q9 -5 17.5 -9t17.5 -8q14 -6 27.5 -12.5t27.5 -12.5q20 -9 40 -17.5t40 -16.5q17 -6 28 -9t22 -7l15 -4q7 20 12 41.5t5 43.5q0 35 -14 62 q-8 15 -3 21.5t28 10.5q41 10 62 -20q12 -18 17.5 -36.5t5.5 -35.5q0 -16 -3 -31q-2 -16 -5 -31.5t-6 -31.5q-2 -11 -4 -21t-4 -21q-4 -21 -15.5 -36t-43.5 -17h8q-1 -5 -1 -7v-4q-3 -24 -15 -32.5t-44 -10.5q-28 -2 -57.5 -2.5t-57.5 -0.5q-78 0 -156 3q-9 0 -22.5 0.5 t-22.5 0.5q-15 1 -29.5 1h-29.5q-24 0 -48 -0.5t-48 -1.5h1q-11 -1 -23 -1.5t-23 -0.5q-8 -1 -19.5 -4t-22.5 -7q-15 -4 -29 -3.5t-25 5t-17.5 13.5t-6.5 22zM-940 1077q3 -1 8 -1h11q72 -2 143 -3t143 -1q38 -1 75.5 0t75.5 3q10 0 19.5 0.5t19.5 0.5q3 0 7 0.5t9 1.5h4 t4 1h-8q-8 8 -11 10t-5 3h5q-2 0 -5 1t-4 1l-36 15q-23 9 -43.5 18.5t-34.5 17.5h1q-71 40 -140 64q-35 12 -65 12q-42 0 -85.5 -27.5t-72.5 -75.5q-5 -8 -8 -18t4 -23h-11z" />
<glyph unicode="&#xf702;" d="M-1036 1024q0 36 9.5 73t35.5 71q23 31 55 57.5t70 46.5q22 11 47 16t52 5q31 0 58 -6q29 -5 51.5 -14.5t42.5 -20.5q9 -5 17.5 -9t17.5 -8q14 -6 27.5 -12.5t27.5 -12.5q20 -9 40 -17.5t40 -16.5q17 -6 28 -9t22 -7l15 -4q7 20 12 41.5t5 43.5q0 35 -14 62 q-8 15 -3 21.5t28 10.5q41 10 62 -20q12 -18 17.5 -36.5t5.5 -35.5q0 -16 -3 -31q-2 -16 -5 -31.5t-6 -31.5q-2 -11 -4 -21t-4 -21q-4 -21 -15.5 -36t-43.5 -17h8q-1 -5 -1 -7v-4q-3 -24 -15 -32.5t-44 -10.5q-28 -2 -57.5 -2.5t-57.5 -0.5q-78 0 -156 3q-9 0 -22.5 0.5 t-22.5 0.5q-15 1 -29.5 1h-29.5q-24 0 -48 -0.5t-48 -1.5h1q-11 -1 -23 -1.5t-23 -0.5q-8 -1 -19.5 -4t-22.5 -7q-15 -4 -29 -3.5t-25 5t-17.5 13.5t-6.5 22zM-940 1077q3 -1 8 -1h11q72 -2 143 -3t143 -1q38 -1 75.5 0t75.5 3q10 0 19.5 0.5t19.5 0.5q3 0 7 0.5t9 1.5h4 t4 1h-8q-8 8 -11 10t-5 3h5q-2 0 -5 1t-4 1l-36 15q-23 9 -43.5 18.5t-34.5 17.5h1q-71 40 -140 64q-35 12 -65 12q-42 0 -85.5 -27.5t-72.5 -75.5q-5 -8 -8 -18t4 -23h-11z" />
<glyph unicode="&#x201e;" d="M-1000 1100q14 49 43 85t67 66q21 16 43 25t45.5 14.5t47.5 7.5t48 5q8 1 17 0.5t23 -0.5q2 34 2 66t-4 64q-3 23 0 47q5 24 25 36t44 7q32 -8 52.5 -27t26.5 -51q5 -29 24.5 -42.5t43.5 -28.5q-5 21 -9 38l-8 34q-2 8 -3 16.5t-1 16.5q-1 22 6.5 37.5t20 23t30 7.5 t37.5 -9q31 -13 41.5 -35t8.5 -61q-2 -26 -2 -51.5v-51.5v-102.5t1 -102.5q0 -15 1.5 -29.5t3.5 -28.5q6 -33 -12 -55t-52 -20q-20 2 -37 -0.5t-34 -11.5q-33 -18 -60 12q0 1 -2 3q-11 18 -24 26.5t-28 11.5t-31.5 1.5t-32.5 -3.5q-48 -7 -95 -14t-95 -13q-53 -6 -106 -6 q-43 0 -60.5 26t-5.5 67zM-870 1115q2 -3 4 -9q63 11 126.5 22t129.5 22q-26 35 -57.5 43.5t-66.5 4.5q-45 -4 -78.5 -25.5t-57.5 -57.5z" />
<glyph unicode="&#xf704;" d="M-1000 1100q14 49 43 85t67 66q21 16 43 25t45.5 14.5t47.5 7.5t48 5q8 1 17 0.5t23 -0.5q2 34 2 66t-4 64q-3 23 0 47q5 24 25 36t44 7q32 -8 52.5 -27t26.5 -51q5 -29 24.5 -42.5t43.5 -28.5q-5 21 -9 38l-8 34q-2 8 -3 16.5t-1 16.5q-1 22 6.5 37.5t20 23t30 7.5 t37.5 -9q31 -13 41.5 -35t8.5 -61q-2 -26 -2 -51.5v-51.5v-102.5t1 -102.5q0 -15 1.5 -29.5t3.5 -28.5q6 -33 -12 -55t-52 -20q-20 2 -37 -0.5t-34 -11.5q-33 -18 -60 12q0 1 -2 3q-11 18 -24 26.5t-28 11.5t-31.5 1.5t-32.5 -3.5q-48 -7 -95 -14t-95 -13q-53 -6 -106 -6 q-43 0 -60.5 26t-5.5 67zM-870 1115q2 -3 4 -9q63 11 126.5 22t129.5 22q-26 35 -57.5 43.5t-66.5 4.5q-45 -4 -78.5 -25.5t-57.5 -57.5z" />
<glyph unicode="&#x2020;" d="M-508 1162q0 26 0.5 51t1.5 50v11q0 3 1 6.5t8 12.5h-3q3 8 14 10t26 -2q18 0 21 -5q12 -18 12 -23v-73q1 -21 2.5 -42.5t4.5 -43.5q3 -23 7.5 -49.5t9.5 -50.5q2 -13 -8 -20t-36 -5l18 -3q-2 -1 -5 -2q-3 -2 -16 -7q-20 -5 -35 1t-15 22q2 17 1 32.5t-2 31.5q0 7 -1 14 t-1 13q0 17 -3 35q-1 8 -1.5 17.5t-0.5 18.5z" />
<glyph unicode="&#xf705;" d="M-508 1162q0 26 0.5 51t1.5 50v11q0 3 1 6.5t8 12.5h-3q3 8 14 10t26 -2q18 0 21 -5q12 -18 12 -23v-73q1 -21 2.5 -42.5t4.5 -43.5q3 -23 7.5 -49.5t9.5 -50.5q2 -13 -8 -20t-36 -5l18 -3q-2 -1 -5 -2q-3 -2 -16 -7q-20 -5 -35 1t-15 22q2 17 1 32.5t-2 31.5q0 7 -1 14 t-1 13q0 17 -3 35q-1 8 -1.5 17.5t-0.5 18.5z" />
<glyph unicode="&#x2021;" d="M-651 1036l5 8l12 21q11 17 21.5 34t21.5 35q-18 -2 -33.5 2.5t-17.5 14.5h1q-1 7 0 11l21 26l14 14t23 21q4 1 8 4q4 2 9 5l10 6h-1q19 12 44 -1l6 -3h-3q14 -3 21 -9.5t2 -13.5q-2 -2 -3.5 -5.5t-7.5 -12.5h1l-12 -21l-18 -31l43 34l30 25l19 12h-1l11 8q2 1 7 6l9 9 l20 14l8 5l21 17l13 10q8 6 23 4t27 -7q2 -2 3 -7t-1 -7q-2 0 -3 -1q-9 -2 -13.5 -5t-8.5 -6l-46 -30l-18 -14h3l-8 -4h2l-6 -4t-10 -6h2l-22 -18q-2 0 -6 -2.5t-6 -3.5h1l-13 -12l-22 -16l-21 -16l-14 -11q-5 -4 -9.5 -7.5t-12.5 -11.5q-12 -11 -22.5 -22.5t-21.5 -23.5 l-10 -11l-12 -12l-14 -2h11l-1 -1q-20 -10 -32 -9.5t-18 8.5h1q-8 8 -5 13h-1zM-603 1157q1 2 3 4l43 40h-1q2 2 3 4.5t0 11.5h23l-14 -7h1q-5 -3 -14 -13.5t-18 -23.5q-3 -3 -6 -12q-1 -1 -1 -3v-3h-15q-5 0 -4 2zM-573 1105q0 -1 1 0h-1zM-532 1217h3q0 1 -1 1z" />
<glyph unicode="&#xf706;" d="M-651 1036l5 8l12 21q11 17 21.5 34t21.5 35q-18 -2 -33.5 2.5t-17.5 14.5h1q-1 7 0 11l21 26l14 14t23 21q4 1 8 4q4 2 9 5l10 6h-1q19 12 44 -1l6 -3h-3q14 -3 21 -9.5t2 -13.5q-2 -2 -3.5 -5.5t-7.5 -12.5h1l-12 -21l-18 -31l43 34l30 25l19 12h-1l11 8q2 1 7 6l9 9 l20 14l8 5l21 17l13 10q8 6 23 4t27 -7q2 -2 3 -7t-1 -7q-2 0 -3 -1q-9 -2 -13.5 -5t-8.5 -6l-46 -30l-18 -14h3l-8 -4h2l-6 -4t-10 -6h2l-22 -18q-2 0 -6 -2.5t-6 -3.5h1l-13 -12l-22 -16l-21 -16l-14 -11q-5 -4 -9.5 -7.5t-12.5 -11.5q-12 -11 -22.5 -22.5t-21.5 -23.5 l-10 -11l-12 -12l-14 -2h11l-1 -1q-20 -10 -32 -9.5t-18 8.5h1q-8 8 -5 13h-1zM-603 1157q1 2 3 4l43 40h-1q2 2 3 4.5t0 11.5h23l-14 -7h1q-5 -3 -14 -13.5t-18 -23.5q-3 -3 -6 -12q-1 -1 -1 -3v-3h-15q-5 0 -4 2zM-573 1105q0 -1 1 0h-1zM-532 1217h3q0 1 -1 1z" />
<glyph unicode="&#x2022;" horiz-adv-x="702" d="M94 389q0 52 20.5 99t56 81.5t82 55t97.5 20.5q52 0 99 -20.5t81.5 -55t55 -81.5t20.5 -99q0 -51 -20.5 -97.5t-55 -82t-81.5 -56t-99 -20.5t-98.5 20.5t-81.5 55t-55.5 81t-20.5 99.5z" />
<glyph unicode="&#x2026;" horiz-adv-x="1079" d="M94 49q0 23 17 39t39 16q23 0 39 -16t16 -39q0 -20 -16 -36.5t-39 -16.5q-22 0 -39 16.5t-17 36.5zM485 49q0 23 16.5 39t39.5 16q20 0 37.5 -16t17.5 -39q0 -20 -16 -36.5t-39 -16.5t-39.5 16.5t-16.5 36.5zM874 49q0 23 17 39t39 16q23 0 39 -16t16 -39 q0 -20 -16 -36.5t-39 -16.5q-22 0 -39 16.5t-17 36.5z" />
<glyph unicode="&#x202f;" horiz-adv-x="478" />
<glyph unicode="&#x2030;" d="M-590 1141h1q-2 2 0 7.5t6 8.5h-2q2 2 18 2h6t6 -1q10 -6 18 -6h7.5t5.5 -1l34 -4q1 0 5 2h-15q2 8 2 12q2 13 3 25.5t2 25.5t0 27q0 7 -2 11q0 1 -0.5 -0.5t-0.5 0.5h1q-2 3 0 8t6 9h-1q5 8 19.5 6.5t19.5 -6.5h-2q8 -6 10 -9.5t2 -5.5q1 -32 -3 -65q-2 -10 -2.5 -19.5 t-1.5 -19.5v-5h-13q4 -2 8 -2l30 -8q3 -2 6 -2q22 -6 41 -6q8 0 17.5 1t18.5 3q-3 0 1 2h3.5t4.5 1h-4q12 5 20.5 5t14.5 -9h-1q1 -2 2 -2.5t2 -1.5q5 -11 -16 -14q-6 -2 -9 -2q-2 -1 -6 -1h-6q-8 -2 -18 -2h-18h-16.5t-16.5 1q-28 2 -44 9h3q-2 0 -3 0.5t-3 0.5v-28 q0 -13 1 -26t6 -28q-4 5 -21 2q-33 -8 -35 12q-1 17 -1.5 32.5t-0.5 32.5v11h10l-6 2q-14 2 -28 3t-27 2q-4 1 -8 0q-17 0 -22.5 2.5t-7.5 7.5z" />
<glyph unicode="&#xf708;" d="M-590 1141h1q-2 2 0 7.5t6 8.5h-2q2 2 18 2h6t6 -1q10 -6 18 -6h7.5t5.5 -1l34 -4q1 0 5 2h-15q2 8 2 12q2 13 3 25.5t2 25.5t0 27q0 7 -2 11q0 1 -0.5 -0.5t-0.5 0.5h1q-2 3 0 8t6 9h-1q5 8 19.5 6.5t19.5 -6.5h-2q8 -6 10 -9.5t2 -5.5q1 -32 -3 -65q-2 -10 -2.5 -19.5 t-1.5 -19.5v-5h-13q4 -2 8 -2l30 -8q3 -2 6 -2q22 -6 41 -6q8 0 17.5 1t18.5 3q-3 0 1 2h3.5t4.5 1h-4q12 5 20.5 5t14.5 -9h-1q1 -2 2 -2.5t2 -1.5q5 -11 -16 -14q-6 -2 -9 -2q-2 -1 -6 -1h-6q-8 -2 -18 -2h-18h-16.5t-16.5 1q-28 2 -44 9h3q-2 0 -3 0.5t-3 0.5v-28 q0 -13 1 -26t6 -28q-4 5 -21 2q-33 -8 -35 12q-1 17 -1.5 32.5t-0.5 32.5v11h10l-6 2q-14 2 -28 3t-27 2q-4 1 -8 0q-17 0 -22.5 2.5t-7.5 7.5z" />
<glyph unicode="&#x2039;" d="M-210 1173q0 26 0.5 51t1.5 50v11q0 3 1 6.5t8 12.5h-3q3 8 14 10t26 -2q18 0 21 -5q12 -18 12 -23v-73q1 -21 2.5 -42.5t4.5 -43.5q3 -23 7.5 -49.5t9.5 -50.5q2 -13 -8 -20t-36 -5l18 -3q-2 -1 -5 -2q-3 -2 -16 -7q-20 -5 -35 1t-15 22q2 17 1 32.5t-2 31.5q0 7 -1 14 t-1 13q0 17 -3 35q-1 8 -1.5 17.5t-0.5 18.5z" />
<glyph unicode="&#xf70a;" d="M-210 1173q0 26 0.5 51t1.5 50v11q0 3 1 6.5t8 12.5h-3q3 8 14 10t26 -2q18 0 21 -5q12 -18 12 -23v-73q1 -21 2.5 -42.5t4.5 -43.5q3 -23 7.5 -49.5t9.5 -50.5q2 -13 -8 -20t-36 -5l18 -3q-2 -1 -5 -2q-3 -2 -16 -7q-20 -5 -35 1t-15 22q2 17 1 32.5t-2 31.5q0 7 -1 14 t-1 13q0 17 -3 35q-1 8 -1.5 17.5t-0.5 18.5z" />
<glyph unicode="&#x203a;" d="M-393 1376q0 18 0.5 36t0.5 35v7q0 2 1 4.5t6 9.5h-2q2 5 9.5 6.5t17.5 -1.5q14 0 15 -3q8 -12 8 -16v-51q1 -30 6 -60q3 -33 11 -70q2 -8 -5.5 -13.5t-24.5 -3.5l12 -2q-1 -1 -3 -2t-4.5 -1.5t-7.5 -2.5q-13 -4 -23.5 0.5t-10.5 15.5q1 11 0.5 22t-1.5 22q0 5 -0.5 9.5 t-0.5 9.5q0 12 -3 24q0 6 -0.5 12.5t-0.5 12.5z" />
<glyph unicode="&#xf713;" d="M-393 1376q0 18 0.5 36t0.5 35v7q0 2 1 4.5t6 9.5h-2q2 5 9.5 6.5t17.5 -1.5q14 0 15 -3q8 -12 8 -16v-51q1 -30 6 -60q3 -33 11 -70q2 -8 -5.5 -13.5t-24.5 -3.5l12 -2q-1 -1 -3 -2t-4.5 -1.5t-7.5 -2.5q-13 -4 -23.5 0.5t-10.5 15.5q1 11 0.5 22t-1.5 22q0 5 -0.5 9.5 t-0.5 9.5q0 12 -3 24q0 6 -0.5 12.5t-0.5 12.5z" />
<glyph unicode="&#x205f;" horiz-adv-x="598" />
<glyph unicode="&#x20ac;" horiz-adv-x="1110" d="M444 325q4 40 18.5 76.5t31.5 72.5q12 26 25.5 51t27.5 54q-10 3 -18 5.5t-16 5.5q-29 11 -37 29t3 47q14 35 25 70.5t24 70.5q7 18 18 35t26 30t34 19.5t43 3.5q27 -3 54.5 -3.5t52.5 -9.5q23 -8 43 -8t37.5 6.5t33 18.5t30.5 27q17 16 33.5 19.5t36.5 -0.5 q15 -3 25.5 -11.5t14 -19t0.5 -22.5t-15 -22q-24 -21 -48.5 -39t-51.5 -29.5t-57.5 -14t-64.5 8.5q-17 5 -35 8.5t-36 6.5q-23 4 -34 -3.5t-20 -30.5q4 -4 5 -4q57 -3 106 -25t98 -46q15 -8 27.5 -20.5t21.5 -28.5t13.5 -34.5t2.5 -37.5q-4 -39 -10 -77.5t-12 -77.5 q-2 -10 -6 -19l-8 -18q-14 -34 -27.5 -67.5t-26.5 -67.5q-3 -7 -3.5 -15t0.5 -16q3 -43 -29 -72q-20 -18 -36 -37t-21 -48q-3 -22 -23.5 -32.5t-46.5 -9.5q-17 0 -34.5 4t-27.5 24q-11 22 -14 42.5t12 44.5q20 32 21 69t-2 75l-21 -24q-15 -20 -39 -26.5t-48 -3t-44 16.5 t-26 33q-8 21 -6 46zM543 316q35 54 60.5 108.5t33.5 121.5q-17 -16 -35 -46.5t-32.5 -65t-22 -67t-4.5 -51.5zM756.5 441.5q-4.5 -40.5 1.5 -85.5q14 23 25.5 58.5t17.5 71.5t6.5 67.5t-7.5 46.5q-9 -20 -19 -39t-14 -39q-6 -40 -10.5 -80.5z" />
<glyph unicode="&#xf700;" horiz-adv-x="1110" d="M444 325q4 40 18.5 76.5t31.5 72.5q12 26 25.5 51t27.5 54q-10 3 -18 5.5t-16 5.5q-29 11 -37 29t3 47q14 35 25 70.5t24 70.5q7 18 18 35t26 30t34 19.5t43 3.5q27 -3 54.5 -3.5t52.5 -9.5q23 -8 43 -8t37.5 6.5t33 18.5t30.5 27q17 16 33.5 19.5t36.5 -0.5 q15 -3 25.5 -11.5t14 -19t0.5 -22.5t-15 -22q-24 -21 -48.5 -39t-51.5 -29.5t-57.5 -14t-64.5 8.5q-17 5 -35 8.5t-36 6.5q-23 4 -34 -3.5t-20 -30.5q4 -4 5 -4q57 -3 106 -25t98 -46q15 -8 27.5 -20.5t21.5 -28.5t13.5 -34.5t2.5 -37.5q-4 -39 -10 -77.5t-12 -77.5 q-2 -10 -6 -19l-8 -18q-14 -34 -27.5 -67.5t-26.5 -67.5q-3 -7 -3.5 -15t0.5 -16q3 -43 -29 -72q-20 -18 -36 -37t-21 -48q-3 -22 -23.5 -32.5t-46.5 -9.5q-17 0 -34.5 4t-27.5 24q-11 22 -14 42.5t12 44.5q20 32 21 69t-2 75l-21 -24q-15 -20 -39 -26.5t-48 -3t-44 16.5 t-26 33q-8 21 -6 46zM543 316q35 54 60.5 108.5t33.5 121.5q-17 -16 -35 -46.5t-32.5 -65t-22 -67t-4.5 -51.5zM756.5 441.5q-4.5 -40.5 1.5 -85.5q14 23 25.5 58.5t17.5 71.5t6.5 67.5t-7.5 46.5q-9 -20 -19 -39t-14 -39q-6 -40 -10.5 -80.5z" />
<glyph unicode="&#x2122;" d="M-483 1061q0 23 14.5 45.5t35.5 41.5t45 31.5t44 14.5q30 3 51 -5t34 -26t17.5 -44t1.5 -58l-3.5 -45.5t-9.5 -31t-27 -16t-56 -0.5q-20 2 -45.5 10t-48 20t-38 28t-15.5 35z" />
<glyph unicode="&#xf711;" d="M-483 1061q0 23 14.5 45.5t35.5 41.5t45 31.5t44 14.5q30 3 51 -5t34 -26t17.5 -44t1.5 -58l-3.5 -45.5t-9.5 -31t-27 -16t-56 -0.5q-20 2 -45.5 10t-48 20t-38 28t-15.5 35z" />
<glyph unicode="&#x25cc;" horiz-adv-x="1049" d="M96 430q0 19 14.5 33t34.5 14q17 0 32 -14t15 -33q0 -21 -14 -35.5t-33 -14.5q-20 0 -34.5 14.5t-14.5 35.5zM211 162q0 20 14 33.5t33 13.5q21 0 35 -13.5t14 -33.5t-14 -33.5t-35 -13.5q-19 0 -33 13.5t-14 33.5zM211 695q0 23 14 36t33 13q21 0 35 -13t14 -36 q0 -20 -14 -33.5t-35 -13.5q-19 0 -33 13.5t-14 33.5zM479 47q0 20 13.5 34t33.5 14q19 0 34 -14t15 -34q0 -19 -15 -33t-34 -14q-20 0 -33.5 14t-13.5 33zM479 810q0 20 13.5 33.5t33.5 13.5q19 0 34 -13.5t15 -33.5q0 -19 -15 -32.5t-34 -13.5q-20 0 -33.5 13.5 t-13.5 32.5zM744 162q0 20 14.5 33.5t34.5 13.5q18 0 32.5 -13.5t14.5 -33.5t-13.5 -33.5t-33.5 -13.5t-34.5 13.5t-14.5 33.5zM744 695q0 23 14.5 36t34.5 13q18 0 32.5 -13t14.5 -36q0 -20 -13.5 -33.5t-33.5 -13.5t-34.5 13.5t-14.5 33.5zM858 430q0 19 13.5 33t32.5 14 q21 0 35 -14t14 -33q0 -21 -13 -35.5t-36 -14.5q-19 0 -32.5 14.5t-13.5 35.5z" />
<glyph unicode="&#x25fc;" horiz-adv-x="760" d="M0 0v760h760v-760h-760z" />
<glyph unicode="&#xf701;" d="M-1057.5 979.5q-2.5 10.5 2.5 24.5q2 7 2.5 14t-0.5 14q-3 22 1 42.5t12 40.5q12 30 30 55.5t40 48.5q14 14 31.5 25t36.5 19q155 66 321 23q25 -6 48 -16t46 -21q20 -9 30.5 -26.5t20.5 -35.5q11 -21 21.5 -42t29.5 -37q6 -6 13.5 -11t12.5 -11q8 -10 15 -20.5t11 -21.5 q5 -14 0 -26.5t-15 -17.5q-30 -16 -54 3q-19 15 -44 37q-5 -36 -18 -48t-45 -18q-88 -14 -176 -16.5t-176 -8.5q-30 -2 -59.5 -6.5t-56.5 -20.5q-31 -17 -54 16q-4 5 -7.5 10t-7.5 10q-9 11 -11.5 21.5zM-958 1095.5q-1 -9.5 7 -23.5q20 -35 61 -30q54 6 108 11.5t108 11.5 q17 2 34 5.5t38 8.5q-10 24 -18.5 45t-16.5 41q-5 14 -14.5 20t-23.5 8q-57 7 -109 -3.5t-103 -33.5q-16 -8 -29.5 -18.5t-27.5 -21.5q-13 -11 -14 -20.5zM-548 1172q4 -21 7.5 -41.5t7.5 -42.5q13 3 25 5t26 5q-7 11 -11.5 23t-11 22.5t-16.5 18t-27 10.5z" />
<glyph unicode="&#xf70c;" d="M-773 1229q-24 21 2 41q6 5 12 8l14 7q10 6 15.5 14t5.5 20q2 36 10.5 70.5t22.5 69.5q10 23 24 42.5t35 34.5q25 20 53 22.5t57 -11.5q27 -12 53 -26.5t47 -35.5l44 -51l10 -18l26 36q10 17 23.5 22t30.5 3q63 -9 102 -46.5t64 -91.5q12 -21 20.5 -45t18.5 -47q5 0 5 2 q16 33 32 65.5t30 67.5q27 72 16.5 138t-45.5 132q-29 52 -66 97t-80 87q-23 22 -48.5 43t-56.5 34l-18 8q-17 6 -22.5 4.5t-18.5 -14.5q-10 -2 -16 3t-12 15q-4 10 -9.5 19t-13.5 14v3h146l-3 -3l18 -15q20 -12 40 -23.5t40 -25.5q11 -8 20.5 -17t17.5 -19q23 -25 46 -49 t44 -51q20 -25 38 -50.5t34 -54.5q33 -68 44 -139.5t-16 -145.5l-56 -143q-35 -87 -62 -175q-4 -11 -4.5 -24.5t-0.5 -29.5q0 -21 -18 -28q-23 -11 -44.5 -1.5t-27.5 34.5q0 6 -1 12t1 11q4 64 -2 125.5t-23 123.5q-6 20 -16.5 37.5l-22.5 37.5q-2 4 -8.5 8t-14.5 10 q0 -26 -1 -47t1 -41q2 -35 -1.5 -67.5t-8.5 -65.5q-2 -11 -3 -23t3 -26q5 -19 -10 -32t-36 -9l-21 8q-14 7 -31 -5v-10q6 -12 4 -20t-11 -16q-12 -6 -23.5 -7.5t-23.5 4.5q-15 8 -24 21.5t-9 32.5q-2 54 -4 109t-6 109q-2 20 -5.5 40.5t-7.5 41.5q-6 23 -16.5 43.5 t-32.5 36.5q-15 11 -29.5 12.5t-31.5 -12.5q-24 -20 -39 -70q6 2 10 2.5t6 2.5q25 11 47.5 -2.5t26.5 -40.5q0 -10 1 -19.5t7 -19.5q4 -4 4 -10.5t-2 -12.5l-46 -189q-5 -17 -11 -34t-14 -33q-6 -17 -24 -22.5t-35 4.5q-12 8 -21 20q-16 22 -28.5 46.5t-17.5 51.5l-23 100 q-14 -4 -26 -3t-23 11zM-634 1232.5q-1 -21.5 5 -47.5q11 27 19.5 52.5t10.5 52.5q-11 0 -20.5 -3.5t-9.5 -11.5q-4 -21 -5 -42.5z" />
<glyph unicode="&#xf70e;" d="M-315 1091q0 19 14 47q10 21 25.5 36t34.5 25.5t41 18t46 14.5q21 6 41 12t40 14q55 17 64 -8q4 -10 -8.5 -18.5t-35.5 -15.5l-21 -6q-25 -7 -50 -13.5t-50 -14.5q-8 -2 -14.5 -8.5t-8.5 -26.5h-7l11 -7l29 -16h-1q11 -8 21 -16.5t14 -13.5q7 -11 11 -21t4 -17 q0 -11 -11 -24.5t-31 -31.5q-14 -12 -45 -12q-32 0 -55 18q-31 27 -46 51q-5 9 -8.5 18.5t-3.5 15.5z" />
<glyph unicode="&#xf70f;" horiz-adv-x="1304" d="M57.5 643.5q-0.5 13.5 3.5 28t12.5 28.5t19.5 25q21 23 42 44.5t45 39.5q51 40 106 59t111.5 19t112.5 -17t108 -49q99 -60 143 -147.5t44 -199.5v-138l140 22q3 62 6 123t-3 121q-8 77 -18 152.5t-21 151.5q-2 25 -5 51l-6 52t7.5 45.5t32.5 30.5q21 12 40 4.5t39 -19.5 q23 -15 36.5 -35.5t9.5 -49.5q-5 -41 -4 -82t5.5 -82.5t9.5 -82.5t8 -82q3 -54 5.5 -106.5t6.5 -106.5q2 -38 5.5 -75t9.5 -75q3 -26 -4.5 -46.5t-22.5 -33.5t-36.5 -17t-45.5 4q-26 9 -50.5 9t-49.5 -11q-28 -12 -57 -22t-58 -21q-13 -4 -23 -5q-37 -8 -65 -1t-44.5 25.5 t-20.5 47t8 63.5q43 133 21 270q-7 42 -28.5 77t-53 60.5t-71.5 39.5t-83 14q2 -5 4 -9.5t4 -6.5q16 -20 24.5 -33.5t8.5 -25.5t-8 -24.5t-25 -30.5q-49 -54 -82.5 -114.5t-56.5 -127.5q-15 -45 -12.5 -87.5t18.5 -85.5l7 -17q6 -11 15.5 -20.5t19.5 -15.5t20.5 -8t19.5 2 q11 4 21.5 13.5t14.5 20.5q11 25 6 48.5t-25 38.5q-8 6 -16.5 10.5t-13.5 11.5q-10 11 -16.5 23t-13.5 25q34 15 68 13t61.5 -16.5t46 -40.5t22.5 -59q6 -52 -13 -97t-45 -86q-9 -13 -30.5 -20t-39.5 -10q-37 -5 -72.5 7t-66 34.5t-54 53.5t-36.5 66q-14 38 -20.5 79 t-8.5 82q-2 23 5.5 48t18.5 45q10 19 21 37t19.5 37.5t14 41t5.5 45.5l-72 -8q-29 -3 -55.5 4.5t-43.5 31.5q-6 9 -6.5 22.5z" />
<glyph unicode="&#xf715;" d="M-757 1469q-24 20 2 40q5 5 10.5 8t13.5 6q20 12 20 32q2 35 10.5 68.5t21.5 66.5q9 22 22.5 40t33.5 33q24 19 50.5 21t54.5 -11q26 -11 51 -25t45 -34l41 -49l10 -17l24 34q10 17 22.5 22t29.5 3q61 -9 98 -45t61 -87q11 -20 19.5 -43t17.5 -45q4 0 4 2q15 32 30.5 63 t28.5 64q26 69 16.5 131.5t-43.5 125.5q-27 50 -62.5 93t-76.5 84q-23 20 -47 40t-54 33l-16 7q-8 3 -13 4.5t-8.5 0.5t-7.5 -4.5t-11 -10.5q-9 -2 -15 3t-12 15q-7 20 -22 31v3h140l-3 -3l18 -14q18 -11 37.5 -22.5t37.5 -24.5q11 -8 20 -16.5t17 -17.5q23 -24 44.5 -46.5 t41.5 -48.5q18 -24 36 -48.5t32 -52.5q16 -32 27 -65t15 -67.5t1 -69.5t-16 -70l-54 -137q-17 -40 -31 -82t-27 -84q-4 -11 -4.5 -24t-0.5 -27q0 -20 -18 -27q-22 -11 -42.5 -1.5t-25.5 33.5q0 5 -1 10.5t1 11.5q4 60 -2 119t-23 118q-5 19 -15 36t-21 35q-2 4 -8 8t-14 9 q0 -24 -1 -44.5t1 -38.5q2 -33 -1.5 -64.5t-8.5 -62.5q-2 -11 -3 -22.5t3 -24.5q5 -18 -9.5 -30.5t-34.5 -8.5l-19 7q-14 7 -30 -4v-10q11 -20 -7 -35q-11 -5 -22 -6t-22 4q-32 16 -32 51q-2 52 -4 104.5t-6 103.5q-2 19 -5 39t-7 40q-6 22 -16.5 41.5t-30.5 33.5 q-14 11 -27.5 12.5t-30.5 -12.5q-22 -17 -37 -66q5 2 9 2.5t6 2.5q24 9 45.5 -3t24.5 -38q0 -9 1 -18.5t7 -18.5q4 -4 4 -10.5t-2 -11.5l-44 -181q-5 -17 -10.5 -33t-13.5 -31q-6 -17 -23 -21.5t-34 4.5q-12 8 -19 20q-14 20 -26.5 43.5t-17.5 49.5l-22 95q-13 -4 -24 -3 t-22 10zM-625.5 1472.5q-0.5 -20.5 5.5 -44.5q11 26 19 50t10 50q-11 0 -20 -3.5t-9 -11.5q-5 -20 -5.5 -40.5z" />
<glyph unicode="&#xf718;" d="M-325 -569q13 42 29.5 80.5t47.5 70.5h-1q3 4 16.5 6t27.5 3q13 0 25 -6l41 -24h-2l13 -8q6 -5 9.5 -12.5t4.5 -14.5q-6 -42 -11 -85t-10 -85q-3 -20 -3 -40q0 -24 4 -39t-25 -24h1q-34 -11 -53 -1t-17 39q1 17 1.5 34t2.5 34q0 8 1 17t1 17q0 2 0.5 2.5t0.5 2.5l1 11 l-5 -3h1l-17 -7q-24 -7 -44.5 -1.5t-30.5 18.5q-4 5 -7 9.5t-2 5.5zM-237 -511h24l-3 3h1l11 17q2 4 4 6h-23q1 0 2 -0.5t5 -1.5h-6zM-139 -439h2l1 -2z" />
<glyph unicode="&#xf719;" d="M-417 -634q3 14 7.5 28.5t10.5 27.5q20 39 42.5 75t55.5 65q37 23 57.5 19t29.5 -18q11 -17 12 -45q4 -12 1 -26l-1 -1q-2 -21 -5.5 -42t-6 -42t-2.5 -42t5 -42q11 32 21 64t7 67q-1 10 -5 19t-8 19q-2 16 14 20q21 5 37 -6t19 -35q4 -31 -2 -63q-7 -32 -15.5 -64 t-17.5 -64q-8 -31 -39 -37q-20 -2 -35 4t-23 25q-7 14 -10.5 28t-7.5 28q-2 8 -2 17t-2 21q-8 -7 -12 -11l-8 -8q-25 -25 -63 -27q-10 -1 -20 1.5t-18 6.5q-11 5 -15 16t-1 22zM-346 -611q9 5 20 15t21.5 22t18.5 23.5t11 20.5q3 8 3.5 16t-6.5 17q-23 -26 -39.5 -54.5 t-28.5 -59.5z" />
<glyph unicode="&#xf71a;" d="M-183 -547q0 13 8 26t20 23.5t26 17.5t25 8q34 4 47.5 -17.5t10.5 -57.5q-1 -15 -2 -26t-5.5 -18t-15 -9t-31.5 0q-11 1 -25.5 5.5t-27.5 11.5t-21.5 16t-8.5 20z" />
<glyph horiz-adv-x="1294" d="M105 540q-20 125 51 231q9 14 25.5 23.5t32.5 17.5q37 18 77.5 22t78 -5.5t69.5 -31.5t54 -56q15 -23 21.5 -51.5t11.5 -56.5q4 -23 2.5 -48t-1.5 -53q28 8 55.5 14.5t53.5 6.5t50 -10.5t46 -35.5q13 25 27.5 69t28.5 96.5t26 109t20 106.5t11.5 89t-0.5 57 q-46 -9 -92 -11.5t-92 12.5q-8 2 -15 3.5t-14 5.5q-30 14 -35 39t21 48q27 24 57 44.5t62 33.5t66.5 17.5t72.5 -1.5q51 -8 94 3.5t85 34.5q27 14 55.5 23t59.5 7q12 -1 24.5 -2.5t22.5 -8.5t19 -18t11 -22q2 -8 -7.5 -19t-18.5 -16q-42 -24 -85 -46.5t-87 -44.5 q-15 -8 -22.5 -18t-8.5 -27q-5 -76 -17.5 -150.5t-29 -148.5t-35.5 -147.5t-37 -146.5q-21 -86 -41.5 -170.5t-21.5 -174.5q0 -9 -4.5 -20t-11.5 -17q-27 -23 -57.5 -26.5t-62.5 7.5q-28 9 -40 29.5t-12 49.5q-1 45 -9.5 87.5t-26.5 89.5q-8 -11 -15 -17t-10 -14 q-22 -57 -44 -113t-39 -114q-8 -29 -20.5 -50.5t-42.5 -29.5q-32 -8 -60.5 1t-48.5 35q-8 10 -9 26t0 30q8 86 16 171t16 172q0 2 -2 4t-3 4q-21 -8 -41.5 -18t-41.5 -12q-30 -3 -57 5.5t-49 26.5t-37 43.5t-19 56.5zM258 601h10v43q-2 1 -7 1q-1 -11 -1.5 -22t-1.5 -22z " />
<glyph horiz-adv-x="973" d="M-483 1061q0 23 14.5 45.5t35.5 41.5t45 31.5t44 14.5q30 3 51 -5t34 -26t17.5 -44t1.5 -58l-3.5 -45.5t-9.5 -31t-27 -16t-56 -0.5q-20 2 -45.5 10t-48 20t-38 28t-15.5 35zM283 664q-3 76 60 114q111 66 245 74q49 2 97.5 4t97.5 4q38 2 56 -12.5t21 -53.5 q3 -49 5.5 -97.5t-2.5 -96.5q-12 -120 -13 -237.5t7 -237.5q1 -11 3 -23t4 -23q5 -32 -10.5 -53t-49.5 -25q-26 -3 -44.5 15.5t-17.5 48.5q1 65 0 130.5t-1 130.5t1.5 130t9.5 130q5 40 3 80.5t-2 83.5q-12 3 -19 5t-13 2q-35 -2 -69 -3.5t-68 -5.5t-67.5 -11t-66.5 -21 q-24 -10 -38 -19t-18.5 -20t-1.5 -26.5t14 -39.5q9 -22 20.5 -41.5t26.5 -35.5t34 -27.5t44 -16.5q2 0 4 -2q15 -8 28 -18.5t17 -28.5q1 -6 -3.5 -15t-12 -18t-16.5 -16.5t-16 -10.5q-11 -4 -20 0q-26 14 -52.5 27.5t-52.5 27.5q-21 11 -36.5 28.5t-26.5 38.5 q-20 38 -39.5 77t-21.5 84z" />
<glyph d="M-666 1178q0 33 25 81q18 36 44.5 61.5t59.5 44t70.5 31.5t78.5 25q36 11 70.5 21.5t69.5 23.5q45 14 73.5 11t36.5 -25q7 -17 -15 -32t-61 -26l-36 -11q-43 -11 -86.5 -23t-85.5 -25q-14 -4 -25 -15t-15 -45h-12l19 -12l50 -28h-2q18 -14 36 -28.5t25 -23.5 q11 -19 18.5 -36.5t7.5 -28.5q0 -20 -19.5 -42.5t-53.5 -54.5q-12 -11 -32.5 -16t-45.5 -5q-27 0 -51.5 8.5t-43.5 22.5q-26 23 -46.5 46t-32.5 43q-9 15 -15 31t-6 27z" />
</font>
</defs>
</svg>
