<?xml version="1.0" standalone="no"?>
<!DOCTYPE svg PUBLIC "-//W3C//DTD SVG 1.1//EN" "http://www.w3.org/Graphics/SVG/1.1/DTD/svg11.dtd" >
<svg xmlns="http://www.w3.org/2000/svg" xmlns:xlink="http://www.w3.org/1999/xlink" version="1.1">
<metadata></metadata>
<defs>
<font id="tanaponregular" horiz-adv-x="0" >
<font-face units-per-em="2048" ascent="1638" descent="-410" />
<missing-glyph horiz-adv-x="690" />
<glyph unicode="&#x3b;&#x3b;For&#x20;Education&#x20;Used&#x20;Only&#x3b;&#x3b;" horiz-adv-x="1296" d="M96 231v701q0 48 20.5 90.5t57.5 73.5t89 49t116 18h559q54 0 101.5 -18.5t83.5 -50.5t56.5 -74t20.5 -88v-701q0 -50 -20.5 -92t-57.5 -73t-89 -48.5t-116 -17.5h-538q-64 0 -116 17.5t-89 48.5t-57.5 73t-20.5 92zM160 231q0 -34 14.5 -64.5t42.5 -54t68.5 -37.5 t93.5 -14h538q52 0 93.5 14t70 37.5t43.5 54t15 64.5v701q0 34 -15.5 64.5t-42.5 54t-64 37.5t-79 14h-559q-53 0 -93.5 -14t-68.5 -37.5t-42.5 -54t-14.5 -64.5v-701zM338 430v270q0 43 16.5 81t45 66t67 44t82.5 16h385v-61h-385q-32 0 -59 -11.5t-47.5 -31.5t-32 -46.5 t-11.5 -56.5v-270q0 -29 12 -54.5t32.5 -45.5t47.5 -31.5t58 -11.5h389v-62h-389q-43 0 -81.5 16t-67 43.5t-45.5 65t-17 80.5z" />
<glyph unicode="&#x3b;&#x3b;Registered&#x3b;&#x3b;" horiz-adv-x="1296" d="M96 231v701q0 48 20.5 90.5t57.5 73.5t89 49t116 18h559q54 0 101.5 -18.5t83.5 -50.5t56.5 -74t20.5 -88v-701q0 -50 -20.5 -92t-57.5 -73t-89 -48.5t-116 -17.5h-538q-64 0 -116 17.5t-89 48.5t-57.5 73t-20.5 92zM160 231q0 -34 14.5 -64.5t42.5 -54t68.5 -37.5 t93.5 -14h538q52 0 93.5 14t70 37.5t43.5 54t15 64.5v701q0 34 -15.5 64.5t-42.5 54t-64 37.5t-79 14h-559q-53 0 -93.5 -14t-68.5 -37.5t-42.5 -54t-14.5 -64.5v-701zM326 227v697h473q30 0 59 -11t52.5 -31t38 -47t14.5 -59v-86q0 -31 -14 -58t-36.5 -46.5t-52.5 -31 t-61 -11.5h-13l271 -316h-76l-283 316h-241v63h342q21 0 39 7t31.5 19t21.5 27t8 31v86q0 16 -7.5 31t-21 26t-32 18t-39.5 7h-410v-631h-63z" />
<glyph unicode="&#x3b;&#x3b;Trademark&#x3b;&#x3b;" horiz-adv-x="1938" d="M66 1104v61h864v-61h-401v-520h-62v520h-401zM1008 584v583h64l370 -512l369 512h61v-583h-61v493l-371 -522l-368 522v-493h-64z" />
<glyph unicode="&#x3b;&#x3b;Multiply&#x3b;&#x3b;" horiz-adv-x="1069" d="M160 893h88l287 -283l288 283h86l-329 -326l307 -303h-88l-264 260l-263 -260h-88l308 303z" />
<glyph unicode="&#x3b;&#x3b;Divide&#x3b;&#x3b;" horiz-adv-x="1292" d="M215 545v61h862v-61h-862zM586 307q0 23 16.5 39t36.5 16q23 0 39 -16t16 -39t-15 -39t-40 -16q-20 0 -36.5 16t-16.5 39zM586 864q0 23 16.5 39.5t36.5 16.5q23 0 39 -16.5t16 -39.5q0 -20 -15 -36.5t-40 -16.5q-20 0 -36.5 16.5t-16.5 36.5z" />
<glyph unicode="&#x2018;&#x2018;" horiz-adv-x="655" d="M96 934q0 86 41 143.5t131 89.5q6 2 15 2q8 0 12 -3.5t4 -7.5q0 -15 -14 -23q-28 -15 -47.5 -27t-32.5 -24.5t-21.5 -26.5t-13.5 -33h18q18 0 34 -7t28.5 -19t20 -28.5t7.5 -35.5q0 -18 -7 -34.5t-19 -29t-28.5 -19.5t-35.5 -7q-39 0 -65.5 26.5t-26.5 63.5zM356 934 q0 86 41 143.5t131 89.5q6 2 15 2q16 0 16 -10v-4q0 -12 -14 -20q-28 -15 -47.5 -27t-32.5 -24.5t-21.5 -26.5t-13.5 -33h18q18 0 34.5 -7t29 -19t20 -28.5t7.5 -35.5q0 -18 -7.5 -34.5t-20 -29t-29 -19.5t-34.5 -7q-39 0 -65.5 26.5t-26.5 63.5z" />
<glyph unicode="&#x2019;&#x2019;" horiz-adv-x="655" d="M96 856q0 14 17 23q27 15 46 27t32 24t21 25.5t13 31.5h-16q-39 0 -65.5 26.5t-26.5 65.5q0 37 26.5 63.5t65.5 26.5q18 0 34 -7t28.5 -19.5t20 -29t7.5 -34.5q0 -88 -40 -144t-132 -89q-6 -2 -12 -2q-19 0 -19 12zM356 856q0 14 17 23q27 15 46 27t32 24t21 25.5 t13 31.5h-16q-39 0 -65.5 26.5t-26.5 65.5q0 37 26.5 63.5t65.5 26.5q18 0 34 -7t28.5 -19.5t20 -29t7.5 -34.5q0 -88 -40 -144t-132 -89q-6 -2 -12 -2q-19 0 -19 12z" />
<glyph unicode="&#xe24;&#xe32;" horiz-adv-x="1135" d="M-27 642.5q1 -21.5 18 -40.5q17 -17 35 -31t38 -27q25 -16 38 -25.5t15.5 -20t-4.5 -24.5t-23 -38q-20 -32 -30.5 -66t-8.5 -72q2 -26 5 -52t10 -52q14 -46 37.5 -86t64.5 -68q29 -20 57 -24t52 5.5t42 32t27 56.5q12 47 -1.5 88t-32.5 82q-14 32 -39 44.5t-57 13.5h-55 q5 16 10 31t12 28t18 23.5t28 17.5q25 11 46 26q15 12 22.5 27.5t6.5 31t-10.5 30t-26.5 23.5q-14 7 -29.5 10t-30.5 5q-29 4 -52.5 16.5t-43.5 37.5q18 34 48 60.5t65 43.5t71.5 23t68.5 -1q26 -6 45 -18t33 -35q37 -60 47.5 -125t10.5 -132q-1 -139 -5 -276.5t-10 -276.5 q0 -3 -0.5 -29t-1.5 -60t-2 -67t-1 -51h-1q-3 -43 -10 -85t-24 -84q-8 -21 -6 -46q1 -11 6.5 -22.5t13.5 -21.5t18 -16.5t19 -7.5q20 -3 42.5 11t31.5 37q9 22 12 45q9 51 15 98q2 20 3.5 39t-0.5 39q-1 7 -1 13.5t-1 13.5h-1q-1 19 -2.5 49t-3.5 65t-3.5 72.5t-2.5 70.5 t-2 59.5t-1 40.5q0 88 5 175t7 175q1 66 -0.5 132.5t-23.5 131.5q-13 36 -26 71t-44 61q-54 46 -114.5 54.5t-126.5 -5.5q-32 -7 -61 -20.5t-56 -30.5t-52.5 -36t-52.5 -36q-16 -11 -28 -27t-23 -32q-14 -20 -13 -41.5zM200 168q1 12 8.5 20.5t25.5 6.5v-56q-36 3 -34 29z M650 637q20 84 62.5 155.5t94.5 138.5q25 32 58 45.5t66.5 10t63.5 -23.5t50 -55q29 -50 38.5 -103t12.5 -109q5 -91 0.5 -181t-17 -178.5t-31.5 -176.5t-41 -175q-31 -122 -42 -245.5t2 -249.5q3 -27 -2 -51t-24 -45q-23 -25 -50.5 -36t-61.5 -3q-23 5 -40.5 18t-26.5 29.5 t-8.5 36t14.5 37.5q21 29 32.5 60t18.5 62.5t11.5 64t12.5 64.5q24 102 42.5 204.5t35.5 205.5q8 49 10.5 98.5t6.5 99.5q6 68 13 135t10 135q2 40 0 80t-6 80q-2 14 -11 28.5t-19 33.5q-51 -36 -75.5 -77.5t-30.5 -95.5q12 -7 24.5 -13.5t24.5 -14.5q28 -18 33 -38t-12 -49 q-11 -20 -31 -35t-44 -22.5t-50 -7t-49 9.5q-45 20 -61.5 61t-3.5 92z" />
<glyph unicode="&#xe26;&#xe32;" horiz-adv-x="1110" d="M25 255q5 48 12.5 94.5t32.5 89.5q13 23 27.5 41.5t32.5 30t40.5 15t51.5 -3.5q2 -1 4.5 0.5t4.5 2.5q9 44 -13 82t-63 51q-13 4 -26.5 7.5t-25.5 9.5q-17 9 -25.5 22t-9 27t7 27.5t23.5 23.5q18 10 38 15q37 11 74 21.5t75 20.5q48 12 92.5 5.5t88.5 -25.5 q32 -14 48 -38t21 -58q11 -85 15.5 -168t0.5 -168q-5 -118 -8 -236t-8 -236q-1 -21 -4.5 -42t-5.5 -43q-8 -93 -15.5 -184.5t-13.5 -184.5q-2 -24 -0.5 -48t3.5 -47q3 -23 -3 -40t-26 -29q-20 -13 -40 -13.5t-35 11.5q-39 31 -25 76q2 10 4 14q19 41 29 84t15 86.5t7.5 87 t5.5 87.5q13 153 22 305t16 306q3 68 -1 135t-7 136q0 11 -2.5 22t-4.5 22q-16 69 -65 95t-114 0q-8 -4 -15 -10.5t-18 -14.5q8 -11 14 -19.5t12 -16.5q49 -57 62 -121.5t-6 -136.5q-12 -47 -26 -92t-14 -94q0 -16 -10 -28q-31 -39 -48.5 -84t-37.5 -89q-19 -41 -64 -38 q-29 1 -44 11t-26 42q-17 49 -26 100t-4 102zM109 252.5q-2 -60.5 9 -121.5q5 -1 9 -1.5t8 -0.5q14 48 28 95.5t26 96.5q3 11 1 24t-6 25q-2 7 -9.5 14t-13.5 7q-7 1 -15 -5t-11 -13q-24 -60 -26 -120.5zM618 532q20 84 62.5 155.5t94.5 138.5q25 32 58 45.5t66.5 10 t63.5 -23.5t50 -55q29 -50 38.5 -103t12.5 -109q5 -91 0.5 -181t-17 -178.5t-31.5 -176.5t-41 -175q-31 -122 -42 -245.5t2 -249.5q3 -27 -2 -51t-24 -45q-23 -25 -50.5 -36t-61.5 -3q-23 5 -40.5 18t-26.5 29.5t-8.5 36t14.5 37.5q21 29 32.5 60t18.5 62.5t11.5 64 t12.5 64.5q24 102 42.5 204.5t35.5 205.5q8 49 10.5 98.5t6.5 99.5q6 68 13 135t10 135q2 40 0 80t-6 80q-2 14 -11 28.5t-19 33.5q-51 -36 -75.5 -77.5t-30.5 -95.5q12 -7 24.5 -13.5t24.5 -14.5q28 -18 33 -38t-12 -49q-11 -20 -31 -35t-44 -22.5t-50 -7t-49 9.5 q-45 20 -61.5 61t-3.5 92z" />
<glyph unicode="&#xd;" horiz-adv-x="579" />
<glyph unicode=" "  horiz-adv-x="690" />
<glyph unicode="&#x09;" horiz-adv-x="690" />
<glyph unicode="&#xa0;" horiz-adv-x="690" />
<glyph unicode="!" horiz-adv-x="326" d="M94 1094q0 14 6 27.5t15.5 23.5t20.5 16t22 6q20 0 49 -22q24 -23 24 -51l-53 -883h-31zM109 49q0 23 16 39t39 16q20 0 36.5 -16t16.5 -39q0 -20 -15 -36.5t-38 -16.5t-39 16.5t-16 36.5z" />
<glyph unicode="&#x22;" horiz-adv-x="575" d="M94 1108q0 19 17.5 35t40.5 16q20 0 37.5 -13.5t17.5 -33.5v-4l-49 -289h-13zM370 1116q0 18 16 30.5t38 12.5q20 0 38.5 -15.5t18.5 -35.5l-51 -289h-8l-51 289q-1 3 -1 8z" />
<glyph unicode="#" horiz-adv-x="1030" d="M33 422v61h254l53 197h-205v61h221l115 422h66l-115 -422h274l115 422h63l-114 -422h237v-61h-254l-53 -197h205v-61h-221l-117 -422h-61l112 422h-274l-115 -422h-63l114 422h-237zM350 483h277l53 197h-277z" />
<glyph unicode="$" horiz-adv-x="1253" d="M94 0v63h801q43 0 80 13.5t64 36.5t42 53.5t15 64.5v152q0 34 -15 64.5t-42 53.5t-64 36.5t-80 13.5h-539q-55 0 -103 18.5t-83 50t-55.5 73.5t-20.5 89v150q0 46 20.5 88t56 74t83.5 50.5t102 18.5h240v201h61v-201h271v-61h-572q-42 0 -78 -14t-63 -37.5t-42 -54 t-15 -64.5v-150q0 -36 16.5 -67t44 -54t63.5 -36t74 -13h539q53 0 100.5 -18t83.5 -49t57 -72.5t21 -89.5v-152q0 -47 -21 -88.5t-57 -73.5t-83.5 -50.5t-100.5 -18.5h-238v-199h-61v199h-502z" />
<glyph unicode="%" horiz-adv-x="930" d="M2 0l848 1163h76l-846 -1163h-78zM35 963q0 40 15.5 76.5t42.5 64t64 43.5t79 16q40 0 76.5 -16t64 -43.5t43.5 -64t16 -76.5q0 -42 -16 -79t-43.5 -64t-64 -42.5t-76.5 -15.5q-42 0 -79 15.5t-64 42.5t-42.5 64t-15.5 79zM96 963q0 -30 10.5 -55.5t29.5 -44.5 t44.5 -29.5t55.5 -10.5q28 0 53.5 10.5t44.5 29.5t30 44.5t11 55.5q0 28 -11 53.5t-30 44.5t-44.5 30t-53.5 11q-30 0 -55.5 -11t-44.5 -30t-29.5 -44.5t-10.5 -53.5zM494 201q0 42 16 78.5t43.5 63.5t63.5 42.5t77 15.5q42 0 79 -15.5t64 -42.5t42.5 -63.5t15.5 -78.5 q0 -41 -15.5 -77.5t-42.5 -64t-64 -43.5t-79 -16q-41 0 -77 16t-63.5 43.5t-43.5 64t-16 77.5zM555 201q0 -29 11 -54t30 -44.5t44 -30.5t54 -11q28 0 53.5 11t45 30.5t30.5 44.5t11 54q0 28 -11 53.5t-30.5 44.5t-45 30t-53.5 11q-29 0 -54 -11t-44 -30t-30 -44.5 t-11 -53.5z" />
<glyph unicode="&#x26;" horiz-adv-x="1155" d="M94 307q0 182 176 320q29 23 79 58t122 83q-88 124 -88 197q0 36 13 69.5t35.5 60t54 42.5t69.5 16q36 0 66 -14t52 -38t34 -55t12 -65q0 -123 -160 -229l315 -445l138 99l37 -56l-138 -94l183 -256h-74l-160 221l-231 -168q-87 -63 -203 -63q-76 0 -137 28t-104.5 73 t-67 102t-23.5 114zM158 307q0 -52 19 -98t53.5 -80t82 -54t103.5 -20q43 0 86.5 12t91.5 35l12 11l219 157l-317 447q-35 -23 -85 -57t-116 -82q-149 -119 -149 -271zM444 965q0 -26 19.5 -68t58.5 -96q133 88 133 180q0 22 -7.5 42t-21 35.5t-32 24.5t-39.5 9 q-22 0 -42 -10.5t-35.5 -28t-24.5 -40.5t-9 -48z" />
<glyph unicode="'" horiz-adv-x="301" d="M94 1108q0 20 16.5 35.5t39.5 15.5t40 -15.5t17 -35.5l-53 -289h-11z" />
<glyph unicode="(" horiz-adv-x="387" d="M94 -102v1101q0 46 21 88.5t56.5 74t83 50.5t101.5 19h31v-64h-31q-42 0 -78 -13.5t-63 -36.5t-42 -53.5t-15 -64.5v-1101q0 -34 15 -64.5t42 -53.5t63 -36.5t78 -13.5h31v-64h-31q-54 0 -101.5 18.5t-83 50.5t-56.5 74t-21 89z" />
<glyph unicode=")" horiz-adv-x="387" d="M0 -270h31q42 0 78 13.5t63 36.5t42 53.5t15 64.5v1101q0 34 -15 64.5t-42 53.5t-63 36.5t-78 13.5h-31v64h31q54 0 101.5 -19t83 -50.5t56.5 -74t21 -88.5v-1101q0 -47 -21 -89t-56.5 -74t-83 -50.5t-101.5 -18.5h-31v64z" />
<glyph unicode="*" horiz-adv-x="784" d="M129 934l21 57l210 -76v236h64v-236l213 66l18 -57l-213 -68l136 -182l-50 -35l-137 180l-135 -180l-49 35l135 182z" />
<glyph unicode="+" horiz-adv-x="1053" d="M94 442v62h402v399h61v-399h399v-62h-399v-399h-61v399h-402z" />
<glyph unicode="," horiz-adv-x="299" d="M43 -258l107 401h63l-107 -401h-63z" />
<glyph unicode="-" horiz-adv-x="1053" d="M94 463v61h862v-61h-862z" />
<glyph unicode="." horiz-adv-x="299" d="M94 49q0 23 17 39t39 16q23 0 39 -16t16 -39q0 -20 -16 -36.5t-39 -16.5q-22 0 -39 16.5t-17 36.5z" />
<glyph unicode="/" horiz-adv-x="770" d="M-18 -100l770 1364h71l-774 -1364h-67z" />
<glyph unicode="0" horiz-adv-x="564" d="M-14 359q0 23 6 49t14 49l3 9q14 40 37.5 78.5t55.5 69.5h-1l15 15l8 11l-2 -4l7 10l8 8l-2 -4l6 9q28 30 65.5 47.5t81.5 17.5h10q5 -1 11 -1.5t10 0.5q53 4 96.5 -15t75 -52t50 -75.5t22.5 -85.5v-54q2 -65 -14 -129t-39 -120q-12 -29 -32 -56t-41 -49l-4 -4v1 q-14 -16 -33.5 -27.5t-42.5 -14.5q-11 -2 -29 -3t-30 -1q-54 0 -103.5 20t-89.5 66q-31 36 -57.5 81.5t-46.5 85.5q-8 17 -11.5 34t-3.5 34zM175 382q0 -2 1.5 -14t2.5 -17v2q8 -32 28 -65.5t40 -57.5q8 -7 19 -12t19 -5q17 0 30.5 8t20.5 23q23 50 41.5 100.5t16.5 101.5 v26q-4 22 -12 42.5t-25 28.5q-13 -14 -31 -22t-35 -8q-8 0 -16 1t-18 4q-2 0 -6 -3l3 1l-18 -22q-30 -30 -43 -54q-8 -14 -13 -28.5t-5 -29.5z" />
<glyph unicode="1" horiz-adv-x="334" d="M38 504q0 16 11 30q12 16 31 29q26 17 45 39t34 48q15 28 49 36q27 6 48 -9.5t21 -42.5q0 -85 1 -170t-1 -170q-1 -51 -5 -102.5t-6 -102.5q-2 -20 -11 -35.5t-23 -29.5q-11 -11 -28.5 -11.5t-31.5 7.5t-22 24.5t-6 32.5q2 11 6 18q26 41 38 85t12 92q1 61 5.5 122 t-3.5 123q-1 4 -2 9.5t-4 18.5q-12 -19 -21.5 -32t-16.5 -26q-10 -18 -24.5 -26.5t-32.5 -10.5q-17 -3 -31.5 2.5t-23.5 21.5q-8 14 -8 30z" />
<glyph unicode="2" horiz-adv-x="461" d="M34 486q5 67 37.5 118.5t89.5 86.5q14 8 30 12t32 4q54 0 84.5 -25t31.5 -85q2 -78 -3 -154t-31 -151q-5 -12 -6 -24q-4 -17 -7 -34.5t-7.5 -34.5t-11.5 -33t-19 -31q2 -3 2.5 -5.5t2.5 -5.5q22 -2 43.5 -3t43.5 -2q11 -1 20.5 1t20.5 2q23 -1 38 -18t15 -42 q0 -59 -51 -59q-14 0 -27.5 4t-26.5 10q-37 18 -72.5 21.5t-72.5 -21.5q-9 -6 -21 -7t-23.5 2t-21 9.5t-14.5 14.5q-11 17 -8.5 39.5t22.5 32.5q24 13 39.5 31t25.5 38.5t17 43t15 44.5q24 66 33 134t14 137q1 18 0 37q-1 17 -6.5 31t-24.5 20q-36 11 -59 -17 q-11 -13 -21.5 -26.5t-18 -28t-11.5 -31.5t-2 -36q2 -18 -9 -32t-25 -18t-27.5 1t-21.5 19q-4 7 -6.5 15t-1.5 16z" />
<glyph unicode="3" horiz-adv-x="472" d="M-40 483q11 22 20 45t19 45.5t23 43t31 38.5q29 27 60.5 39.5t72.5 6.5q32 -5 58 -22t43.5 -42.5t24.5 -55.5t1 -60q-7 -32 -13.5 -64t-13.5 -67q23 -5 45 -8.5t44 -11.5q59 -18 68 -82q6 -38 -2 -74.5t-26 -67.5t-46 -55t-63 -36q-50 -17 -99 -28t-102 -4 q-32 4 -51 29.5t-15 57.5q3 18 17.5 26t27.5 -5t27 -18.5t29 -7t30.5 0t30.5 2.5q74 4 131 58q45 43 43 109q-1 17 -11.5 29t-30.5 15q-32 4 -61.5 -1.5t-56.5 -25.5q-8 -6 -18.5 -10t-20.5 -4q-14 0 -25 7.5t-16 22.5q-5 13 2 29.5t21 24.5q29 15 45.5 36.5t25 46t11 52 t4.5 54.5q2 26 -11 46.5t-41 29.5q-26 8 -48 1.5t-42 -25.5q-22 -21 -31.5 -47t-17.5 -54q-4 -12 -7 -24.5t-8 -24.5q-15 -38 -53 -24q-16 7 -24.5 22.5t-0.5 31.5z" />
<glyph unicode="4" horiz-adv-x="651" d="M12 210.5q-7 19.5 8 40.5q27 38 49.5 79t43 83t39.5 84t40 84q15 29 31 57.5t33 56.5q10 16 24.5 26.5t34.5 8.5q17 -2 35 -18t22 -36t0 -40t-22 -30q-24 -14 -41 -32t-31 -39t-25 -44t-23 -45q-14 -27 -24.5 -57.5t-23.5 -62.5q14 -2 22.5 -2.5t16.5 -0.5q40 0 79.5 0.5 t80.5 -0.5q25 0 31.5 5t7.5 28v107t-2 107q-1 13 -5 26t-9 25q-11 22 -8 43t13 41q20 39 64 32q22 -3 34 -14.5t14 -36.5q2 -17 0.5 -33.5t-4.5 -33.5q-13 -73 -8 -145.5t13 -144.5q0 -2 8 -13h15t14 2q23 7 39 -3t27 -27q12 -17 11.5 -36.5t-11.5 -36.5q-4 -8 -13 -13.5 t-17 -6.5q-23 -2 -46 -1t-51 1q-2 -16 -3.5 -33.5t-5.5 -34.5q-4 -21 -9 -42.5t-12 -41.5q-10 -29 -42 -26q-18 2 -26.5 13t-11.5 25q-2 9 -2 19t2 19q5 30 10.5 60t11.5 62q-76 19 -146 15.5t-135 -48.5q-22 -15 -43 -15.5t-44 11.5q-23 13 -30 32.5z" />
<glyph unicode="5" horiz-adv-x="668" d="M37 93q2 8 6 15.5t9 13.5q19 21 39 -2q23 -28 40 -32.5t49 9.5q41 17 76.5 40.5t61.5 62.5q5 8 13 13t14 12q14 16 27 32t23 34q14 26 4 49.5t-38 34.5q-35 13 -68.5 8.5t-65.5 -19.5q-20 -10 -37 -23.5t-33 -27.5q-22 -19 -41.5 -21.5t-41.5 13.5q-16 12 -20 30.5 t10 40.5q20 32 35 66t27.5 68.5t24 69.5t25.5 70q5 12 12 23.5t14 22.5q9 15 21.5 20t28.5 3q65 -5 129.5 -8.5t129.5 -10.5q26 -2 51 -9.5t49 -16.5q23 -8 33 -26.5t8 -39.5q-2 -15 -10.5 -27t-21 -19.5t-27 -9t-29.5 4.5q-9 4 -17 9l-16 10q-41 26 -85.5 38t-92.5 13 q-40 0 -76 -24t-51 -61q-10 -23 -18.5 -46.5t-17.5 -46.5q2 -3 8 -9q11 2 21 5t21 6q47 13 91.5 12t89.5 -27q55 -32 67.5 -81t-20.5 -104q-37 -62 -85.5 -112.5t-106.5 -92.5q-33 -24 -71 -37t-82 -11q-21 1 -38.5 9.5t-29.5 21.5t-17 29.5t-1 34.5z" />
<glyph unicode="6" horiz-adv-x="470" d="M3 313q4 21 27 36q39 27 80 21q8 -1 16 -1.5t19 -1.5q8 21 14.5 42t14.5 41q14 38 32 73t47 65q23 24 43.5 50.5t43.5 50.5q10 10 22.5 17.5t25.5 10.5q30 8 51 -5t31 -43q8 -25 -5 -50.5t-39 -36.5q-6 -2 -12.5 -3.5t-13.5 -3.5q-37 -10 -65.5 -28.5t-47.5 -55.5 l-34 -68t-23 -78q43 -14 82.5 -26.5t78.5 -24.5q48 -16 57.5 -51t-25.5 -71q-16 -16 -30 -33t-31 -32q-26 -24 -52.5 -48t-55.5 -44q-17 -12 -35 -14.5t-33 3.5t-26.5 19.5t-15.5 34.5q-8 39 -9.5 79t-5.5 81q-1 11 -0.5 24t0.5 33q-11 -12 -16.5 -18.5t-10.5 -11.5 q-16 -16 -30.5 -16.5t-31.5 15.5q-7 5 -13 11.5t-11 13.5q-17 23 -13 44zM211 181q2 -37 10 -82q35 25 61 48.5t38 58.5q-17 14 -29 22.5t-22.5 13.5t-22.5 7.5t-29 4.5q-8 -36 -6 -73z" />
<glyph unicode="7" horiz-adv-x="483" d="M20.5 613q7.5 17 29.5 19q24 3 46 -6q33 -17 66 -15.5t66 15.5q23 9 45.5 17.5t44.5 19.5q19 9 38 13.5t40 2.5q13 -1 25.5 -1.5t24.5 1.5q19 2 29 -7.5t17 -22.5t2.5 -24t-12.5 -22q-10 -14 -19 -28.5t-15 -30.5q-25 -57 -48 -114.5t-46 -115.5q-5 -11 -8.5 -22 t-8.5 -23q19 -5 33 0t28 13q25 14 48 0q26 -14 19 -42q-6 -27 -36 -29q-24 -2 -48.5 -4t-48.5 -3q-21 -1 -26 -19q-12 -41 -24.5 -80t-23.5 -80q-7 -24 -23 -32t-39 4q-19 9 -14 29q2 8 4.5 15t7.5 12q23 30 34 65.5t24 70.5q1 1 0 2.5t-1 4.5q-14 7 -28 5.5t-28 -7.5 q-5 -2 -9 -5t-9 -5q-21 -9 -38 -1.5t-25 27.5t1.5 37.5t32.5 22.5q10 2 20 1t21 -2q19 -2 37.5 -4t38.5 -4q4 0 8.5 3t7.5 7q5 4 7 13q28 69 55.5 137.5t55.5 137.5q3 8 5.5 16.5t4.5 17.5q2 13 -3.5 21t-18.5 7q-17 -1 -35 -2.5t-35 -6.5q-27 -9 -52.5 -20.5t-51.5 -22.5 q-3 -2 -6 -3.5l-5 -2.5q21 -33 40 -64t38 -63q17 -28 -3 -42q-3 -3 -10 -4t-14.5 -0.5t-14 2.5t-9.5 5q-4 4 -5 9.5t-3 11.5q-11 42 -34 73.5t-63 49.5q-12 5 -25 7.5t-27 4.5t-26.5 6t-21.5 18q-11 19 -3.5 36z" />
<glyph unicode="8" horiz-adv-x="409" d="M17.5 404.5q1.5 34.5 21.5 66.5q2 5 5 10t8 8q23 15 23.5 35t-4.5 43t-9 46t-6 47q-1 11 4.5 23.5t15 23t21 17.5t23.5 8q29 2 58.5 3t58.5 3q34 2 59 -12t44 -40q20 -27 32.5 -57.5t19.5 -63.5q1 -6 1.5 -13t-0.5 -13q-5 -48 -23.5 -63.5t-64.5 -14.5q-18 0 -35.5 3 t-35.5 5q-11 1 -22 0t-25 -2q0 -11 -0.5 -20t0.5 -17q6 -42 12 -82.5t11 -82.5q3 -24 5 -48.5t6 -49.5q3 -19 7 -37t8 -37q2 -8 4 -16.5t3 -16.5q2 -14 -2.5 -26t-18.5 -19q-14 -6 -28.5 -8t-28.5 10q-10 9 -19 18.5t-16 20.5q-36 66 -62.5 135.5t-43.5 143.5 q-8 35 -6.5 69.5zM96 340q2 -28 9.5 -55t19 -53t24.5 -51q4 35 -0.5 68.5t-12.5 68.5q-2 6 -6 9q-18 14 -24 32t-6 39q-6 -30 -4 -58zM168 582q1 -25 8 -33t31 -10q10 -2 20 -2t21 -1v1h15q31 -3 41 6t1 50q-1 2 -1 4q-5 8 -9 17t-9.5 17t-12.5 14t-19 8q-48 10 -67.5 -6 t-18.5 -65z" />
<glyph unicode="9" horiz-adv-x="415" d="M5.5 581q6.5 39 27 74t58.5 61q47 32 96.5 32.5t90.5 -37.5q18 -17 26.5 -38t3.5 -47q-5 -25 -13 -46.5t-25 -39.5q-7 -10 -19 -17q-12 -8 -23.5 -5.5t-21.5 9.5q-11 7 -10 17t5 20q4 8 9 15.5t10 15.5q20 30 -1 58q-10 14 -24 17.5t-28 -1.5q-30 -11 -53 -28.5 t-33 -49.5q-8 -29 -10.5 -58t10.5 -58t35.5 -37.5t50.5 5.5q17 9 33.5 19t32.5 21q20 13 38 26.5t36 27.5q16 12 34.5 14.5t29.5 -5.5q16 -12 20 -31t-2 -39q-7 -23 -13 -47.5t-8 -48.5q-5 -54 -7 -108.5t-4 -108.5q-1 -14 2.5 -28.5t7.5 -28.5q8 -27 0 -55t-29 -40 q-14 -8 -28 -8.5t-25 5.5t-18.5 17.5t-7.5 27.5q-1 17 4 34.5t13 32.5q7 14 11.5 27t5.5 28l6 240q0 5 -0.5 10t-1.5 16q-26 -14 -48 -25.5t-45 -22.5q-16 -8 -32 -14.5t-33 -9.5q-38 -7 -65.5 12t-42.5 48q-18 34 -25 73.5t-0.5 78.5z" />
<glyph unicode=":" horiz-adv-x="299" d="M94 49q0 23 17 39t39 16q23 0 39 -16t16 -39q0 -20 -16 -36.5t-39 -16.5q-22 0 -39 16.5t-17 36.5zM94 709q0 23 17 39t39 16q23 0 39 -16t16 -39t-16 -39.5t-39 -16.5q-22 0 -39 16.5t-17 39.5z" />
<glyph unicode=";" horiz-adv-x="299" d="M43 -258l107 401h63l-107 -401h-63zM94 709q0 23 17 39t39 16q23 0 39 -16t16 -39t-16 -39.5t-39 -16.5q-22 0 -39 16.5t-17 39.5z" />
<glyph unicode="&#x3c;" horiz-adv-x="866" d="M33 432q0 16 18 27l688 405h119l-731 -432l739 -432h-127l-688 406q-9 5 -14 11t-4 15z" />
<glyph unicode="=" horiz-adv-x="1053" d="M94 305v62h862v-62h-862zM94 506v61h862v-61h-862z" />
<glyph unicode="&#x3e;" horiz-adv-x="866" d="M0 0l737 432l-731 432h121l688 -405q19 -12 19 -27q0 -17 -19 -26l-688 -406h-127z" />
<glyph unicode="?" horiz-adv-x="872" d="M94 1100v61h471q43 0 81.5 -16t67 -43.5t45.5 -65t17 -80.5v-208q0 -47 -18 -85t-49 -65t-72.5 -42t-89.5 -15q-38 0 -69 -10t-53.5 -29t-35 -45.5t-12.5 -59.5v-211h-62v211q0 45 16.5 82.5t46.5 64.5t73 42.5t96 15.5q36 0 66.5 10.5t53 29.5t35.5 46t13 60v208 q0 30 -12 56t-32.5 45.5t-47.5 31t-58 11.5h-471zM291 49q0 23 16 39t39 16q20 0 37.5 -16t17.5 -39q0 -20 -16 -36.5t-39 -16.5t-39 16.5t-16 36.5z" />
<glyph unicode="@" horiz-adv-x="1317" d="M94 359q0 132 46 244t125.5 194t185.5 128t227 46q96 0 182.5 -30t157 -84.5t121 -130.5t73.5 -167q5 -18 8 -37.5t3 -42.5q0 -79 -23.5 -156.5t-64 -139.5t-94 -100.5t-113.5 -38.5q-100 0 -109 93q-84 -90 -194 -90h-101q-174 0 -174 166q17 85 36 159t42 140 q10 41 36.5 77t62 63t76.5 43t81 16h100q54 0 89 -15.5t55 -44.5l16 60h62l-127 -471q-6 -22 -7.5 -39t-1.5 -31q0 -64 58 -64q44 0 86 33.5t74.5 86.5t52.5 118t20 129q0 51 -14 99t-38.5 90.5t-57.5 79.5t-70 65q-127 100 -303 100q-114 0 -209 -42.5t-164 -116.5 t-107 -173t-38 -213q0 -110 38 -205.5t108.5 -166t172 -110.5t228.5 -40q329 0 448 230l10 16h68l-23 -45q-33 -62 -83 -110.5t-113 -82.5t-138 -51.5t-159 -17.5q-135 0 -249 43t-197.5 120t-130 183.5t-46.5 233.5zM416 211q0 -100 108 -100h101q75 0 122 33t70 106 l72 262q2 9 3 18.5t1 18.5q0 98 -109 98h-100q-95 0 -152 -74q-22 -29 -45.5 -95t-52.5 -169z" />
<glyph unicode="A" horiz-adv-x="1128" d="M16 0l521 1145q5 11 11 16.5t17 5.5q19 0 29 -22l518 -1145h-65l-185 399h-596l-180 -399h-70zM295 463h541l-271 594z" />
<glyph unicode="B" horiz-adv-x="1253" d="M94 0v1163h703q53 0 100.5 -18.5t83 -50.5t56 -74t20.5 -88q0 -107 -92 -178q40 -10 75.5 -31t61 -50.5t40.5 -66t15 -76.5v-299q0 -48 -21 -90t-57 -73.5t-83.5 -49.5t-100.5 -18h-801zM158 61h737q43 0 80 14t64 37.5t42 54t15 64.5v299q0 34 -15 65t-42 54t-64 37 t-80 14h-737v-639zM158 762h639q42 1 78 15t63 37t42 53.5t15 64.5t-15 64.5t-42 54t-63 37.5t-78 14h-639v-340z" />
<glyph unicode="C" horiz-adv-x="1192" d="M94 231v701q0 46 20.5 88t56 74t83.5 50.5t102 18.5h572v-61h-572q-42 0 -78 -14t-63 -37.5t-42 -54t-15 -64.5v-701q0 -34 15 -64.5t42 -54t63 -37.5t78 -14h801v-61h-801q-54 0 -101.5 18t-83 49.5t-56.5 73.5t-21 90z" />
<glyph unicode="D" horiz-adv-x="1253" d="M94 0v1161h801q53 0 100.5 -18t83.5 -49t57 -72.5t21 -89.5v-701q0 -48 -21 -90t-57 -73.5t-83.5 -49.5t-100.5 -18h-801zM158 61h737q43 0 80 14t64 37.5t42 54t15 64.5v701q0 34 -15 64.5t-42 53.5t-64 36.5t-80 13.5h-737v-1039z" />
<glyph unicode="E" horiz-adv-x="1014" d="M94 0v1163h834v-61h-770v-340h770v-62h-770v-639h823v-61h-887z" />
<glyph unicode="F" horiz-adv-x="1010" d="M94 0v1163h883v-61h-819v-340h729v-62h-729v-700h-64z" />
<glyph unicode="G" horiz-adv-x="1253" d="M94 231v701q0 48 21 89.5t57 72.5t83.5 49t100.5 18h572v-61h-572q-42 0 -78 -13.5t-63 -36.5t-42 -53.5t-15 -64.5v-701q0 -34 15 -64.5t42 -54t63 -37.5t78 -14h539q43 0 80 14t64 37.5t42 54t15 64.5v320h-500v61h561v-381q0 -48 -21 -90t-57 -73.5t-83.5 -49.5 t-100.5 -18h-539q-54 0 -101.5 18t-83 49.5t-56.5 73.5t-21 90z" />
<glyph unicode="H" horiz-adv-x="1253" d="M94 0v1163h64v-401h938v401h61v-1163h-61v700h-938v-700h-64z" />
<glyph unicode="I" horiz-adv-x="252" d="M94 0v1163h64v-1163h-64z" />
<glyph unicode="J" horiz-adv-x="1192" d="M33 231v31h61v-31q0 -34 15.5 -64.5t42.5 -54t64 -37.5t79 -14h539q42 0 78.5 14t63.5 37.5t42.5 54t15.5 64.5v932h62v-932q0 -48 -21 -90t-57 -73.5t-83.5 -49.5t-100.5 -18h-539q-53 0 -100.5 18t-83.5 49t-57 73t-21 91z" />
<glyph unicode="K" horiz-adv-x="1206" d="M94 0v1163h64v-524l862 524h119l-865 -526l959 -637h-115l-901 600l-59 -35v-565h-64z" />
<glyph unicode="L" horiz-adv-x="1192" d="M94 231v932h64v-932q0 -34 15 -64.5t42 -54t63 -37.5t78 -14h801v-61h-801q-54 0 -101.5 18t-83 49.5t-56.5 73.5t-21 90z" />
<glyph unicode="M" horiz-adv-x="1253" d="M94 -2v1132q0 35 31 35q19 0 29 -22l473 -1039l471 1039q13 22 30 22q29 0 29 -35v-1132h-61v987l-443 -969q-10 -22 -26 -22q-19 0 -29 22l-440 969v-987h-64z" />
<glyph unicode="N" horiz-adv-x="1253" d="M94 0v1137q0 34 29 34q5 -1 12 -4.5t15 -11.5l946 -1040v1052h61v-1132q0 -35 -27 -35q-15 0 -26 14l-946 1041v-1055h-64z" />
<glyph unicode="O" horiz-adv-x="1253" d="M94 231v701q0 46 20.5 88t56 74t83.5 50.5t102 18.5h539q54 0 101.5 -18.5t83.5 -50.5t56.5 -74t20.5 -88v-701q0 -48 -21 -90t-57 -73.5t-83.5 -49.5t-100.5 -18h-539q-54 0 -101.5 18t-83 49.5t-56.5 73.5t-21 90zM158 231q0 -34 15 -64.5t42 -54t63 -37.5t78 -14h539 q43 0 80 14t64 37.5t42 54t15 64.5v701q0 34 -15 64.5t-42 54t-64 37.5t-80 14h-539q-42 0 -78 -14t-63 -37.5t-42 -54t-15 -64.5v-701z" />
<glyph unicode="P" horiz-adv-x="1253" d="M94 0v1133q0 30 33 30h768q54 0 101.5 -18.5t83.5 -50.5t56.5 -74t20.5 -88v-150q0 -47 -20.5 -89t-55.5 -73.5t-83 -50t-103 -18.5h-569v61h569q43 0 80 14t64 37.5t42 54t15 64.5v150q0 34 -15 64.5t-42 54t-64 37.5t-80 14h-737v-1102h-64z" />
<glyph unicode="Q" horiz-adv-x="1253" d="M94 231v701q0 48 21 90.5t57 73.5t83.5 49t100.5 18h539q53 0 100.5 -18t83.5 -49t57 -73.5t21 -90.5v-701q0 -76 -49 -137l94 -94h-88l-53 53q-71 -53 -166 -53h-539q-53 0 -100.5 18.5t-83.5 50.5t-57 73.5t-21 88.5zM158 231q0 -34 15 -64.5t42 -53.5t63 -36.5 t78 -13.5h539q68 0 121 33l-162 166h84l125 -123q33 43 33 92v701q0 34 -15 65t-42 54.5t-64 37t-80 13.5h-539q-42 0 -78 -13.5t-63 -37t-42 -54.5t-15 -65v-701z" />
<glyph unicode="R" horiz-adv-x="1253" d="M94 0v1133q0 30 33 30h768q53 0 100.5 -18t83.5 -49t57 -73.5t21 -90.5v-150q0 -47 -20.5 -89t-55.5 -73.5t-83 -50t-103 -18.5h-98l467 -551h-86l-463 551h-389v61h569q43 0 80 14t64 37.5t42 54t15 64.5v150q0 34 -15 65t-42 54.5t-64 37t-80 13.5h-737v-1102h-64z" />
<glyph unicode="S" horiz-adv-x="1253" d="M94 0v61h801q43 0 80 14t64 37.5t42 54t15 64.5v150q0 34 -15 64.5t-42 54t-64 37.5t-80 14h-539q-55 0 -103 18.5t-83 50t-55.5 73.5t-20.5 89v150q0 46 20.5 88t56 74t83.5 50.5t102 18.5h572v-61h-572q-42 0 -78 -14t-63 -37.5t-42 -54t-15 -64.5v-150q0 -34 15 -64.5 t42 -54t63 -37.5t78 -14h539q54 0 101.5 -18.5t83.5 -50.5t56.5 -74t20.5 -88v-150q0 -48 -21 -90t-57 -73.5t-83.5 -49.5t-100.5 -18h-801z" />
<glyph unicode="T" horiz-adv-x="1128" d="M33 1102v61h1063v-61h-500v-1102h-64v1102h-499z" />
<glyph unicode="U" horiz-adv-x="1253" d="M94 231v932h64v-932q0 -34 15 -64.5t42 -54t63 -37.5t78 -14h539q43 0 80 14t64 37.5t42 54t15 64.5v932h61v-932q0 -48 -21 -90t-57 -73.5t-83.5 -49.5t-100.5 -18h-539q-54 0 -101.5 18t-83 49.5t-56.5 73.5t-21 90z" />
<glyph unicode="V" horiz-adv-x="1126" d="M16 1163h70l479 -1052l479 1052h66l-516 -1140q-11 -23 -29 -23q-11 0 -17 6t-11 17z" />
<glyph unicode="W" horiz-adv-x="1718" d="M16 1163h66l379 -1036l370 1020q9 27 29 27q18 0 29 -27l371 -1020l376 1036h68l-416 -1138q-9 -25 -28 -25q-20 0 -29 25l-371 1022l-371 -1022q-9 -25 -28 -25q-22 0 -31 25z" />
<glyph unicode="X" horiz-adv-x="954" d="M16 0l424 614l-383 549h80l340 -495l342 495h76l-379 -549l422 -614h-74l-387 559l-387 -559h-74z" />
<glyph unicode="Y" horiz-adv-x="1165" d="M16 1163h80l488 -542l485 542h80l-535 -604v-559h-61v559z" />
<glyph unicode="Z" horiz-adv-x="1137" d="M33 27q0 12 12 24l952 1051h-759v61h829q37 0 37 -26q0 -15 -12 -27l-955 -1049h963v-61h-1032q-35 0 -35 27z" />
<glyph unicode="[" horiz-adv-x="387" d="M94 -340v1563h293v-62h-229v-1440h229v-61h-293z" />
<glyph unicode="\" horiz-adv-x="799" d="M-20 1264h69l772 -1364h-71z" />
<glyph unicode="]" horiz-adv-x="367" d="M0 -279h229v1440h-229v62h293v-1563h-293v61z" />
<glyph unicode="^" horiz-adv-x="891" d="M8 496l412 647q10 16 24 16q17 0 27 -16l412 -647h-74l-365 571l-362 -571h-74z" />
<glyph unicode="_" horiz-adv-x="862" d="M0 -16h862v-62h-862v62z" />
<glyph unicode="`" horiz-adv-x="455" d="M94 1118q0 18 13 29.5t30 11.5h10l9 -3t10 -6t20.5 -17.5t39.5 -38.5t68 -67.5t105 -104.5h-32l-242 147q-14 10 -22.5 18t-8.5 31z" />
<glyph unicode="a" horiz-adv-x="1022" d="M66 207q0 43 16.5 81t45 66t66.5 44t82 16h588v141q0 30 -11.5 56.5t-32 46t-47 31t-56.5 11.5h-471v62h471q43 0 81 -16t67 -44t46 -66t17 -81v-555h-64v82q-61 -82 -147 -82h-441q-43 0 -81 16t-66.5 44t-45.5 65.5t-17 81.5zM127 207q0 -30 12 -56.5t32 -46.5 t47.5 -31.5t57.5 -11.5h441q30 0 56.5 11.5t47 31t32 46t11.5 57.5v143h-588q-31 0 -58 -11.5t-47.5 -31.5t-32 -46t-11.5 -54z" />
<glyph unicode="b" horiz-adv-x="1053" d="M94 0v1163h64v-481q62 80 147 80h440q43 0 81.5 -16t67 -44t45.5 -66t17 -81v-348q0 -44 -16.5 -81.5t-45 -65.5t-67 -44t-82.5 -16h-440q-86 0 -147 82v-82h-64zM158 207q0 -30 11.5 -56.5t32 -46.5t47 -31.5t56.5 -11.5h440q31 0 58.5 11.5t48 31.5t32 46.5t11.5 56.5 v348q0 31 -12 57.5t-32.5 46t-47.5 30.5t-58 11h-440q-31 0 -57.5 -11.5t-46.5 -31t-31.5 -46t-11.5 -56.5v-348z" />
<glyph unicode="c" horiz-adv-x="989" d="M94 207v348q0 43 17 81t45.5 66t67 44t81.5 16h471v-62h-471q-31 0 -57.5 -11.5t-46.5 -31t-31.5 -46t-11.5 -56.5v-348q0 -30 11.5 -56.5t32 -46.5t47 -31.5t56.5 -11.5h651v-61h-651q-42 0 -80 16t-67 44t-46.5 66t-17.5 81z" />
<glyph unicode="d" horiz-adv-x="1053" d="M94 207v348q0 44 18.5 82t48 65.5t67.5 43.5t77 16h440q88 0 150 -80v481h61v-1163h-61v82q-61 -82 -150 -82h-440q-43 0 -81.5 16t-67 44t-45.5 65.5t-17 81.5zM158 207q0 -30 11.5 -56.5t31.5 -46.5t46.5 -31.5t57.5 -11.5h440q31 0 58 11.5t47.5 31.5t32.5 46.5 t12 56.5v348q0 30 -11.5 56.5t-32 46t-48 31t-58.5 11.5h-440q-30 0 -56.5 -11t-47 -30.5t-32 -46t-11.5 -57.5v-348z" />
<glyph unicode="e" horiz-adv-x="1022" d="M94 207v348q0 43 17 81t45.5 66t67 44t81.5 16h440q43 0 81.5 -16t67 -44t45.5 -66t17 -81q0 -42 -16.5 -79.5t-45 -65.5t-67 -44t-82.5 -16h-587v-143q0 -30 11.5 -56.5t32 -46.5t47 -31.5t56.5 -11.5h471v-61h-471q-42 0 -80 16t-67 44t-46.5 66t-17.5 81zM158 412h587 q31 0 58.5 11.5t48 31.5t32 45.5t11.5 54.5q0 31 -12 57.5t-32.5 46t-47.5 30.5t-58 11h-440q-31 0 -57.5 -11.5t-46.5 -31t-31.5 -46t-11.5 -56.5v-143z" />
<glyph unicode="f" horiz-adv-x="449" d="M33 700v62h100v194q0 43 16.5 81t45 66t67 44t82.5 16h72v-61h-72q-31 0 -58 -11.5t-47.5 -31.5t-32 -46.5t-11.5 -56.5v-194h221v-62h-221v-700h-62v700h-100z" />
<glyph unicode="g" horiz-adv-x="1053" d="M94 205v350q0 43 17 81t45.5 66t67 44t81.5 16h440q88 0 150 -80v80h61v-907q0 -43 -17 -80.5t-45.5 -65t-67 -43.5t-81.5 -16h-471v61h471q31 0 58 11t47.5 30.5t32.5 46t12 56.5v225q-62 -80 -150 -80h-440q-41 0 -79 15.5t-67 43t-47 65t-18 81.5zM158 205 q0 -30 11.5 -56.5t32 -46t47 -30.5t56.5 -11h440q31 0 58.5 11t48 30.5t32 46t11.5 56.5v350q0 30 -12 56.5t-32.5 46t-47.5 31t-58 11.5h-440q-31 0 -57.5 -11.5t-46.5 -31t-31.5 -46t-11.5 -56.5v-350z" />
<glyph unicode="h" horiz-adv-x="993" d="M94 0v1163h64v-481q62 80 147 80h383q43 0 81.5 -16t67 -44t45.5 -66t17 -81v-555h-61v555q0 31 -12 57.5t-32.5 46t-47.5 30.5t-58 11h-383q-31 0 -57.5 -11.5t-46.5 -31t-31.5 -46t-11.5 -56.5v-555h-64z" />
<glyph unicode="i" horiz-adv-x="254" d="M78 913q0 50 49 50t49 -50q0 -51 -49 -51t-49 51zM94 0v762h64v-762h-64z" />
<glyph unicode="j" horiz-adv-x="252" d="M-72 -168h72q31 0 49.5 11.5t28.5 31.5t13 46t3 56v785h64v-785q0 -43 -8.5 -80.5t-27.5 -65.5t-49 -44t-73 -16h-72v61zM78 913q0 50 49 50t49 -50q0 -51 -49 -51t-49 51z" />
<glyph unicode="k" horiz-adv-x="815" d="M94 0v1163h64v-723l458 324h107l-457 -322l549 -442h-98l-504 406l-55 -39v-367h-64z" />
<glyph unicode="l" horiz-adv-x="252" d="M94 0v1163h64v-1163h-64z" />
<glyph unicode="m" horiz-adv-x="1452" d="M94 0v762h64v-80q62 80 147 80h242q116 0 178 -98q65 98 180 98h242q43 0 81.5 -16t67 -44t45.5 -66t17 -81v-555h-62v555q0 30 -12 56.5t-32.5 46t-47.5 31t-57 11.5h-242q-30 0 -56.5 -11.5t-47 -31t-32 -46t-11.5 -56.5v-555h-64v555q0 30 -11.5 56.5t-32 46t-47 31 t-56.5 11.5h-242q-31 0 -57.5 -11.5t-46.5 -31t-31.5 -46t-11.5 -56.5v-555h-64z" />
<glyph unicode="n" horiz-adv-x="991" d="M94 0v762h64v-80q62 80 147 80h381q43 0 81.5 -16t67 -44t45.5 -66t17 -81v-555h-61v555q0 31 -12 57.5t-32.5 46t-47.5 30.5t-58 11h-381q-31 0 -57.5 -11.5t-46.5 -31t-31.5 -46t-11.5 -56.5v-555h-64z" />
<glyph unicode="o" horiz-adv-x="1053" d="M94 207v348q0 43 17 81t45.5 66t67 44t81.5 16h440q43 0 81.5 -16t67 -44t45.5 -66t17 -81v-348q0 -44 -16.5 -81.5t-45 -65.5t-67 -44t-82.5 -16h-440q-42 0 -80 16t-67 44t-46.5 66t-17.5 81zM158 207q0 -30 11.5 -56.5t32 -46.5t47 -31.5t56.5 -11.5h440 q31 0 58.5 11.5t48 31.5t32 46.5t11.5 56.5v348q0 31 -12 57.5t-32.5 46t-47.5 30.5t-58 11h-440q-31 0 -57.5 -11.5t-46.5 -31t-31.5 -46t-11.5 -56.5v-348z" />
<glyph unicode="p" horiz-adv-x="1053" d="M94 -401v1163h64v-80q62 80 147 80h440q44 0 82.5 -16t67 -44t45 -66t16.5 -81v-350q0 -43 -17 -80.5t-45.5 -65t-67 -43.5t-81.5 -16h-440q-85 0 -147 80v-481h-64zM158 205q0 -30 11.5 -56.5t31.5 -46t46.5 -30.5t57.5 -11h440q31 0 58 11t47.5 30.5t32.5 46t12 56.5 v350q0 30 -11.5 56.5t-32 46t-48 31t-58.5 11.5h-440q-30 0 -56.5 -11.5t-47 -31t-32 -46t-11.5 -56.5v-350z" />
<glyph unicode="q" horiz-adv-x="1053" d="M94 207v348q0 43 17 81t45.5 66t67 44t81.5 16h440q88 0 150 -80v80h61v-1161h-61v481q-61 -82 -150 -82h-440q-42 0 -80 16t-67 44t-46.5 66t-17.5 81zM158 207q0 -30 11.5 -56.5t32 -46.5t47 -31.5t56.5 -11.5h440q31 0 58.5 11.5t48 31.5t32 46.5t11.5 56.5v348 q0 30 -12 56.5t-32.5 46t-47.5 31t-58 11.5h-440q-31 0 -57.5 -11.5t-46.5 -31t-31.5 -46t-11.5 -56.5v-348z" />
<glyph unicode="r" horiz-adv-x="510" d="M94 0v762h64v-80q62 80 147 80h172v-62h-172q-30 0 -56.5 -11t-47 -30.5t-32 -46t-11.5 -57.5v-555h-64z" />
<glyph unicode="s" horiz-adv-x="991" d="M66 0v61h651q30 0 56.5 11.5t47 31.5t32 46.5t11.5 56.5q0 28 -11.5 54t-31.5 46t-46.5 31.5t-57.5 11.5h-441q-44 0 -82 16t-66.5 44t-45 65.5t-16.5 79.5q0 43 17 81t45.5 66t66.5 44t81 16h472v-62h-472q-30 0 -57.5 -11t-47.5 -30.5t-32 -46t-12 -57.5 q0 -29 11.5 -54.5t32 -45.5t47.5 -31.5t58 -11.5h441q41 0 79 -16.5t67.5 -44.5t47 -65t17.5 -79q0 -44 -17 -81.5t-46 -65.5t-67 -44t-81 -16h-651z" />
<glyph unicode="t" horiz-adv-x="449" d="M33 700v62h100v225h62v-225h221v-62h-221v-700h-62v700h-100z" />
<glyph unicode="u" horiz-adv-x="991" d="M94 207v555h64v-555q0 -30 11.5 -56.5t32 -46.5t47 -31.5t56.5 -11.5h381q31 0 58 11.5t47.5 31.5t32.5 46.5t12 56.5v555h61v-762h-61v80q-65 -80 -150 -80h-381q-42 0 -80 16t-67 44t-46.5 66t-17.5 81z" />
<glyph unicode="v" horiz-adv-x="727" d="M16 762h68l281 -653l278 653h68l-320 -744q-11 -24 -26 -24q-19 0 -29 24z" />
<glyph unicode="w" horiz-adv-x="1327" d="M16 762h70l279 -651l270 634q9 23 29 23q17 0 28 -23l273 -634l278 653h70l-322 -744q-11 -24 -26 -24q-19 0 -29 24l-272 633l-273 -633q-11 -24 -26 -24q-19 0 -29 24z" />
<glyph unicode="x" horiz-adv-x="631" d="M8 0l271 412l-232 350h76l192 -293l193 293h76l-232 -350l271 -412h-74l-234 354l-233 -354h-74z" />
<glyph unicode="y" horiz-adv-x="727" d="M16 762h68l278 -653l281 653h68l-318 -739q0 -7 -4 -11l-176 -413h-68l185 430z" />
<glyph unicode="z" horiz-adv-x="938" d="M33 27q0 15 14 26l739 647h-579v62h661q35 0 35 -27q0 -15 -14 -26l-737 -648h747v-61h-831q-35 0 -35 27z" />
<glyph unicode="{" horiz-adv-x="434" d="M33 444q0 9 2 11q18 30 37 61.5t34.5 64t26 66.5t10.5 70v274q0 46 21 88.5t56.5 74t82.5 50.5t100 19h31v-64h-31q-42 0 -78 -13.5t-63 -36.5t-42 -53.5t-15 -64.5v-274q0 -40 -8 -77t-25 -71l-74 -129q19 -33 38 -64.5t34.5 -64.5t25 -68.5t9.5 -76.5v-275 q0 -34 15 -64.5t42 -54t63 -37.5t78 -14h31v-61h-31q-51 0 -98 18t-83 49.5t-57.5 73.5t-21.5 90v275q0 73 -55 168q-29 49 -42 76t-13 34z" />
<glyph unicode="|" horiz-adv-x="252" d="M94 -102v1366h64v-1366h-64z" />
<glyph unicode="}" horiz-adv-x="434" d="M0 -279h31q42 0 78 14t63 37.5t42 54t15 64.5v275q0 41 9.5 76.5t24.5 68.5t34.5 64.5t40.5 64.5q-21 33 -40.5 64.5t-34.5 65t-24.5 70t-9.5 77.5v274q0 34 -15 64.5t-42 53.5t-63 36.5t-78 13.5h-31v64h31q54 0 101.5 -19t83 -50.5t56.5 -74t21 -88.5v-274 q0 -37 10 -71t25.5 -66.5t34.5 -63.5t36 -61q2 -2 2 -11q0 -8 -14 -34t-41 -76q-53 -98 -53 -168v-275q0 -48 -21.5 -90.5t-57.5 -73.5t-83.5 -49t-99.5 -18h-31v61z" />
<glyph unicode="~" horiz-adv-x="891" d="M20 567q14 39 17 43q18 45 42 82.5t52.5 63.5t59.5 40.5t61 14.5q80 0 207 -92q61 -45 105.5 -66.5t76.5 -21.5q26 0 52 13t47.5 34.5t37 49t19.5 56.5l2 27h61l-4 -35q-5 -45 -24 -83t-48.5 -65t-66.5 -42t-78 -15q-55 0 -107 27q-3 0 -135 90q-91 62 -145 62 q-18 0 -39.5 -11.5t-43 -32.5t-41.5 -51t-36 -67l-6 -21h-66z" />
<glyph unicode="&#xad;" horiz-adv-x="1053" d="M94 463v61h862v-61h-862z" />
<glyph unicode="&#xde;" horiz-adv-x="719" d="M-13 674q1 46 28 86t69 57q38 16 76 19.5t78 -10.5q5 -2 10.5 -1.5t10.5 -1.5q57 -13 102.5 -42t70.5 -84q11 -22 15 -47.5t6 -50.5q5 -52 7 -104t5 -104q3 -53 6 -105t5 -105q1 -16 1.5 -24.5t4.5 -13t14 -6.5t29 -4q16 -2 32 0.5t32 4.5q30 3 32 33v52.5t-2 52.5 q-2 46 -5 91.5t-3 92.5q1 38 4 75t8 75q4 28 0 53t-12 50q-8 30 -8 57q0 24 16 36.5t40 10.5q22 -2 32.5 -17.5t8.5 -38.5q-6 -52 -11 -104l-10 -104q-3 -35 -5.5 -68.5t-4.5 -68.5q-1 -18 -0.5 -36t2.5 -36q9 -63 10 -126t-1 -126q0 -12 -6 -21.5t-15.5 -15.5t-20.5 -7.5 t-22 3.5q-19 8 -35 6t-34 -9q-21 -8 -41.5 -16t-40.5 -19q-15 -8 -30.5 -6t-28 11t-20 23.5t-6.5 31.5q0 6 1.5 12t1.5 12q2 26 3 51t5 50q6 38 7 76.5t-1.5 76.5t-6.5 76t-7 76q-3 42 -11 82.5t-17 81.5q-2 11 -13 23t-25 22t-29.5 15.5t-27.5 3.5q-36 -5 -72 -4.5t-72 2.5 q-29 1 -46 -23q-10 -15 -4.5 -27.5t22.5 -14.5q9 -2 18 -1t18 1q11 0 21.5 1.5t21.5 -0.5q15 -3 28 -9t18 -25t0 -34t-20 -23q-36 -19 -43 -49t-3 -62q7 -60 12.5 -119t25.5 -116q5 -14 8 -29.5t7 -30.5q2 0 3.5 0.5t3.5 0.5q0 8 0.5 17t-0.5 17q-1 30 -2 59.5t-1 59.5 q0 38 27 46q20 5 38.5 -2.5t25.5 -25.5q5 -14 7 -29t3 -30q2 -43 3 -85.5t3 -84.5q1 -19 -7 -37t-21.5 -31.5t-31 -21.5t-35.5 -6q-22 2 -32.5 16t-15.5 31q-7 23 -12 45.5t-11 45.5q-10 38 -20 74.5t-20 74.5q-6 21 -11.5 42t-7.5 43q-2 38 -2 75.5t-1 75.5v49 q-17 8 -32.5 16t-30.5 16q-18 8 -25.5 21.5t-7.5 33.5zM404 -240q-5 33 7 60t31 52q10 12 20.5 23t20.5 23q14 17 32 21t37 2q16 -2 28.5 -10t18.5 -25q4 -11 7.5 -22.5t3.5 -22.5q1 -44 -6 -87t-40 -78q-4 -5 -7.5 -10t-7.5 -10q-2 -2 -2 -5t-1 -8q6 2 11.5 4t10.5 1 q32 -5 47.5 9.5t21.5 43.5q1 1 1 2t1 2q7 13 14 25.5t27 11.5q19 -2 30 -12t18 -26q15 -35 1.5 -63t-50.5 -36q-12 -2 -22.5 -6.5t-15.5 -16.5q-11 -27 -32 -37t-46 -11q-30 -1 -54 3.5t-42.5 17t-31.5 36t-21 60.5q-5 22 -6 44t-4 45zM467.5 -229q-2.5 -15 2.5 -26 q2 -4 6.5 -7t8.5 -4q3 -1 7.5 1.5t6.5 6.5q9 17 18 34.5t17 35.5q2 6 1.5 13.5t0.5 15.5q-7 0 -11.5 0.5t-8.5 -0.5q-12 -4 -22 -15.5t-17 -25.5t-9.5 -29z" />
<glyph unicode="&#xe0d;" horiz-adv-x="719" d="M-13 674q1 46 28 86t69 57q38 16 76 19.5t78 -10.5q5 -2 10.5 -1.5t10.5 -1.5q57 -13 102.5 -42t70.5 -84q11 -22 15 -47.5t6 -50.5q5 -52 7 -104t5 -104q3 -53 6 -105t5 -105q1 -16 1.5 -24.5t4.5 -13t14 -6.5t29 -4q16 -2 32 0.5t32 4.5q30 3 32 33v52.5t-2 52.5 q-2 46 -5 91.5t-3 92.5q1 38 4 75t8 75q4 28 0 53t-12 50q-8 30 -8 57q0 24 16 36.5t40 10.5q22 -2 32.5 -17.5t8.5 -38.5q-6 -52 -11 -104l-10 -104q-3 -35 -5.5 -68.5t-4.5 -68.5q-1 -18 -0.5 -36t2.5 -36q9 -63 10 -126t-1 -126q0 -12 -6 -21.5t-15.5 -15.5t-20.5 -7.5 t-22 3.5q-19 8 -35 6t-34 -9q-21 -8 -41.5 -16t-40.5 -19q-15 -8 -30.5 -6t-28 11t-20 23.5t-6.5 31.5q0 6 1.5 12t1.5 12q2 26 3 51t5 50q6 38 7 76.5t-1.5 76.5t-6.5 76t-7 76q-3 42 -11 82.5t-17 81.5q-2 11 -13 23t-25 22t-29.5 15.5t-27.5 3.5q-36 -5 -72 -4.5t-72 2.5 q-29 1 -46 -23q-10 -15 -4.5 -27.5t22.5 -14.5q9 -2 18 -1t18 1q11 0 21.5 1.5t21.5 -0.5q15 -3 28 -9t18 -25t0 -34t-20 -23q-36 -19 -43 -49t-3 -62q7 -60 12.5 -119t25.5 -116q5 -14 8 -29.5t7 -30.5q2 0 3.5 0.5t3.5 0.5q0 8 0.5 17t-0.5 17q-1 30 -2 59.5t-1 59.5 q0 38 27 46q20 5 38.5 -2.5t25.5 -25.5q5 -14 7 -29t3 -30q2 -43 3 -85.5t3 -84.5q1 -19 -7 -37t-21.5 -31.5t-31 -21.5t-35.5 -6q-22 2 -32.5 16t-15.5 31q-7 23 -12 45.5t-11 45.5q-10 38 -20 74.5t-20 74.5q-6 21 -11.5 42t-7.5 43q-2 38 -2 75.5t-1 75.5v49 q-17 8 -32.5 16t-30.5 16q-18 8 -25.5 21.5t-7.5 33.5zM404 -240q-5 33 7 60t31 52q10 12 20.5 23t20.5 23q14 17 32 21t37 2q16 -2 28.5 -10t18.5 -25q4 -11 7.5 -22.5t3.5 -22.5q1 -44 -6 -87t-40 -78q-4 -5 -7.5 -10t-7.5 -10q-2 -2 -2 -5t-1 -8q6 2 11.5 4t10.5 1 q32 -5 47.5 9.5t21.5 43.5q1 1 1 2t1 2q7 13 14 25.5t27 11.5q19 -2 30 -12t18 -26q15 -35 1.5 -63t-50.5 -36q-12 -2 -22.5 -6.5t-15.5 -16.5q-11 -27 -32 -37t-46 -11q-30 -1 -54 3.5t-42.5 17t-31.5 36t-21 60.5q-5 22 -6 44t-4 45zM467.5 -229q-2.5 -15 2.5 -26 q2 -4 6.5 -7t8.5 -4q3 -1 7.5 1.5t6.5 6.5q9 17 18 34.5t17 35.5q2 6 1.5 13.5t0.5 15.5q-7 0 -11.5 0.5t-8.5 -0.5q-12 -4 -22 -15.5t-17 -25.5t-9.5 -29z" />
<glyph unicode="&#xff;" horiz-adv-x="1942" d="M289 0v68v25v15.5t2 14.5q39 240 139 303q55 34 96 51q32 17 82 41t119 53q8 3 31 5.5t57 25.5v27v7q0 7 -2 11q-20 42 -20 49v2q7 0 11 -10q2 -4 3 -10q4 -13 14.5 -26t25 -26t31.5 -26t33 -25q46 -18 82 -18q18 0 51 8.5t70 28t70 52t51 81.5q0 -24 -31 -76 q-6 -4 -11 -8t-9.5 -10.5t-7 -17.5t-2.5 -29q0 -7 2 -13h4q20 0 35 -1.5t26 -6.5q209 -76 336 -209q80 -98 80 -264l-2 -53v-17v-11.5t2 -10.5h-1368zM666 1061v49q8 11 17 25t22 34h8q4 0 4 2v17q55 18 67 123q26 12 45.5 19t22.5 24q14 0 25 10q17 -14 49 -14q0 11 28 30 q6 -12 21 -30q5 11 9 21t9 18h13q5 0 20 18q25 0 69 -8t107 -25q6 -10 17 -19.5t22.5 -18t22 -15t14.5 -10.5q5 -20 16.5 -54t24 -69.5t23.5 -65.5t14 -41q0 -19 -5 -45t-11.5 -53t-12 -51.5t-6.5 -40.5l-8 12q-9 -7 -20 -27t-20.5 -41.5t-16 -39t-7.5 -19.5v182 q-21 21 -43 115q-56 98 -188 98q-150 0 -187 -120l-57 -103v-207h-18q-2 28 -5 59.5t-7 62t-10.5 56.5t-16.5 44q-4 -11 -8 -33l-9 33q-4 -12 -4 -25q0 -9 3.5 -23t7 -29t7 -29t3.5 -23q-26 35 -38.5 91.5t-12.5 135.5zM707 905v8q6 0 6 -4t-6 -4zM735 555q15 -144 203 -240 q10 0 26.5 -0.5t36.5 1.5t41 8t39 20q25 19 40.5 29.5t23.5 15.5q2 9 14.5 23t38.5 32q51 36 51 76q-5 20 -18.5 28.5t-36.5 8.5q-6 0 -6 -6t4 -18t10 -21q-32 -75 -90 -113q5 13 8.5 26t16.5 13q1 4 4 18t6 31t5.5 33t2.5 25q0 26 -8 39q-92 -56 -154 -56q-19 0 -35.5 5.5 t-35 16t-41 26.5t-52.5 38q3 -21 5 -21v1q0 -7 -15 -10q2 -11 2 -26.5t2 -35.5q-12 12 -43 21zM735 1217v6q6 0 6 -4q0 -2 -6 -2zM776 735v6q8 0 8 -4q0 -2 -8 -2zM784 705v20q9 -3 9 -20h-9zM784 1245q9 0 9 6q0 9 -9 9v-15zM821 975q2 2 4 2l2 4q13 12 41 12q22 0 41.5 -6 t42.5 -20q-5 -2 -9 -2h-9h-50t-63 10zM836 922q6 3 17.5 12.5t35.5 9.5q40 0 53 -10l10 -10l4 -11q0 -3 -17.5 -11t-39.5 -11l35 10q2 2 2 4.5t2 5.5h-4q-8 0 -25.5 3.5t-25.5 3.5q-36 0 -47 4zM860 926h6q5 0 17 -3t20 -3q-12 3 -12 10t10 10h-16q-9 -4 -25 -14zM883 737 q4 0 12.5 0.5t18.5 1.5t20 1.5t16 0.5t14.5 -1.5t16.5 -3.5l14 -3.5t9 -1.5q8 0 28 2t31 2t29 -5.5t23 -5.5l1 1q0 -13 -16.5 -26.5t-36.5 -24t-39 -17t-23 -6.5q-5 0 -15 1t-25 3q-12 0 -25.5 8.5t-25 21t-19.5 27t-8 25.5zM907 727q3 -9 19 -25q9 -2 30 -7t41 -5 q8 0 27.5 2t32.5 2q3 0 9 3.5t11.5 8t10 9t4.5 6.5q0 4 -19 4q-2 0 -9.5 -0.5t-17 -1.5t-19 -1.5t-15.5 -0.5q-9 0 -14 1.5t-11 3.5t-17 3.5t-32 1.5q-2 0 -12 -2t-15 -2h-4zM909 920q13 -2 21 -2h12h2h-2h2l-4 8q-5 5 -14 8l-4 4q2 -2 2 -4t2 -4q0 -7 -17 -10zM916 929 q0 -5 4 -5q6 0 6 5q0 3 -6 3q-4 0 -4 -3zM956 799q0 2 7 2q5 0 9.5 -3t4.5 -5h-4h-6l-2 2q-9 0 -9 4zM967 672h4l2 -2q0 -2 1 -2t3 -2h10l2 4l-2 2l-12 2l-6 2zM973 905v17q8 0 8 -9q0 -8 -8 -8zM1001 670h17l4 2l2 2v4h-8l-2 -2h-8h-5v-6zM1040 788l17 5q4 0 6 -2l4 -3h-27 zM1067 1384q0 -4 12 -10q2 2 3.5 6t4.5 9q-20 0 -20 -5zM1069 901l16 14q7 6 12 9.5t11 3.5q20 0 33 -3.5t21.5 -7.5t13 -8.5t6.5 -5.5l8 -8h-64q-15 0 -27 2t-20 4h-10zM1081 903h25q2 0 8.5 -1t11.5 -1q9 0 17 1t10 1h4q2 -2 19 -2q-9 0 -13 3.5t-9 8t-15 8t-29 3.5 q-7 0 -11.5 -6t-17.5 -15zM1085 952q16 19 27 19h35.5t44.5 -10q2 0 4 -3q13 -5 15.5 -7.5t7.5 -8.5q-6 -2 -21 -2q-5 0 -8.5 0.5t-8.5 1.5t-14.5 3.5t-27.5 6.5q-23 6 -31 6h-12q-3 -2 -6 -3t-5 -3zM1102 1374q14 0 14 8q0 7 -14 7v-15zM1106 911q0 11 18 11q19 0 19 -11 q0 -8 -19 -8q-18 0 -18 8zM1108 911q0 -4 4 -4q6 0 6 4q-4 4 -6 4q-4 0 -4 -4zM1110 879v6q12 0 12 -2q-4 -4 -12 -4zM1235 1319l25 -39q16 0 16 10q0 8 -13.5 18.5t-25.5 10.5h-2zM1239 735q3 20 10 27v-10q0 -14 -10 -17zM1311 864v6q6 0 8 -2q-4 -4 -8 -4z" />
<glyph unicode="&#x152;" d="M-298.5 1201.5q-0.5 18.5 15.5 31.5h-1q2 2 7.5 6.5t12.5 9.5q15 8 29.5 9.5t29.5 -0.5l16 -6q13 -5 20 -18q6 -9 12.5 -19.5t9.5 -22.5l-1 1l1 -6q5 9 10.5 18.5t11.5 18.5l6 11q4 7 7.5 13.5t5.5 8.5v-2l27 37l19 28l-1 -1l3 4.5t3 3.5l6 8q3 5 8 11.5t9 10.5l3 5v-1 q3 12 13.5 19t24.5 3q12 -4 19 -12t4 -19q-3 -12 -9 -18q-7 -3 -11.5 -8.5t-8.5 -11.5l-5 -6v1q-12 -13 -23 -28t-22 -31t-21 -30.5t-20 -31.5v1q-6 -10 -11 -20.5t-9 -22.5q-6 -17 -9 -40q-1 -3 -0.5 -4t0 -3t-1.5 -8t-5 -19l-2 -17q-6 -20 -20 -28t-30 1l1 -1 q-11 4 -14.5 12.5t-3.5 17.5q0 5 0.5 10t1.5 10q2 9 3 19.5t1 17.5q0 18 -4 34q-13 -10 -32 -11.5t-34 7.5q-5 2 -9.5 7t-9.5 10l-8 9h1q-15 13 -15.5 31.5zM-228 1188h2v-1q-1 1 -2 1zM-226 1188l3 2l7 2l-6 -1v3q0 5 1 8h-1v2v3q0 -2 -0.5 -2.5t-0.5 -1.5v-1h-2h2 q0 -7 -3 -14zM-221 1202q2 2 2 4q1 2 1 4l7 -12q-2 2 -5 2.5t-5 1.5z" />
<glyph unicode="&#xf70b;" d="M-298.5 1201.5q-0.5 18.5 15.5 31.5h-1q2 2 7.5 6.5t12.5 9.5q15 8 29.5 9.5t29.5 -0.5l16 -6q13 -5 20 -18q6 -9 12.5 -19.5t9.5 -22.5l-1 1l1 -6q5 9 10.5 18.5t11.5 18.5l6 11q4 7 7.5 13.5t5.5 8.5v-2l27 37l19 28l-1 -1l3 4.5t3 3.5l6 8q3 5 8 11.5t9 10.5l3 5v-1 q3 12 13.5 19t24.5 3q12 -4 19 -12t4 -19q-3 -12 -9 -18q-7 -3 -11.5 -8.5t-8.5 -11.5l-5 -6v1q-12 -13 -23 -28t-22 -31t-21 -30.5t-20 -31.5v1q-6 -10 -11 -20.5t-9 -22.5q-6 -17 -9 -40q-1 -3 -0.5 -4t0 -3t-1.5 -8t-5 -19l-2 -17q-6 -20 -20 -28t-30 1l1 -1 q-11 4 -14.5 12.5t-3.5 17.5q0 5 0.5 10t1.5 10q2 9 3 19.5t1 17.5q0 18 -4 34q-13 -10 -32 -11.5t-34 7.5q-5 2 -9.5 7t-9.5 10l-8 9h1q-15 13 -15.5 31.5zM-228 1188h2v-1q-1 1 -2 1zM-226 1188l3 2l7 2l-6 -1v3q0 5 1 8h-1v2v3q0 -2 -0.5 -2.5t-0.5 -1.5v-1h-2h2 q0 -7 -3 -14zM-221 1202q2 2 2 4q1 2 1 4l7 -12q-2 2 -5 2.5t-5 1.5z" />
<glyph unicode="&#x153;" d="M-518.5 1424q-0.5 18 15.5 31h-1q2 2 7.5 6.5t12.5 9.5q27 14 58 8l16 -6q11 -3 19 -17q7 -9 13 -19.5t9 -21.5l-1 1l1 -6q9 16 22 36l6 11q4 7 7.5 13t5.5 8v-2l27 37l18 28l-1 -1l3 4.5t3 3.5l6 7q3 5 8 12t9 10l3 5v-1q3 13 13.5 19.5t23.5 2.5q12 -3 19 -11t4 -19 q-3 -13 -9 -19q-12 -5 -19 -19l-5 -6v1q-13 -13 -23.5 -27.5t-21.5 -30.5t-20.5 -30.5t-20.5 -30.5v1q-12 -21 -19 -42q-6 -18 -9 -40q-1 -3 -0.5 -4t0 -3.5t-1.5 -8t-5 -18.5l-2 -17q-6 -19 -19.5 -27t-30.5 0l1 -1q-10 5 -13.5 13t-3.5 17q0 5 0.5 10t1.5 10q2 9 3 19 t1 18q0 17 -4 33q-13 -10 -31.5 -11.5t-33.5 7.5q-5 2 -9.5 7t-9.5 10l-8 9h1q-15 13 -15.5 31zM-449 1411h2v-1q-1 1 -2 1zM-447 1411l3 2l7 2l-6 -1v3q0 4 1 7h-1v2v3q0 -2 -0.5 -2.5t-0.5 -1.5v-1h-2h2q0 -6 -3 -13zM-442 1424q2 2 2 4q1 2 1 4l7 -11q-2 1 -5 1.5t-5 1.5 z" />
<glyph unicode="&#xf714;" d="M-518.5 1424q-0.5 18 15.5 31h-1q2 2 7.5 6.5t12.5 9.5q27 14 58 8l16 -6q11 -3 19 -17q7 -9 13 -19.5t9 -21.5l-1 1l1 -6q9 16 22 36l6 11q4 7 7.5 13t5.5 8v-2l27 37l18 28l-1 -1l3 4.5t3 3.5l6 7q3 5 8 12t9 10l3 5v-1q3 13 13.5 19.5t23.5 2.5q12 -3 19 -11t4 -19 q-3 -13 -9 -19q-12 -5 -19 -19l-5 -6v1q-13 -13 -23.5 -27.5t-21.5 -30.5t-20.5 -30.5t-20.5 -30.5v1q-12 -21 -19 -42q-6 -18 -9 -40q-1 -3 -0.5 -4t0 -3.5t-1.5 -8t-5 -18.5l-2 -17q-6 -19 -19.5 -27t-30.5 0l1 -1q-10 5 -13.5 13t-3.5 17q0 5 0.5 10t1.5 10q2 9 3 19 t1 18q0 17 -4 33q-13 -10 -31.5 -11.5t-33.5 7.5q-5 2 -9.5 7t-9.5 10l-8 9h1q-15 13 -15.5 31zM-449 1411h2v-1q-1 1 -2 1zM-447 1411l3 2l7 2l-6 -1v3q0 4 1 7h-1v2v3q0 -2 -0.5 -2.5t-0.5 -1.5v-1h-2h2q0 -6 -3 -13zM-442 1424q2 2 2 4q1 2 1 4l7 -11q-2 1 -5 1.5t-5 1.5 z" />
<glyph unicode="&#x160;" d="M-534 1042q-1 37 29 64l3 4l28 30q0 -6 -2 -14.5t-7 -10.5q2 0 5 1q25 0 37 -14q7 16 15.5 30.5t18.5 28.5q13 19 23 33.5t17 22.5q9 11 21 23t27 25q5 5 12.5 10t15.5 10l9 7h-1l10 7q6 5 13.5 8t18.5 0l-1 1q8 -2 14.5 -9t7.5 -15q2 -10 -5.5 -20t-17.5 -13 q-1 0 -3 -0.5t-4 -0.5q-8 0 -15.5 -4.5t-15.5 -9.5q-23 -17 -42.5 -39.5t-37.5 -47.5q-12 -17 -22 -34t-15 -37q-5 -16 4 -29q5 -11 9.5 -21t6.5 -22q1 -3 1 -6.5v-6.5q-3 -20 -23 -23q-10 -2 -18.5 1.5t-12.5 11.5q-4 6 -5 11q-1 11 -5 20t-9 17q-4 8 -9 16t-14 12 q-2 0 -2 0.5t-1 0.5h-1v-1q-8 -11 -6 -28q1 -11 1.5 -21.5t1.5 -20.5q11 3 22.5 -2t15.5 -19v1q2 -4 3 -9.5t3 -11.5q1 -8 1 -17.5v-17.5t0.5 -16t0.5 -16t-2 -16q-5 -21 -22 -28t-34 7q-9 7 -13 16t-6 17l-5 22q-4 14 -6.5 32t-4.5 35q-2 13 -3.5 28t-2.5 30v8.5t-1 9.5z M-482 927v4h29q0 -1 -0.5 -3.5t-0.5 -3.5q-2 -6 -2 -10.5t3 -8.5l-28 -8q0 8 -0.5 15t-0.5 15z" />
<glyph unicode="&#xf709;" d="M-534 1042q-1 37 29 64l3 4l28 30q0 -6 -2 -14.5t-7 -10.5q2 0 5 1q25 0 37 -14q7 16 15.5 30.5t18.5 28.5q13 19 23 33.5t17 22.5q9 11 21 23t27 25q5 5 12.5 10t15.5 10l9 7h-1l10 7q6 5 13.5 8t18.5 0l-1 1q8 -2 14.5 -9t7.5 -15q2 -10 -5.5 -20t-17.5 -13 q-1 0 -3 -0.5t-4 -0.5q-8 0 -15.5 -4.5t-15.5 -9.5q-23 -17 -42.5 -39.5t-37.5 -47.5q-12 -17 -22 -34t-15 -37q-5 -16 4 -29q5 -11 9.5 -21t6.5 -22q1 -3 1 -6.5v-6.5q-3 -20 -23 -23q-10 -2 -18.5 1.5t-12.5 11.5q-4 6 -5 11q-1 11 -5 20t-9 17q-4 8 -9 16t-14 12 q-2 0 -2 0.5t-1 0.5h-1v-1q-8 -11 -6 -28q1 -11 1.5 -21.5t1.5 -20.5q11 3 22.5 -2t15.5 -19v1q2 -4 3 -9.5t3 -11.5q1 -8 1 -17.5v-17.5t0.5 -16t0.5 -16t-2 -16q-5 -21 -22 -28t-34 7q-9 7 -13 16t-6 17l-5 22q-4 14 -6.5 32t-4.5 35q-2 13 -3.5 28t-2.5 30v8.5t-1 9.5z M-482 927v4h29q0 -1 -0.5 -3.5t-0.5 -3.5q-2 -6 -2 -10.5t3 -8.5l-28 -8q0 8 -0.5 15t-0.5 15z" />
<glyph unicode="&#x161;" d="M-486 1276q-9 23 7 36q19 16 39 1q7 -5 12.5 -11.5t11.5 -12.5q14 -14 25.5 -13t21.5 19q8 15 12.5 31t-3.5 34q-8 21 3 41q16 30 43 21q34 -10 30 -43q-1 -8 -3.5 -16.5t-5.5 -16.5q-9 -23 -18 -44.5t-18 -43.5q-1 -3 -1 -5.5t-1 -4.5q17 -8 27 -14.5t15.5 -15.5t7 -21 t1.5 -31q-1 -15 -0.5 -30.5t0.5 -30.5v-17t-2 -17q-5 -30 -37 -33q-23 -3 -37 23q-2 4 -4.5 8t-5.5 8q-1 2 -9 6q-1 -10 -1.5 -18.5t-2.5 -16.5q-2 -18 -12.5 -28.5t-25.5 -12.5q-15 -1 -25 7t-12 23q-2 14 -1 29t0 29q0 47 -6 92t-25 89zM-411 1210l5.5 -22t4.5 -21 q13 4 27 7q0 12 -0.5 21.5t-0.5 18.5q-9 -1 -17.5 -2t-18.5 -2z" />
<glyph unicode="&#xf712;" d="M-486 1276q-9 23 7 36q19 16 39 1q7 -5 12.5 -11.5t11.5 -12.5q14 -14 25.5 -13t21.5 19q8 15 12.5 31t-3.5 34q-8 21 3 41q16 30 43 21q34 -10 30 -43q-1 -8 -3.5 -16.5t-5.5 -16.5q-9 -23 -18 -44.5t-18 -43.5q-1 -3 -1 -5.5t-1 -4.5q17 -8 27 -14.5t15.5 -15.5t7 -21 t1.5 -31q-1 -15 -0.5 -30.5t0.5 -30.5v-17t-2 -17q-5 -30 -37 -33q-23 -3 -37 23q-2 4 -4.5 8t-5.5 8q-1 2 -9 6q-1 -10 -1.5 -18.5t-2.5 -16.5q-2 -18 -12.5 -28.5t-25.5 -12.5q-15 -1 -25 7t-12 23q-2 14 -1 29t0 29q0 47 -6 92t-25 89zM-411 1210l5.5 -22t4.5 -21 q13 4 27 7q0 12 -0.5 21.5t-0.5 18.5q-9 -1 -17.5 -2t-18.5 -2z" />
<glyph unicode="&#x178;" d="M-437 1462q-1 38 29 65l3 4l28 29q0 -6 -2.5 -14.5t-7.5 -10.5q3 0 6 1q24 0 37 -14q7 16 15.5 30.5t17.5 28.5q14 20 24 34t16 22q10 11 22 23t27 26q5 4 12 9t15 10l10 7h-1l10 7q6 6 13.5 8.5t18.5 -0.5l-1 1q8 -1 14.5 -8.5t7.5 -15.5q1 -10 -6 -20t-17 -13 q-1 0 -3 -0.5t-5 -0.5q-8 0 -15 -4.5t-15 -9.5q-23 -17 -42.5 -39.5t-37.5 -46.5q-12 -17 -22 -34.5t-15 -37.5q-2 -6 -1.5 -13.5t5.5 -15.5q5 -11 9.5 -21t6.5 -22q1 -3 1 -6.5v-5.5q-2 -12 -8 -17t-15 -7q-11 -2 -19 1.5t-12 11.5q-2 2 -3 4.5t-2 7.5q-1 10 -5.5 19 t-9.5 18q-3 8 -8 15.5t-14 11.5q-2 0 -2 0.5t-1 0.5h-1v-1q-9 -12 -7 -27q2 -11 2.5 -22t1.5 -21q11 4 22 -1.5t16 -19.5v1q3 -8 6 -21q1 -8 1 -17v-17t0.5 -16.5t0.5 -16.5t-2 -16q-5 -20 -22 -27.5t-34 6.5q-9 7 -13 16t-6 18l-5 21q-4 15 -7 32.5t-5 34.5q-2 13 -3 28 l-2 30v9t-1 9zM-386 1347v4h30q0 -1 -0.5 -3.5t-0.5 -3.5q-4 -13 1 -19l-28 -8q0 8 -0.5 15t-1.5 15z" />
<glyph unicode="&#xf717;" d="M-437 1462q-1 38 29 65l3 4l28 29q0 -6 -2.5 -14.5t-7.5 -10.5q3 0 6 1q24 0 37 -14q7 16 15.5 30.5t17.5 28.5q14 20 24 34t16 22q10 11 22 23t27 26q5 4 12 9t15 10l10 7h-1l10 7q6 6 13.5 8.5t18.5 -0.5l-1 1q8 -1 14.5 -8.5t7.5 -15.5q1 -10 -6 -20t-17 -13 q-1 0 -3 -0.5t-5 -0.5q-8 0 -15 -4.5t-15 -9.5q-23 -17 -42.5 -39.5t-37.5 -46.5q-12 -17 -22 -34.5t-15 -37.5q-2 -6 -1.5 -13.5t5.5 -15.5q5 -11 9.5 -21t6.5 -22q1 -3 1 -6.5v-5.5q-2 -12 -8 -17t-15 -7q-11 -2 -19 1.5t-12 11.5q-2 2 -3 4.5t-2 7.5q-1 10 -5.5 19 t-9.5 18q-3 8 -8 15.5t-14 11.5q-2 0 -2 0.5t-1 0.5h-1v-1q-9 -12 -7 -27q2 -11 2.5 -22t1.5 -21q11 4 22 -1.5t16 -19.5v1q3 -8 6 -21q1 -8 1 -17v-17t0.5 -16.5t0.5 -16.5t-2 -16q-5 -20 -22 -27.5t-34 6.5q-9 7 -13 16t-6 18l-5 21q-4 15 -7 32.5t-5 34.5q-2 13 -3 28 l-2 30v9t-1 9zM-386 1347v4h30q0 -1 -0.5 -3.5t-0.5 -3.5q-4 -13 1 -19l-28 -8q0 8 -0.5 15t-1.5 15z" />
<glyph unicode="&#x17d;" d="M-208 1190h1q-4 14 3.5 26t21.5 15q8 2 16.5 2h17.5l37 -2q10 -1 17.5 -2t17.5 -1l-1 1q1 6 1 13v13q1 8 1 15.5v17.5v7.5t-2 4.5q-8 8 -6.5 19.5t9.5 20.5h-1q15 18 36 9h-1q8 -3 14.5 -9.5t6.5 -18.5q0 -3 -0.5 -5.5t-2.5 -7.5q-2 -7 -2.5 -15t-1.5 -16q0 -13 -1 -18v1 l-2 -36q2 0 3.5 -0.5t2.5 -0.5h8.5t8.5 -1q11 0 19 -0.5t15 1.5t12 1q14 -2 23 -10.5t7 -19.5t-15 -20t-26 -7q-8 1 -17.5 1.5t-17.5 2.5q-14 0 -27 3q-3 -21 -3 -39q-1 -8 -1 -15.5v-14.5v-16t1 -16q0 -17 3 -35t-14 -29h1q-8 -7 -16 -6.5t-15 5.5h1q-18 13 -17 26 q7 20 8 34.5t1 28.5v26q2 14 3 28.5t2 29.5q-15 2 -30 2t-29 -1h-1l-6 -3l-10 -4l-12 -4q-13 -4 -25.5 2t-15.5 17zM-47 1176l1 1h-1q1 -1 0 -1zM-22 1308l1 3q0 -1 -0.5 -1.5t-0.5 -1.5z" />
<glyph unicode="&#xf70d;" d="M-208 1190h1q-4 14 3.5 26t21.5 15q8 2 16.5 2h17.5l37 -2q10 -1 17.5 -2t17.5 -1l-1 1q1 6 1 13v13q1 8 1 15.5v17.5v7.5t-2 4.5q-8 8 -6.5 19.5t9.5 20.5h-1q15 18 36 9h-1q8 -3 14.5 -9.5t6.5 -18.5q0 -3 -0.5 -5.5t-2.5 -7.5q-2 -7 -2.5 -15t-1.5 -16q0 -13 -1 -18v1 l-2 -36q2 0 3.5 -0.5t2.5 -0.5h8.5t8.5 -1q11 0 19 -0.5t15 1.5t12 1q14 -2 23 -10.5t7 -19.5t-15 -20t-26 -7q-8 1 -17.5 1.5t-17.5 2.5q-14 0 -27 3q-3 -21 -3 -39q-1 -8 -1 -15.5v-14.5v-16t1 -16q0 -17 3 -35t-14 -29h1q-8 -7 -16 -6.5t-15 5.5h1q-18 13 -17 26 q7 20 8 34.5t1 28.5v26q2 14 3 28.5t2 29.5q-15 2 -30 2t-29 -1h-1l-6 -3l-10 -4l-12 -4q-13 -4 -25.5 2t-15.5 17zM-47 1176l1 1h-1q1 -1 0 -1zM-22 1308l1 3q0 -1 -0.5 -1.5t-0.5 -1.5z" />
<glyph unicode="&#x17e;" d="M-527 1444h1q-5 14 2.5 25.5t21.5 14.5q7 2 16 2h18l36 -2q10 -1 17.5 -2t17.5 -1l-1 1q1 6 1 12.5v12.5q1 8 1 15.5v17.5t-2 12v-1q-8 8 -6.5 19.5t9.5 21.5h-1q6 8 15.5 10.5t19.5 -2.5h-1q8 -2 14.5 -9t6.5 -18q0 -3 -0.5 -5.5t-2.5 -7.5q-2 -8 -2.5 -15.5t-1.5 -15.5 v-9t-1 -9v1l-2 -35q2 0 3.5 -0.5t2.5 -0.5h8.5t8.5 -1q11 -1 18.5 -1.5t15.5 2.5q7 2 11 1q14 -2 23 -10.5t7 -19.5t-15 -19.5t-25 -6.5q-9 0 -18 0.5t-17 2.5q-14 0 -27 3q-3 -20 -3 -38q-1 -8 -1 -15v-15v-15.5t1 -15.5q0 -17 3 -35t-13 -28h1q-8 -7 -16.5 -6.5t-14.5 5.5 h1q-8 5 -13.5 11.5t-3.5 14.5q7 19 8 33t1 28v26q2 14 3 28.5t2 28.5q-15 2 -30 2t-29 -1h-1l-6 -3l-9 -4l-12 -4q-13 -3 -25 3t-15 17zM-368 1429l1 1h-1q1 -1 0 -1zM-344 1560l1 3q0 -1 -0.5 -1.5t-0.5 -1.5z" />
<glyph unicode="&#xf716;" d="M-527 1444h1q-5 14 2.5 25.5t21.5 14.5q7 2 16 2h18l36 -2q10 -1 17.5 -2t17.5 -1l-1 1q1 6 1 12.5v12.5q1 8 1 15.5v17.5t-2 12v-1q-8 8 -6.5 19.5t9.5 21.5h-1q6 8 15.5 10.5t19.5 -2.5h-1q8 -2 14.5 -9t6.5 -18q0 -3 -0.5 -5.5t-2.5 -7.5q-2 -8 -2.5 -15.5t-1.5 -15.5 v-9t-1 -9v1l-2 -35q2 0 3.5 -0.5t2.5 -0.5h8.5t8.5 -1q11 -1 18.5 -1.5t15.5 2.5q7 2 11 1q14 -2 23 -10.5t7 -19.5t-15 -19.5t-25 -6.5q-9 0 -18 0.5t-17 2.5q-14 0 -27 3q-3 -20 -3 -38q-1 -8 -1 -15v-15v-15.5t1 -15.5q0 -17 3 -35t-13 -28h1q-8 -7 -16.5 -6.5t-14.5 5.5 h1q-8 5 -13.5 11.5t-3.5 14.5q7 19 8 33t1 28v26q2 14 3 28.5t2 28.5q-15 2 -30 2t-29 -1h-1l-6 -3l-9 -4l-12 -4q-13 -3 -25 3t-15 17zM-368 1429l1 1h-1q1 -1 0 -1zM-344 1560l1 3q0 -1 -0.5 -1.5t-0.5 -1.5z" />
<glyph unicode="&#x192;" d="M-1006 1155q-1 10 2.5 20.5t9.5 17.5q17 20 37.5 34.5t48.5 13.5q52 -2 103.5 -7t100.5 -25q21 -8 39.5 -23.5t36.5 -30.5q17 -15 32.5 -31.5t31.5 -32.5q3 -2 7 -3.5t9 -3.5v24q-1 20 7.5 33.5t24.5 23.5q43 25 81 28t69.5 -10.5t56 -42t40.5 -66.5q24 -57 -8 -113 q-8 -14 -14.5 -28.5t-14.5 -28.5q-17 -33 -42.5 -45t-64.5 -2q-20 4 -39 12.5t-39 14.5q-34 11 -68 21t-69 18q-43 10 -86 16t-85 19q-38 11 -74 27.5t-69 38.5t-47 57t-17 74zM-899 1134q-2 -19 9 -30t25 -20q59 -41 125 -58t141 -28q-14 15 -24.5 27t-18.5 24 q-37 50 -86.5 74.5t-110.5 29.5q-21 2 -40 -3.5t-20 -15.5zM-429.5 1062.5q-0.5 -9.5 1.5 -15.5q8 -21 24 -29.5t36 -13.5q4 20 -3 43t-22 29q-7 3 -16.5 1.5t-17.5 -4.5q-2 -1 -2.5 -10.5z" />
<glyph unicode="&#xf703;" d="M-1006 1155q-1 10 2.5 20.5t9.5 17.5q17 20 37.5 34.5t48.5 13.5q52 -2 103.5 -7t100.5 -25q21 -8 39.5 -23.5t36.5 -30.5q17 -15 32.5 -31.5t31.5 -32.5q3 -2 7 -3.5t9 -3.5v24q-1 20 7.5 33.5t24.5 23.5q43 25 81 28t69.5 -10.5t56 -42t40.5 -66.5q24 -57 -8 -113 q-8 -14 -14.5 -28.5t-14.5 -28.5q-17 -33 -42.5 -45t-64.5 -2q-20 4 -39 12.5t-39 14.5q-34 11 -68 21t-69 18q-43 10 -86 16t-85 19q-38 11 -74 27.5t-69 38.5t-47 57t-17 74zM-899 1134q-2 -19 9 -30t25 -20q59 -41 125 -58t141 -28q-14 15 -24.5 27t-18.5 24 q-37 50 -86.5 74.5t-110.5 29.5q-21 2 -40 -3.5t-20 -15.5zM-429.5 1062.5q-0.5 -9.5 1.5 -15.5q8 -21 24 -29.5t36 -13.5q4 20 -3 43t-22 29q-7 3 -16.5 1.5t-17.5 -4.5q-2 -1 -2.5 -10.5z" />
<glyph unicode="&#x2c6;" d="M-621 1043q0 11 1 22t5 24h-1q4 14 12.5 25.5t22.5 17.5q11 5 23 7.5t27 -2.5q9 -4 14 -9.5t10 -13.5v1q7 -13 15 -35l3 10l-1 -1l4 14l4 9v1q32 38 64 11q6 -5 10.5 -12.5t7.5 -13.5q12 -36 15 -74q2 -19 6.5 -38t11.5 -36q4 -8 8 -16.5t9 -13.5q2 -2 -1 -2q8 5 13 14 l6 8q8 11 16 25.5t15 25.5l9 14q14 20 30 42t27 42q5 11 14 24.5l17 25.5l13 18l-1 -1l10 20l2 3q2 4 3.5 6.5t3.5 4.5v-1q19 23 45 5q8 -6 11.5 -15.5t-3.5 -20.5q-4 -5 -7 -9.5t-9 -9.5q-14 -9 -24 -23.5t-20 -28.5l-22 -33l-20 -31l1 1l-10 -15v1q-9 -16 -17 -26 t-15 -21.5t-12 -22.5q-6 -11 -12 -22.5t-14 -22.5l-5 -6l-7 -7q-9 -6 -10 -9q-13 -14 -31 -15.5t-32 12.5q-12 10 -16 23q-8 17 -14 35t-11 37q-2 12 -3.5 23.5t-3.5 23.5q-1 10 -2 19l-2 18q0 6 -4 14q-11 -29 -5 -68v1q2 -11 3.5 -23.5t3.5 -23.5l3 -22q1 -13 5 -27 q2 -10 -1.5 -16.5t-10.5 -10.5t-15.5 -4.5t-16.5 2.5q-12 4 -15 11t-4 15q-1 14 -2.5 27t-4.5 25q-3 9 -6.5 20.5t-5.5 20.5q-5 20 -10 36.5t-10 31.5q-2 6 -6 13t-9 15q-5 2 -6 1q-5 -3 -8 -6.5t-5 -10.5q-3 -17 -3 -34q0 -10 1 -23t3 -24l3 -19q10 10 26 10 q11 0 20.5 -8.5t10.5 -22.5q1 -11 1.5 -24.5t0.5 -23.5q0 -23 -3 -42q-3 -25 -25 -39q-17 -11 -34.5 -5.5t-25.5 24.5l1 -1q-3 8 -4 13.5t-2 10.5q-5 32 -10 64.5t-9 64.5q-2 12 -3 25.5t-1 26.5zM-565 862l7 6v-1q0 -4 3 -7l10 -4q-2 0 -5 1t-5 1l-4 2t-6 2zM-558 868l3 2 h-2q-1 0 -1 1v-3zM-555 870l7 6q0 -3 1 -8l-4 1q-4 0 -4 1z" />
<glyph unicode="&#xf707;" d="M-621 1043q0 11 1 22t5 24h-1q4 14 12.5 25.5t22.5 17.5q11 5 23 7.5t27 -2.5q9 -4 14 -9.5t10 -13.5v1q7 -13 15 -35l3 10l-1 -1l4 14l4 9v1q32 38 64 11q6 -5 10.5 -12.5t7.5 -13.5q12 -36 15 -74q2 -19 6.5 -38t11.5 -36q4 -8 8 -16.5t9 -13.5q2 -2 -1 -2q8 5 13 14 l6 8q8 11 16 25.5t15 25.5l9 14q14 20 30 42t27 42q5 11 14 24.5l17 25.5l13 18l-1 -1l10 20l2 3q2 4 3.5 6.5t3.5 4.5v-1q19 23 45 5q8 -6 11.5 -15.5t-3.5 -20.5q-4 -5 -7 -9.5t-9 -9.5q-14 -9 -24 -23.5t-20 -28.5l-22 -33l-20 -31l1 1l-10 -15v1q-9 -16 -17 -26 t-15 -21.5t-12 -22.5q-6 -11 -12 -22.5t-14 -22.5l-5 -6l-7 -7q-9 -6 -10 -9q-13 -14 -31 -15.5t-32 12.5q-12 10 -16 23q-8 17 -14 35t-11 37q-2 12 -3.5 23.5t-3.5 23.5q-1 10 -2 19l-2 18q0 6 -4 14q-11 -29 -5 -68v1q2 -11 3.5 -23.5t3.5 -23.5l3 -22q1 -13 5 -27 q2 -10 -1.5 -16.5t-10.5 -10.5t-15.5 -4.5t-16.5 2.5q-12 4 -15 11t-4 15q-1 14 -2.5 27t-4.5 25q-3 9 -6.5 20.5t-5.5 20.5q-5 20 -10 36.5t-10 31.5q-2 6 -6 13t-9 15q-5 2 -6 1q-5 -3 -8 -6.5t-5 -10.5q-3 -17 -3 -34q0 -10 1 -23t3 -24l3 -19q10 10 26 10 q11 0 20.5 -8.5t10.5 -22.5q1 -11 1.5 -24.5t0.5 -23.5q0 -23 -3 -42q-3 -25 -25 -39q-17 -11 -34.5 -5.5t-25.5 24.5l1 -1q-3 8 -4 13.5t-2 10.5q-5 32 -10 64.5t-9 64.5q-2 12 -3 25.5t-1 26.5zM-565 862l7 6v-1q0 -4 3 -7l10 -4q-2 0 -5 1t-5 1l-4 2t-6 2zM-558 868l3 2 h-2q-1 0 -1 1v-3zM-555 870l7 6q0 -3 1 -8l-4 1q-4 0 -4 1z" />
<glyph unicode="&#x2dc;" d="M-761 1106q6 28 14.5 55t34.5 47q23 18 48 20t51 -6q17 -5 23.5 -18.5t8.5 -28.5q4 -23 6.5 -46t6.5 -46q3 -20 6.5 -41t8.5 -48q14 16 24 27t20 21q14 15 33.5 20.5t34.5 -0.5t24 -22.5t8 -34.5q-2 -20 -12.5 -36t-30.5 -20q-25 -5 -45.5 -16.5t-41.5 -23.5 q-48 -27 -95 -22.5t-79 39.5q-33 39 -46 84t-2 96zM-686.5 1076.5q-2.5 -14.5 13.5 -36.5q12 9 18 15t7 12.5t-2.5 16t-10.5 24.5q-23 -17 -25.5 -31.5z" />
<glyph unicode="&#xf710;" d="M-761 1106q6 28 14.5 55t34.5 47q23 18 48 20t51 -6q17 -5 23.5 -18.5t8.5 -28.5q4 -23 6.5 -46t6.5 -46q3 -20 6.5 -41t8.5 -48q14 16 24 27t20 21q14 15 33.5 20.5t34.5 -0.5t24 -22.5t8 -34.5q-2 -20 -12.5 -36t-30.5 -20q-25 -5 -45.5 -16.5t-41.5 -23.5 q-48 -27 -95 -22.5t-79 39.5q-33 39 -46 84t-2 96zM-686.5 1076.5q-2.5 -14.5 13.5 -36.5q12 9 18 15t7 12.5t-2.5 16t-10.5 24.5q-23 -17 -25.5 -31.5z" />
<glyph unicode="&#xe01;" horiz-adv-x="570" d="M38 609q0 49 10.5 95.5t50.5 87.5q32 34 71.5 54.5t84.5 30.5q7 2 16 1.5t17 -3.5l26 -9h-1q22 -8 43 -15.5t38 -21.5h-1q42 -36 96 -59q28 -12 39 -25t11 -31q0 -6 -2 -15.5t-5 -18.5q-1 -2 -1 -3q-2 -5 -4 -18q-2 -25 -3.5 -49.5t-3.5 -48.5l-9 -106q0 -4 -1 -8.5 t-1 -7.5q-1 -8 -1.5 -16.5t-2.5 -16.5q-11 -51 -16 -100t-7 -99q-2 -62 7 -121v1q5 -35 -14 -55.5t-52 -21.5q-15 0 -26.5 5.5t-14.5 21.5q0 1 -0.5 2.5t-0.5 2.5q-3 13 -5 26.5t3 26.5q8 25 12 51t7 55l5 39q2 12 3.5 23.5t3.5 23.5q3 19 6 36.5t5 37.5q5 48 9.5 97t8.5 97 q2 22 2.5 45.5t-0.5 46.5q-1 27 -13 48t-37 35q-8 4 -18.5 11.5t-18.5 14.5l-10 10t-16 10q-32 18 -61 18q-16 0 -32.5 -5.5t-33.5 -13.5q-23 -15 -41 -35.5t-29 -49.5l3 1q24 8 41 8q24 0 44 -11.5t37 -33.5q24 -32 41.5 -68t32.5 -72l9 -19q9 -23 3 -42t-18 -35 q-10 -14 -29.5 -13.5t-36.5 13.5q-20 16 -37 25q-16 8 -21 -9q-11 -38 -19.5 -76t-16.5 -77q-3 -14 -1 -26t15 -21q9 -7 13 -18t5 -19q0 -14 0.5 -28.5t0.5 -27.5q0 -14 -0.5 -27.5t-0.5 -26.5q0 -7 -2.5 -14.5t-4.5 -15.5h1q-6 -17 -18 -28t-31 -11q-18 -1 -31 10t-20 26 q-5 13 -7.5 28t-3.5 28q-3 34 -3 72q0 37 3 75t8 74q4 31 10 60t13 58l6 24q14 58 73 63q11 2 15.5 2.5t16.5 1.5q-5 19 -15 32.5t-28 19.5q-12 5 -18.5 1.5t-13.5 -16.5v2q0 -1 -0.5 -1.5t-0.5 -1.5v-1q-5 -11 -10.5 -20t-13.5 -19q-19 -22 -37 -22q-12 0 -22 9t-17 24 q-2 5 -4 11.5t-2 11.5q0 10 -0.5 19.5t-0.5 19.5z" />
<glyph unicode="&#xe02;" horiz-adv-x="812" d="M22 682q0 22 4.5 43t13.5 37q24 41 59 71.5t86 41.5q20 4 38.5 6t38.5 2q30 0 60 -7t59 -24q42 -26 60 -65.5t16 -85.5q-2 -63 -12 -124.5t-22 -121.5q-6 -30 -10 -62t-4 -62q0 -15 1.5 -32.5t3.5 -34.5q5 -34 17.5 -67t31.5 -63h-1q8 -13 14 -18.5t14 -5.5q10 0 30 10 h-1q39 20 62.5 54.5t40.5 71.5q17 39 30.5 81.5t18.5 85.5q0 5 1 9.5t1 9.5q5 38 8 75t3 74q0 22 -1.5 45t-5.5 45q-2 12 -6.5 23t-12.5 19q-5 4 -9 8.5t-7 8.5q-6 9 -8.5 19.5t-2.5 19.5q0 23 14.5 42t40.5 23h-1q11 2 23 -3t21 -11q17 -14 24 -32.5t7 -38.5q0 -8 0.5 -16 t0.5 -16q1 -24 1 -53.5v-52.5q0 -46 -2 -93t-8 -93q-11 -81 -41.5 -162.5t-77.5 -150.5q-14 -20 -33 -40t-39 -34q-17 -11 -35.5 -16.5t-38.5 -10.5q-2 0 -3 -0.5t-3 -0.5h1q-16 -3 -28 5t-22 19q-32 36 -56.5 77.5t-33.5 90.5v-1l-9 33q-6 21 -11 42.5t-3 45.5q0 9 1 18 t3 17q11 59 21.5 117t21.5 118q2 9 2.5 20t1.5 21v3l-16 -14q-15 -12 -30 -24.5t-37 -26.5h1q-18 -13 -38 -21t-39 -16l-16 -7q-23 -10 -48 -10q-19 0 -37 5q-14 3 -26.5 13t-22.5 19q-17 20 -28 55.5t-11 72.5zM106 674q0 -9 2 -20.5t4 -23.5v1q5 -15 16 -23t25 -6 q46 7 84 27t65 58v-1q7 10 12 23v-1l23 64q-3 3 -7.5 7t-10.5 7q-34 20 -69 20q-22 0 -43.5 -6.5t-43.5 -17.5q-10 -6 -20 -13.5t-15 -16.5h1q-23 -38 -23 -78zM337 772l2 6l2 -10l-3 3q-1 0 -1 1z" />
<glyph unicode="&#xe03;" horiz-adv-x="737" d="M17 659q-3 26 5.5 55.5t27.5 55.5t47.5 44t64.5 22q12 2 24 3t22 7q25 15 48 11t45 -15q31 -16 64 -9q29 5 55 -1.5t46 -22t32.5 -39.5t15.5 -54q4 -38 -4 -73t-17 -70q-5 -23 -10 -45.5t-10 -45.5q-5 -17 -9 -34.5t-9 -34.5q-17 -49 -17.5 -99t9.5 -101q4 -20 12.5 -41 t21.5 -38q9 -14 25 -23.5t31 -17.5q11 -5 21 0t14 17q8 20 15 40t11 40q17 99 19 198t0 199q0 35 -2 70.5t-4 70.5q-1 14 -4.5 26.5t-4.5 26.5q-2 23 11 36t35 15q33 2 40 -27q3 -11 3 -22t-1 -22q-2 -35 -3.5 -70.5t-3.5 -70.5q-4 -53 -5 -106t-3 -106t-6 -106t-13 -106 q-7 -38 -16 -74t-26 -71q-15 -32 -35 -39.5t-52 8.5q-17 8 -35.5 15.5t-32.5 19.5q-31 26 -46.5 61.5t-22.5 73.5q-5 21 -6 42t-5 42q-9 46 -2.5 90.5t14.5 89.5q9 54 15.5 108.5t13.5 108.5q1 12 -2 27q-1 3 -4 6t-6 5l-7.5 -5t-5.5 -7q-2 -8 -2 -16.5v-16.5q0 -13 1 -25.5 t0 -25.5q-2 -26 -20 -41.5t-41 -7.5q-10 3 -18.5 12t-21.5 20q-7 -11 -14.5 -22.5t-13.5 -24.5q-5 -10 -8.5 -20t-8.5 -21q-20 -45 -71 -42q-9 2 -17 0q-49 -9 -75 33q-24 37 -43.5 76t-24.5 84zM99.5 646q-0.5 -20 5.5 -38t17 -28q2 -2 8.5 -1t10.5 4q3 2 4.5 7.5t1.5 10.5 q-2 27 -4 54.5t-4 58.5q-20 -11 -29.5 -29.5t-10 -38.5z" />
<glyph unicode="&#xe04;" horiz-adv-x="817" d="M-10 600q0 11 0.5 21.5t1.5 21.5q1 16 3 34.5t7 35.5h-1q16 63 58.5 100.5t105.5 51.5q26 5 51.5 7t52.5 2q66 0 128 -12q16 -3 36.5 -9t42.5 -13l-1 1q7 -2 11.5 -3.5t11.5 -3.5q9 -2 17.5 -6.5t15.5 -9.5q38 -26 68.5 -58t51.5 -75l27 -51l-1 1l22 -44t20 -44 q11 -25 22 -55t20 -60q7 -22 7 -43t-8 -48l1 1q-5 -23 -5 -41v-36q0 -33 1.5 -66t7.5 -65l-1 1l9 -30l3 -8h-1q7 -22 1 -38.5t-22 -27.5q-10 -5 -18 -8t-17 -3t-19 4t-20 13q-14 14 -17.5 31t7.5 33q7 11 9 21t1 21v89t-1 89q-1 15 -8 40l-6 28v-1q-2 8 -2 16t2 16 q5 17 2 33t-8 32q-14 44 -32 85t-40 80q-34 62 -96 100q-20 12 -42.5 20t-46.5 13q-35 8 -69.5 13.5t-68.5 4.5q-28 -2 -56 -5.5t-52 -13.5q-35 -14 -55.5 -41t-25.5 -65q-3 -17 -4 -32.5t-1 -31.5q0 -48 13 -96q14 -54 39 -100q-9 33 -13.5 66t-2.5 68q1 8 -1 15.5t-4 17.5 l-2 16v-3q-3 20 7 40.5t30 24.5q14 2 24.5 8.5t21.5 14.5l19 13h-1q30 23 61 23q36 0 65 -33q38 -45 60 -96t21 -112q0 -38 -23.5 -52t-52.5 -6h3q-2 0 -2.5 0.5t-1.5 0.5q-16 5 -30 10t-21 8l-20 11q-19 10 -37 21t-35 25q0 -15 2 -31t5 -31q6 -41 25 -77.5t43 -68.5 q19 -24 40.5 -46t42.5 -41q11 -11 22 -20.5t22 -20.5q7 -8 13 -16.5t9 -17.5q9 -27 -2.5 -45t-40.5 -16q-26 2 -49 14q-42 23 -83 58q-65 57 -111 126.5t-83 144.5h-1q-10 20 -20 46.5t-18 52.5q-8 23 -10.5 46t-2.5 46zM172 512l3 -3l-3 4v-1zM217 598q-5 -9 2 -19l-1 2 l10 -12q19 -21 41 -39.5t52 -25.5q7 0 7 10q-2 26 -14.5 53t-32.5 51q-4 4 -8 7t-8 5v-1q-2 2 -7 -1h1q-8 -3 -15 -6.5t-12 -6.5h1q-11 -8 -16 -17z" />
<glyph unicode="&#xe05;" horiz-adv-x="581" d="M20 493q5 63 10 125.5t22 123.5q8 31 18.5 62.5t27.5 57.5q23 36 53.5 50t74.5 4q26 -5 45 -20.5t34 -38.5q5 -6 8.5 -11.5t7.5 -10.5q17 12 33.5 24.5t33.5 20.5q22 10 44.5 9t42 -11.5t35 -29t22.5 -43.5q8 -29 8.5 -58t-1.5 -58q-3 -42 -7.5 -82t-9.5 -82 q-5 -52 -12 -104t-9 -104q-2 -30 2 -60t9 -59q5 -36 -2 -68t-18 -64q-3 -8 -10.5 -16.5t-16 -15t-17.5 -10.5t-15 -2q-19 5 -33.5 16t-20.5 34q-9 32 -12 64.5t7 64.5q4 11 8 21.5t10 18.5q17 23 26 50t13 56q8 71 16.5 141t15.5 142q3 35 3 69.5t-11 68.5q-14 43 -46 20 q-10 -7 -19 -18t-13 -23q-8 -23 -13.5 -48t-2.5 -51q3 -31 -17 -58q-9 -11 -13.5 -27t-9.5 -30q-5 -13 -7 -25.5t-7 -25.5q-12 -33 -39 -39.5t-52 17.5q-11 12 -19 26t-12 31q-2 8 -4.5 16t-5.5 19q-14 -24 -17.5 -48t-5.5 -47q-7 -63 -1.5 -123.5t19.5 -121.5 q5 -23 13 -44.5t22 -40.5q5 -7 9.5 -13.5t8.5 -13.5q10 -19 7 -38t-18 -33q-14 -14 -32.5 -14.5t-32.5 13.5q-42 42 -68 93t-39 112q-29 130 -20 260zM77.5 461q-3.5 -74 10.5 -152v65q0 167 63 317q9 21 21.5 39.5t30.5 32.5q10 8 21 13t22 11q-9 40 -44 45q-45 9 -68 -44 q-18 -42 -30 -86t-16 -92q-7 -75 -10.5 -149zM215 645q12 -5 22.5 -10t21.5 -10q1 30 -2 39.5t-14 9.5q-14 1 -20 -7t-8 -22z" />
<glyph unicode="&#xe06;" horiz-adv-x="817" d="M5 721q-4 32 4.5 63t31.5 57q12 13 27 21t34 8q17 1 33 0.5t32 -2.5q36 -5 61.5 -22.5t37.5 -52.5q1 -3 3.5 -5.5t5.5 -6.5q5 5 8.5 8t7.5 8q7 8 13 15.5t14 14.5q17 15 31.5 14.5t33.5 -11.5q22 -13 33 -29t15.5 -35t3.5 -39l-2 -40q-3 -37 -7.5 -73.5t-9.5 -73.5v-19 q1 -20 7.5 -27.5t26.5 -10.5q22 -4 40.5 -13t35.5 -22q9 -7 17.5 -14.5t17.5 -12.5q34 -20 55 -48.5t34 -64.5q11 -27 26.5 -52t36.5 -53q2 11 3.5 18.5t1.5 13.5q0 57 -0.5 113t-1.5 113q0 26 0.5 51.5t0.5 51.5q-1 17 -2 33t-4 33q-5 28 -16 50q-11 23 -11 44.5t12 44.5 q5 10 14.5 15t20 5.5t20 -4.5t15.5 -15q8 -14 11.5 -28.5t-1.5 -31.5q-10 -30 -11.5 -60t1.5 -61q2 -34 2 -68.5t-1 -69.5q0 -44 -3 -87t-1 -88q2 -60 -2.5 -119t-4.5 -119q0 -5 -2 -15q-5 -17 -18 -27.5t-27 -9.5q-16 1 -27.5 13t-13.5 31q-4 26 -9 53t-4 53q1 42 -17 76 t-36 69t-45.5 59.5t-52.5 53.5q-8 8 -20 14t-23 10q-37 12 -41 -27q-6 -36 -6 -75q1 -37 3 -73.5t3 -73.5q1 -21 0.5 -42t-2.5 -42q0 -11 -6.5 -21.5t-15.5 -18.5t-20.5 -12.5t-22.5 -3.5q-5 0 -10 0.5t-9 2.5q-24 13 -50.5 19t-50.5 21q-16 11 -29 22.5t-18 29.5 q-13 40 -25 79.5t-7 82.5q8 67 62 107l28 22t29 21q8 5 17 8t18 5q15 4 23.5 8t13.5 10t7 16t3 25q2 35 6.5 68.5t6.5 68.5q2 21 1 42t-3 42q0 7 -4.5 13t-8.5 12h-10q-7 -12 -13.5 -24t-13.5 -25q-5 -8 -8 -15.5t-8 -14.5q-16 -23 -37.5 -22t-34.5 27q-3 6 -4.5 12.5 t-3.5 13.5q-2 11 -3 22l-2 22q-1 20 -11.5 31.5t-27.5 15.5q-16 5 -33.5 6t-34.5 0q-6 0 -12.5 -5.5t-11.5 -10.5q-14 -17 -13 -37.5t3 -44.5q8 8 12 12.5t9 8.5q12 11 25.5 12t25.5 -10q15 -15 23 -36q10 -26 9 -52.5t-10 -52.5q-3 -9 -10 -18.5t-15.5 -17t-18 -12 t-17.5 -4.5q-23 -1 -41 11.5t-26 38.5q-11 34 -20.5 67.5t-14.5 68.5zM225 258.5q-4 -38.5 10 -78.5q11 -29 28.5 -41t53.5 -10q13 65 20.5 130t3.5 136q-30 -8 -54.5 -21t-38.5 -40q-19 -37 -23 -75.5z" />
<glyph unicode="&#xe07;" horiz-adv-x="513" d="M34 764q2 20 20 30q29 15 58.5 26.5t61.5 17.5q17 3 34 0.5t33 -6.5q29 -8 55.5 -17t52.5 -26q61 -40 86 -105q12 -31 -5 -55q-14 -20 -18 -41.5t-4 -44.5q0 -54 2 -106.5t16 -105.5q2 -9 3 -19t1 -20q-1 -23 4.5 -44.5t14.5 -42.5q2 -5 4 -10.5t2 -11.5q2 -25 5.5 -49 t11.5 -48q6 -19 -6.5 -37.5t-32.5 -25.5q-16 -5 -35 3t-28 25q-15 26 -29 52t-30 52q-17 28 -35 54.5t-36 53.5l-3.5 3.5l-3.5 3.5q-38 28 -74.5 58t-84.5 44q-29 8 -37.5 28.5t4.5 46.5q5 9 14.5 15.5t20.5 9t21.5 0.5t17.5 -10q35 -37 74.5 -67t74.5 -65 q19 -18 37.5 -35.5t28.5 -43.5q3 -8 12 -14t19 -15q9 26 9.5 50.5t-4.5 47.5q-16 66 -19 132l-6 132q-1 14 0 28.5t2 29.5q-15 6 -27.5 3t-24.5 -8q-21 -8 -41.5 -17t-41.5 -17q-25 -10 -49.5 -8t-48.5 13q-7 3 -14 8q-27 32 -46 67.5t-16 80.5zM112 736q-3 -12 1.5 -25.5 t14.5 -24.5t23 -17.5t25 -4.5q68 12 117 61q-18 18 -39 27t-43 12t-42.5 0.5t-37.5 -8.5q-6 -2 -11.5 -8t-7.5 -12z" />
<glyph unicode="&#xe08;" horiz-adv-x="827" d="M-6 561.5q3 13.5 10 24.5q33 55 66.5 110t68.5 109q14 20 31.5 38.5t35.5 35.5q14 13 29.5 20.5t32.5 11.5t34.5 5t35.5 2q63 3 119.5 -16t111.5 -45q19 -9 37 -18.5t36 -18.5q46 -24 74 -73q28 -45 41.5 -94t29.5 -99q16 -52 22 -104.5t11 -106.5q2 -23 0 -45.5 t-6 -44.5q-6 -42 -13.5 -83.5t-15.5 -83.5q-2 -14 -5.5 -27t-20.5 -21q-13 -6 -26 -5t-22.5 7.5t-15.5 17.5t-4 25q5 45 -4 86.5t-17 83.5q-10 49 -24 100q-14 54 -36 104t-55 95q-20 26 -45.5 46t-57.5 29q-10 2 -15 2q-2 0 -3.5 -1l-4.5 -3l9 -21q4 -6 8.5 -12t8.5 -13 q11 -20 4 -40.5t-28 -30.5q-54 -23 -103.5 -14t-94.5 45q-39 31 -48 84q-3 18 2 30.5t21 20.5q17 8 34 15.5t34 15.5q36 19 77 8q34 -9 68 -18.5t68 -19.5q32 -9 54.5 -29.5t42.5 -44.5q60 -75 92 -169q17 -48 29 -96.5t26 -97.5q2 -8 4 -15t6 -18q11 17 13 33.5t4 31.5 q8 72 -2.5 141.5t-32.5 138.5q-10 31 -20 60.5t-20 60.5q-9 27 -25.5 48t-39.5 37q-108 79 -239 97q-23 3 -46.5 1t-46.5 -5q-23 -2 -41.5 -14t-32.5 -29q-25 -29 -47 -59.5t-44 -61.5q-23 -33 -44.5 -67.5t-50.5 -63.5q-12 -11 -29 -23q-8 17 -5 30.5zM263.5 618 q-1.5 -13 8.5 -21q9 -9 20 -16.5t22 -15.5q4 2 5 3q-20 44 6 83q-16 6 -27 0t-22 -13t-12.5 -20z" />
<glyph unicode="&#xe09;" horiz-adv-x="658" d="M-9.5 712q-9.5 16 6.5 45q24 44 49 87t57 81q24 29 58 48t75 21q8 0 12 1q39 3 68 1t53.5 -11t47 -26.5t48.5 -46.5q46 -51 78 -111t34 -133q1 -47 1 -92.5v-92.5q1 -23 6 -43.5t25 -37.5q10 -8 15.5 -23.5t7.5 -30.5q8 -38 15 -76t9 -76q2 -33 -0.5 -67t-10.5 -67 q-4 -19 -22 -32.5t-40.5 -19t-46 -2.5t-37.5 17q-22 21 -17 52q4 30 9 59.5t10 59.5q4 27 6 54l4 54q1 5 -1.5 9t-5.5 12q-11 -6 -20 -10.5t-16 -12.5q-21 -20 -34.5 -45t-18.5 -56q-4 -27 -7.5 -54t-8.5 -54q-2 -11 -8 -21.5t-13 -20.5q-6 -10 -16.5 -14.5t-22.5 0.5 q-28 9 -33 38q-2 19 1 34q12 73 11.5 146t1.5 147q1 52 1 103.5t-7 103.5q-4 24 -15.5 41.5t-28.5 31.5q-3 0 -9 -2q2 -11 3.5 -22t3.5 -22q6 -32 1.5 -61.5t-21.5 -57.5q-9 -14 -23.5 -24t-32 -15.5t-35.5 -5.5t-33 6q-6 3 -11.5 8.5l-10.5 10.5q-26 28 -37 62.5t-16 70.5 q-2 13 -4 25l-4 24q-2 2 -4.5 3.5t-4.5 2.5q-32 11 -41.5 27zM126 832q24 -2 46.5 -5t45.5 -4q22 -2 41 -9t36.5 -17.5t33 -24t30.5 -27.5q8 -8 15 -17t11 -20q10 -30 15 -61.5t2 -64.5q-3 -39 -5.5 -78.5t-4.5 -78.5q-1 -22 -0.5 -44t0.5 -50q26 19 46.5 34.5t41.5 29.5 q31 21 29 60q-2 34 -2.5 67.5t-2.5 67t-7 67t-16 66.5q-17 47 -39 87.5t-58 75.5q-30 30 -74 30q-24 0 -47.5 -0.5t-46.5 -6.5q-63 -15 -90 -77zM130 684q2 -1 2.5 -1.5t2.5 -1.5q2 4 4.5 7.5t4.5 7.5q1 4 0.5 7.5t-0.5 7.5h-7q-2 -7 -3.5 -13.5t-3.5 -13.5z" />
<glyph unicode="&#xe0a;" horiz-adv-x="731" d="M4 755q0 22 13 42q25 41 54 77t70 63q39 27 78 27t78 -19q18 -8 34.5 -20.5t35.5 -25.5q1 3 1.5 7t1.5 7q17 55 69 32q58 -25 94 17q20 23 38.5 46.5t30.5 52.5q28 71 27.5 140t-38.5 138q-6 11 -13.5 20t-19.5 14q-15 8 -21 21.5t-5 30.5q2 34 31 41q13 2 27 -4t20 -18 q19 -36 35.5 -72.5t27 -74t14 -77t-2.5 -81.5q-5 -32 -15 -63.5t-24 -60.5q-30 -62 -84 -108q-12 -11 -26 -20t-28 -20q3 -17 12.5 -29.5t20.5 -23.5q63 -71 90 -153t20 -174q-5 -53 -16 -104t-21 -103q-3 -16 -5 -32t-6 -32q-9 -48 -28 -92t-39 -89q-6 -14 -18.5 -17 t-25.5 -5q-11 -2 -22.5 -1t-22.5 0q-16 -1 -32 -2.5t-32 -3.5q-11 -1 -22.5 -2.5t-21.5 0.5q-23 7 -30 27.5t2 46.5q11 31 21.5 61.5t18.5 62.5q6 24 9 48.5t8 49.5q11 69 20 138t9 139q0 13 -2 32.5t-6 39t-8.5 36t-10.5 25.5q0 -14 -1 -27t1 -27q3 -24 -1 -45t-12.5 -40 t-20 -37t-24.5 -36q-11 -15 -25 -28t-29 -24q-45 -34 -88 -25.5t-74 54.5q-54 80 -80 171q-8 26 -9 54t-2 55zM68 717q0 -4 1 -7t1 -7q8 -47 25 -89.5t40 -83.5q2 -4 4.5 -7t5.5 -7q29 -35 67 -14q48 26 66 68t23 93q2 32 -9 59.5t-38 48.5t-13 48q14 29 48 24q8 -2 17 -4 t21 -4q-26 41 -60 55.5t-69 1.5q-23 -8 -45 -27.5t-39.5 -44.5t-30 -52t-15.5 -51zM406 838q1 -4 1 -7t2 -7q14 -45 27.5 -89.5t17.5 -92.5q5 -65 2.5 -128t-14.5 -126q-12 -64 -18.5 -127.5t-11.5 -128.5q-2 -29 9.5 -38.5t39.5 -1.5q9 3 18.5 9t14.5 14q21 32 31 64 q11 37 19.5 73.5t16.5 73.5q15 72 21.5 143.5t-16.5 145.5q-8 26 -18 51t-27 48q-10 12 -18 25t-18 25q-17 20 -35.5 40.5t-38.5 42.5z" />
<glyph unicode="&#xe0b;" horiz-adv-x="766" d="M15 774q4 47 24 93q10 20 25.5 33t38.5 17q19 2 37.5 5.5t38.5 3.5q17 0 33 -4t30 -17q16 -14 23 -13t22 18q23 26 51.5 43.5t63.5 23.5q5 9 8.5 18t8.5 16q7 8 15.5 15.5t16.5 8.5q39 5 62 29.5t40 53.5q25 42 47 85.5t42 88.5q11 23 16.5 50t6.5 53q1 54 -24 93.5 t-69 68.5q-10 7 -23 8l-26 2q-19 2 -34.5 8.5t-23.5 25.5q-8 22 -1 40t20 35q13 15 28.5 15t30.5 -5q10 -3 18.5 -9.5t16.5 -14.5q26 -26 49.5 -52.5t50.5 -50.5q45 -40 57 -88t0 -105q-17 -72 -47 -136.5t-69 -126.5q-14 -23 -26 -46.5t-26 -46.5q-6 -11 -4.5 -20.5 t6.5 -19.5q18 -35 30.5 -71.5t13.5 -77.5q1 -10 2 -19.5t1 -18.5q2 -72 4.5 -144.5t1.5 -144.5q0 -32 -6 -63.5t-14 -61.5q-16 -59 -34 -116.5t-35 -116.5q-5 -17 -6.5 -35t-1.5 -36q-2 -58 -38 -62q-23 -3 -39 12t-21 41q-17 85 -24.5 169t-13.5 169q-4 49 3 97.5t22 95.5 q16 50 21 100.5t5 101.5q0 17 -4.5 33.5t-10.5 32.5q-11 26 -29.5 29t-35.5 -20q-9 -11 -16 -24.5t-10 -27.5q-5 -23 -7.5 -46.5t-6.5 -46.5q-2 -10 -4 -20.5t-8 -19.5q-6 -11 -16.5 -16t-22 -5.5t-22.5 4.5t-18 15q-5 8 -9 17t-9 20q-11 -26 -20.5 -50t-18.5 -47 q-5 -13 -13.5 -20.5t-19 -12t-22 -6.5t-23.5 -3q-21 -2 -33.5 10.5t-20.5 29.5q-7 15 -13 31t-8 33q-8 48 -4 95zM89 757.5q-3 -30.5 13 -82.5q24 33 27 68.5t-14 59.5q-23 -15 -26 -45.5zM466.5 279q-0.5 -16 1.5 -33t11 -34q54 131 67 259t-25 263q-8 -32 -15 -63.5 t-14 -63.5l-14 -64t-10 -65q-3 -34 -1.5 -67.5t2.5 -68.5q1 -15 -0.5 -31t-2 -32zM505 893q3 -10 6 -19.5t6 -20.5q6 2 8 3q-2 11 -5 20.5t-6 19.5z" />
<glyph unicode="&#xe0c;" horiz-adv-x="1198" d="M-46.5 794q7.5 31 40.5 48q31 15 61.5 32.5t61.5 35t62.5 32.5t65.5 26q50 16 98 18t96 -17q42 -16 81 -37.5t74 -50.5q35 -30 71.5 -57.5t73.5 -55.5q37 -29 41 -73q4 -42 9.5 -84t10.5 -84q2 -19 10.5 -29.5t28.5 -14.5q52 -11 93.5 -39t74.5 -70q11 -12 23.5 -22.5 t24.5 -21.5q3 2 6.5 3t6.5 3q0 37 1 73.5t-2 73.5q-3 48 -10 96t-12 97q-5 44 -35 77q-15 15 -21 34t-4.5 37.5t10.5 35t25 28.5q15 10 33 13t36.5 -0.5t34.5 -14t27 -25.5q27 -39 4 -77q-20 -34 -21 -69t4 -70q10 -81 15.5 -161t1.5 -161q-1 -24 3 -48t6 -48l2 -18l2 -18 q2 -34 -10 -55.5t-37 -22.5q-20 -1 -35 0t-26 6.5t-18 16.5t-11 29q-8 35 -21.5 66t-37.5 57q-15 15 -29.5 30.5t-31 28t-36 21t-44.5 9.5q0 -10 -0.5 -19t1.5 -17q13 -61 26.5 -121.5t27.5 -122.5q2 -6 3.5 -12t3.5 -12q23 -91 -70 -96q-54 -3 -101 13.5t-83 57.5 q-32 36 -60.5 75t-57.5 79q-36 49 -11 111q20 53 56 88.5t85 58.5q14 7 28.5 13t32.5 14q1 38 -6.5 74.5t-24.5 71.5q-27 57 -65.5 107t-89.5 87q-74 53 -154.5 65.5t-167.5 -32.5q-32 -17 -60 -38t-54 -48q14 -23 33 -34.5t42 -14.5q26 -3 51 -3t51 -2q36 -4 55 -26t16 -56 q-2 -15 -8 -26.5t-21 -19.5q-7 -3 -13 -7t-13 -8q-36 -20 -56.5 -50.5t-22.5 -72.5q-1 -23 -0.5 -46.5t0.5 -51.5q6 5 10.5 8t5.5 7q6 32 28 42t48 12q29 2 55 -7t41 -38q9 -18 16.5 -37.5t8.5 -39.5q6 -87 0 -174q-3 -42 -29 -70.5t-65 -38.5q-35 -8 -72.5 6.5t-60.5 48.5 q-11 17 -20 35.5t-14 38.5q-17 74 -28 148.5t-5 150.5q2 28 9.5 55t15.5 54q4 14 10 28t12 30q-37 17 -71 31.5t-66 31.5q-19 10 -36 24t-29 31q-22 30 -14.5 61zM307.5 260.5q3.5 -17.5 17.5 -37.5q11 22 7.5 40t-18.5 40q-10 -25 -6.5 -42.5zM602.5 288q-4.5 -23 10.5 -49 q14 -22 25.5 -45t26.5 -43q20 -29 47.5 -48t69.5 -17q3 18 -2 60t-13.5 88.5t-19 87.5t-19.5 57q-30 -1 -55 -14t-46 -34q-20 -20 -24.5 -43z" />
<glyph unicode="&#xe0e;" horiz-adv-x="524" d="M-16 245q4 47 12 93.5t32 90.5q13 22 27.5 40.5t33 30t41 15t51.5 -3.5q2 -1 4.5 0.5t4.5 3.5q4 21 0.5 42t-14 39t-26.5 31.5t-36 19.5q-14 4 -27 7.5t-25 10.5q-17 9 -25.5 21.5t-9.5 26.5t7 27.5t24 23.5t37 15q75 22 150 42q48 12 92.5 5.5t88.5 -24.5q32 -14 48 -38 t21 -59q22 -168 15 -336q-5 -118 -8 -236t-7 -236q0 -8 -1.5 -19t-3 -23t-2.5 -23.5t-2 -18.5v-30q0 -15 0.5 -30.5t0.5 -31.5q0 -5 0.5 -9.5t-0.5 -9.5q-2 -13 -6 -23.5t-18 -15.5q-8 -2 -22.5 3t-30.5 13.5t-30 17.5t-21 15q-13 11 -24.5 24t-24.5 25q-14 12 -20.5 11 t-17.5 -17q-9 -14 -15 -32q-5 -11 -10.5 -21.5t-17.5 -18.5q-5 -2 -7.5 -8.5t-4.5 -12.5q-6 -14 -10.5 -27.5t-9.5 -27.5q-10 -26 -35 -25q-27 2 -36 29q-4 12 -4 29v88q0 9 2 13q7 23 15 46.5t15 46.5q6 21 21 30.5t32 17.5q11 5 23 8.5t24 7.5q24 8 41 -1.5t21 -34.5 q3 -26 18 -39.5t33 -27.5q0 1 5 -1.5l12 -6t14.5 -7.5t13.5 -5q-1 8 -1.5 17t-1.5 18q-2 8 -2.5 18.5t0.5 8.5q1 4 1 7.5t1 7.5q8 118 11.5 235.5t8.5 235.5q3 68 -1.5 135.5t-6.5 135.5q-1 11 -3.5 22.5t-4.5 22.5q-15 69 -64 94.5t-114 -0.5q-8 -4 -15 -10.5t-18 -14.5 q8 -11 14 -19l12 -16q95 -114 55 -259q-12 -46 -25.5 -91.5t-14.5 -94.5q0 -16 -9 -28q-16 -19 -27.5 -40t-21 -43.5t-18.5 -45t-19 -44.5q-19 -39 -65 -38q-29 1 -43.5 11t-25.5 42q-17 50 -26 100.5t-4 102.5zM67 242q-2 -60 10 -122q5 -1 8.5 -1t8.5 -1l28 96t26 96 q3 11 1 24.5t-6 24.5q-2 7 -9.5 14t-13.5 8q-7 0 -15.5 -6t-10.5 -13q-25 -60 -27 -120z" />
<glyph unicode="&#xe0f;" horiz-adv-x="558" d="M7 274q4 47 12 93.5t32 90.5q13 22 27.5 40.5t33 30t41 15t51.5 -3.5q2 -1 4.5 0.5t4.5 3.5q4 21 0.5 42t-14 39t-26.5 31.5t-36 19.5q-14 4 -27 7.5t-25 10.5q-17 9 -25.5 21.5t-9.5 26.5t7 27.5t24 23.5t37 15q75 22 150 42q48 12 92.5 5.5t88.5 -24.5q32 -14 48 -38 t21 -59q22 -168 15 -336q-2 -35 -4.5 -84.5t-5.5 -106.5t-6.5 -117t-6.5 -117t-5.5 -107t-3.5 -85q0 -24 -0.5 -48.5t0.5 -48.5q0 -16 0.5 -31.5t0.5 -30.5q0 -5 0.5 -10t-0.5 -10q-2 -13 -6 -23.5t-18 -15.5q-15 -4 -32.5 2.5t-23.5 20.5q-6 13 -10 26t-7 27 q-4 18 -12.5 31t-26.5 26q-2 -1 -3 -0.5t-3 -0.5q-25 -23 -42.5 -23.5t-42.5 21.5q-13 11 -24.5 23.5t-24.5 24.5q-14 13 -21 12t-17 -18q-5 -8 -8.5 -16t-7.5 -16q-5 -11 -10 -21.5t-17 -17.5q-5 -3 -8 -9.5t-5 -12.5q-5 -14 -9.5 -27.5t-10.5 -27.5q-5 -12 -12.5 -19 t-21.5 -6q-29 2 -36 29q-4 12 -4 29q-1 22 -0.5 44t0.5 44q0 9 1 13q8 23 15.5 46.5t14.5 46.5q6 21 21.5 31t32.5 17q11 5 23 8.5t23 7.5q24 8 41.5 -1.5t20.5 -34.5q4 -26 19 -39.5t32 -27.5q10 12 16 21.5t14 16.5q27 24 52 -1q11 -11 21 -24.5t20 -26.5q3 -5 6.5 -10 t10.5 -13q3 21 4 39t3 35q1 30 3 74t4.5 94.5t4.5 104t4 103.5t4 92.5t3 71.5q3 68 -1.5 135.5t-6.5 135.5q-1 11 -3.5 22.5t-4.5 22.5q-15 69 -64 94.5t-114 -0.5q-8 -4 -15 -10.5t-18 -14.5q8 -11 14 -19l12 -16q95 -114 55 -259q-12 -46 -25.5 -91.5t-14.5 -94.5 q0 -16 -9 -28q-16 -19 -27.5 -40t-21 -43.5t-18.5 -45t-19 -44.5q-19 -39 -65 -38q-29 1 -43.5 11t-25.5 42q-17 50 -26 100.5t-4 102.5zM90 271q-2 -60 10 -122q5 -1 8.5 -1t8.5 -1l28 96t26 96q3 11 1 24.5t-6 24.5q-2 7 -9.5 14t-13.5 8q-7 0 -15.5 -6t-10.5 -13 q-25 -60 -27 -120z" />
<glyph unicode="&#xe10;" horiz-adv-x="473" d="M8 505q5 35 9.5 70t10.5 70q2 14 5 28.5t8 28.5q17 43 51.5 60.5t76.5 20.5q19 2 38 -1t38 -7q6 -1 12.5 -4.5t11.5 -8.5q27 -21 51 -45q8 -7 15 -10t18 -2q28 2 42.5 -16.5t4.5 -45.5q-4 -11 -9.5 -22.5t-19.5 -17.5q-3 -1 -5.5 -5t-5.5 -8q5 -5 8 -9.5t7 -8.5 q30 -26 40.5 -60.5t11.5 -72.5q1 -32 -2 -64.5t-11 -64.5q-11 -43 -19.5 -86t-10.5 -89q-1 -24 -7.5 -48t-11.5 -49q-3 -14 -14 -21t-27 -6q-28 3 -31 31q-2 18 -7 35.5t-10 35.5q-4 13 -3 28t6 27q12 31 15 62t-5 63q-5 22 -7.5 44.5t-7.5 44.5q-2 9 -7.5 18t-11.5 20 q-10 -8 -16.5 -13t-12.5 -10q-16 -12 -35.5 -14t-37.5 4t-31 19.5t-17 32.5q-3 15 1 28.5t13 24.5q17 20 43 36q15 10 31.5 11.5t32 -3.5t28.5 -15t22 -22q4 -5 7.5 -10.5t8.5 -8.5q14 -8 19.5 -18.5t7.5 -24.5q4 -29 9.5 -57t11.5 -57q3 -17 5 -33.5t-3 -33.5 q-2 -5 -0.5 -10.5t2.5 -10.5q2 0 3 -0.5t3 -0.5q2 5 4.5 9t3.5 9q7 32 13.5 62.5t11.5 62.5q5 38 -4 74t-28 69q-4 8 -10 14t-13 11q-20 13 -40.5 25t-42.5 23q-18 9 -30.5 11.5t-23 -0.5t-20.5 -11t-23 -21q-16 -17 -27.5 -36t-25.5 -37q-13 -18 -25 -30q-10 -11 -23 -12 t-24 7q-11 7 -14 16.5t-1 24.5zM70 599q0 -8 0.5 -15.5t1.5 -20.5q17 17 31 30t28 27q30 29 58.5 33.5t67.5 -14.5q8 -4 17 -7.5t23 -8.5q-13 29 -25.5 50.5t-38.5 32.5q-14 6 -28 11t-28 8q-19 4 -36.5 -0.5t-32 -15.5t-24 -27t-11.5 -35q-2 -12 -2 -24t-1 -24zM97 -399 q2 10 6 19t7 18q10 26 18.5 50.5t18.5 50.5q4 11 7.5 22.5t8.5 22.5q11 20 31 27t41 -2q11 -5 21.5 -11t22.5 -13q8 12 14.5 18.5t14 9t18.5 0.5t28 -6q-1 8 -1.5 14.5t-1.5 13.5q-4 25 9.5 39.5t30.5 20.5t34.5 -4.5t28.5 -27.5q20 -33 17.5 -66.5t-7.5 -67.5 q-1 -5 -2.5 -10.5t-2.5 -11.5q-5 -37 -38 -43q-26 -6 -45 26q-5 8 -8.5 15.5t-8.5 13.5q-4 5 -9 8.5t-12 9.5l-1.5 -15t-1.5 -10q-3 -20 -17 -27.5t-32 3.5q-6 3 -10.5 7.5t-9.5 8.5q-20 14 -29 -8q-13 -34 -32.5 -63.5t-37.5 -61.5q-7 -14 -21 -16.5t-31 4.5 q-11 4 -16.5 16t-1.5 26z" />
<glyph unicode="&#xe11;" horiz-adv-x="806" d="M12.5 661q-0.5 23 0.5 46q2 22 16 40q22 27 50 41.5t64 11.5q19 -2 37 -4.5t32 -18.5q8 -9 17.5 -6.5t18.5 7.5q10 4 20 8.5t21 7.5q14 3 26.5 1t23.5 -13q15 -16 31 -31t23 -38q1 -2 2 -2.5t3 -2.5q13 4 19 14t9 21q5 18 15.5 28t26.5 15q32 10 65 20t68 6q20 -2 39 0 t38 0q34 -3 58 -22.5t41 -46.5q5 -9 7 -20.5t1 -22.5q-2 -52 -4.5 -103t-13.5 -102q-2 -10 -3 -20t-1 -21q-1 -31 -8 -60.5t-12 -59.5q-6 -33 -9 -66.5t-6 -66.5q-1 -12 -1.5 -24t0.5 -24q3 -29 9 -55q3 -14 11 -23t27 -4q8 -17 8 -33.5t-2 -32.5q-2 -9 -8.5 -15.5t-14.5 -9 t-17 -0.5t-15 9q-13 16 -25.5 32.5t-22 34t-15.5 36.5t-5 42q1 20 0 40.5t-1 40.5q0 25 3.5 49.5t7.5 50.5q8 51 18 101t18 101q5 28 7 56t5 56q2 23 -0.5 46t-11.5 45q-4 9 -9 14t-14 7q-8 2 -16 3.5t-16 1.5q-20 -1 -39 -2t-38 -3q-21 -2 -37 -12.5t-28 -25.5 q-17 -21 -33.5 -43.5t-32.5 -44.5q-15 -21 -21 -44.5t-10 -47.5q-2 -14 -6.5 -26t-14.5 -22q-6 -5 -8.5 -11t-4.5 -14q-5 -27 -10.5 -53t-10.5 -52q-4 -19 -7 -37t-5 -37q-3 -32 -5.5 -63.5t-3.5 -63.5q0 -25 -7 -46.5t-18 -41.5q-7 -13 -20 -18t-26 -1q-14 3 -27 16t-13 27 t1 28t5 28q22 74 42.5 147t30.5 150q4 35 11.5 69t11.5 69t0 69t-27 65q-13 -11 -18.5 -23.5t-6.5 -26.5q-4 -35 -6 -69.5t2 -69.5q1 -15 -3 -30q-4 -14 -16 -23t-25 -9q-11 0 -23.5 12t-14.5 25q-1 14 -0.5 28.5t-0.5 28.5q-1 29 -2.5 59t-15.5 57q0 1 -5 3 q-2 -23 -4.5 -45t-5.5 -45q-4 -28 -19 -50t-35 -40q-8 -8 -18 -10t-19 1.5t-15.5 11t-9.5 19.5q-7 26 -12 52.5t-8 53.5q-3 23 -3.5 46zM77 615q2 -8 4 -15t4 -15q6 12 5 15.5t-13 14.5z" />
<glyph unicode="&#xe12;" horiz-adv-x="1007" d="M21.5 387.5q-0.5 64.5 13.5 130.5q8 42 17 83t20 83q10 37 32.5 66t50.5 54q17 15 38.5 20.5t42.5 1.5t38.5 -17t28.5 -34q5 -8 8.5 -15l7.5 -15q1 -1 10 -5q10 17 18.5 34.5t19.5 33.5q24 38 58 41t66 -29q24 -24 35 -54.5t18 -62.5q5 -25 9.5 -49.5t6.5 -49.5 q2 -19 12 -27.5t27 -11.5q27 -4 52 -14.5t48 -26.5q21 -15 39.5 -33.5t38.5 -35.5q20 -20 41 -40t46 -43v33q-4 70 -8.5 139.5t-6.5 139.5q-2 23 -6.5 45t-17.5 42q-27 44 1 91q11 19 24.5 25.5t33.5 3.5q43 -6 50 -47q2 -7 2 -14.5v-15.5q-3 -58 -7.5 -115.5t-1.5 -115.5 q4 -73 13 -145.5t18 -145.5q2 -13 7 -24.5t8 -24.5l6 -28t1 -28q-2 -17 -12.5 -28.5t-24.5 -16.5t-29.5 -2.5t-27.5 14.5q-11 11 -19 24t-13 27q-36 92 -109 156q-23 21 -45.5 43t-46.5 42q-8 7 -13.5 10t-12 4.5t-15 1t-21.5 -1.5q-8 -26 -7 -52t12 -50q21 -46 24 -93 t7 -95q3 -42 -23 -62t-68 -12t-75.5 28t-57.5 55q-11 16 -18.5 34.5t-10.5 36.5q-14 89 37 162q11 15 20 31t22 30q20 21 25 45.5t2 51.5q-4 45 -12 91q-2 20 -10 37.5t-27 30.5q-15 -10 -21.5 -24.5t-11.5 -29.5q-5 -14 -9.5 -28.5t-11.5 -28.5q-4 -10 -11 -19t-16 -13 q-18 -10 -23 -23.5t-4 -30.5q1 -30 1.5 -59.5t-0.5 -58.5q-2 -58 -4.5 -116t-7.5 -115q-6 -59 -29 -114q-9 -21 -25 -32.5t-34.5 -14t-38 4.5t-35.5 24q-21 22 -37 47t-28 52t-21.5 54.5t-19.5 55.5q-22 63 -22.5 127.5zM110 308q11 -48 25.5 -88.5t37.5 -78.5 q5 -7 14.5 -12.5t17.5 -5.5q12 -2 15.5 7.5t5.5 19.5q5 32 10 62.5t9 62.5q3 26 4 53t3 53q-16 -14 -31 -27t-31.5 -23.5t-36 -17t-43.5 -5.5zM143 629q31 2 60 5t58 5q4 20 -2 36t-15 30q-11 16 -25 19t-27 -8q-20 -17 -33.5 -38.5t-15.5 -48.5zM147.5 470 q-5.5 -25 2.5 -52q16 6 29.5 19.5t22 30.5t11.5 35t-1 34q-15 4 -28.5 -0.5t-19.5 -18.5q-11 -23 -16.5 -48zM468 312.5q-9 -34.5 1 -72.5q5 -16 14.5 -26t30.5 -10q5 22 5 44t-3.5 44t-9 43.5t-10.5 43.5q-19 -32 -28 -66.5z" />
<glyph unicode="&#xe13;" horiz-adv-x="812" d="M13 367q0 25 5 50t14 51l-1 -1q0 2 2 6.5t4 9.5q1 2 2 6.5t2 9.5t1.5 9t-1.5 6q-16 20 -21 40t-5 41q0 10 1 20l2 20q1 6 1.5 11.5t0.5 10.5q2 32 17.5 56.5t40.5 41.5q6 3 10 7q19 20 39.5 28t43.5 8q16 0 31 -2.5t30 -6.5q48 -13 84 -42t64 -72v1q29 -44 41.5 -92 t18.5 -97q3 -24 6 -49.5t5 -50.5l3 -35q17 30 40.5 57t53.5 50q11 9 23.5 16t29.5 9q13 2 15.5 5t1.5 17q-3 72 -9 144q-1 15 1.5 31.5t12.5 30.5l-1 -1q8 13 20.5 19.5t26.5 6.5q31 0 46 -29q6 -13 8.5 -27t2.5 -26q-2 -32 -12 -60q-7 -20 -9 -39.5t-2 -40.5q0 -8 0.5 -15 t0.5 -15q0 -5 0.5 -9t0.5 -9q0 -11 6 -22.5t14 -20.5q20 -26 33 -55.5t18 -62.5l5 -28q4 -20 6.5 -41t4.5 -44q2 -45 -20 -78t-58 -55l1 1q-5 -4 -11.5 -7.5t-12.5 -6.5h1l-22 -12t-19 -14q-17 -17 -37 -17t-34 11h1q-15 9 -21 26t-1 37q3 9 6.5 18.5t7.5 19.5v-1l8 27 q10 28 13.5 59t6.5 63l6 55l3 20q2 11 3.5 21t2.5 20q2 31 -26 17q-11 -7 -20.5 -14.5t-17.5 -17.5q-29 -36 -51 -83.5t-37 -93.5q-4 -12 -6 -24.5t-4 -21.5t-3.5 -18t-3.5 -18q-4 -15 -9 -30t-13 -29q-17 -31 -55 -23q-17 4 -29 16.5t-12 31.5q0 15 2.5 27.5t4.5 26.5 q0 2 1 6t1 6q2 10 4 17l4 14q4 15 7.5 29.5t4.5 27.5q4 45 7 89.5t3 89.5v20t-1 19q-2 43 -14 83.5t-30 81.5q-14 32 -40.5 52.5t-55.5 37.5q-19 10 -37 10q-12 0 -22.5 -4.5t-22.5 -13.5q-1 -1 -1.5 -1t-1.5 -1l-2 -2q-15 -14 -26.5 -28t-11.5 -35q0 -15 3 -25 q11 -32 41 -21q14 5 28 5.5t28 -6.5q32 -15 32 -47q0 -11 -4.5 -21.5t-14.5 -18.5q-30 -27 -65 -30q-23 -3 -32.5 -17t-14.5 -34q-9 -33 -9 -60q0 -16 2.5 -34t6.5 -35l9 -41l4 -26l6 69q2 25 14 42.5t30 21.5q20 4 44 -8t34 -30q11 -26 17.5 -53.5t6.5 -52.5 q0 -62 -32 -120q-11 -18 -32 -30t-42 -12q-22 0 -38 10t-30 22t-21 32q-11 35 -21 69.5t-20 69.5q-4 13 -6 33q-2 8 -3 17.5t-4 20.5q-6 24 -6 53zM143 128l7 14q3 -8 7 -12zM157 130q8 -7 15 3l2 2q-4 -2 -8 -2.5t-9 -2.5zM174 135q15 25 15 55q0 28 1 37.5t3 1.5 q-2 -8 3 -13.5t4 -11.5q0 -2 -0.5 -5t-0.5 -5q-2 -29 -5.5 -40.5t-19.5 -18.5zM666 146h1q4 1 8.5 1.5t2.5 0.5h-1q14 8 21 20t9 27q3 18 3 37q0 27 -6.5 54t-15.5 53q-1 -21 -4 -42t-6 -41q-5 -28 -8.5 -54.5t-3.5 -55.5zM672 358l17 7v-13t-1 -13q-1 4 -2 7t-3 7h-1 q-3 0 -4 1z" />
<glyph unicode="&#xe14;" horiz-adv-x="691" d="M-2 534q0 58 26.5 105t72.5 83q38 29 84.5 41.5t91.5 12.5q20 0 37.5 -1t34.5 -3q45 -6 85 -20.5t79 -31.5q14 -6 27 -17.5t24 -20.5l11 -8q5 -5 7.5 -8t6.5 -8l-1 2l9 -11l11 -11l11 -11q25 -19 33.5 -43.5t3.5 -53.5q-2 -16 -3.5 -30.5t-2.5 -26.5q0 -2 -0.5 -4 t-0.5 -4v-10l-15 -274q0 -5 0.5 -15t1.5 -15q0 -5 0.5 -9.5t1.5 -9.5t1 -11v-15q0 -13 -1 -26.5t-9 -25.5q-9 -18 -25.5 -27t-33.5 -9q-13 0 -25 3.5t-23 11.5q-15 11 -23.5 29t-8.5 36q0 25 15 42q11 11 16 29.5t7 35.5v7.5t1 7.5q5 37 7 73.5t4 72.5q2 39 -4 79t-14 81 q-5 23 -15 40t-24 30t-30.5 23.5t-33.5 20.5q-32 17 -67.5 26.5t-70.5 7.5q-29 -1 -57.5 -13t-52.5 -28h1q-16 -12 -26 -25t-17 -29q23 23 52.5 37t61.5 16q38 1 61 -13t34 -52q9 -35 16 -71.5t12 -72.5l16 -130q3 -29 6.5 -57t7.5 -57l2 -13l3.5 -17.5t3.5 -12.5l8 -24 q6 -28 1 -49t-19 -34t-36 -17.5t-49 0.5q-57 12 -108 43t-90 71q-20 20 -36.5 50t-24.5 59q-8 33 -14 68.5t-13 69.5l-9 49v-1q-1 3 -1 8.5t-1 10.5q0 3 -0.5 6.5t-0.5 5.5l-2 11l-4 22q-2 11 -3 24t-1 25zM125 387l6 -36t8 -36q7 -29 18.5 -60.5t30.5 -51.5q34 -40 87 -63 q-3 65 -8 129t-16 132q-20 -14 -43 -20t-46 -4q-21 2 -37 10zM159 484l16 17q4 -3 21 -3v-69zM212 503q0 1 0.5 1.5t0.5 1.5q0 -2 3 -2q-3 0 -4 -1zM216 504q1 -1 2 0h-1h-1zM248 421l21 -10l-6 -3l-11 -7l1 1q-1 -1 -2 -1zM275 139h11h5l-15 -15q0 4 -0.5 8t-0.5 7z M275 139v1v-1z" />
<glyph unicode="&#xe15;" horiz-adv-x="852" d="M11 566q5 37 38 72q38 41 77.5 77.5t84.5 69.5q7 6 13 12.5t13 13.5q36 35 78 32.5t74 -41.5q15 -20 29 -40.5t29 -43.5q16 11 30 21t28 21q22 16 48 24t53 8t53 -7.5t48 -22.5q15 -11 30.5 -21.5t31.5 -20.5q25 -18 28 -48q10 -81 19.5 -160.5t18.5 -160.5 q5 -42 8.5 -82.5t10.5 -82.5q3 -20 10.5 -39t14.5 -39q3 -9 6.5 -17.5t5.5 -17.5q5 -21 -2 -33t-27 -24q-12 -6 -29.5 -4t-28.5 11q-29 23 -25 58q3 28 7 55.5t2 55.5q-7 95 -18.5 189t-32.5 188q-3 13 -10 24.5t-15 22.5q-6 11 -14 20t-15 20q-15 24 -39 36t-49 11.5 t-48.5 -13.5t-36.5 -38q-12 -23 -26.5 -38.5t-43.5 -17.5q-6 0 -13.5 -8t-9.5 -16q-2 -5 3 -13t10 -13q5 -7 12.5 -11t13.5 -9q20 -16 22 -38t-19 -36q-32 -20 -37 -46.5t0 -57.5q3 -29 5.5 -58t6.5 -58t13.5 -55.5t27.5 -51.5q20 -25 18 -50.5t-22 -42.5q-13 -12 -30 -14 t-31 8q-26 18 -50.5 36t-48.5 38q-37 32 -70.5 67t-65.5 73q-46 57 -84 117.5t-67 128.5q-18 43 -13 80zM91 506q12 -32 24.5 -63.5t34.5 -59.5q20 -26 38 -52t38 -51q23 -26 47 -51.5t50 -48.5q11 -10 25 -18.5t34 -10.5q-7 61 -13 119.5t-13 121.5q-14 0 -25 0.5t-22 -0.5 q-43 -4 -86 11q-34 13 -55.5 38t-28.5 56t1 63t33 58q38 38 83 62t102 28q-10 21 -18 33t-17.5 16t-21.5 -0.5t-29 -15.5q-8 -5 -15 -11t-14 -11q-19 -15 -36.5 -30.5t-37.5 -29.5q-19 -14 -34.5 -29.5t-29.5 -34.5q-33 -43 -14 -89zM210 539.5q-3 -24.5 16 -47.5 q9 -11 22 -18.5t27.5 -10.5t29 -1t25.5 10q5 3 9 8.5t4 10.5q0 32 -1.5 65t-23.5 62q-23 -1 -42.5 -9.5t-36.5 -22.5q-26 -22 -29 -46.5z" />
<glyph unicode="&#xe16;" horiz-adv-x="541" d="M6 643q-2 37 7.5 74t28.5 64q22 31 52 47t62 20.5t64 -0.5t58 -15q52 -22 90.5 -58t74.5 -74q30 -31 44 -70t7 -84q-15 -97 13 -190q12 -38 9 -76.5t-11 -76.5q-2 -11 -2 -23.5t1 -25.5q1 -24 3.5 -47.5t1.5 -47.5q0 -23 -14.5 -40t-37.5 -23q-17 -4 -37.5 5t-28.5 29 q-8 17 -12 37t-3 39q1 26 -1.5 50.5t-13.5 47.5q-20 42 -15.5 83t27.5 78q13 20 19.5 41t9 42t1.5 42.5t-3 43.5q-1 11 -3 23t-2 23q-1 43 -20 76.5t-47 63.5q-25 26 -54 42t-65 20q-27 2 -50 -3.5t-40 -28.5q-21 -28 -28 -58t7 -64q12 -29 41 -14q10 5 19.5 11.5t19.5 11.5 q9 3 19.5 3t20 -2t18 -6.5t12.5 -10.5q11 -16 8.5 -36t-18.5 -37q-8 -9 -17.5 -18t-20.5 -14q-23 -12 -34 -31t-16 -42q-12 -48 -12 -95.5t6 -98.5q11 16 19 30t19 25q9 10 21 16t27 -1q15 -8 25.5 -19t12.5 -28l6 -75q2 -21 4 -41.5t4 -41.5q1 -7 0.5 -14t-1.5 -15 q-3 -26 -13 -43.5t-26 -26t-36.5 -7.5t-43.5 13q-39 19 -54 61q-21 54 -29 109.5t-9 112.5q-1 45 3 89.5t8 89.5q2 11 0 19.5t-13 16.5q-30 20 -45 53t-17 70z" />
<glyph unicode="&#xe17;" horiz-adv-x="794" d="M16 596q0 34 1 69q1 40 20 70t47 56q20 18 45.5 28t52.5 10t53 -11t47 -35l10 -12t11 -14q10 18 17 31q2 5 4 10.5t4 10.5q43 115 168 115q35 0 60.5 -3.5t46 -16t36.5 -36.5t31 -65q11 -29 16 -60.5t7 -62.5q8 -80 13 -158.5t10 -158.5q2 -30 8.5 -59t23.5 -56 q22 -35 22 -74t-6 -78q-3 -20 -17.5 -31t-34.5 -13q-23 -2 -36 5.5t-21 29.5q-7 22 -13 43t-8.5 43t0 44.5t12.5 46.5q11 26 10 57.5t-3 62.5q-9 141 -24 281q-2 25 -7.5 49t-12.5 48q-8 27 -24.5 45t-47.5 20q-23 2 -47 3.5t-47 0.5q-17 0 -29 -9.5t-20 -26.5 q-24 -50 -37.5 -102t-18.5 -107q-5 -71 -7 -141t7 -141q3 -25 7.5 -49t7.5 -49q4 -32 7.5 -63t5.5 -63q0 -10 -3.5 -20.5t-8.5 -20.5q-14 -24 -34 -25.5t-40 19.5q-16 17 -23.5 36t-9.5 38.5t-0.5 40t3.5 41.5q3 25 7 49.5t4 49.5q2 55 1 110t-2 111q0 11 -1 22t-3 28 q-22 -23 -38.5 -40t-32.5 -34q-23 -23 -51 -29.5t-57 -4.5q-24 1 -40 21t-19 55q-2 35 -2 69zM80 621.5q0 -33.5 5 -67.5q1 -10 7 -15.5t17 -2.5q19 5 37 12.5t28 26.5q19 37 30 76t0 84q-40 13 -69.5 0.5t-42.5 -48.5q-12 -32 -12 -65.5z" />
<glyph unicode="&#x2219;" horiz-adv-x="794" d="M16 596q0 34 1 69q1 40 20 70t47 56q20 18 45.5 28t52.5 10t53 -11t47 -35l10 -12t11 -14q10 18 17 31q2 5 4 10.5t4 10.5q43 115 168 115q35 0 60.5 -3.5t46 -16t36.5 -36.5t31 -65q11 -29 16 -60.5t7 -62.5q8 -80 13 -158.5t10 -158.5q2 -30 8.5 -59t23.5 -56 q22 -35 22 -74t-6 -78q-3 -20 -17.5 -31t-34.5 -13q-23 -2 -36 5.5t-21 29.5q-7 22 -13 43t-8.5 43t0 44.5t12.5 46.5q11 26 10 57.5t-3 62.5q-9 141 -24 281q-2 25 -7.5 49t-12.5 48q-8 27 -24.5 45t-47.5 20q-23 2 -47 3.5t-47 0.5q-17 0 -29 -9.5t-20 -26.5 q-24 -50 -37.5 -102t-18.5 -107q-5 -71 -7 -141t7 -141q3 -25 7.5 -49t7.5 -49q4 -32 7.5 -63t5.5 -63q0 -10 -3.5 -20.5t-8.5 -20.5q-14 -24 -34 -25.5t-40 19.5q-16 17 -23.5 36t-9.5 38.5t-0.5 40t3.5 41.5q3 25 7 49.5t4 49.5q2 55 1 110t-2 111q0 11 -1 22t-3 28 q-22 -23 -38.5 -40t-32.5 -34q-23 -23 -51 -29.5t-57 -4.5q-24 1 -40 21t-19 55q-2 35 -2 69zM80 621.5q0 -33.5 5 -67.5q1 -10 7 -15.5t17 -2.5q19 5 37 12.5t28 26.5q19 37 30 76t0 84q-40 13 -69.5 0.5t-42.5 -48.5q-12 -32 -12 -65.5z" />
<glyph unicode="&#xe18;" horiz-adv-x="610" d="M-123 779q-1 37 44 63q47 26 96.5 47t100.5 39q45 16 85.5 2.5t77.5 -39.5q25 -17 48 -35.5t49 -34.5q11 -7 25.5 -9t28.5 -4q19 -3 39 -4t37 -9q42 -20 44.5 -54t-33.5 -63q-4 -3 -8.5 -5.5t-9.5 -5.5q-3 -2 -6.5 -5t-9.5 -8q2 -11 2.5 -20.5t3.5 -17.5 q14 -45 29.5 -89.5t29.5 -89.5q24 -81 28.5 -162.5t-18.5 -164.5q-5 -17 -13.5 -33.5t-18.5 -31.5q-19 -27 -48 -33t-58 11q-16 9 -31.5 18t-31.5 19q-28 15 -49.5 10t-42.5 -29q-17 -21 -44 -34q-17 -8 -35.5 -5.5t-32.5 17.5q-14 14 -17.5 37.5t8.5 40.5q31 44 38 92t6 99 q-2 41 -0.5 81.5t2.5 81.5v29t-4 28q-8 26 -9.5 51.5t16.5 52.5q-37 10 -70 17.5t-65 19.5q-35 14 -70 29t-67 35q-45 29 -46 66zM25 762q36 -21 73.5 -31.5t76 -13t78.5 1t82 10.5q-42 44 -80 69.5t-75.5 30.5t-75.5 -11.5t-79 -55.5zM274 289q1 -52 2 -102 q38 -13 68.5 -23t59.5 -21q36 -14 54 -5.5t26 45.5q2 5 2 16q11 185 -65 351q-16 34 -42 48.5t-61 11.5q-20 -54 -29.5 -108t-12.5 -107.5t-2 -105.5z" />
<glyph unicode="&#xe19;" horiz-adv-x="1071" d="M20 655q3 63 42 123q12 17 22 35.5t25 32.5q18 16 40.5 24t46.5 8.5t47.5 -7t44.5 -20.5q39 -25 69.5 -55t50.5 -73q10 -22 16 -43.5t5 -46.5q0 -35 1.5 -70.5t3.5 -73.5q22 5 39 8.5t33 8.5q24 6 37 11.5t18.5 13.5t4.5 22.5t-4 38.5q-8 59 -13.5 117t2.5 118 q3 24 5.5 48.5t4.5 49.5q4 30 26.5 42.5t51.5 -1.5q12 -5 22.5 -12.5t21.5 -14.5q8 4 9 6q14 23 33 34.5t45 3.5q28 -8 40 -29t15 -47q2 -14 0 -28.5t-6 -28.5q-16 -50 -13 -101l6 -102q1 -6 4 -12t5 -11q5 -2 8.5 -4t7.5 -3q36 -5 63 -19t48 -35t37 -48t29 -57 q15 -35 28.5 -70.5t22.5 -72.5q12 -48 0.5 -91t-37.5 -83q-6 -9 -17.5 -14t-22.5 -11q-32 -20 -64.5 -38.5t-64.5 -38.5q-17 -12 -35 -14t-33.5 4.5t-27 21t-16.5 35.5q-4 18 -4.5 37t-2.5 39q-29 2 -49 13t-33.5 28t-22.5 38.5t-16 45.5q-5 14 -10 29.5t-11 32.5 q-31 -18 -48.5 -42.5t-32.5 -49.5q-28 -45 -52 -92.5t-34 -102.5q-7 -32 -26 -43t-47 -4q-14 4 -26.5 13t-20.5 21t-12 25.5t-2 26.5q4 21 10 41t10 41q6 46 6 94q0 8 -4 17t-10 14q-23 23 -21.5 47t15.5 49q3 6 8 12.5t7.5 13.5t1.5 15t-8 19q-12 -5 -25 -9.5t-26 -10.5 q-26 -12 -53 -14.5t-55 1.5q-43 5 -71 30t-42 66q-23 65 -20 128zM202.5 685.5q-3.5 -20.5 10.5 -43.5l24.5 31.5t17.5 28.5q3 7 1 18.5t-8 16.5q-9 9 -18.5 4.5t-14.5 -15.5q-9 -20 -12.5 -40.5zM815 473.5q1 -8.5 1 -16.5q2 -37 4 -73t7 -72q5 -34 8.5 -68t23.5 -66 q57 17 82.5 40t25.5 62q0 56 -17.5 107.5t-44.5 100.5q-4 8 -13 14.5t-19 10t-20 5t-17 -1.5q-11 -4 -15.5 -11t-5.5 -15t0 -16.5z" />
<glyph unicode="&#xe1a;" horiz-adv-x="702" d="M14 527q1 51 3.5 101t10.5 100q10 63 46 102t102 50q35 6 67 15.5t57 42.5q9 12 25 13.5t31 -5.5t25.5 -20t9.5 -29q-3 -36 5 -68t19.5 -63t22 -62.5t11.5 -65.5q2 -83 8.5 -165.5t11.5 -166.5q2 -19 2 -37t1 -37q10 -4 15 -5q6 8 13.5 14.5t9.5 14.5q2 21 3.5 42.5 t-0.5 42.5q-6 82 -12.5 163t-14.5 163q-3 27 -10 54t-13 54q-10 41 4 79t49 56q29 16 59 18.5t59 -16.5q28 -18 40.5 -45t7.5 -62l-6 -42t-11 -41q-17 -49 -20.5 -99t0.5 -101q4 -54 6 -107.5t7 -107.5q2 -31 7 -61.5t9 -61.5q2 -19 4.5 -38.5t1.5 -38.5q-4 -61 -39 -88 t-94 -9q-35 11 -67.5 11t-65.5 -14q-27 -11 -52 -6.5t-42 27.5q-18 24 -28 52.5t5 57.5q24 46 34 94t12.5 96.5t0 97t-3.5 97.5q-1 15 -6 32t-12 45q-17 -28 -28 -47.5t-22 -36.5q-22 -35 -44.5 -69t-45.5 -67q-16 -23 -37.5 -35.5t-50.5 -8.5q-33 5 -50 25.5t-22 49.5 q-11 59 -8 116zM138 632.5q-1 -26.5 4 -65.5q34 35 53.5 72.5t24.5 88.5q-28 -8 -45.5 -20t-26.5 -30.5t-10 -45z" />
<glyph unicode="&#xe1b;" horiz-adv-x="786" d="M-39 494q8 21 18.5 42t26.5 34q38 32 78.5 62.5t89.5 47.5q29 11 55.5 6.5t53.5 -13.5q12 -4 22.5 -11t21.5 -12q56 -23 78.5 -61t22.5 -102q0 -38 5 -76t12 -76t15 -76t15 -76q5 -32 21 -44.5t48 -15.5q22 -2 41.5 8.5t27.5 36.5q22 68 30 141q8 100 -6 196.5t-30 194.5 q-1 10 -2 19t-3 19q-1 1 -1 3q-7 45 -14.5 90.5t-14.5 89.5q-3 23 -4 47t-1 48q0 38 -8 72.5t-27 66.5q-5 11 -7.5 23.5t-3.5 25.5q-3 64 51 76q32 8 58 -4.5t39 -41.5q4 -10 6 -21l4 -22q3 -18 4.5 -36t6.5 -35q11 -34 11.5 -66t-11.5 -66q-14 -42 -17.5 -82t-0.5 -82 q21 -119 42 -238.5t21 -240.5q-1 -55 -6 -108.5t-20 -107.5q-31 -110 -144 -119q-42 -3 -83.5 0.5t-79.5 26.5q-17 10 -28.5 20t-17 21.5t-6.5 25.5t3 34q11 58 8.5 115t-12.5 114q-4 17 -10.5 34.5t-29.5 28.5q-26 -11 -51.5 -21.5t-51 -19t-52.5 -13.5t-55 -3 q-20 2 -39 3.5t-38 6.5q-42 11 -58.5 41t-2.5 70zM97 478q18 1 30 1t22 3q22 8 43.5 18t41.5 21q5 3 6.5 15t-0.5 20q-2 5 -10.5 9t-16.5 5q-8 2 -17.5 1t-14.5 -6q-22 -17 -44.5 -34.5t-39.5 -52.5z" />
<glyph unicode="&#xe1c;" horiz-adv-x="823" d="M12 587q0 48 1 94.5t4 94.5q2 20 7.5 39.5t15.5 36.5q23 39 55 43t66 -25q37 -32 56.5 -72t22.5 -87q5 -69 -2 -135.5t-34 -130.5q-12 -29 -13 -66.5t7.5 -75.5t26 -72t43.5 -56q11 32 21 59t17 54q9 34 28 57.5t44 34t54.5 8t58.5 -21.5q27 -18 50.5 -42t47.5 -46 q13 -11 26.5 -22.5t31.5 -27.5q6 42 1 74.5t-10 64.5q-15 94 -44 183t-66 177q-18 43 -22.5 85t10.5 87q13 38 38 56t60 14q41 -5 62.5 -25.5t25.5 -63.5q4 -36 3 -72t2 -73q4 -58 8.5 -115.5t13.5 -114.5q11 -63 27.5 -123t27.5 -123q8 -48 12 -96.5t9 -96.5q2 -32 -15 -54 t-42 -37q-19 -11 -45 0t-47 37q-26 32 -50.5 64t-51.5 63q-35 38 -79 71q-23 17 -40 11.5t-30 -31.5q-16 -32 -33.5 -63t-34.5 -63q-16 -29 -41 -44.5t-57 -11.5t-51.5 27t-29.5 52q-17 48 -32 95.5t-30 95.5q-19 60 -37.5 118t-35.5 117q-11 38 -11 74z" />
<glyph unicode="&#xe1d;" horiz-adv-x="714" d="M-20 436q0 20 1 40.5t3 39.5q0 2 0.5 4t0.5 4q5 36 11 72.5t21 71.5q9 23 25.5 39.5t36.5 28.5q19 13 41 13q14 0 27 -5.5t25 -14.5q19 -14 26 -34t2 -43q-11 -52 -23.5 -103.5t-25.5 -103.5q-6 -26 -20 -46.5t-40 -30.5q-6 -3 -8.5 -9.5t-1.5 -13.5l1 -18q2 -17 3.5 -32 t6.5 -28q14 -42 37 -81t57 -70q18 -18 28 -18q11 0 21 28q8 20 15.5 44.5t14.5 50.5q6 23 14 45v7q0 10 4 18l-1 -1q9 33 9 64q0 11 -1 22.5t-4 23.5q-6 26 -0.5 49t28.5 42l-1 -1q18 15 37 15q25 0 39 -24h-1q11 -18 21 -37.5t15 -38.5q13 -57 40 -110.5t57 -104.5h-1 q10 -17 26 -28.5t38 -19.5q15 22 18 46t3 48q1 24 1 48v48q0 59 -0.5 117.5t-1.5 115.5q0 17 -0.5 33t-0.5 32q-1 51 -2.5 101t-3.5 101l-2 67q-1 32 -2.5 64.5t-3.5 64.5l-3 63q0 9 -0.5 18t-0.5 18v25.5t-1 26.5l-8 96t-9 95q-2 7 -5 14t-6 15l-7 17q-6 19 -6 36 q0 40 37 59q13 5 26.5 4t24.5 -6.5t19 -15.5t10 -24v-7q0 -2 1 -4l2 -165l3 -162q2 -124 4.5 -245.5t5.5 -244.5q1 -38 2.5 -74t3.5 -73q2 -26 3 -55.5t2 -55.5q1 -18 1.5 -39.5t0.5 -39.5q0 -50 -4.5 -99.5t-16.5 -98.5q-8 -36 -26.5 -49.5t-42.5 -13.5q-18 0 -38 5 q-35 9 -63 31t-50 51q-10 14 -17.5 31t-15.5 32l-2 7l1 -4l-42 89q-1 -3 -1.5 -6t-1.5 -8l-19 -59q-8 -28 -18.5 -60t-19.5 -60q-7 -17 -17.5 -34t-23.5 -29q-21 -24 -53 -24q-12 0 -25.5 4t-26.5 11q-43 22 -67.5 58t-44.5 74l-14 28v-1q-33 62 -46.5 126t-13.5 131z M92 556q6 16 10 20l8 -19zM101 583q0 -5 1 -7l3 3q-1 1 -2 1.5t-2 2.5z" />
<glyph unicode="&#xe1e;" horiz-adv-x="1025" d="M29 562q12 51 24 103t27 102.5t35 99t48 94.5q11 17 26.5 31t32.5 22q35 16 59 4t34 -50q8 -32 11 -64t10 -64q3 -15 10.5 -30.5t18.5 -26.5q28 -27 35 -47.5t-12 -51.5q-28 -43 -31.5 -85.5t7.5 -90.5q11 -43 16 -87t13 -88q4 -21 11 -41.5t13 -41.5h17l8 40t7 40 q14 81 28 161.5t28 161.5q2 14 6 27t10 25q20 42 55.5 53t73.5 -18q23 -17 42 -39t33 -46q36 -64 69 -129t68 -131q4 -8 11 -16t18 -22q5 18 8.5 29.5t4.5 22.5q5 85 9.5 168.5t6 167t0 166.5t-8.5 169q3 -3 9.5 3.5t17.5 7.5q10 0 20.5 -5.5t15.5 -4.5q14 -186 20.5 -370.5 t-3.5 -371.5q-1 -26 2.5 -51t8.5 -50q7 -36 -2 -62t-35 -37q-55 -23 -93 47q-29 52 -56 104.5t-55 106.5l-78 144q-4 6 -6.5 12t-7.5 11q-8 7 -14 16.5t-13.5 18t-16.5 13.5t-23 2q-14 -2 -21 -9.5t-10 -17t-4 -20t-2 -19.5q-30 -155 -51 -309q-5 -39 -7 -78.5t-5 -78.5 q-2 -26 -16 -43t-37 -18q-24 -1 -43 9t-26 36q-14 48 -26 95.5t-23 95.5q-14 62 -25 123.5t-23 124.5q-1 5 -4.5 9t-8.5 9q-25 -15 -49.5 -29.5t-49.5 -29.5q-52 -31 -102 4q-53 36 -40 94zM133 571q25 0 48 9.5t39.5 26t26 38.5t8.5 46q-1 43 -5 85t-9 85q-1 5 -5 11.5 t-11 18.5q-40 -80 -66.5 -157.5t-25.5 -162.5z" />
<glyph unicode="&#xe1f;" horiz-adv-x="1007" d="M12 533q12 51 24 103t27 102.5t35 99t48 94.5q11 17 26.5 31t32.5 22q35 16 59 4t34 -50q8 -32 11 -64t10 -64q3 -15 10.5 -30.5t18.5 -26.5q28 -27 35 -47.5t-12 -51.5q-28 -43 -31.5 -85.5t7.5 -90.5q11 -43 16 -87t13 -88q4 -21 11 -41.5t13 -41.5h17l8 40t7 40 q14 81 28 161.5t28 161.5q2 14 6 27t10 25q20 42 55.5 53t73.5 -18q46 -35 75 -86q36 -64 69 -129t68 -130q4 -8 11 -16t18 -22q5 17 8.5 29t3.5 23q23 345 -6 689q-8 91 -15 180.5t-20 179.5q-6 46 -11.5 91.5t-12.5 91t-17.5 90.5t-26.5 89q-12 32 -4 66.5t41 53.5 q59 34 101 1q25 -19 32 -50.5t-7 -60.5q-4 -8 -8 -15.5t-10 -13.5q-22 -20 -26.5 -43.5t-1.5 -49.5l18 -156t17 -156q25 -264 42 -528t3 -529q-1 -26 2.5 -51t8.5 -51q7 -35 -2 -61t-35 -37q-55 -23 -93 47q-29 52 -56 104.5t-55 106.5l-78 144q-4 6 -7 12t-8 11 q-8 7 -14 16.5t-13 18t-16 13.5t-23 2q-14 -2 -21 -9.5t-10 -17t-4 -20t-3 -19.5q-14 -78 -26.5 -155t-23.5 -155q-5 -38 -7 -77.5t-5 -78.5q-2 -26 -16 -43t-37 -18q-24 -1 -43 9t-26 36q-14 48 -26 95.5t-23 95.5q-14 62 -25 123.5t-23 124.5q-1 5 -4.5 9t-8.5 9 q-25 -15 -49.5 -29.5t-49.5 -29.5q-52 -31 -102 3q-53 38 -40 95zM116 541q25 0 48 10t39.5 26.5t26 38.5t8.5 46q-1 43 -5 85t-9 84q-1 6 -5 12.5t-11 18.5q-40 -80 -66.5 -157.5t-25.5 -163.5z" />
<glyph unicode="&#xe20;" horiz-adv-x="777" d="M21.5 337.5q6.5 55.5 26.5 110.5q21 62 64.5 95t106.5 42q6 1 14 2.5t26 4.5q-20 27 -36 48.5t-31 42.5q-13 19 -25 38t-23 39q-27 56 18 101q21 22 44.5 19t46.5 -12q14 -5 22 -12q23 -18 45.5 -24.5t44.5 -4.5t44 12t45 25q60 40 131 62q35 11 68 3t58 -29t39.5 -53.5 t12.5 -70.5q-3 -66 -6.5 -131.5t-12.5 -131.5q-16 -115 -13.5 -228t22.5 -228q4 -26 0.5 -48t-28.5 -39q-21 -15 -43 -17.5t-40.5 5.5t-31.5 25.5t-16 43.5q-2 12 0.5 24t4.5 24q2 21 6 42.5t6 42.5q6 88 11.5 173.5t10.5 173.5q3 56 -1.5 110t-20.5 108q-8 31 -22 38.5 t-45 2.5q-23 -3 -42.5 -11.5t-37 -20t-34 -25.5t-32.5 -28q-7 -6 -6 -22t3 -28q8 -47 19 -93t13 -93q3 -80 -16 -155t-54 -146q-20 -41 -54.5 -69.5t-73.5 -50.5q-27 -14 -53 -8.5t-49 25.5q-42 37 -67 83.5t-35 100.5q-10 57 -3.5 112.5zM182 180q26 -5 33 3.5t5 33.5 q-11 -11 -19 -18.5t-19 -18.5z" />
<glyph unicode="&#xe21;" horiz-adv-x="1025" d="M-1 705q2 34 18.5 61.5t44.5 46t61 21.5q63 5 120 -9t108 -52q36 -28 71.5 -57t58.5 -71q11 -21 22 -44t14 -46q5 -38 26.5 -57t50.5 -35q25 -14 49 -28t45.5 -31.5t39.5 -39.5t30 -51q18 -41 47 -75.5t71 -68.5q2 23 5 42t2 36q-4 71 -7.5 141t-10.5 140q-2 23 -11 46.5 t-21 44.5q-26 43 -30.5 89.5t-2.5 93.5q1 23 12 42t27 31.5t36 18.5t41 3q43 -6 66.5 -40t15.5 -84q-13 -91 -22.5 -180.5t1.5 -180.5q2 -11 0.5 -23t-3.5 -23q-8 -56 -1 -109.5t18 -107.5q6 -30 12 -59.5t8 -59.5q1 -23 -8.5 -42t-25.5 -31.5t-35.5 -15.5t-37.5 7 q-16 8 -29.5 22t-24.5 28q-41 56 -79.5 112.5t-81.5 110.5q-24 30 -53.5 55.5t-59.5 50.5q-9 8 -25 9t-36 6q5 -45 8.5 -83t7.5 -74q3 -20 7.5 -40t3.5 -40q0 -41 -21.5 -61.5t-62.5 -15.5q-25 3 -49.5 12.5t-45.5 23.5q-39 25 -66 58.5t-42 72.5t-18 82t6 87q5 29 24 50.5 t42 39.5q26 22 40.5 48.5t7.5 61.5q-1 7 -6 14t-13 22q-12 -29 -21 -52t-18 -45q-28 -72 -104 -78q-18 -1 -34 3.5t-27 21.5q-8 10 -17.5 19t-16.5 20q-22 37 -43.5 74t-41.5 75q-18 33 -16 67z" />
<glyph unicode="&#xe22;" horiz-adv-x="1077" d="M15 546q-20 92 16 174q19 42 41 81.5t44 79.5q30 56 88 80q43 18 86.5 27t91.5 4q33 -3 56.5 -18t34.5 -43q16 -38 27 -78t20 -80q5 -24 -4.5 -43.5t-32.5 -30.5q-24 -13 -48 -24t-49 -18t-52 -8.5t-55 6.5q-18 4 -38 6q-31 0 -54 11t-35 45q-25 -42 -38.5 -84t-4.5 -90 q6 -30 23.5 -52.5t39.5 -41.5q74 -66 171 -86q15 -3 31.5 2.5t32.5 7.5q20 3 40 6.5t41 5.5q28 3 40 -14t19 -39q8 -26 3.5 -44t-25.5 -35q-8 -6 -16.5 -9.5t-16.5 -8.5q-16 -11 -18 -22.5t14 -20.5q22 -14 45.5 -26t48.5 -17q61 -11 122.5 -17.5t123.5 -13.5q33 -4 56 14.5 t30 53.5q7 38 11.5 76.5t9.5 76.5q3 25 5 50t8 49q17 69 11.5 137t-22.5 136q-3 14 -5.5 27t-3.5 27q-3 29 -5.5 57.5t-4.5 57.5v16.5t1 16.5q5 40 23.5 56.5t55.5 12.5q16 -2 30.5 -9.5t24.5 -19t14 -26t-1 -29.5q-7 -24 -8.5 -48.5t-1.5 -49.5t-1.5 -49.5t-8.5 -48.5 q-5 -19 -4 -40.5t3 -41.5q7 -72 5 -143t-20 -143q-13 -52 -23 -104.5t-22 -105.5q-5 -19 -11.5 -37.5t-18.5 -32.5q-12 -13 -31 -24t-35 -9q-95 11 -188.5 23.5t-187.5 32.5q-60 14 -102.5 54t-63.5 102q-4 11 -14 21.5t-21 16.5q-20 11 -41 17.5t-41 16.5q-39 19 -74 42 t-63 52t-48 65.5t-30 81.5zM199 813q33 -14 59 -24.5t51 -21.5q5 -2 10 -4.5t10 -1.5q9 1 19.5 2t15.5 6q5 8 7 19.5t-1 20.5q-4 14 -14.5 25.5t-24.5 18.5t-29.5 9t-29.5 -4q-19 -8 -36 -20t-37 -25z" />
<glyph unicode="&#xe23;" horiz-adv-x="817" d="M2.5 807.5q-0.5 8.5 0.5 16.5q3 25 14 44.5t26 36t32 31.5t33 30q24 23 57 25.5t66 -5.5q30 -8 57 -20t53 -32q48 -38 100.5 -70t105.5 -64q29 -18 43.5 -9.5t19.5 44.5q3 19 5.5 38t5.5 38q4 26 17.5 42.5t39.5 19.5q28 4 54 -1t43 -33q16 -25 20.5 -50t-10.5 -54 q-23 -42 -43.5 -83.5t-44.5 -81.5q-8 -14 -24 -24.5t-35 -26.5q14 -26 27.5 -54t29.5 -56q30 -50 39.5 -102t-11.5 -108q-23 -63 -53 -121.5t-83 -102.5q-48 -40 -101 -53t-115 8q-106 35 -168.5 106.5t-86.5 177.5q-12 57 -8 115.5t19 118.5q-27 26 -44.5 55.5t-31 61 t-23.5 63.5t-22 64q-3 7 -3.5 15.5zM140 753q-3 -21 11 -49q30 -59 90 -41q51 14 102.5 29.5t113.5 33.5q-25 13 -45.5 29t-40 31t-39 28t-41.5 22q-39 16 -69 7.5t-56 -40.5q-23 -29 -26 -50zM294 491q12 -15 19 -22t13 -8t12.5 5.5t17.5 18.5q-19 2 -33.5 3t-28.5 3z M329 328q10 -12 18 -24.5t16.5 -21t19 -12.5t24.5 1q24 8 28.5 31.5t-0.5 57.5q-28 -8 -52.5 -15.5t-53.5 -16.5zM469 568q23 -53 47 -99t38 -94q7 -26 5 -52t-9.5 -51.5t-19.5 -51t-24 -51.5q35 19 57.5 49t33.5 65t12 72t-6 69q-9 40 -33 69.5t-52 56.5q-8 8 -21 10.5 t-28 7.5z" />
<glyph unicode="&#xe24;" horiz-adv-x="599" d="M-31 640.5q-1 21.5 13 41.5q11 16 23 32t28 27q27 17 52.5 36t52.5 36t56 30.5t61 20.5q66 14 126.5 5.5t114.5 -54.5q31 -26 44 -61t26 -71q22 -65 23.5 -131.5t0.5 -132.5q-2 -88 -7 -175t-5 -175q0 -14 1 -40.5t2 -59.5t2.5 -70.5t3.5 -72.5t3.5 -65t2.5 -49h1 q1 -7 1 -13.5t1 -13.5q2 -20 0.5 -39t-3.5 -39q-6 -47 -15 -98q-3 -23 -12 -45q-9 -23 -31.5 -37t-42.5 -11q-9 1 -19 7.5t-18 16.5t-13.5 21.5t-6.5 22.5q-2 25 6 46q17 42 24 84t10 85h1q0 18 1 51t2 67t1.5 60t0.5 29q6 139 10 276.5t5 276.5q0 67 -10.5 132t-47.5 125 q-14 23 -33 35t-45 18q-32 7 -68.5 1t-71.5 -23t-65 -43.5t-48 -60.5q20 -25 43.5 -37.5t52.5 -16.5q15 -2 30.5 -5t29.5 -10q17 -9 26.5 -23.5t10.5 -30t-6.5 -31t-22.5 -27.5q-21 -15 -46 -26q-17 -7 -28 -17.5t-18 -23.5t-12 -28t-10 -31h55q32 -1 57 -13.5t39 -44.5 q19 -41 32.5 -82t1.5 -88q-9 -34 -27 -56.5t-42 -32t-52 -5.5t-57 24q-41 28 -64.5 68t-37.5 86q-7 26 -10 52t-5 52q-2 38 8.5 72t30.5 66q16 24 23 38t4.5 24.5t-15.5 20t-38 25.5q-20 13 -38 27t-35 31q-17 19 -18 40.5zM196 166q-2 -26 34 -29v56q-18 2 -25.5 -6.5 t-8.5 -20.5z" />
<glyph unicode="&#xe25;" horiz-adv-x="910" d="M12 559q-2 58 9 112t45 102q25 35 59 55t74 31q65 17 130.5 17t131.5 -7q13 -1 25 -6t24 -11q93 -45 167 -109t122 -159q11 -21 25 -41t24 -42t16 -45.5t12 -47.5q5 -19 8 -39t5 -40q3 -29 5 -59t3 -60q1 -24 -1.5 -48.5t-2.5 -48.5q0 -41 -13.5 -61.5t-47.5 -28.5 q-33 -8 -55 4.5t-39 49.5q-11 23 -20.5 47t-19.5 48q-65 176 -228 262q-24 13 -47.5 26t-48.5 24q-16 7 -33 11t-34 5q-32 2 -49 -10.5t-28 -42.5q-11 -32 -13 -65.5t4 -75.5q9 12 15 19.5t11 14.5q20 26 43.5 41t58.5 7q33 -7 54.5 -27t28.5 -51q10 -42 16 -85t7 -86 q0 -26 -12.5 -51t-33 -45t-46.5 -32t-52 -12q-36 -1 -62 18.5t-48 45.5q-21 25 -35.5 53t-25 57.5t-18.5 60t-16 60.5q-14 56 -10.5 109t22.5 106q7 20 25 39.5t41.5 35t49 25t46.5 8.5q43 -2 82.5 -11t75.5 -34q29 -20 60 -34t61 -31q48 -27 90.5 -59.5t74.5 -80.5 q6 -10 14.5 -18.5t19.5 -21.5l7.5 15t1.5 8q-6 40 -15 79t-23 75.5t-35.5 69.5t-54.5 61q-20 17 -38 35t-39 33q-90 63 -184 67.5t-192 -37.5q-29 -12 -48 -35t-30 -53q-10 -24 -17 -49t-18 -48q-5 -10 -16 -18.5t-21 -8.5q-8 0 -13 3.5t-7.5 9t-3 12.5t-0.5 13zM265 194 q2 -23 9.5 -36.5t27.5 -9.5q17 3 26.5 16t1.5 36q-16 -2 -31.5 -3t-33.5 -3z" />
<glyph unicode="&#xe26;" horiz-adv-x="599" d="M19 266q5 48 12.5 94.5t32.5 89.5q13 23 27.5 41.5t32.5 30t40.5 15t51.5 -3.5q2 -1 4.5 0.5t4.5 2.5q9 44 -13 82t-63 51q-13 4 -26.5 7.5t-25.5 9.5q-17 9 -25.5 22t-9 27t7 27.5t23.5 23.5q18 10 38 15q37 11 74 21.5t75 20.5q48 12 92.5 5.5t88.5 -25.5 q32 -14 48 -38t21 -58q11 -85 15.5 -168t0.5 -168q-5 -118 -8 -236t-8 -236q-1 -21 -4.5 -42t-5.5 -43q-8 -93 -15.5 -184.5t-13.5 -184.5q-2 -24 -0.5 -48t3.5 -47q3 -23 -3 -40t-26 -29q-20 -13 -40 -13.5t-35 11.5q-39 31 -25 76q2 10 4 14q19 41 29 84t15 86.5t7.5 87 t5.5 87.5q13 153 22 305t16 306q3 68 -1 135t-7 136q0 11 -2.5 22t-4.5 22q-16 69 -65 95t-114 0q-8 -4 -15 -10.5t-18 -14.5q8 -11 14 -19.5t12 -16.5q49 -57 62 -121.5t-6 -136.5q-12 -47 -26 -92t-14 -94q0 -16 -10 -28q-31 -39 -48.5 -84t-37.5 -89q-19 -41 -64 -38 q-29 1 -44 11t-26 42q-17 49 -26 100t-4 102zM103 263.5q-2 -60.5 9 -121.5q5 -1 9 -1.5t8 -0.5q14 48 28 95.5t26 96.5q3 11 1 24t-6 25q-2 7 -9.5 14t-13.5 7q-7 1 -15 -5t-11 -13q-24 -60 -26 -120.5z" />
<glyph unicode="&#xe27;" horiz-adv-x="639" d="M-9 444q0 19 6 36q10 31 20.5 62.5t24 61t31.5 56.5t43 51q23 22 44 45t44 43q73 60 167 29q45 -15 83.5 -37t65.5 -63q17 -26 37.5 -50t37.5 -50q16 -27 23 -55t8 -57t-3 -58t-10 -58q-8 -40 -17.5 -78.5t-14.5 -78.5q-6 -50 -25 -94t-44 -86q-39 -67 -110 -42 q-58 19 -92 74q-29 48 -47 100.5t-13 110.5q3 37 12.5 63.5t24.5 44t34.5 28t43.5 15.5q45 10 72 -1.5t52 -52.5q3 -6 7 -13t12 -19q23 67 14 126t-35 114q-18 39 -52 63.5t-72 42.5q-21 11 -46.5 7t-45.5 -20q-25 -20 -49.5 -39.5t-40.5 -45.5q-18 -27 -35.5 -54.5t-32 -57 t-23 -61t-8.5 -66.5q1 -25 -12.5 -32.5t-36.5 1.5q-20 8 -30 22.5t-11 34.5q-1 19 -1 38zM374 267q0 -7 5 -15t14 -23v72q-9 -12 -14 -19.5t-5 -14.5z" />
<glyph unicode="&#xe28;" horiz-adv-x="829" d="M8 583q0 10 0.5 20.5t1.5 19.5q2 18 3.5 36t6.5 34v-1q16 64 57 100.5t105 50.5q51 9 104 9q31 0 63 -3.5t64 -8.5q19 -4 36.5 -9t33.5 -10l17 -5l3 7q13 32 20 64t7 65t-9.5 68t-28.5 69q-5 8 -12.5 17t-18.5 14q-16 8 -22.5 23t-5.5 35t12 33t28 17q14 3 31.5 -4.5 t25.5 -21.5q32 -60 54.5 -123t22.5 -132q0 -14 -1 -26.5t-3 -24.5q-4 -29 -13 -59t-21 -56q30 -23 55.5 -52.5t42.5 -64.5q7 -14 13.5 -28t14.5 -28q10 -21 20.5 -41.5t19.5 -42.5q13 -28 23.5 -58.5t18.5 -56.5q6 -20 6 -41q0 -29 -6 -48q-3 -11 -5 -21.5t-1 -20.5v-36 q0 -33 1.5 -66.5t8.5 -67.5q1 -6 3 -11t3 -9.5t3 -8.5l2 -10v3q6 -20 0 -35.5t-21 -25.5t-31 -10q-19 0 -36 16q-13 11 -16 27t7 31q7 9 9 20.5t2 24.5q0 18 -0.5 36t-0.5 36v52.5t-1 54.5q-1 11 -3.5 22.5t-5.5 22.5l-6 23q-1 8 -1.5 15t1.5 15q5 18 2 35.5t-8 34.5h1 q-14 40 -32.5 82t-41.5 84q-15 26 -35.5 49t-41.5 40q-24 -35 -55 -61v1q-8 -8 -16.5 -14t-17.5 -12l-17 -12h-11q-9 0 -20 -3.5t-19 -9.5q44 -68 42 -154q0 -34 -21 -46t-47 -6q-14 3 -27 7.5t-25 11.5q-4 2 -9.5 5t-9.5 5q-21 10 -42 22.5t-41 29.5q-1 -19 2 -37.5 t6 -35.5q5 -43 24.5 -79t45.5 -71q18 -24 38 -44.5t42 -39.5q11 -11 23.5 -22.5t23.5 -22.5q8 -6 13 -15t9 -19q8 -24 -3 -39t-36 -14q-24 0 -47 13h1q-47 25 -84 59q-62 57 -110 127t-84 144q-11 25 -21.5 50.5t-18.5 48.5q-13 42 -13 94zM79 591q0 -49 13 -97 q11 -36 25 -70t34 -65q-12 41 -19.5 82.5t-5.5 87.5q2 6 0 13.5t-3 15.5l-3 19q-3 19 6 38t27 21q16 2 27.5 10.5t23.5 17.5l14 10q42 31 79 19q8 1 15 2.5t15 2.5q32 5 64.5 11t45.5 19l25 31q-10 3 -20.5 5.5t-21.5 5.5q-35 8 -70 13.5t-70 3.5q-28 -1 -55.5 -5.5 t-53.5 -13.5q-36 -15 -58.5 -43t-28.5 -68v1q-2 -17 -3.5 -34t-1.5 -33zM151 359l4 -11v3l2 -14q0 -6 0.5 -9t1.5 -7l12 12h-2zM227.5 579q-6.5 -12 4.5 -23l5 -5q20 -24 43.5 -45.5t55.5 -27.5q8 -2 11 0.5t3 15.5q-6 56 -49 108v-1q-4 5 -8 7.5t-8 4.5h1q-7 2 -13 0 q-12 -3 -28 -14q-11 -8 -17.5 -20zM274 -4331q0 11 0.5 21t1.5 21q2 17 3.5 34.5t5.5 33.5q17 63 58 99.5t104 50.5q49 10 104 10q31 0 63.5 -3.5t63.5 -9.5q23 -5 44.5 -10.5t42.5 -12.5v1q0 3 3 6q12 31 19.5 64t7.5 63q0 68 -37 139q-5 9 -11 16.5t-16 12.5 q-19 9 -26 25.5t-6 34.5q1 20 11 33t27 16q16 3 32.5 -4.5t24.5 -21.5v1q32 -61 55.5 -123.5t23.5 -132.5q0 -13 -1 -25t-3 -25q-4 -29 -14 -59t-22 -56q32 -23 57 -51.5t43 -65.5q14 -34 33 -70q9 -17 17.5 -34.5t16.5 -35.5q26 -59 43 -115q6 -20 6 -43q0 -25 -6 -46 q-3 -11 -5 -21.5t-2 -19.5q0 -11 0.5 -22t0.5 -22q1 -32 2 -63t8 -63q1 -6 3 -11q3 -9 5 -19l2 -10v3q11 -40 -20 -62q-16 -10 -33 -10t-36 17q-14 12 -16.5 27.5t8.5 30.5v-1q11 19 11 46q0 15 -0.5 30.5t-0.5 29.5v59.5t-2 58.5q-1 12 -3.5 25t-5.5 24v-1q-2 5 -2.5 10 t-2.5 13q-1 7 -1.5 15t1.5 14q5 17 2 34.5t-9 33.5q-13 42 -32 85.5t-39 81.5q-16 25 -36.5 48t-40.5 40q-13 -17 -27 -32t-28 -28q-10 -9 -22 -17l-21 -14l-8 -7q-5 2 -7 2h-4q-22 0 -39 -14q20 -35 31.5 -71.5t10.5 -81.5q-1 -35 -22.5 -47t-47.5 -7q-14 4 -26.5 8 t-26.5 12h1l-20 10q-22 11 -42.5 23t-37.5 30q-1 -15 1 -30l4 -30l2 -14q7 -40 26.5 -78t42.5 -71q19 -25 39.5 -46.5t43.5 -41.5v1q12 -10 23 -21l22 -22q14 -14 22 -33q9 -25 -2.5 -39.5t-37.5 -14.5q-12 1 -23.5 4t-22.5 8q-45 25 -82 58q-61 56 -110 127.5t-85 146.5v-1 q-13 23 -22.5 48t-17.5 50q-12 46 -12 94zM345 -4321q0 -49 12 -98q20 -71 58 -133q-11 40 -18 81t-5 86q0 14 -5 34l-3 15q-3 19 6 38t27 21q17 2 28.5 10t22.5 16l8 6t7 6q44 30 81 19l23 4q16 2 33.5 5t34 6.5t29.5 9t20 12.5h-1l12 14h-1l13 14q-9 3 -19 6t-22 5 q-35 8 -70.5 14t-70.5 5q-29 -2 -56 -5.5t-53 -14.5q-39 -14 -60 -42t-26 -69q-3 -17 -4 -32.5t-1 -32.5zM415 -4552l2 -8q5 -14 5.5 -17t-0.5 -3q0 -6 2 -12l14 11l-6 3zM492.5 -4333q-6.5 -11 4.5 -23h-1l7 -8q21 -23 43.5 -44t54.5 -27q8 -2 10.5 0.5t3.5 14.5 q-3 27 -15.5 55t-33.5 53q-5 5 -9.5 8l-7.5 5q-5 2 -6 1q-9 -4 -17 -8t-15 -8q-12 -8 -18.5 -19z" />
<glyph unicode="&#xe29;" horiz-adv-x="875" d="M-22 683q0 23 4 43.5t13 36.5q24 42 58.5 72t86.5 41q20 4 38.5 6t38.5 2q30 0 60 -7t59 -24q42 -26 59.5 -65.5t15.5 -85.5q-1 -63 -10.5 -125t-22.5 -121q-6 -30 -10 -62t-4 -62q0 -15 1.5 -32.5t3.5 -34.5q5 -34 17.5 -67t31.5 -63h-1q8 -13 14 -18.5t14 -5.5 q10 0 30 10h-1q40 20 63 54t40 72q6 14 10.5 24t9.5 24q-2 1 -2.5 2t-1.5 2q-14 14 -28 27t-27 29q-26 33 -38.5 69t-12.5 72q0 21 3.5 42t9.5 42q8 23 29.5 39t47.5 15q18 -1 34 -5.5t28 -14.5q-1 16 -2.5 30t-3.5 29q-3 27 -21 41h1q-5 4 -9 8.5t-7 8.5q-6 9 -9 19.5 t-3 19.5q0 23 14.5 41.5t40.5 23.5q11 2 23.5 -3.5t20.5 -11.5q16 -13 23.5 -31t7.5 -39q0 -8 0.5 -16t0.5 -16q1 -24 1 -53.5v-53.5q0 -46 -2 -92.5t-8 -92.5q-1 -9 -2 -18.5t-3 -17.5q3 7 5 24q1 11 7 23t15 23t20 19t21 10q18 5 35.5 -4t29.5 -28h-1q5 -8 7 -16.5 t2 -17.5q0 -11 -3 -21t-9 -17l-30 -33h1q-15 -17 -31 -33.5t-31 -33.5q-15 -15 -34 -20.5t-40 -3.5q-15 -38 -35.5 -77t-43.5 -71q-14 -20 -32.5 -40t-38.5 -34q-17 -11 -35.5 -16.5t-38.5 -10.5q-2 0 -3 -0.5t-3 -0.5h1q-16 -4 -28 4.5t-22 19.5l1 -1q-33 38 -57.5 78 t-34.5 91v-1l-8 33q-6 20 -11 42t-3 46v-1q0 9 1 16.5t3 18.5q11 59 21.5 117.5t21.5 118.5q2 10 3 20t1 19v1q0 1 -0.5 1.5t0.5 2.5l-18 -16q-15 -13 -30 -25t-35 -26q-12 -8 -29.5 -15t-34.5 -15q-5 -3 -13.5 -6t-14.5 -6q-11 -5 -23.5 -7.5t-24.5 -2.5q-11 0 -20 1.5 t-18 3.5q-13 4 -25.5 13.5t-21.5 18.5q-17 20 -28 56t-11 72zM61 675q0 -20 6 -44v1q5 -15 16 -23t25 -6q46 7 84 27.5t65 58.5q4 5 7 10.5t5 10.5v-1q6 16 10.5 30.5t11.5 35.5q-3 3 -7 6.5t-10 5.5q-34 20 -69 20q-22 0 -43.5 -6.5t-43.5 -17.5q-10 -6 -20 -13.5 t-15 -16.5h1q-23 -38 -23 -78zM595 410q3 0 5.5 0.5t5.5 0.5q-2 6 -2 10zM606 411q4 -15 16 -25q2 8 2.5 14.5t1.5 12.5q0 1 0.5 1.5t0.5 1.5q-5 -2 -10.5 -3t-10.5 -2zM627 416q8 3 16 9l-15 8q0 -2 -0.5 -5t-0.5 -5v-7z" />
<glyph unicode="&#xe2a;" horiz-adv-x="909" d="M8 561q-2 57 9 111t45 102q24 35 58 55t74 31q66 17 131.5 17t131.5 -6q7 -1 13 -3t13 -4q-5 54 -21.5 107t-45.5 107q-11 20 -24 35t-34 26q-28 14 -38.5 38.5t-9.5 54.5q2 28 17 47.5t39 24.5q22 4 48 -6.5t37 -31.5q29 -54 54.5 -110t44.5 -113t29.5 -116t10.5 -120 q65 -42 117 -95.5t87 -125.5q11 -22 25.5 -41.5t24.5 -42.5q10 -22 16 -45.5t12 -46.5q5 -20 8 -39.5t5 -39.5q3 -30 5 -60t3 -60q1 -24 -1.5 -48t-2.5 -49q0 -40 -13.5 -60.5t-47.5 -28.5q-33 -8 -55 4t-39 49q-11 24 -21 47.5t-19 48.5q-65 175 -228 261 q-24 13 -47.5 26.5t-49.5 24.5q-15 7 -32 10.5t-34 4.5q-32 2 -49 -10t-28 -43q-11 -32 -13 -65.5t4 -74.5q9 11 15 18.5t11 14.5q20 26 43.5 41.5t58.5 7.5q33 -8 54.5 -28t28.5 -51q10 -42 16 -84.5t7 -85.5q0 -26 -13 -51t-33.5 -45t-46 -32.5t-51.5 -12.5q-36 0 -62 19 t-48 45q-21 25 -35.5 53t-25 57.5t-18.5 60t-16 61.5q-15 55 -11 108t23 106q7 20 25 40t41.5 35t49 24.5t46.5 8.5q42 -2 81.5 -11t75.5 -33q2 4 2 6q34 84 45 167q-72 29 -146.5 24.5t-151.5 -37.5q-29 -12 -48.5 -35t-30.5 -52q-9 -24 -16 -49t-18 -48q-5 -10 -16 -19 t-22 -9q-16 -1 -19.5 12t-3.5 27zM261 196q2 -23 9.5 -37t27.5 -10q17 4 26.5 16.5t1.5 35.5q-17 -2 -32 -2.5t-33 -2.5zM524 524q8 -4 15.5 -7.5t15.5 -8.5q48 -27 90.5 -59.5t74.5 -80.5q6 -9 14.5 -18t19.5 -21q4 10 7 14.5t2 8.5q-6 40 -15 78.5t-23 75t-36 69.5t-54 61 q-15 13 -29 26.5t-28 26.5q-8 -42 -22 -83.5t-32 -81.5z" />
<glyph unicode="&#xe2b;" horiz-adv-x="730" d="M-1 721q29 105 111 171h-1q23 19 49.5 27t58.5 3q19 -3 38.5 -7.5t37.5 -11.5t34.5 -19t28.5 -30q11 -20 19.5 -44t13.5 -47q5 -24 8 -49.5t3 -51.5q0 -28 -4 -51q-6 -39 -18 -77l-35 -114q-14 -43 -27 -85.5t-25 -86.5q-5 -18 -8.5 -37t-3.5 -38q0 -38 20 -78l8 2h-1 l24 10q26 20 50.5 41.5t38.5 53.5q12 31 25.5 61t27.5 60l16 35q5 10 2 21t-8 22q-1 0 -1 1v2q-9 24 -19 47t-21 47l-7 15q-14 35 -22.5 71t-8.5 71q0 19 2.5 38t8.5 39q8 29 19.5 59.5t29.5 56.5q26 36 62.5 51t76.5 13q43 -1 71 -26t42 -63q5 -14 4.5 -30.5t-2.5 -30.5 l-4 -24l-4 -24q-7 -45 -17.5 -93.5t-27.5 -90.5q-3 -8 -7.5 -17.5t-7.5 -17.5q-12 -28 -25.5 -57.5t-32.5 -53.5q-8 -12 -10 -27t3 -29q22 -79 22 -162v-18.5t-1 -18.5q0 -9 0.5 -25t1.5 -25q1 -8 1.5 -15.5t0.5 -15.5q1 -29 -11.5 -45.5t-35.5 -15.5q-23 2 -37 22.5 t-11 48.5l8 35l4 16q2 13 3.5 24.5t1.5 22.5q0 19 -2.5 40t-5.5 41q0 1 -0.5 2t-0.5 2q-1 -1 -1 -3h1q-11 -46 -36 -84t-53 -76q-14 -20 -35 -35.5t-48 -21.5q-9 -2 -17 -5.5t-14 -7.5l-10 -7q-22 -11 -39.5 -9.5t-33.5 21.5l-1 1q-14 16 -22 36.5t-10 43.5q-3 31 -3 67 t4 72t13 70q10 36 24.5 77.5t29.5 82.5q11 32 21 65.5t9 68.5q0 8 2.5 18.5t5.5 21.5l-10 -8q-1 0 -3 -2q-16 -12 -33 -24.5t-31 -25.5q-20 -16 -39.5 -21t-44.5 3q-35 11 -67 28.5t-57 45.5q-16 18 -24.5 40t-0.5 48zM76 708q1 -11 4 -22t8 -19q11 -11 28.5 -17t36.5 -6 q16 0 31.5 5t23.5 16q20 22 36.5 44.5t25.5 48.5q7 19 15 33v-1l7 12q-7 17 -16 23t-28 8h-10q-12 0 -17 1q-22 4 -46 -6t-45 -28.5t-36 -42.5t-18 -49zM292 802l2 5v-11zM478 660q0 -20 3 -40.5t9 -40.5q6 -21 16 -44.5t22 -49.5l12 -31q29 53 56 109t38 116q5 27 8.5 52.5 t4.5 50.5q1 20 -12.5 37t-29.5 19q-22 1 -41 -5t-33 -24q-53 -69 -53 -149zM525 439q5 5 8.5 7t6.5 7v1l10 -21z" />
<glyph unicode="&#xe2c;" horiz-adv-x="1186" d="M10 580q-4 28 6 53.5t35.5 50t72.5 50.5q45 24 83.5 17t73.5 -30q20 -14 32.5 -37t24.5 -45q24 -46 41 -94t18 -102q0 -27 11 -54t19 -56q24 10 31.5 26.5t11.5 33.5q5 28 7.5 55.5t5.5 56.5q3 33 5.5 66.5t7.5 67.5q3 21 18 34t35 18q22 5 44 3t39 -22q8 -8 15 -17 t12 -19q20 -39 45.5 -73t54.5 -65.5t59.5 -61t61.5 -59.5q23 -24 49 -46l22 -16l22 -16q15 34 21 90t4 116t-11 115t-25 87q-31 0 -60 -1t-58 2q-33 4 -65.5 10t-60.5 30q-34 27 -48 61.5t-16 76.5q-3 96 56 173q60 77 135 14q13 -11 25 -22.5t23 -24.5q29 -33 56.5 -66 t55.5 -66q3 -3 7.5 -5t11.5 -6q36 27 60.5 63t42.5 78q4 8 6 16.5t4 16.5q14 37 40 51t61 0q13 -5 23.5 -17t16.5 -27t7 -31.5t-5 -29.5q-7 -14 -16.5 -26.5t-22.5 -19.5q-53 -29 -89.5 -73.5t-70.5 -89.5q-10 -12 -11.5 -32t2.5 -37q13 -72 16 -143t1 -143q-3 -145 -9 -286 q-1 -26 -18 -46t-43 -26q-48 -12 -79 28q-7 9 -13 18.5t-10 19.5q-20 59 -58 103t-80 87q-31 32 -64.5 61.5t-66.5 59.5q-4 4 -9 7.5t-13 9.5q-7 -11 -13 -19.5t-10 -18.5q-26 -62 -43.5 -124.5t-8.5 -130.5q4 -29 -0.5 -58.5t-21.5 -55.5q-35 -54 -79 -59t-91 46 q-59 62 -41 151q12 59 5 109t-35 104q-18 -4 -34.5 -7.5t-32.5 -7.5q-72 -16 -122.5 14.5t-73.5 99.5q-11 34 -15 62zM126 574q0 -26 19.5 -46t43.5 -21t41.5 16.5t17.5 43.5q0 14 -5.5 27t-14.5 23t-20.5 16t-23.5 6q-22 -2 -40 -22t-18 -43zM766 896q0 -27 12 -46.5 t31.5 -29.5t45.5 -9.5t56 13.5q-11 40 -36 69t-55 54q-12 10 -23.5 7.5t-19.5 -16.5q-5 -10 -8 -20.5t-3 -21.5z" />
<glyph unicode="&#xe2d;" horiz-adv-x="685" d="M29 241q4 32 10.5 62t10.5 62q7 45 10.5 89t12.5 89q15 69 39.5 135t59.5 129q39 71 100 98.5t133 -3.5q38 -16 74 -36t68.5 -45t59.5 -56.5t46 -71.5q10 -22 13.5 -44.5t8.5 -39.5q-11 -75 -18.5 -142.5t-23.5 -132.5q-18 -71 -53 -132.5t-103 -101.5q-15 -8 -28 -20.5 t-27 -23.5q-85 -66 -186 -32q-50 16 -93.5 43t-81.5 63q-24 22 -30 51.5t-2 59.5zM136 252q2 -17 7 -34.5t14 -31.5q17 -26 45 -43t60 -22.5t64.5 0t58.5 24.5q72 52 114.5 122t61.5 157q15 73 5.5 141t-53.5 130q-27 38 -64 64t-89 29q24 -29 32 -61.5t12 -67.5 q1 -12 4.5 -24t5.5 -24l10 -56t7 -57q2 -26 -4 -51.5t-29 -42.5q-48 -38 -101 -67t-116 -39q-27 -4 -37 -12t-8 -34zM180 403q48 -2 82 20t53 52q19 32 10.5 71.5t-29.5 79.5q-31 -21 -51.5 -46t-34 -53t-20.5 -59t-10 -65z" />
<glyph unicode="&#xe2e;" horiz-adv-x="581" d="M6 305q-6 46 2 90t25 86q13 33 41 49t63 22q6 1 12.5 1t19.5 2q-26 23 -46 40t-39 34q-19 18 -30 40t-14 46t3.5 48.5t21.5 45.5q12 18 27 34.5t32 30.5q31 28 65.5 29t66.5 -27q52 -47 96 -102q27 -35 48 -38t53 27q11 10 21 20.5t21 18.5q34 23 67.5 15.5t46.5 -41.5 q22 -54 -31 -81q-14 -8 -29 -12.5t-30 -9.5l-36 -15q-8 -5 -17 -10.5t-20 -12.5q4 -14 8 -27.5t7 -27.5l14 -54t12 -55q5 -27 -5 -52q-32 -77 -65 -152.5t-68 -150.5q-11 -23 -28 -42.5t-37 -34.5q-29 -23 -61 -21.5t-61 22.5q-137 99 -156 265zM113 269q11 -48 38.5 -81 t62.5 -59q11 -10 23 -7.5t20 12.5l28 34t22 37q21 50 40 99.5t35 100.5q13 43 11 86.5t-33 85.5q-32 -10 -62.5 -19.5t-62.5 -19.5q7 -8 11.5 -14t9.5 -11q13 -15 20 -26.5t8.5 -23t-2.5 -24.5t-13 -31q-8 -16 -17.5 -31.5t-16.5 -32.5q-28 -63 -97 -69q-6 -1 -11.5 -2.5 t-13.5 -3.5zM146 726q-1 -15 3.5 -29t14.5 -25t24 -15q29 -8 59.5 -7t60.5 28q-19 40 -50.5 63.5t-69.5 44.5q-8 -8 -17 -15.5t-16 -17.5q-8 -12 -9 -27z" />
<glyph unicode="&#xe2f;" horiz-adv-x="534" d="M7 693q-1 23 18 45t48 33q41 15 73 12.5t55 -33.5q6 -8 13 -16t13 -16q52 -77 -52 -130q15 -26 50 -30t69 16q15 9 24.5 16.5t13.5 15t3.5 17t-4.5 22.5q-3 10 -1 23t8 25.5t15 24t20 18.5q17 11 39 11.5t41 -9.5q10 -5 16.5 -17.5t6.5 -24.5q8 -71 9 -134.5t-2 -135.5 q-2 -34 -4 -80t-5 -99t-6.5 -110t-6.5 -111.5t-5.5 -104t-3.5 -87.5q-8 -2 -19 -3.5t-23 3.5q-11 4 -20.5 9.5t-9.5 18.5q2 50 5 122t6 146.5t6 141.5t5 108q2 42 0.5 82t-3.5 82q0 -2 -2 -4q-10 -17 -26.5 -30t-36.5 -21t-41.5 -11t-40.5 1q-29 6 -58.5 12t-56.5 17 q-69 26 -98.5 73.5t-31.5 111.5z" />
<glyph unicode="&#xe30;" horiz-adv-x="555" d="M98 247q-7 55 10 115q7 22 26.5 35.5t42.5 11.5q32 -2 53.5 -16.5t29.5 -51.5q2 -10 4 -19.5t4 -19.5q15 -91 -73 -100q3 -30 26.5 -47.5t52.5 -11.5q27 6 35.5 15.5t10.5 36.5q1 10 6 21t13 20.5t17.5 16.5t18.5 9q15 3 30.5 -4.5t25.5 -23.5q8 -11 7.5 -30t-10.5 -30 q-23 -26 -45.5 -52t-46.5 -50q-12 -12 -27 -17.5t-31.5 -5.5t-32 5.5t-27.5 16.5q-20 17 -38 33.5t-34 36.5q-41 51 -48 106zM107 751q2 16 4.5 31.5t6.5 30.5q6 22 22.5 31t37.5 11t38 -4.5t27 -26.5q5 -9 7 -22q7 -43 -4 -89q-2 -11 -4.5 -21.5t-7 -19.5t-13 -15.5 t-21.5 -9.5q4 -18 13.5 -29.5t22.5 -18t28 -8.5t29 -2q14 1 27 4.5t26 8.5q26 9 34 37q4 12 11.5 21t18.5 17q25 18 49 -6q17 -18 14.5 -43t-24.5 -38q-32 -18 -65 -36t-70 -27q-32 -8 -61.5 -1t-55.5 27q-14 11 -28 22.5t-25 25.5q-27 33 -34.5 71t-2.5 79z" />
<glyph unicode="&#xe31;" d="M-314 1267q6 28 14.5 55t34.5 47q23 18 48 20t51 -6q17 -5 23.5 -18.5t8.5 -28.5q4 -23 6.5 -46t6.5 -46q3 -20 6.5 -41t8.5 -48q14 16 24 27t20 21q14 15 33.5 20.5t34.5 -0.5t24 -22.5t8 -34.5q-2 -20 -12.5 -36t-30.5 -20q-25 -5 -45.5 -16.5t-41.5 -23.5 q-48 -27 -95 -22.5t-79 39.5q-33 39 -46 84t-2 96zM-239.5 1237.5q-2.5 -14.5 13.5 -36.5q12 9 18 15t7 12.5t-2.5 16t-10.5 24.5q-23 -17 -25.5 -31.5z" />
<glyph unicode="&#xe32;" horiz-adv-x="386" d="M42 678q5 24 11 48t11 48q7 28 26.5 45t40.5 31q12 8 32 8t34 -6q45 -19 81 -49t46 -82q8 -41 11.5 -81t5.5 -82q1 -35 -2 -71t-5 -72q-2 -41 -4 -81.5t0 -81.5q1 -37 5 -73.5t9 -72.5q3 -20 0.5 -38t-19.5 -31t-35 -12.5t-37 7.5q-22 8 -30 34q-11 29 -11 57.5t5 56.5 q9 57 12 113.5t4 113.5q0 22 4 43.5t6 43.5q5 43 5.5 85.5t-12.5 84.5q-4 14 -12 26.5t-17 23.5q-5 6 -14.5 10t-16.5 2q-6 -2 -11 -10.5t-7 -16.5q-8 -31 -4.5 -61.5t12.5 -60.5q2 -8 4.5 -17t3.5 -17q1 -19 -8.5 -35t-23.5 -21q-19 -6 -42 1.5t-32 23.5q-4 7 -7 14.5 t-3 15.5q-4 34 -6 67.5t-5 67.5q-2 0 -2.5 0.5t-2.5 0.5z" />
<glyph unicode="&#xe33;" horiz-adv-x="582" d="M-285.5 1078q-3.5 15 0.5 30.5t16 30.5q28 32 63 44.5t76 13.5q17 4 32.5 -1.5t26 -17.5t13.5 -28.5t-5 -32.5q-6 -13 -16 -24.5t-19 -23.5q-15 -19 -36.5 -25.5t-43.5 -14.5q-17 -7 -32 -5.5t-31 7.5q-18 7 -29.5 19.5t-15 27.5zM14 777q-2 25 15.5 42t39.5 25 q48 17 97 22.5t100 -8.5q38 -11 60 -40q34 -45 65.5 -90t54.5 -96q7 -18 11.5 -28.5t6.5 -21t3 -24.5t1 -38q-3 -28 -7 -63.5t-8 -73.5q-2 -13 -2 -25.5v-26.5q0 -19 -0.5 -38t1.5 -39q2 -28 5 -55.5t6 -56.5q2 -18 3 -36.5t1 -36.5q0 -14 -4 -26t-17 -21q-12 -8 -25 -9 t-24 4.5t-18.5 17t-8.5 26.5q-1 14 2 28t4 28q2 45 3 89.5t3 89.5q2 37 3.5 73.5t6.5 73.5q4 34 1.5 66.5t-17.5 63.5q-19 41 -36.5 82t-43.5 78q-42 58 -89 62.5t-101 -26.5q-14 -8 -13 -23t14 -24q6 -4 12.5 -6.5t12.5 -7.5q35 -23 19 -57q-6 -15 -21.5 -23t-33.5 -4 q-19 4 -33.5 14t-20.5 27q-10 27 -18 55t-10 57z" />
<glyph unicode="&#xe34;" d="M-624 1158q-1 30 8.5 53t20.5 43q18 26 45 52t53 41t58 22t64 4q10 0 13 -1q2 0 4.5 -0.5t4.5 -0.5q35 -4 71 -10.5t71 -23.5q90 -46 142 -126q15 -26 33 -51.5t40 -48.5q22 -21 22 -54q0 -25 -11 -46q-17 -31 -36 -42t-50 -5q-39 9 -74.5 13t-69.5 7h-6q-17 2 -34 3 t-34 3h1l-61 6q-13 2 -27 3t-28 3q-1 0 -3 0.5t-4 0.5q-8 1 -15 1h-14h-16.5t-17.5 -2q-40 -6 -70.5 11t-49.5 51q-11 21 -20.5 46t-9.5 48zM-518 1159q-3 -17 5.5 -28.5t25.5 -16.5l-1 1l15 -3h-2q6 -2 8 -2q17 -5 29 -5l285 -26h25q6 0 5 9q-1 7 -4 13q-11 20 -21.5 39.5 t-24 36.5t-30 30.5t-38.5 20.5q-7 3 -11 7l3 -2l-7 5q-24 17 -56 24.5t-61 9.5q-79 5 -125 -62l1 1q-8 -11 -12.5 -24.5t-8.5 -27.5zM-156 1079h3l-1 -29z" />
<glyph unicode="&#xe35;" d="M-773.5 1298q9.5 34 39.5 56q23 16 45.5 33t48.5 28q63 29 132 17q90 -16 167.5 -53t140.5 -105q20 -22 39 -44t39 -44q8 -9 18.5 -16.5t21.5 -17.5q13 30 8.5 56t-10.5 51q-4 17 -7 34.5t-4 34.5q-1 18 4.5 35t28.5 24q21 7 42.5 1.5t36.5 -22.5q21 -22 24 -46.5 t-8 -50.5t-15.5 -53t-6.5 -54t-2 -54t-1 -54q-1 -10 -0.5 -20t-0.5 -19t-5.5 -17t-15.5 -14q-24 -14 -48.5 -15t-50.5 13q-35 18 -70 34.5t-72 30.5q-57 20 -113.5 38.5t-113.5 35.5q-35 11 -72 18t-72 18q-30 9 -59 20.5t-58 25.5q-8 3 -14 11.5t-10 16.5q-16 33 -6.5 67z M-668 1269q57 -27 116.5 -46.5t120 -36.5t121.5 -34.5t122 -40.5q-3 10 -4 15.5t-4 8.5q-43 44 -84.5 90t-93.5 81q-74 49 -158 53q-99 5 -136 -90z" />
<glyph unicode="&#xe36;" d="M-616 1225q-1 10 2.5 20.5t9.5 17.5q17 20 37.5 34.5t48.5 13.5q52 -2 103.5 -7t100.5 -25q21 -8 39.5 -23.5t36.5 -30.5q17 -15 32.5 -31.5t31.5 -32.5q3 -2 7 -3.5t9 -3.5v24q-1 20 7.5 33.5t24.5 23.5q43 25 81 28t69.5 -10.5t56 -42t40.5 -66.5q24 -57 -8 -113 q-8 -14 -14.5 -28.5t-14.5 -28.5q-17 -33 -42.5 -45t-64.5 -2q-20 4 -39 12.5t-39 14.5q-34 11 -68 21t-69 18q-43 10 -86 16t-85 19q-38 11 -74 27.5t-69 38.5t-47 57t-17 74zM-509 1204q-2 -19 9 -30t25 -20q59 -41 125 -58t141 -28q-14 15 -24.5 27t-18.5 24 q-37 50 -86.5 74.5t-110.5 29.5q-21 2 -40 -3.5t-20 -15.5zM-39.5 1132.5q-0.5 -9.5 1.5 -15.5q8 -21 24 -29.5t36 -13.5q4 20 -3 43t-22 29q-7 3 -16.5 1.5t-17.5 -4.5q-2 -1 -2.5 -10.5z" />
<glyph unicode="&#xe37;" d="M-501.5 1088q8.5 22 25.5 42q11 13 22 25t22 26q14 19 33 22.5t39 -1.5q23 -5 45 -3.5t45 3.5q32 2 63 3t62 -6q13 -3 26 -6.5t29 -7.5q-1 16 -1 31.5t-2 29.5q-1 9 -3 18t-3 18q-1 14 5 24.5t17 13.5q13 4 27 -0.5t21 -14.5q4 -5 6.5 -11t4.5 -12q6 5 11 8.5t10 7.5 q21 16 45 3q12 -7 19 -17t5 -24q0 -9 -2 -19t-7 -18q-14 -30 -11 -66q2 -26 5 -51.5t5 -51.5q2 -6 2 -11q-3 -18 -5 -36.5t-6 -36.5q-5 -17 -13.5 -22.5t-28.5 -5.5q-39 1 -77.5 2t-76.5 0q-29 0 -56.5 -2.5t-56.5 -3.5q-41 -1 -81 3.5t-79 17.5q-32 10 -52.5 31t-31.5 50 q-10 26 -1.5 48zM-421 1061q-3 -11 5.5 -17.5t17.5 -10.5q33 -12 66.5 -23.5t70.5 -10.5q48 0 96 1.5t97 3.5q4 1 8.5 2t11.5 3q-3 18 -5.5 35.5t-5.5 35.5q-2 4 -5 7q-10 8 -19 16.5t-20 14.5q-42 20 -86 24.5t-89 -3.5q-11 -2 -22.5 -8.5t-17.5 -15.5q-14 -19 -31.5 -27 t-38.5 -10q-10 -1 -20 -3.5t-13 -13.5z" />
<glyph unicode="&#xe38;" d="M-309 -199.5q6 15.5 21 28.5q23 20 46.5 37t57.5 16q7 0 14 2t15 3q8 2 17 3t17 1q34 -2 47.5 -18.5t10.5 -50.5q-4 -37 -6.5 -73.5t-3.5 -73.5q0 -22 4.5 -44t5.5 -45q1 -49 -50 -55q-30 -3 -43 23q-10 20 -9.5 40t5.5 40q8 32 7.5 54t-8.5 50q-26 -2 -49.5 -4t-46.5 -1 q-17 0 -30.5 6.5t-19.5 25.5q-8 20 -2 35.5z" />
<glyph unicode="&#xe39;" d="M-336.5 -228q0.5 10 6.5 20q22 34 49.5 63t64.5 47q20 11 43 11t45 -6q22 -5 27 -24t-11 -36q-8 -11 -11.5 -21t-4.5 -23q-2 -36 3.5 -71.5t10.5 -70.5q1 -6 3.5 -12.5t6.5 -16.5q11 20 12 36.5t-2 33.5q-3 11 -6.5 21.5t-5.5 21.5q-4 21 6 36t29 17q22 2 38.5 -12 t15.5 -35q0 -6 -1 -12t-3 -11q-5 -27 -10.5 -54t-11.5 -54q-2 -8 -2 -16t-2 -16q-7 -40 -44 -46q-17 -2 -32.5 6t-23.5 25q-17 47 -26 92q-5 23 -7.5 45.5t-5.5 45.5q-1 5 -2.5 9t-3.5 9q-20 -8 -38 -16t-37 -15q-8 -3 -15.5 -5t-15.5 -2q-12 0 -21 4.5t-13.5 13t-4 18.5z " />
<glyph unicode="&#xe3a;" d="M-180 -156q0 23 16 39.5t39 16.5q20 0 37.5 -16.5t17.5 -39.5t-17.5 -39t-37.5 -16q-23 0 -39 16t-16 39z" />
<glyph unicode="&#xe3b;" />
<glyph unicode="&#xe3c;" />
<glyph unicode="&#xe3d;" />
<glyph unicode="&#xe3e;" />
<glyph unicode="&#xe3f;" horiz-adv-x="1251" d="M94 0v1161h438v131h62v-131h201q54 0 101.5 -18.5t83.5 -49.5t56.5 -73t20.5 -88q0 -115 -103 -182q203 -41 203 -220v-299q0 -48 -21.5 -90t-57.5 -73.5t-83.5 -49.5t-99.5 -18h-301v-139h-62v139h-438zM158 61h374v639h-374v-639zM158 762h374v338h-374v-338zM594 61 h301q40 0 76 13t64 36t44.5 54t16.5 67v299q0 170 -277 170h-24h-201v-639zM594 762h203q40 1 76 15t63 36.5t43 53t16 65.5q0 34 -16.5 65t-44 53.5t-63.5 36t-76 13.5h-201v-338z" />
<glyph unicode="&#xe40;" horiz-adv-x="357" d="M23 573.5q-2 54.5 0 110.5q2 32 8 63.5t15 62.5q4 16 14 27.5t22.5 18t27.5 8t29 -2.5q29 -9 40.5 -33t1.5 -58q-8 -25 -17.5 -49t-19.5 -47q-11 -27 -16.5 -54t-3.5 -56q4 -48 6.5 -95.5t5.5 -100.5q24 -2 43 -3t36 -1q38 0 68 -15t56 -39q39 -36 26 -79 q-12 -38 -28 -74.5t-33 -71.5q-6 -12 -17.5 -21.5t-22.5 -17.5q-24 -15 -47.5 -18.5t-44.5 3.5t-38 24.5t-26 44.5q-8 20 -15 40.5t-16 40.5q-29 69 -38 139.5t-12 142.5q-2 56 -4 110.5zM179 207q0 -7 3 -15.5t7.5 -15.5t9.5 -12t10 -6q11 -1 22 13t10 36q-6 5 -14.5 15 t-19.5 13q-12 3 -20 -5.5t-8 -22.5z" />
<glyph unicode="&#xe41;" horiz-adv-x="904" d="M40 165q0 38 2 76.5t19 75.5q5 11 6 24t0 26l-15 360q0 5 -0.5 10.5t-0.5 10.5q-3 32 7 51t27.5 27.5t39 7.5t41.5 -10q23 -10 33 -25t6 -40q-4 -23 -6 -46.5t-5.5 -47t-9.5 -46.5t-17 -45q-5 -9 -6 -19.5t-1 -20.5q-1 -39 -1 -78v-81q51 -4 91.5 -15.5t73.5 -42.5 q58 -56 63 -105t-35 -103q-14 -20 -31 -37.5t-34 -34.5q-9 -8 -21.5 -13t-24.5 -9q-36 -10 -71.5 -1.5t-64 30t-47 53t-18.5 68.5zM230 162h6.5t6.5 1q5 9 4.5 19t-17.5 21v-41zM514.5 376q2.5 26 20.5 48q18 21 23.5 44.5t3.5 50.5q-3 23 -2 46.5t3 46.5q1 26 3 51t4 51 q3 49 40 80q21 17 41.5 18t43.5 -11q45 -23 40 -77q-1 -5 -1.5 -10t-2.5 -10q-23 -53 -30 -109t-13 -115q8 -5 16.5 -9.5t17.5 -8.5q76 -28 106 -105q14 -35 18.5 -71.5t2.5 -74.5q-5 -60 -44.5 -93.5t-98.5 -27.5q-24 3 -48 8.5t-47 14.5q-45 18 -65.5 54t-14.5 85 q2 20 2 37.5t-9 37.5q-12 23 -9.5 49zM664 282q4 -2 6 -4q2 -10 2 -20t3 -20q3 -7 10 -15t12 -8q8 1 18.5 6.5t12.5 12.5q4 13 4 27t-2 27q-3 16 -13.5 28.5t-27.5 8.5q-8 -2 -13 -17t-12 -26z" />
<glyph unicode="&#xe42;" horiz-adv-x="455" d="M-454 1448q-16 45 2.5 80t64.5 51q62 21 124.5 22.5t125.5 -11.5q120 -25 245 -45q18 -3 37 -0.5t39 3.5q16 0 32 0.5t31 -2.5q37 -9 51 -31.5t10 -64.5q-3 -30 -21 -46t-54 -16q-29 0 -57 4.5t-56 11.5q-38 10 -76 24t-77 20q-51 8 -101 11t-101 4q-35 0 -45.5 -18.5 t3.5 -50.5q10 -23 25.5 -38.5t44.5 -18.5q54 -6 106.5 -14.5t107.5 0.5q51 8 90.5 -13.5t71.5 -59.5q69 -80 91 -173t15 -196q-1 -13 -3 -25.5t-4 -24.5q-11 -48 1 -88.5t41 -82.5q23 -32 33 -73.5t15 -82.5q11 -101 -1.5 -200.5t-28.5 -199.5q-7 -44 -36 -68t-69 -26 t-71.5 22.5t-40.5 70.5q-11 55 -16.5 110.5t-13.5 111.5q-1 10 -1.5 19.5t-1.5 20.5q-29 12 -45 21t-21.5 21t-2 29.5t14.5 45.5t19 57t18 58q9 26 18.5 51t21.5 49q38 80 47.5 161t-20.5 166q-11 29 -22.5 56.5t-28.5 51.5q-20 28 -51.5 40t-66.5 12t-70 -1t-70 2 q-28 2 -56 8.5t-56 12.5q-33 7 -52 31t-34 49q-23 38 -41.5 79t-33.5 83zM197.5 409q0.5 -39 6.5 -78.5t19 -81.5q25 96 22 181.5t-33 139.5q-7 -42 -11 -82t-3.5 -79z" />
<glyph unicode="&#xe43;" horiz-adv-x="524" d="M-286 1210.5q-7 44.5 2 87t33.5 81.5t64.5 68q50 35 102.5 51.5t112.5 18.5q51 2 100 7t99 3q54 -1 100.5 -21.5t88.5 -55.5q45 -38 81 -82t64 -95q17 -32 27.5 -65.5t15.5 -68.5q10 -63 -43 -107q-42 -33 -82 -67t-75 -76q-40 -46 -62.5 -97t-32.5 -110q-2 -11 -2.5 -34 t-0.5 -52.5t1 -62.5t2.5 -63.5t3.5 -55.5t4 -38q16 1 29.5 1.5t27.5 1.5q49 4 75 -40q26 -45 44.5 -93.5t24.5 -101.5q3 -24 -3 -46.5t-19.5 -39.5t-33.5 -28.5t-44 -13.5q-34 -3 -68 -3t-68 2q-26 1 -45 13.5t-29.5 30.5t-11.5 40t9 43q8 16 12.5 34t5.5 36q1 35 4.5 70 t6.5 70t3 70t-5 70q-6 45 -7.5 90.5t-1.5 90.5q0 160 112 273q35 35 70 68t70 67q29 27 34.5 58t-10.5 66q-20 45 -43.5 87t-61.5 74q-46 40 -97.5 65t-115.5 21q-50 -3 -99 -6t-100 -6q-1 -1 -4 -1q-26 -3 -53 -20t-50.5 -41t-40 -53t-20.5 -56q17 7 32 13t30 11 q27 10 61.5 9.5t68.5 -12.5t63 -37t45 -65q8 -19 14.5 -38t9.5 -39q5 -35 -2 -63t-25 -48t-45.5 -30.5t-61.5 -8.5q-41 3 -79 13t-73 39q-31 26 -60 52t-49 61q-23 40 -30 84.5zM-171 1151q12 -26 27.5 -42.5t33.5 -27.5t37.5 -18t38.5 -14q28 -11 47 -1.5t30 34.5 q10 21 1 44t-29 38q-42 31 -88 8q-11 -5 -21 -11t-22 -10t-25.5 -5t-29.5 5zM325 114q40 -30 80 -3q14 9 19.5 20.5t-2.5 25.5q-27 -12 -51 -22.5t-46 -20.5z" />
<glyph unicode="&#xe44;" horiz-adv-x="539" d="M-521 1482q0 7 1 9q21 43 45.5 83t68.5 65q19 10 37 11.5t34.5 -3.5t31.5 -14.5t29 -21.5q26 -23 48.5 -48t38.5 -58q20 -41 47.5 -77t53.5 -73q2 -3 5.5 -4t7.5 -3q8 23 16.5 44t16.5 42q14 41 39.5 72t54.5 60q14 14 34 22t40 13q45 11 90 8t88 -20q19 -8 36 -21 t32 -27t15.5 -33t-10.5 -36q-19 -32 -31 -65t-20.5 -67t-14.5 -69l-12 -70q-2 -12 -6 -37.5t-9 -58.5t-10.5 -70.5t-10.5 -73.5t-10 -68.5t-8 -55.5h3l-18 -135q-6 -51 -8 -101.5t1 -104.5q4 4 8.5 7t8.5 8q22 30 43.5 60.5t43.5 60.5q16 22 38.5 34t47.5 18q32 9 55 -7.5 t28 -50.5q3 -22 -1 -41q-17 -100 -33 -198t-36 -196q-8 -35 -26 -68.5t-35 -66.5q-14 -29 -40.5 -40.5t-56.5 -12.5q-14 0 -28 7.5t-24 17.5q-41 39 -45 94q-2 23 -5.5 46.5t-6.5 46.5q-2 14 -5.5 28t-17.5 25t-17 27.5t6 32.5q18 34 19 70t-1 71q-4 63 5 123.5t16 121.5 q2 23 5 46.5t5 46.5h-4q1 11 5 38t8.5 62.5t10 75.5t10 75.5t8 62.5t5.5 38q7 51 17 100.5t21 99.5q8 30 13 59t-3 60q-6 31 -35 38q-50 14 -94.5 -2t-71.5 -60q-18 -30 -32.5 -62t-25.5 -64q-10 -27 -7 -54.5t11 -55.5q9 -36 -0.5 -54t-38.5 -27q-26 -8 -49.5 6t-27.5 41 q-9 63 -37.5 116t-63.5 106q-23 36 -50.5 68t-65.5 55q-29 17 -48.5 15.5t-44.5 -25.5q-9 -9 -16.5 -19t-16.5 -19q-8 -8 -16 -14.5t-17 -11.5q-16 -8 -28.5 1t-12.5 26zM230 230q5 -46 25 -88q11 -26 28.5 -28t36.5 19q11 13 20 28t16 31q30 73 43.5 149.5t22.5 154.5 q2 20 4 41t-10 41q-23 3 -39 -7t-28 -27q-20 -29 -38 -58.5t-36 -59.5q-27 -45 -38 -94t-7 -102z" />
<glyph unicode="&#xe45;" horiz-adv-x="518" d="M35 877q20 84 62.5 155.5t94.5 138.5q25 32 58 45.5t66.5 10t63.5 -23.5t50 -55q29 -50 38.5 -103t12.5 -109q5 -91 0.5 -181t-17 -178.5t-31.5 -176.5t-41 -175q-31 -122 -42 -245.5t2 -249.5q3 -27 -2 -51t-24 -45q-23 -25 -50.5 -36t-61.5 -3q-23 5 -40.5 18 t-26.5 29.5t-8.5 36t14.5 37.5q21 29 32.5 60t18.5 62.5t11.5 64t12.5 64.5q24 102 42.5 204.5t35.5 205.5q8 49 10.5 98.5t6.5 99.5q6 68 13 135t10 135q2 40 0 80t-6 80q-2 14 -11 28.5t-19 33.5q-51 -36 -75.5 -77.5t-30.5 -95.5q12 -7 24.5 -13.5t24.5 -14.5 q28 -18 33 -38t-12 -49q-11 -20 -31 -35t-44 -22.5t-50 -7t-49 9.5q-45 20 -61.5 61t-3.5 92z" />
<glyph unicode="&#xe46;" horiz-adv-x="565" d="M0 599q4 47 24 92q19 44 64 50q19 3 37.5 6t37.5 4q17 0 33 -4.5t31 -16.5q16 -14 23 -13t22 18q23 26 51.5 43.5t63.5 23.5q6 1 22.5 -6t34.5 -18.5t34.5 -25t22.5 -25.5q22 -26 26 -65q22 -168 15 -336q-2 -36 -5.5 -87t-8.5 -111q-1 -19 -1.5 -36t-1.5 -31 q0 -25 -0.5 -49t0.5 -48q0 -16 0.5 -31.5t0.5 -30.5q0 -5 0.5 -10t-0.5 -10q-2 -13 -6 -23.5t-18 -15.5q-15 -4 -32.5 2.5t-23.5 20.5q-2 5 -3 8.5t-3 7.5q1 15 2.5 34.5t3 37.5t2 33t-0.5 22q0 1 0.5 9.5t1.5 20t2 24.5t2 22q2 60 4 111t4 85q3 67 -1.5 134.5t-6.5 135.5 q-1 11 -3.5 22.5t-4.5 22.5q-5 22 -12.5 42.5t-19.5 34.5q-11 26 -31 32t-37 -16q-9 -11 -16 -25t-10 -28q-6 -23 -8 -46t-6 -46q-2 -11 -4.5 -21.5t-7.5 -18.5q-6 -11 -16.5 -16.5t-22 -6t-22.5 4.5t-18 16q-5 7 -9 16.5t-9 20.5q-11 -26 -20.5 -50t-18.5 -47 q-5 -14 -13.5 -21.5t-19 -11.5t-22 -6t-23.5 -3q-21 -3 -33.5 10t-20.5 30q-8 15 -13.5 31t-7.5 33q-8 48 -4 95zM73.5 582.5q-3.5 -30.5 13.5 -82.5q23 32 26.5 68t-13.5 60q-23 -15 -26.5 -45.5z" />
<glyph unicode="&#xe47;" d="M-260 1187q-9 23 7 36q19 16 39 1q7 -5 12.5 -11.5t11.5 -12.5q14 -14 25.5 -13t21.5 19q8 15 12.5 31t-3.5 34q-8 21 3 41q16 30 43 21q34 -10 30 -43q-1 -8 -3.5 -16.5t-5.5 -16.5q-9 -23 -18 -44.5t-18 -43.5q-1 -3 -1 -5.5t-1 -4.5q17 -8 27 -14.5t15.5 -15.5t7 -21 t1.5 -31q-1 -15 -0.5 -30.5t0.5 -30.5v-17t-2 -17q-5 -30 -37 -33q-23 -3 -37 23q-2 4 -4.5 8t-5.5 8q-1 2 -9 6q-1 -10 -1.5 -18.5t-2.5 -16.5q-2 -18 -12.5 -28.5t-25.5 -12.5q-15 -1 -25 7t-12 23q-2 14 -1 29t0 29q0 47 -6 92t-25 89zM-185 1121l5.5 -22t4.5 -21 q13 4 27 7q0 12 -0.5 21.5t-0.5 18.5q-9 -1 -17.5 -2t-18.5 -2z" />
<glyph unicode="&#xe48;" d="M-65 1515q0 4 0.5 7.5t0.5 7.5v9t1 8v-1q2 11 1.5 21t-1.5 21q-1 8 -1 16v16q2 23 2.5 44.5t0.5 43.5q0 14 -0.5 28t-1.5 28q0 7 -0.5 14t-0.5 15q-1 18 10 29.5t28 9.5q15 -2 23.5 -12.5t3.5 -24.5h1q-3 -18 -3 -30q0 -8 0.5 -15t0.5 -15v-19v-29t1 -28l9 -98v-2 q2 -14 1.5 -29t-6.5 -29v1l-1 -2v-1l-2 -9q-5 -17 -14.5 -23t-23.5 -4q-22 3 -27 28q-1 6 -1.5 12t-0.5 12z" />
<glyph unicode="&#xe49;" d="M-187.5 1561.5q-0.5 17.5 14.5 31.5h-1q2 2 8 6t13 9q27 15 57 9l17 -6q11 -5 19 -17q7 -10 13 -20t9 -22l-1 1l1 -5q5 8 10 17.5t11 18.5l7 11q4 6 7 12.5t5 8.5v-2l27 37l19 27l-1 -1l3 4.5t2 3.5l6 8q4 5 9 11.5t9 10.5l2 5v-1q3 12 14 19t24 3q11 -4 18.5 -12 t4.5 -19q-5 -13 -10 -18q-6 -3 -10.5 -8.5t-8.5 -10.5l-5 -6v1q-12 -13 -22.5 -28t-21.5 -31q-11 -15 -21 -29.5t-20 -30.5q-6 -10 -11 -20t-8 -22q-6 -17 -9 -39q-1 -3 -0.5 -4t0 -3.5t-1.5 -8t-5 -18.5l-3 -17q-5 -19 -19 -27.5t-30 0.5l1 -1q-10 5 -13.5 13t-3.5 17 q0 5 0.5 10t1.5 10q2 8 3 18.5t1 17.5q0 18 -4 34q-14 -10 -32.5 -11.5t-33.5 6.5q-5 2 -9 7.5t-9 10.5l-9 8h1q-14 14 -14.5 31.5zM-118 1549h2v-1q-1 1 -2 1zM-116 1549l3 1l7 2l-6 -1v3q0 5 1 8h-1v2v3q0 -2 -0.5 -2.5t-0.5 -1.5v-1h-2h2q0 -7 -3 -13zM-111 1562q2 2 2 4 q1 2 1 4l6 -12q-2 2 -4.5 2.5t-4.5 1.5z" />
<glyph unicode="&#xe4a;" d="M-205 1651q0 10 1 21t5 24h-1q8 31 34 42q11 5 23 7.5t26 -2.5q9 -4 14.5 -9.5t9.5 -12.5v1q7 -13 15 -35l3 10l-1 -1l4 13l4 10v1q32 37 63 10q6 -5 10.5 -12t6.5 -14q13 -33 16 -73q3 -38 17 -73l8 -16t9 -13q0 -2 -1 -2q4 2 6.5 5.5t6.5 8.5l6 8q8 11 16 25t15 26 l8 13q14 20 30 41.5t27 41.5q5 10 14 23.5l17 25.5l12 18l-1 -1l10 19l2 3q2 5 3.5 7.5t3.5 4.5v-1q19 22 45 5h-1q8 -6 11.5 -15.5t-2.5 -20.5q-4 -5 -7.5 -9.5t-9.5 -9.5q-13 -9 -23.5 -23t-19.5 -28l-21 -33l-20 -31v1l-9 -14v1q-5 -8 -9 -14.5t-8 -11.5q-8 -10 -15 -21 t-11 -22q-6 -11 -12.5 -22.5t-13.5 -22.5l-5 -6l-7 -6q-9 -6 -11 -10q-12 -14 -30 -15t-31 12q-11 11 -17 23q-7 17 -13 35t-11 37q-2 11 -3 22.5t-3 23.5q-1 9 -2 18.5t-3 17.5q0 6 -4 14q-11 -29 -5 -67v1q2 -11 3.5 -23t3.5 -24l4 -21q1 -13 5 -27q3 -19 -12.5 -26.5 t-31.5 -2.5q-12 5 -15 12t-4 14q-1 14 -2.5 27t-4.5 24q-3 10 -6 21t-5 21q-5 19 -10 35.5t-10 30.5q-2 6 -6 13t-9 15q-5 2 -6 1q-5 -3 -8 -6.5t-5 -10.5q-3 -17 -3 -33q0 -11 1 -23.5t3 -23.5l3 -19q8 10 26 10q10 0 20 -8.5t10 -22.5q1 -11 1.5 -24t0.5 -23 q0 -11 -0.5 -21.5t-1.5 -19.5q-3 -24 -25 -39q-18 -10 -34.5 -5t-24.5 24l1 -1q-4 8 -5 13.5t-2 10.5q-5 31 -9.5 63.5t-8.5 64.5q-2 11 -3 24t-1 27zM-150 1472l6 5v-1q0 -4 3 -6l11 -4q-2 0 -5 1t-5 1q-3 1 -4.5 2t-5.5 2zM-144 1477l3 2h-2q-1 0 -1 1v-3zM-141 1479l8 7 q0 -4 1 -9l-4 1q-4 0 -5 1z" />
<glyph unicode="&#xe4b;" d="M-188 1597h1q-4 14 3 25.5t21 14.5q8 2 16.5 2h17.5l37 -2q9 -1 17 -2t17 -1l-1 1q1 6 1 12.5v12.5q1 8 1 15.5v17.5t-2 12v-1q-8 8 -6.5 19.5t9.5 21.5h-1q15 17 36 9h-1q8 -3 14 -10t6 -18q0 -3 -0.5 -5.5t-2.5 -7.5q-2 -8 -2.5 -15.5t-1.5 -15.5v-9t-1 -9v1l-2 -35 q2 0 3.5 -0.5t2.5 -0.5h9t9 -1q10 -1 18 -1t15 2t12 1q14 -2 23 -10.5t7 -19.5t-15 -19.5t-26 -6.5q-8 0 -17 0.5t-17 2.5q-15 0 -27 3q-3 -20 -3 -38q-1 -8 -1 -15v-15v-15.5t1 -15.5q0 -17 3 -35t-14 -28h1q-8 -7 -16 -6.5t-15 5.5h1q-8 5 -13 11.5t-3 14.5q7 19 8 33 t1 28v26q1 14 2 28.5t2 28.5q-15 2 -29.5 2t-28.5 -1h-1l-6 -3l-10 -4l-11 -4q-14 -3 -26 3t-15 17zM-29 1582l1 1h-1q1 -1 0 -1zM-5 1713l1 3q0 -1 -0.5 -1.5t-0.5 -1.5z" />
<glyph unicode="&#xe4c;" d="M-126 1586q-1 20 8 37.5t23 31.5l3 4l44 45q0 -8 -1 -18.5t-3 -18.5q8 -1 13 -3t10 -5q5 11 11 20.5t13 20.5l-1 -1l4 8l15 22q8 11 13.5 18.5t10.5 12.5q9 11 21.5 23.5t26.5 25.5q5 5 12.5 10.5t15.5 8.5l-1 -1l17 14q8 7 17.5 10.5t20.5 1.5q10 -2 18 -12t10 -20 q2 -12 -6.5 -25.5t-23.5 -17.5q-1 0 -4 -0.5t-5 -0.5q-5 0 -11 -3.5t-11 -8.5q-22 -16 -40 -37.5t-35 -43.5q-12 -14 -19.5 -29.5t-12.5 -29.5q-3 -8 -3.5 -14.5t3.5 -11.5q13 -22 16 -45q1 -3 1 -7.5v-7.5q-2 -17 -10 -23t-19 -8q-16 -3 -30 6l4 -16q1 -8 1 -17.5v-17.5 v-16q0 -4 0.5 -7.5t0.5 -7.5q0 -5 -1 -10.5t-2 -8.5l1 1q-3 -13 -10.5 -21.5t-17 -12.5t-21 -2t-21.5 10t-15.5 18.5t-7.5 19.5l-4 20q-4 14 -6.5 31.5t-4.5 34.5q-2 11 -3.5 26.5t-2.5 30.5v8t-1 9zM-77 1475v14h48q0 -1 -0.5 -8.5t-0.5 -10.5q-1 -3 0.5 -8.5t8.5 -13.5 l-54 -14q0 16 -0.5 24.5t-1.5 16.5zM-58 1578q2 -8 2.5 -16t1.5 -16q13 -1 24 -11q0 1 -0.5 1.5t-0.5 1.5q-1 11 -5 20t-9 17q-4 10 -10 15q-3 -6 -3 -12zM-54 1592q6 0 6 4q0 2 -1 5q-4 -6 -5 -9z" />
<glyph unicode="&#xe4d;" d="M-249.5 1057q-3.5 15 0.5 30.5t16 30.5q28 32 63 44.5t76 13.5q17 4 32.5 -1.5t26 -17.5t13.5 -28.5t-5 -32.5q-6 -13 -16 -24.5t-19 -23.5q-15 -19 -36.5 -25.5t-43.5 -14.5q-17 -7 -32 -5.5t-31 7.5q-18 7 -29.5 19.5t-15 27.5z" />
<glyph unicode="&#xe4e;" d="M-432 1120q0 81 106 133q-30 24 -30 59q0 33 21.5 62t56.5 51t78.5 34.5t88.5 12.5q32 -1 64 -4.5t63 -15.5l23 -9v-65q-27 9 -46 15.5t-35.5 10t-32.5 5.5t-36 2q-28 0 -60 -8.5t-59.5 -22.5t-46 -31.5t-18.5 -36.5q0 -24 78 -43l22 -8v-51h-30q-5 0 -11.5 1t-11.5 1 q-19 0 -40.5 -10t-40 -24t-30.5 -30t-12 -28q0 -32 28 -53t73 -21q82 0 116 61l11 17h63l-18 -45q-51 -94 -172 -94q-36 0 -65.5 10.5t-51 28.5t-33.5 42.5t-12 53.5z" />
<glyph unicode="&#xe4f;" horiz-adv-x="862" d="M94 428q0 70 27 131.5t72.5 107t106.5 71.5t130 26q68 0 129 -25.5t107.5 -70.5t74 -106.5t27.5 -133.5q0 -70 -26.5 -131.5t-72 -107t-107.5 -71.5t-132 -26t-131 26.5t-106.5 72t-72 106.5t-26.5 131zM143 428q0 -58 22 -110t60 -91.5t90.5 -62.5t114.5 -23 q61 0 114 23t91 62.5t60 91.5t22 110q0 59 -23 111.5t-62 91.5t-91 61.5t-111 22.5t-111.5 -22.5t-91.5 -61.5t-61.5 -91.5t-22.5 -111.5zM225 428q0 43 16 80.5t43.5 65t65 43.5t80.5 16t81 -16t66 -43.5t44 -65t16 -80.5t-16 -80.5t-44 -65t-66 -43.5t-81 -16t-80.5 16 t-65 43.5t-43.5 65t-16 80.5z" />
<glyph unicode="&#xe50;" horiz-adv-x="606" d="M20 269q-10 55 7 112.5t50 110.5q28 46 68.5 81t100.5 39q54 4 100 -15.5t84 -57.5q36 -35 60.5 -74t41 -82t25.5 -89t13 -94q2 -24 -6 -48.5t-23 -45t-34.5 -36t-40.5 -22.5q-32 -11 -65.5 -17.5t-66.5 -13.5q-65 -15 -124.5 2t-117.5 45q-54 26 -61 84q-4 26 -6 54.5 t-5 66.5zM103 280q-6 -36 1 -74q9 -46 46 -71q65 -44 132 -46t136 24q37 14 55 47t14 73q-2 13 -3.5 25.5t-3.5 25.5q-8 42 -21.5 80t-35 69.5t-53 56.5t-74.5 41q-30 11 -55 7t-48 -28q1 -5 1.5 -9t1.5 -8q4 -18 4.5 -31.5t-3.5 -24t-13 -20t-23 -20.5q-11 -9 -21 -21 t-16 -25q-15 -35 -21 -71z" />
<glyph unicode="&#xe51;" horiz-adv-x="493" d="M15 384q2 32 7.5 63.5t19.5 61.5q17 37 45.5 57.5t66.5 29.5q5 2 9.5 2.5t8.5 2.5q22 12 44.5 12.5t44.5 -4.5q26 -5 50 -14t49 -18q48 -16 85 -56q12 -13 17.5 -28.5t9.5 -31.5q2 -11 2.5 -23t-0.5 -23q-2 -27 -5 -54.5t-5 -54.5q-2 -25 -11.5 -47t-20.5 -43 q-21 -40 -52.5 -71.5t-63.5 -62.5q-10 -9 -22 -15.5t-24 -12.5q-17 -9 -33.5 -16.5t-33.5 -16.5q-23 -13 -46 -6t-32 30q-4 10 -2 21.5t7.5 20t14 13.5t19.5 3q42 -8 73 7.5t57 41.5q26 25 49.5 51t40.5 59q45 86 22 181q-3 13 -10 25.5t-16 21.5q-29 26 -62 41t-74 12 q-21 -2 -41 -4.5t-40 -9.5q-26 -8 -44 -26t-24 -44q-5 -21 -5.5 -43t-0.5 -44q0 -40 39 -58q14 5 22.5 15.5t8.5 27.5q-3 0 -5 0.5t-4 0.5q-10 -2 -19.5 -0.5t-14.5 11.5q-9 20 5 42q10 14 30.5 22t34.5 4q18 -6 33 -26t14 -40q-4 -32 -15 -59.5t-38 -50.5 q-18 -14 -39.5 -16.5t-41.5 3t-36.5 18t-24.5 28.5q-11 21 -17.5 43.5t-5.5 46.5z" />
<glyph unicode="&#xe52;" horiz-adv-x="688" d="M-1 563q2 10 5.5 19.5t8.5 17.5q5 10 14.5 14.5t20.5 -0.5q12 -5 23 -3t22 7q39 16 72.5 7.5t63.5 -35.5q37 -33 40 -87q2 -34 5 -66.5t5 -63.5q2 5 5 10.5t5 13.5q9 42 37.5 63.5t64.5 35.5q4 2 8 2t9 2q29 11 53.5 5.5t45.5 -30.5q12 -14 19.5 -12t18.5 17q9 12 19 22 q22 23 46.5 18t34.5 -35q5 -12 5.5 -26t-1.5 -28q-5 -55 -11 -109.5t-11 -110.5q-2 -29 -1 -59t1 -60v-16t-1 -16q-3 -29 -22.5 -40.5t-46.5 0.5q-26 12 -51.5 23.5t-51.5 23.5q-48 20 -95.5 19t-96.5 -9q-5 -1 -9.5 -2t-9.5 -2q-14 -2 -27 0.5t-22 16.5t-12.5 28t7.5 28 q22 31 23 64.5t2 67.5q1 49 0 97.5t-2 97.5q0 34 -21.5 57.5t-51.5 25.5q-23 0 -43 -14q-8 -6 -16.5 -12t-16.5 -11q-12 -8 -24 -6t-23 10q-23 16 -17 40zM271 195q0 -21 4 -25.5t28 -5.5q19 -2 37.5 -3t36.5 -4q38 -6 73.5 -17.5t70.5 -27.5q17 -7 24 -3t12 21q4 17 6 34 t4 35q2 43 3 85t2 85q0 2 -1.5 4t-3.5 7q-6 -7 -11.5 -12.5t-10.5 -11.5q-8 -9 -17.5 -12.5t-20.5 1.5q-18 10 -29 22q-7 7 -11.5 15.5t-9.5 16.5q-16 24 -30 25t-36 -20q-10 -2 -12 -4t-5 -12q5 5 8.5 9t8.5 8h11q32 2 45.5 -11t11.5 -45q-1 -32 -14 -65q-3 -9 -12.5 -18.5 t-22 -16.5t-25.5 -11t-22 -3q-48 6 -76 44q-2 3 -5 5.5t-5 4.5q-2 0 -6 -2q0 -23 0.5 -46t-0.5 -46z" />
<glyph unicode="&#xe53;" horiz-adv-x="452" d="M14 105q-2 76 9.5 149t43.5 142q13 28 27.5 55t30.5 54q10 17 25 27t37 8q13 -1 27 -10q20 -11 33.5 -28t22.5 -38l4 -8l6 -12q10 8 18 14l16 12q5 5 10.5 10t11.5 9q23 17 45 11.5t37 -30.5q10 -15 13.5 -32t1.5 -35l-6 -56t-8 -56q-7 -48 -14.5 -94t-14.5 -94 q-2 -12 -1.5 -24t-0.5 -24q-1 -14 -8.5 -24t-18.5 -13t-23.5 2t-17.5 17q-6 17 -3 36q8 45 17 88.5t20 87.5q7 28 12 56.5t7 57.5q1 13 0 26t-9 26q-14 0 -22.5 -7.5t-13.5 -19.5q-7 -17 -13 -33.5t-13 -33.5q-3 -9 -8 -20q-7 -17 -19 -25t-26 -5q-15 3 -24.5 17.5 t-7.5 31.5q4 23 3.5 45.5t-3.5 45.5q-2 9 -4.5 18t-7.5 17q-11 17 -23.5 17.5t-23.5 -14.5q-15 -20 -27.5 -41.5t-19.5 -45.5q-5 -14 -9.5 -28.5t-9.5 -31.5q6 2 9 2.5t5 2.5q32 14 48 3t26 -34q4 -12 6 -26q3 -45 -4.5 -87.5t-22.5 -84.5q-5 -15 -18.5 -25t-30 -14.5 t-33.5 -3t-30 11.5q-14 11 -23 24.5t-10 33.5z" />
<glyph unicode="&#xe54;" horiz-adv-x="478" d="M26 116q3 40 5 80t12 79q5 22 7 47q2 23 10.5 45t19.5 43q5 8 12 15t15 12q19 13 40 20t45 5q29 -2 57.5 -0.5t56.5 4.5q15 2 29.5 6.5t28.5 9.5q11 5 18 13.5t6 20.5q0 30 -10.5 56t-35.5 46q-17 13 -34 12.5t-34 -9.5q-19 -10 -34 -23q-10 -9 -20.5 -10t-21.5 1 q-19 4 -24 20t7 31q9 11 20 16.5t24 9.5l16 4t16 6q20 9 43.5 9t46.5 -8.5t42 -24.5t30 -40q28 -59 22 -123q-1 -14 -4.5 -27.5t-15.5 -21.5q-10 -6 -21 -11t-22 -7q-43 -8 -85.5 -16t-86.5 -10q-5 -1 -11 -1t-12 -1q-26 -4 -43 -18t-22 -43q-2 -11 -5 -22.5t-8 -22.5 q-12 -32 -14 -64.5t0 -65.5q0 -21 19 -19q33 3 69 6q-6 17 -11 29.5t-11 24.5q-17 39 -8 79q6 31 22.5 55.5t45.5 40.5q23 14 49 18t52 5q34 2 50 -19.5t6 -53.5q-15 -53 -67 -71q-12 -4 -24.5 -7t-25.5 -6q-8 -2 -17 -3t-20 -3q2 -20 12 -35t24 -25q33 -26 70 -43.5 t80 -22.5q17 -2 31.5 -10.5t19.5 -27.5q9 -32 -16 -51q-11 -9 -26.5 -10t-26.5 8q-26 21 -56.5 30t-59.5 20q-40 17 -79 13.5t-79 -16.5q-18 -6 -38 -6q-24 2 -38 17.5t-12 40.5zM233 302q24 -5 37.5 0t25.5 24q-11 11 -22 8t-22 -7q-8 -2 -14 -7.5t-5 -17.5z" />
<glyph unicode="&#xe55;" horiz-adv-x="483" d="M4 222q-7 62 8 127q9 41 34 71q26 35 67 35q12 0 23.5 0.5t23.5 1.5q7 1 13.5 1.5t14.5 2.5q-10 13 -19.5 23.5t-15.5 22.5q-11 22 -16.5 45t4.5 49q15 39 39.5 47.5t56.5 -9.5q17 -8 30 -20t22 -29q2 -5 6 -9.5t9 -11.5q9 7 17.5 13t15.5 14q12 14 22.5 28.5t22.5 28.5 q5 7 11.5 13t14.5 11q10 7 23 3t19 -15q8 -12 6 -28t-13 -24q-14 -11 -27.5 -22t-27.5 -21q-29 -20 -53.5 -44t-41.5 -55q-29 -49 -84 -64q-6 -2 -12 -2.5t-13 -1.5q-7 0 -14 -0.5t-14 0.5q-34 4 -53 -12.5t-28 -45.5q-8 -22 -12 -44t1 -46q6 14 12 26.5t11 26.5 q9 23 24.5 39.5t35.5 28.5q17 11 35.5 13t37.5 -9q37 -23 50.5 -44t12.5 -56q-3 -43 -43 -65q-18 -9 -37.5 -14.5t-39.5 -4.5q-5 1 -10.5 0.5t-12.5 -0.5q2 -12 6 -19t12 -12q7 -5 13.5 -9.5t14.5 -8.5q36 -17 72.5 -30.5t77.5 -18.5q13 -2 25.5 -6.5t25.5 -9.5q5 -2 9 -6.5 t6 -9.5q5 -13 0.5 -29t-17.5 -27q-21 -18 -45 -2q-28 17 -58 21.5t-61 6.5l-24 2l-24 2q-11 0 -22 0.5t-22 -0.5q-14 0 -28 2t-27.5 8t-24.5 17.5t-17 30.5q-21 62 -28 124zM76 152q3 -43 46 -42q-12 11 -23.5 21.5t-22.5 20.5zM152 289q-1 -8 8 -16t20 -9q10 0 19 7.5 t9 16.5q1 9 -8 18.5t-18 9.5q-8 0 -19 -9.5t-11 -17.5zM198 567q-2 -12 8 -22t24 -11q2 13 -1.5 24.5t-12.5 17.5q-7 5 -12 2t-6 -11z" />
<glyph unicode="&#xe56;" horiz-adv-x="452" d="M-18 608q-4 14 5.5 25.5t24.5 16.5q18 6 36 11.5t35 13.5q40 20 71.5 8t54.5 -46q23 -36 41.5 -74.5t26.5 -82.5q4 -20 25 -27q44 -15 73.5 -44t43.5 -75q9 -32 17 -63t8 -65q1 -65 -33 -124q-19 -33 -58 -52q-10 -5 -19.5 -10t-19.5 -10q-31 -13 -54 0.5t-34 45.5 q-11 33 -7.5 64.5t11.5 63.5q4 18 16 30.5t28 18.5t32 5.5t28 -7.5q13 -9 26 -19.5t28 -21.5q1 8 1.5 15.5t1.5 15.5q1 29 -6.5 55.5t-21.5 49.5q-9 16 -24.5 28t-29.5 24q-17 14 -32 -6q-9 -14 -23.5 -13.5t-25.5 5.5q-29 13 -22 45q2 11 5.5 22.5t5.5 22.5q4 29 -4.5 55 t-20.5 51q-5 13 -13 25t-17 24q-11 13 -19.5 15t-23.5 -5q-17 -8 -34 -17t-34 -17q-6 -3 -12.5 -5.5t-13.5 -3.5q-21 -4 -30.5 7.5t-12.5 24.5zM285 131.5q0 -11.5 9 -31.5q14 8 16.5 19.5t1.5 23.5q-1 8 -4.5 13.5t-12.5 3.5q-10 -17 -10 -28.5z" />
<glyph unicode="&#xe57;" horiz-adv-x="611" d="M10.5 347q-2.5 36 3.5 71q14 76 46 147q10 21 29.5 31t42 9t44 -12.5t34.5 -32.5q5 -8 10 -17.5t11 -21.5q7 7 12 13t10 11q16 16 31 32.5t32 31.5q24 22 50 17t41 -34q32 -66 41 -136q2 -14 3 -28t3 -28q8 -44 -6 -86q-11 -29 -9 -59.5t6 -65.5q5 6 8 9.5t5 7.5 q7 21 14 41.5t12 41.5q14 64 17 128.5t0 130.5q0 17 -4 33t-10 31q-13 30 -27 58.5t-40 51.5q-17 14 -34 18.5t-37 -6.5q-17 -9 -32 -7t-29 13q-11 10 -12.5 27.5t5.5 34.5q8 17 21 22.5t30 6.5q42 2 75.5 -15t61.5 -46q87 -90 113 -214q5 -20 7 -41t3 -41q1 -15 -2 -29.5 t-5 -28.5q-4 -20 -6.5 -39t-7.5 -38q-6 -28 -14.5 -55t-14.5 -56q-8 -35 -20.5 -67t-28.5 -63q-8 -17 -18.5 -31t-22.5 -27q-7 -8 -17.5 -9.5t-21 1.5t-19.5 10.5t-14 19.5q-7 17 -11.5 36.5t-4.5 38.5q-1 33 1.5 66.5t4.5 66.5q2 54 4 106t-5 105q-2 14 -8 25.5t-17 23.5 q-30 -15 -43.5 -38.5t-20.5 -51.5q-5 -23 -8.5 -46t-7.5 -46q-4 -26 -15.5 -35.5t-36.5 -5.5q-18 2 -29 17t-9 35q1 7 2.5 13t2.5 12q10 58 -20 111q-13 22 -27 22.5t-26 -22.5q-15 -29 -19 -58q-8 -45 -9 -90q-1 -17 0.5 -34t2.5 -34q10 0 13 1q34 11 59 -3.5t33 -49.5 q19 -84 9 -170q-3 -31 -26.5 -44t-47.5 -5q-25 8 -43 29q-17 21 -28.5 46t-17.5 51q-8 35 -14 70t-6 71q1 36 -1.5 72z" />
<glyph unicode="&#xe58;" horiz-adv-x="411" d="M17 232q1 39 0 78.5t1 78.5q1 30 3.5 60.5t7.5 61.5q2 15 10.5 25.5t21.5 15.5t28 4t29 -9q29 -17 59 -32.5t59 -32.5q19 -10 34.5 -5.5t23.5 24.5q5 11 6.5 23.5t4.5 24.5q3 9 5.5 18.5t7.5 17.5q6 12 17 16.5t22 1.5q11 -2 19.5 -13.5t7.5 -23.5q-1 -7 -3.5 -14 t-5.5 -13q-5 -13 -11.5 -25t-11.5 -25q-5 -12 -7.5 -24.5t-6.5 -26.5q11 -10 20.5 -18.5t17.5 -18.5q22 -34 20 -72t-5.5 -75.5t-8.5 -75.5q-7 -49 -37 -96q-13 -21 -33 -31t-41 -11t-40.5 6.5t-32.5 22.5q-3 3 -6.5 7.5t-9.5 11.5q-2 -10 -3 -16t-2 -11q-2 -17 -9.5 -30 t-24.5 -19q-18 -6 -35.5 -4.5t-34.5 16.5q-17 14 -25.5 31.5t-13.5 37.5q-8 35 -13 69.5t-4 69.5zM66 301.5q2 -52.5 4 -106.5q1 -23 4 -44.5t12 -42.5q3 -7 7.5 -13.5t15.5 -9.5q2 8 4 14.5t1 13.5q-1 25 -3 49.5t-4 49.5q-1 15 -2 30.5t1 31.5q3 27 22.5 35t42.5 -7 q27 -18 30 -52q2 -26 6.5 -51.5t15.5 -49.5q5 -10 11 -19t14 -17q15 -16 35 -2q23 13 30 41q5 20 9 40.5t9 40.5q1 3 0.5 7t-0.5 10q-7 -5 -11 -8t-9 -5q-10 -5 -19 -11t-20 -9q-14 -4 -25.5 -1t-19 11t-10.5 20t1 26q3 11 6 21.5t3 21.5q1 21 9 39t20 34q2 4 4 7t4 8 q-24 14 -45.5 27t-44.5 24q-17 8 -35 14t-36 11q-12 4 -17 0.5t-7 -15.5q-3 -14 -4.5 -28.5t-3.5 -28.5q-7 -54 -5 -106.5zM286 297q15 12 20 25.5t7 30.5q-14 -11 -20.5 -23.5t-6.5 -32.5z" />
<glyph unicode="&#xe59;" horiz-adv-x="514" d="M18 330q-4 41 0 83q2 11 4.5 23t5.5 23q11 37 42 50.5t66 6.5q5 -1 10 -2.5t10 -2.5q10 13 19 25.5t20 23.5q16 16 31 16.5t33 -12.5q14 -9 24 -20.5t20 -24.5q11 -14 22.5 -28t24.5 -30q3 7 5.5 12t4.5 10q36 104 113 184q19 19 36 38.5t31 42.5q10 15 25.5 17.5 t30.5 -7.5q12 -8 15.5 -24.5t-5.5 -28.5q-5 -8 -12 -14.5t-15 -9.5q-32 -11 -55.5 -32t-43.5 -47q-43 -58 -69 -122q-8 -20 -7.5 -40t13.5 -40q17 -27 11 -51t-32 -42q-22 -14 -50 -7.5t-43 30.5q-8 14 -13 29.5t-4 32.5q2 25 -7.5 46t-21.5 41q-6 10 -14 8.5t-11 -12.5 q-2 -8 -3 -16.5t1 -16.5q8 -24 16 -47t28 -43q15 -15 22 -35t13 -40q5 -15 12 -28.5t13 -27.5q10 -22 21 -44.5t7 -48.5q-1 -9 0 -18.5t2 -18.5q0 -8 -2 -13.5t-10 -8.5t-15 -3t-12 7q-8 9 -15 19t-13 21q-10 19 -18.5 37.5t-18.5 37.5q-14 26 -28.5 52t-27.5 52 q-12 28 -22 56t-20 57q-5 14 -14 25t-20 21t-24.5 6.5t-20.5 -18.5q-13 -30 -14 -60q-3 -43 3.5 -85t17.5 -87q7 17 4 29.5t-8 24.5q-5 13 -2 23.5t10 20.5q17 20 40 8q31 -17 39 -51q4 -23 7.5 -45.5t9.5 -44.5q7 -26 9.5 -51.5t0.5 -51.5q-2 -22 -9 -43 q-11 -28 -33.5 -30.5t-39.5 9.5q-12 8 -19.5 19t-12.5 25q-20 48 -32.5 98t-23.5 101q-8 41 -12 82z" />
<glyph unicode="&#xe5a;" horiz-adv-x="1362" d="M66 631q0 48 21 90.5t56.5 73.5t82.5 49t100 18h30v-61h-30q-41 0 -77.5 -14t-63.5 -37t-42.5 -54t-15.5 -65q0 -152 205 -152q214 0 479 133q254 128 254 219v31h61v-862h-61v713q-108 -114 -336 -205q-228 -90 -397 -90q-266 0 -266 213zM1204 0v860h62v-860h-62z" />
<glyph unicode="&#xe5b;" horiz-adv-x="1352" d="M94 432q0 72 14.5 130.5t40.5 100.5t63.5 64.5t84.5 22.5q39 0 70 -15.5t52.5 -44t33 -68t11.5 -86.5q0 -89 -40 -143q-34 -43 -80 -43q-20 0 -37.5 9t-30 25t-19.5 37t-7 44q0 22 6.5 42.5t19 36t30 25t38.5 9.5q32 0 53 -21q0 63 -28.5 98t-71.5 35q-30 0 -56 -17 t-44.5 -47.5t-29 -73.5t-10.5 -95q0 -66 13.5 -119t37.5 -90.5t57.5 -57.5t72.5 -20q46 0 85.5 28t68.5 79t46 121.5t17 155.5v24l-2 36l31 39l102 -227l72 215l71 -190l64 155l72 -153l63 116l64 -98l20 41h234l-50 -61h-145l-61 -80l-58 78l-71 -130l-64 134l-76 -170 l-59 172l-66 -197l-88 191q-10 -80 -35 -143.5t-61 -108t-80.5 -68t-93.5 -23.5q-50 0 -93.5 24t-76 67t-52 103t-22.5 132zM301 465q0 -25 12 -41t29 -16q20 0 31.5 16t11.5 41t-11.5 41t-31.5 16q-17 0 -29 -16t-12 -41z" />
<glyph unicode="&#x2000;" horiz-adv-x="964" />
<glyph unicode="&#x2001;" horiz-adv-x="1928" />
<glyph unicode="&#x2002;" horiz-adv-x="964" />
<glyph unicode="&#x2003;" horiz-adv-x="1928" />
<glyph unicode="&#x2004;" horiz-adv-x="642" />
<glyph unicode="&#x2005;" horiz-adv-x="482" />
<glyph unicode="&#x2006;" horiz-adv-x="321" />
<glyph unicode="&#x2007;" horiz-adv-x="321" />
<glyph unicode="&#x2008;" horiz-adv-x="241" />
<glyph unicode="&#x2009;" horiz-adv-x="385" />
<glyph unicode="&#x200a;" horiz-adv-x="107" />
<glyph unicode="&#x200b;" />
<glyph unicode="&#x2010;" horiz-adv-x="1053" d="M94 463v61h862v-61h-862z" />
<glyph unicode="&#x2011;" horiz-adv-x="1053" d="M94 463v61h862v-61h-862z" />
<glyph unicode="&#x2012;" horiz-adv-x="1053" d="M94 463v61h862v-61h-862z" />
<glyph unicode="&#x2013;" horiz-adv-x="862" d="M0 463v61h862v-61h-862z" />
<glyph unicode="&#x2014;" horiz-adv-x="1292" d="M0 463v61h1292v-61h-1292z" />
<glyph unicode="&#x2018;" horiz-adv-x="395" d="M96 934q0 86 41 143.5t131 89.5q6 2 15 2q16 0 16 -10v-4q0 -12 -14 -20q-28 -15 -47.5 -27t-32.5 -24.5t-21.5 -26.5t-13.5 -33h18q18 0 34 -7t28.5 -19t20 -28.5t7.5 -35.5q0 -18 -7 -34.5t-19 -29t-28.5 -19.5t-35.5 -7q-39 0 -65.5 26.5t-26.5 63.5z" />
<glyph unicode="&#x2019;" horiz-adv-x="395" d="M96 856q0 14 17 23q27 15 46 27t32 24t21 25.5t13 31.5h-16q-39 0 -65.5 26.5t-26.5 65.5q0 37 26.5 63.5t65.5 26.5q18 0 34 -7t28.5 -19.5t20 -29t7.5 -34.5q0 -88 -40 -144t-132 -89q-6 -2 -12 -2q-19 0 -19 12z" />
<glyph unicode="&#x201a;" d="M-1047.5 1077q9.5 34 39.5 56q23 16 45.5 33t48.5 28q63 29 132 17q90 -16 167.5 -53t140.5 -105q20 -22 39 -44t39 -44q8 -9 18.5 -16.5t21.5 -17.5q13 30 8.5 56t-10.5 51q-4 17 -7 34.5t-4 34.5q-1 18 4.5 35t28.5 24q21 7 42.5 1.5t36.5 -22.5q21 -22 24 -46.5 t-8 -50.5t-15.5 -53t-6.5 -54t-2 -54t-1 -54q-1 -10 -0.5 -20t-0.5 -19t-5.5 -17t-15.5 -14q-24 -14 -48.5 -15t-50.5 13q-35 18 -70 34.5t-72 30.5q-57 20 -113.5 38.5t-113.5 35.5q-35 11 -72 18t-72 18q-30 9 -59 20.5t-58 25.5q-8 3 -14 11.5t-10 16.5q-16 33 -6.5 67z M-942 1048q57 -27 116.5 -46.5t120 -36.5t121.5 -34.5t122 -40.5q-3 10 -4 15.5t-4 8.5q-43 44 -84.5 90t-93.5 81q-74 49 -158 53q-99 5 -136 -90z" />
<glyph unicode="&#xf702;" d="M-1047.5 1077q9.5 34 39.5 56q23 16 45.5 33t48.5 28q63 29 132 17q90 -16 167.5 -53t140.5 -105q20 -22 39 -44t39 -44q8 -9 18.5 -16.5t21.5 -17.5q13 30 8.5 56t-10.5 51q-4 17 -7 34.5t-4 34.5q-1 18 4.5 35t28.5 24q21 7 42.5 1.5t36.5 -22.5q21 -22 24 -46.5 t-8 -50.5t-15.5 -53t-6.5 -54t-2 -54t-1 -54q-1 -10 -0.5 -20t-0.5 -19t-5.5 -17t-15.5 -14q-24 -14 -48.5 -15t-50.5 13q-35 18 -70 34.5t-72 30.5q-57 20 -113.5 38.5t-113.5 35.5q-35 11 -72 18t-72 18q-30 9 -59 20.5t-58 25.5q-8 3 -14 11.5t-10 16.5q-16 33 -6.5 67z M-942 1048q57 -27 116.5 -46.5t120 -36.5t121.5 -34.5t122 -40.5q-3 10 -4 15.5t-4 8.5q-43 44 -84.5 90t-93.5 81q-74 49 -158 53q-99 5 -136 -90z" />
<glyph unicode="&#x201e;" d="M-832.5 1001q8.5 22 25.5 42q11 13 22 25t22 26q14 19 33 22.5t39 -1.5q23 -5 45 -3.5t45 3.5q32 2 63 3t62 -6q13 -3 26 -6.5t29 -7.5q-1 16 -1 31.5t-2 29.5q-1 9 -3 18t-3 18q-1 14 5 24.5t17 13.5q13 4 27 -0.5t21 -14.5q4 -5 6.5 -11t4.5 -12q6 5 11 8.5t10 7.5 q21 16 45 3q12 -7 19 -17t5 -24q0 -9 -2 -19t-7 -18q-14 -30 -11 -66q2 -26 5 -51.5t5 -51.5q2 -6 2 -11q-3 -18 -5 -36.5t-6 -36.5q-5 -17 -13.5 -22.5t-28.5 -5.5q-39 1 -77.5 2t-76.5 0q-29 0 -56.5 -2.5t-56.5 -3.5q-41 -1 -81 3.5t-79 17.5q-32 10 -52.5 31t-31.5 50 q-10 26 -1.5 48zM-752 974q-3 -11 5.5 -17.5t17.5 -10.5q33 -12 66.5 -23.5t70.5 -10.5q48 0 96 1.5t97 3.5q4 1 8.5 2t11.5 3q-3 18 -5.5 35.5t-5.5 35.5q-2 4 -5 7q-10 8 -19 16.5t-20 14.5q-42 20 -86 24.5t-89 -3.5q-11 -2 -22.5 -8.5t-17.5 -15.5q-14 -19 -31.5 -27 t-38.5 -10q-10 -1 -20 -3.5t-13 -13.5z" />
<glyph unicode="&#xf704;" d="M-832.5 1001q8.5 22 25.5 42q11 13 22 25t22 26q14 19 33 22.5t39 -1.5q23 -5 45 -3.5t45 3.5q32 2 63 3t62 -6q13 -3 26 -6.5t29 -7.5q-1 16 -1 31.5t-2 29.5q-1 9 -3 18t-3 18q-1 14 5 24.5t17 13.5q13 4 27 -0.5t21 -14.5q4 -5 6.5 -11t4.5 -12q6 5 11 8.5t10 7.5 q21 16 45 3q12 -7 19 -17t5 -24q0 -9 -2 -19t-7 -18q-14 -30 -11 -66q2 -26 5 -51.5t5 -51.5q2 -6 2 -11q-3 -18 -5 -36.5t-6 -36.5q-5 -17 -13.5 -22.5t-28.5 -5.5q-39 1 -77.5 2t-76.5 0q-29 0 -56.5 -2.5t-56.5 -3.5q-41 -1 -81 3.5t-79 17.5q-32 10 -52.5 31t-31.5 50 q-10 26 -1.5 48zM-752 974q-3 -11 5.5 -17.5t17.5 -10.5q33 -12 66.5 -23.5t70.5 -10.5q48 0 96 1.5t97 3.5q4 1 8.5 2t11.5 3q-3 18 -5.5 35.5t-5.5 35.5q-2 4 -5 7q-10 8 -19 16.5t-20 14.5q-42 20 -86 24.5t-89 -3.5q-11 -2 -22.5 -8.5t-17.5 -15.5q-14 -19 -31.5 -27 t-38.5 -10q-10 -1 -20 -3.5t-13 -13.5z" />
<glyph unicode="&#x2020;" d="M-352 908q0 3 0.5 6.5t0.5 7.5v9.5t1 8.5v-1q2 10 1.5 20.5t-1.5 21.5q-1 8 -1 16v17q2 23 2.5 44.5t0.5 44.5q0 14 -0.5 28t-1.5 28q0 8 -0.5 15t-0.5 14q-1 19 10 30.5t28 9.5q15 -2 24 -12.5t4 -25.5h1q-4 -15 -4 -30q0 -8 0.5 -15t0.5 -15q0 -5 0.5 -10t0.5 -10 v-28.5t1 -28.5l9 -100v-2q2 -14 1.5 -29t-6.5 -29v1l-1 -2v-1l-2 -10q-6 -17 -15 -23t-24 -4q-22 5 -27 29q-1 6 -1.5 12t-0.5 13z" />
<glyph unicode="&#xf705;" d="M-352 908q0 3 0.5 6.5t0.5 7.5v9.5t1 8.5v-1q2 10 1.5 20.5t-1.5 21.5q-1 8 -1 16v17q2 23 2.5 44.5t0.5 44.5q0 14 -0.5 28t-1.5 28q0 8 -0.5 15t-0.5 14q-1 19 10 30.5t28 9.5q15 -2 24 -12.5t4 -25.5h1q-4 -15 -4 -30q0 -8 0.5 -15t0.5 -15q0 -5 0.5 -10t0.5 -10 v-28.5t1 -28.5l9 -100v-2q2 -14 1.5 -29t-6.5 -29v1l-1 -2v-1l-2 -10q-6 -17 -15 -23t-24 -4q-22 5 -27 29q-1 6 -1.5 12t-0.5 13z" />
<glyph unicode="&#x2021;" d="M-556.5 1160.5q-0.5 18.5 14.5 31.5h-1q2 2 8 6.5t13 9.5q14 8 28.5 9.5t29.5 -0.5l17 -6q12 -5 19 -18q7 -9 13.5 -19.5t8.5 -22.5v1v-6q5 9 10.5 18.5t11.5 18.5l7 11q4 7 7 13.5t5 8.5v-2l28 37l18 28l-1 -1l3 4.5t3 3.5l6 8q4 5 9 11.5t9 10.5l2 5v-1q3 12 14 19 t24 3q12 -4 19.5 -12t4.5 -19q-5 -13 -10 -18q-7 -3 -11.5 -8.5t-7.5 -11.5l-5 -6v1q-13 -13 -23.5 -28t-21.5 -31t-21 -30.5t-21 -31.5v1q-6 -10 -11 -20.5t-9 -22.5q-2 -8 -4 -18t-4 -22q-1 -3 -0.5 -4t0 -3t-1.5 -8t-5 -19l-3 -17q-6 -20 -19.5 -28t-30.5 1l1 -1 q-10 4 -13.5 12.5t-3.5 17.5q0 5 0.5 10t1.5 10q2 9 3 19.5t1 17.5q0 18 -4 34q-14 -10 -32.5 -11.5t-34.5 7.5q-5 2 -9 7t-9 10l-9 9h1q-14 13 -14.5 31.5zM-486 1147h2v-1q-1 1 -2 1zM-484 1147l2 2l7 2l-6 -1v3q0 5 1 8h-1v2v3q0 -2 -0.5 -2.5t-0.5 -1.5v-1h-2h2 q0 -4 -2 -14zM-480 1161q2 2 2 4q1 2 1 4l7 -12q-2 2 -5 2.5t-5 1.5z" />
<glyph unicode="&#xf706;" d="M-556.5 1160.5q-0.5 18.5 14.5 31.5h-1q2 2 8 6.5t13 9.5q14 8 28.5 9.5t29.5 -0.5l17 -6q12 -5 19 -18q7 -9 13.5 -19.5t8.5 -22.5v1v-6q5 9 10.5 18.5t11.5 18.5l7 11q4 7 7 13.5t5 8.5v-2l28 37l18 28l-1 -1l3 4.5t3 3.5l6 8q4 5 9 11.5t9 10.5l2 5v-1q3 12 14 19 t24 3q12 -4 19.5 -12t4.5 -19q-5 -13 -10 -18q-7 -3 -11.5 -8.5t-7.5 -11.5l-5 -6v1q-13 -13 -23.5 -28t-21.5 -31t-21 -30.5t-21 -31.5v1q-6 -10 -11 -20.5t-9 -22.5q-2 -8 -4 -18t-4 -22q-1 -3 -0.5 -4t0 -3t-1.5 -8t-5 -19l-3 -17q-6 -20 -19.5 -28t-30.5 1l1 -1 q-10 4 -13.5 12.5t-3.5 17.5q0 5 0.5 10t1.5 10q2 9 3 19.5t1 17.5q0 18 -4 34q-14 -10 -32.5 -11.5t-34.5 7.5q-5 2 -9 7t-9 10l-9 9h1q-14 13 -14.5 31.5zM-486 1147h2v-1q-1 1 -2 1zM-484 1147l2 2l7 2l-6 -1v3q0 5 1 8h-1v2v3q0 -2 -0.5 -2.5t-0.5 -1.5v-1h-2h2 q0 -4 -2 -14zM-480 1161q2 2 2 4q1 2 1 4l7 -12q-2 2 -5 2.5t-5 1.5z" />
<glyph unicode="&#x2022;" horiz-adv-x="702" d="M94 389q0 52 20.5 99t56 81.5t82 55t97.5 20.5q52 0 99 -20.5t81.5 -55t55 -81.5t20.5 -99q0 -51 -20.5 -97.5t-55 -82t-81.5 -56t-99 -20.5t-98.5 20.5t-81.5 55t-55.5 81t-20.5 99.5z" />
<glyph unicode="&#x2026;" horiz-adv-x="1079" d="M94 49q0 23 17 39t39 16q23 0 39 -16t16 -39q0 -20 -16 -36.5t-39 -16.5q-22 0 -39 16.5t-17 36.5zM485 49q0 23 16.5 39t39.5 16q20 0 37.5 -16t17.5 -39q0 -20 -16 -36.5t-39 -16.5t-39.5 16.5t-16.5 36.5zM874 49q0 23 17 39t39 16q23 0 39 -16t16 -39 q0 -20 -16 -36.5t-39 -16.5q-22 0 -39 16.5t-17 36.5z" />
<glyph unicode="&#x202f;" horiz-adv-x="385" />
<glyph unicode="&#x2030;" d="M-500 1045h1q-5 14 3 26t22 15q7 2 16 2h18l37 -2q9 -1 17 -2t18 -1l-1 1q1 6 1 13v12q1 8 1 16v18v6.5t-2 5.5v-1q-8 8 -6.5 20t9.5 21h-1q15 18 36 9h-1q8 -3 14 -10t6 -18q0 -3 -0.5 -5.5t-2.5 -7.5q-3 -15 -3 -31v-9.5t-1 -9.5v1l-2 -35q2 0 3 -0.5t2 -0.5h9t9 -1 q11 -1 18.5 -1.5t15.5 2.5q7 2 12 1q14 -2 23 -10.5t7 -19.5q-2 -12 -15 -20.5t-26 -6.5q-9 1 -18 1.5t-17 2.5q-6 0 -13.5 0.5t-13.5 1.5q-3 -20 -3 -39q-1 -8 -1 -15v-15v-15.5t1 -15.5q0 -17 3 -35t-14 -29h1q-16 -13 -31 -1h1q-8 6 -13.5 12t-3.5 14q7 19 8 33.5t1 28.5 v27q2 14 3 28.5t2 28.5q-16 2 -30.5 2t-29.5 -1h-1l-5 -3l-10 -4l-12 -3q-13 -4 -25.5 2t-15.5 17zM-339 1030l1 1h-1q1 -1 0 -1zM-315 1163l1 3q0 -1 -0.5 -1.5t-0.5 -1.5z" />
<glyph unicode="&#xf708;" d="M-500 1045h1q-5 14 3 26t22 15q7 2 16 2h18l37 -2q9 -1 17 -2t18 -1l-1 1q1 6 1 13v12q1 8 1 16v18v6.5t-2 5.5v-1q-8 8 -6.5 20t9.5 21h-1q15 18 36 9h-1q8 -3 14 -10t6 -18q0 -3 -0.5 -5.5t-2.5 -7.5q-3 -15 -3 -31v-9.5t-1 -9.5v1l-2 -35q2 0 3 -0.5t2 -0.5h9t9 -1 q11 -1 18.5 -1.5t15.5 2.5q7 2 12 1q14 -2 23 -10.5t7 -19.5q-2 -12 -15 -20.5t-26 -6.5q-9 1 -18 1.5t-17 2.5q-6 0 -13.5 0.5t-13.5 1.5q-3 -20 -3 -39q-1 -8 -1 -15v-15v-15.5t1 -15.5q0 -17 3 -35t-14 -29h1q-16 -13 -31 -1h1q-8 6 -13.5 12t-3.5 14q7 19 8 33.5t1 28.5 v27q2 14 3 28.5t2 28.5q-16 2 -30.5 2t-29.5 -1h-1l-5 -3l-10 -4l-12 -3q-13 -4 -25.5 2t-15.5 17zM-339 1030l1 1h-1q1 -1 0 -1zM-315 1163l1 3q0 -1 -0.5 -1.5t-0.5 -1.5z" />
<glyph unicode="&#x2039;" d="M-169 1143q0 3 0.5 6.5t0.5 7.5v9.5t1 8.5v-1q2 10 1.5 20.5t-1.5 21.5q-1 8 -1 16v17q2 23 2.5 44.5t0.5 44.5q0 14 -0.5 28t-1.5 28q0 8 -0.5 15t-0.5 14q-1 19 10 30.5t28 9.5q15 -2 24 -12.5t4 -25.5h1q-4 -15 -4 -30q0 -8 0.5 -15t0.5 -15q0 -5 0.5 -10t0.5 -10 v-28.5t1 -28.5l9 -100v-2q2 -14 1.5 -29t-6.5 -29v1l-1 -2v-1l-2 -10q-6 -17 -15.5 -23t-23.5 -4q-22 4 -27 29q-1 6 -1.5 12t-0.5 13z" />
<glyph unicode="&#xf70a;" d="M-169 1143q0 3 0.5 6.5t0.5 7.5v9.5t1 8.5v-1q2 10 1.5 20.5t-1.5 21.5q-1 8 -1 16v17q2 23 2.5 44.5t0.5 44.5q0 14 -0.5 28t-1.5 28q0 8 -0.5 15t-0.5 14q-1 19 10 30.5t28 9.5q15 -2 24 -12.5t4 -25.5h1q-4 -15 -4 -30q0 -8 0.5 -15t0.5 -15q0 -5 0.5 -10t0.5 -10 v-28.5t1 -28.5l9 -100v-2q2 -14 1.5 -29t-6.5 -29v1l-1 -2v-1l-2 -10q-6 -17 -15.5 -23t-23.5 -4q-22 4 -27 29q-1 6 -1.5 12t-0.5 13z" />
<glyph unicode="&#x203a;" d="M-356 1285q0 4 0.5 7.5t0.5 7.5v8.5t1 8.5v-1q2 11 1.5 21t-1.5 21q-1 8 -1 16v17q2 23 2.5 45t0.5 44q0 14 -0.5 28t-1.5 28q0 8 -0.5 15t-0.5 15q-1 18 10 30t28 10q16 -2 24.5 -13t3.5 -25h1q-4 -16 -4 -31q0 -7 0.5 -14.5t0.5 -15.5q0 -5 0.5 -9.5t0.5 -9.5v-29 t1 -29l9 -99v-2q2 -15 1.5 -30t-6.5 -29v1l-1 -2v-1l-2 -9q-6 -17 -15 -23.5t-24 -4.5q-23 5 -27 30q-1 5 -1.5 11t-0.5 13z" />
<glyph unicode="&#xf713;" d="M-356 1285q0 4 0.5 7.5t0.5 7.5v8.5t1 8.5v-1q2 11 1.5 21t-1.5 21q-1 8 -1 16v17q2 23 2.5 45t0.5 44q0 14 -0.5 28t-1.5 28q0 8 -0.5 15t-0.5 15q-1 18 10 30t28 10q16 -2 24.5 -13t3.5 -25h1q-4 -16 -4 -31q0 -7 0.5 -14.5t0.5 -15.5q0 -5 0.5 -9.5t0.5 -9.5v-29 t1 -29l9 -99v-2q2 -15 1.5 -30t-6.5 -29v1l-1 -2v-1l-2 -9q-6 -17 -15 -23.5t-24 -4.5q-23 5 -27 30q-1 5 -1.5 11t-0.5 13z" />
<glyph unicode="&#x205f;" horiz-adv-x="482" />
<glyph unicode="&#x20ac;" horiz-adv-x="1110" d="M33 799v61h721q94 0 168 -53q30 12 30 33v69h64v-69q0 -46 -47 -78q47 -59 47 -131v-631h-64v401h-499v62h499v168q0 34 -15 64.5t-42 53.5t-63 36.5t-78 13.5h-721z" />
<glyph unicode="&#xf700;" horiz-adv-x="1110" d="M33 799v61h721q94 0 168 -53q30 12 30 33v69h64v-69q0 -46 -47 -78q47 -59 47 -131v-631h-64v401h-499v62h499v168q0 34 -15 64.5t-42 53.5t-63 36.5t-78 13.5h-721z" />
<glyph unicode="&#x2122;" d="M-475.5 1093q-3.5 15 0.5 30.5t16 30.5q28 32 63 44.5t76 13.5q17 4 32.5 -1.5t26 -17.5t13.5 -28.5t-5 -32.5q-6 -13 -16 -24.5t-19 -23.5q-15 -19 -36.5 -25.5t-43.5 -14.5q-17 -7 -32 -5.5t-31 7.5q-18 7 -29.5 19.5t-15 27.5z" />
<glyph unicode="&#xf711;" d="M-475.5 1093q-3.5 15 0.5 30.5t16 30.5q28 32 63 44.5t76 13.5q17 4 32.5 -1.5t26 -17.5t13.5 -28.5t-5 -32.5q-6 -13 -16 -24.5t-19 -23.5q-15 -19 -36.5 -25.5t-43.5 -14.5q-17 -7 -32 -5.5t-31 7.5q-18 7 -29.5 19.5t-15 27.5z" />
<glyph unicode="&#x25cc;" horiz-adv-x="1049" d="M96 430q0 19 14.5 33t34.5 14q17 0 32 -14t15 -33q0 -21 -14 -35.5t-33 -14.5q-20 0 -34.5 14.5t-14.5 35.5zM211 162q0 20 14 33.5t33 13.5q21 0 35 -13.5t14 -33.5t-14 -33.5t-35 -13.5q-19 0 -33 13.5t-14 33.5zM211 695q0 23 14 36t33 13q21 0 35 -13t14 -36 q0 -20 -14 -33.5t-35 -13.5q-19 0 -33 13.5t-14 33.5zM479 47q0 20 13.5 34t33.5 14q19 0 34 -14t15 -34q0 -19 -15 -33t-34 -14q-20 0 -33.5 14t-13.5 33zM479 810q0 20 13.5 33.5t33.5 13.5q19 0 34 -13.5t15 -33.5q0 -19 -15 -32.5t-34 -13.5q-20 0 -33.5 13.5 t-13.5 32.5zM744 162q0 20 14.5 33.5t34.5 13.5q18 0 32.5 -13.5t14.5 -33.5t-13.5 -33.5t-33.5 -13.5t-34.5 13.5t-14.5 33.5zM744 695q0 23 14.5 36t34.5 13q18 0 32.5 -13t14.5 -36q0 -20 -13.5 -33.5t-33.5 -13.5t-34.5 13.5t-14.5 33.5zM858 430q0 19 13.5 33t32.5 14 q21 0 35 -14t14 -33q0 -21 -13 -35.5t-36 -14.5q-19 0 -32.5 14.5t-13.5 35.5z" />
<glyph unicode="&#x25fc;" horiz-adv-x="760" d="M0 0v760h760v-760h-760z" />
<glyph unicode="&#xf701;" d="M-1015 1006q-1 33 9 58t25 49q22 36 50.5 62t63.5 46q63 38 136 30q51 -6 101.5 -12.5t98.5 -30.5q108 -53 170 -151q22 -35 45 -69.5t53 -63.5q18 -18 19.5 -42t-11.5 -49q-16 -29 -32.5 -39.5t-44.5 -4.5q-70 16 -140.5 20.5t-140.5 12.5q-39 4 -78.5 8.5t-79.5 8.5 q-46 3 -87 -1q-84 -12 -122 62q-15 26 -25.5 53t-9.5 53zM-941 1013q-7 -35 10.5 -60t52.5 -33q17 -4 34 -7.5t34 -5.5q91 -8 181.5 -16t182.5 -16v-2h36q28 1 36.5 12.5t1.5 37.5q-3 13 -9 24q-15 27 -30.5 54t-34 51t-42.5 43t-56 31q-5 1 -13 7q-36 29 -79.5 38.5 t-87.5 11.5q-57 2 -104.5 -21.5t-80.5 -72.5q-23 -35 -32 -76z" />
<glyph unicode="&#xf70c;" d="M-236 1253q0 10 1 21.5t5 24.5h-1q4 14 12.5 25.5t22.5 16.5q11 5 23 7.5t27 -2.5q16 -7 24 -22v1q4 -7 7.5 -16t7.5 -19l3 10l-1 -1l4 13l4 10v1q32 37 64 11q6 -5 10.5 -12.5t7.5 -14.5q12 -34 15 -74q2 -18 6.5 -37t11.5 -37l8 -16t9 -13q0 -2 -1 -2q4 2 6.5 5.5 t6.5 8.5l6 7q9 11 16.5 25.5t14.5 26.5l9 14q14 20 30 42t27 42q5 10 14.5 24t17.5 25l12 19l-1 -1l10 19l2 3q2 5 3.5 7.5t3.5 4.5v-1q19 23 46 5h-1q8 -6 11.5 -16t-3.5 -20q-3 -5 -6.5 -10t-9.5 -10q-14 -8 -24 -22.5t-20 -28.5l-22 -34l-20 -31l1 1l-10 -14v1 q-5 -8 -8.5 -15t-8.5 -12q-8 -9 -15 -21t-12 -23t-11.5 -22t-14.5 -22l-5 -6l-7 -7q-4 -3 -6 -5t-4 -5q-13 -14 -31 -15t-32 12q-10 10 -16 24q-8 17 -14 34.5t-11 37.5q-2 11 -3.5 23t-3.5 24q-1 9 -1.5 18.5t-2.5 18.5q0 5 -4 13q-11 -29 -5 -67v1q2 -12 3.5 -24t3.5 -24 l4 -21q1 -7 1.5 -14.5t2.5 -13.5q2 -9 -1.5 -16t-10 -10.5t-15 -4.5t-16.5 2q-13 5 -16 12t-4 14q-1 14 -2.5 27.5t-4.5 24.5q-3 10 -6 21t-5 21q-5 19 -10.5 36t-10.5 31q-2 6 -6 13.5t-9 15.5q-4 2 -5 1q-5 -3 -8.5 -6.5t-5.5 -10.5q-3 -18 -3 -34q0 -11 1 -23.5t3 -24.5 l3 -18q11 9 26 9q11 0 20.5 -8.5t10.5 -22.5q1 -11 1.5 -24t0.5 -24q0 -23 -3 -42q-2 -11 -7.5 -21t-17.5 -18q-17 -10 -34 -4.5t-25 24.5l1 -1q-4 8 -5 13l-2 10q-5 32 -10 65t-9 65q-2 12 -3 25t-1 27zM-180 1071l7 6v-1q0 -4 3 -7l10 -3q-2 0 -4.5 0.5t-4.5 0.5 q-3 1 -5 2t-6 2zM-173 1077l3 2h-2q-1 0 -1 1v-3zM-170 1079l7 7q0 -4 1 -9l-4 1q-3 0 -4 1z" />
<glyph unicode="&#xf70e;" d="M-127 1238q-1 38 29 64l3 4l28 30q0 -6 -2.5 -14.5t-7.5 -10.5q3 0 6 1q23 0 37 -14q7 16 15.5 30.5t17.5 28.5q14 19 24 33.5t16 22.5q10 11 22 23t27 25q5 5 12 10t15 10l10 7h-1l10 6q6 6 13.5 9t18.5 0l-1 1q8 -2 14.5 -9t7.5 -15q2 -10 -5.5 -20t-17.5 -13 q-1 0 -3 -0.5t-5 -0.5q-8 0 -15 -4.5t-15 -9.5q-23 -17 -42.5 -40t-37.5 -47q-12 -17 -22 -34t-15 -37q-5 -16 4 -29q5 -11 9.5 -21t6.5 -22q1 -3 1 -6.5v-6.5q-3 -20 -23 -23q-10 -2 -18.5 1.5t-12.5 11.5q-2 2 -3 4t-2 7q-1 11 -5 20t-9 17q-4 8 -9 16t-14 12q-2 0 -2 0.5 t-1 0.5h-1v-1q-9 -12 -7 -28q2 -11 2.5 -21.5t1.5 -21.5q11 4 22 -1t16 -19v1q2 -4 3 -9.5t3 -11.5q1 -8 1 -17.5v-17.5t0.5 -16t0.5 -16t-2 -16q-5 -21 -22 -28t-34 7q-9 7 -13 16t-6 17l-5 22q-4 14 -7 32t-5 35q-2 13 -3 28l-2 30v8.5t-1 9.5zM-76 1123v4h30 q0 -1 -0.5 -3.5t-0.5 -3.5q-2 -6 -2 -10.5t3 -8.5l-28 -8q0 8 -0.5 15t-1.5 15z" />
<glyph unicode="&#xf70f;" horiz-adv-x="766" d="M16 680q1 46 28 86t69 57q38 16 76 19.5t78 -10.5q5 -2 10.5 -1.5t10.5 -1.5q57 -13 102.5 -42t70.5 -84q11 -22 15 -47.5t6 -50.5q5 -52 7 -104t5 -104q3 -53 6 -105t5 -105q1 -16 1.5 -24.5t4.5 -13t14 -6.5t29 -4q16 -2 32 0.5t32 4.5q30 3 32 33v52.5t-2 52.5 q-2 46 -5 91.5t-3 92.5q1 38 4 75t8 75q4 28 0 53t-12 50q-8 30 -8 57q0 24 16 36.5t40 10.5q22 -2 32.5 -17.5t8.5 -38.5q-6 -52 -11 -104l-10 -104q-3 -35 -5.5 -68.5t-4.5 -68.5q-1 -18 -0.5 -36t2.5 -36q9 -63 10 -126t-1 -126q0 -12 -6 -21.5t-15.5 -15.5t-20.5 -7.5 t-22 3.5q-19 8 -35 6t-34 -9q-21 -8 -41.5 -16t-40.5 -19q-15 -8 -30.5 -6t-28 11t-20 23.5t-6.5 31.5q0 6 1.5 12t1.5 12q2 26 3 51t5 50q6 38 7 76.5t-1.5 76.5t-6.5 76t-7 76q-3 42 -11 82.5t-17 81.5q-2 11 -13 23t-25 22t-29.5 15.5t-27.5 3.5q-36 -5 -72 -4.5t-72 2.5 q-29 1 -46 -23q-10 -15 -4.5 -27.5t22.5 -14.5q9 -2 18 -1t18 1q11 0 21.5 1.5t21.5 -0.5q15 -3 28 -9t18 -25t0 -34t-20 -23q-36 -19 -43 -49t-3 -62q7 -60 12.5 -119t25.5 -116q5 -14 8 -29.5t7 -30.5q2 0 3.5 0.5t3.5 0.5q0 8 0.5 17t-0.5 17q-1 30 -2 59.5t-1 59.5 q0 38 27 46q20 5 38.5 -2.5t25.5 -25.5q5 -14 7 -29t3 -30q2 -43 3 -85.5t3 -84.5q1 -19 -7 -37t-21.5 -31.5t-31 -21.5t-35.5 -6q-22 2 -32.5 16t-15.5 31q-7 23 -12 45.5t-11 45.5q-10 38 -20 74.5t-20 74.5q-6 21 -11.5 42t-7.5 43q-2 38 -2 75.5t-1 75.5v49 q-17 8 -32.5 16t-30.5 16q-18 8 -25.5 21.5t-7.5 33.5z" />
<glyph unicode="&#xf715;" d="M-612 1558q0 10 1 21.5t5 24.5h-1q4 14 12.5 25.5t22.5 17.5q11 4 23 6.5t27 -2.5q14 -5 24 -22v1q7 -13 15 -35l3 10l-1 -1l4 13l4 10v1q17 19 32 22t32 -11q6 -5 10.5 -12.5t6.5 -14.5q13 -33 16 -74q2 -18 6.5 -37t11.5 -37q3 -8 7.5 -16t9.5 -13q2 -2 -1 -2 q8 5 13 14l6 8q8 11 16 25.5t15 25.5l9 14q14 20 30 42t27 42q5 10 14 24t17 25l13 19l-1 -1l10 19l2 3q2 5 3.5 7.5t3.5 4.5v-1q19 23 45 5h-1q9 -6 12.5 -15.5t-3.5 -20.5q-4 -5 -7.5 -10t-8.5 -10q-14 -8 -24.5 -22.5t-19.5 -28.5l-22 -33l-20 -32l1 1l-10 -14v1 q-9 -17 -18 -27q-7 -9 -14 -20.5t-12 -22.5q-6 -11 -12 -22.5t-14 -22.5l-5 -6l-7 -7q-9 -6 -11 -10q-12 -14 -30 -15t-32 12q-11 11 -17 24q-7 17 -13 35t-11 37q-2 11 -3.5 23t-3.5 24q-1 9 -2 18.5t-3 18.5q0 5 -4 13q-10 -29 -4 -67v1q2 -12 3 -24t3 -24l4 -21 q2 -16 5 -27q2 -10 -1.5 -17t-10.5 -10.5t-15.5 -4.5t-16.5 2q-12 5 -15 12t-4 15q-1 14 -2.5 27t-4.5 24q-3 10 -6.5 21.5t-5.5 20.5q-5 20 -10 36.5t-10 30.5q-2 6 -6 13.5t-9 15.5q-5 2 -6 1q-5 -3 -8 -6.5t-5 -10.5q-3 -18 -3 -34q0 -11 1 -23.5t3 -24.5l3 -18q7 9 26 9 q11 0 20.5 -8.5t10.5 -22.5q1 -11 1.5 -24t0.5 -23q0 -24 -3 -42q-3 -26 -25 -39q-18 -11 -35 -5.5t-25 24.5l1 -1q-4 8 -5 13.5t-1 10.5q-5 31 -10 64t-9 65q-2 12 -3 25t-1 27zM-556 1377l6 5v-1q0 -4 3 -6l11 -4q-2 0 -5 1t-5 1q-3 1 -4.5 2t-5.5 2zM-550 1382l3 2h-2 q-1 0 -1 1v-3zM-547 1384l8 7q0 -4 1 -9l-4 1q-4 0 -5 1z" />
<glyph unicode="&#xf718;" d="M-277 -552.5q6 15.5 21 28.5q23 20 46.5 37t57.5 16q7 0 14 2t15 3q8 2 17 3t17 1q34 -2 47.5 -18.5t10.5 -50.5q-4 -37 -6.5 -73.5t-3.5 -73.5q0 -22 4.5 -44t5.5 -45q1 -49 -50 -55q-30 -3 -43 23q-10 20 -9.5 40t5.5 40q8 32 7.5 54t-8.5 50q-26 -2 -49.5 -4t-46.5 -1 q-17 0 -30.5 6.5t-19.5 25.5q-8 20 -2 35.5z" />
<glyph unicode="&#xf719;" d="M-340.5 -565q0.5 10 6.5 20q22 34 49.5 63t64.5 47q20 11 43 11t45 -6q22 -5 27 -24t-11 -36q-8 -11 -11.5 -21t-4.5 -23q-2 -36 3.5 -71.5t10.5 -70.5q1 -6 3.5 -12.5t6.5 -16.5q11 20 12 36.5t-2 33.5q-3 11 -6.5 21.5t-5.5 21.5q-4 21 6 36t29 17q22 2 38.5 -12 t15.5 -35q0 -6 -1 -12t-3 -11q-5 -27 -10.5 -54t-11.5 -54q-2 -8 -2 -16t-2 -16q-7 -40 -44 -46q-17 -2 -32.5 6t-23.5 25q-17 47 -26 92q-5 23 -7.5 45.5t-5.5 45.5q-1 5 -2.5 9t-3.5 9q-20 -8 -38 -16t-37 -15q-8 -3 -15.5 -5t-15.5 -2q-12 0 -21 4.5t-13.5 13t-4 18.5z " />
<glyph unicode="&#xf71a;" d="M-182 -516q0 23 16.5 38t38.5 15q23 0 39 -15t16 -38q0 -25 -16 -40t-39 -15t-39 15t-16 40z" />
<glyph horiz-adv-x="1202" d="M26 589q-4 28 5.5 53.5t35 50t73.5 50.5q45 24 83.5 17t73.5 -31q19 -13 31.5 -36t24.5 -45q25 -46 41.5 -94t17.5 -102q1 -27 11.5 -54t18.5 -56q24 10 32 26.5t11 33.5q5 28 8 55.5t5 56.5q4 33 6.5 66.5t7.5 67.5q3 22 17.5 35t34.5 17q23 5 45 3t39 -22 q16 -18 26 -36q20 -39 45.5 -73t54.5 -65.5t60 -61t62 -59.5q12 -11 24 -23t25 -23q10 -8 21 -16t23 -16q8 20 13.5 46t8.5 57q-4 47 -12.5 87t-21.5 66q-30 0 -59.5 -1t-58.5 2q-33 4 -65.5 10.5t-60.5 29.5q-34 27 -47.5 61.5t-15.5 76.5q-4 95 55 173q60 77 135 14 q13 -11 25 -22.5t23 -24.5q29 -32 56.5 -65.5t56.5 -66.5q2 -3 6.5 -5t11.5 -6q36 28 61 63.5t43 77.5q3 8 5 16.5t5 16.5q13 38 39.5 51.5t60.5 -0.5q13 -5 23.5 -17t17 -27t7 -31.5t-5.5 -29.5q-6 -14 -16 -26.5t-22 -19.5q-53 -28 -89.5 -72.5t-71.5 -90.5 q-9 -12 -10.5 -32t1.5 -37q8 -41 12 -81.5t6 -82.5h-1l-4 -128l-4 -128q-2 -26 -19 -46t-42 -27q-49 -11 -80 29q-7 9 -13 18.5t-9 20.5q-20 58 -58.5 102.5t-79.5 86.5q-32 32 -65.5 61.5t-66.5 60.5q-4 3 -8.5 6.5t-12.5 9.5q-7 -11 -13.5 -19.5t-10.5 -18.5 q-25 -62 -42.5 -124t-9.5 -131q4 -29 -0.5 -58t-21.5 -56q-35 -54 -79 -59t-91 46q-58 63 -40 151q12 59 4.5 109t-34.5 104q-18 -4 -34.5 -7.5t-33.5 -7.5q-71 -16 -121.5 14.5t-73.5 99.5q-11 34 -15 62zM142 583q0 -12 5.5 -24t14 -21.5t19.5 -15.5t23 -6q24 -1 42 17 t17 43q0 14 -5.5 27t-14.5 23t-20.5 16t-23.5 6q-11 0 -21 -6t-18.5 -15.5t-13 -21t-4.5 -22.5zM781 753q0 -27 12 -46.5t32 -29.5t46 -9t56 13q-11 40 -36 69t-56 55q-12 10 -23.5 7t-18.5 -17q-5 -10 -8.5 -20.5t-3.5 -21.5zM8226 -3898.5q-4 28.5 6 54t35.5 49.5t72.5 50 q45 25 83.5 18t73.5 -31q20 -13 32.5 -36t23.5 -46q25 -46 41.5 -94t17.5 -102q1 -26 12 -53t19 -56q24 10 31.5 26.5t11.5 33.5q5 27 7.5 55t5.5 56q3 34 5.5 67.5t7.5 66.5q3 22 18 35t35 18q22 5 44 2.5t39 -21.5q8 -8 15 -17t12 -19q20 -39 45.5 -73.5t54.5 -66 t59.5 -61t61.5 -58.5q12 -12 24 -23.5t25 -22.5l22 -16l22 -16q8 19 14 45.5t9 57.5q-5 47 -13 87t-21 66q-31 0 -60 -1.5t-58 2.5q-33 4 -65.5 10t-61.5 29q-33 28 -47 62t-16 76q-3 97 56 173q60 78 135 15q13 -11 25 -22.5t23 -24.5q29 -33 56.5 -66.5t55.5 -66.5 q3 -3 7.5 -4.5t11.5 -5.5q36 27 60.5 63t42.5 78q4 8 6 16l4 16q14 38 40.5 52t60.5 0q13 -5 23.5 -17t16.5 -27t6.5 -31.5t-5.5 -30.5q-6 -13 -16 -26t-22 -20q-53 -28 -89.5 -72.5t-70.5 -89.5q-10 -12 -11.5 -32t2.5 -37q8 -42 11.5 -82.5t5.5 -81.5h-1q-2 -65 -4 -128.5 t-4 -128.5q-1 -26 -18 -46t-43 -26q-49 -12 -79 29q-7 8 -13 17.5t-10 20.5q-20 59 -58 103t-80 86q-32 32 -65 62l-66 60q-4 4 -9 7t-13 9q-7 -11 -13 -19.5t-10 -18.5q-26 -61 -43.5 -123.5t-8.5 -131.5q3 -29 -1 -58t-21 -56q-35 -54 -79.5 -59t-91.5 46q-58 64 -40 152 q12 58 4.5 108.5t-34.5 104.5q-18 -5 -34.5 -8.5t-32.5 -7.5q-71 -15 -122 15t-74 99q-11 34 -15 62.5zM8342 -3905q0 -12 5.5 -24t14 -21.5t19.5 -15.5t23 -6q25 -1 42.5 17t17.5 44q0 13 -6 26t-15 23t-20 16t-23 6q-11 0 -21.5 -6t-18.5 -15t-13 -20.5t-5 -23.5z M8982 -3735q0 -27 12 -46.5t31.5 -29t45.5 -9t56 13.5q-11 39 -36 68.5t-55 54.5q-12 10 -23.5 7t-19.5 -17q-5 -9 -8 -20t-3 -22z" />
<glyph horiz-adv-x="560" d="M-494.5 963q-3.5 15 0.5 30.5t16 30.5q28 32 63 44.5t76 13.5q17 4 32.5 -1.5t26 -17.5t13.5 -28.5t-5 -32.5q-6 -13 -16 -24.5t-19 -23.5q-15 -19 -36.5 -25.5t-43.5 -14.5q-17 -7 -32 -5.5t-31 7.5q-18 7 -29.5 19.5t-15 27.5zM39 786q-2 25 15.5 42t39.5 25 q48 17 97 22.5t100 -8.5q38 -11 60 -40q34 -45 65.5 -90t54.5 -96q7 -18 11.5 -28.5t6.5 -21t3 -24.5t1 -38q-3 -28 -7 -63.5t-8 -73.5q-2 -13 -2 -25.5v-26.5q0 -19 -0.5 -38t1.5 -39q2 -28 5 -55.5t6 -56.5q2 -18 3 -36.5t1 -36.5q0 -14 -4 -26t-17 -21q-12 -8 -25 -9 t-24 4.5t-18.5 17t-8.5 26.5q-1 14 2 28t4 28q2 45 3 89.5t3 89.5q2 37 3.5 73.5t6.5 73.5q4 34 1.5 66.5t-17.5 63.5q-19 41 -36.5 82t-43.5 78q-42 58 -89 62.5t-101 -26.5q-14 -8 -13 -23t14 -24q6 -4 12.5 -6.5t12.5 -7.5q35 -23 19 -57q-6 -15 -21.5 -23t-33.5 -4 q-19 4 -33.5 14t-20.5 27q-10 27 -18 55t-10 57z" />
<glyph d="M-653 1120q0 81 109 133q-31 24 -31 59q0 34 22 63.5t57 51t79 33.5t88 12q32 0 63.5 -4.5t63.5 -15.5l20 -9v-65q-26 9 -45 15.5t-35.5 10t-32 5.5t-34.5 2q-28 0 -60.5 -8t-60 -22t-46 -32t-18.5 -37q0 -24 76 -43l25 -8v-51h-33q-2 0 -8.5 1t-11.5 1q-22 0 -44 -10.5 t-39.5 -25t-28.5 -30.5t-11 -26q0 -32 28 -53t70 -21q85 0 119 61l8 17h65l-20 -45q-51 -94 -172 -94q-36 0 -65.5 10.5t-51 28.5t-33.5 42.5t-12 53.5z" />
</font>
</defs>
</svg>
