<?xml version="1.0" standalone="no"?>
<!DOCTYPE svg PUBLIC "-//W3C//DTD SVG 1.1//EN" "http://www.w3.org/Graphics/SVG/1.1/DTD/svg11.dtd" >
<svg xmlns="http://www.w3.org/2000/svg" xmlns:xlink="http://www.w3.org/1999/xlink" version="1.1">
<metadata></metadata>
<defs>
<font id="tangregular" horiz-adv-x="0" >
<font-face units-per-em="2048" ascent="1638" descent="-410" />
<missing-glyph horiz-adv-x="690" />
<glyph unicode="&#x3b;&#x3b;For&#x20;Education&#x20;Used&#x20;Only&#x3b;&#x3b;" horiz-adv-x="1296" d="M96 231v701q0 48 20.5 90.5t57.5 73.5t89 49t116 18h559q54 0 101.5 -18.5t83.5 -50.5t56.5 -74t20.5 -88v-701q0 -50 -20.5 -92t-57.5 -73t-89 -48.5t-116 -17.5h-538q-64 0 -116 17.5t-89 48.5t-57.5 73t-20.5 92zM160 231q0 -34 14.5 -64.5t42.5 -54t68.5 -37.5 t93.5 -14h538q52 0 93.5 14t70 37.5t43.5 54t15 64.5v701q0 34 -15.5 64.5t-42.5 54t-64 37.5t-79 14h-559q-53 0 -93.5 -14t-68.5 -37.5t-42.5 -54t-14.5 -64.5v-701zM338 430v270q0 43 16.5 81t45 66t67 44t82.5 16h385v-61h-385q-32 0 -59 -11.5t-47.5 -31.5t-32 -46.5 t-11.5 -56.5v-270q0 -29 12 -54.5t32.5 -45.5t47.5 -31.5t58 -11.5h389v-62h-389q-43 0 -81.5 16t-67 43.5t-45.5 65t-17 80.5z" />
<glyph unicode="&#x3b;&#x3b;Registered&#x3b;&#x3b;" horiz-adv-x="1296" d="M96 231v701q0 48 20.5 90.5t57.5 73.5t89 49t116 18h559q54 0 101.5 -18.5t83.5 -50.5t56.5 -74t20.5 -88v-701q0 -50 -20.5 -92t-57.5 -73t-89 -48.5t-116 -17.5h-538q-64 0 -116 17.5t-89 48.5t-57.5 73t-20.5 92zM160 231q0 -34 14.5 -64.5t42.5 -54t68.5 -37.5 t93.5 -14h538q52 0 93.5 14t70 37.5t43.5 54t15 64.5v701q0 34 -15.5 64.5t-42.5 54t-64 37.5t-79 14h-559q-53 0 -93.5 -14t-68.5 -37.5t-42.5 -54t-14.5 -64.5v-701zM326 227v697h473q30 0 59 -11t52.5 -31t38 -47t14.5 -59v-86q0 -31 -14 -58t-36.5 -46.5t-52.5 -31 t-61 -11.5h-13l271 -316h-76l-283 316h-241v63h342q21 0 39 7t31.5 19t21.5 27t8 31v86q0 16 -7.5 31t-21 26t-32 18t-39.5 7h-410v-631h-63z" />
<glyph unicode="&#x3b;&#x3b;Trademark&#x3b;&#x3b;" horiz-adv-x="1938" d="M66 1104v61h864v-61h-401v-520h-62v520h-401zM1008 584v583h64l370 -512l369 512h61v-583h-61v493l-371 -522l-368 522v-493h-64z" />
<glyph unicode="&#x3b;&#x3b;Multiply&#x3b;&#x3b;" horiz-adv-x="1069" d="M160 893h88l287 -283l288 283h86l-329 -326l307 -303h-88l-264 260l-263 -260h-88l308 303z" />
<glyph unicode="&#x3b;&#x3b;Divide&#x3b;&#x3b;" horiz-adv-x="1292" d="M215 545v61h862v-61h-862zM586 307q0 23 16.5 39t36.5 16q23 0 39 -16t16 -39t-15 -39t-40 -16q-20 0 -36.5 16t-16.5 39zM586 864q0 23 16.5 39.5t36.5 16.5q23 0 39 -16.5t16 -39.5q0 -20 -15 -36.5t-40 -16.5q-20 0 -36.5 16.5t-16.5 36.5z" />
<glyph unicode="&#x2018;&#x2018;" horiz-adv-x="655" d="M96 934q0 86 41 143.5t131 89.5q6 2 15 2q8 0 12 -3.5t4 -7.5q0 -15 -14 -23q-28 -15 -47.5 -27t-32.5 -24.5t-21.5 -26.5t-13.5 -33h18q18 0 34 -7t28.5 -19t20 -28.5t7.5 -35.5q0 -18 -7 -34.5t-19 -29t-28.5 -19.5t-35.5 -7q-39 0 -65.5 26.5t-26.5 63.5zM356 934 q0 86 41 143.5t131 89.5q6 2 15 2q16 0 16 -10v-4q0 -12 -14 -20q-28 -15 -47.5 -27t-32.5 -24.5t-21.5 -26.5t-13.5 -33h18q18 0 34.5 -7t29 -19t20 -28.5t7.5 -35.5q0 -18 -7.5 -34.5t-20 -29t-29 -19.5t-34.5 -7q-39 0 -65.5 26.5t-26.5 63.5z" />
<glyph unicode="&#x2019;&#x2019;" horiz-adv-x="655" d="M96 856q0 14 17 23q27 15 46 27t32 24t21 25.5t13 31.5h-16q-39 0 -65.5 26.5t-26.5 65.5q0 37 26.5 63.5t65.5 26.5q18 0 34 -7t28.5 -19.5t20 -29t7.5 -34.5q0 -88 -40 -144t-132 -89q-6 -2 -12 -2q-19 0 -19 12zM356 856q0 14 17 23q27 15 46 27t32 24t21 25.5 t13 31.5h-16q-39 0 -65.5 26.5t-26.5 65.5q0 37 26.5 63.5t65.5 26.5q18 0 34 -7t28.5 -19.5t20 -29t7.5 -34.5q0 -88 -40 -144t-132 -89q-6 -2 -12 -2q-19 0 -19 12z" />
<glyph unicode="&#xe24;&#xe32;" horiz-adv-x="1566" d="M27 658q18 25 39 45t44.5 36.5t48 31.5t48.5 31q11 8 22.5 12.5t23.5 8.5q34 9 65.5 23t63.5 31q42 23 86.5 36.5t90.5 21.5q20 3 35 -5.5t23 -25.5q10 -21 17.5 -43t12.5 -45q9 -42 16 -82.5t13 -82.5q5 -32 9 -62.5t5 -61.5q3 -117 4.5 -232.5t3.5 -232.5 q1 -61 0.5 -122.5t4.5 -122.5q3 -52 11.5 -103t15.5 -102q2 -15 3.5 -30t3.5 -30q-27 -7 -36 -1.5t-12 27.5q-15 114 -25 227t-8 228q2 131 -0.5 259.5t-4.5 259.5q0 37 -8 77l-18 102t-20 102q-3 14 -7.5 27.5t-9.5 27.5q-41 4 -78 -12q-59 -26 -118 -50.5t-119 -49.5 q-28 -11 -52.5 -27.5t-49.5 -32.5q0 -2 2 -8q8 2 15.5 3t15.5 3q31 8 56.5 -2.5t48.5 -26.5q15 -10 21.5 -26.5t7.5 -35.5q2 -35 -5.5 -68t-18.5 -65q-19 -54 -41 -105.5t-50 -101.5q-13 -23 -23.5 -47t-20.5 -49q-9 -19 -4 -46q9 8 17.5 16.5t17.5 16.5q11 9 23 12.5 t27 -4.5t21 -21t7 -28q1 -25 -12 -45.5t-33 -33.5t-44.5 -16t-46.5 8q-25 12 -36 32t-6 52q4 23 11 46.5t17 45.5q15 35 33 68t34 68q25 54 49 108t37 113q1 3 1.5 5.5t1.5 5.5q21 102 -80 77q-32 -8 -63.5 -18t-63.5 -21q-14 -5 -22.5 -6.5t-14.5 1.5t-11 11.5t-12 23.5z M873.5 633.5q3.5 17.5 9.5 34.5q16 51 45 92.5t67 78.5l48 48t50 46q78 63 178 45q8 -2 15 -3.5t15 -2.5q33 -5 51.5 -25.5t26.5 -50.5q9 -42 18 -83t14 -83q8 -74 11.5 -146.5t9.5 -146.5q1 -17 3.5 -57t6 -95.5t7 -122t7.5 -135t7.5 -134.5t7 -121.5t6 -96t4.5 -57.5 q1 -9 1.5 -19t1.5 -19q-29 -8 -37.5 -3t-10.5 31q-3 35 -7.5 111t-9.5 172.5t-11 203t-11 203t-9.5 172t-6.5 110.5q-5 69 -11.5 137.5t-23.5 136.5q-4 18 -11 35t-12 34q-7 21 -30 23q-26 1 -51.5 2t-51.5 -1q-10 -1 -20.5 -6t-18.5 -11q-51 -41 -97 -86t-86 -97 q-20 -26 -32 -56.5t-18 -62.5q-2 -7 -3.5 -14.5t-3.5 -16.5h-33q-8 19 -4.5 36.5z" />
<glyph unicode="&#xe26;&#xe32;" horiz-adv-x="1526" d="M-47 609q20 14 40 29.5t41 27.5q70 42 141.5 79.5t144.5 72.5q51 24 102 38.5t105 22.5t106 -1t103 -30q38 -16 59.5 -50t23.5 -87q2 -54 7 -108t4 -108q-1 -102 -5 -203t-7 -203q-2 -31 -3 -61.5t-2 -62.5q-3 -78 -5.5 -156.5t-4.5 -156.5q-1 -16 1.5 -31.5t4.5 -32.5 q1 -10 0 -21t-12 -12q-8 0 -17.5 5t-13.5 13q-12 28 -12 62q1 67 2.5 133.5t4.5 133.5q2 67 6 133.5t7 133.5q3 88 6.5 175.5t4.5 175.5q1 54 -3.5 108t-7.5 108q-2 37 -19 56.5t-44 27.5q-47 13 -93 17t-94 -5q-81 -17 -157.5 -48.5t-151.5 -70.5q-5 -3 -10 -6.5t-10 -7.5 q-2 -2 -4.5 -5t-10.5 -11q18 -1 31.5 -7.5t24.5 -17t20.5 -22.5t18.5 -24q15 -20 23.5 -48t16.5 -55q22 -73 14 -142.5t-34 -138.5q-17 -45 -35 -89t-35 -89q-3 -7 -9.5 -13.5t-14.5 -10.5t-16.5 -5.5t-14.5 0.5q-17 8 -25 26t-3 40q3 11 5.5 22t5.5 22q4 18 7.5 27t9 12.5 t14.5 1.5t26 -6q20 37 34.5 77.5t26.5 82.5q10 32 15 66t0 69q-6 50 -21.5 94t-48.5 77q-16 16 -34 16t-35 -4t-32.5 -11t-32.5 -14q-20 -9 -38.5 -19t-38.5 -18q-9 -4 -15.5 -5t-11.5 1.5t-10.5 10t-14.5 20.5zM926.5 612.5q3.5 17.5 9.5 34.5q16 51 45 92.5t67 78.5l48 48 t50 46q78 63 178 45q8 -2 15 -3.5t15 -2.5q33 -5 51.5 -25.5t26.5 -50.5q9 -42 18 -83t14 -83q8 -74 11.5 -146.5t9.5 -146.5q1 -17 3.5 -57t6 -95.5t7 -122t7.5 -135t7.5 -134.5t7 -121.5t6 -96t4.5 -57.5q1 -9 1.5 -19t1.5 -19q-29 -8 -37.5 -3t-10.5 31q-3 35 -7.5 111 t-9.5 172.5t-11 203t-11 203t-9.5 172t-6.5 110.5q-5 69 -11.5 137.5t-23.5 136.5q-4 18 -11 35t-12 34q-7 21 -30 23q-26 1 -51.5 2t-51.5 -1q-10 -1 -20.5 -6t-18.5 -11q-51 -41 -97 -86t-86 -97q-20 -26 -32 -56.5t-18 -62.5q-2 -7 -3.5 -14.5t-3.5 -16.5h-33 q-8 19 -4.5 36.5z" />
<glyph unicode="&#xd;" horiz-adv-x="579" />
<glyph unicode=" "  horiz-adv-x="690" />
<glyph unicode="&#x09;" horiz-adv-x="690" />
<glyph unicode="&#xa0;" horiz-adv-x="690" />
<glyph unicode="!" horiz-adv-x="326" d="M94 1094q0 14 6 27.5t15.5 23.5t20.5 16t22 6q20 0 49 -22q24 -23 24 -51l-53 -883h-31zM109 49q0 23 16 39t39 16q20 0 36.5 -16t16.5 -39q0 -20 -15 -36.5t-38 -16.5t-39 16.5t-16 36.5z" />
<glyph unicode="&#x22;" horiz-adv-x="575" d="M94 1108q0 19 17.5 35t40.5 16q20 0 37.5 -13.5t17.5 -33.5v-4l-49 -289h-13zM370 1116q0 18 16 30.5t38 12.5q20 0 38.5 -15.5t18.5 -35.5l-51 -289h-8l-51 289q-1 3 -1 8z" />
<glyph unicode="#" horiz-adv-x="1030" d="M33 422v61h254l53 197h-205v61h221l115 422h66l-115 -422h274l115 422h63l-114 -422h237v-61h-254l-53 -197h205v-61h-221l-117 -422h-61l112 422h-274l-115 -422h-63l114 422h-237zM350 483h277l53 197h-277z" />
<glyph unicode="$" horiz-adv-x="1253" d="M94 0v63h801q43 0 80 13.5t64 36.5t42 53.5t15 64.5v152q0 34 -15 64.5t-42 53.5t-64 36.5t-80 13.5h-539q-55 0 -103 18.5t-83 50t-55.5 73.5t-20.5 89v150q0 46 20.5 88t56 74t83.5 50.5t102 18.5h240v201h61v-201h271v-61h-572q-42 0 -78 -14t-63 -37.5t-42 -54 t-15 -64.5v-150q0 -36 16.5 -67t44 -54t63.5 -36t74 -13h539q53 0 100.5 -18t83.5 -49t57 -72.5t21 -89.5v-152q0 -47 -21 -88.5t-57 -73.5t-83.5 -50.5t-100.5 -18.5h-238v-199h-61v199h-502z" />
<glyph unicode="%" horiz-adv-x="930" d="M2 0l848 1163h76l-846 -1163h-78zM35 963q0 40 15.5 76.5t42.5 64t64 43.5t79 16q40 0 76.5 -16t64 -43.5t43.5 -64t16 -76.5q0 -42 -16 -79t-43.5 -64t-64 -42.5t-76.5 -15.5q-42 0 -79 15.5t-64 42.5t-42.5 64t-15.5 79zM96 963q0 -30 10.5 -55.5t29.5 -44.5 t44.5 -29.5t55.5 -10.5q28 0 53.5 10.5t44.5 29.5t30 44.5t11 55.5q0 28 -11 53.5t-30 44.5t-44.5 30t-53.5 11q-30 0 -55.5 -11t-44.5 -30t-29.5 -44.5t-10.5 -53.5zM494 201q0 42 16 78.5t43.5 63.5t63.5 42.5t77 15.5q42 0 79 -15.5t64 -42.5t42.5 -63.5t15.5 -78.5 q0 -41 -15.5 -77.5t-42.5 -64t-64 -43.5t-79 -16q-41 0 -77 16t-63.5 43.5t-43.5 64t-16 77.5zM555 201q0 -29 11 -54t30 -44.5t44 -30.5t54 -11q28 0 53.5 11t45 30.5t30.5 44.5t11 54q0 28 -11 53.5t-30.5 44.5t-45 30t-53.5 11q-29 0 -54 -11t-44 -30t-30 -44.5 t-11 -53.5z" />
<glyph unicode="&#x26;" horiz-adv-x="1155" d="M94 307q0 182 176 320q29 23 79 58t122 83q-88 124 -88 197q0 36 13 69.5t35.5 60t54 42.5t69.5 16q36 0 66 -14t52 -38t34 -55t12 -65q0 -123 -160 -229l315 -445l138 99l37 -56l-138 -94l183 -256h-74l-160 221l-231 -168q-87 -63 -203 -63q-76 0 -137 28t-104.5 73 t-67 102t-23.5 114zM158 307q0 -52 19 -98t53.5 -80t82 -54t103.5 -20q43 0 86.5 12t91.5 35l12 11l219 157l-317 447q-35 -23 -85 -57t-116 -82q-149 -119 -149 -271zM444 965q0 -26 19.5 -68t58.5 -96q133 88 133 180q0 22 -7.5 42t-21 35.5t-32 24.5t-39.5 9 q-22 0 -42 -10.5t-35.5 -28t-24.5 -40.5t-9 -48z" />
<glyph unicode="'" horiz-adv-x="301" d="M94 1108q0 20 16.5 35.5t39.5 15.5t40 -15.5t17 -35.5l-53 -289h-11z" />
<glyph unicode="(" horiz-adv-x="387" d="M94 -102v1101q0 46 21 88.5t56.5 74t83 50.5t101.5 19h31v-64h-31q-42 0 -78 -13.5t-63 -36.5t-42 -53.5t-15 -64.5v-1101q0 -34 15 -64.5t42 -53.5t63 -36.5t78 -13.5h31v-64h-31q-54 0 -101.5 18.5t-83 50.5t-56.5 74t-21 89z" />
<glyph unicode=")" horiz-adv-x="387" d="M0 -270h31q42 0 78 13.5t63 36.5t42 53.5t15 64.5v1101q0 34 -15 64.5t-42 53.5t-63 36.5t-78 13.5h-31v64h31q54 0 101.5 -19t83 -50.5t56.5 -74t21 -88.5v-1101q0 -47 -21 -89t-56.5 -74t-83 -50.5t-101.5 -18.5h-31v64z" />
<glyph unicode="*" horiz-adv-x="784" d="M129 934l21 57l210 -76v236h64v-236l213 66l18 -57l-213 -68l136 -182l-50 -35l-137 180l-135 -180l-49 35l135 182z" />
<glyph unicode="+" horiz-adv-x="1053" d="M94 442v62h402v399h61v-399h399v-62h-399v-399h-61v399h-402z" />
<glyph unicode="," horiz-adv-x="299" d="M43 -258l107 401h63l-107 -401h-63z" />
<glyph unicode="-" horiz-adv-x="1053" d="M94 463v61h862v-61h-862z" />
<glyph unicode="." horiz-adv-x="299" d="M94 49q0 23 17 39t39 16q23 0 39 -16t16 -39q0 -20 -16 -36.5t-39 -16.5q-22 0 -39 16.5t-17 36.5z" />
<glyph unicode="/" horiz-adv-x="770" d="M-18 -100l770 1364h71l-774 -1364h-67z" />
<glyph unicode="0" horiz-adv-x="984" d="M65 447q0 72 16.5 129.5t55.5 103.5q32 38 63.5 78.5t66.5 76.5q59 63 127.5 100.5t149.5 42.5q8 1 15.5 4.5t15.5 7.5q52 23 102 21t98 -36q25 -17 49.5 -34t47.5 -36q54 -45 74 -106.5t6 -136.5q-20 -103 -60.5 -193t-97.5 -171q-68 -96 -154 -133.5t-184 -32.5 q-46 2 -90.5 10.5t-87 26.5t-81.5 46.5t-73 70.5q-30 37 -47 76.5t-12 84.5zM121 444q4 -41 22.5 -80.5t55.5 -71.5q48 -43 101.5 -62t110.5 -25q42 -4 82 -2t78.5 13.5t74 35t67.5 62.5q66 81 108.5 175t65.5 202q8 34 4 67t-25 62q-35 49 -79.5 75t-93.5 44q-10 3 -21 1.5 t-25 -1.5q6 -18 10 -31.5t10 -31.5q-24 8 -44.5 13t-37.5 15q-35 20 -69 16.5t-68 -20.5q-95 -47 -165.5 -126t-127.5 -177q-20 -33 -29 -72.5t-5 -80.5z" />
<glyph unicode="1" horiz-adv-x="529" d="M76 700q-7 10 0 16l14 12q63 51 122 104.5t108 119.5q9 12 20 23.5t24 19.5q30 21 42 -16q4 -12 4 -31q-1 -38 -2.5 -74.5t-2.5 -74.5q0 -30 1 -59.5t2 -58.5q3 -106 6 -211t6 -211q1 -22 4.5 -43t5.5 -43q1 -4 3 -8t0 -7q-3 -7 -6.5 -14t-8.5 -10q-4 -2 -12.5 1t-10.5 8 q-8 17 -16 35.5t-9 36.5q-4 79 -6 157.5t-4 156.5q-2 81 -2 160t-1 159v46q-45 -43 -84.5 -81.5t-80.5 -75.5q-14 -14 -30 -25l-32 -22q-6 -4 -13 -6.5t-13 -0.5q-8 2 -16 6t-12 11z" />
<glyph unicode="2" horiz-adv-x="714" d="M49.5 202.5q1.5 13.5 16.5 24.5q2 1 4.5 2t4.5 2q41 13 74 35.5t61.5 50.5t54 59.5t49.5 63.5q34 44 65.5 89t60.5 93q42 69 81.5 139t79.5 140q6 11 10 23.5t11 31.5q-29 -5 -53 -6.5t-46 -7.5q-53 -14 -90 -33.5t-62.5 -49t-42 -69.5t-26.5 -94q-4 -23 -1.5 -47 t21.5 -45q4 -4 2 -15.5t-7 -15.5q-5 -5 -15.5 -6t-16.5 2q-8 4 -13 12.5t-9 16.5q-17 34 -18.5 69.5t7.5 70.5t23.5 67.5t31.5 64.5q18 37 49.5 61t66.5 41q39 17 79.5 30t85.5 11q18 -1 36.5 -4t34.5 -10q23 -10 29 -23.5t-2 -36.5q-8 -26 -17 -50.5t-22 -47.5 q-25 -44 -51.5 -85.5t-52.5 -84.5q-45 -75 -91.5 -147t-101.5 -140q-26 -33 -54 -65l-56 -64q1 -2 2 -4.5t2 -5.5q33 7 65.5 14t65.5 11q42 5 83 6t83 3q7 0 15 -4t13 -9q6 -8 11 -18t3 -18q-2 -13 -12.5 -14.5t-21.5 0.5q-53 8 -104 2t-102 -17l-70 -16t-70 -14 q-25 -4 -50.5 -5t-50.5 -1q-21 0 -39 13q-15 11 -13.5 24.5z" />
<glyph unicode="3" horiz-adv-x="588" d="M-24 254q7 14 17 18.5t25 3.5q39 -1 78.5 -1.5t77.5 2.5q45 5 87.5 18t80.5 39q39 27 67 63.5t46 80.5q9 23 2.5 43.5t-23.5 37.5q-27 28 -60.5 39.5t-71.5 14.5q-14 1 -27.5 0.5t-27.5 -1.5q-27 -2 -45 19q-2 2 -1.5 6.5t0.5 8.5q9 7 17.5 13t16.5 12q7 5 14.5 9t13.5 9 q53 53 87 114.5t54 132.5q3 9 3 19t1 21q-8 -2 -13.5 -2t-9.5 -2q-71 -38 -122.5 -93.5t-79.5 -131.5q-11 -28 -7 -53.5t26 -47.5q-5 0 -7 -1q-30 -11 -48 0.5t-20 43.5t3 64t22 60q34 54 75 101t97 79q15 9 30.5 16.5t32.5 11.5q34 9 52.5 -5.5t20.5 -49.5q3 -50 -18 -96 q-23 -51 -50 -99.5t-63 -91.5q-2 -2 -3.5 -6t-4.5 -9q15 -5 28.5 -10t27.5 -10q32 -12 59 -30t48 -44q24 -30 29.5 -63.5t-16.5 -71.5q-30 -51 -67 -93t-88 -72q-60 -34 -128 -39q-45 -4 -89.5 -6t-89.5 -2q-17 0 -32.5 7t-26.5 24z" />
<glyph unicode="4" horiz-adv-x="512" d="M59 380q-8 14 0 33q8 20 17 39t20 36q35 57 71 112.5t73 110.5q35 52 63 106.5t54 111.5q5 11 11.5 20.5t14.5 19.5q6 8 14 13t20 0q20 -8 20 -31q0 -15 0.5 -29.5t0.5 -29.5v-51h-3q5 -73 8.5 -145.5t10.5 -145.5q6 -76 14.5 -152t16.5 -152q1 -7 -1.5 -15t-6.5 -10 q-5 -2 -14 -1t-13 5q-13 14 -16 34q-5 35 -8.5 70.5t-7.5 70.5q-1 12 -2.5 19t-5.5 10t-11.5 4t-19.5 1q-54 -2 -105.5 -13.5t-102.5 -32.5q-13 -5 -25.5 -10t-25.5 -10q-8 -2 -16 -3.5t-16 -0.5q-21 2 -29 16zM130 434q40 8 72.5 21.5t65.5 21.5q34 8 69 9.5t74 5.5 q-7 89 -13 175.5t-13 174.5q-26 -54 -58.5 -103.5t-66 -99t-67.5 -100t-63 -105.5z" />
<glyph unicode="5" horiz-adv-x="564" d="M-46 225q10 13 17.5 28t16.5 29.5t20.5 26.5t28.5 21q10 -9 11.5 -19t0 -20t-3.5 -21t1 -22q58 -11 115 6q59 18 116 40t114 43q34 12 58.5 37t39.5 55.5t21 62.5t4 59q-5 67 -71 45q-41 -13 -67.5 -41.5t-51.5 -60.5q-10 -12 -17.5 -25t-15.5 -26q-38 4 -50.5 15.5 t-12.5 43.5q-2 78 -2 156.5t-1 156.5q0 24 1 47.5t-13 47.5q-6 11 -0.5 29.5t11.5 32.5q5 11 17 15t26 -5q11 -8 21.5 -9t24.5 2q51 12 101.5 23.5t102.5 20.5q20 4 38 9.5t29 25.5q2 5 7.5 8t11.5 8q17 -11 32.5 -21.5t30.5 -21.5q5 -5 10 -13t3 -13q-2 -7 -9 -14t-15 -9 q-14 -4 -30 -5t-31 -3q-137 -18 -264 -61q-20 -7 -28.5 -19t-8.5 -33q2 -47 2.5 -93.5t1.5 -93.5q1 -20 0.5 -40.5t-0.5 -47.5q17 11 28.5 19t21.5 16q20 17 41.5 26t46.5 14q27 6 53.5 -2t47.5 -25t33.5 -41.5t12.5 -52.5q-1 -44 -12.5 -84.5t-34.5 -76.5 q-13 -20 -31.5 -37t-38.5 -29q-34 -20 -69.5 -35.5t-70.5 -32.5q-12 -5 -24.5 -9.5t-25.5 -9.5q-64 -23 -129 -32t-134 -4q-20 2 -34 10.5t-24 28.5z" />
<glyph unicode="6" horiz-adv-x="524" d="M75 265q11 17 23 23t31 -2q24 -11 46.5 -12.5t44 3t42.5 14t42 20.5q23 13 42 30.5t30 43.5q11 28 1 47.5t-25 37.5q-14 18 -34.5 21.5t-42.5 -8.5t-40.5 -28t-24.5 -43q-4 -14 -7.5 -28t-8.5 -28q-5 -13 -12 -24.5t-12 -23.5q-39 10 -52.5 32t-14.5 55 q-4 158 -8.5 313.5t-9.5 313.5q-1 17 2 31t23 19q14 3 31 -8.5t22 -27.5q3 -10 4 -20.5t1 -20.5q2 -82 2.5 -163.5t2.5 -163.5q1 -34 4.5 -68.5t6.5 -74.5q12 8 19.5 13.5t15.5 10.5q42 23 82.5 18t78.5 -36q6 -5 12.5 -9.5t11.5 -10.5q41 -41 54 -79t3 -72t-39 -63.5 t-72 -52.5q-28 -15 -59 -22t-62 -15q-48 -11 -87 4t-67 54z" />
<glyph unicode="7" horiz-adv-x="841" d="M-16 927q32 15 66.5 22.5t69.5 11.5q32 3 64 2t64 1q38 2 75.5 4t74.5 8q65 11 129.5 19.5t126.5 33.5q21 8 45.5 8h47.5q35 0 52.5 -25t5.5 -59q-14 -42 -29 -82.5t-35 -79.5q-32 -64 -58 -129.5t-49.5 -132t-45.5 -133.5t-45 -134q-2 -8 -4 -14.5t-4 -14.5 q-5 -20 -18 -25.5t-31 -2.5q-20 4 -29.5 17.5t-5.5 33.5q1 8 4 17t6 17q46 142 94.5 281t114.5 274q8 16 13.5 32t11.5 33q2 5 3 11.5t3 15.5q-11 1 -21 2t-20 -1q-51 -8 -101 -15t-100 -20q-54 -14 -107 -16.5t-107 -0.5h-103q-1 -5 -2 -9t-2 -9q18 -14 35.5 -28t37.5 -27 q34 -22 68.5 -42.5t68.5 -43.5q12 -8 21.5 -19t17.5 -23q5 -8 5.5 -18.5t-3.5 -18.5q-6 -12 -17.5 -13.5t-22.5 6.5q-45 28 -89 55.5t-88 57.5q-37 26 -72 54t-72 54q-15 12 -28.5 25.5t-15.5 39.5z" />
<glyph unicode="8" horiz-adv-x="616" d="M76.5 653.5q-1.5 39.5 0.5 79t9 78.5t22 77q13 34 37.5 64.5t56 53t67.5 35.5t72 13q12 15 20 22.5t16 8.5t18 -4t28 -16q34 -21 57.5 -50t35 -63t11 -71.5t-14.5 -75.5q-20 -54 -48 -101.5t-70 -86.5q-28 -26 -52.5 -54.5t-49.5 -57.5q-7 -8 -12.5 -16t-12.5 -18 q20 -12 38 -23t35 -22q19 -12 34 -30q26 -32 23.5 -58t-32.5 -55q-27 -26 -58.5 -41t-68.5 -19q-60 -8 -106 34q-24 21 -29 54.5t11 63.5q11 20 22 38.5t25 41.5q-10 9 -18.5 17t-16.5 16q-18 18 -32 39t-15 47q-1 40 -2.5 79.5zM138 696q0 -26 1.5 -52.5t0.5 -53.5 q-3 -60 58 -80q11 10 22 20.5t22 22.5q25 26 49 52t47 54q23 26 44.5 53t38.5 56q19 33 32.5 68.5t11.5 75.5q-3 61 -56 91q-6 -7 -6.5 -15.5t-0.5 -16t-2.5 -14t-12.5 -9.5q-12 -4 -20 -0.5t-14 10t-11 14t-12 12.5q-73 -17 -117 -65.5t-63 -117.5q-8 -26 -10 -52.5 t-2 -52.5zM171 304q5 -9 24 -14q18 -6 37.5 -2.5t37.5 14t32.5 26.5t21.5 37q-23 13 -45.5 25.5t-46.5 26.5q-9 -8 -19 -19.5t-18.5 -23.5t-15 -24t-8.5 -20q-5 -17 0 -26z" />
<glyph unicode="9" horiz-adv-x="771" d="M36.5 617q-1.5 47 24.5 93q30 54 71 97.5t95 72.5q47 26 96 46.5t99 40.5q12 5 27.5 4.5t29.5 -4.5q17 -5 21 -19t1 -31q-2 -13 -8 -22.5t-21 -10.5q-27 -2 -51.5 -10t-47.5 -18.5t-46 -22.5t-47 -22q-51 -23 -87.5 -60.5t-65.5 -82.5q-28 -43 -14 -78t63 -48 q32 -9 64 -8t64 17q34 18 69 35t68.5 36.5t65 42.5t58.5 52q20 20 37 43l34 46q5 7 8 14.5t8 14.5q8 12 18 19.5t27 2.5q31 -9 30 -39q-2 -52 -3 -104t-6 -104q-10 -96 -15 -190.5t-1 -191.5q0 -9 1 -18.5t0 -19.5q-1 -13 -6 -23t-21 -12q-15 -2 -26 5t-14 23l-6 38t-2 38 q5 91 10.5 180t10.5 180q1 11 1 22.5v28.5q-14 -11 -25 -18t-20 -15q-57 -52 -121 -93.5t-136 -69.5q-32 -12 -65.5 -19.5t-66.5 -8.5q-52 -1 -92.5 23t-63 62.5t-24 85.5z" />
<glyph unicode=":" horiz-adv-x="299" d="M94 49q0 23 17 39t39 16q23 0 39 -16t16 -39q0 -20 -16 -36.5t-39 -16.5q-22 0 -39 16.5t-17 36.5zM94 709q0 23 17 39t39 16q23 0 39 -16t16 -39t-16 -39.5t-39 -16.5q-22 0 -39 16.5t-17 39.5z" />
<glyph unicode=";" horiz-adv-x="299" d="M43 -258l107 401h63l-107 -401h-63zM94 709q0 23 17 39t39 16q23 0 39 -16t16 -39t-16 -39.5t-39 -16.5q-22 0 -39 16.5t-17 39.5z" />
<glyph unicode="&#x3c;" horiz-adv-x="866" d="M33 432q0 16 18 27l688 405h119l-731 -432l739 -432h-127l-688 406q-9 5 -14 11t-4 15z" />
<glyph unicode="=" horiz-adv-x="1053" d="M94 305v62h862v-62h-862zM94 506v61h862v-61h-862z" />
<glyph unicode="&#x3e;" horiz-adv-x="866" d="M0 0l737 432l-731 432h121l688 -405q19 -12 19 -27q0 -17 -19 -26l-688 -406h-127z" />
<glyph unicode="?" horiz-adv-x="872" d="M94 1100v61h471q43 0 81.5 -16t67 -43.5t45.5 -65t17 -80.5v-208q0 -47 -18 -85t-49 -65t-72.5 -42t-89.5 -15q-38 0 -69 -10t-53.5 -29t-35 -45.5t-12.5 -59.5v-211h-62v211q0 45 16.5 82.5t46.5 64.5t73 42.5t96 15.5q36 0 66.5 10.5t53 29.5t35.5 46t13 60v208 q0 30 -12 56t-32.5 45.5t-47.5 31t-58 11.5h-471zM291 49q0 23 16 39t39 16q20 0 37.5 -16t17.5 -39q0 -20 -16 -36.5t-39 -16.5t-39 16.5t-16 36.5z" />
<glyph unicode="@" horiz-adv-x="1317" d="M94 359q0 132 46 244t125.5 194t185.5 128t227 46q96 0 182.5 -30t157 -84.5t121 -130.5t73.5 -167q5 -18 8 -37.5t3 -42.5q0 -79 -23.5 -156.5t-64 -139.5t-94 -100.5t-113.5 -38.5q-100 0 -109 93q-84 -90 -194 -90h-101q-174 0 -174 166q17 85 36 159t42 140 q10 41 36.5 77t62 63t76.5 43t81 16h100q54 0 89 -15.5t55 -44.5l16 60h62l-127 -471q-6 -22 -7.5 -39t-1.5 -31q0 -64 58 -64q44 0 86 33.5t74.5 86.5t52.5 118t20 129q0 51 -14 99t-38.5 90.5t-57.5 79.5t-70 65q-127 100 -303 100q-114 0 -209 -42.5t-164 -116.5 t-107 -173t-38 -213q0 -110 38 -205.5t108.5 -166t172 -110.5t228.5 -40q329 0 448 230l10 16h68l-23 -45q-33 -62 -83 -110.5t-113 -82.5t-138 -51.5t-159 -17.5q-135 0 -249 43t-197.5 120t-130 183.5t-46.5 233.5zM416 211q0 -100 108 -100h101q75 0 122 33t70 106 l72 262q2 9 3 18.5t1 18.5q0 98 -109 98h-100q-95 0 -152 -74q-22 -29 -45.5 -95t-52.5 -169z" />
<glyph unicode="A" horiz-adv-x="1128" d="M16 0l521 1145q5 11 11 16.5t17 5.5q19 0 29 -22l518 -1145h-65l-185 399h-596l-180 -399h-70zM295 463h541l-271 594z" />
<glyph unicode="B" horiz-adv-x="1253" d="M94 0v1163h703q53 0 100.5 -18.5t83 -50.5t56 -74t20.5 -88q0 -107 -92 -178q40 -10 75.5 -31t61 -50.5t40.5 -66t15 -76.5v-299q0 -48 -21 -90t-57 -73.5t-83.5 -49.5t-100.5 -18h-801zM158 61h737q43 0 80 14t64 37.5t42 54t15 64.5v299q0 34 -15 65t-42 54t-64 37 t-80 14h-737v-639zM158 762h639q42 1 78 15t63 37t42 53.5t15 64.5t-15 64.5t-42 54t-63 37.5t-78 14h-639v-340z" />
<glyph unicode="C" horiz-adv-x="1192" d="M94 231v701q0 46 20.5 88t56 74t83.5 50.5t102 18.5h572v-61h-572q-42 0 -78 -14t-63 -37.5t-42 -54t-15 -64.5v-701q0 -34 15 -64.5t42 -54t63 -37.5t78 -14h801v-61h-801q-54 0 -101.5 18t-83 49.5t-56.5 73.5t-21 90z" />
<glyph unicode="D" horiz-adv-x="1253" d="M94 0v1161h801q53 0 100.5 -18t83.5 -49t57 -72.5t21 -89.5v-701q0 -48 -21 -90t-57 -73.5t-83.5 -49.5t-100.5 -18h-801zM158 61h737q43 0 80 14t64 37.5t42 54t15 64.5v701q0 34 -15 64.5t-42 53.5t-64 36.5t-80 13.5h-737v-1039z" />
<glyph unicode="E" horiz-adv-x="1014" d="M94 0v1163h834v-61h-770v-340h770v-62h-770v-639h823v-61h-887z" />
<glyph unicode="F" horiz-adv-x="1010" d="M94 0v1163h883v-61h-819v-340h729v-62h-729v-700h-64z" />
<glyph unicode="G" horiz-adv-x="1253" d="M94 231v701q0 48 21 89.5t57 72.5t83.5 49t100.5 18h572v-61h-572q-42 0 -78 -13.5t-63 -36.5t-42 -53.5t-15 -64.5v-701q0 -34 15 -64.5t42 -54t63 -37.5t78 -14h539q43 0 80 14t64 37.5t42 54t15 64.5v320h-500v61h561v-381q0 -48 -21 -90t-57 -73.5t-83.5 -49.5 t-100.5 -18h-539q-54 0 -101.5 18t-83 49.5t-56.5 73.5t-21 90z" />
<glyph unicode="H" horiz-adv-x="1253" d="M94 0v1163h64v-401h938v401h61v-1163h-61v700h-938v-700h-64z" />
<glyph unicode="I" horiz-adv-x="252" d="M94 0v1163h64v-1163h-64z" />
<glyph unicode="J" horiz-adv-x="1192" d="M33 231v31h61v-31q0 -34 15.5 -64.5t42.5 -54t64 -37.5t79 -14h539q42 0 78.5 14t63.5 37.5t42.5 54t15.5 64.5v932h62v-932q0 -48 -21 -90t-57 -73.5t-83.5 -49.5t-100.5 -18h-539q-53 0 -100.5 18t-83.5 49t-57 73t-21 91z" />
<glyph unicode="K" horiz-adv-x="1206" d="M94 0v1163h64v-524l862 524h119l-865 -526l959 -637h-115l-901 600l-59 -35v-565h-64z" />
<glyph unicode="L" horiz-adv-x="1192" d="M94 231v932h64v-932q0 -34 15 -64.5t42 -54t63 -37.5t78 -14h801v-61h-801q-54 0 -101.5 18t-83 49.5t-56.5 73.5t-21 90z" />
<glyph unicode="M" horiz-adv-x="1253" d="M94 -2v1132q0 35 31 35q19 0 29 -22l473 -1039l471 1039q13 22 30 22q29 0 29 -35v-1132h-61v987l-443 -969q-10 -22 -26 -22q-19 0 -29 22l-440 969v-987h-64z" />
<glyph unicode="N" horiz-adv-x="1253" d="M94 0v1137q0 34 29 34q5 -1 12 -4.5t15 -11.5l946 -1040v1052h61v-1132q0 -35 -27 -35q-15 0 -26 14l-946 1041v-1055h-64z" />
<glyph unicode="O" horiz-adv-x="1253" d="M94 231v701q0 46 20.5 88t56 74t83.5 50.5t102 18.5h539q54 0 101.5 -18.5t83.5 -50.5t56.5 -74t20.5 -88v-701q0 -48 -21 -90t-57 -73.5t-83.5 -49.5t-100.5 -18h-539q-54 0 -101.5 18t-83 49.5t-56.5 73.5t-21 90zM158 231q0 -34 15 -64.5t42 -54t63 -37.5t78 -14h539 q43 0 80 14t64 37.5t42 54t15 64.5v701q0 34 -15 64.5t-42 54t-64 37.5t-80 14h-539q-42 0 -78 -14t-63 -37.5t-42 -54t-15 -64.5v-701z" />
<glyph unicode="P" horiz-adv-x="1253" d="M94 0v1133q0 30 33 30h768q54 0 101.5 -18.5t83.5 -50.5t56.5 -74t20.5 -88v-150q0 -47 -20.5 -89t-55.5 -73.5t-83 -50t-103 -18.5h-569v61h569q43 0 80 14t64 37.5t42 54t15 64.5v150q0 34 -15 64.5t-42 54t-64 37.5t-80 14h-737v-1102h-64z" />
<glyph unicode="Q" horiz-adv-x="1253" d="M94 231v701q0 48 21 90.5t57 73.5t83.5 49t100.5 18h539q53 0 100.5 -18t83.5 -49t57 -73.5t21 -90.5v-701q0 -76 -49 -137l94 -94h-88l-53 53q-71 -53 -166 -53h-539q-53 0 -100.5 18.5t-83.5 50.5t-57 73.5t-21 88.5zM158 231q0 -34 15 -64.5t42 -53.5t63 -36.5 t78 -13.5h539q68 0 121 33l-162 166h84l125 -123q33 43 33 92v701q0 34 -15 65t-42 54.5t-64 37t-80 13.5h-539q-42 0 -78 -13.5t-63 -37t-42 -54.5t-15 -65v-701z" />
<glyph unicode="R" horiz-adv-x="1253" d="M94 0v1133q0 30 33 30h768q53 0 100.5 -18t83.5 -49t57 -73.5t21 -90.5v-150q0 -47 -20.5 -89t-55.5 -73.5t-83 -50t-103 -18.5h-98l467 -551h-86l-463 551h-389v61h569q43 0 80 14t64 37.5t42 54t15 64.5v150q0 34 -15 65t-42 54.5t-64 37t-80 13.5h-737v-1102h-64z" />
<glyph unicode="S" horiz-adv-x="1253" d="M94 0v61h801q43 0 80 14t64 37.5t42 54t15 64.5v150q0 34 -15 64.5t-42 54t-64 37.5t-80 14h-539q-55 0 -103 18.5t-83 50t-55.5 73.5t-20.5 89v150q0 46 20.5 88t56 74t83.5 50.5t102 18.5h572v-61h-572q-42 0 -78 -14t-63 -37.5t-42 -54t-15 -64.5v-150q0 -34 15 -64.5 t42 -54t63 -37.5t78 -14h539q54 0 101.5 -18.5t83.5 -50.5t56.5 -74t20.5 -88v-150q0 -48 -21 -90t-57 -73.5t-83.5 -49.5t-100.5 -18h-801z" />
<glyph unicode="T" horiz-adv-x="1128" d="M33 1102v61h1063v-61h-500v-1102h-64v1102h-499z" />
<glyph unicode="U" horiz-adv-x="1253" d="M94 231v932h64v-932q0 -34 15 -64.5t42 -54t63 -37.5t78 -14h539q43 0 80 14t64 37.5t42 54t15 64.5v932h61v-932q0 -48 -21 -90t-57 -73.5t-83.5 -49.5t-100.5 -18h-539q-54 0 -101.5 18t-83 49.5t-56.5 73.5t-21 90z" />
<glyph unicode="V" horiz-adv-x="1126" d="M16 1163h70l479 -1052l479 1052h66l-516 -1140q-11 -23 -29 -23q-11 0 -17 6t-11 17z" />
<glyph unicode="W" horiz-adv-x="1718" d="M16 1163h66l379 -1036l370 1020q9 27 29 27q18 0 29 -27l371 -1020l376 1036h68l-416 -1138q-9 -25 -28 -25q-20 0 -29 25l-371 1022l-371 -1022q-9 -25 -28 -25q-22 0 -31 25z" />
<glyph unicode="X" horiz-adv-x="954" d="M16 0l424 614l-383 549h80l340 -495l342 495h76l-379 -549l422 -614h-74l-387 559l-387 -559h-74z" />
<glyph unicode="Y" horiz-adv-x="1165" d="M16 1163h80l488 -542l485 542h80l-535 -604v-559h-61v559z" />
<glyph unicode="Z" horiz-adv-x="1137" d="M33 27q0 12 12 24l952 1051h-759v61h829q37 0 37 -26q0 -15 -12 -27l-955 -1049h963v-61h-1032q-35 0 -35 27z" />
<glyph unicode="[" horiz-adv-x="387" d="M94 -340v1563h293v-62h-229v-1440h229v-61h-293z" />
<glyph unicode="\" horiz-adv-x="799" d="M-20 1264h69l772 -1364h-71z" />
<glyph unicode="]" horiz-adv-x="367" d="M0 -279h229v1440h-229v62h293v-1563h-293v61z" />
<glyph unicode="^" horiz-adv-x="891" d="M8 496l412 647q10 16 24 16q17 0 27 -16l412 -647h-74l-365 571l-362 -571h-74z" />
<glyph unicode="_" horiz-adv-x="862" d="M0 -16h862v-62h-862v62z" />
<glyph unicode="`" horiz-adv-x="455" d="M94 1118q0 18 13 29.5t30 11.5h10l9 -3t10 -6t20.5 -17.5t39.5 -38.5t68 -67.5t105 -104.5h-32l-242 147q-14 10 -22.5 18t-8.5 31z" />
<glyph unicode="a" horiz-adv-x="1022" d="M66 207q0 43 16.5 81t45 66t66.5 44t82 16h588v141q0 30 -11.5 56.5t-32 46t-47 31t-56.5 11.5h-471v62h471q43 0 81 -16t67 -44t46 -66t17 -81v-555h-64v82q-61 -82 -147 -82h-441q-43 0 -81 16t-66.5 44t-45.5 65.5t-17 81.5zM127 207q0 -30 12 -56.5t32 -46.5 t47.5 -31.5t57.5 -11.5h441q30 0 56.5 11.5t47 31t32 46t11.5 57.5v143h-588q-31 0 -58 -11.5t-47.5 -31.5t-32 -46t-11.5 -54z" />
<glyph unicode="b" horiz-adv-x="1053" d="M94 0v1163h64v-481q62 80 147 80h440q43 0 81.5 -16t67 -44t45.5 -66t17 -81v-348q0 -44 -16.5 -81.5t-45 -65.5t-67 -44t-82.5 -16h-440q-86 0 -147 82v-82h-64zM158 207q0 -30 11.5 -56.5t32 -46.5t47 -31.5t56.5 -11.5h440q31 0 58.5 11.5t48 31.5t32 46.5t11.5 56.5 v348q0 31 -12 57.5t-32.5 46t-47.5 30.5t-58 11h-440q-31 0 -57.5 -11.5t-46.5 -31t-31.5 -46t-11.5 -56.5v-348z" />
<glyph unicode="c" horiz-adv-x="989" d="M94 207v348q0 43 17 81t45.5 66t67 44t81.5 16h471v-62h-471q-31 0 -57.5 -11.5t-46.5 -31t-31.5 -46t-11.5 -56.5v-348q0 -30 11.5 -56.5t32 -46.5t47 -31.5t56.5 -11.5h651v-61h-651q-42 0 -80 16t-67 44t-46.5 66t-17.5 81z" />
<glyph unicode="d" horiz-adv-x="1053" d="M94 207v348q0 44 18.5 82t48 65.5t67.5 43.5t77 16h440q88 0 150 -80v481h61v-1163h-61v82q-61 -82 -150 -82h-440q-43 0 -81.5 16t-67 44t-45.5 65.5t-17 81.5zM158 207q0 -30 11.5 -56.5t31.5 -46.5t46.5 -31.5t57.5 -11.5h440q31 0 58 11.5t47.5 31.5t32.5 46.5 t12 56.5v348q0 30 -11.5 56.5t-32 46t-48 31t-58.5 11.5h-440q-30 0 -56.5 -11t-47 -30.5t-32 -46t-11.5 -57.5v-348z" />
<glyph unicode="e" horiz-adv-x="1022" d="M94 207v348q0 43 17 81t45.5 66t67 44t81.5 16h440q43 0 81.5 -16t67 -44t45.5 -66t17 -81q0 -42 -16.5 -79.5t-45 -65.5t-67 -44t-82.5 -16h-587v-143q0 -30 11.5 -56.5t32 -46.5t47 -31.5t56.5 -11.5h471v-61h-471q-42 0 -80 16t-67 44t-46.5 66t-17.5 81zM158 412h587 q31 0 58.5 11.5t48 31.5t32 45.5t11.5 54.5q0 31 -12 57.5t-32.5 46t-47.5 30.5t-58 11h-440q-31 0 -57.5 -11.5t-46.5 -31t-31.5 -46t-11.5 -56.5v-143z" />
<glyph unicode="f" horiz-adv-x="449" d="M33 700v62h100v194q0 43 16.5 81t45 66t67 44t82.5 16h72v-61h-72q-31 0 -58 -11.5t-47.5 -31.5t-32 -46.5t-11.5 -56.5v-194h221v-62h-221v-700h-62v700h-100z" />
<glyph unicode="g" horiz-adv-x="1053" d="M94 205v350q0 43 17 81t45.5 66t67 44t81.5 16h440q88 0 150 -80v80h61v-907q0 -43 -17 -80.5t-45.5 -65t-67 -43.5t-81.5 -16h-471v61h471q31 0 58 11t47.5 30.5t32.5 46t12 56.5v225q-62 -80 -150 -80h-440q-41 0 -79 15.5t-67 43t-47 65t-18 81.5zM158 205 q0 -30 11.5 -56.5t32 -46t47 -30.5t56.5 -11h440q31 0 58.5 11t48 30.5t32 46t11.5 56.5v350q0 30 -12 56.5t-32.5 46t-47.5 31t-58 11.5h-440q-31 0 -57.5 -11.5t-46.5 -31t-31.5 -46t-11.5 -56.5v-350z" />
<glyph unicode="h" horiz-adv-x="993" d="M94 0v1163h64v-481q62 80 147 80h383q43 0 81.5 -16t67 -44t45.5 -66t17 -81v-555h-61v555q0 31 -12 57.5t-32.5 46t-47.5 30.5t-58 11h-383q-31 0 -57.5 -11.5t-46.5 -31t-31.5 -46t-11.5 -56.5v-555h-64z" />
<glyph unicode="i" horiz-adv-x="254" d="M78 913q0 50 49 50t49 -50q0 -51 -49 -51t-49 51zM94 0v762h64v-762h-64z" />
<glyph unicode="j" horiz-adv-x="252" d="M-72 -168h72q31 0 49.5 11.5t28.5 31.5t13 46t3 56v785h64v-785q0 -43 -8.5 -80.5t-27.5 -65.5t-49 -44t-73 -16h-72v61zM78 913q0 50 49 50t49 -50q0 -51 -49 -51t-49 51z" />
<glyph unicode="k" horiz-adv-x="815" d="M94 0v1163h64v-723l458 324h107l-457 -322l549 -442h-98l-504 406l-55 -39v-367h-64z" />
<glyph unicode="l" horiz-adv-x="252" d="M94 0v1163h64v-1163h-64z" />
<glyph unicode="m" horiz-adv-x="1452" d="M94 0v762h64v-80q62 80 147 80h242q116 0 178 -98q65 98 180 98h242q43 0 81.5 -16t67 -44t45.5 -66t17 -81v-555h-62v555q0 30 -12 56.5t-32.5 46t-47.5 31t-57 11.5h-242q-30 0 -56.5 -11.5t-47 -31t-32 -46t-11.5 -56.5v-555h-64v555q0 30 -11.5 56.5t-32 46t-47 31 t-56.5 11.5h-242q-31 0 -57.5 -11.5t-46.5 -31t-31.5 -46t-11.5 -56.5v-555h-64z" />
<glyph unicode="n" horiz-adv-x="991" d="M94 0v762h64v-80q62 80 147 80h381q43 0 81.5 -16t67 -44t45.5 -66t17 -81v-555h-61v555q0 31 -12 57.5t-32.5 46t-47.5 30.5t-58 11h-381q-31 0 -57.5 -11.5t-46.5 -31t-31.5 -46t-11.5 -56.5v-555h-64z" />
<glyph unicode="o" horiz-adv-x="1053" d="M94 207v348q0 43 17 81t45.5 66t67 44t81.5 16h440q43 0 81.5 -16t67 -44t45.5 -66t17 -81v-348q0 -44 -16.5 -81.5t-45 -65.5t-67 -44t-82.5 -16h-440q-42 0 -80 16t-67 44t-46.5 66t-17.5 81zM158 207q0 -30 11.5 -56.5t32 -46.5t47 -31.5t56.5 -11.5h440 q31 0 58.5 11.5t48 31.5t32 46.5t11.5 56.5v348q0 31 -12 57.5t-32.5 46t-47.5 30.5t-58 11h-440q-31 0 -57.5 -11.5t-46.5 -31t-31.5 -46t-11.5 -56.5v-348z" />
<glyph unicode="p" horiz-adv-x="1053" d="M94 -401v1163h64v-80q62 80 147 80h440q44 0 82.5 -16t67 -44t45 -66t16.5 -81v-350q0 -43 -17 -80.5t-45.5 -65t-67 -43.5t-81.5 -16h-440q-85 0 -147 80v-481h-64zM158 205q0 -30 11.5 -56.5t31.5 -46t46.5 -30.5t57.5 -11h440q31 0 58 11t47.5 30.5t32.5 46t12 56.5 v350q0 30 -11.5 56.5t-32 46t-48 31t-58.5 11.5h-440q-30 0 -56.5 -11.5t-47 -31t-32 -46t-11.5 -56.5v-350z" />
<glyph unicode="q" horiz-adv-x="1053" d="M94 207v348q0 43 17 81t45.5 66t67 44t81.5 16h440q88 0 150 -80v80h61v-1161h-61v481q-61 -82 -150 -82h-440q-42 0 -80 16t-67 44t-46.5 66t-17.5 81zM158 207q0 -30 11.5 -56.5t32 -46.5t47 -31.5t56.5 -11.5h440q31 0 58.5 11.5t48 31.5t32 46.5t11.5 56.5v348 q0 30 -12 56.5t-32.5 46t-47.5 31t-58 11.5h-440q-31 0 -57.5 -11.5t-46.5 -31t-31.5 -46t-11.5 -56.5v-348z" />
<glyph unicode="r" horiz-adv-x="510" d="M94 0v762h64v-80q62 80 147 80h172v-62h-172q-30 0 -56.5 -11t-47 -30.5t-32 -46t-11.5 -57.5v-555h-64z" />
<glyph unicode="s" horiz-adv-x="991" d="M66 0v61h651q30 0 56.5 11.5t47 31.5t32 46.5t11.5 56.5q0 28 -11.5 54t-31.5 46t-46.5 31.5t-57.5 11.5h-441q-44 0 -82 16t-66.5 44t-45 65.5t-16.5 79.5q0 43 17 81t45.5 66t66.5 44t81 16h472v-62h-472q-30 0 -57.5 -11t-47.5 -30.5t-32 -46t-12 -57.5 q0 -29 11.5 -54.5t32 -45.5t47.5 -31.5t58 -11.5h441q41 0 79 -16.5t67.5 -44.5t47 -65t17.5 -79q0 -44 -17 -81.5t-46 -65.5t-67 -44t-81 -16h-651z" />
<glyph unicode="t" horiz-adv-x="449" d="M33 700v62h100v225h62v-225h221v-62h-221v-700h-62v700h-100z" />
<glyph unicode="u" horiz-adv-x="991" d="M94 207v555h64v-555q0 -30 11.5 -56.5t32 -46.5t47 -31.5t56.5 -11.5h381q31 0 58 11.5t47.5 31.5t32.5 46.5t12 56.5v555h61v-762h-61v80q-65 -80 -150 -80h-381q-42 0 -80 16t-67 44t-46.5 66t-17.5 81z" />
<glyph unicode="v" horiz-adv-x="727" d="M16 762h68l281 -653l278 653h68l-320 -744q-11 -24 -26 -24q-19 0 -29 24z" />
<glyph unicode="w" horiz-adv-x="1327" d="M16 762h70l279 -651l270 634q9 23 29 23q17 0 28 -23l273 -634l278 653h70l-322 -744q-11 -24 -26 -24q-19 0 -29 24l-272 633l-273 -633q-11 -24 -26 -24q-19 0 -29 24z" />
<glyph unicode="x" horiz-adv-x="631" d="M8 0l271 412l-232 350h76l192 -293l193 293h76l-232 -350l271 -412h-74l-234 354l-233 -354h-74z" />
<glyph unicode="y" horiz-adv-x="727" d="M16 762h68l278 -653l281 653h68l-318 -739q0 -7 -4 -11l-176 -413h-68l185 430z" />
<glyph unicode="z" horiz-adv-x="938" d="M33 27q0 15 14 26l739 647h-579v62h661q35 0 35 -27q0 -15 -14 -26l-737 -648h747v-61h-831q-35 0 -35 27z" />
<glyph unicode="{" horiz-adv-x="434" d="M33 444q0 9 2 11q18 30 37 61.5t34.5 64t26 66.5t10.5 70v274q0 46 21 88.5t56.5 74t82.5 50.5t100 19h31v-64h-31q-42 0 -78 -13.5t-63 -36.5t-42 -53.5t-15 -64.5v-274q0 -40 -8 -77t-25 -71l-74 -129q19 -33 38 -64.5t34.5 -64.5t25 -68.5t9.5 -76.5v-275 q0 -34 15 -64.5t42 -54t63 -37.5t78 -14h31v-61h-31q-51 0 -98 18t-83 49.5t-57.5 73.5t-21.5 90v275q0 73 -55 168q-29 49 -42 76t-13 34z" />
<glyph unicode="|" horiz-adv-x="252" d="M94 -102v1366h64v-1366h-64z" />
<glyph unicode="}" horiz-adv-x="434" d="M0 -279h31q42 0 78 14t63 37.5t42 54t15 64.5v275q0 41 9.5 76.5t24.5 68.5t34.5 64.5t40.5 64.5q-21 33 -40.5 64.5t-34.5 65t-24.5 70t-9.5 77.5v274q0 34 -15 64.5t-42 53.5t-63 36.5t-78 13.5h-31v64h31q54 0 101.5 -19t83 -50.5t56.5 -74t21 -88.5v-274 q0 -37 10 -71t25.5 -66.5t34.5 -63.5t36 -61q2 -2 2 -11q0 -8 -14 -34t-41 -76q-53 -98 -53 -168v-275q0 -48 -21.5 -90.5t-57.5 -73.5t-83.5 -49t-99.5 -18h-31v61z" />
<glyph unicode="~" horiz-adv-x="891" d="M20 567q14 39 17 43q18 45 42 82.5t52.5 63.5t59.5 40.5t61 14.5q80 0 207 -92q61 -45 105.5 -66.5t76.5 -21.5q26 0 52 13t47.5 34.5t37 49t19.5 56.5l2 27h61l-4 -35q-5 -45 -24 -83t-48.5 -65t-66.5 -42t-78 -15q-55 0 -107 27q-3 0 -135 90q-91 62 -145 62 q-18 0 -39.5 -11.5t-43 -32.5t-41.5 -51t-36 -67l-6 -21h-66z" />
<glyph unicode="&#xad;" horiz-adv-x="1053" d="M94 463v61h862v-61h-862z" />
<glyph unicode="&#xde;" horiz-adv-x="1353" d="M18 540q1 6 7 14.5t15 19.5t20.5 22.5l23.5 23.5q27 26 62 57q31 28 57 50q23 19 43.5 35t27.5 18q6 1 29.5 8.5t53.5 15.5t61.5 13.5t52.5 3.5t46 -6.5t47.5 -15t40.5 -29t25 -46.5t13.5 -47t10.5 -36t5 -37t-1 -50q-1 -20 -5 -66t-9 -103t-10 -118t-9 -111t-5.5 -82.5 t1.5 -32.5q4 0 24 2.5t45 5.5t48.5 5t35.5 1q8 -1 30.5 -3.5t52 -5.5t62.5 -7t61.5 -8t48.5 -8t24 -6q7 -3 17 -9t20.5 -10.5t20 -6t14.5 2.5t11.5 13.5t12 22.5t9.5 27.5t6 29.5q1 14 7 35t12 41q7 23 16 47q5 70 9 127q1 24 2.5 48.5t2.5 45t1.5 35.5t0.5 21 q-2 12 -3.5 43.5t-2.5 66t-1.5 63.5t0.5 36q0 7 2 31t4 50.5t2.5 48.5t-1.5 26t-0.5 11t3.5 13q3 7 7 15q2 19 3 35q1 14 0.5 24.5t-3.5 12.5q-3 1 2 5.5t12.5 8t15.5 4t12 -5.5q8 -11 17 -16t8 -15q-1 -4 -2.5 -25t-3.5 -51.5t-4 -66.5t-4 -68.5t-3 -57t-1 -33.5 q1 -13 1.5 -41.5t1.5 -57.5t2.5 -52.5t3.5 -26.5q1 -2 0 -23t-3.5 -52.5t-6.5 -68.5t-7.5 -70t-6.5 -58t-4 -33q-2 -12 -7 -40t-12 -57.5t-14 -53t-13 -26.5t-12 -11.5t-15 -17.5t-21 -15.5t-30 -5.5t-35.5 8t-35.5 14.5t-37.5 13.5t-41.5 5t-55.5 3t-66 9t-57 8.5 t-28.5 2.5q-4 -2 -16 -3.5t-26 -3t-26.5 -3.5t-17.5 -4t-25 -2t-42.5 3.5t-41.5 10t-21 16.5t-1.5 38t2 58.5t3.5 55.5t3 30q1 3 3 20.5t4 41.5t4 52t3.5 52t2 41t-0.5 20t0 19t2.5 39t3 49.5t3 50t1 41.5t-2.5 24q-3 9 -8 30t-15.5 43t-29.5 38t-51 13t-71.5 -11.5 t-73.5 -20t-57 -23t-22 -20.5t4.5 -14t8.5 -8.5t9.5 -5.5t7.5 -4t8.5 -7.5t11.5 -15t11 -22t6 -28.5q0 -16 2 -36t3 -42t0.5 -43.5t-5.5 -40.5q-6 -20 -18.5 -50t-26.5 -59q-16 -33 -34 -70q-6 -8 -9 -15q-2 -6 -2 -12.5t6 -8.5q10 17 21 29q9 11 19.5 18t19.5 4 q14 -7 22 -16q4 -4 6 -9q1 -17 0 -34q-1 -14 -4.5 -31t-11.5 -30t-21 -32t-26.5 -37t-25.5 -32t-18 -16q-6 -3 -18 -5t-24 1t-20.5 14.5t-7.5 36.5t-1.5 44.5t-3 37.5t4 36.5t19.5 42.5t30 49.5t26.5 48t18.5 41t7 29.5q0 7 1.5 24.5t3.5 40t4 47t2 45t-2 35t-8 17.5 q-9 4 -14.5 12t-12.5 12t-18 0t-30 -24t-39 -37t-36.5 -31t-27.5 -23t-13 -12t-10.5 -2.5t-17.5 5t-15 13t-4 19.5zM714 -308q1 -7 2.5 -16t6.5 -18t15 -15t29 -7t43.5 5.5t48.5 17t44 22t31 21.5q7 7 23 22t36.5 33.5t42.5 39.5t40 39.5t30 33t12 20.5l1.5 13.5t-1.5 8 t-8 7.5t-18 13q-75 -68 -137 -122q-27 -23 -53 -44.5t-48.5 -38.5t-39 -26.5t-22.5 -8.5q-7 1 -6.5 9.5t5.5 22t13.5 30.5t18.5 35q23 41 57 93q21 8 29.5 13t12.5 7t6.5 1t10.5 -4q8 -4 14 -0.5t11 8.5q5 6 10 15q0 10 -4 18q-3 7 -8.5 13t-15.5 8q-10 1 -24 2t-28 0.5 t-26 -3t-17 -8.5q-4 -4 -15.5 -23.5t-27 -47t-32.5 -59t-31 -59t-23 -47.5t-8 -24z" />
<glyph unicode="&#xe0d;" horiz-adv-x="1353" d="M18 540q1 6 7 14.5t15 19.5t20.5 22.5l23.5 23.5q27 26 62 57q31 28 57 50q23 19 43.5 35t27.5 18q6 1 29.5 8.5t53.5 15.5t61.5 13.5t52.5 3.5t46 -6.5t47.5 -15t40.5 -29t25 -46.5t13.5 -47t10.5 -36t5 -37t-1 -50q-1 -20 -5 -66t-9 -103t-10 -118t-9 -111t-5.5 -82.5 t1.5 -32.5q4 0 24 2.5t45 5.5t48.5 5t35.5 1q8 -1 30.5 -3.5t52 -5.5t62.5 -7t61.5 -8t48.5 -8t24 -6q7 -3 17 -9t20.5 -10.5t20 -6t14.5 2.5t11.5 13.5t12 22.5t9.5 27.5t6 29.5q1 14 7 35t12 41q7 23 16 47q5 70 9 127q1 24 2.5 48.5t2.5 45t1.5 35.5t0.5 21 q-2 12 -3.5 43.5t-2.5 66t-1.5 63.5t0.5 36q0 7 2 31t4 50.5t2.5 48.5t-1.5 26t-0.5 11t3.5 13q3 7 7 15q2 19 3 35q1 14 0.5 24.5t-3.5 12.5q-3 1 2 5.5t12.5 8t15.5 4t12 -5.5q8 -11 17 -16t8 -15q-1 -4 -2.5 -25t-3.5 -51.5t-4 -66.5t-4 -68.5t-3 -57t-1 -33.5 q1 -13 1.5 -41.5t1.5 -57.5t2.5 -52.5t3.5 -26.5q1 -2 0 -23t-3.5 -52.5t-6.5 -68.5t-7.5 -70t-6.5 -58t-4 -33q-2 -12 -7 -40t-12 -57.5t-14 -53t-13 -26.5t-12 -11.5t-15 -17.5t-21 -15.5t-30 -5.5t-35.5 8t-35.5 14.5t-37.5 13.5t-41.5 5t-55.5 3t-66 9t-57 8.5 t-28.5 2.5q-4 -2 -16 -3.5t-26 -3t-26.5 -3.5t-17.5 -4t-25 -2t-42.5 3.5t-41.5 10t-21 16.5t-1.5 38t2 58.5t3.5 55.5t3 30q1 3 3 20.5t4 41.5t4 52t3.5 52t2 41t-0.5 20t0 19t2.5 39t3 49.5t3 50t1 41.5t-2.5 24q-3 9 -8 30t-15.5 43t-29.5 38t-51 13t-71.5 -11.5 t-73.5 -20t-57 -23t-22 -20.5t4.5 -14t8.5 -8.5t9.5 -5.5t7.5 -4t8.5 -7.5t11.5 -15t11 -22t6 -28.5q0 -16 2 -36t3 -42t0.5 -43.5t-5.5 -40.5q-6 -20 -18.5 -50t-26.5 -59q-16 -33 -34 -70q-6 -8 -9 -15q-2 -6 -2 -12.5t6 -8.5q10 17 21 29q9 11 19.5 18t19.5 4 q14 -7 22 -16q4 -4 6 -9q1 -17 0 -34q-1 -14 -4.5 -31t-11.5 -30t-21 -32t-26.5 -37t-25.5 -32t-18 -16q-6 -3 -18 -5t-24 1t-20.5 14.5t-7.5 36.5t-1.5 44.5t-3 37.5t4 36.5t19.5 42.5t30 49.5t26.5 48t18.5 41t7 29.5q0 7 1.5 24.5t3.5 40t4 47t2 45t-2 35t-8 17.5 q-9 4 -14.5 12t-12.5 12t-18 0t-30 -24t-39 -37t-36.5 -31t-27.5 -23t-13 -12t-10.5 -2.5t-17.5 5t-15 13t-4 19.5zM714 -308q1 -7 2.5 -16t6.5 -18t15 -15t29 -7t43.5 5.5t48.5 17t44 22t31 21.5q7 7 23 22t36.5 33.5t42.5 39.5t40 39.5t30 33t12 20.5l1.5 13.5t-1.5 8 t-8 7.5t-18 13q-75 -68 -137 -122q-27 -23 -53 -44.5t-48.5 -38.5t-39 -26.5t-22.5 -8.5q-7 1 -6.5 9.5t5.5 22t13.5 30.5t18.5 35q23 41 57 93q21 8 29.5 13t12.5 7t6.5 1t10.5 -4q8 -4 14 -0.5t11 8.5q5 6 10 15q0 10 -4 18q-3 7 -8.5 13t-15.5 8q-10 1 -24 2t-28 0.5 t-26 -3t-17 -8.5q-4 -4 -15.5 -23.5t-27 -47t-32.5 -59t-31 -59t-23 -47.5t-8 -24z" />
<glyph unicode="&#xff;" horiz-adv-x="1942" d="M289 0v68v25v15.5t2 14.5q39 240 139 303q55 34 96 51q32 17 82 41t119 53q8 3 31 5.5t57 25.5v27v7q0 7 -2 11q-20 42 -20 49v2q7 0 11 -10q2 -4 3 -10q4 -13 14.5 -26t25 -26t31.5 -26t33 -25q46 -18 82 -18q18 0 51 8.5t70 28t70 52t51 81.5q0 -24 -31 -76 q-6 -4 -11 -8t-9.5 -10.5t-7 -17.5t-2.5 -29q0 -7 2 -13h4q20 0 35 -1.5t26 -6.5q209 -76 336 -209q80 -98 80 -264l-2 -53v-17v-11.5t2 -10.5h-1368zM666 1061v49q8 11 17 25t22 34h8q4 0 4 2v17q55 18 67 123q26 12 45.5 19t22.5 24q14 0 25 10q17 -14 49 -14q0 11 28 30 q6 -12 21 -30q5 11 9 21t9 18h13q5 0 20 18q25 0 69 -8t107 -25q6 -10 17 -19.5t22.5 -18t22 -15t14.5 -10.5q5 -20 16.5 -54t24 -69.5t23.5 -65.5t14 -41q0 -19 -5 -45t-11.5 -53t-12 -51.5t-6.5 -40.5l-8 12q-9 -7 -20 -27t-20.5 -41.5t-16 -39t-7.5 -19.5v182 q-21 21 -43 115q-56 98 -188 98q-150 0 -187 -120l-57 -103v-207h-18q-2 28 -5 59.5t-7 62t-10.5 56.5t-16.5 44q-4 -11 -8 -33l-9 33q-4 -12 -4 -25q0 -9 3.5 -23t7 -29t7 -29t3.5 -23q-26 35 -38.5 91.5t-12.5 135.5zM707 905v8q6 0 6 -4t-6 -4zM735 555q15 -144 203 -240 q10 0 26.5 -0.5t36.5 1.5t41 8t39 20q25 19 40.5 29.5t23.5 15.5q2 9 14.5 23t38.5 32q51 36 51 76q-5 20 -18.5 28.5t-36.5 8.5q-6 0 -6 -6t4 -18t10 -21q-32 -75 -90 -113q5 13 8.5 26t16.5 13q1 4 4 18t6 31t5.5 33t2.5 25q0 26 -8 39q-92 -56 -154 -56q-19 0 -35.5 5.5 t-35 16t-41 26.5t-52.5 38q3 -21 5 -21v1q0 -7 -15 -10q2 -11 2 -26.5t2 -35.5q-12 12 -43 21zM735 1217v6q6 0 6 -4q0 -2 -6 -2zM776 735v6q8 0 8 -4q0 -2 -8 -2zM784 705v20q9 -3 9 -20h-9zM784 1245q9 0 9 6q0 9 -9 9v-15zM821 975q2 2 4 2l2 4q13 12 41 12q22 0 41.5 -6 t42.5 -20q-5 -2 -9 -2h-9h-50t-63 10zM836 922q6 3 17.5 12.5t35.5 9.5q40 0 53 -10l10 -10l4 -11q0 -3 -17.5 -11t-39.5 -11l35 10q2 2 2 4.5t2 5.5h-4q-8 0 -25.5 3.5t-25.5 3.5q-36 0 -47 4zM860 926h6q5 0 17 -3t20 -3q-12 3 -12 10t10 10h-16q-9 -4 -25 -14zM883 737 q4 0 12.5 0.5t18.5 1.5t20 1.5t16 0.5t14.5 -1.5t16.5 -3.5l14 -3.5t9 -1.5q8 0 28 2t31 2t29 -5.5t23 -5.5l1 1q0 -13 -16.5 -26.5t-36.5 -24t-39 -17t-23 -6.5q-5 0 -15 1t-25 3q-12 0 -25.5 8.5t-25 21t-19.5 27t-8 25.5zM907 727q3 -9 19 -25q9 -2 30 -7t41 -5 q8 0 27.5 2t32.5 2q3 0 9 3.5t11.5 8t10 9t4.5 6.5q0 4 -19 4q-2 0 -9.5 -0.5t-17 -1.5t-19 -1.5t-15.5 -0.5q-9 0 -14 1.5t-11 3.5t-17 3.5t-32 1.5q-2 0 -12 -2t-15 -2h-4zM909 920q13 -2 21 -2h12h2h-2h2l-4 8q-5 5 -14 8l-4 4q2 -2 2 -4t2 -4q0 -7 -17 -10zM916 929 q0 -5 4 -5q6 0 6 5q0 3 -6 3q-4 0 -4 -3zM956 799q0 2 7 2q5 0 9.5 -3t4.5 -5h-4h-6l-2 2q-9 0 -9 4zM967 672h4l2 -2q0 -2 1 -2t3 -2h10l2 4l-2 2l-12 2l-6 2zM973 905v17q8 0 8 -9q0 -8 -8 -8zM1001 670h17l4 2l2 2v4h-8l-2 -2h-8h-5v-6zM1040 788l17 5q4 0 6 -2l4 -3h-27 zM1067 1384q0 -4 12 -10q2 2 3.5 6t4.5 9q-20 0 -20 -5zM1069 901l16 14q7 6 12 9.5t11 3.5q20 0 33 -3.5t21.5 -7.5t13 -8.5t6.5 -5.5l8 -8h-64q-15 0 -27 2t-20 4h-10zM1081 903h25q2 0 8.5 -1t11.5 -1q9 0 17 1t10 1h4q2 -2 19 -2q-9 0 -13 3.5t-9 8t-15 8t-29 3.5 q-7 0 -11.5 -6t-17.5 -15zM1085 952q16 19 27 19h35.5t44.5 -10q2 0 4 -3q13 -5 15.5 -7.5t7.5 -8.5q-6 -2 -21 -2q-5 0 -8.5 0.5t-8.5 1.5t-14.5 3.5t-27.5 6.5q-23 6 -31 6h-12q-3 -2 -6 -3t-5 -3zM1102 1374q14 0 14 8q0 7 -14 7v-15zM1106 911q0 11 18 11q19 0 19 -11 q0 -8 -19 -8q-18 0 -18 8zM1108 911q0 -4 4 -4q6 0 6 4q-4 4 -6 4q-4 0 -4 -4zM1110 879v6q12 0 12 -2q-4 -4 -12 -4zM1235 1319l25 -39q16 0 16 10q0 8 -13.5 18.5t-25.5 10.5h-2zM1239 735q3 20 10 27v-10q0 -14 -10 -17zM1311 864v6q6 0 8 -2q-4 -4 -8 -4z" />
<glyph unicode="&#x152;" d="M-353.5 1199.5q2.5 19.5 25.5 33.5q21 12 44 16.5t45.5 1t42 -15.5t33.5 -31q4 -5 6 -11.5t4 -12.5q1 -10 0.5 -20t-0.5 -21q-14 -1 -21 -9.5t-13 -19.5q-8 -16 -16 -31.5t-17 -32.5q6 1 10 0.5t7 1.5q29 11 56.5 23.5t51.5 31.5q32 25 64 48t64 48q35 29 60.5 64 t38.5 79q7 23 4 44.5t-21 40.5q-3 2 -4.5 6.5t-4.5 9.5q5 5 11 9.5t13 11.5q5 -7 10.5 -12.5t7.5 -12.5q19 -46 19 -93q-1 -21 -10 -40l-18 -38q-19 -40 -48.5 -70.5t-64.5 -56.5q-41 -31 -81.5 -60.5t-86.5 -52.5q-35 -19 -74 -33q-9 -2 -19 -1t-20 4q-41 12 -14 46 q14 18 25 38t21 43q-8 1 -14 1.5t-11 -0.5q-24 -2 -44 7t-39 22q-2 1 -6 5q-19 20 -16.5 39.5zM-320 1185q6 -10 14 -13.5t17 -5.5q20 -4 40 -2t40 7l12 4t8 11q1 9 -4.5 13.5t-12.5 7.5q-5 2 -9.5 3.5t-9.5 2.5q-43 4 -85 -16q-3 -2 -5.5 -5.5t-4.5 -6.5z" />
<glyph unicode="&#xf70b;" d="M-353.5 1199.5q2.5 19.5 25.5 33.5q21 12 44 16.5t45.5 1t42 -15.5t33.5 -31q4 -5 6 -11.5t4 -12.5q1 -10 0.5 -20t-0.5 -21q-14 -1 -21 -9.5t-13 -19.5q-8 -16 -16 -31.5t-17 -32.5q6 1 10 0.5t7 1.5q29 11 56.5 23.5t51.5 31.5q32 25 64 48t64 48q35 29 60.5 64 t38.5 79q7 23 4 44.5t-21 40.5q-3 2 -4.5 6.5t-4.5 9.5q5 5 11 9.5t13 11.5q5 -7 10.5 -12.5t7.5 -12.5q19 -46 19 -93q-1 -21 -10 -40l-18 -38q-19 -40 -48.5 -70.5t-64.5 -56.5q-41 -31 -81.5 -60.5t-86.5 -52.5q-35 -19 -74 -33q-9 -2 -19 -1t-20 4q-41 12 -14 46 q14 18 25 38t21 43q-8 1 -14 1.5t-11 -0.5q-24 -2 -44 7t-39 22q-2 1 -6 5q-19 20 -16.5 39.5zM-320 1185q6 -10 14 -13.5t17 -5.5q20 -4 40 -2t40 7l12 4t8 11q1 9 -4.5 13.5t-12.5 7.5q-5 2 -9.5 3.5t-9.5 2.5q-43 4 -85 -16q-3 -2 -5.5 -5.5t-4.5 -6.5z" />
<glyph unicode="&#x153;" d="M-636.5 1519.5q2.5 19.5 25.5 33.5q21 12 44 16.5t45.5 1t42 -15.5t33.5 -31q4 -5 6 -11.5t4 -12.5q1 -10 0.5 -20t-0.5 -21q-14 -1 -21 -9.5t-13 -19.5q-8 -16 -16 -31.5t-17 -32.5q6 1 10 0.5t7 1.5q29 11 56.5 23.5t51.5 31.5q32 25 64 48t64 48q35 29 60.5 64 t38.5 79q7 23 4 44.5t-21 40.5q-3 2 -4.5 6.5t-4.5 9.5q5 5 11 9.5t13 11.5q5 -7 10.5 -12.5t7.5 -12.5q19 -46 19 -93q-1 -21 -10 -40l-18 -38q-19 -40 -48.5 -70.5t-64.5 -56.5q-41 -31 -81.5 -60.5t-86.5 -52.5q-35 -19 -74 -33q-9 -2 -19 -1t-20 4q-41 12 -14 46 q14 18 25 38t21 43q-8 1 -14 1.5t-11 -0.5q-24 -2 -44 7t-39 22q-2 1 -6 5q-19 20 -16.5 39.5zM-603 1505q6 -10 14 -13.5t17 -5.5q20 -4 40 -2t40 7l12 4t8 11q1 9 -4.5 13.5t-12.5 7.5q-5 2 -9.5 3.5t-9.5 2.5q-43 4 -85 -16q-3 -2 -5.5 -5.5t-4.5 -6.5z" />
<glyph unicode="&#xf714;" d="M-636.5 1519.5q2.5 19.5 25.5 33.5q21 12 44 16.5t45.5 1t42 -15.5t33.5 -31q4 -5 6 -11.5t4 -12.5q1 -10 0.5 -20t-0.5 -21q-14 -1 -21 -9.5t-13 -19.5q-8 -16 -16 -31.5t-17 -32.5q6 1 10 0.5t7 1.5q29 11 56.5 23.5t51.5 31.5q32 25 64 48t64 48q35 29 60.5 64 t38.5 79q7 23 4 44.5t-21 40.5q-3 2 -4.5 6.5t-4.5 9.5q5 5 11 9.5t13 11.5q5 -7 10.5 -12.5t7.5 -12.5q19 -46 19 -93q-1 -21 -10 -40l-18 -38q-19 -40 -48.5 -70.5t-64.5 -56.5q-41 -31 -81.5 -60.5t-86.5 -52.5q-35 -19 -74 -33q-9 -2 -19 -1t-20 4q-41 12 -14 46 q14 18 25 38t21 43q-8 1 -14 1.5t-11 -0.5q-24 -2 -44 7t-39 22q-2 1 -6 5q-19 20 -16.5 39.5zM-603 1505q6 -10 14 -13.5t17 -5.5q20 -4 40 -2t40 7l12 4t8 11q1 9 -4.5 13.5t-12.5 7.5q-5 2 -9.5 3.5t-9.5 2.5q-43 4 -85 -16q-3 -2 -5.5 -5.5t-4.5 -6.5z" />
<glyph unicode="&#x160;" d="M-563 951q0 13 3 26q10 37 25.5 70.5t42.5 62.5q12 13 23.5 25.5t27.5 22.5q15 9 29.5 10.5t30.5 -6.5l4 -2l4 -2q11 -4 22 -3t19 12q11 15 22 29.5t19 30.5q16 35 29.5 70.5t27.5 70.5q1 2 1 3.5t1 3.5q5 13 21 10q14 -4 9 -20q-6 -20 -12 -38.5t-14 -37.5 q-12 -29 -25 -57t-30 -55q-18 -31 -44 -42.5t-63 5.5q-22 9 -40 -6q-27 -26 -49.5 -54t-35.5 -63q-1 -3 -2 -6.5t-3 -8.5q8 7 15 12l14 10q8 6 16 6t16 -4t9.5 -11t0.5 -15q-5 -49 -41 -79q-9 -8 -21 -10.5t-24 -0.5q-11 3 -20 17q-8 11 -8 24zM-507 942q11 11 15 22.5 t6 24.5q-9 -9 -15.5 -19.5t-5.5 -27.5z" />
<glyph unicode="&#xf709;" d="M-563 951q0 13 3 26q10 37 25.5 70.5t42.5 62.5q12 13 23.5 25.5t27.5 22.5q15 9 29.5 10.5t30.5 -6.5l4 -2l4 -2q11 -4 22 -3t19 12q11 15 22 29.5t19 30.5q16 35 29.5 70.5t27.5 70.5q1 2 1 3.5t1 3.5q5 13 21 10q14 -4 9 -20q-6 -20 -12 -38.5t-14 -37.5 q-12 -29 -25 -57t-30 -55q-18 -31 -44 -42.5t-63 5.5q-22 9 -40 -6q-27 -26 -49.5 -54t-35.5 -63q-1 -3 -2 -6.5t-3 -8.5q8 7 15 12l14 10q8 6 16 6t16 -4t9.5 -11t0.5 -15q-5 -49 -41 -79q-9 -8 -21 -10.5t-24 -0.5q-11 3 -20 17q-8 11 -8 24zM-507 942q11 11 15 22.5 t6 24.5q-9 -9 -15.5 -19.5t-5.5 -27.5z" />
<glyph unicode="&#x161;" d="M-757 1084q-1 35 9 66.5t24 61.5q6 13 16.5 23t22.5 18q21 12 43.5 19.5t46.5 7.5q12 0 32 -3q12 -3 29 -3q27 0 52.5 12t45.5 32q19 19 30 37q7 11 9.5 23.5t-3.5 25.5l14 26q32 6 45 -2.5t14 -36.5q1 -26 -9 -46t-24 -38v1q-17 -23 -37.5 -40t-43.5 -31q-10 -8 -26 -13 q7 -8 7 -25q-4 -54 -7 -108l-6 -108q-2 -10 -5 -18t-17 -13l1 1q-25 -11 -45 9q-14 13 -28.5 26.5t-27.5 27.5q-11 11 -21 18t-23 12h1q-11 2 -16.5 -0.5t-11.5 -10.5l1 1l-18 -36v-3q-6 -13 -21 -20t-26 -5q-18 5 -21 15.5t-3 20.5q0 7 -0.5 13.5t-0.5 12.5 q-1 11 -1.5 24.5t-0.5 25.5zM-689 1101q11 5 22 7.5t22 2.5q12 0 25 -3.5t25 -8.5q0 2 0.5 4t0.5 5q8 29 21 56.5t36 48.5q-3 0 -6.5 0.5t-7.5 0.5q-5 0 -11.5 0.5t-11.5 1.5q-7 1 -15.5 1.5t-14.5 0.5q-44 0 -63 -40q-6 -19 -12.5 -38t-9.5 -39zM-556 1073l16 -17v17 q0 2 0.5 4.5t0.5 5.5q-4 -3 -12 -7z" />
<glyph unicode="&#xf712;" d="M-757 1084q-1 35 9 66.5t24 61.5q6 13 16.5 23t22.5 18q21 12 43.5 19.5t46.5 7.5q12 0 32 -3q12 -3 29 -3q27 0 52.5 12t45.5 32q19 19 30 37q7 11 9.5 23.5t-3.5 25.5l14 26q32 6 45 -2.5t14 -36.5q1 -26 -9 -46t-24 -38v1q-17 -23 -37.5 -40t-43.5 -31q-10 -8 -26 -13 q7 -8 7 -25q-4 -54 -7 -108l-6 -108q-2 -10 -5 -18t-17 -13l1 1q-25 -11 -45 9q-14 13 -28.5 26.5t-27.5 27.5q-11 11 -21 18t-23 12h1q-11 2 -16.5 -0.5t-11.5 -10.5l1 1l-18 -36v-3q-6 -13 -21 -20t-26 -5q-18 5 -21 15.5t-3 20.5q0 7 -0.5 13.5t-0.5 12.5 q-1 11 -1.5 24.5t-0.5 25.5zM-689 1101q11 5 22 7.5t22 2.5q12 0 25 -3.5t25 -8.5q0 2 0.5 4t0.5 5q8 29 21 56.5t36 48.5q-3 0 -6.5 0.5t-7.5 0.5q-5 0 -11.5 0.5t-11.5 1.5q-7 1 -15.5 1.5t-14.5 0.5q-44 0 -63 -40q-6 -19 -12.5 -38t-9.5 -39zM-556 1073l16 -17v17 q0 2 0.5 4.5t0.5 5.5q-4 -3 -12 -7z" />
<glyph unicode="&#x178;" d="M-275 1434q0 13 3 26q10 37 25.5 70.5t42.5 62.5q12 13 23.5 25.5t27.5 22.5q15 9 29.5 10.5t30.5 -6.5l4 -2l4 -2q11 -4 22 -3t19 12q11 15 22 29.5t19 30.5q16 35 29.5 70.5t27.5 70.5q1 2 1 3.5t1 3.5q5 13 21 10q14 -4 9 -20q-6 -20 -12 -38.5t-14 -37.5 q-12 -29 -25 -57t-30 -55q-18 -31 -44 -42.5t-63 5.5q-22 9 -40 -6q-27 -26 -49.5 -54t-35.5 -63q-1 -3 -2 -6.5t-3 -8.5q8 7 15 12l14 10q8 6 16 6t16 -4t9.5 -11t0.5 -15q-5 -49 -41 -79q-9 -8 -21 -10.5t-24 -0.5q-11 3 -20 17q-8 11 -8 24zM-219 1425q11 11 15 22.5 t6 24.5q-9 -9 -15.5 -19.5t-5.5 -27.5z" />
<glyph unicode="&#xf717;" d="M-275 1434q0 13 3 26q10 37 25.5 70.5t42.5 62.5q12 13 23.5 25.5t27.5 22.5q15 9 29.5 10.5t30.5 -6.5l4 -2l4 -2q11 -4 22 -3t19 12q11 15 22 29.5t19 30.5q16 35 29.5 70.5t27.5 70.5q1 2 1 3.5t1 3.5q5 13 21 10q14 -4 9 -20q-6 -20 -12 -38.5t-14 -37.5 q-12 -29 -25 -57t-30 -55q-18 -31 -44 -42.5t-63 5.5q-22 9 -40 -6q-27 -26 -49.5 -54t-35.5 -63q-1 -3 -2 -6.5t-3 -8.5q8 7 15 12l14 10q8 6 16 6t16 -4t9.5 -11t0.5 -15q-5 -49 -41 -79q-9 -8 -21 -10.5t-24 -0.5q-11 3 -20 17q-8 11 -8 24zM-219 1425q11 11 15 22.5 t6 24.5q-9 -9 -15.5 -19.5t-5.5 -27.5z" />
<glyph unicode="&#x17d;" d="M-472 1165l52 10q20 4 37 7.5t26 5.5l39 11q-5 14 -10.5 28t-12.5 27l-9 23l15 36q31 16 58.5 7.5t41.5 -42.5q1 -2 4 -9.5t7 -15.5l4 -9l5 -15q6 3 16 6.5t16 5.5l9 2l-6 -1l66 20h-1q10 4 21.5 4.5t19.5 -0.5q23 -2 38 -18t10 -41q-5 -14 -18.5 -27t-24.5 -18l-86 -25 h1l-20 -7l-11 -3v-2q4 -22 7 -47.5t3 -57.5q0 -5 -0.5 -13.5t-2.5 -30.5q-22 -4 -31.5 -4.5t-15.5 -0.5q-31 0 -43.5 11.5t-17.5 40.5l1 -2q-4 13 -5 20t-1 13v8q0 3 -2 13q0 7 -0.5 12t-1.5 10l-28 -9l-63 -16q-12 -1 -17.5 -0.5t-10.5 0.5h-1h-1h1q-2 0 -4.5 0.5t-4.5 0.5 q-48 4 -48 92z" />
<glyph unicode="&#xf70d;" d="M-472 1165l52 10q20 4 37 7.5t26 5.5l39 11q-5 14 -10.5 28t-12.5 27l-9 23l15 36q31 16 58.5 7.5t41.5 -42.5q1 -2 4 -9.5t7 -15.5l4 -9l5 -15q6 3 16 6.5t16 5.5l9 2l-6 -1l66 20h-1q10 4 21.5 4.5t19.5 -0.5q23 -2 38 -18t10 -41q-5 -14 -18.5 -27t-24.5 -18l-86 -25 h1l-20 -7l-11 -3v-2q4 -22 7 -47.5t3 -57.5q0 -5 -0.5 -13.5t-2.5 -30.5q-22 -4 -31.5 -4.5t-15.5 -0.5q-31 0 -43.5 11.5t-17.5 40.5l1 -2q-4 13 -5 20t-1 13v8q0 3 -2 13q0 7 -0.5 12t-1.5 10l-28 -9l-63 -16q-12 -1 -17.5 -0.5t-10.5 0.5h-1h-1h1q-2 0 -4.5 0.5t-4.5 0.5 q-48 4 -48 92z" />
<glyph unicode="&#x17e;" d="M-563 1480l38 7h-1q17 2 32 5.5t25 6.5q12 3 23.5 6t23.5 7l19 5q-5 20 -12 38.5t-15 36.5l-8 17l10 23q21 11 39 4.5t29 -30.5q4 -7 7.5 -16.5t7.5 -19.5l5 -16l6 -14l1 -3q10 1 13 4q10 3 20.5 6.5t20.5 7.5l68 21h-1q8 3 16.5 3.5t15.5 -0.5q15 -2 25 -12.5t6 -27.5 q-2 -9 -11.5 -17t-17.5 -10l-88 -25l-20 -7h1l-29 -10l4 -19q5 -29 8 -59.5t1 -71.5q-40 -5 -54 2t-20 33l1 -1q-5 14 -4.5 21.5t-0.5 16.5q0 3 -0.5 7t-1.5 9q-1 11 -2 21.5t-2 21.5q-13 -3 -25.5 -7t-24.5 -7q-16 -5 -33 -8.5t-33 -7.5q-7 -1 -12.5 -0.5t-11.5 1.5h1 q-2 0 -4 0.5t-4 0.5q-31 3 -31 57z" />
<glyph unicode="&#xf716;" d="M-563 1480l38 7h-1q17 2 32 5.5t25 6.5q12 3 23.5 6t23.5 7l19 5q-5 20 -12 38.5t-15 36.5l-8 17l10 23q21 11 39 4.5t29 -30.5q4 -7 7.5 -16.5t7.5 -19.5l5 -16l6 -14l1 -3q10 1 13 4q10 3 20.5 6.5t20.5 7.5l68 21h-1q8 3 16.5 3.5t15.5 -0.5q15 -2 25 -12.5t6 -27.5 q-2 -9 -11.5 -17t-17.5 -10l-88 -25l-20 -7h1l-29 -10l4 -19q5 -29 8 -59.5t1 -71.5q-40 -5 -54 2t-20 33l1 -1q-5 14 -4.5 21.5t-0.5 16.5q0 3 -0.5 7t-1.5 9q-1 11 -2 21.5t-2 21.5q-13 -3 -25.5 -7t-24.5 -7q-16 -5 -33 -8.5t-33 -7.5q-7 -1 -12.5 -0.5t-11.5 1.5h1 q-2 0 -4 0.5t-4 0.5q-31 3 -31 57z" />
<glyph unicode="&#x192;" d="M-868 867q-5 15 6 35q6 11 9 25.5t5 30.5q6 32 19 60t29 56q19 32 42 60.5t50 54.5h-1q13 13 25.5 21.5t26.5 16.5l10 5h-1q32 19 65.5 29t69.5 10q8 0 14.5 -0.5t14.5 -1.5q40 -4 75.5 -18.5t66.5 -45.5l12 17q8 13 22 19t29 4q2 0 5 1q2 0 6.5 0.5t7.5 0.5q4 0 6 1 q8 1 17 2t15 0q41 -5 57.5 -26.5t14.5 -63.5q-1 -24 -13.5 -42t-30.5 -31q-23 -18 -52.5 -29t-61.5 -12q0 -2 -0.5 -4.5t-0.5 -4.5q-2 -20 -9.5 -24t-24.5 1q-5 2 -11.5 5t-13.5 7l1 -1q-22 10 -46 14l-48 8q-2 0 -5.5 1t-4.5 1q-21 4 -40.5 -0.5t-38.5 -9.5h1l-11 -2 q-39 -11 -77 -24.5t-75 -32.5q-23 -12 -42.5 -26t-34.5 -32l-5 -5t-3 -4l2 -16q6 4 12.5 5.5t18.5 -1.5q10 -13 7 -23t-10 -20l1 3l-11 -15q-2 -2 -3 -4t-4 -10q-6 -9 -14 -10.5t-21 5.5l-7 4l1 -1q-5 2 -8.5 4t-6.5 4h1q-24 14 -29 29zM-815 972q4 3 7.5 7t7.5 6l-1 -1 l16 10l4 3l-2 -3l-5 -13l1 1l-4 -13q0 -2 -1 -4.5t-1 -4.5zM-781 997q20 15 42.5 26.5t46.5 21.5q23 9 46 16t46 15h-1q23 8 47 13.5t49 7.5q20 2 39.5 -1t39.5 -7q1 0 1.5 -0.5t2.5 -0.5h10q12 -2 24 -4.5t23 -7.5q-8 9 -10.5 20.5t-0.5 23.5l9 38q2 5 0 8q-1 2 -2.5 3 t-2.5 3l-9 11q-23 17 -52 26t-58 11q-31 2 -61 -4t-57 -22h1q-27 -15 -51.5 -33t-43.5 -42q-24 -27 -46 -63q-11 -17 -18.5 -31.5t-13.5 -27.5zM-365 1076l16 -8l-6 1q2 0 2.5 -0.5t1.5 -0.5q4 0 12 -4l-21 -10q2 14 -1 17zM-310 1148q5 -12 5.5 -25t-0.5 -25h4q12 1 26 6 t26 11l1 1q26 12 37 30t12 43q0 5 -4 6h1q-8 2 -14 4t-11 2q-10 0 -18 -4q0 -4 1 -7q1 -7 1 -16.5t-8 -24.5q-22 2 -30 9t-10 16l-3 -2q-3 -3 -5 -4l-3 -3h1q-13 -7 -9 -17zM-294 1186l20 -3l-12 -6q-1 0 -2.5 -1t-2.5 -1v-1q-1 1 -1 4q-1 1 -1 5q0 2 -1 3z" />
<glyph unicode="&#xf703;" d="M-868 867q-5 15 6 35q6 11 9 25.5t5 30.5q6 32 19 60t29 56q19 32 42 60.5t50 54.5h-1q13 13 25.5 21.5t26.5 16.5l10 5h-1q32 19 65.5 29t69.5 10q8 0 14.5 -0.5t14.5 -1.5q40 -4 75.5 -18.5t66.5 -45.5l12 17q8 13 22 19t29 4q2 0 5 1q2 0 6.5 0.5t7.5 0.5q4 0 6 1 q8 1 17 2t15 0q41 -5 57.5 -26.5t14.5 -63.5q-1 -24 -13.5 -42t-30.5 -31q-23 -18 -52.5 -29t-61.5 -12q0 -2 -0.5 -4.5t-0.5 -4.5q-2 -20 -9.5 -24t-24.5 1q-5 2 -11.5 5t-13.5 7l1 -1q-22 10 -46 14l-48 8q-2 0 -5.5 1t-4.5 1q-21 4 -40.5 -0.5t-38.5 -9.5h1l-11 -2 q-39 -11 -77 -24.5t-75 -32.5q-23 -12 -42.5 -26t-34.5 -32l-5 -5t-3 -4l2 -16q6 4 12.5 5.5t18.5 -1.5q10 -13 7 -23t-10 -20l1 3l-11 -15q-2 -2 -3 -4t-4 -10q-6 -9 -14 -10.5t-21 5.5l-7 4l1 -1q-5 2 -8.5 4t-6.5 4h1q-24 14 -29 29zM-815 972q4 3 7.5 7t7.5 6l-1 -1 l16 10l4 3l-2 -3l-5 -13l1 1l-4 -13q0 -2 -1 -4.5t-1 -4.5zM-781 997q20 15 42.5 26.5t46.5 21.5q23 9 46 16t46 15h-1q23 8 47 13.5t49 7.5q20 2 39.5 -1t39.5 -7q1 0 1.5 -0.5t2.5 -0.5h10q12 -2 24 -4.5t23 -7.5q-8 9 -10.5 20.5t-0.5 23.5l9 38q2 5 0 8q-1 2 -2.5 3 t-2.5 3l-9 11q-23 17 -52 26t-58 11q-31 2 -61 -4t-57 -22h1q-27 -15 -51.5 -33t-43.5 -42q-24 -27 -46 -63q-11 -17 -18.5 -31.5t-13.5 -27.5zM-365 1076l16 -8l-6 1q2 0 2.5 -0.5t1.5 -0.5q4 0 12 -4l-21 -10q2 14 -1 17zM-310 1148q5 -12 5.5 -25t-0.5 -25h4q12 1 26 6 t26 11l1 1q26 12 37 30t12 43q0 5 -4 6h1q-8 2 -14 4t-11 2q-10 0 -18 -4q0 -4 1 -7q1 -7 1 -16.5t-8 -24.5q-22 2 -30 9t-10 16l-3 -2q-3 -3 -5 -4l-3 -3h1q-13 -7 -9 -17zM-294 1186l20 -3l-12 -6q-1 0 -2.5 -1t-2.5 -1v-1q-1 1 -1 4q-1 1 -1 5q0 2 -1 3z" />
<glyph unicode="&#x2c6;" d="M-618 922q-12 21 0 41q8 14 17.5 27.5t20.5 26.5q15 18 40 18q5 1 11 3t11 6q15 11 30.5 18t35.5 5q9 -2 15.5 1.5t11.5 8.5q8 8 17.5 9.5t19.5 -0.5q7 -1 12 -4.5t6 -10.5t-3 -10.5t-10 -6.5q-19 -9 -20 -15.5t10 -29.5q3 3 5.5 6.5t5.5 6.5q4 5 7.5 11t8.5 11 q17 20 33.5 16.5t24.5 -27.5q2 -8 2.5 -17t1.5 -18q1 -7 1.5 -14t1.5 -18q5 6 8 10t5 8q30 72 51 145t23 151q1 19 -5 35.5t-23 27.5q-8 6 -17 12l-18 12q-5 5 -6.5 7.5t-3.5 13.5q9 7 17.5 4.5t16.5 -7.5q10 -6 19 -13l18 -14q41 -31 41 -86q2 -62 -15 -121 q-14 -46 -28.5 -91.5t-30.5 -91.5q-6 -20 -11 -39.5t-18 -36.5q-11 -15 -24.5 -15.5t-22.5 15.5q-7 13 -8 26q-3 20 -6 39.5t-9 39.5q-3 -5 -6.5 -10t-5.5 -11q-5 -15 -9.5 -30t-9.5 -31q-2 -8 -4.5 -14t-13.5 -5q-12 0 -18.5 4t-8.5 15q-3 14 -5 29l-4 30q0 3 -0.5 6 l-1.5 9q-12 -15 -17 -29.5t-6 -30.5q-1 -6 -3.5 -15t-4.5 -8q-8 0 -16 2.5t-16 5.5q-2 1 -4 4t-4 7q-10 -20 -27 -28t-35 -13q-15 -5 -24 0t-16 21q-2 5 -5 8.5t-5 8.5zM-495.5 1011.5q-3.5 -5.5 5.5 -21.5q5 9 9.5 17.5t11.5 20.5q-23 -11 -26.5 -16.5z" />
<glyph unicode="&#xf707;" d="M-618 922q-12 21 0 41q8 14 17.5 27.5t20.5 26.5q15 18 40 18q5 1 11 3t11 6q15 11 30.5 18t35.5 5q9 -2 15.5 1.5t11.5 8.5q8 8 17.5 9.5t19.5 -0.5q7 -1 12 -4.5t6 -10.5t-3 -10.5t-10 -6.5q-19 -9 -20 -15.5t10 -29.5q3 3 5.5 6.5t5.5 6.5q4 5 7.5 11t8.5 11 q17 20 33.5 16.5t24.5 -27.5q2 -8 2.5 -17t1.5 -18q1 -7 1.5 -14t1.5 -18q5 6 8 10t5 8q30 72 51 145t23 151q1 19 -5 35.5t-23 27.5q-8 6 -17 12l-18 12q-5 5 -6.5 7.5t-3.5 13.5q9 7 17.5 4.5t16.5 -7.5q10 -6 19 -13l18 -14q41 -31 41 -86q2 -62 -15 -121 q-14 -46 -28.5 -91.5t-30.5 -91.5q-6 -20 -11 -39.5t-18 -36.5q-11 -15 -24.5 -15.5t-22.5 15.5q-7 13 -8 26q-3 20 -6 39.5t-9 39.5q-3 -5 -6.5 -10t-5.5 -11q-5 -15 -9.5 -30t-9.5 -31q-2 -8 -4.5 -14t-13.5 -5q-12 0 -18.5 4t-8.5 15q-3 14 -5 29l-4 30q0 3 -0.5 6 l-1.5 9q-12 -15 -17 -29.5t-6 -30.5q-1 -6 -3.5 -15t-4.5 -8q-8 0 -16 2.5t-16 5.5q-2 1 -4 4t-4 7q-10 -20 -27 -28t-35 -13q-15 -5 -24 0t-16 21q-2 5 -5 8.5t-5 8.5zM-495.5 1011.5q-3.5 -5.5 5.5 -21.5q5 9 9.5 17.5t11.5 20.5q-23 -11 -26.5 -16.5z" />
<glyph unicode="&#x2dc;" d="M-784.5 1033q-3.5 18 3.5 35q19 43 49.5 75t73.5 51q17 7 36 6.5t37 -4.5q5 -1 13.5 -1t13.5 -2q-5 -13 -17.5 -28.5t-20.5 -23.5q-12 -11 -23 -20t-24 -20q-10 -8 -21.5 -13.5t-22.5 -10.5q-12 -6 -25 -8t-24 11q-8 -11 -12.5 -18t-6.5 -20q-3 -20 16 -30q18 -12 41 -12 q26 1 51.5 6.5t51.5 13.5q54 18 102 45.5t95 59.5q17 11 34 23l34 24q53 37 82 93q7 14 15.5 11.5t23.5 -10.5q-15 -27 -34.5 -51.5t-42.5 -43.5q-17 -12 -35.5 -27t-35.5 -26q-20 -14 -41.5 -26t-42.5 -25q-20 -12 -41 -23.5t-42 -20.5q-29 -12 -55.5 -21t-56.5 -18 q-23 -6 -48.5 -6.5t-48.5 7.5q-11 3 -19 8t-16 11q-13 11 -16.5 29zM-728 1094q18 -5 32.5 1.5t27.5 17.5l51 45q5 5 13 11.5t13 10.5q-2 2 -5 0t-4 0q-18 0 -38 -7.5t-38.5 -19.5t-32.5 -27.5t-19 -31.5z" />
<glyph unicode="&#xf710;" d="M-784.5 1033q-3.5 18 3.5 35q19 43 49.5 75t73.5 51q17 7 36 6.5t37 -4.5q5 -1 13.5 -1t13.5 -2q-5 -13 -17.5 -28.5t-20.5 -23.5q-12 -11 -23 -20t-24 -20q-10 -8 -21.5 -13.5t-22.5 -10.5q-12 -6 -25 -8t-24 11q-8 -11 -12.5 -18t-6.5 -20q-3 -20 16 -30q18 -12 41 -12 q26 1 51.5 6.5t51.5 13.5q54 18 102 45.5t95 59.5q17 11 34 23l34 24q53 37 82 93q7 14 15.5 11.5t23.5 -10.5q-15 -27 -34.5 -51.5t-42.5 -43.5q-17 -12 -35.5 -27t-35.5 -26q-20 -14 -41.5 -26t-42.5 -25q-20 -12 -41 -23.5t-42 -20.5q-29 -12 -55.5 -21t-56.5 -18 q-23 -6 -48.5 -6.5t-48.5 7.5q-11 3 -19 8t-16 11q-13 11 -16.5 29zM-728 1094q18 -5 32.5 1.5t27.5 17.5l51 45q5 5 13 11.5t13 10.5q-2 2 -5 0t-4 0q-18 0 -38 -7.5t-38.5 -19.5t-32.5 -27.5t-19 -31.5z" />
<glyph unicode="&#xe01;" horiz-adv-x="813" d="M22 497q1 20 14 41.5t28 42.5v-1l16 24q8 12 17.5 24t24 27t35 34t50.5 45v-1l9 8q25 21 50 41t52 34q40 19 74.5 25.5t46.5 7.5q6 0 10 1q11 1 24.5 2t31 -2.5t40 -13.5t52.5 -30q27 -19 45 -46.5t30 -57.5t19.5 -59.5t12.5 -51.5q3 -14 5.5 -24t4.5 -15q2 -7 4.5 -26 t5.5 -45.5t6.5 -58.5t6.5 -65q1 -8 2 -14.5t3 -14.5q2 -6 2.5 -13.5t1.5 -14.5q1 -10 1 -19.5v-18.5q0 -6 0.5 -12t0.5 -12l6 -48l5 -41q2 -30 -1 -54t-8 -41q-5 -19 -12 -34l-8 -6q-4 -2 -10 -4t-13 -2q-9 0 -15 4.5t-11 9.5q-5 6 -9 14q6 13 11 24q5 10 8.5 19t5.5 13 q1 2 0.5 15.5t-2 33.5t-3.5 42.5t-4 42.5l-4 43q-1 8 -4.5 37.5t-9 69t-12 84t-12 82.5t-9.5 64t-5 30h1q-1 3 -6 16.5t-13.5 31t-21 37t-29 37t-37.5 29t-46 13.5h-24q-25 0 -43 -3t-34 -10t-33 -18.5t-39 -28.5l-56 -40q-27 -19 -52 -43.5t-45 -47.5q-23 -26 -43 -54h1 q10 17 23.5 23.5t26.5 6.5q6 0 12.5 -2t12.5 -4q7 -3 14 -5l-6 -21v2l-21 -429q1 -9 2.5 -20t2.5 -19l-13 -26l-9 -6h-20q-8 0 -17 3q-5 2 -11 4q-1 26 -2 48q-1 19 -1.5 35t-1.5 21q0 5 1 24.5t3 42t4 42t4 24.5q1 3 2 18t2 36t2 45.5t2 47t2 39.5t1 23q-4 -2 -6 -4 q-7 -5 -17 -11l-20 -12q-11 -7 -23 -14q-11 -2 -20 0q-8 2 -14 8t-5 22z" />
<glyph unicode="&#xe02;" horiz-adv-x="935" d="M-24 521.5q-1 16.5 0 32.5t4.5 36t8.5 37q5 20 11 41q10 17 25 35q12 15 30.5 33.5t42.5 35.5q19 13 33 25t22 19q18 18 37 26q11 4 27.5 5.5t32.5 2.5q18 1 38 0q13 -9 25 -21q10 -11 20 -25.5t15 -32.5l6 -28l3.5 -14t3 -15.5t3 -24t4.5 -38.5q3 -32 7 -67t8 -66 t8.5 -55t8.5 -34l3 -7l-1 1q5 -14 13 -35t18.5 -45t24 -48.5t28.5 -45.5q16 -22 30 -42.5t26 -37.5q14 -20 23.5 -34t14.5 -17l6 -6l6 -6q11 -12 28.5 -25.5t42.5 -11.5q17 2 29 6t20 9q10 5 16 11q18 17 32 35q12 15 23 31.5t13 28.5l3 14q4 20 10 51.5t11.5 63t9 57.5 t3.5 35v31v36.5t-1.5 40.5t-5.5 38.5t-11 31.5q-2 4 -4.5 13.5t-4 20.5t-3 20.5t-1.5 13.5q0 13 1 24.5t3 22.5q2 13 4 21t-2 13l-9 12q-8 11 -12.5 21.5t3.5 30.5q7 2 15 3q14 2 27 -3q5 -2 12.5 -7.5t14 -12t11.5 -13t5 -9.5q0 1 -1 -4l-2 -10q-2 -8 -4.5 -18.5 t-0.5 -17.5q1 -4 3.5 -23.5t6 -47t7 -59t6.5 -60t5 -50.5t2 -29q0 -6 -2 -27t-5.5 -48.5t-7.5 -59t-8.5 -59.5t-8.5 -49t-7 -28q-5 -10 -19.5 -32.5t-36.5 -47.5t-50 -46.5t-59 -29.5q-32 -9 -62 0.5t-53 24.5q-27 18 -50 43q-44 58 -82 113q-16 23 -32 48t-30 48.5 t-25 45.5t-16 39h1q-6 18 -11 44.5t-9.5 58t-9 66t-8.5 67.5q-4 30 -7.5 57.5t-5.5 48.5q-3 25 -5 46q-2 0 -4.5 -11.5t-6.5 -28.5t-9.5 -36.5t-13.5 -36.5q-9 -17 -22.5 -39t-30 -44t-35.5 -41.5t-40 -31.5l-37 -21q-26 -15 -42.5 -22.5t-35.5 -1.5q-12 4 -19.5 15 t-11 25.5t-4.5 31zM35 526.5q-3 -19.5 1 -19.5q3 0 6.5 3t6.5 6l5 5q3 4 9.5 5.5t13.5 3.5h-1q2 0 3.5 0.5t3.5 0.5t4 1t5 3.5t10 10.5t19.5 22.5t32.5 39.5q14 18 26.5 47t21.5 58q11 33 19 70l-49 -27q-18 -9 -36.5 -25.5t-33.5 -33.5t-25.5 -31.5t-13.5 -19.5 q-2 -5 -8 -27.5t-11.5 -47.5t-8.5 -44.5z" />
<glyph unicode="&#xe03;" horiz-adv-x="1082" d="M-18 640q-5 20 4.5 41t18.5 35q2 2 3 5.5t3 6.5q3 5 10.5 16t17.5 23t20.5 22.5t18.5 15.5q8 4 20 3.5t24 -2.5q14 -3 29 -6q2 4 4.5 11.5t9.5 29.5q9 23 24.5 32t35.5 9q14 0 33 -5t33 -10q10 -6 19 -20.5t16 -30.5q8 -18 15 -39q5 13 10 27t10 30t13 27.5t16 19.5 q10 9 20 14q10 4 22 3q11 -1 25 -6.5t31 -19.5q15 -14 24.5 -32.5t15.5 -35.5q7 -20 11 -40l-2 -44q-1 -19 -1 -42v-44q0 -20 0.5 -37t2.5 -25q3 -11 5.5 -34t5 -50t4 -53t1.5 -43q0 -12 2.5 -29.5t6.5 -36.5t8.5 -38t7.5 -33l6 -27q2 -8 12.5 -25t23 -35.5t23.5 -33.5 t14 -18l7.5 -7.5t10 -9t10 -9t7.5 -5.5l-1 1q2 -1 9 -2t15 -1.5t15.5 -1t12.5 -0.5t8.5 -2t7.5 -4q5 -3 14.5 -7t38.5 -4q16 0 27.5 6.5t19 16t12.5 22t9 24.5l4 12t4 11q6 13 10.5 34.5t8 43.5t5.5 41t2 28q0 8 2.5 36.5t5.5 60.5q4 37 8 81q-4 24 -7 50q-2 22 -4 47t0 48 q-1 23 -4 56t-7 62q-4 34 -10 71q8 12 18 15t20.5 0t20 -9t15.5 -10q8 -7 8.5 -17.5t-2.5 -22.5q-2 -9 -2.5 -19.5t0.5 -15.5q4 -11 7.5 -28.5t6.5 -34.5q4 -20 6 -42l-1 -4q-2 -8 -4 -19q-2 -10 -3 -25t-1 -37q0 -18 1 -40t5 -49q3 -24 3 -52q0 -45 -7 -96t-17 -97t-20 -82 t-17 -52q-17 -39 -64 -53t-106 -10q-29 2 -54 10t-45.5 18.5t-35.5 21t-24 16.5h1q-13 8 -21 20t-16 28q-5 10 -10.5 20.5t-15.5 24.5q-12 17 -21.5 37.5t-15.5 39.5q-8 22 -13 45q-8 66 -13 131q-2 28 -4.5 58t-4 60t-2.5 58t-1 52q0 91 -12 138t-21 49q-3 0 -10.5 -14.5 t-16.5 -38t-19 -52.5t-19 -57t-15.5 -51t-8.5 -35q-4 -20 -9.5 -29.5t-11.5 -13.5t-11.5 -3.5t-9.5 1.5q-1 0 -2 1q-3 0 -8.5 4t-10 10t-8 12.5t-3.5 12.5q0 7 1 29t2 46.5t2 44.5t1 24t-2.5 18.5t-7 32t-10.5 32.5t-14 20q-7 4 -16.5 -7t-18.5 -27.5t-15 -33.5t-6 -24 q0 -9 -2.5 -33.5t-6 -53.5t-7.5 -57t-7 -43q-14 -62 -44 -62q-7 0 -12.5 4t-10 9t-7 10t-3.5 8q0 5 -0.5 15t-0.5 18q0 13 11 32q-10 -8 -31.5 -15.5t-37.5 -5.5q-20 2 -32.5 23t-17.5 47zM43 628q5 2 10 9.5t9 24.5q1 5 2.5 12t2.5 12q1 6 2 13q-8 -10 -15 -20.5t-9 -18.5 q-2 -10 -2 -19v-13z" />
<glyph unicode="&#xe04;" horiz-adv-x="1029" d="M11 442q1 31 12 63.5t28 65t38 63.5t43 58q51 64 115 126q1 2 16.5 16.5t42.5 31.5t66 30.5t88 12.5q51 -2 77 -5t37 -6v1q15 1 28 2q11 1 23 1t19 -1q7 -2 32.5 -13.5t56.5 -28.5t60.5 -38.5t43.5 -43.5q13 -22 25 -43.5t23 -48t21 -61t19 -82.5q10 -49 18.5 -95 t15 -83.5t10 -63.5t3.5 -34q0 -7 2 -17t5 -19q3 -11 7 -22q-1 -19 -2 -39q-1 -17 -1.5 -37.5t-0.5 -39.5q0 -17 0.5 -31t2.5 -18q5 -10 5.5 -21t2.5 -24q2 -15 3.5 -29t5.5 -23q4 -10 7 -40.5t5 -63.5t2.5 -59.5t0.5 -28.5q0 -9 -4 -15q-3 -5 -10.5 -9.5t-22.5 -4.5 q-14 0 -22 3.5t-13 8.5t-7 13q-4 58 -8 106l-4 40t-4 37t-3.5 29t-2.5 16q-2 5 -2.5 23t-0.5 42v47.5t1 45.5q1 25 2 49q-1 4 -4 29t-8 61.5t-11 79t-12 80.5t-11.5 66t-8.5 37q-4 10 -8 27t-8 32q-4 17 -8.5 35t-9.5 34.5t-11.5 30t-15.5 22.5q-8 8 -16 17t-16 19v-1 q-22 25 -44 47.5t-47 27.5q-11 2 -29.5 4.5t-41 4.5t-47.5 3.5t-49 1.5q-31 0 -58 -2.5t-44 -10.5q-23 -10 -60.5 -35t-77 -58t-73.5 -70.5t-50 -71.5q-17 -38 -25 -50.5t-11 -17.5q-2 -3 -3.5 -6t-3.5 -20l-6 -27q-4 -21 -8 -45.5t-4 -48.5q0 -22 6 -49q11 -46 50.5 -87 t93.5 -70q17 -10 36 -22t36 -23q19 -13 39 -26q-7 21 -15.5 53.5t-16.5 73.5t-13.5 88t-5.5 95q0 32 3 61q8 69 26 120t37 85q22 40 48 66q44 -8 79 -19q30 -10 56 -25.5t29 -38.5q2 -26 -8.5 -38t-23.5 -17q-15 -5 -34 -4q-18 12 -33 23q-13 9 -24 19t-14 17q-3 0 -8 -5.5 t-10 -15t-10 -21t-8 -23.5q-2 -6 -3 -12.5t-3 -14.5q-8 -31 -17 -76.5t-9 -99.5q0 -15 1 -32t3 -34l4 -26q5 -36 9.5 -68t8.5 -56.5t7.5 -39.5t6.5 -18q4 -5 9.5 -16t11 -24t8.5 -24t3 -15q1 0 1 -2q0 -10 -5 -18t-28 -4q-12 2 -37 12t-52.5 23t-52 25.5t-35.5 19.5 q-4 2 -9.5 6.5t-10.5 9.5q-15 10 -33.5 23.5t-36 25.5t-30.5 20t-16 8q-6 0 -21 15t-30.5 46t-26 78.5t-7.5 112.5zM489 683q1 -3 4 -7q6 -8 10 -10q-1 5 -3.5 10t-10.5 7zM503 658l6 9q-2 -1 -3 -1h-3v-8z" />
<glyph unicode="&#xe05;" horiz-adv-x="1048" d="M63.5 568q1.5 41 9.5 73.5t26 55.5q12 15 31 33.5t41.5 37t46 36t44.5 31.5t37.5 23.5t24.5 11.5q12 3 24 7.5t25.5 8.5t29.5 7t36 2t39.5 -7.5t36.5 -16.5t30.5 -22.5t20.5 -24.5t16.5 -27.5t18 -30.5t14.5 -26.5t6 -16.5q0 -3 8.5 9t22 31.5t29.5 43.5t31.5 44t27.5 33 t18 11q8 -3 25 -9.5t34.5 -19.5t32.5 -34t20 -52q10 -63 21 -112t19 -91q3 -21 6.5 -51.5t6.5 -60t5 -52.5t4 -29q1 -6 3.5 -24.5t5 -40t5.5 -41t6 -26.5t7 -26t7 -39q4 -24 8 -52q4 -10 4 -19q0 -8 -4 -15t-15 -10t-19.5 4t-15.5 17q-8 11 -14 27q-2 8 -3 15q-1 6 -0.5 13 t3.5 13q-15 94 -26 176q-5 35 -9.5 70.5t-8.5 67t-6 57t-2 40.5q0 30 -9 70t-21 76t-23 61t-15 25q-3 0 -14.5 -13.5t-28 -35t-34.5 -47t-33 -49t-25 -43t-10 -27.5q-6 -4 -12 -7q-5 -2 -10.5 -3t-10.5 3q-8 7 -16 16t-10 17q-1 3 -3.5 20t-8 40.5t-15 49.5t-23.5 48.5 t-33.5 36.5t-44.5 13q-38 -2 -63 -8t-40 -14q-18 -9 -28 -19q-42 -28 -75 -52q-29 -20 -52.5 -39t-25.5 -25t-13.5 -29t-23 -55.5t-18.5 -70t0 -72.5t15.5 -75.5t17.5 -76.5t18 -62.5t17 -32.5q7 -6 22.5 -23t31 -35t27.5 -33.5t13 -19.5q0 -3 1.5 3t2.5 17t1.5 23.5 t-0.5 21.5t0 37t3 60.5t4 62.5t4 42t6 37t7 50t4 43.5t-2 17.5q-4 0 -8.5 -5t-11 -11t-16 -11t-23.5 -6t-27.5 8.5t-24 24t-16.5 31.5t-4 32q1 15 10.5 39t23.5 46.5t31 39t34 16.5q17 1 36 1t36.5 -1.5t31 -4.5t19.5 -7q6 -5 19.5 -22t27.5 -36t25 -35.5t12 -20.5 t7.5 -19.5t11.5 -37t4.5 -47t-12.5 -50.5t-21 -46.5t-18 -38.5t-21.5 -27.5t-31.5 -13.5q-20 -3 -30 0t-15 8t-6 14q-4 -62 -6 -112q-1 -21 -2 -42.5t-1 -38.5t0.5 -28.5t1.5 -14.5q2 -6 5.5 -16t7.5 -20t6.5 -18.5t2.5 -11.5v-17t-11 -16q-6 -3 -19.5 4t-30.5 19.5 t-35.5 28.5t-33.5 32t-40.5 43.5t-50.5 65t-45.5 84t-26.5 100.5t-10.5 102t-3 89zM372 407q5 -16 9 -29t14 -13q5 0 16.5 18.5t23.5 43t20 49t5 37.5q-5 26 -12.5 49t-12.5 24q-6 1 -10 -6.5t-9 -7.5t-11 8.5t-19 5.5q-5 -45 -9 -82q-3 -32 -5 -60.5t0 -36.5z" />
<glyph unicode="&#xe06;" horiz-adv-x="869" d="M-27 732q6 30 16 56q8 23 21 45.5t31 34.5t28.5 18t17.5 8t12 1.5t11 -1.5q12 -2 26.5 -9.5t22.5 -12.5q4 -3 6.5 -0.5t4.5 7t4.5 9t6.5 7.5t17.5 3.5t29 -1.5t30.5 -6t22 -10q7 -5 19 -23t23.5 -43.5t20 -57.5t8.5 -66q0 -68 2 -110.5t2 -80.5q0 -20 0.5 -39t1.5 -34 q1 -18 2 -34q30 -2 57 -6q23 -4 47.5 -12t40.5 -22t31.5 -25t31 -25t31.5 -33.5t33 -50.5q16 -32 34.5 -58.5t34.5 -45.5q18 -23 36 -40q2 92 3 169v65t-0.5 58.5t-1.5 45.5t-3 25q-4 12 -5.5 32t-1.5 39t1 34t1 17t1 15t3 29t4 31.5t4 22.5t2.5 18.5t-0.5 22.5q-1 13 -2 28 q-4 -1 -8 2q-3 2 -6 7.5t-5 17.5q15 3 28 2q11 -1 21 -5t14 -15q3 -11 5.5 -13t3.5 -2t1 -1.5t-1 -12.5t-2 -29l-2 -36q-2 -21 -3 -44q-2 -15 -4 -27q-2 -11 -3 -22t0 -18q0 -7 0.5 -18t1 -22.5t0 -21.5t-1.5 -13q-2 -6 2 -12q2 -3 5 -6q3 -5 5 -11q2 -5 3 -13t0 -19 q-2 -22 -1.5 -35t1.5 -18q0 -3 -1.5 -23.5t-4 -45.5t-4 -47.5t-0.5 -28.5t1 -30.5t1 -52.5t2.5 -52.5t5.5 -31.5t0.5 -12t-12 -7t-19.5 -0.5t-23 8.5q-11 7 -31.5 24t-42 39.5t-42 48t-31.5 48.5t-23 45t-27 41.5t-34.5 35t-45.5 24.5q-7 2 -19 7t-17 7q-39 12 -55 13 q-10 1 -16 1q-2 -41 -6 -77q-3 -31 -7.5 -60.5t-12.5 -40.5q-8 -12 -16.5 -29.5t-21 -34t-30.5 -27.5t-44 -9t-36 19.5t-12 38.5q-2 25 4 55q13 43 27 79q12 31 26.5 59t28.5 36l38 22q3 97 1 180q-1 35 -2.5 70t-5 65.5t-8 53.5t-11.5 34q-14 22 -21 38t-12 23.5t-10 3.5 t-13 -22q-17 -37 -24 -59.5t-7 -30.5q0 -5 -2 -13.5t-4 -17.5q-3 -11 -5 -22q-8 -3 -16 -4q-7 -1 -14.5 0.5t-12.5 8.5q-11 14 -16.5 24.5t-3.5 30.5q1 9 -3 0t-14 -24.5t-26.5 -31t-40.5 -17.5t-34.5 7t-14.5 20q-4 13 -2 31zM230.5 145.5q0.5 -7.5 4.5 -9.5t11.5 10 t15 27.5t12.5 29.5t5 17t2 11.5t3.5 19t1.5 20t-3 13.5q-10 -13 -18 -26q-8 -11 -14.5 -24t-8.5 -24t-5 -23t-5 -23t-1.5 -18.5z" />
<glyph unicode="&#xe07;" horiz-adv-x="760" d="M18 270q2 15 6.5 22t9.5 9q6 3 13 1q46 -9 84 -16q16 -3 32 -6.5t29.5 -6.5t23.5 -5.5l14 -3.5q5 -2 12.5 -4.5t14.5 -6.5q13 -6 28 -12.5t29.5 -12t26 -9.5t16.5 -4q9 0 31 -4.5t45 -9.5q27 -6 59 -14q52 -24 94 -44l35 -17.5l31 -15.5t23.5 -12.5t11.5 -8.5l1 -1 q-16 27 -20.5 50.5t-7.5 49.5q-3 24 -5.5 49.5t-5 49t-4 43.5t-1.5 32v171q0 2 -0.5 6.5t-1.5 10.5q-2 13 -3.5 33.5t-3 40t-2 34.5t1.5 18l-15 -17q-11 -14 -28 -33.5t-34 -34.5q-7 -7 -15 -11.5t-15 -7.5q-9 -4 -17 -6q-7 -6 -15 -13t-14 -12q-7 -4 -15 -7q-8 -2 -17.5 -4 t-22.5 -2q-8 0 -19.5 2t-22.5 7q-19 11 -19 34q0 20 11.5 47.5t26 53.5t28.5 45.5t20 22.5q5 2 12 11t16 20q8 10 17.5 21t19.5 21t20 17.5t19 10.5q11 2 18.5 5.5t12.5 6.5v-1q8 5 14 7.5t17 -0.5h-1q9 -2 17 -10.5t14.5 -19.5t11 -22.5t6.5 -20.5q2 -8 6 -23l8 -30 q4 -18 10 -38q2 -18 3 -33q1 -13 1.5 -23.5t1.5 -11.5q1 -3 3 -17t4 -30q2 -18 4 -41v-181q3 -40 6 -73q2 -28 5 -52.5t6 -29.5q4 -7 4.5 -17.5t0 -21.5t-2 -19.5t-1.5 -10.5q2 -5 5.5 -16.5t6.5 -24t5.5 -25t1.5 -20.5q-1 -4 -1 -10q-1 -9 -2.5 -16.5t-7.5 -10.5 t-18.5 -0.5t-34.5 13.5q-16 8 -30 17.5t-26 19.5q-15 11 -30.5 20.5t-37.5 15.5q-37 10 -74 22q-25 8 -46 14.5t-35 8.5q-20 2 -33 9t-23 13q-10 7 -17 9q-10 2 -18 2q-5 0 -9.5 0.5t-9.5 1.5l-33 13q-10 4 -18 7.5t-10 3.5q-4 0 -20.5 3.5t-35.5 8.5h1q-11 2 -22.5 5 t-20.5 5l-20 5q-4 0 -21 0.5t-30 1.5q-5 0 -10 0.5t-6 0.5t-6 0.5t-10 4.5t-8.5 11.5t-2.5 22.5zM431 589q4 0 20.5 9t35 21t35 23.5t20.5 16.5q3 4 10 13.5t13.5 20.5t12 21t7.5 13h-1q1 3 4 9t6 13q4 8 7 17v17q-11 -6 -31 -20t-49 -41q-19 -19 -36.5 -42t-30.5 -43.5 t-19.5 -34t-3.5 -13.5z" />
<glyph unicode="&#xe08;" horiz-adv-x="737" d="M33 506q-10 14 1 41q12 28 25 54.5t27 50.5q27 45 61.5 84.5t70.5 79.5l-1 -1l17 19q13 14 27.5 24t30.5 20q26 16 54 16q14 0 28.5 -4t30.5 -10q39 -15 69.5 -42t56.5 -55q11 -13 21.5 -27t21.5 -28l23 -30q27 -38 44.5 -84t19.5 -94q2 -62 4 -122t4 -122q0 -3 -1 -17 t-2.5 -34.5t-3.5 -44.5t-5 -48.5t-7 -46t-8 -36.5q-6 -18 -14 -21.5t-16 1t-14 13.5t-7 16q0 6 0.5 17.5t1.5 27.5t2.5 33.5t3.5 35.5q3 29 5 53t2 33v7t1 7q1 6 1.5 12t0.5 11q-1 59 -1.5 117t-2.5 118q-1 41 -16.5 78.5t-38.5 69.5q-3 4 -6.5 9t-6.5 8q-22 28 -44.5 55.5 t-49.5 48.5q-17 14 -36 21t-39 7t-40 -8t-37 -22q-55 -51 -101.5 -110t-80.5 -125q-9 -16 -14 -29t-9 -25h1l-11 -32q-33 16 -43 30zM189 410q4 59 25 112t74 91q23 15 37 15q21 0 40 -22q11 -14 19.5 -27t16.5 -26q42 -70 82.5 -139.5t79.5 -141.5q9 -17 18.5 -38.5 t19.5 -41.5l20 -47h-17v-20t2 -41.5t6 -42t12 -21.5q-30 0 -39 31l1 -1l-9 27q-8 26 -16 50t-16 44q-20 42 -41.5 84.5t-44.5 82.5q-15 27 -30.5 51.5t-32.5 49.5l-19 29l-8 -45l-9 -48q-2 -13 -6.5 -27.5t-9.5 -31.5q-4 -8 -8 -16.5t-10 -14.5q-34 -34 -63 -34 q-37 0 -59 58q-9 23 -13 50t-2 51zM252 392q0 -40 14 -73q11 6 16 12.5t7 17.5q7 32 13.5 64t9.5 61q5 32 -5 65q-26 -21 -40.5 -62.5t-14.5 -84.5z" />
<glyph unicode="&#xe09;" horiz-adv-x="812" d="M-12 497q-1 28 2.5 35t9.5 1l-9 -27zM0 533q6 18 16 43.5t23.5 55t31.5 61t40 61.5q33 43 58 71.5t46 45.5t39 24t36 8t43.5 -8t50.5 -22t46 -26.5t30 -21.5t29.5 -27.5t43.5 -43.5t43 -49t27 -43v1q14 -36 23.5 -74t14.5 -69q3 -17 7.5 -46t9 -59.5t8 -57t3.5 -36.5v-47 q6 -3 23 -11t34.5 -21.5t30 -32t11.5 -40.5q-1 -23 -11.5 -49.5t-26.5 -49t-34 -38.5t-34 -17q-19 -2 -30 8.5t-18 24.5q-8 16 -11 36q0 38 1 69q1 26 2.5 49.5t4.5 26.5q-1 0 -8 -2.5t-15.5 -7t-16.5 -9.5t-11 -8l-12.5 -12.5t-20.5 -19.5v1q-15 -14 -32.5 -30t-33.5 -31 t-27.5 -27t-14.5 -17l-13 -19.5t-15 -19t-15.5 -14.5t-14.5 -6q-14 0 -25 18t-5 59l10 55q6 24 10 44.5t2 27.5q-1 3 -2 14.5t-2 29.5t-2 40t-2 46q-2 36 -3.5 73.5t-3 68t-2.5 50.5v20h-1q1 0 -10 -16t-26 -36q-18 -25 -36.5 -48t-31.5 -31q-5 -2 -8.5 -5.5t-8.5 -7.5 q-13 -10 -28 -17.5t-45 -5.5q-23 2 -33.5 15.5t-14.5 28.5q-4 18 -2 40q4 30 14 59q8 25 22 52t37 47q3 2 7.5 6.5l6.5 6.5q40 35 72.5 59t63.5 19q17 -3 28 -7t19 -8q9 -4 14 -9l6 -40q2 -17 4.5 -38.5t3.5 -41.5q0 -17 2.5 -45.5t4.5 -57.5q3 -31 5.5 -56.5t1.5 -35.5 q-1 -8 0 -21t3 -26q2 -15 4 -31v-17q0 -8 0.5 -17t0.5 -17q0 -14 -0.5 -27t-3.5 -19v1q-1 -2 -1.5 -11t-1.5 -19l-2 -26q11 11 29 28.5t36.5 34.5t35 30.5t23.5 16.5l10 2q14 5 35.5 10.5t38.5 6.5q-2 1 -2 26q0 28 -4.5 70t-9.5 83t-10.5 72.5t-6.5 38.5q-2 9 -12.5 32.5 t-24.5 49t-28.5 45.5t-23.5 23l-22 21q-9 14 -19 25q-8 10 -19.5 19.5t-22.5 14.5q-8 3 -23 13v-1q-14 8 -30 15t-36 7q-11 0 -26 -3.5t-29 -8.5q-21 -10 -46.5 -39t-51 -67t-48.5 -80.5t-40 -79.5t-26 -63t-5 -31q-5 7 -11 17.5l-12 21t-11.5 19.5t-9.5 14zM148 453 q4 0 12.5 2t20.5 11t28 27t35 50l62 102q-24 -11 -46 -25q-19 -12 -38.5 -29.5t-31.5 -40.5q-19 -37 -30 -64.5t-12 -32.5zM668 87h1q2 -2 10 8t15.5 24t13 28.5t3.5 22.5q-3 3 -4.5 6t-3.5 5q-7 9 -14 17.5t-18 10.5q-1 -12 -2 -39t-1 -51v-32z" />
<glyph unicode="&#xe0a;" horiz-adv-x="576" d="M-41 495.5q3 17.5 8.5 38t13.5 43t15.5 41.5t13.5 32.5t7 16.5q1 2 5.5 9t11.5 16.5t15.5 20.5t17.5 23q20 27 46 61q3 2 8 5q9 5 32 6q12 0 21 -7t16 -16t11.5 -16t7.5 -6t4.5 12t2.5 25.5t1 28.5t2 20t8.5 7t14.5 -1.5t15.5 -6t10.5 -5.5q2 -2 1 -16t-4 -30l-8 -42 q4 10 10 21q5 10 11.5 22t14.5 26q8 13 14.5 26.5t15.5 22.5q15 14 27 40t21 53q10 31 18 67q-2 8 -2 17q0 8 0.5 15.5t4.5 13.5q3 5 10 5t14 -2.5t13.5 -6.5t8.5 -7t1.5 -11.5t-1.5 -17.5q-1 -11 -3 -22q1 -11 -7 -31.5t-17 -41.5q-11 -25 -25 -52l-27 -46q-34 -55 -56 -98 q-9 -18 -17 -35.5t-12 -30.5t-2 -20.5t11 -5.5q18 3 32 -1t26 -11t23.5 -13.5t24.5 -9.5q14 -3 33.5 -21t39.5 -38q22 -24 47 -53q-1 -4 2 -14q2 -8 6.5 -22t15.5 -37q10 -23 15.5 -55t7.5 -62t1 -52t-2 -25t-3 -17.5t-4.5 -32.5t-4 -34t-1.5 -21t-2.5 -19.5t-8.5 -31.5 t-16.5 -34t-25.5 -27q-25 -15 -49 -19.5t-62 9.5q-8 4 -14 10.5t-17 11.5q-15 7 -27.5 21t-23.5 32t-20 38.5t-16 40.5q-17 48 -28 103q-2 112 -6 190q-2 33 -5 62.5t-6.5 48t-8 22.5t-10.5 -13q-11 -35 -36 -61t-51.5 -43.5t-47.5 -27t-25 -10.5q-4 -2 -14.5 -2t-22.5 3 t-23 9.5t-16 19.5q-4 8 -1 25.5zM9.5 503q-4.5 -22 0.5 -24q6 -2 18.5 -0.5t28 7t31 16.5t27.5 28q11 17 24.5 38t24.5 42t17.5 39t5.5 29q-2 10 -5.5 25t-9 28.5t-12 23t-13.5 9.5q-26 -31 -46 -57q-18 -23 -33.5 -43.5t-17.5 -27.5t-10.5 -32t-17 -52t-13 -49zM248 621 q6 -37 11 -69q5 -27 8.5 -53.5t3.5 -36.5t0.5 -33.5t2 -48t2.5 -45t3 -23.5q1 -2 4.5 -16.5t9 -35t12 -44.5t14 -46.5t15 -41t14.5 -26.5q10 -13 17.5 -24.5t14 -20t15 -13t20.5 -3.5q24 2 43 14t26 37q3 13 8.5 41t10 60t6.5 61.5t0 45.5q-3 16 -5.5 41t-7.5 53t-13.5 54 t-21.5 43q-27 34 -40.5 45.5t-23.5 16.5q-5 2 -8.5 8.5t-5.5 12.5q-3 7 -4 16q-28 12 -54 21q-22 8 -44 12t-33 -2z" />
<glyph unicode="&#xe0b;" horiz-adv-x="731" d="M46 521q-1 25 0.5 52t3.5 50t5 40t5 21t10.5 25t19.5 45.5t23 45.5t20 26q17 10 28 14t16 4q6 0 17.5 -11.5t13.5 -28.5t4 -21q1 -4 3 -4q8 9 17 15q8 5 16.5 9.5t16.5 4.5q14 -1 25 -12q5 -5 9 -12q15 -37 26 -69q10 -28 17.5 -54.5t6.5 -37.5t1 -23.5t4 -23.5 q3 -12 7 -25q3 -41 7 -74q2 -29 4.5 -54.5t2.5 -31.5t1.5 -30t4 -51t5.5 -50.5t5 -27.5q2 -5 5 -24t8.5 -42.5t15 -46.5t26.5 -35q16 -12 28 -18t20.5 -8t15.5 -1.5t15 2.5q7 1 20 4t27 14.5t26.5 34t19.5 61.5q7 40 11 70.5t5.5 55t1 46t-3.5 43.5q-3 21 -4 49t-2.5 54 t-4.5 47t-9 29t-20.5 34.5t-30.5 55.5t-30.5 52t-21.5 25q-7 1 -23 6t-35 9.5t-38.5 8t-32.5 2.5q-14 -2 -24 2t-16 9q-7 6 -12 14q8 28 16 52q7 20 13.5 37.5t11.5 21.5q5 3 15 24.5t21 46.5q12 29 27 64q6 15 11 28q5 11 8.5 22.5t3.5 18.5q0 13 9.5 27t20.5 15t11.5 1.5 t8.5 -1.5q7 -18 10 -35q2 -14 1 -29.5t-11 -26.5q-10 -18 -18 -33q-7 -13 -12 -26t-5 -18q0 -6 -3 -15t-7 -18q-4 -11 -10 -21q-2 -1 -4 -3t-4 -4.5t-3 -7.5t-5.5 -18t-10.5 -26.5t-11 -25t-8 -12.5q-5 -3 -3 -11.5t7 -9.5q3 0 19.5 -4t37 -9t38.5 -10.5t24 -9.5 q11 -8 23 -16t21 -19q5 -6 13 -20t16 -29q10 -18 21 -37q12 -21 22 -39q8 -15 15.5 -29.5t9.5 -19.5t7 -39.5t10 -79.5t7.5 -91t-1.5 -75t-9 -57t-10.5 -51.5t-12 -42t-13.5 -28.5q-6 -10 -14 -24t-20 -27t-31 -22t-47 -10q-29 -1 -58 6t-53.5 22.5t-43.5 39t-27 56.5 t-11 58.5t-4 45t-1 33t-3 22.5t-5.5 29.5t-4.5 43t-3.5 41t-1.5 21.5q0 2 -1 14.5t-3 30t-4.5 37.5t-5 37.5t-5 29.5t-3.5 14q-2 3 -7.5 25.5t-11 48.5t-10 48t-4.5 23t-5.5 -12.5t-13.5 -31t-17 -33.5t-18 -19q-17 -6 -34.5 -1t-19.5 28q-2 11 -1.5 27t0.5 30q0 17 1 34 q-18 -38 -30 -69q-11 -26 -19 -48.5t-3 -24.5q4 -2 10.5 -1l13 2t12 0.5t8.5 -6.5t5 -20t2 -30.5t-2.5 -32.5t-8.5 -26q-11 -20 -21 -35t-26 -16q-8 0 -16.5 1t-15.5 7.5t-12 20.5t-6 38z" />
<glyph unicode="&#xe0c;" horiz-adv-x="869" d="M-48 723q-1 3 5 11t15.5 19t22.5 23.5t26 24.5q31 29 71 64q20 14 43 25q20 9 43.5 15t49.5 2q25 -4 51.5 -11t49 -16t38 -18.5t20.5 -18.5q4 -9 15.5 -22t24 -29.5t23.5 -36t15 -42.5t7.5 -43t5.5 -36q3 -18 5 -34q5 -24 9 -43q4 -17 7 -32.5t3 -20.5t3 -17.5t6 -29 t6 -35.5t3 -36t-0.5 -38.5t-1 -40t0 -31.5t3.5 -13t14.5 -0.5t26.5 -2t31 -5t27 -9.5q12 -6 32 -18.5t40 -27.5t35 -30t16 -25q2 -11 4.5 -11t5.5 4q4 4 7 14q-1 32 0 60q0 24 1 48t3 35q1 12 0 29.5t-3.5 36.5t-6 35.5t-7.5 26.5t-11.5 32t-15 48.5t-13.5 52.5t-7 44 q-2 18 -1.5 45.5t1 54.5t-1 49.5t-5.5 31.5q-5 9 1.5 13t17 4t23.5 -4t22 -13q-1 -58 1 -107q0 -21 1 -42t2.5 -40t3.5 -33.5t4 -22.5q9 -32 21 -67.5t21 -66.5q3 -11 5 -38t3 -62.5t1.5 -74.5t-0.5 -72.5t-3.5 -57.5t-5.5 -29q-6 -8 -17 -10t-26.5 4.5t-35.5 23.5t-44 47 q-23 30 -53.5 46.5t-57.5 24.5q-32 9 -65 10q-7 -38 -15 -70q-7 -27 -16 -53t-19 -34q-11 -8 -18 -19t-12 -21q-5 -11 -9 -24q-8 -3 -16 -5q-7 -2 -15 -1t-13 6q-6 5 -10 17.5t-6.5 28t-2.5 31.5t2 30q3 13 15 36.5t26 46t27.5 39.5t19.5 18q4 0 6.5 19t3 47.5t0 62t-3 64.5 t-6.5 54.5t-10 30.5q-9 11 -15 38.5t-9 57.5q-4 34 -5 76q-18 43 -39 77q-18 29 -42 54t-52 29q-28 3 -47.5 3.5t-32.5 -0.5q-15 -1 -24 -3q2 -7 6 -13q3 -5 6 -10.5t6 -7.5t-1.5 -12.5t-11 -26t-12.5 -34t-7 -34.5q-1 -17 -4.5 -25t-7 -20t-5 -32.5t3.5 -62.5 q4 -42 7 -62.5t5 -28.5q2 -10 3 -7q5 -24 8 -52q2 -24 2.5 -56t-4.5 -67q-5 -36 -6.5 -52.5t-2 -22.5t-1.5 -6.5t-5 -4.5q-6 -6 2 -12q4 -3 10 -4q9 8 17 15q7 6 14.5 11t12.5 5q11 0 21.5 -1t17.5 -6q3 -3 4.5 -12.5t1 -21.5t-3 -25.5t-7.5 -23.5t-12 -25t-14.5 -29.5 t-14.5 -26.5t-13 -15q-11 -6 -27 -17.5t-39 -8.5q-11 1 -19 11t-13 23.5t-6.5 28.5t-0.5 26t4.5 42.5t7.5 65t7.5 60.5t6.5 29q2 2 3 23.5t0.5 48.5t-2.5 52t-5 34t-8 26.5t-9 39t-6 44t1 41.5t5.5 41.5t5 43t4 35.5t2.5 19t-10 -5t-26 -21.5t-29.5 -23.5t-20.5 -12t-16.5 2 t-20.5 8t-18 11.5t-9 13.5z" />
<glyph unicode="&#xe0e;" horiz-adv-x="867" d="M-69 616l40 30t40 27q71 42 142 79.5t144 72.5q51 24 102.5 38.5t105.5 22.5t105.5 -1t102.5 -30q39 -16 60.5 -50t23.5 -88t6.5 -107.5t4.5 -107.5q-2 -103 -5.5 -203.5t-6.5 -202.5q-2 -31 -3 -62t-3 -62q-2 -78 -5 -156.5t-5 -156.5q0 -7 -3.5 -18t-8.5 -23 q-2 -11 -4 -17q-6 -21 -17.5 -36.5t-21.5 -16.5q-9 -1 -16 4q-4 2 -7 5l-55 110l-1 1q-13 14 -25.5 30.5t-20.5 39.5q-5 15 -14.5 32.5t-19.5 32.5t-18.5 26t-11.5 12t-19 -11.5t-36 -30.5t-38.5 -37t-25.5 -29q-8 -10 -21.5 -22t-30 -23t-35 -18.5t-36.5 -7.5 q-19 0 -27.5 6.5t-11.5 14.5q-4 10 -2 22q0 37 11 71q9 29 29 60t58 53q38 21 71 25.5t57 2.5q28 -3 51 -13l92 76q9 -3 12.5 -8.5t3.5 -11.5q0 -7 -2 -15q-22 -19 -38 -34q-14 -13 -23.5 -24.5t-4.5 -13.5q6 -3 13.5 -12.5t15.5 -21t14.5 -21.5t10.5 -13q3 -2 10 -16 t15 -31.5t16 -34.5t13 -26q0 -2 1 -4q13 -24 22.5 -43t14.5 -19q3 0 6 11t5 26.5t4 33.5t2 33v9q2 42 2.5 82.5t2.5 82.5q2 67 6.5 133.5t6.5 133.5q4 88 7.5 175t4.5 175q1 54 -4 108t-7 108q-2 38 -19 57.5t-44 27.5q-47 13 -93.5 17t-94.5 -5q-81 -17 -157 -48.5 t-151 -70.5q-5 -3 -10 -6.5t-10 -7.5q-2 -2 -4.5 -5t-10.5 -11q18 -1 31.5 -7.5t24.5 -17t20.5 -22.5t18.5 -24q15 -20 23.5 -48t16.5 -55q22 -73 13.5 -142.5t-34.5 -138.5q-17 -45 -34.5 -89t-34.5 -89q-3 -7 -9.5 -13.5t-15 -10.5t-16.5 -5.5t-14 0.5q-17 8 -25 26t-3 40 q2 11 5 22l6 22q4 18 7.5 27t8.5 12.5t14 1.5t26 -6q20 37 35 77.5t27 82.5q10 32 14.5 65.5t0.5 68.5q-7 51 -22 95t-49 77q-15 16 -33 16t-35 -4t-33 -11l-32 -14q-20 -9 -38.5 -19t-38.5 -18q-10 -4 -16 -5t-11 1.5t-10.5 10t-14.5 20.5zM303 -244.5q-2 -17.5 5 -20.5 q3 -1 12.5 4.5t22.5 16t28.5 24t31.5 28.5q37 33 81 78q-15 11 -45 5t-68 -24q-19 -9 -33.5 -29.5t-23.5 -42.5t-11 -39.5z" />
<glyph unicode="&#xe0f;" horiz-adv-x="956" d="M49 665l40 30t40 27q71 42 142 79.5t144 72.5q51 24 102.5 38.5t105.5 22.5t105.5 -1t102.5 -30q39 -16 60.5 -50t23.5 -88t6.5 -107.5t4.5 -107.5q-2 -103 -5.5 -203.5t-6.5 -202.5q-2 -31 -3 -62t-3 -62q-2 -78 -5 -156.5t-5 -156.5q0 -7 -3.5 -18t-8.5 -23 q-2 -11 -4 -17q-6 -21 -17.5 -36.5t-21.5 -16.5q-9 -1 -16 4q-4 2 -7 5l-55 110q-10 16 -20 28q-9 11 -19 20.5t-21 11.5t-20.5 -7t-16.5 -20q-9 -13 -15 -30l-9 -56q-2 -3 -6 -6q-8 -5 -24 -5q-9 0 -15.5 3t-10.5 7t-7 10q1 14 1 27v24.5t-1 24.5q-2 21 -13 37.5t-22 45.5 q-5 15 -14.5 32.5t-19.5 32.5t-18.5 26t-11.5 12t-19 -11.5t-36 -30.5t-38.5 -37t-25.5 -29q-8 -10 -21.5 -22.5t-30 -23t-35 -17.5t-36.5 -7t-26.5 6.5t-11.5 14.5q-4 9 -2 21q-1 36 10 70q8 29 28.5 60.5t58.5 52.5t71 26t57 3q28 -3 51 -13l92 76q9 -3 12.5 -8.5 t4.5 -11.5q1 -7 -2 -15q-22 -19 -38 -34q-14 -13 -23.5 -24.5t-4.5 -13.5t12.5 -12t15.5 -21.5t14.5 -21.5t10.5 -13q3 -3 12 -22t18.5 -40t18 -37.5t11.5 -14.5q2 2 11.5 9t23.5 13.5t31.5 9.5t36.5 -3t35 -27.5t29 -45t22.5 -42t14.5 -18.5q3 0 6 11t5 26.5t4 33.5t2 33v9 q2 42 2.5 82.5t2.5 82.5q2 67 6.5 133.5t6.5 133.5q4 88 7.5 175t4.5 175q1 54 -4 108t-7 108q-2 38 -19 57.5t-44 27.5q-47 13 -93.5 17t-94.5 -5q-81 -17 -157 -48.5t-151 -70.5q-5 -3 -10 -6.5t-10 -7.5q-2 -2 -4.5 -5t-10.5 -11q18 -1 31.5 -7.5t24.5 -17t20.5 -22.5 t18.5 -24q15 -20 23.5 -48t16.5 -55q22 -73 13.5 -142.5t-34.5 -138.5q-17 -45 -34.5 -89t-34.5 -89q-3 -7 -9.5 -13.5t-15 -10.5t-16.5 -5.5t-14 0.5q-17 8 -25 26t-3 40q2 11 5 22l6 22q4 18 7.5 27t8.5 12.5t14 1.5t26 -6q20 37 35 77.5t27 82.5q10 32 14.5 65.5 t0.5 68.5q-7 51 -22 95t-49 77q-15 16 -33 16t-35 -4t-33 -11l-32 -14q-20 -9 -38.5 -19t-38.5 -18q-10 -4 -16 -5t-11 1.5t-10.5 10t-14.5 20.5zM257 -161.5q-2 -17.5 5 -20.5q3 -1 12.5 4.5t22.5 16t28.5 24t31.5 28.5q37 33 81 78q-15 11 -45 5t-68 -24 q-19 -9 -33.5 -29.5t-23.5 -42.5t-11 -39.5z" />
<glyph unicode="&#xe10;" horiz-adv-x="812" d="M-152 -298q-1 37 10 71q8 29 28.5 60.5t58.5 52.5t71 26t57 3q28 -3 51 -13l93 75q9 -2 12.5 -7.5t3.5 -11.5q0 -7 -2 -15q-22 -19 -38 -34q-14 -13 -23.5 -25t-4.5 -14t13 -12t15.5 -21t14.5 -21t10 -13q4 -3 13 -22t18.5 -40t18 -38t10.5 -15t11.5 9t23.5 14t32 10 t37 -3t35 -27.5t29 -45t22 -42t14 -18.5t7 20.5t3 45.5q1 29 1 67q-8 1 -15 7q-6 5 -11.5 16.5t-7.5 33.5q-2 21 2.5 40t12.5 33q8 17 20 32q8 16 18 24.5t20.5 12t20 2.5t17.5 -5q7 -3 8.5 -20t1 -35.5t-0.5 -33.5t5 -14q5 0 7.5 13t3.5 28q1 18 0 40q2 6 7.5 7t10.5 -1 q6 -2 13 -6q7 -8 11 -22q3 -12 1.5 -32t-12.5 -49q-11 -30 -26 -48t-28.5 -29t-22 -16.5t-6.5 -8.5q3 -4 2 -21t-3 -38t-5 -42t-6 -31q-6 -21 -18 -36.5t-22 -16.5q-9 -1 -16 4q-4 2 -7 5l-55 110q-9 16 -19 28q-8 11 -19 20.5t-22 11.5t-20 -7t-16 -20q-8 -13 -15 -30 l-10 -57q-2 -3 -6 -6q-8 -5 -24 -5q-9 0 -15 3t-10 7t-8 11q1 14 1 27v24t-1 24q0 11 -3.5 20t-8.5 18t-11 19.5t-11 25.5t-15 32.5t-20 33t-18.5 26.5t-11.5 12t-19 -12t-35.5 -31t-38.5 -36.5t-26 -28.5q-8 -10 -21 -22.5t-29.5 -23t-35 -18t-36.5 -7.5q-19 0 -27.5 6.5 t-11.5 14.5q-4 9 -2 21zM-94.5 -257.5q-1.5 -17.5 5.5 -19.5q3 -1 12.5 4.5t22.5 16t28.5 24t31.5 28.5q37 33 81 78q-15 11 -45.5 4.5t-68.5 -23.5q-19 -9 -33.5 -30t-23.5 -43t-10.5 -39.5zM87 623q-1 21 1 44q3 26 8 56q17 23 36 47q17 20 37.5 44t43.5 44t51.5 26 t57.5 5t55.5 -5.5t46.5 -5.5q19 -1 48 -12t60.5 -24t62 -23.5t53.5 -10.5t47 24.5t43 54.5q22 34 42 79q18 11 33 1.5t18 -23.5q1 -7 -5.5 -19t-17.5 -27.5t-24.5 -33.5t-25.5 -36q-25 -37 -56.5 -50t-57.5 -14q-13 -1 -28.5 4.5t-32.5 13.5t-35.5 18.5t-37.5 19.5 q-20 9 -52.5 14.5t-65.5 8.5t-61.5 3t-38.5 -1q-11 -1 -32 -18.5t-43.5 -40.5t-42 -46.5t-26.5 -35.5q-8 -13 -10 -27.5t0 -28.5q2 -16 6 -32q5 4 13 11q7 6 18 16t28 25q16 15 39.5 29.5t48 26.5t46.5 20.5t35 11.5t34.5 1t46.5 -8.5t51 -16.5t47 -22q21 -13 39.5 -37 t32.5 -48q16 -28 29 -61q6 -14 9.5 -47.5t4 -70.5t-2 -68.5t-7.5 -40.5q-2 -5 -5.5 -19t-7.5 -33.5t-8.5 -42.5t-8.5 -47q-10 -55 -20 -124q1 -2 -2 -8t-8.5 -12t-12.5 -10.5t-13 -5.5q-13 -1 -22 5.5t-19 22.5q-5 8 -12 27t-13.5 46t-12 61t-6.5 72t-11.5 78.5t-22.5 74.5 t-22.5 58.5t-10.5 30.5q-2 13 -7.5 12.5t-14.5 1.5q-5 1 -8.5 -3.5t-7.5 -10.5t-8.5 -12t-11.5 -9t-21 -6t-28.5 -3.5t-27.5 2.5t-18 14q-5 10 -2.5 18.5t10 17t17.5 18t19 21.5q10 12 26.5 18.5t34.5 9t33 2t22 -1.5q3 -1 8 -8t10 -18t11 -25t11 -29q12 -34 25 -77 q10 -16 17 -43t12 -59.5t8.5 -66t6 -63t4.5 -51t4 -29.5q3 -12 7.5 -16t9.5 -4t11 3q7 42 14 88q6 39 11.5 86.5t10.5 93.5q4 46 3 84.5t-4 66.5q-4 33 -10 59q-25 55 -50.5 79.5t-50.5 32.5t-49 7t-45 4q-11 2 -24.5 -1t-29 -9.5t-31.5 -16t-31 -19.5q-36 -24 -74 -55 q-6 -11 -15 -22q-8 -9 -19.5 -17.5t-26.5 -11.5q-16 -4 -26 0t-16 11q-7 7 -11 18q-8 10 -9 31z" />
<glyph unicode="&#xe11;" horiz-adv-x="874" d="M2.5 427.5q2.5 21.5 12 45.5t22.5 48t23 41q10 18 37 48t58.5 59.5t60.5 51.5t43 24q13 1 22 -9.5t15 -21.5t9.5 -18t6.5 2q2 9 10.5 21t21 22.5t27.5 17t30 5.5q15 -2 26.5 -15.5t19.5 -30.5q10 -19 17 -43l50 79q20 27 44 46q20 17 47 29.5t57 10.5t48 -16t28.5 -30.5 t15 -31t8.5 -17.5q4 -4 6 -37t3.5 -77.5t3 -92.5t3.5 -81q5 -68 1.5 -136.5t-1.5 -118.5q1 -25 4 -44.5t7 -33.5q4 -16 9 -28q4 -12 -0.5 -21.5t-19.5 -11.5q-8 -2 -13.5 2t-10 10t-8.5 12t-8 9q-3 2 -5.5 17t-4.5 33.5t-3.5 35.5t-2.5 23t0 26.5t3 45.5t4 48.5t3 35.5 q1 8 -0.5 38.5t-4 72.5t-6.5 89.5t-8.5 91t-9 76.5t-8.5 45t-9.5 13t-10.5 3q-8 4 -18.5 4t-30.5 -8q-6 -3 -15 -11.5t-17 -10.5q-15 -4 -29.5 -22.5t-26.5 -45t-22.5 -56.5t-19 -57.5t-15 -48.5t-10.5 -28q-3 -6 -5 -28.5t-3 -56.5t-0.5 -75t0.5 -83q1 -99 4 -220 q-2 -12 -6 -22q-4 -8 -10 -14.5t-14 -6.5q-9 0 -15.5 5.5t-11.5 12.5q-5 8 -10 18q-2 77 -3 140q0 27 -0.5 54t-0.5 49.5t1 39t3 22.5q3 12 3.5 34.5t-0.5 49t-2.5 52.5t-0.5 46t0 54t-3.5 66.5t-6.5 55.5t-9 22q-5 -2 -14.5 -24.5t-19.5 -49.5q-11 -32 -25 -71 q-3 -24 -7 -42q-4 -16 -10.5 -28.5t-16.5 -12.5t-16.5 6.5t-11.5 14.5q-5 10 -8 22q3 39 6 72q2 29 2.5 55t-1.5 35q-3 8 -19 -5t-35 -33q-22 -23 -49 -55q4 0 9 -4q5 -3 10.5 -8.5t13.5 -16.5q7 -11 4.5 -23t-8.5 -23.5t-12.5 -21t-6.5 -15.5q0 -7 -13.5 -24.5t-29.5 -36.5 q-19 -22 -43 -48q-12 -5 -24 -7q-11 -2 -22.5 1t-22.5 16q-11 12 -8.5 33.5zM61 448q2 -3 9 5.5t15 20.5q10 14 22 33q8 14 14 26q5 11 9.5 20t4.5 13q0 3 -12.5 -10t-22.5 -29q-5 -8 -12 -20.5t-13.5 -24.5t-10.5 -21.5t-3 -12.5z" />
<glyph unicode="&#xe12;" horiz-adv-x="829" d="M49 308q-2 69 0 148q16 77 33 141q7 27 14.5 54.5t15.5 51t15.5 40.5t14.5 25q14 15 28 33.5t29 35t31.5 27t35.5 9.5q20 -1 30.5 -5t15.5 -9q6 -6 8 -13q7 -28 12 -52q5 -20 7.5 -38.5t0.5 -23.5q-1 -4 3.5 4t13 22t19.5 31t22.5 32t23 25t20.5 10q14 -1 28.5 -9.5 t26.5 -18.5q14 -11 28 -26q11 -39 20 -78q7 -33 12 -71t2 -68t-5.5 -78t-4 -94.5t-1.5 -80.5t2 -37t15 -6.5t27 -6.5q17 -4 38 -7q20 -15 37 -28q14 -11 27 -23.5t17 -21.5q2 -6 5 23.5t6 77.5t5.5 107t3.5 111.5t0.5 91t-3.5 45.5q0 31 -4 57q-3 22 -9.5 41t-20.5 22 q10 6 19 10q8 3 15.5 4.5t11.5 -2.5q8 -8 17.5 -13t9.5 -16q0 -6 1.5 -37t2.5 -73t0.5 -88t-4.5 -80q-2 -18 -3 -45.5t-1 -61t0.5 -70.5t1.5 -73q2 -84 6 -181q-14 1 -25 5q-10 4 -19.5 11.5t-13.5 23.5t-16.5 40t-29 47.5t-34.5 40.5t-32 19q-29 3 -41 3q-8 0 -13 -1 q0 -62 -4 -112l-4 -42t-5 -38t-7 -28t-9 -14q-10 -6 -22.5 -7t-24 1t-20 7t-11.5 11t-7.5 23t-8.5 35t-7 33t-2 19t8.5 24.5t18.5 45t24 45.5t25 26q8 3 12 40.5t5.5 91.5t-0.5 116.5t-5.5 116.5t-9 91t-12.5 40q-3 11 -7 20q-3 8 -6.5 14t-8.5 7q-3 1 -10.5 -9t-17 -25.5 t-20 -35t-19 -37t-14.5 -32t-7 -19.5q-1 -8 -6.5 -30.5t-12.5 -45.5q-8 -27 -17 -59q-14 -5 -25 -5q-10 0 -18.5 4.5t-10.5 18.5t-2.5 33t0.5 37q1 21 2 44q1 27 1 51q0 20 -0.5 39t-2.5 27q-4 15 1 31t-1 30q-3 7 -18 -5t-32 -31t-31 -37.5t-15 -23.5q-1 -4 -6 -20 t-12 -39.5t-16 -51.5t-17 -56t-14 -53.5t-8 -43.5t-3 -45t-2 -58.5t-1 -64t0.5 -60t2 -46.5t3.5 -24q4 -7 7.5 -16.5t8 -18.5t9 -15t10.5 -6q11 0 23.5 22t19.5 54q4 15 9 48t9 66t5 57t-3 22q-5 -2 -12 -8.5t-16 -11.5t-18 -5.5t-17 10.5q-9 11 -7.5 25.5t6.5 27.5 t11.5 22.5t8.5 12.5t9 12.5t15.5 20.5t16.5 19.5t13 8.5q4 0 11 -3t13.5 -6.5t11 -7.5t5.5 -7t3.5 -27.5t4.5 -56t2.5 -62t-3.5 -45.5q-2 -10 -6 -30.5t-9.5 -46t-11 -52.5t-11 -49.5t-10.5 -37.5t-8 -16q-5 -2 -22 -3.5t-38.5 1.5t-42.5 14t-33 35q-6 12 -10.5 33 t-7.5 47.5t-4.5 56.5t-2.5 59zM465 79q3 -9 7 -15q3 -5 5.5 -8t4.5 2t4 16t4 24l6 32l-5 67l-26 -71v-47z" />
<glyph unicode="&#xe13;" horiz-adv-x="944" d="M30.5 712q-0.5 6 1.5 10q2 5 19.5 21.5t38.5 35.5q25 22 56 49q16 7 31 10q13 2 26.5 1t23.5 -11q47 18 90 30q37 11 75.5 18t62.5 3q23 -5 36 -8t19.5 -6t9 -6.5t5.5 -7.5q2 -3 5.5 -18.5t7.5 -39.5t8.5 -53.5t7 -59.5t3.5 -58t-1 -49q-3 -32 -3.5 -52t1.5 -32 q1 -14 4 -21q2 -8 3 -21q1 -11 0.5 -28.5t-3.5 -42.5q-4 -25 -7 -52.5t-5 -50.5q-3 -27 -4 -55q27 32 58 58q26 23 59 43t66 25q-5 47 -9 86q-4 33 -7 61.5t-5 31.5q-1 2 -2 17.5t-1.5 38t-1 49.5t-1 51.5t-1.5 43.5t-1 26q-1 10 -1 27t-0.5 36t-3 37t-7.5 31 q-5 14 -1.5 18.5t11.5 6.5q8 1 21 -1q7 -10 13 -21q5 -9 9 -19.5t4 -20.5t-0.5 -39t-1 -62t-0.5 -61.5t2 -37.5q1 -6 2.5 -29t4 -54.5t5 -66.5t5.5 -64.5t6.5 -49t7.5 -19.5q5 -1 22 -1t37 -4t38 -15t25 -33t10.5 -56.5t3.5 -69.5t-3.5 -65t-10.5 -43q-8 -13 -16.5 -26 t-18 -24t-20.5 -17.5t-23 -5.5t-22 19.5t-18 41.5q-9 26 -16 59l-31 181q-29 -15 -54 -28q-21 -12 -39.5 -24.5t-22.5 -20.5t-15 -25.5t-22.5 -39.5t-21 -46.5t-10.5 -45.5q-1 -22 -12.5 -25t-25.5 2q-16 5 -36 19q6 0 11 3q4 2 7.5 5.5t2.5 9.5q0 4 -1 26.5t-1.5 55.5 t0.5 73t4 79.5t9 74.5t15 59q-3 107 -8 191q-2 36 -5 70t-6.5 61t-7.5 44t-9 17q-10 1 -31.5 -0.5t-44 -3t-41 -2.5t-22.5 0t-18 -2.5t-29 -9t-26.5 -12.5t-9.5 -14q1 -7 6 -38.5t8 -73t3 -85t-7 -74.5q-8 -32 -13.5 -60t-9.5 -50q-4 -26 -7 -47q13 -4 23 -10q8 -5 14 -14 t1 -23t-12.5 -29t-16.5 -29t-17.5 -24.5t-14.5 -14.5t-16 -8.5t-20.5 -4.5t-19 7t-11.5 28q-3 20 -3.5 26.5t0.5 5.5t4 -9q26 76 44 146q8 30 15 61.5t11.5 61t5.5 56t-2 46.5q-8 40 -7.5 70t2 49t-0.5 25t-14 -3t-28.5 -24t-34.5 -29.5t-36.5 -25.5t-33.5 -11t-23.5 4 t-12.5 9.5t-4.5 11.5zM774 318q12 -65 23 -118q4 -23 8.5 -45t8 -40.5t5.5 -31.5t2 -17q0 -8 7.5 4.5t16 36t14 54.5t1.5 61t-7.5 50.5t-11.5 32.5t-23.5 15.5t-43.5 -2.5z" />
<glyph unicode="&#xe14;" horiz-adv-x="683" d="M18 193.5q0 43.5 11 86.5q26 105 60 206t91 192q40 64 99.5 107t140.5 48q25 1 52 -4.5t51 -20t43 -37.5t28 -56q43 -158 58.5 -316.5t11.5 -320.5q-10 -1 -19.5 -4.5t-20.5 -3.5q-7 0 -15.5 1.5t-14.5 8.5q-2 85 -3.5 168.5t-5.5 168.5q-4 75 -19.5 146.5t-38.5 143.5 q-9 31 -22.5 48t-31 23t-39 3t-46.5 -12q-61 -23 -102 -67.5t-71 -99.5q-48 -88 -77 -181.5t-49 -190.5q-7 -35 -3.5 -69t18.5 -66q11 -23 24.5 -29t36.5 5q14 6 28 16t23 22q23 32 40.5 66t23.5 73q8 48 15.5 94.5t14.5 94.5q2 17 1.5 35t-0.5 35q-19 6 -34 10.5t-29 9.5 q-10 39 25 55q17 8 32.5 3.5t28.5 -15.5q25 -20 37 -47.5t10 -59.5q-5 -100 -28.5 -194.5t-76.5 -181.5q-19 -32 -48.5 -50t-68.5 -20q-97 -4 -127 90q-14 43 -14 86.5z" />
<glyph unicode="&#xe15;" horiz-adv-x="633" d="M10 281q0 33 2 69.5t7.5 73t15 72.5t24.5 69q29 65 60 109.5t59 71.5t50.5 39t33.5 12t20.5 -11t17.5 -23.5t14 -22t10 -6.5t13 -1t19 -9q11 -7 24 -16q13 37 29 66q14 25 32.5 46t41.5 21q22 0 40.5 -26.5t33 -62.5t24.5 -72.5t16 -55.5q1 -2 1 -4.5t1 -6.5q2 -17 3 -50 t1 -76v-92t-1 -98q-2 -114 -5 -248q-1 -28 -9 -32t-18 3q-11 7 -25 26l11 342q3 27 1.5 59t-5.5 65t-10 66.5t-13 63.5q-16 71 -39 144q-17 -2 -31 -16t-24.5 -35t-18.5 -47.5t-14 -53.5q-13 -63 -19 -143q-13 2 -22 2q-8 0 -14 -2t-4 -7q0 -3 -3 -22t-9 -48t-13.5 -65 t-15.5 -73q-19 -87 -44 -197q-12 -26 -29 -44q-14 -16 -35.5 -28t-49.5 -9q-28 2 -50.5 23t-39.5 44q-19 27 -35 62q-9 77 -9 154zM63 276q1 -68 11.5 -112t23.5 -70q15 -31 33 -46q7 -2 16 -2q8 0 17 1.5t19 8.5q7 4 14.5 23.5t15.5 47t15.5 58.5t13.5 59t10.5 48t6.5 25 q2 8 5.5 26t5.5 38q3 23 6 49q-20 -20 -33.5 -27.5t-23.5 -9.5q-11 -2 -19 3q-13 4 -24 10q-10 5 -19.5 13t-14.5 19t-5.5 23t5 30.5t16.5 45t29 66.5q18 39 37.5 55t36.5 19q19 4 38 -5q-6 19 -12 35q-5 14 -11.5 25.5t-14.5 13.5t-11.5 0t-10 -9.5t-19 -23t-37.5 -40.5 q-24 -25 -46.5 -65t-39 -91t-26 -112.5t-8.5 -128.5zM193.5 448q0.5 -14 8.5 -13t18.5 12.5t20.5 28t19 35t15 35.5t7 32t-1 28q-2 14 -6 28q-10 -2 -18.5 -12.5t-16 -24t-13.5 -27.5t-10 -23q-5 -10 -11 -29t-9.5 -37.5t-3 -32.5z" />
<glyph unicode="&#xe16;" horiz-adv-x="812" d="M25 546.5q-6 13.5 8 39.5v-1q5 10 21.5 26t40 35t51.5 39.5t57 40.5q67 47 149 99q55 16 100 16q29 0 49.5 -6t34.5 -14q16 -9 26 -20q14 -9 29.5 -29t31.5 -47t32 -58.5t31 -62.5q17 -36 35 -70.5t32 -55.5v-1q10 -15 18.5 -38t16 -49.5t14 -55t11.5 -56.5 q11 -65 20 -137q-6 -7 -12 -11q-5 -5 -11.5 -8t-11.5 -3q-12 0 -20.5 14t-6.5 55q2 30 -5 67t-18 74.5t-23 70.5t-20 54l-10 24q-3 8 -12.5 27.5t-23.5 45.5t-30 55.5t-32 57.5t-30 51t-23 37q-10 17 -25.5 23t-31.5 6q-10 0 -21 -2l-22 -4q-8 -2 -16 -3t-15 -1 q-8 0 -32 -11.5t-55.5 -29.5t-65.5 -39t-61.5 -40t-44 -33t-12.5 -18q9 -6 24.5 -18t32.5 -30t34 -41.5t29 -51.5q5 -12 7.5 -26.5t2.5 -28.5q0 -23 -6.5 -52t-14.5 -55q-9 -31 -20 -62q13 -3 32.5 -15t35.5 -42q7 -15 10.5 -27t3.5 -24q0 -23 -12 -42.5t-37 -44.5 q-16 -14 -33.5 -20t-34.5 -6q-9 0 -19 2t-18 4q-10 3 -19 6q-3 -5 -9 -14l-12 -18t-12 -16.5t-10 -10.5q-9 -7 -17 -1.5t-14 14.5q-7 11 -12 25q8 7 13 13q5 5 7 10t-2 7q-8 5 -3.5 23.5t12.5 38.5q10 23 25 51q-15 -3 -26 1q-9 3 -15 11t0 27q4 13 19.5 22.5t33.5 17.5 q20 8 46 15q4 10 12.5 31.5t16.5 47t13.5 52.5t4.5 48q-2 24 -11.5 46t-21.5 38.5t-24.5 27t-19.5 12.5q-6 2 -15.5 -1t-18.5 -8q-11 -6 -23 -14q-22 0 -35 6q-11 5 -17 18.5zM183 80q11 2 25.5 9t24.5 14q8 5 11.5 17t3.5 25q0 7 -1 13t-2 11q-7 17 -14.5 23.5t-14 7 t-11.5 -1.5t-6 -3q2 0 8.5 -4t14 -8.5t13.5 -9.5t8 -7q2 -4 -7 -18t-21 -29q-14 -18 -32 -39z" />
<glyph unicode="&#xe17;" horiz-adv-x="1044" d="M-39 631q-3 7 0 19t10.5 27t18 32.5t22.5 34.5q27 40 63 87q36 29 74 47q32 15 70 21.5t71 -11.5q33 -19 55 -53t36 -68q16 -40 26 -84q34 62 74 110q17 21 37.5 40.5t44 34.5t49 24t53.5 9q55 -2 94.5 -17.5t65.5 -34.5q30 -22 51 -49q25 -19 47 -54q19 -30 37 -80 t27 -126t16 -153t11 -139.5t2.5 -102t-9.5 -39.5q-9 0 -21.5 1.5t-24.5 6.5t-20.5 14t-8.5 24q-3 140 -10 256q-3 49 -7.5 98t-10.5 90.5t-13.5 71.5t-17.5 41q-20 22 -33 45.5t-33.5 42t-53.5 28.5t-92 5q-29 -3 -53.5 -15t-44.5 -31t-35.5 -41.5t-27.5 -46.5 q-28 -55 -44 -124q-8 -35 -13 -72q-5 -32 -8.5 -71t-1.5 -78q1 -39 3 -80t2.5 -76.5t-0.5 -62t-5 -36.5t-4.5 -26.5t-1.5 -32t-3.5 -27t-9.5 -11.5q-8 0 -18.5 5t-20.5 11q-11 7 -23 16q-2 38 -1 79q1 35 5 79t15 90q-9 67 -14 123q-2 24 -4 48.5t-3 45.5t-1.5 37.5 t1.5 25.5q2 11 0 32.5t-6 46.5t-10 51.5t-12 47t-12 33t-10 11.5q-4 -2 -14.5 -15.5t-24.5 -33t-31 -42.5t-34.5 -43.5t-35.5 -35.5t-33 -19q-12 -8 -24 -13q-11 -5 -24 -9t-27 -4q-27 0 -53 19t-38 46zM41 626q34 20 62 39q24 16 45.5 33.5t28.5 28.5q6 12 18 25.5l24 27 t21 26t8 22.5q-25 3 -51 -5q-22 -7 -48 -25.5t-49 -57.5q-23 -40 -35.5 -62.5t-17.5 -33.5q-6 -13 -6 -18z" />
<glyph unicode="&#x2219;" horiz-adv-x="1044" d="M-39 631q-3 7 0 19t10.5 27t18 32.5t22.5 34.5q27 40 63 87q36 29 74 47q32 15 70 21.5t71 -11.5q33 -19 55 -53t36 -68q16 -40 26 -84q34 62 74 110q17 21 37.5 40.5t44 34.5t49 24t53.5 9q55 -2 94.5 -17.5t65.5 -34.5q30 -22 51 -49q25 -19 47 -54q19 -30 37 -80 t27 -126t16 -153t11 -139.5t2.5 -102t-9.5 -39.5q-9 0 -21.5 1.5t-24.5 6.5t-20.5 14t-8.5 24q-3 140 -10 256q-3 49 -7.5 98t-10.5 90.5t-13.5 71.5t-17.5 41q-20 22 -33 45.5t-33.5 42t-53.5 28.5t-92 5q-29 -3 -53.5 -15t-44.5 -31t-35.5 -41.5t-27.5 -46.5 q-28 -55 -44 -124q-8 -35 -13 -72q-5 -32 -8.5 -71t-1.5 -78q1 -39 3 -80t2.5 -76.5t-0.5 -62t-5 -36.5t-4.5 -26.5t-1.5 -32t-3.5 -27t-9.5 -11.5q-8 0 -18.5 5t-20.5 11q-11 7 -23 16q-2 38 -1 79q1 35 5 79t15 90q-9 67 -14 123q-2 24 -4 48.5t-3 45.5t-1.5 37.5 t1.5 25.5q2 11 0 32.5t-6 46.5t-10 51.5t-12 47t-12 33t-10 11.5q-4 -2 -14.5 -15.5t-24.5 -33t-31 -42.5t-34.5 -43.5t-35.5 -35.5t-33 -19q-12 -8 -24 -13q-11 -5 -24 -9t-27 -4q-27 0 -53 19t-38 46zM41 626q34 20 62 39q24 16 45.5 33.5t28.5 28.5q6 12 18 25.5l24 27 t21 26t8 22.5q-25 3 -51 -5q-22 -7 -48 -25.5t-49 -57.5q-23 -40 -35.5 -62.5t-17.5 -33.5q-6 -13 -6 -18z" />
<glyph unicode="&#xe18;" horiz-adv-x="628" d="M22 615q0 20 2 40t4 37q3 19 7 38q12 19 24 37q11 15 23 31t25 27q12 11 28.5 15.5t30.5 6.5q17 2 35 0q43 -21 82 -37q33 -14 65.5 -24t49.5 -7q15 2 38 21t45 42q26 26 53 58q12 -1 23 -5q9 -4 16 -12t9 -22q1 -12 -20 -35.5t-52 -47.5t-64.5 -42t-56.5 -19h1 q-22 -2 -57 8.5t-68 24.5q-40 16 -82 37q-26 -14 -44 -38.5t-29 -47.5q-13 -28 -22 -58q28 16 61.5 26.5t65 16.5t58.5 8.5t44 2.5q9 0 22.5 -6.5t29.5 -17t33 -23.5t34 -27q39 -33 83 -74q36 -54 49.5 -110t13.5 -110q0 -50 -8.5 -97.5t-16.5 -85.5q-2 -9 -4 -18.5 t-4 -19.5q-7 -35 -18.5 -53.5t-24.5 -27t-26 -9.5t-22 0q-2 0 -3 0.5t-3 0.5q-11 0 -32 6l-42 12l-34 11h1q-9 2 -20 0.5t-26 -4.5t-35 -6t-49 -4q-29 -2 -45.5 2t-24.5 9q-10 5 -12 13q0 10 -0.5 32.5t-0.5 39.5v20t1 14l27 172q3 -7 11.5 -10.5t18.5 -4t19.5 2t15.5 7.5 q-2 -3 -4 -15t-4.5 -29t-4.5 -37.5t-4 -41.5q-4 -49 -9 -110l85 8h-1q6 1 19.5 0t30.5 -3t36.5 -4.5t37.5 -4.5q20 -3 36.5 -5t21.5 -2t10 18.5t15 60.5q4 17 9 37t12 45v-1q10 40 10 80q0 54 -11.5 95t-20.5 66v-1q-4 8 -6 14.5t-3 9.5q-5 10 -30.5 30.5t-55.5 41.5 q-35 25 -78 52q-29 2 -66 -7t-70 -21q-39 -14 -78 -32q-2 -3 -7 -9.5t-13 -11t-19 -5.5t-24 8q-10 7 -13.5 22.5t-3.5 35.5zM160 336q-7 10 5 26l-2 -5q-1 -2 -1 -6q-1 -3 -1 -6.5t-1 -8.5z" />
<glyph unicode="&#xe19;" horiz-adv-x="748" d="M27 381q2 24 8 45q4 10 6.5 20t5.5 21q12 35 25.5 72t30.5 72q19 36 45 70t60 60l3 3t3 4q5 11 13 17l-1 -1q5 5 12.5 10t15.5 5q7 -2 14 -7.5t9 -13.5q13 -25 15.5 -52.5t4.5 -53.5q0 -3 0.5 -6t0.5 -6q3 -66 5.5 -134t4.5 -134l3 -67l2 -65q0 -4 1 -6q11 23 24 45.5 t34 42.5q6 6 12.5 13t11.5 15l9 11q14 14 29.5 25.5t34.5 16.5h-1q19 5 28 9q0 2 0.5 5t0.5 5q-7 75 -13.5 153.5t-14.5 153.5q-1 8 -2.5 16.5t-3.5 16.5l-3 17q-2 8 -6 22.5t-6 23.5q19 2 29.5 2.5t17 -2.5t10 -9.5t7.5 -17.5q10 -27 13 -54.5t5 -53.5q5 -61 10.5 -125 t11.5 -126l3 -13h19q20 1 41 -5.5t39.5 -19t33 -29.5t22.5 -36q7 -17 9 -33.5t2 -33.5q0 -10 -0.5 -21t-1.5 -22q-2 -33 -10 -66.5t-25 -64.5q-8 -16 -21 -25.5t-32 -9.5t-35.5 9.5t-24.5 27.5l-3 8q-6 19 -12.5 37.5t-11.5 36.5q-7 26 -12.5 53t-11.5 53l-13 67q0 6 -2 12 v3q-12 0 -23.5 -6.5t-19.5 -14.5q-29 -29 -54 -61.5t-39 -69.5q-11 -32 -22 -68.5t-15 -73.5q-2 -11 -4 -22.5t-4 -22.5q-6 -28 -37 -25q-11 2 -18 10t-7 21q0 2 -0.5 3t-0.5 3v7l-6 152l-5 151q-1 26 -2 53t-3 53l-5 111q-2 -5 -4 -9t-4 -7q-8 -16 -16 -33.5t-20 -37.5 q-29 -45 -60 -90l-22 -30l1 1q-3 -5 -8.5 -9.5t-10.5 -7.5q-22 -19 -50 -5q-12 7 -16.5 18.5t-2.5 23.5zM92 416q37 53 65 113t43 124q-22 -27 -38.5 -55.5t-30.5 -58.5q-18 -38 -27.5 -70t-11.5 -53zM200 653q4 17 7 37l16 -9q-6 -7 -12 -13.5t-11 -14.5zM562 378l4 -30 q3 -23 7.5 -48t10.5 -50q7 -29 17 -61.5t21 -64.5l-1 1l7 -10l4 3l7 7v-1q11 29 18 60t7 65q0 6 -0.5 14t-1.5 15q-2 19 -6.5 37.5t-16.5 34.5q-22 31 -52 31q-6 0 -13 -1t-12 -2zM623 108q1 3 5 7q1 0 1 -0.5t1 -0.5l4 -3z" />
<glyph unicode="&#xe1a;" horiz-adv-x="812" d="M12 400q8 77 32 152q18 54 46 98.5t63.5 83t77 71t86.5 61.5q8 5 16.5 9t17.5 6q23 5 35 -6t11 -34q0 -17 -3 -32q-16 -106 -19 -212t2 -212q2 -66 1.5 -132t-0.5 -132q1 -12 1 -25.5v-32.5q36 11 67 18.5t60 18.5q25 10 50.5 18t51.5 10t53.5 -3.5t56.5 -23.5 q-2 51 -4 95.5t-4 88.5q-3 78 -6.5 156.5t-4.5 157.5q0 34 6 68t12 69q2 18 15 33q4 5 13 7.5t14 0.5q6 -3 9.5 -10.5t6.5 -14.5q1 -2 0 -4.5t-2 -4.5q-12 -40 -17.5 -80t-6 -80t1 -80.5t2.5 -80.5q2 -71 7 -141t9 -141q1 -8 1.5 -16t-0.5 -16q-1 -32 -13.5 -42.5 t-44.5 -3.5q-13 2 -25 7t-23 10q-41 23 -89 6q-54 -19 -106.5 -37t-106.5 -37q-19 -7 -30.5 1.5t-11.5 28.5q1 120 1.5 238.5t2.5 237.5l2 150t3 153q-18 0 -29.5 -13t-26.5 -27q14 -9 20 -18.5t6.5 -19.5t-3 -21t-8.5 -22q-26 -60 -50.5 -119t-52.5 -118q-12 -26 -31 -47.5 t-37 -43.5q-6 -7 -14.5 -11.5t-16.5 -8.5q-32 -13 -55 0.5t-19 48.5zM64 387q15 9 33.5 33.5t37.5 58t37 71t31.5 74t21 67t5.5 48.5q-35 -20 -67.5 -63t-57 -94.5t-36.5 -103.5t-5 -91z" />
<glyph unicode="&#xe1b;" horiz-adv-x="997" d="M18 528.5q-16 23.5 1 61.5q20 45 52 78.5t74 58.5q27 16 48.5 23.5t37.5 2t28 -27t21 -63.5q37 -175 42 -355q0 -5 0.5 -10t0.5 -11q5 2 8 2t5 2q29 44 57 87t56 87q5 7 8 14t7 14q12 29 28 31t43 -23q-35 -51 -68.5 -99t-65.5 -98q-30 -47 -45.5 -99t-25.5 -112 q129 17 252.5 13.5t249.5 -38.5q-2 23 -3 43.5t-1 40.5q1 88 2 174t3 174q2 93 2.5 184t4.5 184q4 88 11.5 173.5t12.5 172.5q2 37 1 73.5t1 72.5q2 35 5 70t8 70q7 38 44 32q40 -6 23 -41q-16 -32 -20 -65.5t-2 -67.5q4 -51 -1 -101t-10 -101q-8 -85 -11.5 -169.5 t-6.5 -169.5q-4 -118 -6 -235.5t-5 -235.5q-2 -76 -1.5 -151t16.5 -150q3 -16 -3.5 -23.5t-19.5 -8.5q-11 -1 -23 1t-23 6q-95 31 -190.5 42t-194.5 -1q-23 -3 -45 -3.5t-45 -1.5q-13 -1 -20.5 -6.5t-12.5 -20.5q-6 -23 -26.5 -27.5t-37.5 12.5q-5 5 -9 10.5t-9 10.5 t-11.5 8t-15.5 8q14 13 20.5 27t8.5 29t2 30.5t2 30.5q5 37 9.5 73t4.5 72q0 76 -10 150t-26 149q-1 3 -3.5 6t-7.5 10q-17 -20 -32 -38.5t-31 -36.5q-15 -17 -32.5 -30.5t-41.5 -14.5q-42 -2 -58 21.5zM72.5 577q1.5 -8 2.5 -16q4 -2 12 -4q24 27 46 56t29 73 q-35 -17 -54 -42.5t-34 -52.5q-3 -6 -1.5 -14z" />
<glyph unicode="&#xe1c;" horiz-adv-x="673" d="M52.5 665q0.5 16 0.5 38.5t1 49.5t3 52t3.5 44.5t4.5 27.5q0 1 0.5 7t1 13t1 12.5t1.5 6.5q0 2 6.5 2.5t14.5 -1t15 -5t9 -9.5q5 0 8.5 0.5t7.5 0.5q13 -26 25.5 -50.5t24.5 -49.5q9 -20 16.5 -41t15.5 -41q5 -14 5 -28.5t-5 -27.5q-2 -8 -8.5 -14t-13.5 -9q-2 -2 -8.5 5 t-11.5 12q-4 5 -6 11t-5 12q-3 7 -11 19t-17.5 26t-19.5 29l-18 27v-16t1 -16q10 -95 15 -193q4 -72 19.5 -141.5t30.5 -144.5q7 9 11.5 14.5t6.5 10.5q23 67 45.5 134t45.5 134q8 26 18.5 51t21.5 51q8 17 22.5 19t26.5 -12q8 -10 14 -21.5t11 -23.5q23 -62 49 -121.5 t61 -116.5q5 -7 7.5 -14.5t6.5 -14.5q8 -13 16.5 -25t18.5 -26q6 11 9.5 41.5t5.5 73t2 92.5t-2 100t-5.5 95.5t-8.5 78.5q31 8 41 0.5t12 -37.5q1 -22 3.5 -44t3.5 -44q2 -37 1.5 -73t1.5 -73q4 -63 2 -125t-10 -125q-2 -9 -5 -20t-10 -15q-11 -6 -19.5 2t-16.5 16 q-32 34 -60 70t-48 80q-21 48 -45 94.5t-47 94.5q-1 2 -4 4t-8 7q-18 -51 -35 -99l-34 -96q-16 -48 -32.5 -95.5t-29.5 -96.5t-21 -99t-17 -100q-18 2 -28.5 4t-15.5 7t-6 14t0 25q5 96 -6.5 188t-31.5 185q-11 51 -14.5 102t-9.5 103q-1 2 -0.5 18z" />
<glyph unicode="&#xe1d;" horiz-adv-x="743" d="M92 652v18t0.5 39t1.5 50t2.5 51.5t3 44t4.5 27.5q0 2 0.5 8t1 13t1 12.5t1.5 5.5q0 2 6.5 2.5t14.5 -1t15 -5t9 -9.5q5 1 8.5 1t7.5 1q13 -26 26 -50.5t24 -50.5q9 -20 16.5 -41t15.5 -41q11 -29 0 -56q-2 -7 -8.5 -13t-13.5 -10q-2 -1 -8.5 5.5t-10.5 11.5 q-5 5 -7 11.5t-5 11.5q-3 7 -11 19t-17.5 26.5t-19.5 29.5t-17 27q-2 -19 1 -34q5 -48 8.5 -96t5.5 -96q4 -72 19.5 -141.5t30.5 -144.5q7 9 11.5 14.5t6.5 11.5q23 67 45.5 134t45.5 134q9 26 19.5 51t21.5 50q8 17 22.5 19.5t25.5 -11.5q8 -10 14.5 -22t11.5 -24 q23 -62 49 -121.5t61 -116.5q4 -7 6.5 -14.5t7.5 -14.5q8 -12 16.5 -24t18.5 -26q4 8 7 46t5 96t2.5 131t-0.5 150.5t-2.5 154.5t-4 143.5t-5.5 117t-7 75.5q15 4 31 -0.5t28.5 -15t21 -24.5t9.5 -29q0 -7 -1.5 -44t-4.5 -89t-6.5 -111.5t-6 -111.5t-4.5 -89.5t-1 -44.5 q2 -36 1.5 -72.5t1.5 -72.5q7 -126 -9 -250q-2 -10 -5 -20.5t-10 -14.5q-11 -7 -19.5 1t-16.5 16q-32 35 -60 70.5t-48 79.5q-21 49 -45 95.5t-47 93.5q-1 2 -4 4t-8 7q-18 -50 -35 -98l-34 -96q-16 -48 -32.5 -95.5t-28.5 -97.5q-13 -49 -21.5 -98.5t-17.5 -100.5 q-18 2 -28 4t-15 7t-6 14.5t0 25.5q5 95 -7 187t-32 186q-11 50 -14.5 101.5t-9.5 102.5z" />
<glyph unicode="&#xe1e;" horiz-adv-x="759" d="M23 446q-14 40 1 79q11 29 21.5 58.5t24.5 58.5q16 36 34 71t36 71q11 -1 20.5 -1.5t21.5 -1.5q2 15 3 28.5t3 27.5q26 -6 36.5 -18t8.5 -33q-2 -15 -5.5 -29.5t-8.5 -28.5q-7 -18 -8.5 -35.5t0.5 -36.5q10 -95 15 -193q4 -72 19.5 -141.5t30.5 -144.5q7 9 11.5 14.5 t6.5 10.5q23 67 45.5 134t45.5 134q8 26 18.5 51t21.5 51q8 17 22.5 19t26.5 -12q8 -10 14 -21.5t11 -23.5q23 -62 49 -121.5t61 -116.5q5 -7 7.5 -14.5t6.5 -14.5q8 -13 16.5 -25t18.5 -26q6 11 9.5 41.5t5.5 73t2 92.5t-2 100t-5.5 95.5t-8.5 78.5q31 8 41 0.5t12 -37.5 q1 -22 3.5 -44t3.5 -44q2 -37 1.5 -73t1.5 -73q4 -63 2 -125t-10 -125q-2 -9 -5 -20t-10 -15q-11 -6 -19.5 2t-16.5 16q-32 34 -60 70t-48 80q-21 48 -45 94.5t-47 94.5q-1 2 -4 4t-8 7q-18 -51 -35 -99l-34 -96q-16 -48 -32.5 -95.5t-29.5 -96.5t-21 -99t-17 -100 q-18 2 -28.5 4t-15.5 7t-6 14t0 25q5 96 -6.5 188t-31.5 185q-11 51 -14.5 102t-9.5 103q-2 7 -4 15t-5 22q-18 -34 -33.5 -62t-29.5 -56q-4 -8 -7 -16.5t-8 -15.5q-6 -8 -15 -17t-13 -7q-10 5 -19 13.5t-13 18.5z" />
<glyph unicode="&#xe1f;" horiz-adv-x="869" d="M47 559q0 18 17 47l18 28t20 26q27 29 52 57.5t42 64.5q7 13 19 23t23 21q17 15 34.5 11t22.5 -26q7 -30 13 -60t9 -60q5 -57 7 -113t4 -113q3 -62 15 -121t29 -118q1 -3 9 -8q3 5 5.5 9.5t4.5 9.5q20 69 40 137.5t40 137.5q10 33 20.5 65.5t21.5 64.5q8 21 19.5 25.5 t30.5 -8.5q17 -11 27 -31q22 -45 43.5 -89t41.5 -89q20 -43 40 -85t40 -85q4 -8 9.5 -14.5t15.5 -20.5q0 32 1 57t-1 49q-4 63 -5.5 124.5t3.5 124.5q4 40 2 79.5t-5 79.5q-2 19 -6 37.5t-10 35.5q-29 81 -34 163t9 167q1 12 3.5 24t22.5 11q13 -2 22 -16.5t7 -30.5 q-2 -14 -5.5 -27.5t-5.5 -27.5q-11 -61 -5 -120t24 -117q27 -87 27 -176q0 -94 1 -188t3 -188q2 -52 4.5 -103.5t4.5 -103.5v-38q-19 -5 -29.5 3t-18.5 19q-5 8 -9.5 17t-6.5 18q-11 59 -36 111.5t-51 106.5q-27 57 -53.5 114.5t-53.5 114.5q-4 8 -9 15t-13 20 q-26 -77 -49 -148.5t-42 -144.5q-18 -72 -32.5 -144t-30.5 -145q-20 -2 -30 7t-14 25q-5 17 -7 32.5t-6 32.5q-11 50 -21.5 99t-23.5 98q-17 67 -20.5 134.5t-8.5 136.5l-9 117l-6 2l-6 2q-7 -9 -13 -18l-12 -18q-22 -29 -43 -59t-44 -57q-21 -26 -40.5 -30t-36.5 8 q-15 11 -15 29z" />
<glyph unicode="&#xe20;" horiz-adv-x="748" d="M48 768q51 39 106.5 71t116.5 54q45 16 90 29t91 27q28 8 51 -2t43 -27q27 -23 44 -52t21 -64q8 -60 13 -120.5t10 -121.5q9 -103 16.5 -206t17.5 -206q3 -32 12.5 -62t17.5 -60q-57 -24 -64 28q-9 58 -18 115.5t-13 115.5q-8 110 -12 219t-12 219q-3 34 -11.5 67 t-19.5 65q-11 30 -28 37.5t-49 2.5q-60 -10 -115.5 -28.5t-109.5 -42.5q1 -5 0.5 -8t1.5 -4q38 -32 42.5 -70t-7.5 -81q-19 -69 -37.5 -136.5t-37.5 -135.5q-2 -5 -3.5 -12t-3.5 -13q-2 -7 -3 -15l-62 -227q-6 -9 -13 -15q-6 -5 -14 -9t-16 -2q-17 3 -23.5 15t-11.5 27 q-3 9 -3.5 15.5t-0.5 13.5v15.5v19.5q0 9 0.5 26t1.5 36t3.5 36.5t6.5 26.5q3 7 10.5 5.5t16.5 -4t17 -4t11 5.5q16 37 31 74.5t27 75.5q17 54 30 110t27 112q2 9 3 18.5t2 19.5q0 27 -16 39t-42 1q-18 -8 -34.5 -18t-33.5 -19q-25 -13 -37 -8.5t-30 31.5z" />
<glyph unicode="&#xe21;" horiz-adv-x="777" d="M54 806q2 35 24 54q21 18 47 21t50 -6t42 -28.5t23 -45.5q9 -40 16.5 -79.5t10.5 -80.5q5 -53 5.5 -105t2.5 -106q0 -9 1 -18t2 -20q8 -3 16.5 -6t16.5 -5q152 -27 228 -160q14 -25 28.5 -49t30.5 -47q8 -13 18.5 -24t20.5 -23q4 1 10 3q2 11 3 21t1 21q-2 91 -4.5 182 t-4.5 182q-1 33 1 65.5t4 65.5q2 29 3.5 57.5t-9.5 56.5q35 8 50.5 -3.5t13.5 -46.5q-3 -53 -7 -105.5t-3 -105.5q2 -106 6.5 -209.5t7.5 -209.5q1 -10 -0.5 -22t-8.5 -18q-11 -11 -24 -7.5t-25 11.5q-78 50 -124 128q-20 32 -40.5 64.5t-46.5 61.5q-31 35 -72 52t-92 22 q-2 -11 -3.5 -20.5t-2.5 -19.5q-5 -48 -12 -94t-36 -86q-15 -21 -32 -38q-31 -28 -67 -11q-18 8 -24.5 23t-7.5 32q-1 35 8 67.5t23 62.5q15 31 33 59t47 48q6 5 9 14.5t3 17.5q4 94 0.5 186.5t-26.5 185.5q-4 15 -3 21.5t1.5 9.5t-2.5 5t-13 10q-11 -19 -18 -38.5 t-12 -39.5l-10 -40t-13 -40q-14 -3 -30 20.5t-26 57.5t-8 69zM154 138q28 26 37 59.5t9 70.5q-26 -28 -36.5 -60.5t-9.5 -69.5z" />
<glyph unicode="&#xe22;" horiz-adv-x="783" d="M41 573q10 53 30 107.5t49 99.5q13 19 30 36.5t37 31t43 21.5t49 8q15 0 31 -5.5t30 -14.5l-1 1q21 -14 21 -35q0 -25 -27 -38q-29 -15 -60 -15q-11 0 -21.5 1.5t-20.5 6.5h1q-26 10 -42 -15q-32 -45 -51 -98t-30 -108q-3 -19 16 -28q22 -8 44 -8q19 0 40 6q20 5 40 11 l40 12q14 4 28.5 8t28.5 8l11 2h-3q15 4 35 6q8 0 17.5 -6t11.5 -13v1q4 -6 1.5 -16t-7.5 -15q-8 -10 -16.5 -20t-18.5 -18h1l-24 -25q-55 -62 -100.5 -129.5t-69.5 -150.5l-6 -23v1q-4 -14 -7 -29l-6 -30q-8 -37 29 -30q24 5 48 11t44 18q85 47 153.5 111.5t120.5 142.5 q38 61 61 133.5t35 143.5q6 37 10 75t7 76q2 19 3.5 38.5t3.5 38.5q2 16 4 31.5t6 28.5q2 11 9 18l6 7l12 1q17 -11 25.5 -23t7.5 -31q-4 -28 -7 -55l-6 -54q-5 -46 -10 -91.5t-12 -91.5q-8 -47 -23.5 -95.5t-37 -95t-49 -89t-58.5 -78.5q-41 -45 -86 -86t-96 -72 q-29 -18 -62 -33t-68 -29q-20 -9 -45 -9q-15 0 -29.5 3.5t-28.5 13.5q-21 14 -30.5 34t-1.5 45q11 39 23 80t28 85q18 47 47 88.5t59 79.5q8 9 14.5 18t12.5 20l-16 -4l1 1q-24 -8 -46 -11.5t-45 -3.5q-8 0 -18.5 0.5t-19.5 1.5q-11 1 -23.5 4t-23.5 8q-36 16 -48 37t-4 61z " />
<glyph unicode="&#xe23;" horiz-adv-x="656" d="M-18 598q-13 17 3 48q20 37 42 72.5t49 67.5q26 31 52.5 46t56 23t62.5 13.5t72 19.5q11 4 32 8.5t44 9.5t44 9.5t32 7.5q14 4 20.5 0.5t10.5 -13t7 -24t10 -33.5q-60 -11 -118 -16t-111 -16.5t-99.5 -33.5t-84.5 -67q-14 -16 -24.5 -35.5t-25.5 -42.5q24 -4 40.5 -8 t32.5 -4q57 2 113.5 3.5t113.5 6.5q95 9 164.5 -28.5t102.5 -132.5q16 -48 10 -94t-29 -90q-30 -60 -62 -118t-66 -115q-11 -17 -27 -32.5t-34 -25.5q-17 -9 -33 -10t-29.5 6t-23 20.5t-11.5 31.5q-8 58 0 114q2 13 11 26t20 20q16 9 30.5 0.5t26.5 -20.5q9 -10 18 -20.5 t22 -24.5q14 24 27.5 44.5t24.5 41.5q17 35 34.5 70.5t31.5 72.5q20 50 7 93t-44 83q-15 19 -35 29t-46 8q-11 0 -21.5 0.5t-21.5 -1.5q-72 -8 -143 -9.5t-143 5.5q-22 2 -43.5 0.5t-43.5 -2.5q-35 -1 -48 16z" />
<glyph unicode="&#xe24;" horiz-adv-x="858" d="M53 641q18 25 39 45t44.5 36.5t48 31.5t48.5 31q11 8 22.5 12.5t23.5 8.5q34 9 65.5 23t63.5 31q42 23 86.5 36.5t90.5 21.5q20 3 35 -5.5t23 -25.5q10 -21 17.5 -43t12.5 -45q9 -42 16 -82.5t13 -82.5q5 -32 9 -62.5t5 -61.5q3 -117 4.5 -232.5t3.5 -232.5 q1 -61 0.5 -122.5t4.5 -122.5q3 -52 11.5 -103t15.5 -102q2 -15 3.5 -30t3.5 -30q-27 -7 -36 -1.5t-12 27.5q-15 114 -25 227t-8 228q2 131 -0.5 259.5t-4.5 259.5q0 37 -8 77l-18 102t-20 102q-3 14 -7.5 27.5t-9.5 27.5q-41 4 -78 -12q-59 -26 -118 -50.5t-119 -49.5 q-28 -11 -52.5 -27.5t-49.5 -32.5q0 -2 2 -8q8 2 15.5 3t15.5 3q31 8 56.5 -2.5t48.5 -26.5q15 -10 21.5 -26.5t7.5 -35.5q2 -35 -5.5 -68t-18.5 -65q-19 -54 -41 -105.5t-50 -101.5q-13 -23 -23.5 -47t-20.5 -49q-9 -19 -4 -46q9 8 17.5 16.5t17.5 16.5q11 9 23 12.5 t27 -4.5t21 -21t7 -28q1 -25 -12 -45.5t-33 -33.5t-44.5 -16t-46.5 8q-25 12 -36 32t-6 52q4 23 11 46.5t17 45.5q15 35 33 68t34 68q25 54 49 108t37 113q1 3 1.5 5.5t1.5 5.5q21 102 -80 77q-32 -8 -63.5 -18t-63.5 -21q-14 -5 -22.5 -6.5t-14.5 1.5t-11 11.5t-12 23.5z " />
<glyph unicode="&#xe25;" horiz-adv-x="654" d="M51.5 219q-0.5 21 4.5 42q14 64 40 123t61 114q39 61 80 120t91 113q38 41 83 71q24 17 49.5 18t48.5 -20q14 -13 28 -26.5t22 -30.5q21 -45 37.5 -91.5t24.5 -97.5q5 -39 -1.5 -77t-10.5 -76q-7 -60 -14.5 -120t-14.5 -120q-4 -30 -6 -59.5t-6 -59.5q-2 -11 -4 -22.5 t-16 -15.5q-11 -3 -22 7t-17 27q-5 15 -5 29q-3 42 -4.5 83t-6.5 82q-4 32 -10.5 63.5t-17.5 60.5q-14 38 -48.5 49.5t-71.5 -7.5q-26 -13 -46 -31t-34 -43q-14 -26 -27.5 -52.5t-27.5 -52.5q13 -9 23 -15.5t20 -14.5q-9 -36 -29.5 -64.5t-38.5 -58.5q-2 -4 -7 -7t-10 -4 q-6 -2 -12.5 -5t-13 -4.5t-13 -0.5t-12.5 8q-11 12 -7.5 24t8.5 24q21 56 41.5 111t42.5 111q13 30 33.5 54t46.5 43q34 24 67 31t63.5 -1t56.5 -30t45 -57l24 -45q2 0 3 0.5t3 0.5q4 20 7.5 39t5.5 39q4 38 9 76t4 76q-1 50 -17 95.5t-37 90.5q-9 19 -25 25t-36 -2 q-12 -5 -24 -12t-21 -17q-24 -25 -46.5 -50.5t-43.5 -52.5q-59 -75 -109 -154t-86 -168q-5 -13 -8 -26t-8 -26q-11 -33 -24 -63q-2 -4 -7.5 -6t-12.5 -6q-13 21 -13.5 42z" />
<glyph unicode="&#xe26;" horiz-adv-x="1013" d="M0 598q20 14 40 29.5t41 27.5q70 42 141.5 79.5t144.5 72.5q51 24 102 38.5t105 22.5t106 -1t103 -30q38 -16 59.5 -50t23.5 -87q2 -54 7 -108t4 -108q-1 -102 -5 -203t-7 -203q-2 -31 -3 -61.5t-2 -62.5q-3 -78 -5.5 -156.5t-4.5 -156.5q-1 -16 1.5 -31.5t4.5 -32.5 q1 -10 0 -21t-12 -12q-8 0 -17.5 5t-13.5 13q-12 28 -12 62q1 67 2.5 133.5t4.5 133.5q2 67 6 133.5t7 133.5q3 88 6.5 175.5t4.5 175.5q1 54 -3.5 108t-7.5 108q-2 37 -19 56.5t-44 27.5q-47 13 -93 17t-94 -5q-81 -17 -157.5 -48.5t-151.5 -70.5q-5 -3 -10 -6.5t-10 -7.5 q-2 -2 -4.5 -5t-10.5 -11q18 -1 31.5 -7.5t24.5 -17t20.5 -22.5t18.5 -24q15 -20 23.5 -48t16.5 -55q22 -73 14 -142.5t-34 -138.5q-17 -45 -35 -89t-35 -89q-3 -7 -9.5 -13.5t-14.5 -10.5t-16.5 -5.5t-14.5 0.5q-17 8 -25 26t-3 40q3 11 5.5 22t5.5 22q4 18 7.5 27t9 12.5 t14.5 1.5t26 -6q20 37 34.5 77.5t26.5 82.5q10 32 15 66t0 69q-6 50 -21.5 94t-48.5 77q-16 16 -34 16t-35 -4t-32.5 -11t-32.5 -14q-20 -9 -38.5 -19t-38.5 -18q-9 -4 -15.5 -5t-11.5 1.5t-10.5 10t-14.5 20.5z" />
<glyph unicode="&#xe27;" horiz-adv-x="731" d="M36 605q-3 49 10 94t40 81t67 60.5t93 33.5q73 12 144.5 5t137.5 -43q50 -28 88 -68t51 -100q16 -76 17.5 -151t-17.5 -150q-22 -80 -51 -163q-12 -31 -34 -53t-53 -36q-33 -15 -64.5 -33.5t-66.5 -31.5q-43 -16 -87.5 -29t-90.5 -22q-19 -4 -39.5 0.5t-40.5 9.5 q-18 4 -22.5 16t-2.5 29q8 55 38 93.5t69 70.5q24 20 50 38.5t52 37.5q49 36 103.5 37t105.5 -34q5 -4 12 -8t18 -10q37 101 43.5 198t-19.5 197q-16 61 -57.5 97.5t-98.5 50.5q-51 13 -104.5 10t-104.5 -30q-28 -15 -50.5 -37.5t-37 -49.5t-20 -57t0.5 -60q10 -6 21 -13 l22 -14q-21 -25 -37 -29.5t-44 3.5q-23 7 -31 23t-10 37zM200 58q21 -2 51.5 5t64.5 19.5t69 29t65 34.5t52.5 36t31.5 34q-8 8 -16.5 14.5t-16.5 14.5q-15 13 -28 20.5t-25.5 9t-26 -3t-30.5 -15.5q-42 -27 -80.5 -58t-76.5 -63q-17 -14 -26.5 -33.5t-7.5 -43.5z" />
<glyph unicode="&#xe28;" horiz-adv-x="731" d="M36 548q6 67 25 129t59 118q41 58 93 68.5t118 -16.5q16 -7 32.5 -14.5t37.5 -17.5q46 69 89.5 135.5t86.5 132.5q13 20 22.5 41.5t20.5 42.5q6 12 10 23.5t4.5 22.5t-4 22.5t-15.5 22.5q34 7 52 -13.5t8 -53.5q-6 -20 -13 -40t-17 -38q-28 -51 -57 -100.5t-59 -99.5 q-18 -30 -38 -58.5t-39 -57.5q5 -6 7 -9.5t5 -4.5q22 -6 37 -18t25 -27.5t17 -33.5t12 -37q42 -149 59.5 -300.5t19.5 -306.5q0 -9 0.5 -19t-3.5 -18q-3 -8 -10.5 -13t-13.5 -11q-5 6 -11 11t-8 12q-4 12 -4.5 25t-0.5 26q-2 95 -7.5 188.5t-22.5 187.5q-11 55 -23 109 t-26 108q-4 15 -9.5 29t-14.5 25.5t-22.5 19t-34.5 9.5q5 -13 9 -24l8 -22q-5 -3 -8 -6t-5 -3q-25 3 -42.5 -7.5t-33.5 -29.5q-15 -18 -21.5 -38t-8.5 -43q-3 -41 -5.5 -81.5t-2.5 -81t4 -81t15 -80.5q9 -35 22.5 -68.5t26.5 -68.5q3 -6 6.5 -12t5.5 -13q8 -20 4 -31 t-24 -17q-16 -5 -34 -7.5t-34 0.5q-91 19 -149.5 72.5t-83.5 142.5q-20 73 -32 147t-4 151zM96 573q-15 -94 0.5 -184t45.5 -178q14 -38 40.5 -66t61.5 -48q20 -12 42 -15.5t44 9.5q-14 42 -27.5 81t-23.5 79q-17 69 -19 137.5t4 139.5q1 15 3.5 30.5t0 30t-12 26 t-31.5 18.5q-10 3 -12 14.5t6 22.5q6 8 14 14t21 -4q3 -2 8 -3.5t11 -3.5q17 50 67 71q8 4 15 14.5t18 24.5q-23 8 -39.5 16.5t-33.5 10.5t-34 3t-32.5 -2t-30 -12t-25.5 -27q-30 -46 -51.5 -95.5t-29.5 -103.5z" />
<glyph unicode="&#xe29;" horiz-adv-x="872" d="M-21 405q8 77 32 152q18 53 46 97.5t63.5 83t77 71t86.5 62.5q17 11 34 15q23 5 35 -6t11 -34q0 -17 -3 -33q-16 -106 -19 -211.5t2 -212.5q2 -66 1.5 -131.5t-0.5 -131.5v-59q37 11 68 19t60 19q25 10 50.5 17.5t51.5 10t53.5 -3.5t56.5 -23q-2 51 -4 95l-4 88 q-4 79 -7 157.5t-4 156.5q0 35 6 69l12 68q1 9 5 18t9 16q5 5 14 7t14 0q6 -2 9 -10t7 -14q1 -2 0 -4.5t-2 -4.5q-12 -40 -17.5 -80t-6 -80.5t1 -81t2.5 -80.5q2 -70 6.5 -140t9.5 -141q1 -8 1 -16v-16q-1 -32 -14 -42.5t-44 -3.5q-24 4 -48 17q-43 22 -89 6 q-54 -20 -107 -38t-107 -36q-18 -7 -29.5 1.5t-11.5 28.5q1 120 1.5 238t2.5 238l2 150t2 153q-17 0 -28.5 -13t-26.5 -27q14 -9 20 -18.5t6.5 -20t-3 -21.5t-8.5 -22q-26 -59 -50.5 -118.5t-52.5 -117.5q-13 -26 -31.5 -47.5t-36.5 -44.5q-6 -7 -14.5 -11t-16.5 -8 q-32 -13 -55 0.5t-19 48.5zM31 392q15 9 33.5 33.5t37.5 57.5t37 71t31.5 74t21 67t5.5 49q-35 -20 -67.5 -63t-57 -94.5t-36.5 -103.5t-5 -91zM471 279q2 24 10.5 46t17.5 43q19 42 42 77q42 60 98 12q2 -2 4.5 -4l7.5 -6l18 14t17 15q36 35 71.5 70.5t72.5 69.5 q14 13 30.5 23.5t33.5 20.5q6 4 14 5t16 3q8 -20 -7 -27q-31 -14 -53 -38t-46 -47q-34 -30 -65.5 -63t-63.5 -65t-64.5 -64t-64.5 -64q-5 -5 -9.5 -8.5t-9.5 -7.5q-17 -15 -33.5 -15.5t-36.5 10.5zM534 334l44 38t42 42q-5 9 -10.5 18t-12.5 20q-24 -28 -38.5 -57t-24.5 -61 z" />
<glyph unicode="&#xe2a;" horiz-adv-x="858" d="M29.5 92.5q-0.5 8.5 0.5 16.5q12 78 24.5 155.5t39.5 152.5q32 90 78 170.5t109 151.5q45 51 102.5 76t121.5 37q26 4 40 15.5t19 37.5q17 76 34 151t34 151q3 12 6 24.5t6 27.5q13 -5 23.5 -9t24.5 -9q-20 -94 -38.5 -187t-38.5 -188q11 -2 20.5 -4t19.5 -3 q38 -2 63 -22t37 -55q32 -87 49 -175.5t12 -182.5l-15 -264q0 -6 -1 -9q-2 -16 -5 -31.5t-23 -21.5q-16 -5 -34.5 3.5t-26.5 28.5q-11 23 -18 47.5t-13 49.5t-11 49.5t-8 50.5q-8 63 -31.5 118.5t-52.5 110.5q-7 12 -16 22.5t-20 20.5q-21 20 -36 20.5t-41 -13.5 q-14 -8 -29.5 -14t-30.5 -10q-22 -6 -37 -17.5t-29 -29.5q-51 -67 -80.5 -143t-57.5 -154q-2 -5 -2 -11.5t-1 -15.5q8 3 14.5 5t12.5 4q28 8 45 -5t19 -42q3 -51 -17 -92t-56 -76h-74q-26 27 -27.5 59t3.5 63q20 120 63.5 229.5t108.5 212.5q27 43 64 65.5t80 37.5 q16 5 27 13.5t19 22.5q10 20 20 41.5t22 47.5q-44 -6 -81 -16.5t-67 -35.5q-54 -45 -95 -98t-73 -115q-46 -88 -76.5 -178.5t-49.5 -187.5q-11 -50 -39 -92q-2 1 -5 1t-5 1q0 8 -0.5 16.5zM183 50q23 25 38 48.5t10 58.5q-13 -11 -21.5 -21t-14 -22t-8.5 -27.5t-4 -36.5z M519 662q11 -9 21 -15.5t18 -14.5q17 -17 35.5 -34t30.5 -38q28 -51 49 -104t31 -112q5 -35 13 -70l16 -70q1 -6 4.5 -11.5t5.5 -10.5q8 21 10 41.5t4 40.5q7 89 10 177.5t-13 177.5q-8 40 -18 79.5t-22 77.5q-4 14 -20 24t-35.5 14.5t-38.5 3t-30 -10.5q-2 -2 -3.5 -5.5 t-3.5 -6.5q-16 -32 -31.5 -65t-32.5 -68z" />
<glyph unicode="&#xe2b;" horiz-adv-x="591" d="M2 505q0 12 0.5 24.5t2.5 23.5q8 51 32.5 104t53.5 96q18 26 46.5 39.5t58.5 16.5q10 1 19 -3t16 -11h-1q14 -11 24 -26t12 -33q6 -45 11.5 -90.5t10.5 -91.5q1 -15 0.5 -31t-0.5 -33q-1 -9 -1 -18v-18q0 -49 -4 -103.5t-14 -101.5q-3 -14 -5 -26.5t-2 -25.5l2 4l21 51 l31 75q12 27 25 54t27 53v-1q5 11 7 24t1 25l-3 22q-5 35 -9.5 70.5t-6.5 71.5q-6 123 101 192h-1q10 7 20 9.5t21 2.5q27 0 46 -19.5t19 -51.5q0 -21 -2.5 -40t-6.5 -39q-11 -51 -29.5 -98t-44.5 -93l-13 -22q-14 -26 -19.5 -39.5t-5.5 -27.5t3 -42l3 -33 q5 -52 10.5 -105.5t11.5 -105.5q1 -8 3 -20t4 -23q3 -11 5 -24v-1q2 -8 3.5 -13t1.5 -10q5 -39 -31 -41q-16 -2 -27.5 7.5t-12.5 26.5v38l-3 50q-2 26 -3 51t-3 51t-4.5 52t-6.5 52q0 -7 -0.5 -6t-1.5 5.5t-1.5 11t-1.5 12.5q-5 -5 -8.5 -12t-5.5 -14q-22 -50 -43 -99.5 t-42 -100.5l-15 -40l-15 -42q-15 -40 -47 -32q-20 6 -28.5 19t-2.5 35v-1q9 32 12.5 64t7.5 66q2 19 4.5 39t5.5 39q8 48 12 94.5t4 93.5q0 27 -1.5 56t-4.5 57l-3 27l-2 20l-10 -16q-5 -9 -10.5 -18.5t-10.5 -17.5q-20 -34 -41.5 -67.5t-42.5 -67.5q-8 -12 -19.5 -21.5 t-29.5 -7.5t-28 14t-15 27v-1q-6 15 -8 30t-2 29zM48 498q0 -1 0.5 -2t0.5 -2q2 -8 4.5 -15t7.5 -11q11 5 18 16t13 22q12 20 23 39.5t22 39.5l13 23q11 19 20.5 38.5t11.5 41.5q0 7 3 13.5t7 11.5q10 11 1 20q-11 11 -21 5v1l-10 -7q-11 -5 -20 -11t-15 -12 q-25 -26 -40 -59t-27 -68q-6 -21 -10.5 -41.5t-1.5 -42.5zM57 466q2 0 4 2q2 -2 4 -2h-8zM410 515l9 10l2 2h1q0 1 2 3l3 -21zM412 645q0 -16 1.5 -33.5t3.5 -35.5q1 -10 2.5 -20t3.5 -21l1 -5q20 35 36 71t28 78q7 24 10 48t4 47q1 12 -7 15.5t-17 -2.5l-4 -3 q-16 -15 -31 -31t-21 -39q-10 -34 -10 -69z" />
<glyph unicode="&#xe2c;" horiz-adv-x="841" d="M31 375q2 18 7 36.5t13 34.5q25 49 51.5 97t53.5 96q21 38 44.5 44t58.5 -17q7 -5 12 -12.5t7 -15.5q9 -36 16 -72.5t15 -72.5q16 -63 32 -124t32 -123q4 -14 8 -26.5t9 -25.5q3 1 5.5 1t5.5 1q1 17 2 35l2 36q0 54 6 106t20 103q2 7 3.5 13t3.5 12q17 35 46 11 q11 -9 20.5 -20t17.5 -22q31 -46 61 -91.5t61 -91.5q18 -26 34 -39.5t42 -23.5q7 58 0 114q-12 108 -18.5 214.5t-4.5 215.5q0 12 -1 25t-2 33q-12 -10 -20 -15.5t-15 -11.5q-24 -21 -46.5 -43t-47.5 -42q-19 -16 -42.5 -11.5t-39.5 24.5t-7 45q22 66 54 125t77 112 q23 28 40 27t40 -30q11 -14 20 -29.5t20 -32.5q14 6 27 12t27 13t27 11t30 -16q-17 -15 -33.5 -30.5t-35.5 -29.5t-25 -30.5t-4 -40.5q4 -45 3 -90t2 -90q5 -83 11.5 -164.5t11.5 -164.5q2 -37 1.5 -74.5t-0.5 -76.5q-29 -8 -49.5 0t-37.5 22q-97 87 -158 199 q-8 15 -19 28.5t-24 30.5q-19 -34 -24 -65.5t-6 -63.5q-2 -63 -3 -125.5t-3 -125.5q0 -8 -1 -16.5t-3 -19.5q-23 -2 -35.5 9t-18.5 28q-12 29 -23.5 57.5t-19.5 58.5q-21 73 -40 146t-39 147q-3 10 -6.5 21.5t-8.5 28.5q-12 -18 -21.5 -31t-17.5 -26q-23 -42 -56.5 -72.5 t-71.5 -57.5q-21 -15 -37.5 -6t-14.5 35zM113 440q38 30 60.5 71t43.5 83q2 5 0.5 12t-1.5 14q-3 1 -5.5 1t-5.5 1q-58 -85 -92 -182zM531 757l24.5 17.5t19.5 15.5q19 18 37 37t37 38q15 14 22.5 25.5t8.5 23t-4.5 25t-17.5 31.5q-14 -7 -34.5 -32t-40 -57t-34.5 -66 t-18 -58z" />
<glyph unicode="&#xe2d;" horiz-adv-x="575" d="M21 413.5q2 18.5 9 34.5q26 64 53.5 126.5t58.5 124.5q16 30 36 58t43 54q21 23 48 35.5t55 12.5t53.5 -11.5t44.5 -36.5q31 -43 58 -88.5t43.5 -94t20.5 -100t-9 -106.5q-24 -100 -69 -190.5t-103 -175.5q-22 -32 -51.5 -48.5t-65.5 -3.5q-25 8 -47 27t-39 39 q-26 30 -40.5 67t-22.5 77q-9 48 -14.5 96.5t0.5 97.5q1 5 0.5 10.5t-1.5 10.5q-1 2 -3.5 4.5l-7.5 7.5q-8 -16 -15.5 -30.5t-15.5 -31.5q-21 16 -19 34.5zM139 389.5q-4 -95.5 22 -192.5q8 -30 23 -58.5t32 -54.5t38 -27.5t43 20.5q14 14 26 30t21 33q32 64 63 127.5 t59 129.5q11 24 15.5 50.5t3.5 52.5q-1 60 -19 114.5t-42 108.5q-8 17 -20 30.5t-25 27.5q-11 14 -26.5 16.5t-31.5 -2.5q-27 -11 -49.5 -27.5t-36.5 -45.5q25 -7 38.5 -11.5t19 -12t5.5 -20t-3 -35.5q-22 4 -37.5 0t-26.5 -13.5t-20 -23.5t-17 -29q-51 -92 -55 -187.5z" />
<glyph unicode="&#xe2e;" horiz-adv-x="754" d="M3 638.5q-16 35.5 13 81.5q22 35 49.5 61.5t65.5 43.5q60 26 119 48t123 31q62 8 113.5 -10.5t99.5 -55.5q54 -43 77.5 -99t28.5 -120q3 -39 0 -78.5t-7 -79.5q-5 -54 -11.5 -106.5t-11.5 -106.5q-4 -40 -18.5 -74.5t-37.5 -66.5q-26 -36 -70 -35q-46 2 -88.5 -7.5 t-82.5 -35.5q-29 -17 -48 -6t-21 46q-2 24 -1.5 48t2.5 49q5 72 10 143t10 143q0 8 1.5 16.5t3.5 16.5q35 -2 44 -9t8 -36q-2 -46 -6 -92t-7 -92q-2 -32 -3.5 -64t-2.5 -64q-1 -6 0.5 -12.5t3.5 -15.5q13 3 24 6t22 5q29 5 57.5 10.5t57.5 8.5q17 2 29.5 7.5t20.5 20.5 q9 18 19.5 36.5t12.5 38.5q11 94 21.5 187.5t15.5 188.5q4 59 -15.5 101t-61.5 86q-42 -23 -80.5 -45.5t-77.5 -43.5q-45 -24 -89.5 -48.5t-91.5 -44.5q-35 -16 -72.5 -22.5t-77.5 1.5q-54 10 -70 45.5zM65.5 679q-4.5 -14 4.5 -33q29 -8 57 -2.5t55 16.5q33 14 65 28t64 31 q48 24 93.5 50t91.5 52q0 3 -0.5 6t-0.5 7q-14 2 -27 3.5t-27 2.5q-48 3 -93.5 -6.5t-91.5 -20.5q-54 -14 -95.5 -42.5t-79.5 -66.5q-11 -11 -15.5 -25z" />
<glyph unicode="&#xe2f;" horiz-adv-x="610" d="M68 500q-3 22 5 47q11 33 37 59.5t55 43.5q16 10 35 10t36.5 -6t31.5 -16.5t20 -22.5q3 -5 4 -12.5t1 -16t-1.5 -16t-4.5 -11.5q-13 -19 -32 -35t-37 -29q-11 -8 -22 -14l-22 -12q-5 -3 -15.5 -3t-16.5 1q-11 2 -18 10t-9.5 19t-1.5 24t6 25q2 5 2.5 9t3.5 8q8 8 18.5 3 t15.5 -17q-24 -12 -18 -38l3 -12t9 -2t16.5 5.5t15.5 8.5q20 14 38 28.5t34 32.5q21 24 -2 42q-17 13 -32.5 18.5t-40.5 -9.5q-52 -28 -72 -78q-7 -16 -8 -32q-3 -26 12.5 -45t42.5 -21q23 -2 43 4q51 13 102 30q71 25 131 77q13 11 26 21.5t26 21.5q1 1 6 2.5t10.5 3 t10.5 3t6 2.5q2 -4 0 -7q1 -29 1 -57t1 -57q1 -54 0.5 -108.5t3.5 -108.5q3 -46 10.5 -91t13.5 -90q2 -14 3 -27t3 -26q-24 -6 -32 -1.5t-11 24.5q-13 100 -22 200t-7 202q1 22 3 48.5t6 49.5q-13 -11 -26 -21.5t-27 -20.5q-32 -24 -73 -47t-81 -34q-23 -7 -41.5 -10.5 t-41.5 -8.5q-12 -3 -28 -2t-28 3q-19 2 -36 13t-27.5 27.5t-13.5 38.5z" />
<glyph unicode="&#xe30;" horiz-adv-x="651" d="M25 650q0 17 7 37q12 35 38.5 62t56.5 44q9 6 20 8.5t22 2.5q29 0 55.5 -15t36.5 -34q3 -5 4.5 -14t1.5 -17q0 -9 -2.5 -19t-5.5 -16q-12 -19 -31.5 -34.5t-37.5 -29.5q-10 -7 -21.5 -14.5t-24.5 -12.5q-8 -3 -19 -3q8 -1 18 0.5t20 3.5l50 14t50 15q69 23 126 73l36 29 l15 13q32 27 64 57.5t57 61.5q2 5 6 10.5t6 9.5l3 6q11 18 21 19.5t33 -12.5l-9 -23q-3 -8 -4.5 -14.5t-6.5 -11.5q-27 -35 -62.5 -71.5t-66.5 -64.5q-17 -15 -37 -31t-38 -30q-31 -23 -74 -46.5t-80 -34.5q-15 -5 -28.5 -7.5t-27.5 -5.5l-27 -5q-13 -2 -29 -1.5t-29 2.5 q-35 3 -60.5 31t-25.5 68zM44 242.5q-5 22.5 3 41.5q19 43 51.5 76t74.5 52q19 8 40 8q10 0 20 -1t18 -3q1 0 3 -0.5t4 -0.5q5 0 14 -1.5t17 -3.5q-9 -20 -22.5 -38.5t-21.5 -26.5q-10 -9 -19.5 -16.5t-19.5 -15.5l-9 -8q-8 -7 -20 -13t-23 -11l-6 -2l4 1q-12 -7 -25 -10 t-26 7q-7 -10 -10 -24q-3 -13 10 -21v1q20 -10 36 -10q26 1 50.5 6t47.5 13q51 16 99 44t93 58l47 33l19 13q23 17 43.5 39.5t34.5 49.5v-1q11 20 22 18.5t30 -12.5l4 -14q-15 -27 -35 -52t-45 -44l-18 -14l-46 -36l-62 -38l-26 -16q-18 -10 -40 -22t-43 -21 q-32 -14 -57.5 -22.5t-54.5 -16.5q-21 -6 -50 -6q-12 0 -24.5 1.5t-25.5 6.5v-1q-11 3 -19.5 8t-17.5 12q-14 11 -19 33.5zM108 713q17 -3 27 -24l-5 -13q-15 -8 -12 -29q0 -3 -1 -4q7 2 13.5 4t9.5 5q21 13 40 28t34 34q13 16 0 27q-10 8 -18 12.5t-16 4.5q-5 0 -12 -2.5 t-15 -6.5q-26 -15 -45 -36zM123 315q20 2 37 16l50 45l3 2h1q-13 -2 -27 -8t-26.5 -14.5t-22.5 -19t-15 -21.5zM214 378l2 2q5 5 11 10t10 8l6 -18h-4q-5 0 -11 2l6 -2h-10t-10 -2zM227 383l1 -1z" />
<glyph unicode="&#xe31;" d="M-400.5 1064q-3.5 18 3.5 35q19 43 49.5 75t73.5 51q17 7 36 6.5t37 -4.5q5 -1 13.5 -1t13.5 -2q-5 -13 -17.5 -28.5t-20.5 -23.5q-12 -11 -23 -20t-24 -20q-10 -8 -21.5 -13.5t-22.5 -10.5q-12 -6 -25 -8t-24 11q-8 -11 -12.5 -18t-6.5 -20q-3 -20 16 -30q18 -12 41 -12 q26 1 51.5 6.5t51.5 13.5q54 18 102 45.5t95 59.5q17 11 34 23l34 24q53 37 82 93q7 14 15.5 11.5t23.5 -10.5q-15 -27 -34.5 -51.5t-42.5 -43.5q-17 -12 -35.5 -27t-35.5 -26q-20 -14 -41.5 -26t-42.5 -25q-20 -12 -41 -23.5t-42 -20.5q-29 -12 -55.5 -21t-56.5 -18 q-23 -6 -48.5 -6.5t-48.5 7.5q-11 3 -19 8t-16 11q-13 11 -16.5 29zM-344 1125q18 -5 32.5 1.5t27.5 17.5l51 45q5 5 13 11.5t13 10.5q-2 2 -5 0t-4 0q-18 0 -38 -7.5t-38.5 -19.5t-32.5 -27.5t-19 -31.5z" />
<glyph unicode="&#xe32;" horiz-adv-x="668" d="M24.5 524.5q3.5 19.5 10.5 37.5h-1q17 51 46 92.5t67 79.5l29 28q16 17 33 33.5t35 32.5q62 50 140 50q11 0 22 -1t20 -3q3 0 7.5 -1t7.5 -2l16 -3h-1q35 -5 56 -28t29 -54l2 -14q9 -36 17.5 -75t12.5 -77q5 -42 8 -84t5 -84q2 -30 4 -59.5t4 -59.5q5 -64 11 -130.5 t13 -129.5q1 -10 1.5 -24t0.5 -23q-39 -11 -51.5 -3t-14.5 37q-8 101 -15.5 205.5t-14.5 206.5q-5 66 -11.5 134t-23.5 134v-1q-9 33 -16 50l-7 18q-4 14 -20 16q-5 0 -10.5 0.5t-10.5 0.5q-11 1 -22.5 1h-23.5h-16t-16 -1q-9 -1 -17.5 -5.5t-16.5 -10.5q-49 -38 -93.5 -82 t-84.5 -95q-19 -24 -30 -51.5t-16 -56.5l-5 -17q-1 -2 -1.5 -9t-2.5 -18h-49q-10 26 -6.5 45.5z" />
<glyph unicode="&#xe33;" horiz-adv-x="623" d="M-298 1035q1 26 11 55q18 57 45.5 107.5t68.5 95.5q15 16 37 29q15 9 32 11.5t34 -2.5t31 -17t23 -32q-8 -7 -15 -5t-14 6q-29 17 -44 14t-38 -27q-31 -32 -54.5 -68t-41.5 -78q-7 -17 -13 -34.5t-11 -34.5q-3 -9 -4 -19t-3 -21q24 -2 43.5 4t36.5 17q49 32 96 65.5 t95 65.5q22 15 41.5 31.5t36.5 36.5q20 22 30 47.5t16 53.5q3 16 -6 27q-6 8 -14 5l-16 -6q-8 -5 -15 -9.5t-15 -8.5q-12 -6 -23.5 -7t-22.5 9q12 22 30 35.5t38.5 17t41 -3t35.5 -24.5t12 -38q-13 -100 -95 -165q-45 -36 -90.5 -68.5t-92.5 -66.5q-22 -17 -46 -30t-51 -20 q-30 -7 -64 -4q-23 2 -35 17.5t-10 38.5zM-19.5 644.5q3.5 29.5 14 57.5t28 53t39.5 40q33 23 67.5 43.5t71.5 34.5q47 18 93.5 34.5t97.5 19.5q30 2 51.5 -10t41.5 -33q26 -28 43 -59.5t28.5 -66t18 -70.5t10.5 -73q11 -91 8 -181.5t-11 -182.5q-3 -35 -0.5 -69t2.5 -69 q0 -11 -0.5 -21t-1.5 -21q-16 -1 -26 -0.5t-16 4.5t-9 12t-4 22q-8 66 -6 134q2 57 6 112.5t5 112.5q1 80 -6.5 158t-36.5 152q-17 42 -48 73q-8 8 -22.5 11t-26.5 1q-27 -5 -54.5 -12.5t-53.5 -17.5q-38 -14 -74.5 -29t-71.5 -36q-51 -31 -78.5 -77.5t-20.5 -112.5 q1 -6 0 -12.5t-2 -14.5q-16 1 -25.5 3t-14.5 6t-8 11t-6 20q-6 24 -2.5 53.5z" />
<glyph unicode="&#xe34;" d="M-776 1025q2 29 11 55.5t32 47.5q17 14 33.5 29.5t33.5 31.5l67 62q16 13 36 22l17 10q5 3 10.5 6.5t9.5 6.5q11 7 20.5 13t22.5 12q20 8 39 15.5t41 10.5q8 2 18 2.5t18 0.5q52 0 95 -23q23 -13 42.5 -35t35.5 -46q23 -37 36.5 -82t18.5 -87l4 -38l3 -33l-3 -8 q-10 -11 -22 -9.5t-23 6.5q-45 23 -92.5 33t-93.5 10q-27 0 -57 -2.5t-59 -6.5q-42 -6 -84 -13.5t-80 -23.5q-23 -9 -44 -19q-17 -9 -33 -9q-23 0 -38.5 16.5t-14.5 44.5zM-703 1037q77 23 153.5 36.5t156.5 13.5q48 0 94.5 -5.5t93.5 -18.5q1 5 1 11q-2 46 -17 89.5 t-41 83.5q-20 25 -44 39t-53 14q-25 0 -56 -13q-35 -15 -69 -33t-65 -47q-37 -31 -71.5 -63.5t-68.5 -66.5q-17 -16 -14 -40zM-207 1052q2 8 2 11l10 -3z" />
<glyph unicode="&#xe35;" d="M-729 977.5q-3 15.5 4 33.5q10 25 26 45.5t34 40.5q20 23 44 42t52 30q34 13 68.5 23t69.5 12.5t70.5 -3.5t70.5 -23q17 -8 32 -20.5t30 -23.5q4 -3 7.5 -6t9.5 -5q-7 29 -14 56.5t-30 48.5l-9 9q-6 7 -10 14.5t4 16.5q7 8 16 6t16 -7q11 -9 21 -19t18 -22 q20 -32 30.5 -67t21.5 -70q2 -8 4.5 -16t7.5 -13q14 -16 15 -32t-8 -33q-9 -7 -18 -5t-18 7q-20 10 -35 21q-21 16 -43 24.5t-44.5 11.5t-46 2t-46.5 -5q-38 -6 -74 -15t-73 -17q-22 -5 -44 -3q-7 1 -13.5 4.5t-11.5 8.5q-7 6 -5 12.5t10 9.5q2 2 4.5 2t4.5 1q44 8 87 16.5 t86 16.5q42 8 82 5t80 -14q8 -2 13 -3l1 1l6 2q-43 53 -94.5 77.5t-119.5 8.5q-32 -7 -62 -16.5t-58 -26.5q-17 -10 -34 -24.5t-32 -32t-27 -36.5t-18 -37q4 -3 8.5 -5.5t7.5 -6.5q3 -3 4 -8t3 -10q-16 -12 -32.5 -11t-31.5 7q-14 5 -17 20.5z" />
<glyph unicode="&#xe36;" d="M-651 933.5q-5 15.5 6 35.5q7 11 10 26t5 30q6 33 19 61.5t29 56.5q38 64 93 116h-1q14 14 26.5 22.5t26.5 16.5l10 5q63 40 136 40q8 0 14.5 -0.5t14.5 -1.5q41 -5 77 -19t68 -46l11 18q20 26 52 23q2 0 5 1q3 0 7 0.5t7 0.5q4 0 6 1l18 2t14 0q42 -5 59 -27t15 -65 q-1 -24 -13.5 -42t-30.5 -32q-25 -17 -54.5 -28.5t-61.5 -12.5q0 -2 -0.5 -5t-0.5 -5q-2 -19 -9.5 -23t-24.5 1q-14 5 -26 12l1 -1q-22 10 -46.5 14t-48.5 8q-2 0 -5.5 1t-4.5 1q-21 4 -41 -0.5t-39 -9.5h1l-12 -3q-39 -11 -77.5 -24.5t-76.5 -32.5q-23 -12 -42.5 -26 t-35.5 -33q-2 -2 -5 -4.5t-3 -3.5l2 -17q6 4 13 5.5t19 -1.5q10 -13 7 -23t-10 -20l1 3l-11 -16q-2 -2 -3 -3.5t-5 -9.5q-6 -10 -13.5 -11.5t-21.5 5.5l-7 4l1 -1q-5 2 -8.5 4.5t-6.5 4.5h1q-25 13 -30 28.5zM-597 1040q5 3 8.5 7t6.5 6v-1l15 10l5 3l-2 -3l-6 -13l1 1 l-4 -13q0 -2 -1 -4.5t-1 -4.5zM-562 1065q20 16 43 27t47 22q23 9 46 16.5t47 14.5h-1q23 8 47.5 14t49.5 8q20 2 40 -1t40 -7q2 0 2.5 -0.5t2.5 -0.5t4.5 -0.5t4.5 -0.5q13 -2 25 -4.5t23 -7.5q-8 10 -11 21.5t-1 23.5l10 38q1 4 0 9q-1 2 -2.5 3t-2.5 3l-9 11 q-24 17 -53.5 26.5t-58.5 11.5q-31 2 -61 -4.5t-58 -22.5q-27 -15 -51.5 -33.5t-43.5 -42.5q-14 -14 -25 -30.5t-22 -33.5q-11 -18 -18.5 -32t-13.5 -28zM-141 1145l16 -7l-6 1q2 0 2.5 -0.5t1.5 -0.5q6 0 12 -4l-21 -11q1 6 1 10.5t-2 6.5zM-85 1218q5 -12 5.5 -25.5 t-0.5 -24.5h3q13 1 27 6t26 11l1 1q26 12 37.5 30t12.5 43q0 6 -4 7h1q-8 2 -14 4t-11 2q-10 0 -18 -4q0 -4 1 -7q1 -7 0.5 -16.5t-8.5 -25.5q-23 2 -30.5 9t-9.5 17l-3 -2q-3 -3 -5 -4q-2 -2 -4 -3h1q-6 -5 -8 -8.5t0 -9.5zM-69 1256l20 -2l-12 -6q-1 0 -2.5 -1t-2.5 -1v-1 q-1 1 -1 4q-1 1 -1 5q0 1 -1 2z" />
<glyph unicode="&#xe37;" d="M-730.5 998.5q-0.5 18.5 1.5 35.5q4 22 12.5 42t20.5 40v-1q11 20 26.5 36t32.5 30q10 7 22 14t25 15q14 8 29.5 16t30.5 16l-1 -1q23 11 44 15.5t43 6.5q8 2 18 2.5t19 0.5q41 0 85 -14q11 -4 21.5 -10t21.5 -13l10 -6v1q22 -14 39 -32.5t31 -42.5q8 -12 9.5 -24.5 t0.5 -25.5q-1 -3 -1 -7q0 -2 -0.5 -4.5t-0.5 -4.5q0 -15 -6 -21t-22 -4q-7 0 -17 3q-5 0 -13 0.5t-9 0.5l5 16l-22 10q-20 9 -30 12q-14 5 -31 8t-37 6q-20 2 -42 -1t-44 -8q-23 -5 -44 -13.5t-40 -19.5q-26 -14 -49 -33t-40 -44q-4 -5 -6.5 -10t-4.5 -10l-5 -10 q-8 -20 -28 -17q-3 -4 -10 -7q-8 -3 -16 -1.5t-13 7.5l-9 14q-6 19 -6.5 37.5zM-682 1011q5 10 11.5 18t14.5 16v-1q25 26 53.5 46.5t60.5 34.5q8 4 22.5 8t28.5 9h-1l28 8q20 7 40.5 8.5t41.5 1.5q20 0 39 -5t39 -11q4 -2 7 -2q16 -5 32 -11.5t31 -14.5q-1 9 -8 19 q-11 17 -23.5 31t-31.5 25h1q2 -1 0.5 0t-3.5 2l-5 2.5t-4 2.5l-27 14q-14 5 -29 7.5t-29 2.5h-17t-17 -1l-28 -4l-16 -2q-11 -2 -21.5 -7t-19.5 -9l1 1l-6 -4q-23 -11 -45 -23.5t-40 -25.5q-29 -22 -49 -52.5t-28 -65.5zM-260 1309q22 9 31 6.5t19 -19.5l5 -11l-1 1l13 -33 l11 -43l13 -47l4 -6q0 -3 2 -3l14 -25l-5 -20q-16 -8 -25 -6.5t-17 14.5q-10 15 -16 31l1 -1q-4 7 -4.5 12t-2.5 11v-1l-5 14l-6 25l1 -1q-6 20 -12 39t-15 38q-4 8 -4 13q0 1 -0.5 6t-0.5 6zM-195 1293v7l11 19q17 2 24 -1t12 -16q4 -8 7 -17.5t5 -18.5l6 -35l6 -31 q6 -29 12.5 -57.5t17.5 -56.5q0 -2 2 -6l2 -9q2 -11 -5 -17.5t-18 -4.5q-6 2 -11.5 5t-8.5 6q-2 2 -4 6.5t-4 8.5q-8 30 -16.5 59t-13.5 58q-2 16 -5 31t-6 31q-2 5 -3 11t-3 10v-3q-5 5 -5.5 10.5t-1.5 10.5z" />
<glyph unicode="&#xe38;" d="M-247 -154q13 38 36.5 67.5t64.5 42.5q25 8 39.5 2t24.5 -31q6 -17 10.5 -34t8.5 -32l-1 1q8 -33 17 -66.5t17 -68.5q2 -11 3 -24t2 -25l3 -24q0 -32 -28 -38q-14 -3 -29 6t-19 23q-4 15 -4 30q-1 24 -5.5 46.5t-9.5 44.5v-1l-3 11q-4 11 -6.5 24t-5.5 24l-13 -18 q-8 -11 -19.5 -18t-26.5 -8q-37 -2 -52 14t-4 52zM-207 -156q11 11 18.5 23.5t11.5 27.5l32 -20q-11 -10 -19.5 -21t-9.5 -24z" />
<glyph unicode="&#xe39;" d="M-486 -249q0 4 0.5 8t2.5 9q20 41 50.5 73t77.5 46q2 2 6 2l9 3h-1q11 5 23 6.5t25 -9.5q28 -23 39 -55v1q9 -29 14 -57l4 -27l-1 2l7 -24q5 -18 10 -35t11 -35q0 -8 7 -10q18 -6 36 -9.5t37 -3.5q-2 43 -3.5 86.5t-4.5 85.5q-1 7 -3.5 14t-4.5 15l-3 8l-6 16l-7 16v-1 q-8 20 0 31.5t28 13.5q15 2 28.5 -6.5t19.5 -22.5q27 -56 28 -113q2 -38 3.5 -76t4.5 -76q0 -36 -37 -46l-7 -2l5 1q-11 -3 -22.5 -5.5t-22.5 -1.5q-18 2 -38 5t-41 8v-1q-38 8 -58 34.5t-28 58.5q-4 12 -6 24t-4 22l-5 25q-1 5 -1.5 11t-2.5 12l-1 -1q-6 -7 -10.5 -13 t-9.5 -12q-20 -25 -44.5 -38.5t-58.5 -13.5q-29 2 -39.5 15t-5.5 42zM-431 -241q9 1 20 10t21.5 21.5t18.5 27t10 26.5l21 -22q-11 -1 -23.5 -10t-23 -21t-17 -25.5t-6.5 -24.5z" />
<glyph unicode="&#xe3a;" d="M-180 -156q0 23 16 39.5t39 16.5q20 0 37.5 -16.5t17.5 -39.5t-17.5 -39t-37.5 -16q-23 0 -39 16t-16 39z" />
<glyph unicode="&#xe3b;" />
<glyph unicode="&#xe3c;" />
<glyph unicode="&#xe3d;" />
<glyph unicode="&#xe3e;" />
<glyph unicode="&#xe3f;" horiz-adv-x="1251" d="M94 0v1161h438v131h62v-131h201q54 0 101.5 -18.5t83.5 -49.5t56.5 -73t20.5 -88q0 -115 -103 -182q203 -41 203 -220v-299q0 -48 -21.5 -90t-57.5 -73.5t-83.5 -49.5t-99.5 -18h-301v-139h-62v139h-438zM158 61h374v639h-374v-639zM158 762h374v338h-374v-338zM594 61 h301q40 0 76 13t64 36t44.5 54t16.5 67v299q0 170 -277 170h-24h-201v-639zM594 762h203q40 1 76 15t63 36.5t43 53t16 65.5q0 34 -16.5 65t-44 53.5t-63.5 36t-76 13.5h-201v-338z" />
<glyph unicode="&#xe40;" horiz-adv-x="550" d="M38 846q-5 18 0 32t22 22q15 8 31 0.5t24 -27.5q12 -30 15 -62q7 -77 28.5 -149t43.5 -146q14 -45 22.5 -91.5t19.5 -93.5q2 -14 4 -29t6 -38q21 26 36.5 46.5t30.5 39.5q28 34 64 43t86 -7q12 -3 24.5 -15t23 -28t17.5 -34t8 -33q3 -46 -11.5 -89t-41.5 -78t-64.5 -59 t-82.5 -32q-26 -5 -53.5 -3t-53.5 4q-22 2 -28.5 17.5t-8.5 33.5q-8 56 -17.5 111t-14.5 111q-8 81 -28 158.5t-42 155.5q-17 60 -31 120t-29 120zM289 71q48 5 81 23t54 45.5t32 62t14 73.5q2 20 -8 35t-30 23q-20 7 -34.5 -0.5t-25.5 -22.5l-22 -34t-20 -35 q-41 -80 -41 -170z" />
<glyph unicode="&#xe41;" horiz-adv-x="1042" d="M45 69q17 48 32 95t26 94t16.5 94.5t3.5 96.5q-3 47 -3.5 94t-2 94t-6 93.5t-14.5 93.5q30 15 44.5 11t25.5 -31q5 -11 7 -22l4 -22q11 -120 12.5 -238.5t-5.5 -238.5v-30q13 9 21.5 14.5t16.5 11.5q42 34 90 45t99 8q46 -2 66 -34t4 -76q-18 -51 -52.5 -88t-77.5 -67 q-14 -10 -30 -18t-31 -17q-41 -23 -82.5 -24t-83.5 12q-20 6 -38.5 20.5t-41.5 28.5zM144 61q16 -2 33 -3.5t32.5 -0.5t30.5 6.5t29 16.5q32 26 62 54.5t58 58.5q17 20 27 43.5t6 52.5q-38 7 -83 -11t-85.5 -51t-70.5 -76.5t-39 -89.5zM552 56q1 4 2 7t2 7q20 10 41.5 6.5 t41.5 -5.5q64 -9 123 16q63 26 101 72.5t54 111.5q5 17 4 36.5t-4 37.5q-5 27 -23 34.5t-41 -9.5q-15 -11 -28 -24.5t-24 -28.5q-15 -23 -27.5 -47.5t-25.5 -49.5q-3 -7 -5.5 -15t-7 -13.5t-11.5 -8t-19 0.5q-40 10 -38 61l4 90t1 91q-2 109 -6 218t-7 218q32 8 44.5 4 t19.5 -29q5 -20 7 -42t3 -43q1 -75 1 -148.5t2 -148.5q0 -21 3 -43t6 -48q12 8 20.5 14t15.5 12q27 26 59 33.5t66 -6.5q73 -31 81 -113q4 -43 -8 -82t-36 -74q-20 -30 -45.5 -50.5t-54 -33.5t-60 -21t-64.5 -12q-29 -4 -58 -1.5t-58 5.5q-13 2 -25.5 9t-25.5 12z" />
<glyph unicode="&#xe42;" horiz-adv-x="344" d="M-166 1300q1 44 5.5 86.5t16.5 83t33.5 77.5t55.5 69q4 4 8 7t7 7q25 27 48.5 42t47.5 19.5t51.5 -2t60.5 -22.5q42 -20 83 -39t83 -39q52 -26 98.5 -18t88.5 45q32 29 62.5 57.5t62.5 57.5q8 7 14 14.5t14 14.5q17 14 35 14.5t32 -15.5q14 -15 10 -31.5t-18 -29.5 q-79 -70 -163 -142q-53 -44 -109.5 -49.5t-118.5 23.5q-43 20 -87 37.5t-88 35.5q-91 38 -159 -36q-45 -50 -67.5 -107.5t-15.5 -117.5q38 16 76.5 26t73.5 20q31 14 62 27.5t63 27.5q1 1 10 7t18.5 12.5t18 12l8.5 5.5q3 0 8.5 -13t11 -30t11 -34.5t8.5 -24.5 q19 -48 28 -97t10 -98.5t-4 -99.5t-12 -99q-13 -88 -29.5 -175t-35.5 -175q-17 -79 -38.5 -156.5t-41.5 -155.5q-8 -29 -12 -59.5t-9 -60.5q3 -2 6.5 -3t6.5 -3q16 10 31.5 19.5t31.5 20.5q24 18 48 0q22 -19 12 -48q-18 -48 -43.5 -89.5t-66.5 -73.5q-54 -42 -75 28 q-20 67 -17.5 133t23.5 132q50 158 84.5 317t58.5 322q11 69 13 137.5t4 137.5q1 73 -36 149q-31 -13 -60 -25t-58 -25q-38 -16 -75.5 -31t-75.5 -32l-1 -1q-13 -8 -25.5 -16.5t-25.5 -16.5q-44 -26 -65 20q-5 11 -8 23t-3 23z" />
<glyph unicode="&#xe43;" horiz-adv-x="586" d="M-681.5 1276.5q7.5 73.5 62.5 139.5q65 78 139 144.5t159 125.5q62 43 127 67.5t131.5 34t135 6t138.5 -16.5q66 -13 117.5 -51.5t93.5 -89.5q25 -29 46.5 -60.5t46.5 -64.5q6 1 15.5 3t17.5 0q17 -4 22 -18.5t-6 -32.5q-8 -14 -12 -26.5t2 -27.5q19 -48 28 -97t10 -98.5 t-4 -99.5t-12 -99q-13 -88 -29.5 -175t-35.5 -175q-17 -79 -38.5 -156.5t-41.5 -155.5q-8 -29 -12 -59.5t-9 -60.5q3 -2 6.5 -3t6.5 -3q16 10 31.5 19.5t31.5 20.5q24 18 48 0q22 -19 12 -48q-18 -48 -43.5 -89.5t-66.5 -73.5q-54 -42 -75 28q-20 67 -17.5 133t23.5 132 q50 158 84.5 317t58.5 322q11 69 13 137.5t4 137.5q1 73 -36 149q-31 -13 -60 -25t-58 -25q-38 -16 -75.5 -31t-75.5 -32q-54 -25 -108 -51l-108 -52q-32 -16 -62.5 -33t-63.5 -29q-78 -29 -156 -58.5t-159 -44.5q-33 -6 -63 -0.5t-57 20.5t-50.5 38t-41.5 51 q-42 63 -34.5 136.5zM-617 1255.5q-5 -52.5 28 -109.5q14 -23 32.5 -38t45.5 -15q29 0 59 0.5t57 9.5q63 22 124.5 47.5t124.5 51.5q27 11 54 22.5t54 23.5q71 32 140.5 64.5t140.5 64.5q54 24 107 48t110 49q-9 35 -27 69.5t-42 64.5t-53 53t-60 36q-109 46 -217.5 43.5 t-215.5 -44.5q-65 -26 -122.5 -61.5t-109 -79t-98 -93.5t-88.5 -104q-39 -50 -44 -102.5z" />
<glyph unicode="&#xe44;" horiz-adv-x="587" d="M-794 1184q8 20 20.5 21.5t25.5 -0.5q39 -6 79 -11t79 -16q35 -10 69 -24.5t66 -32.5q30 -17 49.5 -28t34 -17.5t27.5 -7t29 5t38 16.5t56 29q32 17 62 39t62 42q70 45 124.5 100.5t97.5 119.5t75 135.5t56 148.5q3 9 5.5 19t7.5 18q6 8 16 17t16 7q11 -2 21 -11t16 -19 q5 -8 4 -18.5t1 -20.5q17 -125 14 -248.5t-10 -248.5q-9 -170 -16.5 -337t-14.5 -337q-3 -68 -3 -135t-1 -134q0 -17 1.5 -33.5t2.5 -33.5q5 -2 13 -4q11 20 22 39.5t24 38.5q20 28 41 54.5t43 52.5q10 12 27 21q16 8 32 12.5t32 -9.5q14 -11 9.5 -25t-9.5 -28 q-22 -78 -61.5 -146.5t-90.5 -131.5q-6 -8 -14.5 -14t-16.5 -11q-22 -15 -46 -24t-49 4q-12 6 -17.5 15.5t-7 20.5t-1 23.5t0.5 23.5q-2 201 4.5 400t23.5 400q6 69 5.5 137.5t2.5 137.5q2 62 6.5 122.5t6.5 122.5q2 32 0.5 64t-2.5 74q-14 -14 -20.5 -21t-11.5 -14 q-28 -47 -54.5 -94t-55.5 -93q-16 -23 -36 -43.5t-40 -40.5q-69 -65 -146 -114.5t-159 -94.5q-31 -17 -60 -21.5t-57 0t-55.5 15.5t-54.5 26q-17 10 -34 20.5t-35 20.5q-42 24 -87 35t-94 12q-15 0 -31 2.5t-30 7.5q-8 2 -14.5 9.5t-12.5 12.5zM378 145q3 -2 11 -6 q23 30 41.5 62.5t29.5 69.5q-8 4 -12 7q-18 -34 -35.5 -67t-34.5 -66z" />
<glyph unicode="&#xe45;" horiz-adv-x="678" d="M31.5 596.5q3.5 17.5 9.5 34.5q16 51 45 92.5t67 78.5l48 48t50 46q78 63 178 45q8 -2 15 -3.5t15 -2.5q33 -5 51.5 -25.5t26.5 -50.5q9 -42 18 -83t14 -83q8 -74 11.5 -146.5t9.5 -146.5q1 -17 3.5 -57t6 -95.5t7 -122t7.5 -135t7.5 -134.5t7 -121.5t6 -96t4.5 -57.5 q1 -9 1.5 -19t1.5 -19q-29 -8 -37.5 -3t-10.5 31q-3 35 -7.5 111t-9.5 172.5t-11 203t-11 203t-9.5 172t-6.5 110.5q-5 69 -11.5 137.5t-23.5 136.5q-4 18 -11 35t-12 34q-7 21 -30 23q-26 1 -51.5 2t-51.5 -1q-10 -1 -20.5 -6t-18.5 -11q-51 -41 -97 -86t-86 -97 q-20 -26 -32 -56.5t-18 -62.5q-2 -7 -3.5 -14.5t-3.5 -16.5h-33q-8 19 -4.5 36.5z" />
<glyph unicode="&#xe46;" horiz-adv-x="662" d="M27 538.5q1 31.5 5 65.5t8.5 67t5.5 59l2 12t5.5 29t7.5 35t9 31q8 21 20.5 40.5t26.5 37.5q9 13 23 11.5t26 -15.5q14 -16 23 -33.5t13 -38.5q6 -28 12.5 -56t13.5 -56q3 -15 15 -27l4 48t3 48q2 45 10.5 88.5t22.5 86.5q4 16 15 30q14 19 33 27t38.5 5t36.5 -16t27 -35 q16 -38 24.5 -77.5t13.5 -80.5q9 -62 17 -123.5t16 -124.5q4 -33 8.5 -65.5t9.5 -65.5q0 -3 3 -38t7 -89.5t9 -124t10 -141.5t10.5 -141.5t10 -124t7.5 -89.5t4 -38q6 -18 3 -27.5t-17 -14.5q-26 -9 -36 25q-2 7 -6 46t-9 98t-11 132.5t-12 150t-11.5 150t-10.5 132.5t-8 98 t-4 46q-7 48 -11 96t-9 96t-12 94.5t-21 91.5q-6 21 -11 42.5t-11 42.5q-2 7 -5 13l-6 12q-8 13 -18 12.5t-15 -14.5q-8 -23 -16.5 -47t-11.5 -49q-9 -77 -15.5 -153.5t-14.5 -153.5q0 -2 -3 -9q-28 -13 -39 -7.5t-23 31.5q-26 59 -40.5 121t-32.5 124q-2 5 -3.5 9.5 t-3.5 9.5q-17 -20 -30.5 -57t-21.5 -85q0 -17 -4.5 -37t-9.5 -39.5t-8 -37.5t1 -32q4 7 6.5 11.5t5.5 9.5q8 11 15.5 23.5t17.5 22.5q16 14 29.5 8.5t16.5 -25.5q6 -45 -4 -87.5t-27 -83.5q-5 -11 -15 -17t-21 -6.5t-22 4.5t-17 15t-11 19.5t-8 20.5q-6 23 -5 54.5z" />
<glyph unicode="&#xe47;" d="M-384 1070q0 35 10 67t24 62q5 13 16 23t23 17q20 13 43 20.5t47 7.5q6 0 14 -1t17 -3q13 -3 30 -3q27 0 52 12t46 33q8 8 16 17.5t13 19.5q8 11 10 23t-3 26l13 26q32 6 45 -3t14 -37q1 -25 -8.5 -45.5t-23.5 -37.5v1q-17 -24 -37.5 -41t-43.5 -31q-7 -4 -13 -7t-14 -5 q7 -10 7 -26q-4 -53 -7 -107t-5 -108q-2 -10 -5 -18t-17 -13l1 1q-25 -13 -46 9q-14 13 -28.5 26.5t-27.5 27.5q-21 22 -44 29h1q-10 2 -16 0t-11 -10l1 1l-18 -36v-3q-7 -13 -22 -20.5t-26 -4.5q-18 5 -21 15.5t-3 20.5q0 7 -0.5 13t-0.5 13q-1 11 -1.5 24.5t-0.5 24.5z M-315 1087q22 11 44 11q12 0 25 -4t25 -9q0 2 0.5 4.5t0.5 5.5q7 29 20 56.5t36 48.5h-13q-6 0 -12 0.5t-11 1.5q-8 1 -16.5 1.5t-14.5 0.5q-20 0 -37 -10t-25 -30q-7 -18 -13 -37.5t-9 -39.5zM-183 1060l16 -17v17q0 2 0.5 4.5t0.5 4.5q-3 -2 -5.5 -3t-5.5 -3z" />
<glyph unicode="&#xe48;" d="M-253 1830q-2 11 14 23q15 10 25 6.5t18 -10.5l6 -4t0 -1l3 -3q46 8 57 -41q2 -10 2 -21.5v-22.5v-71q0 -35 0.5 -71.5t1.5 -71.5q0 -8 1 -17.5t3 -19.5l4 -24q1 -8 -2 -20.5t-6 -26.5q-38 5 -54 20t-17 39q-3 42 -6 82t-6 82l-2 26q-1 11 -1.5 23.5t-2.5 24.5 q-2 17 -7 32.5t-16 29.5q-4 4 -5 9l-2 6q-6 11 -8 22z" />
<glyph unicode="&#xe49;" d="M-433.5 1523.5q2.5 19.5 25.5 33.5q21 12 44 16.5t45.5 1t42 -15.5t33.5 -31q4 -5 6 -11.5t4 -12.5q1 -10 0.5 -20t-0.5 -21q-14 -1 -21 -9.5t-13 -19.5q-8 -16 -16 -31.5t-17 -32.5q6 1 10 0.5t7 1.5q29 11 56.5 23.5t51.5 31.5q32 25 64 48t64 48q35 29 60.5 64 t38.5 79q7 23 4 44.5t-21 40.5q-3 2 -4.5 6.5t-4.5 9.5q5 5 11 9.5t13 11.5q5 -7 10.5 -12.5t7.5 -12.5q19 -46 19 -93q-1 -21 -10 -40l-18 -38q-19 -40 -48.5 -70.5t-64.5 -56.5q-41 -31 -81.5 -60.5t-86.5 -52.5q-35 -19 -74 -33q-9 -2 -19 -1t-20 4q-41 12 -14 46 q14 18 25 38t21 43q-8 1 -14 1.5t-11 -0.5q-24 -2 -44 7t-39 22q-2 1 -6 5q-19 20 -16.5 39.5zM-400 1509q6 -10 14 -13.5t17 -5.5q20 -4 40 -2t40 7l12 4t8 11q1 9 -4.5 13.5t-12.5 7.5q-5 2 -9.5 3.5t-9.5 2.5q-43 4 -85 -16q-3 -2 -5.5 -5.5t-4.5 -6.5z" />
<glyph unicode="&#xe4a;" d="M-338 1384q-12 21 0 41q8 14 17.5 27.5t20.5 26.5q15 18 40 18q5 1 11 3t11 6q15 11 30.5 18t35.5 5q9 -2 15.5 1.5t11.5 8.5q8 8 17.5 9.5t19.5 -0.5q7 -1 12 -4.5t6 -10.5t-3 -10.5t-10 -6.5q-19 -9 -20 -15.5t10 -29.5q3 3 5.5 6.5t5.5 6.5q4 5 7.5 11t8.5 11 q17 20 33.5 16.5t24.5 -27.5q2 -8 2.5 -17t1.5 -18q1 -7 1.5 -14t1.5 -18q5 6 8 10t5 8q30 72 51 145t23 151q1 19 -5 35.5t-23 27.5q-8 6 -17 12l-18 12q-5 5 -6.5 7.5t-3.5 13.5q9 7 17.5 4.5t16.5 -7.5q10 -6 19 -13l18 -14q41 -31 41 -86q2 -62 -15 -121 q-14 -46 -28.5 -91.5t-30.5 -91.5q-6 -20 -11 -39.5t-18 -36.5q-11 -15 -24.5 -15.5t-22.5 15.5q-7 13 -8 26q-3 20 -6 39.5t-9 39.5q-3 -5 -6.5 -10t-5.5 -11q-5 -15 -9.5 -30t-9.5 -31q-2 -8 -4.5 -14t-13.5 -5q-12 0 -18.5 4t-8.5 15q-3 14 -5 29l-4 30q0 3 -0.5 6 l-1.5 9q-12 -15 -17 -29.5t-6 -30.5q-1 -6 -3.5 -15t-4.5 -8q-8 0 -16 2.5t-16 5.5q-2 1 -4 4t-4 7q-10 -20 -27 -28t-35 -13q-15 -5 -24 0t-16 21q-2 5 -5 8.5t-5 8.5zM-215.5 1473.5q-3.5 -5.5 5.5 -21.5q5 9 9.5 17.5t11.5 20.5q-23 -11 -26.5 -16.5z" />
<glyph unicode="&#xe4b;" d="M-474 1449l38 6h-1q17 3 31.5 6.5t25.5 6.5q12 2 23.5 5.5t23.5 7.5l19 5q-5 20 -12 38.5t-15 36.5l-8 17l10 23q21 11 39 4t29 -30q4 -8 7.5 -17.5t6.5 -18.5l6 -16l6 -15l1 -2q12 2 13 3q10 3 20 7t21 8l67 21h-1q8 2 17 2.5t16 -0.5q15 -1 25 -12t6 -28 q-2 -8 -11.5 -16t-17.5 -10l-88 -26l-20 -6h1l-29 -10l3 -19q5 -29 8.5 -59.5t1.5 -71.5q-20 -3 -33 -2.5t-21.5 4.5t-12.5 12t-7 21l1 -1q-5 14 -4.5 21.5t-0.5 15.5q0 6 -2 16l-2 22t-3 22q-12 -4 -24.5 -7.5t-24.5 -6.5q-16 -5 -33 -9t-34 -7q-6 -1 -11.5 -0.5t-11.5 1.5 h1q-2 0 -4 0.5t-4 0.5q-31 1 -31 57z" />
<glyph unicode="&#xe4c;" d="M-229 1367q0 13 3 26q10 37 25.5 70.5t42.5 62.5q12 13 23.5 25.5t27.5 22.5q15 9 29.5 10.5t30.5 -6.5l4 -2l4 -2q11 -4 22 -3t19 12q11 15 22 29.5t19 30.5q16 35 29.5 70.5t27.5 70.5q1 2 1 3.5t1 3.5q5 13 21 10q14 -4 9 -20q-6 -20 -12 -38.5t-14 -37.5 q-12 -29 -25 -57t-30 -55q-18 -31 -44 -42.5t-63 5.5q-22 9 -40 -6q-27 -26 -49.5 -54t-35.5 -63q-1 -3 -2 -6.5t-3 -8.5q8 7 15 12l14 10q8 6 16 6t16 -4t9.5 -11t0.5 -15q-5 -49 -41 -79q-9 -8 -21 -10.5t-24 -0.5q-11 3 -20 17q-8 11 -8 24zM-173 1358q11 11 15 22.5 t6 24.5q-9 -9 -15.5 -19.5t-5.5 -27.5z" />
<glyph unicode="&#xe4d;" d="M-481 982q1 26 11 55q18 57 45.5 107.5t68.5 95.5q15 16 37 29q15 9 32 11.5t34 -2.5t31 -17t23 -32q-8 -7 -15 -5t-14 6q-29 17 -44 14t-38 -27q-31 -32 -54.5 -68t-41.5 -78q-7 -17 -13 -34.5t-11 -34.5q-3 -9 -4 -19t-3 -21q24 -2 43.5 4t36.5 17q49 32 96 65.5 t95 65.5q22 15 41.5 31.5t36.5 36.5q20 22 30 47.5t16 53.5q3 16 -6 27q-6 8 -14 5l-16 -6q-8 -5 -15 -9.5t-15 -8.5q-12 -6 -23.5 -7t-22.5 9q12 22 30 35.5t38.5 17t41 -3t35.5 -24.5t12 -38q-13 -100 -95 -165q-45 -36 -90.5 -68.5t-92.5 -66.5q-22 -17 -46 -30t-51 -20 q-30 -7 -64 -4q-23 2 -35 17.5t-10 38.5z" />
<glyph unicode="&#xe4e;" d="M-432 1120q0 81 106 133q-30 24 -30 59q0 33 21.5 62t56.5 51t78.5 34.5t88.5 12.5q32 -1 64 -4.5t63 -15.5l23 -9v-65q-27 9 -46 15.5t-35.5 10t-32.5 5.5t-36 2q-28 0 -60 -8.5t-59.5 -22.5t-46 -31.5t-18.5 -36.5q0 -24 78 -43l22 -8v-51h-30q-5 0 -11.5 1t-11.5 1 q-19 0 -40.5 -10t-40 -24t-30.5 -30t-12 -28q0 -32 28 -53t73 -21q82 0 116 61l11 17h63l-18 -45q-51 -94 -172 -94q-36 0 -65.5 10.5t-51 28.5t-33.5 42.5t-12 53.5z" />
<glyph unicode="&#xe4f;" horiz-adv-x="862" d="M94 428q0 70 27 131.5t72.5 107t106.5 71.5t130 26q68 0 129 -25.5t107.5 -70.5t74 -106.5t27.5 -133.5q0 -70 -26.5 -131.5t-72 -107t-107.5 -71.5t-132 -26t-131 26.5t-106.5 72t-72 106.5t-26.5 131zM143 428q0 -58 22 -110t60 -91.5t90.5 -62.5t114.5 -23 q61 0 114 23t91 62.5t60 91.5t22 110q0 59 -23 111.5t-62 91.5t-91 61.5t-111 22.5t-111.5 -22.5t-91.5 -61.5t-61.5 -91.5t-22.5 -111.5zM225 428q0 43 16 80.5t43.5 65t65 43.5t80.5 16t81 -16t66 -43.5t44 -65t16 -80.5t-16 -80.5t-44 -65t-66 -43.5t-81 -16t-80.5 16 t-65 43.5t-43.5 65t-16 80.5z" />
<glyph unicode="&#xe50;" horiz-adv-x="933" d="M57 270q-5 71 9.5 135.5t46.5 127.5q34 68 85 119t106 99q22 19 45 36t47 34q88 58 193 40q14 -2 25.5 -11t23.5 -17q-2 -17 -8 -25t-24 -3q-35 8 -67.5 1t-64.5 -22q-37 -19 -71.5 -40.5t-66.5 -47.5q-43 -35 -81.5 -73.5t-65.5 -87.5q-42 -72 -60.5 -149.5t-1.5 -162.5 q9 -43 29.5 -80t52.5 -64q18 -16 42 -25t48 -14q72 -17 141 -10.5t135 41.5q72 38 121 96t77 133q14 35 26 71t15 75q5 56 -9.5 104.5t-46.5 93.5q-12 17 -30 27t-38 16q-12 4 -23 9l-22 10q2 23 12 30t26 5l18 -4t17 -7q69 -37 107 -94.5t50 -134.5q6 -40 1 -78t-19 -76 q-8 -23 -16 -46.5t-18 -46.5q-27 -65 -70 -115t-102 -90q-49 -33 -101.5 -48t-110.5 -22q-61 -7 -117 3.5t-110 34.5q-20 8 -37 22.5t-31 30.5q-78 86 -87 200z" />
<glyph unicode="&#xe51;" horiz-adv-x="760" d="M55.5 323q-0.5 12 1.5 24q12 90 34.5 175.5t66.5 166.5q27 50 63 92t86 71q51 30 105 36.5t111 -13.5q51 -17 89.5 -49.5t69.5 -77.5q42 -61 48 -125t-5 -132q-12 -75 -41 -143t-77 -128q-42 -52 -94.5 -88.5t-115.5 -60.5q-64 -24 -130 -37t-132 -31q-5 -1 -11 -2t-11 1 q-7 3 -14.5 7.5t-10.5 11.5q-4 10 3 15.5t15 8.5q7 3 14 4.5t14 3.5q47 11 93.5 20.5t92.5 22.5q78 23 143.5 64t112.5 111q58 86 85 189q11 40 16 80t0 82q-12 84 -59.5 143.5t-133.5 74.5q-47 8 -89.5 -4.5t-77.5 -42.5q-29 -26 -56.5 -54t-45.5 -64q-28 -56 -51 -113 t-34 -120q-5 -26 -10 -51.5t-10 -51.5q-3 -19 -2.5 -38.5t11.5 -37.5q4 -8 10 -14t12 -13q-4 27 6.5 60t31 63.5t49 54t60.5 32.5q47 13 81 -23q16 -17 17.5 -36t-5.5 -38q-11 -31 -28.5 -58t-39.5 -52q-24 -29 -55 -41.5t-66 -15.5q-24 -3 -47.5 6t-42.5 25.5t-31.5 39 t-13.5 46.5q-1 12 -1.5 24zM191 232q26 -1 52 13.5t45.5 38.5t31 53.5t8.5 59.5q-26 1 -50.5 -13.5t-44 -38t-31 -53.5t-11.5 -60z" />
<glyph unicode="&#xe52;" horiz-adv-x="916" d="M-34 903q-11 28 3 46.5t44 20.5q45 2 75.5 -19.5t52.5 -54.5q35 -51 55.5 -108t21.5 -120q1 -65 -1.5 -129t-4.5 -129q-1 -58 -1 -115.5v-115.5q0 -10 3 -20t5 -24q37 7 73 7t71.5 -4.5t69.5 -12.5t69 -15q50 -11 99.5 -18t100.5 -15q5 -1 8.5 -0.5t8.5 0.5q33 2 47 13.5 t22 43.5q2 11 3 23l2 24q1 100 -14 196t-48 190q-11 29 -21.5 58t-21.5 58q-3 8 -8.5 14.5t-10.5 14.5q-5 -5 -7.5 -7t-4.5 -4q-19 -34 -35.5 -68.5t-17.5 -75.5q0 -13 -2 -25.5t-4 -25.5q-5 -29 -4.5 -58.5t5.5 -58.5q3 -12 3 -24q2 -10 -1.5 -18t-15.5 -10q-11 -2 -22 4.5 t-13 16.5q-3 14 -4 27.5t-3 27.5q-6 58 -15.5 115.5t-29.5 113.5q-11 29 -25 56.5t-35 50.5q-5 5 -10 9.5t-10 9.5q-16 13 -30 -3q-5 -5 -9.5 -10.5t-7.5 -11.5q-22 -48 -41.5 -96t-28.5 -101v-21q8 11 14 18.5t11 14.5q13 17 23 21.5t22 -0.5q23 -9 32 -20.5t6 -32.5 q-2 -20 -7 -39t-11 -38q-6 -21 -13.5 -41t-15.5 -40q-17 -44 -57 -42q-20 2 -36 15t-19 33q-4 30 -6.5 60t-1.5 60q2 54 15 105t36 100q13 26 27 52t30 50q20 35 59 16q31 -15 56.5 -36t42.5 -52q12 -21 21.5 -42.5t20.5 -43.5l4 -6t5 -8q12 24 23.5 46t22.5 44q13 24 25 35 t24 11t25.5 -9.5t30.5 -25.5q27 -26 38 -61q20 -58 37.5 -115.5t34.5 -117.5q17 -65 20 -130.5t1 -132.5q-1 -23 -6.5 -46.5t-12.5 -46.5q-2 -8 -9.5 -15.5t-15.5 -9.5q-22 -5 -44 -11t-43 -4q-66 5 -131.5 15.5t-129.5 29.5q-54 16 -109.5 18t-111.5 -7q-5 -1 -9 -2l-8 -2 q-24 -1 -34 6t-10 31q1 38 -1 77t-1 78q2 75 5.5 149.5t5.5 149.5q3 75 -12 146.5t-50 138.5q-22 43 -65 58q-17 7 -26.5 3.5t-18.5 -20.5q-2 -2 -2 -4.5t-2 -4.5l-8.5 -8.5t-9.5 -3.5t-9.5 5.5t-6.5 9.5z" />
<glyph unicode="&#xe53;" horiz-adv-x="679" d="M48 251.5q-8 101.5 16 205.5q8 32 15 64.5t19 64.5q8 23 22 44t28 41q10 14 25.5 12.5t28.5 -16.5q31 -36 40 -79q7 -31 14 -61.5t15 -61.5q3 -16 16 -30q2 26 4.5 52.5t3.5 52.5q2 50 11.5 97.5t24.5 95.5q4 16 16 33q15 21 36.5 29t42.5 5t39.5 -17t29.5 -38 q18 -42 27.5 -85t15.5 -88q10 -69 18.5 -136.5t16.5 -136.5q5 -36 9.5 -72t10.5 -71q2 -15 6.5 -29t9.5 -28q7 -20 3.5 -30.5t-18.5 -15.5q-14 -5 -24 1.5t-15 26.5q-9 32 -16.5 64.5t-12.5 65.5q-7 53 -11.5 105t-9.5 105q-5 52 -13.5 103t-22.5 102q-7 23 -12.5 46.5 t-12.5 46.5q-5 13 -12 27q-9 14 -19.5 14t-16.5 -16q-10 -26 -19 -52.5t-12 -53.5q-11 -85 -18 -168.5t-15 -168.5q0 -1 -3 -10q-15 -7 -25 -9t-17.5 1.5t-13.5 12t-12 22.5q-29 65 -45 133t-35 136l-4 10t-5 11q-23 -26 -39 -82t-23.5 -123t-5 -137t16.5 -124q5 8 7.5 13 t6.5 10q8 13 16.5 26.5t19.5 23.5q17 16 32 10t18 -28q7 -50 -4 -96.5t-30 -91.5q-6 -12 -16.5 -18.5t-23 -7t-24.5 5t-19 16.5q-14 22 -20 44q-28 101 -36 202.5z" />
<glyph unicode="&#xe54;" horiz-adv-x="835" d="M4 586.5q-1 29.5 18 55.5q13 19 30.5 34t36.5 27q42 26 86.5 44t93.5 26q45 7 88.5 12.5t87.5 14.5q81 16 158 42t146 73q38 26 61.5 61.5t34.5 80.5q2 8 1 15t1 15q1 6 2.5 12.5t6.5 9.5q4 2 12 1.5t11 -4.5q7 -8 13 -17t5 -18q-5 -55 -25.5 -102t-68.5 -81 q-45 -32 -93.5 -55t-100.5 -41q-54 -18 -109.5 -30t-112.5 -20q-29 -4 -57.5 -7.5t-57 -9t-56 -15t-52.5 -25.5q-18 -11 -35.5 -21.5t-33.5 -24.5q-28 -23 -32 -46t11 -55q37 -77 43 -157t-8 -163q-3 -20 -6.5 -39.5t-5.5 -39.5q-2 -10 -2 -20t-1 -26q91 25 179.5 29.5 t180.5 3.5q-8 14 -13 24.5t-10 19.5q-23 38 -32 79t-11 85q-1 20 4 37.5t13 33t19.5 29.5t24.5 27q35 35 74.5 61.5t87.5 43.5q24 9 45.5 5.5t41.5 -15.5q27 -15 31 -42.5t-16 -52.5q-26 -33 -68 -35q-20 -1 -33.5 0t-24.5 5.5t-21 13.5t-22 24q-111 -59 -96 -181 q8 -66 39.5 -115.5t94.5 -78.5q16 -8 32 -16.5t32 -16.5q13 -7 23.5 -16t16.5 -25q-15 -15 -31 -14t-32 9q-24 11 -47.5 24t-47.5 23q-39 15 -81 18q-85 8 -167.5 0.5t-165.5 -27.5q-11 -2 -21 -3t-21 -2q-18 -2 -26 5t-10 26q-3 33 2 68q3 26 8 51t9 51q9 72 5 142t-39 136 q-16 30 -17 59.5zM575 500q9 -8 14 -12.5t10 -8.5q17 -14 33.5 -12.5t28.5 18.5q5 6 7.5 14.5t0.5 15.5q-2 11 -11.5 12t-17.5 -2q-15 -5 -30 -11z" />
<glyph unicode="&#xe55;" horiz-adv-x="829" d="M48 154q2 76 35 140q34 65 78 121t102 103q40 33 82.5 62.5t85.5 58.5q40 29 74 62.5t53 81.5q6 15 8.5 32t6.5 38q-16 -7 -27.5 -11.5t-22.5 -9.5l-68 -34t-69 -33q-32 -14 -66.5 -22t-69.5 -9q-15 0 -28 3q-48 11 -58 34t15 67q24 43 52.5 82t63.5 74q34 33 73.5 53 t85.5 24q51 4 92.5 -17t68.5 -73q5 -8 8.5 -16.5t8.5 -19.5q14 5 27 9.5t26 9.5q17 7 34 15l34 16q8 4 16.5 6t14.5 -9q8 -11 1.5 -18.5t-14.5 -12.5q-11 -8 -22.5 -15t-24.5 -14q-17 -9 -34.5 -16.5t-34.5 -17.5q-7 -5 -12 -12l-10 -14q-2 -4 -2 -9v-10q1 -39 -8.5 -71.5 t-27.5 -60t-43 -51t-53 -44.5q-49 -38 -101.5 -70t-97.5 -75q-20 -19 -39 -40.5t-36 -43.5q-38 -48 -67 -100.5t-43 -113.5q-6 -29 -0.5 -53.5t18.5 -48.5q12 -23 38 -23q17 -1 33 -1t33 2q62 7 123.5 7t123.5 -5q14 -2 28.5 -2t34.5 -1q-11 10 -17.5 16t-12.5 11 q-53 43 -70.5 98t-9.5 120q4 32 14.5 61.5t36.5 53.5q39 37 84.5 48.5t96.5 6.5q33 -3 43 -22t-1 -51q-8 -24 -24 -41.5t-36 -26.5t-41.5 -8.5t-41.5 11.5q-11 7 -20 17.5t-20 21.5q-19 -21 -29 -47t-8 -55q4 -69 35.5 -118t99.5 -74q32 -11 62.5 -25t59.5 -27 q2 -17 -4 -24.5t-17 -8.5q-17 -1 -33 -1t-33 2q-33 3 -66 7.5t-66 6.5q-110 7 -219 9q-30 0 -60.5 -4.5t-60.5 -4.5q-69 -1 -106 37t-35 107zM222 779q22 2 38.5 3t30.5 5q36 8 69.5 22t66 30t65 32.5t65.5 30.5q5 2 9.5 8.5t4.5 12.5q0 30 -12.5 55t-37.5 41 q-23 15 -46.5 12.5t-47.5 -13.5q-45 -20 -79 -51t-62 -70q-17 -26 -34 -53t-30 -65zM566 407q11 -10 21 -19t21 -18q17 10 31.5 20t15.5 36q-25 7 -46.5 2.5t-42.5 -21.5z" />
<glyph unicode="&#xe56;" horiz-adv-x="788" d="M36 1019q-1 29 1.5 59t4.5 59q1 14 2.5 28t1.5 28q0 23 6.5 31.5t24.5 10.5q20 1 35 -10t16 -28q1 -11 -1.5 -21t-3.5 -21q-2 -38 -3.5 -75t-2.5 -75q0 -38 22 -61t55 -35q33 -13 66.5 -14t68.5 2q48 4 94.5 8t93.5 3q123 -3 195 -108q14 -22 22.5 -44.5t4.5 -48.5 q-6 -49 -12.5 -98t-15.5 -97q-13 -61 -30 -119.5t-49 -112.5q-21 -34 -43 -67t-45 -66q-5 -7 -9.5 -13t-9.5 -14q-36 -54 -87.5 -77t-114.5 -25q-68 -1 -96 63q-37 85 -46.5 172.5t10.5 178.5q11 45 34.5 82.5t52.5 71.5q12 14 28 13.5t52 -14.5q-3 -9 -6 -17t-6 -17 q14 -13 27.5 -25t27.5 -26q20 -18 28 -40t-2 -49q-8 -23 -15.5 -46.5t-16.5 -46.5t-28 -28t-39 -5q-20 1 -29 11.5t-15 35.5q-3 11 -5.5 21t-4.5 20q-1 2 -7 13q-15 -29 -15.5 -58t3.5 -57q6 -41 16 -81t22 -79q16 -50 66 -34q17 5 33.5 13.5t27.5 21.5q57 62 104 131.5 t77 147.5q23 63 38 128.5t28 131.5q10 51 -3.5 95.5t-58.5 76.5q-31 23 -66 30.5t-72 5.5q-35 -1 -70 -5.5t-70 -3.5q-41 0 -81 2.5t-79 9.5q-59 11 -94 53.5t-37 103.5zM342 445l2 -10l2 -10q2 1 3 1t3 1v18h-10z" />
<glyph unicode="&#xe57;" horiz-adv-x="1042" d="M26 133q-2 48 0 94.5t4 94.5q1 35 7 69.5t15 68.5t19 67.5t19 67.5q17 60 50 112.5t73 100.5q13 15 36.5 22t49.5 7t50 -7.5t39 -20.5q51 -48 64 -110q10 -44 18 -87.5t16 -87.5q2 -8 5 -16.5t8 -24.5q5 15 9 24t6 17q15 51 29.5 101t30.5 101q5 15 12.5 29t16.5 28 q26 41 65.5 43.5t73.5 -32.5q38 -42 51 -91.5t19 -102.5q7 -58 12.5 -116t12.5 -119q18 9 21.5 23t7.5 27q28 112 56.5 222.5t54.5 222.5q12 57 18 114.5t10 115.5q2 35 -14 64.5t-39 54.5q-17 -2 -33.5 -3t-33.5 -3q-7 19 -9 32q-5 28 -0.5 43.5t16 21.5t27.5 4.5t34 -8.5 q20 -8 38.5 -23t32.5 -32q86 -110 59 -249q-11 -56 -19.5 -111t-25.5 -110q-17 -59 -31 -117.5t-29 -117.5q-14 -55 -27.5 -109.5t-27.5 -109.5q-12 -51 -22.5 -100.5t-23.5 -99.5q-3 -12 -11 -24t-18 -18q-27 -14 -47.5 0t-23.5 46q-7 89 -13 177.5t-17 177.5 q-8 59 -22 116t-28 116q-2 7 -7 14.5t-12 19.5q-10 -24 -21 -46.5t-21 -44t-17.5 -43.5t-10.5 -46q-9 -67 -16 -134t-16 -134q-2 -9 -7.5 -19.5t-13.5 -13.5q-16 -6 -34.5 -6t-29.5 17q-14 21 -28 43.5t-20 46.5q-14 48 -22 97t-19 98q-21 90 -51 176q-5 12 -17 21.5 t-21 18.5q-29 -9 -45 -26.5t-30 -38.5q-44 -67 -67 -141t-38 -151q-11 -55 -16.5 -109.5t2.5 -113.5q5 13 8.5 25.5t9.5 24.5q9 20 19 41t23 39q7 11 19 19t24 10q19 4 34.5 4.5t25.5 -6t14 -20.5t0 -38q-8 -47 -22 -91t-50 -80q-11 -11 -16.5 -29t-16.5 -41 q-9 -8 -24.5 -8.5t-35.5 8.5q-9 5 -19.5 6.5t-21.5 3.5q-18 3 -30 8t-19.5 13t-11 20t-3.5 31z" />
<glyph unicode="&#xe58;" horiz-adv-x="950" d="M14 361q2 46 14.5 88t33.5 83q43 83 106 145t136 116q56 42 117.5 73t133.5 41q18 2 35.5 6.5t35.5 6.5q38 4 71.5 16t63.5 30t58 41t54 48q20 20 41 38.5t42 38.5q21 -8 26 -18.5t-7 -30.5q-18 -31 -42 -55.5t-51 -47.5q-9 -8 -19 -15.5t-18 -15.5q-31 -31 -68.5 -46 t-79.5 -20q-79 -10 -155 -29t-142 -64q-60 -40 -116 -85t-100 -102q-35 -46 -62 -96t-37 -109q-1 -5 -1.5 -11t-0.5 -11q0 -19 2 -31t8.5 -19t18 -10t30.5 -3q26 0 51.5 1.5t51.5 2.5q47 2 83 -16t60 -59q3 -5 5.5 -11t7.5 -17q14 18 22 29t14 21q22 33 42 66.5t42 66.5 q17 25 39.5 42.5t57.5 16.5q-23 54 -12 101.5t43 89.5q27 35 57 68.5t61 65.5q36 36 91 31q20 -2 27 -10t4 -28q-3 -25 -8 -49t-8 -49q-5 -54 -8 -107.5t-8 -107.5q-7 -72 -14.5 -143t-15.5 -143q-3 -32 -6.5 -62.5t-7.5 -62.5q-3 -30 -34 -36q-30 -8 -39 19q-6 20 -11 39 t-11 39q-17 57 -33.5 112t-34.5 111q-5 18 -15 34.5t-27 29.5q-39 -48 -70.5 -97.5t-63.5 -100.5q-15 -24 -31 -46.5t-33 -45.5q-4 -5 -9.5 -10t-11.5 -6q-11 -2 -23.5 -3t-22.5 4q-5 2 -4.5 15.5t2.5 24.5q6 28 1 53.5t-20 44t-38.5 29t-52.5 10.5q-18 0 -36 -3t-35 -3 q-18 -1 -36.5 -0.5t-35.5 4.5q-35 8 -55 32.5t-19 60.5zM661 442q22 -24 36.5 -51t25 -56t18.5 -58.5t19 -58.5q3 1 6 1t6 1q6 81 12.5 162t12.5 162q-2 0 -4.5 0.5t-5.5 0.5q-31 -26 -62.5 -51.5t-63.5 -51.5zM674 532q22 11 36.5 23t18.5 30q7 29 23.5 45t48.5 16 q2 22 3.5 41t3.5 38q-6 2 -14 4q-20 -20 -39.5 -41t-35.5 -44.5t-27.5 -51t-17.5 -60.5z" />
<glyph unicode="&#xe59;" horiz-adv-x="842" d="M45 172.5q2 45.5 15 90.5q13 48 25.5 94t32.5 91q20 44 46.5 84t52.5 81q7 11 15.5 20t15.5 19q28 39 66.5 63t79.5 33t82 3.5t74 -24.5q5 -2 10 -3.5t14 -3.5q5 17 10 33.5t10 32.5q5 19 11 37.5t15 35t22 30.5t32 24q24 14 50 19q14 2 22 9t14 20q139 316 383 560 q24 23 51.5 43t53.5 40q21 15 40 -4q11 -11 8 -21t-10 -19q-2 -5 -6 -8.5t-8 -5.5q-31 -21 -57.5 -46.5t-50.5 -53t-46.5 -56.5t-46.5 -57q-62 -75 -111 -158.5t-97 -168.5q-5 -9 -8 -19.5t-7 -21.5q9 -8 10 -8q30 -9 47 -17t25 -20t9.5 -30.5t-0.5 -49.5q-1 -21 -3 -42 t-4 -41q-59 -28 -103 16q-14 16 -27 32t-27 33q-8 11 -16.5 22.5t-19.5 25.5q-26 -22 -42.5 -46t-26.5 -53q-7 -20 -12 -40.5t-10 -40.5q-8 -35 -8 -68.5t6 -69.5q11 -56 13.5 -113t3.5 -115q1 -55 -3 -109.5t-8 -109.5q-1 -9 -4 -19.5t-9 -14.5q-10 -7 -22.5 -9.5 t-23.5 0.5q-7 2 -12 14.5t-5 21.5q1 25 4.5 49t5.5 49q4 45 6.5 90t2 89.5t-5.5 89t-16 88.5q-6 23 -17.5 46t-23.5 44q-6 11 -18 19.5t-26 14t-29 7t-28 -1.5q-27 -7 -49.5 -20.5t-43.5 -33.5q-47 -45 -82 -95t-60.5 -105t-42.5 -114t-27 -121q-2 -17 -1 -33.5t1 -33.5 q2 -1 4.5 -1t5.5 -1q2 8 5 16.5t4 17.5q1 54 23.5 98.5t47.5 89.5q10 17 30 26q26 11 44 -2t16 -42q-2 -43 -14 -81t-31.5 -72.5t-44.5 -66.5t-52 -63q-17 -19 -39 -20.5t-45 -0.5q-17 1 -22 14t-7 26q-8 47 -6 92.5zM847 885q2 -6 3.5 -12.5t3.5 -12.5q3 0 5 0.5t4 1.5 q-1 6 -2 12.5t-3 13.5q-3 -1 -5.5 -1.5t-5.5 -1.5z" />
<glyph unicode="&#xe5a;" horiz-adv-x="1362" d="M66 631q0 48 21 90.5t56.5 73.5t82.5 49t100 18h30v-61h-30q-41 0 -77.5 -14t-63.5 -37t-42.5 -54t-15.5 -65q0 -152 205 -152q214 0 479 133q254 128 254 219v31h61v-862h-61v713q-108 -114 -336 -205q-228 -90 -397 -90q-266 0 -266 213zM1204 0v860h62v-860h-62z" />
<glyph unicode="&#xe5b;" horiz-adv-x="1352" d="M94 432q0 72 14.5 130.5t40.5 100.5t63.5 64.5t84.5 22.5q39 0 70 -15.5t52.5 -44t33 -68t11.5 -86.5q0 -89 -40 -143q-34 -43 -80 -43q-20 0 -37.5 9t-30 25t-19.5 37t-7 44q0 22 6.5 42.5t19 36t30 25t38.5 9.5q32 0 53 -21q0 63 -28.5 98t-71.5 35q-30 0 -56 -17 t-44.5 -47.5t-29 -73.5t-10.5 -95q0 -66 13.5 -119t37.5 -90.5t57.5 -57.5t72.5 -20q46 0 85.5 28t68.5 79t46 121.5t17 155.5v24l-2 36l31 39l102 -227l72 215l71 -190l64 155l72 -153l63 116l64 -98l20 41h234l-50 -61h-145l-61 -80l-58 78l-71 -130l-64 134l-76 -170 l-59 172l-66 -197l-88 191q-10 -80 -35 -143.5t-61 -108t-80.5 -68t-93.5 -23.5q-50 0 -93.5 24t-76 67t-52 103t-22.5 132zM301 465q0 -25 12 -41t29 -16q20 0 31.5 16t11.5 41t-11.5 41t-31.5 16q-17 0 -29 -16t-12 -41z" />
<glyph unicode="&#x2000;" horiz-adv-x="934" />
<glyph unicode="&#x2001;" horiz-adv-x="1868" />
<glyph unicode="&#x2002;" horiz-adv-x="934" />
<glyph unicode="&#x2003;" horiz-adv-x="1868" />
<glyph unicode="&#x2004;" horiz-adv-x="622" />
<glyph unicode="&#x2005;" horiz-adv-x="467" />
<glyph unicode="&#x2006;" horiz-adv-x="311" />
<glyph unicode="&#x2007;" horiz-adv-x="311" />
<glyph unicode="&#x2008;" horiz-adv-x="233" />
<glyph unicode="&#x2009;" horiz-adv-x="373" />
<glyph unicode="&#x200a;" horiz-adv-x="103" />
<glyph unicode="&#x200b;" />
<glyph unicode="&#x2010;" horiz-adv-x="1053" d="M94 463v61h862v-61h-862z" />
<glyph unicode="&#x2011;" horiz-adv-x="1053" d="M94 463v61h862v-61h-862z" />
<glyph unicode="&#x2012;" horiz-adv-x="1053" d="M94 463v61h862v-61h-862z" />
<glyph unicode="&#x2013;" horiz-adv-x="862" d="M0 463v61h862v-61h-862z" />
<glyph unicode="&#x2014;" horiz-adv-x="1292" d="M0 463v61h1292v-61h-1292z" />
<glyph unicode="&#x2018;" horiz-adv-x="395" d="M96 934q0 86 41 143.5t131 89.5q6 2 15 2q16 0 16 -10v-4q0 -12 -14 -20q-28 -15 -47.5 -27t-32.5 -24.5t-21.5 -26.5t-13.5 -33h18q18 0 34 -7t28.5 -19t20 -28.5t7.5 -35.5q0 -18 -7 -34.5t-19 -29t-28.5 -19.5t-35.5 -7q-39 0 -65.5 26.5t-26.5 63.5z" />
<glyph unicode="&#x2019;" horiz-adv-x="395" d="M96 856q0 14 17 23q27 15 46 27t32 24t21 25.5t13 31.5h-16q-39 0 -65.5 26.5t-26.5 65.5q0 37 26.5 63.5t65.5 26.5q18 0 34 -7t28.5 -19.5t20 -29t7.5 -34.5q0 -88 -40 -144t-132 -89q-6 -2 -12 -2q-19 0 -19 12z" />
<glyph unicode="&#x201a;" d="M-807 964.5q-3 15.5 4 33.5q10 25 26 45.5t34 40.5q20 23 44 42t52 30q34 13 68.5 23t69.5 12.5t70.5 -3.5t70.5 -23q17 -8 32 -20.5t30 -23.5q4 -3 7.5 -6t9.5 -5q-7 29 -14 56.5t-30 48.5l-9 9q-6 7 -10 14.5t4 16.5q7 8 16 6t16 -7q11 -9 21 -19t18 -22 q20 -32 30.5 -67t21.5 -70q2 -8 4.5 -16t7.5 -13q14 -16 15 -32t-8 -33q-9 -7 -18 -5t-18 7q-20 10 -35 21q-21 16 -43 24.5t-44.5 11.5t-46 2t-46.5 -5q-38 -6 -74 -15t-73 -17q-22 -5 -44 -3q-7 1 -13.5 4.5t-11.5 8.5q-7 6 -5 12.5t10 9.5q2 2 4.5 2t4.5 1q44 8 87 16.5 t86 16.5q42 8 82 5t80 -14q8 -2 13 -3l1 1l6 2q-43 53 -94.5 77.5t-119.5 8.5q-32 -7 -62 -16.5t-58 -26.5q-17 -10 -34 -24.5t-32 -32t-27 -36.5t-18 -37q4 -3 8.5 -5.5t7.5 -6.5q3 -3 4 -8t3 -10q-16 -12 -32.5 -11t-31.5 7q-14 5 -17 20.5z" />
<glyph unicode="&#xf702;" d="M-807 964.5q-3 15.5 4 33.5q10 25 26 45.5t34 40.5q20 23 44 42t52 30q34 13 68.5 23t69.5 12.5t70.5 -3.5t70.5 -23q17 -8 32 -20.5t30 -23.5q4 -3 7.5 -6t9.5 -5q-7 29 -14 56.5t-30 48.5l-9 9q-6 7 -10 14.5t4 16.5q7 8 16 6t16 -7q11 -9 21 -19t18 -22 q20 -32 30.5 -67t21.5 -70q2 -8 4.5 -16t7.5 -13q14 -16 15 -32t-8 -33q-9 -7 -18 -5t-18 7q-20 10 -35 21q-21 16 -43 24.5t-44.5 11.5t-46 2t-46.5 -5q-38 -6 -74 -15t-73 -17q-22 -5 -44 -3q-7 1 -13.5 4.5t-11.5 8.5q-7 6 -5 12.5t10 9.5q2 2 4.5 2t4.5 1q44 8 87 16.5 t86 16.5q42 8 82 5t80 -14q8 -2 13 -3l1 1l6 2q-43 53 -94.5 77.5t-119.5 8.5q-32 -7 -62 -16.5t-58 -26.5q-17 -10 -34 -24.5t-32 -32t-27 -36.5t-18 -37q4 -3 8.5 -5.5t7.5 -6.5q3 -3 4 -8t3 -10q-16 -12 -32.5 -11t-31.5 7q-14 5 -17 20.5z" />
<glyph unicode="&#x201e;" d="M-864.5 966q-0.5 19 2.5 36q4 21 12.5 41.5t19.5 40.5v-1q12 20 27.5 36t32.5 29q9 8 21.5 15t25.5 15q14 8 29.5 16t30.5 16l-1 -1q22 11 43.5 15t43.5 7q8 2 18 2.5t19 0.5q40 0 85 -14q10 -4 21 -10t22 -13l9 -6v1q23 -14 39.5 -33t30.5 -42q8 -12 9.5 -24.5 t0.5 -25.5q-1 -3 -1 -7q0 -2 -0.5 -4.5t-0.5 -4.5q0 -16 -6 -21.5t-21 -3.5q-3 0 -8 0.5t-10 1.5q-4 0 -12 0.5t-9 0.5q4 16 5 17l-23 10q-19 10 -29 11q-14 5 -31.5 8.5t-36.5 6.5q-20 2 -42.5 -1.5t-43.5 -8.5q-23 -4 -44 -12.5t-41 -19.5q-26 -14 -48.5 -33t-39.5 -44 q-4 -6 -6.5 -10.5t-4.5 -9.5l-5 -10q-8 -21 -28 -18q-2 -3 -10 -6q-18 -6 -29 5l-9 15q-7 18 -7.5 37zM-815 979q5 9 11.5 17.5t13.5 16.5v-1q25 26 53.5 46.5t60.5 34.5q8 4 22.5 8t29.5 8h-1l27 9q21 7 41.5 8.5t40.5 1.5t39.5 -5t39.5 -12q4 -2 7 -2q15 -5 31.5 -11 t30.5 -14q-1 5 -3 9.5t-4 9.5q-11 17 -24 31t-31 25h1q2 -1 0.5 0t-4 2t-5.5 2.5t-4 2.5l-26 14q-14 5 -29.5 7.5t-29.5 2.5q-7 0 -16.5 -0.5t-17.5 -1.5l-27 -4l-17 -1q-10 -2 -21 -7t-19 -9l1 1l-6 -4q-24 -11 -46 -23.5t-39 -25.5q-29 -22 -49 -52.5t-28 -65.5z M-393 1277q21 9 30.5 6.5t19.5 -20.5l5 -10l-1 1l12 -33l12 -43l13 -47l4 -6q0 -3 2 -3l14 -25l-6 -20q-15 -8 -24 -7t-18 15q-10 18 -15 31l1 -1q-4 7 -4.5 12t-2.5 11v-1l-5 13l-7 26l1 -1q-6 20 -11.5 38.5t-14.5 38.5q-4 8 -4 12q0 1 -0.5 6.5t-0.5 6.5zM-329 1261v6 l12 20q17 2 24 -1t12 -16q4 -8 7 -17.5t5 -18.5l6 -35l6 -31q5 -29 12 -57.5t18 -56.5q0 -2 2 -6l2 -9q2 -11 -5.5 -17.5t-18.5 -4.5q-6 2 -11 5t-8 6q-2 2 -4 6.5t-4 8.5q-9 30 -17 59t-13 58q-2 16 -5 31t-6 31q-2 5 -3.5 11t-3.5 10l1 -3q-5 5 -6 10.5t-2 10.5z" />
<glyph unicode="&#xf704;" d="M-864.5 966q-0.5 19 2.5 36q4 21 12.5 41.5t19.5 40.5v-1q12 20 27.5 36t32.5 29q9 8 21.5 15t25.5 15q14 8 29.5 16t30.5 16l-1 -1q22 11 43.5 15t43.5 7q8 2 18 2.5t19 0.5q40 0 85 -14q10 -4 21 -10t22 -13l9 -6v1q23 -14 39.5 -33t30.5 -42q8 -12 9.5 -24.5 t0.5 -25.5q-1 -3 -1 -7q0 -2 -0.5 -4.5t-0.5 -4.5q0 -16 -6 -21.5t-21 -3.5q-3 0 -8 0.5t-10 1.5q-4 0 -12 0.5t-9 0.5q4 16 5 17l-23 10q-19 10 -29 11q-14 5 -31.5 8.5t-36.5 6.5q-20 2 -42.5 -1.5t-43.5 -8.5q-23 -4 -44 -12.5t-41 -19.5q-26 -14 -48.5 -33t-39.5 -44 q-4 -6 -6.5 -10.5t-4.5 -9.5l-5 -10q-8 -21 -28 -18q-2 -3 -10 -6q-18 -6 -29 5l-9 15q-7 18 -7.5 37zM-815 979q5 9 11.5 17.5t13.5 16.5v-1q25 26 53.5 46.5t60.5 34.5q8 4 22.5 8t29.5 8h-1l27 9q21 7 41.5 8.5t40.5 1.5t39.5 -5t39.5 -12q4 -2 7 -2q15 -5 31.5 -11 t30.5 -14q-1 5 -3 9.5t-4 9.5q-11 17 -24 31t-31 25h1q2 -1 0.5 0t-4 2t-5.5 2.5t-4 2.5l-26 14q-14 5 -29.5 7.5t-29.5 2.5q-7 0 -16.5 -0.5t-17.5 -1.5l-27 -4l-17 -1q-10 -2 -21 -7t-19 -9l1 1l-6 -4q-24 -11 -46 -23.5t-39 -25.5q-29 -22 -49 -52.5t-28 -65.5z M-393 1277q21 9 30.5 6.5t19.5 -20.5l5 -10l-1 1l12 -33l12 -43l13 -47l4 -6q0 -3 2 -3l14 -25l-6 -20q-15 -8 -24 -7t-18 15q-10 18 -15 31l1 -1q-4 7 -4.5 12t-2.5 11v-1l-5 13l-7 26l1 -1q-6 20 -11.5 38.5t-14.5 38.5q-4 8 -4 12q0 1 -0.5 6.5t-0.5 6.5zM-329 1261v6 l12 20q17 2 24 -1t12 -16q4 -8 7 -17.5t5 -18.5l6 -35l6 -31q5 -29 12 -57.5t18 -56.5q0 -2 2 -6l2 -9q2 -11 -5.5 -17.5t-18.5 -4.5q-6 2 -11 5t-8 6q-2 2 -4 6.5t-4 8.5q-9 30 -17 59t-13 58q-2 16 -5 31t-6 31q-2 5 -3.5 11t-3.5 10l1 -3q-5 5 -6 10.5t-2 10.5z" />
<glyph unicode="&#x2020;" d="M-545.5 1370.5q-1.5 11.5 14.5 23.5q15 10 25 6.5t18 -11.5q3 -2 6.5 -4t-0.5 -1l3 -2q47 6 58 -42q2 -11 2 -22.5v-22.5q0 -18 0.5 -36t0.5 -36q0 -36 0.5 -73t1.5 -73q0 -8 1 -17.5t3 -19.5l4 -25q1 -8 -2 -20.5t-6 -26.5q-39 5 -55.5 20t-17.5 40q-2 42 -5 83t-7 83 l-2 27q-1 12 -1.5 24t-2.5 24q-2 17 -7.5 33.5t-15.5 30.5q-4 4 -5 9l-3 6q-6 11 -7.5 22.5z" />
<glyph unicode="&#xf705;" d="M-545.5 1370.5q-1.5 11.5 14.5 23.5q15 10 25 6.5t18 -11.5q3 -2 6.5 -4t-0.5 -1l3 -2q47 6 58 -42q2 -11 2 -22.5v-22.5q0 -18 0.5 -36t0.5 -36q0 -36 0.5 -73t1.5 -73q0 -8 1 -17.5t3 -19.5l4 -25q1 -8 -2 -20.5t-6 -26.5q-39 5 -55.5 20t-17.5 40q-2 42 -5 83t-7 83 l-2 27q-1 12 -1.5 24t-2.5 24q-2 17 -7.5 33.5t-15.5 30.5q-4 4 -5 9l-3 6q-6 11 -7.5 22.5z" />
<glyph unicode="&#x2021;" d="M-683.5 1184.5q2.5 19.5 25.5 33.5q21 12 44 16.5t45.5 1t42 -15.5t33.5 -31q4 -5 6 -11.5t4 -12.5q1 -10 0.5 -20t-0.5 -21q-14 -1 -21 -9.5t-13 -19.5q-8 -16 -16 -31.5t-17 -32.5q6 1 10 0.5t7 1.5q29 11 56.5 23.5t51.5 31.5q32 25 64 48t64 48q35 29 60.5 64 t38.5 79q7 23 4 44.5t-21 40.5q-3 2 -4.5 6.5t-4.5 9.5q5 5 11 9.5t13 11.5q5 -7 10.5 -12.5t7.5 -12.5q19 -46 19 -93q-1 -21 -10 -40l-18 -38q-19 -40 -48.5 -70.5t-64.5 -56.5q-41 -31 -81.5 -60.5t-86.5 -52.5q-35 -19 -74 -33q-9 -2 -19 -1t-20 4q-41 12 -14 46 q14 18 25 38t21 43q-8 1 -14 1.5t-11 -0.5q-24 -2 -44 7t-39 22q-2 1 -6 5q-19 20 -16.5 39.5zM-650 1170q6 -10 14 -13.5t17 -5.5q20 -4 40 -2t40 7l12 4t8 11q1 9 -4.5 13.5t-12.5 7.5q-5 2 -9.5 3.5t-9.5 2.5q-43 4 -85 -16q-3 -2 -5.5 -5.5t-4.5 -6.5z" />
<glyph unicode="&#xf706;" d="M-683.5 1184.5q2.5 19.5 25.5 33.5q21 12 44 16.5t45.5 1t42 -15.5t33.5 -31q4 -5 6 -11.5t4 -12.5q1 -10 0.5 -20t-0.5 -21q-14 -1 -21 -9.5t-13 -19.5q-8 -16 -16 -31.5t-17 -32.5q6 1 10 0.5t7 1.5q29 11 56.5 23.5t51.5 31.5q32 25 64 48t64 48q35 29 60.5 64 t38.5 79q7 23 4 44.5t-21 40.5q-3 2 -4.5 6.5t-4.5 9.5q5 5 11 9.5t13 11.5q5 -7 10.5 -12.5t7.5 -12.5q19 -46 19 -93q-1 -21 -10 -40l-18 -38q-19 -40 -48.5 -70.5t-64.5 -56.5q-41 -31 -81.5 -60.5t-86.5 -52.5q-35 -19 -74 -33q-9 -2 -19 -1t-20 4q-41 12 -14 46 q14 18 25 38t21 43q-8 1 -14 1.5t-11 -0.5q-24 -2 -44 7t-39 22q-2 1 -6 5q-19 20 -16.5 39.5zM-650 1170q6 -10 14 -13.5t17 -5.5q20 -4 40 -2t40 7l12 4t8 11q1 9 -4.5 13.5t-12.5 7.5q-5 2 -9.5 3.5t-9.5 2.5q-43 4 -85 -16q-3 -2 -5.5 -5.5t-4.5 -6.5z" />
<glyph unicode="&#x2022;" horiz-adv-x="702" d="M94 389q0 52 20.5 99t56 81.5t82 55t97.5 20.5q52 0 99 -20.5t81.5 -55t55 -81.5t20.5 -99q0 -51 -20.5 -97.5t-55 -82t-81.5 -56t-99 -20.5t-98.5 20.5t-81.5 55t-55.5 81t-20.5 99.5z" />
<glyph unicode="&#x2026;" horiz-adv-x="1079" d="M94 49q0 23 17 39t39 16q23 0 39 -16t16 -39q0 -20 -16 -36.5t-39 -16.5q-22 0 -39 16.5t-17 36.5zM485 49q0 23 16.5 39t39.5 16q20 0 37.5 -16t17.5 -39q0 -20 -16 -36.5t-39 -16.5t-39.5 16.5t-16.5 36.5zM874 49q0 23 17 39t39 16q23 0 39 -16t16 -39 q0 -20 -16 -36.5t-39 -16.5q-22 0 -39 16.5t-17 36.5z" />
<glyph unicode="&#x202f;" horiz-adv-x="373" />
<glyph unicode="&#x2030;" d="M-703 1116l53 8h-1q17 4 32 7t22 5l24 6l24 7q-5 12 -10.5 25.5t-11.5 27.5l-10 24l16 37q33 17 59 8.5t40 -40.5v1q3 -8 5 -12.5t2.5 -7t1 -4.5t2.5 -5l4 -10v1l5 -13l1 -2q8 1 13 3.5t11 4.5l12 4l64 20q9 4 20.5 4.5t19.5 -0.5q22 -2 37.5 -18.5t9.5 -44.5 q-2 -13 -16 -25t-26 -15l-86 -25h1l-19 -6l-11 -4v-3q4 -23 7 -47.5t3 -56.5q0 -6 -0.5 -14.5t-2.5 -30.5q-22 -4 -31.5 -4.5t-15.5 -0.5q-30 0 -43.5 11.5t-18.5 40.5l1 -1q-3 12 -4 19t-1 14v8q-1 1 -1 4q0 2 -0.5 4.5t-0.5 5.5q0 5 -0.5 10t-1.5 10q-15 -5 -27 -8 q-14 -4 -29.5 -7.5t-29.5 -6.5l-10 -2h-12.5t-13.5 1h1q-2 0 -4.5 0.5t-4.5 0.5q-48 4 -48 92zM-467 1233l1 -1z" />
<glyph unicode="&#xf708;" d="M-703 1116l53 8h-1q17 4 32 7t22 5l24 6l24 7q-5 12 -10.5 25.5t-11.5 27.5l-10 24l16 37q33 17 59 8.5t40 -40.5v1q3 -8 5 -12.5t2.5 -7t1 -4.5t2.5 -5l4 -10v1l5 -13l1 -2q8 1 13 3.5t11 4.5l12 4l64 20q9 4 20.5 4.5t19.5 -0.5q22 -2 37.5 -18.5t9.5 -44.5 q-2 -13 -16 -25t-26 -15l-86 -25h1l-19 -6l-11 -4v-3q4 -23 7 -47.5t3 -56.5q0 -6 -0.5 -14.5t-2.5 -30.5q-22 -4 -31.5 -4.5t-15.5 -0.5q-30 0 -43.5 11.5t-18.5 40.5l1 -1q-3 12 -4 19t-1 14v8q-1 1 -1 4q0 2 -0.5 4.5t-0.5 5.5q0 5 -0.5 10t-1.5 10q-15 -5 -27 -8 q-14 -4 -29.5 -7.5t-29.5 -6.5l-10 -2h-12.5t-13.5 1h1q-2 0 -4.5 0.5t-4.5 0.5q-48 4 -48 92zM-467 1233l1 -1z" />
<glyph unicode="&#x2039;" d="M-159 1340.5q-2 16.5 19 34.5q26 15 41 12t27 -14l7 -3q26 1 43 -13t24 -43q1 -10 1 -23.5v-24.5v-35q0 -8 0.5 -17t0.5 -17q0 -36 0.5 -71.5t1.5 -70.5q0 -6 1 -15t3 -18l3 -25q2 -9 -0.5 -19.5t-4.5 -20.5q0 -5 -1 -15.5t-1 -12.5q-60 5 -84 25.5t-25 52.5 q-2 41 -5 79.5t-7 80.5l-2 28v4q-1 10 -1.5 19.5t-2.5 19.5q-2 14 -6 28t-12 25q-5 5 -8 17q-10 16 -12 32.5z" />
<glyph unicode="&#xf70a;" d="M-159 1340.5q-2 16.5 19 34.5q26 15 41 12t27 -14l7 -3q26 1 43 -13t24 -43q1 -10 1 -23.5v-24.5v-35q0 -8 0.5 -17t0.5 -17q0 -36 0.5 -71.5t1.5 -70.5q0 -6 1 -15t3 -18l3 -25q2 -9 -0.5 -19.5t-4.5 -20.5q0 -5 -1 -15.5t-1 -12.5q-60 5 -84 25.5t-25 52.5 q-2 41 -5 79.5t-7 80.5l-2 28v4q-1 10 -1.5 19.5t-2.5 19.5q-2 14 -6 28t-12 25q-5 5 -8 17q-10 16 -12 32.5z" />
<glyph unicode="&#x203a;" d="M-380 1802.5q-2 11.5 14 23.5q15 10 25.5 6.5t18.5 -11.5q3 -2 6 -3.5t-1 -0.5l3 -3q49 8 58 -42q2 -10 2 -21.5v-22.5q0 -19 0.5 -37t0.5 -36q0 -36 0.5 -73t1.5 -73q0 -8 1 -17.5t3 -19.5l4 -25q1 -7 -2 -20t-6 -27q-39 5 -55 20t-17 40q-3 42 -6 83t-7 83l-2 27 q-1 12 -1.5 24t-2.5 25q-2 17 -7 33t-16 30q-4 4 -5 9l-3 6q-5 11 -7 22.5z" />
<glyph unicode="&#xf713;" d="M-380 1802.5q-2 11.5 14 23.5q15 10 25.5 6.5t18.5 -11.5q3 -2 6 -3.5t-1 -0.5l3 -3q49 8 58 -42q2 -10 2 -21.5v-22.5q0 -19 0.5 -37t0.5 -36q0 -36 0.5 -73t1.5 -73q0 -8 1 -17.5t3 -19.5l4 -25q1 -7 -2 -20t-6 -27q-39 5 -55 20t-17 40q-3 42 -6 83t-7 83l-2 27 q-1 12 -1.5 24t-2.5 25q-2 17 -7 33t-16 30q-4 4 -5 9l-3 6q-5 11 -7 22.5z" />
<glyph unicode="&#x205f;" horiz-adv-x="467" />
<glyph unicode="&#x20ac;" horiz-adv-x="1110" d="M33 799v61h721q94 0 168 -53q30 12 30 33v69h64v-69q0 -46 -47 -78q47 -59 47 -131v-631h-64v401h-499v62h499v168q0 34 -15 64.5t-42 53.5t-63 36.5t-78 13.5h-721z" />
<glyph unicode="&#xf700;" horiz-adv-x="1110" d="M33 799v61h721q94 0 168 -53q30 12 30 33v69h64v-69q0 -46 -47 -78q47 -59 47 -131v-631h-64v401h-499v62h499v168q0 34 -15 64.5t-42 53.5t-63 36.5t-78 13.5h-721z" />
<glyph unicode="&#x2122;" d="M-644 912q1 14 4 28.5t8 28.5q18 54 46 107t68 96q18 18 41 32q11 6 24.5 10t26.5 4q28 0 53 -15t39 -47l-5 -22q-15 -13 -27 -10t-23 9l1 -1q-23 12 -29 12q-8 0 -29 -21q-55 -58 -88 -135h1q-8 -19 -13.5 -35t-10.5 -30l-3 -13q27 3 45 17l101 69l84 58v-1q39 26 71 63 q17 18 26 40.5t14 48.5q1 3 -1 8q0 -2 -5 -5l1 1l-11 -5q-3 -2 -7 -4.5t-8 -4.5t-6 -3.5t0 -0.5h1q-17 -8 -35 -7t-42 22q20 37 47.5 56.5t56.5 19.5q44 0 74 -35q9 -10 14 -23.5t3 -28.5q-8 -51 -33 -94.5t-67 -77.5h1q-31 -26 -64 -49.5t-65 -46.5l-49 -35 q-22 -17 -46.5 -30t-53.5 -21q-18 -5 -35.5 -6t-33.5 1q-31 3 -47.5 23.5t-13.5 52.5z" />
<glyph unicode="&#xf711;" d="M-644 912q1 14 4 28.5t8 28.5q18 54 46 107t68 96q18 18 41 32q11 6 24.5 10t26.5 4q28 0 53 -15t39 -47l-5 -22q-15 -13 -27 -10t-23 9l1 -1q-23 12 -29 12q-8 0 -29 -21q-55 -58 -88 -135h1q-8 -19 -13.5 -35t-10.5 -30l-3 -13q27 3 45 17l101 69l84 58v-1q39 26 71 63 q17 18 26 40.5t14 48.5q1 3 -1 8q0 -2 -5 -5l1 1l-11 -5q-3 -2 -7 -4.5t-8 -4.5t-6 -3.5t0 -0.5h1q-17 -8 -35 -7t-42 22q20 37 47.5 56.5t56.5 19.5q44 0 74 -35q9 -10 14 -23.5t3 -28.5q-8 -51 -33 -94.5t-67 -77.5h1q-31 -26 -64 -49.5t-65 -46.5l-49 -35 q-22 -17 -46.5 -30t-53.5 -21q-18 -5 -35.5 -6t-33.5 1q-31 3 -47.5 23.5t-13.5 52.5z" />
<glyph unicode="&#x25cc;" horiz-adv-x="1049" d="M96 430q0 19 14.5 33t34.5 14q17 0 32 -14t15 -33q0 -21 -14 -35.5t-33 -14.5q-20 0 -34.5 14.5t-14.5 35.5zM211 162q0 20 14 33.5t33 13.5q21 0 35 -13.5t14 -33.5t-14 -33.5t-35 -13.5q-19 0 -33 13.5t-14 33.5zM211 695q0 23 14 36t33 13q21 0 35 -13t14 -36 q0 -20 -14 -33.5t-35 -13.5q-19 0 -33 13.5t-14 33.5zM479 47q0 20 13.5 34t33.5 14q19 0 34 -14t15 -34q0 -19 -15 -33t-34 -14q-20 0 -33.5 14t-13.5 33zM479 810q0 20 13.5 33.5t33.5 13.5q19 0 34 -13.5t15 -33.5q0 -19 -15 -32.5t-34 -13.5q-20 0 -33.5 13.5 t-13.5 32.5zM744 162q0 20 14.5 33.5t34.5 13.5q18 0 32.5 -13.5t14.5 -33.5t-13.5 -33.5t-33.5 -13.5t-34.5 13.5t-14.5 33.5zM744 695q0 23 14.5 36t34.5 13q18 0 32.5 -13t14.5 -36q0 -20 -13.5 -33.5t-33.5 -13.5t-34.5 13.5t-14.5 33.5zM858 430q0 19 13.5 33t32.5 14 q21 0 35 -14t14 -33q0 -21 -13 -35.5t-36 -14.5q-19 0 -32.5 14.5t-13.5 35.5z" />
<glyph unicode="&#x25fc;" horiz-adv-x="760" d="M0 0v760h760v-760h-760z" />
<glyph unicode="&#xf701;" d="M-1125 1029q2 27 10 52t30 45q35 31 68 62.5t68 62.5q12 10 26 17t28 15q16 10 30.5 20t31.5 18q19 8 39 15t40 10q68 11 126 -19q25 -13 43.5 -34t33.5 -45q25 -38 37 -80.5t17 -87.5q2 -17 3.5 -34.5t3.5 -37.5q-8 -8 -17 -7t-17 6q-38 20 -76.5 30t-77.5 13t-79 0.5 t-80 -7.5q-44 -6 -86.5 -14t-83.5 -25q-11 -5 -22.5 -9.5t-22.5 -9.5q-29 -15 -51.5 -2t-21.5 46zM-1069 1028q64 19 128.5 32.5t129.5 19t131 0t133 -25.5q2 9 2.5 14t0.5 10q-3 100 -61 182q-31 42 -75 54t-92 -10q-38 -16 -73.5 -35t-66.5 -47q-37 -32 -72 -65.5 t-70 -67.5q-25 -25 -15 -61z" />
<glyph unicode="&#xf70c;" d="M-356 1030q-12 21 0 41q8 14 17.5 27.5t20.5 26.5q15 18 40 18q5 1 11 3t11 6q15 11 30.5 18t35.5 5q9 -2 15.5 1.5t11.5 8.5q8 8 17.5 9.5t19.5 -0.5q7 -1 12 -4.5t6 -10.5t-3 -10.5t-10 -6.5q-19 -9 -20 -15.5t10 -29.5q3 3 5.5 6.5t5.5 6.5q4 5 7.5 11t8.5 11 q17 20 33.5 16.5t24.5 -27.5q2 -8 2.5 -17t1.5 -18q1 -7 1.5 -14t1.5 -18q5 6 8 10t5 8q30 72 51 145t23 151q1 19 -5 35.5t-23 27.5q-8 6 -17 12l-18 12q-5 5 -6.5 7.5t-3.5 13.5q9 7 17.5 4.5t16.5 -7.5q10 -6 19 -13l18 -14q41 -31 41 -86q2 -62 -15 -121 q-14 -46 -28.5 -91.5t-30.5 -91.5q-6 -20 -11 -39.5t-18 -36.5q-11 -15 -24.5 -15.5t-22.5 15.5q-7 13 -8 26q-3 20 -6 39.5t-9 39.5q-3 -5 -6.5 -10t-5.5 -11q-5 -15 -9.5 -30t-9.5 -31q-2 -8 -4.5 -14t-13.5 -5q-12 0 -18.5 4t-8.5 15q-3 14 -5 29l-4 30q0 3 -0.5 6 l-1.5 9q-12 -15 -17 -29.5t-6 -30.5q-1 -6 -3.5 -15t-4.5 -8q-8 0 -16 2.5t-16 5.5q-2 1 -4 4t-4 7q-10 -20 -27 -28t-35 -13q-15 -5 -24 0t-16 21q-2 5 -5 8.5t-5 8.5zM-233.5 1119.5q-3.5 -5.5 5.5 -21.5q5 9 9.5 17.5t11.5 20.5q-23 -11 -26.5 -16.5z" />
<glyph unicode="&#xf70e;" d="M-188 1085q0 13 3 26q10 37 25.5 70.5t42.5 62.5q12 13 23.5 25.5t27.5 22.5q15 9 29.5 10.5t30.5 -6.5l4 -2l4 -2q11 -4 22 -3t19 12q11 15 22 29.5t19 30.5q16 35 29.5 70.5t27.5 70.5q1 2 1 3.5t1 3.5q5 13 21 10q14 -4 9 -20q-6 -20 -12 -38.5t-14 -37.5 q-12 -29 -25 -57t-30 -55q-18 -31 -44 -42.5t-63 5.5q-22 9 -40 -6q-27 -26 -49.5 -54t-35.5 -63q-1 -3 -2 -6.5t-3 -8.5q8 7 15 12l14 10q8 6 16 6t16 -4t9.5 -11t0.5 -15q-5 -49 -41 -79q-9 -8 -21 -10.5t-24 -0.5q-11 3 -20 17q-8 11 -8 24zM-132 1076q11 11 15 22.5 t6 24.5q-9 -9 -15.5 -19.5t-5.5 -27.5z" />
<glyph unicode="&#xf70f;" horiz-adv-x="1310" d="M-4 600q1 6 7 14.5t15 19.5t20.5 22.5l23.5 23.5q27 26 62 57q31 28 57 50q23 19 43.5 35t27.5 18q6 1 29.5 8.5t53.5 15.5t61.5 13.5t52.5 3.5t46 -6.5t47.5 -15t40.5 -29t25 -46.5t13.5 -47t10.5 -36t5 -37t-1 -50q-1 -20 -5 -66t-9 -103t-10 -118t-9 -111t-5.5 -82.5 t1.5 -32.5q4 0 24 2.5t45 5.5t48.5 5t35.5 1q8 -1 30.5 -3.5t52 -5.5t62.5 -7t61.5 -8t48.5 -8t24 -6q7 -3 17 -9t20.5 -10.5t20 -6t14.5 2.5t11.5 13.5t12 22.5t9.5 27.5t6 29.5q1 14 7 35t12 41q7 23 16 47q5 70 9 127q1 24 2.5 48.5t2.5 45t1.5 35.5t0.5 21 q-2 12 -3.5 43.5t-2.5 66t-1.5 63.5t0.5 36q0 7 2 31t4 50.5t2.5 48.5t-1.5 26t-0.5 11t3.5 13q3 7 7 15q2 19 3 35q1 14 0.5 24.5t-3.5 12.5q-3 1 2 5.5t12.5 8t15.5 4t12 -5.5q8 -11 17 -16t8 -15q-1 -4 -2.5 -25t-3.5 -51.5t-4 -66.5t-4 -68.5t-3 -57t-1 -33.5 q1 -13 1.5 -41.5t1.5 -57.5t2.5 -52.5t3.5 -26.5q1 -2 0 -23t-3.5 -52.5t-6.5 -68.5t-7.5 -70t-6.5 -58t-4 -33q-2 -12 -7 -40t-12 -57.5t-14 -53t-13 -26.5t-12 -11.5t-15 -17.5t-21 -15.5t-30 -5.5t-35.5 8t-35.5 14.5t-37.5 13.5t-41.5 5t-55.5 3t-66 9t-57 8.5 t-28.5 2.5q-4 -2 -16 -3.5t-26 -3t-26.5 -3.5t-17.5 -4t-25 -2t-42.5 3.5t-41.5 10t-21 16.5t-1.5 38t2 58.5t3.5 55.5t3 30q1 3 3 20.5t4 41.5t4 52t3.5 52t2 41t-0.5 20t0 19t2.5 39t3 49.5t3 50t1 41.5t-2.5 24q-3 9 -8 30t-15.5 43t-29.5 38t-51 13t-71.5 -11.5 t-73.5 -20t-57 -23t-22 -20.5t4.5 -14t8.5 -8.5t9.5 -5.5t7.5 -4t8.5 -7.5t11.5 -15t11 -22t6 -28.5q0 -16 2 -36t3 -42t0.5 -43.5t-5.5 -40.5q-6 -20 -18.5 -50t-26.5 -59q-16 -33 -34 -70q-6 -8 -9 -15q-2 -6 -2 -12.5t6 -8.5q10 17 21 29q9 11 19.5 18t19.5 4 q14 -7 22 -16q4 -4 6 -9q1 -17 0 -34q-1 -14 -4.5 -31t-11.5 -30t-21 -32t-26.5 -37t-25.5 -32t-18 -16q-6 -3 -18 -5t-24 1t-20.5 14.5t-7.5 36.5t-1.5 44.5t-3 37.5t4 36.5t19.5 42.5t30 49.5t26.5 48t18.5 41t7 29.5q0 7 1.5 24.5t3.5 40t4 47t2 45t-2 35t-8 17.5 q-9 4 -14.5 12t-12.5 12t-18 0t-30 -24t-39 -37t-36.5 -31t-27.5 -23t-13 -12t-10.5 -2.5t-17.5 5t-15 13t-4 19.5z" />
<glyph unicode="&#xf715;" d="M-500 1369q-12 21 0 41q8 14 17.5 27.5t20.5 26.5q15 18 40 18q5 1 11 3t11 6q15 11 30.5 18t35.5 5q9 -2 15.5 1.5t11.5 8.5q8 8 17.5 9.5t19.5 -0.5q7 -1 12 -4.5t6 -10.5t-3 -10.5t-10 -6.5q-19 -9 -20 -15.5t10 -29.5q3 3 5.5 6.5t5.5 6.5q4 5 7.5 11t8.5 11 q17 20 33.5 16.5t24.5 -27.5q2 -8 2.5 -17t1.5 -18q1 -7 1.5 -14t1.5 -18q5 6 8 10t5 8q30 72 51 145t23 151q1 19 -5 35.5t-23 27.5q-8 6 -17 12l-18 12q-5 5 -6.5 7.5t-3.5 13.5q9 7 17.5 4.5t16.5 -7.5q10 -6 19 -13l18 -14q41 -31 41 -86q2 -62 -15 -121 q-14 -46 -28.5 -91.5t-30.5 -91.5q-6 -20 -11 -39.5t-18 -36.5q-11 -15 -24.5 -15.5t-22.5 15.5q-7 13 -8 26q-3 20 -6 39.5t-9 39.5q-3 -5 -6.5 -10t-5.5 -11q-5 -15 -9.5 -30t-9.5 -31q-2 -8 -4.5 -14t-13.5 -5q-12 0 -18.5 4t-8.5 15q-3 14 -5 29l-4 30q0 3 -0.5 6 l-1.5 9q-12 -15 -17 -29.5t-6 -30.5q-1 -6 -3.5 -15t-4.5 -8q-8 0 -16 2.5t-16 5.5q-2 1 -4 4t-4 7q-10 -20 -27 -28t-35 -13q-15 -5 -24 0t-16 21q-2 5 -5 8.5t-5 8.5zM-377.5 1458.5q-3.5 -5.5 5.5 -21.5q5 9 9.5 17.5t11.5 20.5q-23 -11 -26.5 -16.5z" />
<glyph unicode="&#xf718;" d="M-274 -605q12 36 35 65.5t64 42.5q25 8 39 2t24 -32q6 -15 10.5 -32t7.5 -32l-1 1q9 -32 17.5 -65.5t16.5 -66.5q2 -12 3 -24.5t2 -24.5l3 -24q0 -31 -27 -37q-14 -2 -29 6.5t-19 22.5q-2 8 -3 15.5t-1 13.5q-1 24 -5.5 46t-9.5 44v-1l-3 10q-3 11 -5.5 23.5t-5.5 24.5 l-13 -18q-8 -11 -19 -18t-26 -8q-36 -2 -51 14t-4 52zM-235 -607q11 11 18.5 23t10.5 26l32 -19q-11 -10 -19.5 -21t-9.5 -24z" />
<glyph unicode="&#xf719;" d="M-478 -599q0 5 0.5 8.5t2.5 8.5q20 41 49.5 72t75.5 45q4 2 7 2l8 3h-1q11 5 23 6.5t25 -9.5q27 -22 38 -54v1q5 -13 8 -27.5t5 -28.5l5 -27l-1 3l7 -24q5 -17 9.5 -34t10.5 -35q2 -8 7 -10q18 -5 35.5 -8.5t36.5 -4.5q-2 42 -3.5 85t-4.5 84q-1 8 -3.5 14.5t-4.5 14.5 l-2 8l-7 16l-7 16v-1q-7 19 0.5 30.5t27.5 12.5q15 2 28.5 -6t18.5 -22q12 -26 19.5 -54t8.5 -57q2 -38 3.5 -74.5t3.5 -74.5q0 -17 -8 -28.5t-28 -16.5l-7 -2l5 1q-11 -4 -22 -6.5t-22 -1.5q-35 3 -78 14v-1q-37 7 -56.5 33.5t-28.5 57.5q-4 12 -5.5 23.5t-3.5 21.5l-5 24 q-1 6 -1.5 11.5t-2.5 11.5l-1 -1l-10 -12t-10 -13q-19 -24 -43.5 -37.5t-56.5 -12.5q-29 2 -39.5 14.5t-5.5 40.5zM-424 -590q9 1 20 9.5t21 20.5t17.5 26.5t9.5 26.5l21 -21q-11 -1 -23 -10t-22 -21t-16.5 -25.5t-6.5 -23.5z" />
<glyph unicode="&#xf71a;" d="M-182 -516q0 23 16.5 38t38.5 15q23 0 39 -15t16 -38q0 -25 -16 -40t-39 -15t-39 15t-16 40z" />
<glyph horiz-adv-x="873" d="M-6 470q7 17 17.5 33t23.5 28q39 39 79.5 76.5t81.5 73.5q32 29 56 27t50 -34q5 -6 7.5 -15t1.5 -17q-3 -38 -8 -74.5t-8 -72.5l-18 -255q-1 -14 -0.5 -27.5t0.5 -27.5l11 -1l26 66q17 51 39 98t52 92q4 6 7 11t8 10q27 28 47 -4q8 -12 13 -25t9 -27l58 -212 q9 -31 20.5 -48.5t32.5 -34.5q25 52 36 108q7 32 16 67.5t17 67.5h-1q6 19 9.5 31t7.5 22.5t8 23t11 31.5q4 11 7 23.5t9 31.5q-15 -5 -24.5 -7.5t-17.5 -6.5q-29 -12 -58 -26t-58 -25q-23 -9 -44 3t-30 35q-8 25 8 45q42 55 91 101.5t108 82.5q31 19 47 13t28 -41 q6 -17 9.5 -34.5t8.5 -37.5q15 2 29.5 3.5t29.5 3.5q7 1 14.5 2t14.5 -0.5t13 -7t11 -17.5q-21 -9 -41.5 -18.5t-43.5 -16.5q-22 -7 -33 -21t-17 -37q-10 -42 -24.5 -84t-25.5 -84q-9 -35 -18.5 -76t-19.5 -76t-22.5 -70.5t-24.5 -72.5q-29 1 -46.5 15t-29.5 33 q-32 56 -54 115.5t-33 123.5q-2 17 -8.5 33t-13.5 36q-29 -26 -43.5 -54.5t-25.5 -58.5q-22 -58 -43 -117t-42 -119q-3 -8 -6.5 -15.5t-8.5 -17.5q-23 5 -31 20t-9 32l-4 62t0 62q3 76 8 151.5t10 151.5l1 52q-17 -14 -30.5 -23t-24.5 -19q-35 -32 -76 -50.5t-86 -32.5 q-25 -8 -37.5 6.5t-2.5 37.5zM92 506q46 17 80 48.5t67 64.5q4 5 4.5 12t2.5 13l-9 6q-81 -61 -145 -144zM543 503q16 5 28.5 8.5t23.5 8.5q24 11 47.5 23.5t46.5 24.5q18 8 29 16.5t16 19.5t4 25.5t-7 35.5q-16 -3 -43 -20.5t-55.5 -41.5t-53.5 -51t-36 -49zM712 331 q0 1 0.5 2.5t0.5 3.5v-1q0 -1 -0.5 -2t-0.5 -3z" />
<glyph horiz-adv-x="683" d="M-763 920q1 26 11 55q18 57 45.5 107.5t68.5 95.5q15 16 37 29q15 9 32 11.5t34 -2.5t31 -17t23 -32q-8 -7 -15 -5t-14 6q-29 17 -44 14t-38 -27q-31 -32 -54.5 -68t-41.5 -78q-7 -17 -13 -34.5t-11 -34.5q-3 -9 -4 -19t-3 -21q24 -2 43.5 4t36.5 17q49 32 96 65.5 t95 65.5q22 15 41.5 31.5t36.5 36.5q20 22 30 47.5t16 53.5q3 16 -6 27q-6 8 -14 5l-16 -6q-8 -5 -15 -9.5t-15 -8.5q-12 -6 -23.5 -7t-22.5 9q12 22 30 35.5t38.5 17t41 -3t35.5 -24.5t12 -38q-13 -100 -95 -165q-45 -36 -90.5 -68.5t-92.5 -66.5q-22 -17 -46 -30t-51 -20 q-30 -7 -64 -4q-23 2 -35 17.5t-10 38.5zM-10.5 593.5q3.5 29.5 14 57.5t28 53t39.5 40q33 23 67.5 43.5t71.5 34.5q47 18 93.5 34.5t97.5 19.5q30 2 51.5 -10t41.5 -33q26 -28 43 -59.5t28.5 -66t18 -70.5t10.5 -73q11 -91 8 -181.5t-11 -182.5q-3 -35 -0.5 -69t2.5 -69 q0 -11 -0.5 -21t-1.5 -21q-16 -1 -26 -0.5t-16 4.5t-9 12t-4 22q-8 66 -6 134q2 57 6 112.5t5 112.5q1 80 -6.5 158t-36.5 152q-17 42 -48 73q-8 8 -22.5 11t-26.5 1q-27 -5 -54.5 -12.5t-53.5 -17.5q-38 -14 -74.5 -29t-71.5 -36q-51 -31 -78.5 -77.5t-20.5 -112.5 q1 -6 0 -12.5t-2 -14.5q-16 1 -25.5 3t-14.5 6t-8 11t-6 20q-6 24 -2.5 53.5z" />
<glyph d="M-653 1120q0 81 109 133q-31 24 -31 59q0 34 22 63.5t57 51t79 33.5t88 12q32 0 63.5 -4.5t63.5 -15.5l20 -9v-65q-26 9 -45 15.5t-35.5 10t-32 5.5t-34.5 2q-28 0 -60.5 -8t-60 -22t-46 -32t-18.5 -37q0 -24 76 -43l25 -8v-51h-33q-2 0 -8.5 1t-11.5 1q-22 0 -44 -10.5 t-39.5 -25t-28.5 -30.5t-11 -26q0 -32 28 -53t70 -21q85 0 119 61l8 17h65l-20 -45q-51 -94 -172 -94q-36 0 -65.5 10.5t-51 28.5t-33.5 42.5t-12 53.5z" />
<glyph horiz-adv-x="1024" />
</font>
</defs>
</svg>
